<?xml version="1.0" encoding="utf-8"?>
<!-- Generator: Adobe Illustrator 16.0.0, SVG Export Plug-In . SVG Version: 6.00 Build 0)  -->
<!DOCTYPE svg PUBLIC "-//W3C//DTD SVG 1.1//EN" "http://www.w3.org/Graphics/SVG/1.1/DTD/svg11.dtd">
<svg version="1.1" id="圖層_1" xmlns="http://www.w3.org/2000/svg" xmlns:xlink="http://www.w3.org/1999/xlink" x="0px" y="0px"
	 width="46.824px" height="46.5px" viewBox="0 0 46.824 46.5" enable-background="new 0 0 46.824 46.5" xml:space="preserve">
<path fill="#E4877C" d="M23.545,1.383c3.423,0,6.824,0.799,9.972,2.382c5.308,2.669,9.26,7.245,11.126,12.887
	c1.866,5.642,1.424,11.672-1.245,16.98c-5.512,10.958-18.911,15.392-29.867,9.882h-0.002C2.572,38.003-1.86,24.604,3.65,13.645
	c2.67-5.309,7.246-9.26,12.887-11.126C18.833,1.76,21.195,1.383,23.545,1.383 M23.489,44.118c7.501,0,14.739-4.132,18.333-11.279
	c2.457-4.887,2.864-10.439,1.146-15.633c-1.718-5.193-5.356-9.406-10.244-11.863c-4.887-2.459-10.44-2.866-15.633-1.148
	C11.898,5.913,7.684,9.549,5.226,14.438c-5.073,10.089-0.991,22.425,9.097,27.5C17.265,43.417,20.4,44.118,23.489,44.118"/>
<path fill="#E4877C" d="M18.95,15.157l13.92,7.625c0.652,0.357,0.674,1.287,0.037,1.674l-13.564,8.243
	c-0.636,0.385-1.452-0.061-1.468-0.805L17.52,16.026C17.503,15.282,18.298,14.798,18.95,15.157l13.92,7.625
	c0.652,0.357,0.674,1.287,0.037,1.674l-13.564,8.243c-0.636,0.385-1.452-0.061-1.468-0.805L17.52,16.026
	C17.503,15.282,18.298,14.798,18.95,15.157"/>
</svg>
