<?xml version="1.0" encoding="utf-8"?>
<!-- Generator: Adobe Illustrator 16.0.0, SVG Export Plug-In . SVG Version: 6.00 Build 0)  -->
<!DOCTYPE svg PUBLIC "-//W3C//DTD SVG 1.1//EN" "http://www.w3.org/Graphics/SVG/1.1/DTD/svg11.dtd">
<svg version="1.1" id="圖層_1" xmlns="http://www.w3.org/2000/svg" xmlns:xlink="http://www.w3.org/1999/xlink" x="0px" y="0px"
	 width="46.824px" height="46.5px" viewBox="0 0 46.824 46.5" enable-background="new 0 0 46.824 46.5" xml:space="preserve">
<path fill="#E4877C" d="M23.516,45.882c-3.423,0-6.824-0.799-9.972-2.382c-5.308-2.669-9.26-7.245-11.126-12.887
	c-1.866-5.642-1.424-11.672,1.245-16.98C9.175,2.675,22.574-1.759,33.529,3.751h0.002c10.957,5.511,15.39,18.91,9.879,29.869
	c-2.67,5.309-7.246,9.26-12.887,11.126C28.228,45.505,25.866,45.882,23.516,45.882 M23.572,3.147
	c-7.501,0-14.739,4.132-18.333,11.279C2.782,19.313,2.375,24.865,4.093,30.06c1.718,5.193,5.356,9.406,10.244,11.863
	c4.887,2.459,10.44,2.866,15.633,1.148c5.192-1.719,9.407-5.355,11.865-10.244c5.073-10.089,0.991-22.425-9.097-27.5
	C29.796,3.848,26.661,3.147,23.572,3.147"/>
<path fill="#E4877C" d="M28.11,32.108l-13.92-7.625c-0.652-0.357-0.674-1.287-0.037-1.674l13.564-8.243
	c0.636-0.385,1.452,0.061,1.468,0.805l0.355,15.868C29.558,31.983,28.763,32.467,28.11,32.108l-13.92-7.625
	c-0.652-0.357-0.674-1.287-0.037-1.674l13.564-8.243c0.636-0.385,1.452,0.061,1.468,0.805l0.355,15.868
	C29.558,31.983,28.763,32.467,28.11,32.108"/>
</svg>
