<svg xmlns="http://www.w3.org/2000/svg" width="638.696" height="244.612" viewBox="0 0 638.696 244.612">
  <g id="bg-mountain" transform="translate(0 0)">
    <path id="Path_532" data-name="Path 532" d="M579.084,195.929a94.655,94.655,0,0,1-7.961-8.535c-3.234-3.768-6.579-7.664-10.589-10.743-7.067-5.426-18.24-7.9-25.026-1.792-.586.527-1.155,1.124-1.705,1.7-1.677,1.759-3.261,3.419-5.449,3.521-1.83.09-3.427-1.018-5.088-2.188a11.819,11.819,0,0,0-4.571-2.322c-2.483-.439-4.758.734-6.963,1.867a27.642,27.642,0,0,1-2.895,1.35c-10.979,4.091-20.221-7.945-27.649-17.616q-.757-.985-1.491-1.936c-7.039-9.085-16.4-16.662-25.452-23.989-14.859-12.027-28.895-23.387-33.7-40.9-.227-.825-.441-1.656-.656-2.485-1.621-6.263-3.3-12.739-9.95-15.923a9.84,9.84,0,0,0-1.035-.422c-5.211-5.025-13.629-3.424-19.26-.522-2.278,1.174-4.469,2.6-6.588,3.976-3.443,2.238-7,4.551-10.95,5.781a23.848,23.848,0,0,1-8.813.988l.15-.221-.584-.4-.369.545c-7.43-.742-16.981-4.8-28.4-16.039-1.5-1.474-2.987-2.988-4.485-4.51-8.833-8.974-17.967-18.254-30.159-20.911-1.773-.386-3.631-.635-5.429-.876-4.43-.594-9.011-1.208-12.477-3.932-3.765-2.961-5.517-7.945-6.925-11.95-2.21-6.285-4.716-13.408-9.651-18.615a19.528,19.528,0,0,0-10-5.834c.509-.884,1-1.779,1.441-2.7L255.772,0c-.47.973-1,1.922-1.542,2.861a14.437,14.437,0,0,0-8.661,1.01c-4.538,2.206-7.146,6.692-9.669,11.031-2.144,3.688-4.361,7.5-7.754,9.922-4.286,3.058-9.839,3.5-15.21,3.924-5.566.441-11.322.9-15.778,4.239-4.091,3.066-6.459,8.072-8.749,12.913-3,6.335-5.828,12.319-12.154,13.507a20.967,20.967,0,0,1-4.235.2,17.8,17.8,0,0,0-5.192.407c-3.985,1.119-6.572,4.62-9.086,8.416l-23.981,36.2c-3.083,4.654-6.238,8.959-10.923,10.5-5.38,1.774-10.625-.537-16.176-2.984a45.321,45.321,0,0,0-10.111-3.542,22.027,22.027,0,0,0-4.894-.3c.076-.176.146-.354.226-.528l-.641-.294c-.132.288-.253.581-.374.873-9.071.757-16.849,7.032-24.994,13.633-8.229,6.669-16.737,13.565-26.772,14.247-4.25.289-8.529-.6-12.669-1.455a64.548,64.548,0,0,0-9.666-1.5A37.014,37.014,0,0,0,0,136.566v.762a36.476,36.476,0,0,1,16.729-3.333,64.027,64.027,0,0,1,9.559,1.482c4.187.867,8.515,1.765,12.86,1.468,10.258-.7,18.855-7.665,27.168-14.4,7.946-6.44,15.531-12.575,24.264-13.451a25.67,25.67,0,0,0-.136,17.66l.12.329a4.577,4.577,0,0,1,.4,3.562,5.425,5.425,0,0,0-.2,1.286c0,1.661,1.33,3.077,3.946,4.21a67.833,67.833,0,0,0,19.626,5.189l.076-.7A67.137,67.137,0,0,1,95,135.491c-2.335-1.011-3.52-2.21-3.521-3.564a4.805,4.805,0,0,1,.182-1.12,5.238,5.238,0,0,0-.428-3.97l-.119-.326a24.961,24.961,0,0,1,.244-17.472,21.22,21.22,0,0,1,5.076.262,44.786,44.786,0,0,1,9.949,3.493c5.429,2.393,11.043,4.867,16.682,3.008,4.9-1.616,8.137-6.023,11.29-10.784l23.981-36.2c2.438-3.681,4.937-7.072,8.688-8.126a17.038,17.038,0,0,1,4.988-.381,21.415,21.415,0,0,0,4.379-.213c6.68-1.254,9.585-7.4,12.662-13.9,2.253-4.763,4.583-9.688,8.535-12.65,4.292-3.218,9.944-3.666,15.411-4.1s11.119-.882,15.564-4.053c3.517-2.509,5.773-6.389,7.955-10.141,2.583-4.443,5.023-8.639,9.368-10.751a12.944,12.944,0,0,1,7.953-.974c-1.1,1.828-2.281,3.606-3.453,5.341-1.584,2.344-3.2,4.764-4.575,7.3L207.421,55.908l.507.49,36.784-38.08a27.235,27.235,0,0,0-1.875,5.673l-.427-.351L215.69,56.156l.461.379-42.69,46.446.52.477,43.468-47.292-.487-.447,25.812-31.412c-.892,4.552-.512,9.421,2.443,13.207a24.98,24.98,0,0,0,4.375,4.063,24.183,24.183,0,0,1,4.292,3.99c4.357,5.645,2.72,13.4,1.138,20.89-1.644,7.783-3.343,15.832,1.636,21.611a23.919,23.919,0,0,0,3.958,3.426,21.425,21.425,0,0,1,6.035,6.124,22.706,22.706,0,0,0,3.828,4.407,22.786,22.786,0,0,0,5.338,2.952c.433.191.865.381,1.292.577,11.888,5.452,21.1,15.764,29.224,24.863l.525-.47c-8.171-9.15-17.434-19.521-29.456-25.034-.431-.2-.866-.39-1.3-.582a22.255,22.255,0,0,1-5.178-2.853,22.152,22.152,0,0,1-3.7-4.276,22.086,22.086,0,0,0-6.185-6.274,23.406,23.406,0,0,1-3.844-3.321c-4.752-5.515-3.163-13.039-1.481-21.005,1.616-7.652,3.287-15.564-1.269-21.467a24.685,24.685,0,0,0-4.414-4.113,24.468,24.468,0,0,1-4.257-3.944c-4.307-5.52-2.873-13.524-.093-19.175.218-.444.464-.877.7-1.314l3.165-3.276-.507-.49-1.216,1.259c1.009-1.644,2.081-3.249,3.141-4.818,1.227-1.815,2.467-3.678,3.61-5.6a19.983,19.983,0,0,1,9.881,5.656c4.832,5.1,7.311,12.145,9.5,18.364,1.438,4.091,3.229,9.183,7.155,12.27,3.617,2.843,8.295,3.47,12.819,4.077,1.784.239,3.628.486,5.373.866,11.987,2.612,21.046,11.816,29.807,20.716,1.5,1.524,2.994,3.042,4.493,4.518,7.347,7.233,17.55,14.963,28.438,16.211l-22.348,32.993c-1.356,2-2.893,4.271-5.073,5.62a18.331,18.331,0,0,1-4.988,1.856c-.551.146-1.1.293-1.645.454-11.072,3.276-18.993,12.354-26.653,21.132q-1.148,1.315-2.289,2.614c-2.272,2.574-4.554,4.993-7.492,6.313a24.569,24.569,0,0,1-6.687,1.586c-1.114.157-2.267.319-3.386.552A26.285,26.285,0,0,0,263.9,172.557c-.546,1.011-1.033,2.074-1.5,3.1a26.629,26.629,0,0,1-3.126,5.6c-1.872,2.352-4.478,3.981-7,5.556L220.113,206.9l.374.6,32.158-20.092c2.571-1.607,5.23-3.268,7.177-5.715a27.192,27.192,0,0,0,3.216-5.742c.465-1.017.947-2.069,1.482-3.06a25.574,25.574,0,0,1,17.1-12.738c1.1-.228,2.237-.389,3.34-.544a25.1,25.1,0,0,0,6.878-1.641c3.065-1.377,5.406-3.855,7.731-6.489q1.144-1.3,2.292-2.616c7.594-8.7,15.447-17.7,26.322-20.92.537-.159,1.082-.3,1.626-.448a18.865,18.865,0,0,0,5.178-1.938c2.308-1.427,3.89-3.763,5.286-5.824l22.557-33.3a24.608,24.608,0,0,0,9.49-1.005c4.04-1.258,7.641-3.6,11.124-5.863,2.1-1.368,4.28-2.782,6.527-3.94,5.074-2.615,12.474-4.154,17.454-.439a5.616,5.616,0,0,0-3.224.727c-3.962,2.072-8.388,6.087-11.837,10.739-4.476,6.036-5.955,13.094-3.956,18.881a30.924,30.924,0,0,0,3.6,6.647c.631.966,1.283,1.965,1.865,2.972a32.632,32.632,0,0,1,2.732,26.126,29.664,29.664,0,0,0-26.636,11.786,60.708,60.708,0,0,0-3.785,6.146c-2.253,4.006-4.38,7.79-7.939,10.341-.9.642-1.911,1.23-2.894,1.8-2.692,1.56-5.476,3.172-6.373,6.155a12.316,12.316,0,0,0,.2,5.9c.422,2.159.821,4.2-.012,6.045s-2.786,3.026-4.544,3.972q-.872.47-1.767.945c-7.476,3.982-15.949,8.495-17.482,16.825-.07.378-.125.766-.181,1.155A7.149,7.149,0,0,1,324,216.019c-1.012,1.228-2.729,1.6-4.39,1.963l-.175.038a52.38,52.38,0,0,0-34.649,26.261l.622.331a51.668,51.668,0,0,1,34.177-25.9l.175-.038c1.695-.369,3.616-.787,4.783-2.2a7.768,7.768,0,0,0,1.347-4.017c.054-.379.108-.757.176-1.127,1.472-8,9.786-12.424,17.121-16.331q.894-.476,1.77-.946c1.86-1,3.922-2.242,4.853-4.3s.486-4.3.061-6.47a11.807,11.807,0,0,1-.218-5.566c.817-2.715,3.359-4.188,6.051-5.748,1-.578,2.028-1.175,2.951-1.837,3.685-2.643,5.951-6.672,8.142-10.568a60.259,60.259,0,0,1,3.739-6.076,28.938,28.938,0,0,1,26.271-11.471l.284.033.091-.271a33.337,33.337,0,0,0-2.7-26.973c-.592-1.023-1.25-2.03-1.885-3a30.384,30.384,0,0,1-3.523-6.492c-1.923-5.567-.481-12.382,3.856-18.231,3.389-4.571,7.725-8.509,11.6-10.534a5.025,5.025,0,0,1,5.11.041c6.356,3.043,7.919,9.076,9.573,15.464.215.832.431,1.666.659,2.494,4.865,17.729,18.986,29.158,33.936,41.259,9.021,7.3,18.35,14.852,25.338,23.873q.734.946,1.489,1.933c6.507,8.471,14.38,18.723,23.743,18.721a13.4,13.4,0,0,0,4.711-.874,28.124,28.124,0,0,0,2.97-1.383c2.2-1.129,4.278-2.2,6.519-1.8a11.3,11.3,0,0,1,4.288,2.2c1.684,1.187,3.425,2.415,5.526,2.316,2.471-.115,4.227-1.957,5.926-3.739.541-.567,1.1-1.154,1.667-1.664,6.5-5.85,17.283-3.425,24.125,1.828,3.952,3.034,7.272,6.9,10.483,10.643a95.18,95.18,0,0,0,8.022,8.6c15.252,13.847,37.105,16.215,60.044,17.576l.042-.7c-22.808-1.353-44.53-3.7-59.612-17.394Z" fill="#e4877c"/>
    <path id="Path_533" data-name="Path 533" d="M227.422,189.26a50,50,0,0,1-8.848-4.063c3.7-4,7.522-7.933,11.4-11.786a2.238,2.238,0,0,0,.591.477,2.2,2.2,0,0,0,1.044.273,1.832,1.832,0,0,0,.9-.23l-.346-.615a1.311,1.311,0,0,1-1.265-.049,1.533,1.533,0,0,1-.43-.351q.922-.912,1.846-1.819a1.425,1.425,0,0,1,.444.806,1.351,1.351,0,0,1-.253,1.137l-.093.1.5.5q.062-.059.119-.123L266.977,138.2l-.508-.489L233.49,172.021a2.36,2.36,0,0,0-.035-.251,2.126,2.126,0,0,0-.633-1.157c1.122-1.091,2.244-2.182,3.373-3.254l-.485-.511c-1.172,1.113-2.337,2.244-3.5,3.377a1.869,1.869,0,0,0-1.13-.024l30.732-32.15c1.244-1.084,2.5-2.151,3.78-3.178l-.441-.549c-1,.8-1.98,1.624-2.956,2.459l-.076-.072-.8.835c-2.149,1.873-4.247,3.816-6.257,5.824l.352.353-26.35,27.566-.122-.1-1.388,1.681.527.468,1.412-1.477a1.6,1.6,0,0,0,.093.946c-3.925,3.893-7.789,7.873-11.531,11.913l.516.478a52.454,52.454,0,0,1-21.45-23.612l-.1-.214-.234.005a20.447,20.447,0,0,0-15.016,7.213c-.2.239-.4.485-.6.731a6.534,6.534,0,0,1-7.17,3.165c-.319-.016-.638-.032-.953-.041-8.647-.253-16.214,4.658-23.528,9.409-1.675,1.088-3.408,2.214-5.109,3.245a84.336,84.336,0,0,1-35.152,11.73l12.8-7.313-.35-.612-20.862,11.921.35.612,7.723-4.413.052.546A85.042,85.042,0,0,0,144.787,185.7c1.711-1.038,3.448-2.166,5.128-3.257,7.223-4.692,14.681-9.55,23.124-9.3.311.009.624.025.938.041a7.19,7.19,0,0,0,7.755-3.428c.194-.242.388-.484.585-.72a19.741,19.741,0,0,1,14.258-6.954c.221.488.466.965.7,1.445l-.413-.212-10,19.416a11.777,11.777,0,0,1-6.9,6.657c-.39.2-.78.4-1.163.6a35.013,35.013,0,0,0-13.432,12.683l-.246.406c-1.12,1.855-2.278,3.772-4.219,4.282a7.609,7.609,0,0,1-2.679.046,11.3,11.3,0,0,0-2.166-.071c-.123.012-.244.039-.366.06l11.163-10.986-.494-.5-11.3,11.124.4.4a5.842,5.842,0,0,0-3.719,2.882,5.714,5.714,0,0,0-.362,5.24l.638-.3a5.347,5.347,0,0,1,4.113-7.219,10.653,10.653,0,0,1,2.031.071,8.246,8.246,0,0,0,2.927-.066c2.218-.583,3.507-2.717,4.644-4.6l.245-.4a34.3,34.3,0,0,1,13.16-12.427c.38-.2.766-.4,1.152-.6a12.437,12.437,0,0,0,7.21-6.962L197.41,163.8a53.166,53.166,0,0,0,29.783,26.124l.229-.667Zm3.332-18.144a1.437,1.437,0,0,1,.829-.287c-.474.463-.943.931-1.414,1.4A1.315,1.315,0,0,1,230.754,171.116Z" fill="#e4877c"/>
    <path id="Path_534" data-name="Path 534" d="M492.265,199.758a39.645,39.645,0,0,0-8.93-5.288,24.1,24.1,0,0,0-13.119-.776c.069-.284.125-.57.2-.853l-.681-.183c-.107.4-.188.8-.282,1.2a37.864,37.864,0,0,0-7.99,2.769A98.551,98.551,0,0,0,448.8,204.25c-2.054,1.381-4.179,2.81-6.315,4.127-9.59,5.916-20.235,10.124-30.529,14.192l-25.465,10.068.259.656,25.465-10.068c10.323-4.08,21-8.3,30.641-14.248,2.148-1.325,4.278-2.757,6.338-4.142a98.028,98.028,0,0,1,12.572-7.568,37.419,37.419,0,0,1,7.511-2.646,39.805,39.805,0,0,0-.9,7.971v.163l.123.107c2.86,2.485,5.9,5.443,5.712,9.107a12.294,12.294,0,0,1-.437,2.368c-.135.537-.275,1.092-.365,1.654a12.093,12.093,0,0,0,1.493,7.618l-14.416,8.559.36.606,14.39-8.544a26.229,26.229,0,0,0,1.965,2.924l-12.055,9.76.443.548,12.044-9.751c.955,1.2,1.984,2.35,3,3.449l.518-.479a38.451,38.451,0,0,1-5.311-6.81l.786-.467-.36-.606-.758.45A11.408,11.408,0,0,1,474.1,216.1c.085-.531.221-1.071.353-1.594a12.991,12.991,0,0,0,.458-2.5c.2-3.926-2.881-7-5.831-9.568a39.107,39.107,0,0,1,.953-7.983,23.546,23.546,0,0,1,13.05.677,39.107,39.107,0,0,1,8.767,5.2l.957.685a163.169,163.169,0,0,0,49.182,23.8l.2-.677a162.466,162.466,0,0,1-48.969-23.7l-.955-.683Z" fill="#e4877c"/>
    <rect id="Rectangle_67" data-name="Rectangle 67" width="26.182" height="0.705" transform="translate(448.708 230.813) rotate(-28.503)" fill="#e4877c"/>
    <rect id="Rectangle_68" data-name="Rectangle 68" width="29.888" height="0.705" transform="matrix(0.859, -0.512, 0.512, 0.859, 444.23, 228.862)" fill="#e4877c"/>
    <path id="Path_535" data-name="Path 535" d="M467.556,209.394c-9.934,4.845-19.812,10.1-29.36,15.63l.354.61c9.534-5.518,19.4-10.769,29.315-15.607l-.309-.634Z" fill="#e4877c"/>
    <path id="Path_536" data-name="Path 536" d="M465.242,204.2a317.88,317.88,0,0,0-29.385,17.38l.391.586a317.282,317.282,0,0,1,29.319-17.341l-.325-.625Z" fill="#e4877c"/>
    <path id="Path_537" data-name="Path 537" d="M464.128,199.558a105.481,105.481,0,0,0-29.412,15.671l.426.562a104.778,104.778,0,0,1,29.216-15.567l-.229-.667Z" fill="#e4877c"/>
    <path id="Path_538" data-name="Path 538" d="M549.07,191.7c.514-.2,1.018-.425,1.521-.652a14.361,14.361,0,0,1,2.879-1.064,9.657,9.657,0,0,1,8.055,2.5,29.361,29.361,0,0,1,5.465,7.05l.6-.374a29.881,29.881,0,0,0-5.6-7.212,10.366,10.366,0,0,0-8.661-2.657A15.11,15.11,0,0,0,550.3,190.4c-.491.222-.982.444-1.483.637-7.484,2.88-15.82-1.045-23.046-4.948l-.335.62C532.8,190.69,541.308,194.684,549.07,191.7Z" fill="#e4877c"/>
    <path id="Path_539" data-name="Path 539" d="M468.907,160.64a100.936,100.936,0,0,0,10.211,11.992c5.933,5.639,13.163,9.677,20.154,13.583a12.032,12.032,0,0,0,3.9,1.6,11.9,11.9,0,0,0,2.766,0c.372-.029.744-.059,1.115-.073,5.585-.206,10.5,2.861,15.9,6.593l.4-.58c-4.24-2.935-10.038-6.947-16.324-6.718-.38.015-.762.045-1.143.075a11.19,11.19,0,0,1-2.6.007,11.323,11.323,0,0,1-3.665-1.519c-6.953-3.884-14.143-7.9-20.012-13.478a100.408,100.408,0,0,1-10.136-11.909c-5.075-6.63-10.322-13.486-17.746-17.518l-.337.62c7.292,3.96,12.493,10.756,17.522,17.327Z" fill="#e4877c"/>
    <path id="Path_540" data-name="Path 540" d="M441.626,145.52a.26.26,0,0,1,.254.031l.056.075.584-.394a.948.948,0,0,0-.1-.133l-15.3-20.461-.564.422,14.8,19.8a1.37,1.37,0,0,0-.952,1.178,2.822,2.822,0,0,0,1.161,2.04l9.393,8.795.481-.515-9.392-8.795c-.486-.456-.958-.947-.938-1.5a.682.682,0,0,1,.508-.546Z" fill="#e4877c"/>
    <path id="Path_541" data-name="Path 541" d="M424,147.036a156.236,156.236,0,0,0,29.345,35.544l.472-.524A155.544,155.544,0,0,1,424.6,146.672l-.6.364Z" fill="#e4877c"/>
    <path id="Path_542" data-name="Path 542" d="M577.037,215.423a11.621,11.621,0,0,0-8.851-1.314c-.481.095-.962.19-1.446.256-3.021.409-6.182-.354-8.969-1.026l-13.958-3.366-.165.686,13.958,3.366c2.848.687,6.076,1.465,9.229,1.039.5-.068.993-.165,1.488-.262a14.479,14.479,0,0,1,2.391-.337,14.99,14.99,0,0,1,6.05,1.609l.346.145c8.492,3.553,17.492,5.984,26.2,8.336l.184-.681c-8.682-2.345-17.659-4.771-26.107-8.306Z" fill="#e4877c"/>
    <rect id="Rectangle_69" data-name="Rectangle 69" width="0.705" height="22.269" transform="translate(530.685 215.271) rotate(-60.07)" fill="#e4877c"/>
    <path id="Path_543" data-name="Path 543" d="M391.885,211.333l.268.365,12.082-14.638-.544-.449-11.524,13.962c-2.1-2.2-6.1-.293-7.326.369a148.69,148.69,0,0,0-28.2,19.822l.47.526a147.972,147.972,0,0,1,28.064-19.728c1.155-.626,5.05-2.491,6.708-.23Z" fill="#e4877c"/>
    <rect id="Rectangle_70" data-name="Rectangle 70" width="16.059" height="0.705" transform="translate(349.415 217.056) rotate(-33.166)" fill="#e4877c"/>
    <rect id="Rectangle_71" data-name="Rectangle 71" width="15.801" height="0.705" transform="matrix(0.629, -0.777, 0.777, 0.629, 386.119, 139.869)" fill="#e4877c"/>
    <path id="Path_544" data-name="Path 544" d="M377.359,141.025l.527.467a188.475,188.475,0,0,0,15.791-20.521l-.587-.391a187.874,187.874,0,0,1-15.732,20.444Z" fill="#e4877c"/>
    <path id="Path_545" data-name="Path 545" d="M366.293,145.15l.519.478a322.305,322.305,0,0,0,23.968-29.3l-.571-.414a321.487,321.487,0,0,1-23.915,29.238Z" fill="#e4877c"/>
    <rect id="Rectangle_72" data-name="Rectangle 72" width="44.024" height="0.705" transform="translate(358.335 144.281) rotate(-49.714)" fill="#e4877c"/>
    <path id="Path_546" data-name="Path 546" d="M354.417,140.645l-.116-.108L322.548,174.8l-.294.208.044.062-.594.641.494.5,1.6-1.437-.124-.155,30.458-32.863.132.119c11.267-12.509,22.149-25.645,32.346-39.045l-.561-.427c-9.981,13.115-20.622,25.974-31.633,38.242Z" fill="#e4877c"/>
    <rect id="Rectangle_73" data-name="Rectangle 73" width="121.8" height="0.705" transform="matrix(0.666, -0.746, 0.746, 0.666, 302.628, 183.303)" fill="#e4877c"/>
    <path id="Path_547" data-name="Path 547" d="M343.823,124.754c9.874-5.854,17.612-14.688,25.1-23.232,7.138-8.149,14.518-16.575,23.73-22.379l-.376-.6c-9.3,5.859-16.713,14.324-23.884,22.511-7.447,8.5-15.148,17.293-24.925,23.09l.359.606Z" fill="#e4877c"/>
    <rect id="Rectangle_74" data-name="Rectangle 74" width="31.256" height="0.705" transform="matrix(0.732, -0.682, 0.682, 0.732, 350.931, 111.354)" fill="#e4877c"/>
    <path id="Path_548" data-name="Path 548" d="M367.514,90.277l-.369-.6A67.374,67.374,0,0,0,353.255,101l.515.482a66.638,66.638,0,0,1,13.744-11.2Z" fill="#e4877c"/>
    <path id="Path_549" data-name="Path 549" d="M393.56,79.331a192.177,192.177,0,0,0-19.307,18.925l.527.467a191.483,191.483,0,0,1,19.237-18.855l-.457-.537Z" fill="#e4877c"/>
    <path id="Path_550" data-name="Path 550" d="M366.156,122.282l.57.415a245.469,245.469,0,0,1,20.635-24.781l-.511-.486a246.186,246.186,0,0,0-20.695,24.852Z" fill="#e4877c"/>
    <path id="Path_551" data-name="Path 551" d="M367.314,138.418c6.372-7.384,12.445-15.18,18.05-23.171l-.577-.4c-5.592,7.971-11.65,15.748-18.007,23.115l.534.46Z" fill="#e4877c"/>
    <path id="Path_552" data-name="Path 552" d="M372.215,144.262l-.619-.336a101.924,101.924,0,0,1-16.053,21.947l.509.488a102.618,102.618,0,0,0,16.163-22.1Z" fill="#e4877c"/>
    <path id="Path_553" data-name="Path 553" d="M363.812,148.1a351.861,351.861,0,0,1-30.08,32.424l.485.511a352.548,352.548,0,0,0,30.141-32.49l-.546-.446Z" fill="#e4877c"/>
    <path id="Path_554" data-name="Path 554" d="M337.519,168.748c1.272-1.208,2.505-2.448,3.721-3.676l15.56-15.7-.5-.5-13.935,14.058c5.02-6.3,9.8-12.916,14.431-19.317l-.571-.413c-4.632,6.408-9.421,13.033-14.441,19.329-1.468,1.84-3.06,3.782-4.773,5.723a44.255,44.255,0,0,1-7.709,6.068l.36.605c.956-.57,1.87-1.2,2.76-1.851a60.5,60.5,0,0,1-4.633,4.094l.437.553a72.624,72.624,0,0,0,9.293-8.98Z" fill="#e4877c"/>
    <path id="Path_555" data-name="Path 555" d="M346.943,137.884l-29.372,34.565-.106-.078-1.267,1.694.551.44,30.731-36.164Z" fill="#e4877c"/>
    <rect id="Rectangle_75" data-name="Rectangle 75" width="55.625" height="0.705" transform="translate(310.432 168.374) rotate(-49.738)" fill="#e4877c"/>
    <path id="Path_556" data-name="Path 556" d="M334.043,135.957l-.537-.456c-7.508,8.843-15.252,17.71-23.02,26.355-2.532,2.819-5.4,6.014-8.932,8.176l.368.6c3.617-2.215,6.523-5.451,9.088-8.306,7.771-8.65,15.521-17.522,23.032-26.37Z" fill="#e4877c"/>
    <path id="Path_557" data-name="Path 557" d="M294.233,171.827c.629-.629,1.246-1.19,1.977-1.84a4.78,4.78,0,0,0,.608-.722c.094-.127.19-.257.287-.375l.15.117.018-.02h0c.141-.149.265-.28.363-.4,8.854-9.719,17.734-19.556,26.4-29.244l-.495-.443a134.592,134.592,0,0,1,17.523-13.511l-.383-.592a135.234,135.234,0,0,0-17.793,13.739l.467.511c-8.512,9.515-17.229,19.172-25.924,28.719a.666.666,0,0,0-.209.075,3.374,3.374,0,0,0-.97,1,4.265,4.265,0,0,1-.509.614c-.741.657-1.366,1.227-2.007,1.868l.5.5Z" fill="#e4877c"/>
    <path id="Path_558" data-name="Path 558" d="M318.042,137.769a212.365,212.365,0,0,1-23.419,22.392l.447.545A213.14,213.14,0,0,0,316,141.042l.342.37,13.045-12.06-.479-.518-11.286,10.434c.313-.344.631-.683.941-1.029l-.524-.471Z" fill="#e4877c"/>
    <rect id="Rectangle_76" data-name="Rectangle 76" width="19.68" height="0.705" transform="matrix(0.665, -0.747, 0.747, 0.665, 333.533, 195.091)" fill="#e4877c"/>
    <path id="Path_559" data-name="Path 559" d="M345.421,174.59c-8.17,11.269-16.619,22.922-27.858,31.575l.43.559c11.32-8.715,19.8-20.41,28-31.72l-.57-.414Z" fill="#e4877c"/>
    <path id="Path_560" data-name="Path 560" d="M313.229,215.556l.447.545a188.17,188.17,0,0,0,17.354-16.193l-.513-.484a187.525,187.525,0,0,1-17.288,16.132Z" fill="#e4877c"/>
    <path id="Path_561" data-name="Path 561" d="M328.536,188.041c-7.279,6.91-14.744,13.852-22.212,20.655l-.231-.186-1.216,1.508.511.482c7.941-7.215,15.892-14.6,23.633-21.948l-.485-.511Z" fill="#e4877c"/>
    <path id="Path_562" data-name="Path 562" d="M306.828,202.748l.41.574a177.189,177.189,0,0,0,25.783-22.508l-.513-.484a176.432,176.432,0,0,1-25.681,22.419Z" fill="#e4877c"/>
    <path id="Path_563" data-name="Path 563" d="M327.577,180.062l-.511-.486A174.867,174.867,0,0,1,296.631,205l.388.589a175.6,175.6,0,0,0,30.558-25.532Z" fill="#e4877c"/>
    <path id="Path_564" data-name="Path 564" d="M319.272,179.813l-.475-.521a229.623,229.623,0,0,1-28.631,22.2l.387.589a230.284,230.284,0,0,0,28.719-22.273Z" fill="#e4877c"/>
    <path id="Path_565" data-name="Path 565" d="M313.852,180.417l-.466-.529a132.25,132.25,0,0,1-32.619,21.125l.292.642a132.952,132.952,0,0,0,32.793-21.237Z" fill="#e4877c"/>
    <path id="Path_566" data-name="Path 566" d="M274.951,199.315l.122.139,32.53-27.266-.453-.541L275.5,198.175l-.034-.044-2.431,1.6.388.589Z" fill="#e4877c"/>
    <path id="Path_567" data-name="Path 567" d="M266.062,196.163l.429.56c9.243-7.087,18.452-14.448,27.369-21.879l-.451-.542c-8.911,7.425-18.111,14.78-27.347,21.861Z" fill="#e4877c"/>
    <path id="Path_568" data-name="Path 568" d="M260.294,189.792c-.439,0-.82.323-1.131.961l-.694,1.422,1.991-1.6-.392.5a.507.507,0,0,0,.6.046.788.788,0,0,0,.273-.813.742.742,0,0,0-.029-.1l30.273-24.394-.442-.549L260.3,189.792h-.008Z" fill="#e4877c"/>
    <path id="Path_569" data-name="Path 569" d="M276.452,182.475l.458.536c5.708-4.869,11.411-9.875,16.952-14.879l-.473-.523c-5.536,5-11.235,10-16.937,14.867Z" fill="#e4877c"/>
    <path id="Path_570" data-name="Path 570" d="M290.072,179.324l.441.55a110.076,110.076,0,0,0,15.44-15.112l-.54-.453a109.377,109.377,0,0,1-15.342,15.015Z" fill="#e4877c"/>
    <path id="Path_571" data-name="Path 571" d="M296.087,186.4l.5.5a160.444,160.444,0,0,0,11.053-12.093l-.544-.448a159.977,159.977,0,0,1-11,12.04Z" fill="#e4877c"/>
    <rect id="Rectangle_77" data-name="Rectangle 77" width="21.796" height="0.705" transform="translate(262.386 180.807) rotate(-42.804)" fill="#e4877c"/>
    <rect id="Rectangle_78" data-name="Rectangle 78" width="7.984" height="0.705" transform="matrix(0.838, -0.545, 0.545, 0.838, 304.836, 216.802)" fill="#e4877c"/>
    <rect id="Rectangle_79" data-name="Rectangle 79" width="9.759" height="0.705" transform="translate(291.794 208.765) rotate(-30.967)" fill="#e4877c"/>
    <rect id="Rectangle_80" data-name="Rectangle 80" width="12.998" height="0.705" transform="matrix(0.825, -0.565, 0.565, 0.825, 284.738, 208.759)" fill="#e4877c"/>
    <rect id="Rectangle_81" data-name="Rectangle 81" width="13.858" height="0.705" transform="translate(274.063 209.511) rotate(-37.33)" fill="#e4877c"/>
    <rect id="Rectangle_82" data-name="Rectangle 82" width="17.146" height="0.705" transform="matrix(0.78, -0.625, 0.625, 0.78, 265.284, 213.106)" fill="#e4877c"/>
    <rect id="Rectangle_83" data-name="Rectangle 83" width="13.837" height="0.705" transform="matrix(0.844, -0.537, 0.537, 0.844, 260.386, 208.531)" fill="#e4877c"/>
    <rect id="Rectangle_84" data-name="Rectangle 84" width="15.735" height="0.705" transform="matrix(0.789, -0.615, 0.615, 0.789, 254.228, 206.725)" fill="#e4877c"/>
    <path id="Path_572" data-name="Path 572" d="M259.257,196.391c-4.953,4.29-10.09,8.5-15.269,12.515l.432.557c5.189-4.022,10.337-8.241,15.3-12.54l-.462-.533Z" fill="#e4877c"/>
    <path id="Path_573" data-name="Path 573" d="M253.553,195.392c-5.948,5.521-12.227,10.83-18.662,15.779l.43.559c6.453-4.962,12.749-10.285,18.712-15.822l-.479-.517Z" fill="#e4877c"/>
    <rect id="Rectangle_85" data-name="Rectangle 85" width="25.631" height="0.705" transform="matrix(0.756, -0.655, 0.655, 0.756, 225.831, 212.843)" fill="#e4877c"/>
    <rect id="Rectangle_86" data-name="Rectangle 86" width="9.952" height="0.705" transform="matrix(0.74, -0.673, 0.673, 0.74, 223.455, 209.474)" fill="#e4877c"/>
    <path id="Path_574" data-name="Path 574" d="M193.3,166.857l-.614-.347a157.817,157.817,0,0,1-13.525,20.156l.554.437A158.6,158.6,0,0,0,193.3,166.857Z" fill="#e4877c"/>
    <path id="Path_575" data-name="Path 575" d="M180.334,172.841,164.7,195.333l.579.4,5.545-7.976a2.129,2.129,0,0,0,.714,1.569,2.164,2.164,0,0,0,1.542.591l-.874,1.212,2.063-1.678a1.917,1.917,0,0,0,.55-.743l13.521-18.766-.572-.412-12.829,17.8a2.047,2.047,0,0,0-.965-1.38,2.084,2.084,0,0,0-1.878-.03l8.819-12.685-.579-.4Zm-8.008,13.749a1.287,1.287,0,0,1,1.952,1.1,1.6,1.6,0,0,1-.084.677l-.857,1.189-.087-.371a1.382,1.382,0,0,1-.923-2.6Z" fill="#e4877c"/>
    <path id="Path_576" data-name="Path 576" d="M157.682,199.333a.553.553,0,0,0-.152-.032.573.573,0,0,0-.537.269.44.44,0,0,0,.043.481l.252-.193-.146.2.531.461a1.393,1.393,0,0,0,.261-.343l16.343-21.851-.564-.422-16.031,21.434Z" fill="#e4877c"/>
    <path id="Path_577" data-name="Path 577" d="M145.346,200.393l.572.411c4.886-6.8,10.146-13.453,15.635-19.775l-.532-.462c-5.5,6.338-10.777,13.008-15.675,19.826Z" fill="#e4877c"/>
    <path id="Path_578" data-name="Path 578" d="M148.165,187.526l-.42-.566A72.56,72.56,0,0,0,131.4,203.822l.579.4a71.853,71.853,0,0,1,16.188-16.7Z" fill="#e4877c"/>
    <rect id="Rectangle_87" data-name="Rectangle 87" width="10.929" height="0.705" transform="matrix(0.766, -0.643, 0.643, 0.766, 129.912, 197.582)" fill="#e4877c"/>
    <rect id="Rectangle_88" data-name="Rectangle 88" width="14.062" height="0.705" transform="translate(145.356 208.671) rotate(-38.454)" fill="#e4877c"/>
    <rect id="Rectangle_89" data-name="Rectangle 89" width="10.311" height="0.705" transform="matrix(0.812, -0.584, 0.584, 0.812, 139.304, 206.267)" fill="#e4877c"/>
    <path id="Path_579" data-name="Path 579" d="M140.714,199.629c5.176-5.668,10.592-11.237,16.135-16.561l-.488-.508c-5.91,5.677-11.686,11.626-17.169,17.682l.175.159a61.919,61.919,0,0,0-7.516,5.473l.458.536a61.257,61.257,0,0,1,8.736-6.217l-.331-.564Z" fill="#e4877c"/>
    <rect id="Rectangle_90" data-name="Rectangle 90" width="7.163" height="0.705" transform="translate(127.918 202.259) rotate(-37.407)" fill="#e4877c"/>
    <rect id="Rectangle_91" data-name="Rectangle 91" width="10.675" height="0.705" transform="translate(160.979 182.872) rotate(-48.792)" fill="#e4877c"/>
    <path id="Path_580" data-name="Path 580" d="M173.056,174.186l-6.025,6.695.1.089-16.15,19.015.537.457,17.063-20.09-.07-.059,5.07-5.635Z" fill="#e4877c"/>
    <path id="Path_581" data-name="Path 581" d="M295.529,149.268c4.186-5.509,8.315-11.173,12.275-16.835l-.578-.4c-3.955,5.655-8.079,11.311-12.259,16.813l.562.426Z" fill="#e4877c"/>
    <rect id="Rectangle_92" data-name="Rectangle 92" width="26.245" height="0.705" transform="translate(287.849 151.782) rotate(-52.257)" fill="#e4877c"/>
    <path id="Path_582" data-name="Path 582" d="M285.552,145.1l.531.463c5.251-6.027,10.306-12.358,15.022-18.817l-.569-.416c-4.7,6.442-9.746,12.757-14.984,18.77Z" fill="#e4877c"/>
    <rect id="Rectangle_93" data-name="Rectangle 93" width="30.309" height="0.705" transform="translate(265.776 140.038) rotate(-46.783)" fill="#e4877c"/>
    <rect id="Rectangle_94" data-name="Rectangle 94" width="28.19" height="0.705" transform="translate(264.052 133.302) rotate(-47.245)" fill="#e4877c"/>
    <path id="Path_583" data-name="Path 583" d="M270.781,140.528l-.741,1.219.6.366.7-1.165L292.073,118.1l-.522-.473Z" fill="#e4877c"/>
    <path id="Path_584" data-name="Path 584" d="M276.181,144.121l.557.433c5.995-7.713,12.292-15.369,18.716-22.757l-.532-.462c-6.433,7.4-12.738,15.064-18.74,22.786Z" fill="#e4877c"/>
    <rect id="Rectangle_95" data-name="Rectangle 95" width="34.712" height="0.705" transform="translate(276.673 149.93) rotate(-51.241)" fill="#e4877c"/>
    <path id="Path_585" data-name="Path 585" d="M287.7,147.607l-.445-.547a164.924,164.924,0,0,0-14.173,13l.506.491A164.165,164.165,0,0,1,287.7,147.607Z" fill="#e4877c"/>
    <rect id="Rectangle_96" data-name="Rectangle 96" width="36.002" height="0.705" transform="matrix(0.727, -0.687, 0.687, 0.727, 253.262, 173.696)" fill="#e4877c"/>
    <rect id="Rectangle_97" data-name="Rectangle 97" width="35.988" height="0.705" transform="matrix(0.688, -0.726, 0.726, 0.688, 247.373, 176.861)" fill="#e4877c"/>
    <path id="Path_586" data-name="Path 586" d="M239.984,176.549l-1.482,1.893.531.461,31.955-33.345-.509-.488L240.172,176.7Z" fill="#e4877c"/>
    <rect id="Rectangle_98" data-name="Rectangle 98" width="71.571" height="0.705" transform="matrix(0.636, -0.772, 0.772, 0.636, 219.909, 163.824)" fill="#e4877c"/>
    <path id="Path_587" data-name="Path 587" d="M210.617,155.069a.834.834,0,0,0,.022.906,1.182,1.182,0,0,0,.968.545.981.981,0,0,0,.107-.006,2.279,2.279,0,0,0,1.407-.948L256.5,105.182l-.534-.46-43.374,50.385a1.712,1.712,0,0,1-.952.707.465.465,0,0,1-.4-.214c-.06-.1-.032-.14-.022-.155l-.6-.375Z" fill="#e4877c"/>
    <path id="Path_588" data-name="Path 588" d="M209.531,151.926l-.123-.1-.537.606.067.059-.76,1.078.562.427,46.878-56.989-.545-.448Z" fill="#e4877c"/>
    <path id="Path_589" data-name="Path 589" d="M197.058,153.558a613.545,613.545,0,0,1,55.351-66.739l-.51-.487a614.545,614.545,0,0,0-49.31,58.45l-.424-.425a174.8,174.8,0,0,1-19.586,16.859l.419.567a175.5,175.5,0,0,0,19.237-16.514q-2.9,3.922-5.749,7.879l.573.411Z" fill="#e4877c"/>
    <path id="Path_590" data-name="Path 590" d="M247.556,74.927l-.513-.484-59.172,62.672-.09-.08-2.14,2.442.522.474Z" fill="#e4877c"/>
    <path id="Path_591" data-name="Path 591" d="M251.325,77.942l-.573-.411A581.31,581.31,0,0,1,194.8,144.364l.5.492a582.046,582.046,0,0,0,56.021-66.914Z" fill="#e4877c"/>
    <path id="Path_592" data-name="Path 592" d="M187.245,145.793a188.235,188.235,0,0,1,25.433-27.042l-.463-.531a188.878,188.878,0,0,0-25.529,27.143l.559.43Z" fill="#e4877c"/>
    <rect id="Rectangle_99" data-name="Rectangle 99" width="18.877" height="0.705" transform="translate(205.274 168.269) rotate(-53.701)" fill="#e4877c"/>
    <path id="Path_593" data-name="Path 593" d="M224.087,156.529l-.55-.441c-4.273,5.327-8.381,10.9-12.209,16.56l.584.4c3.817-5.646,7.914-11.2,12.175-16.514Z" fill="#e4877c"/>
    <rect id="Rectangle_100" data-name="Rectangle 100" width="20.752" height="0.705" transform="matrix(0.628, -0.779, 0.779, 0.628, 214.714, 178.749)" fill="#e4877c"/>
    <path id="Path_594" data-name="Path 594" d="M229.041,167.846l-.567-.419A108.608,108.608,0,0,1,216.991,180.6l.492.5a109.278,109.278,0,0,0,11.558-13.262Z" fill="#e4877c"/>
    <path id="Path_595" data-name="Path 595" d="M225.761,186.369l.507.49a187.025,187.025,0,0,0,13.525-15.628l-.558-.431a186.347,186.347,0,0,1-13.475,15.569Z" fill="#e4877c"/>
    <path id="Path_596" data-name="Path 596" d="M242.155,179.029l-.46-.535c-4.118,3.54-8.2,7.239-12.128,10.993l.487.51c3.921-3.746,7.992-7.436,12.1-10.968Z" fill="#e4877c"/>
    <path id="Path_597" data-name="Path 597" d="M226.969,200.3c7.437-6.659,15.149-13.232,22.925-19.535l-.444-.548c-7.784,6.311-15.505,12.891-22.951,19.558l.471.525Z" fill="#e4877c"/>
    <path id="Path_598" data-name="Path 598" d="M253.885,178.672l-.5-.5c-4.645,4.693-9.553,9.236-14.588,13.5l.456.538c5.05-4.28,9.974-8.837,14.633-13.544Z" fill="#e4877c"/>
    <rect id="Rectangle_101" data-name="Rectangle 101" width="13.966" height="0.705" transform="matrix(0.72, -0.694, 0.694, 0.72, 249.707, 185.197)" fill="#e4877c"/>
    <path id="Path_599" data-name="Path 599" d="M267.941,145.259l-.44-.55a95.037,95.037,0,0,0-14.485,14.409l.548.443a94.362,94.362,0,0,1,14.377-14.3Z" fill="#e4877c"/>
    <path id="Path_600" data-name="Path 600" d="M263.547,124.1l-.008-.006-.088.109-3.459,3.7.272.254c-9.951,12.247-20.568,24.111-31.628,35.313l.5.5a492.674,492.674,0,0,0,34.845-39.3l11.405-12.2-.515-.481L263.547,124.1Z" fill="#e4877c"/>
    <path id="Path_601" data-name="Path 601" d="M257.731,121.975l.535.459A151.944,151.944,0,0,1,272.313,108.1l-.47-.526a152.667,152.667,0,0,0-14.112,14.4Z" fill="#e4877c"/>
    <path id="Path_602" data-name="Path 602" d="M262.15,105.569l-.428-.32c-.647.867-1.31,1.726-1.963,2.591l-5.687,5.4.485.511,2.575-2.446a599.209,599.209,0,0,1-38.9,45.79l.514.483a599.8,599.8,0,0,0,41.54-49.271l6.972-6.623-.485-.511-4.625,4.393Z" fill="#e4877c"/>
    <rect id="Rectangle_102" data-name="Rectangle 102" width="19.409" height="0.705" transform="matrix(0.707, -0.707, 0.707, 0.707, 247.714, 111.253)" fill="#e4877c"/>
    <path id="Path_603" data-name="Path 603" d="M251.968,94.6l-.483-.374-3.317,4.279-6.513,6.69.505.492,2.159-2.218-41.848,53.98.558.433,45.676-58.919,6.828-7.015-.505-.492Z" fill="#e4877c"/>
    <rect id="Rectangle_103" data-name="Rectangle 103" width="17.764" height="0.705" transform="translate(239.041 96.534) rotate(-42.952)" fill="#e4877c"/>
    <rect id="Rectangle_104" data-name="Rectangle 104" width="25.092" height="0.705" transform="translate(233.571 90.061) rotate(-43.682)" fill="#e4877c"/>
    <path id="Path_604" data-name="Path 604" d="M251.772,63.1l-18.5,19.725-.39-.473-61.928,51.136.45.544,61.374-50.68-.123.131.515.482,19.116-20.383Z" fill="#e4877c"/>
    <path id="Path_605" data-name="Path 605" d="M253.038,53.358c-7.57,9.059-15.439,18.072-23.391,26.791l.521.475C238.126,71.9,246,62.877,253.579,53.811l-.541-.452Z" fill="#e4877c"/>
    <path id="Path_606" data-name="Path 606" d="M223.367,75.874l.527.468A361.479,361.479,0,0,1,252.556,47.5l-.471-.524a362.163,362.163,0,0,0-28.718,28.9Z" fill="#e4877c"/>
    <path id="Path_607" data-name="Path 607" d="M218.657,71.452l.459.535a217.014,217.014,0,0,0,27.7-28.614l-.55-.442a216.237,216.237,0,0,1-27.613,28.521Z" fill="#e4877c"/>
    <path id="Path_608" data-name="Path 608" d="M218.205,64.444l.594.38a74.268,74.268,0,0,1,26.4-24.835l-.343-.616A74.975,74.975,0,0,0,218.2,64.444Z" fill="#e4877c"/>
    <path id="Path_609" data-name="Path 609" d="M217.427,60.883l.512.485c8.2-8.657,16.455-17.52,24.53-26.341l-.521-.476c-8.072,8.818-16.322,17.678-24.521,26.332Z" fill="#e4877c"/>
    <path id="Path_610" data-name="Path 610" d="M247.8,9.573l-.506-.491c-13.3,13.69-27.2,27.151-41.314,40.008l.475.521C220.585,36.744,234.5,23.273,247.805,9.573Z" fill="#e4877c"/>
    <rect id="Rectangle_105" data-name="Rectangle 105" width="38.827" height="0.705" transform="matrix(0.721, -0.692, 0.692, 0.721, 193.229, 55.419)" fill="#e4877c"/>
    <path id="Path_611" data-name="Path 611" d="M190.808,53c7.119-7.536,14.506-15.009,21.956-22.212l-.49-.507c-7.458,7.21-14.852,14.69-21.979,22.235l.513.484Z" fill="#e4877c"/>
    <path id="Path_612" data-name="Path 612" d="M204.335,33.466l-.426-.562a91.934,91.934,0,0,0-12.786,11.741l.523.472a91.256,91.256,0,0,1,12.689-11.65Z" fill="#e4877c"/>
    <path id="Path_613" data-name="Path 613" d="M193.728,91.4l.471.525a290.987,290.987,0,0,0,34.367-36.652l-.554-.436A290.3,290.3,0,0,1,193.728,91.4Z" fill="#e4877c"/>
    <path id="Path_614" data-name="Path 614" d="M181.95,79.617c-8.7,6.209-17.7,12.629-24.962,20.633l.522.474c7.207-7.948,16.176-14.346,24.849-20.533C192.64,72.857,203.27,65.274,211,55.076l-.562-.426c-7.661,10.112-18.247,17.663-28.484,24.966Z" fill="#e4877c"/>
    <path id="Path_615" data-name="Path 615" d="M204.222,58.086C187.336,70.841,170.538,84.171,154.295,97.7l.451.541c16.235-13.527,33.024-26.849,49.9-39.6l-.425-.562Z" fill="#e4877c"/>
    <path id="Path_616" data-name="Path 616" d="M156.7,92.264C171.9,79.1,187.607,66.091,203.38,53.6l-.437-.553c-15.781,12.5-31.5,25.516-46.708,38.686l.462.533Z" fill="#e4877c"/>
    <path id="Path_617" data-name="Path 617" d="M152.251,91.766a364.538,364.538,0,0,1,35.63-31.261l-.43-.559a365.391,365.391,0,0,0-35.7,31.321l.5.5Z" fill="#e4877c"/>
    <path id="Path_618" data-name="Path 618" d="M173.04,64.007c-6.7,6.33-13.761,12.433-20.988,18.142l.437.553c7.244-5.721,14.321-11.838,21.036-18.183l-.484-.512Z" fill="#e4877c"/>
    <path id="Path_619" data-name="Path 619" d="M170.75,110.552l.477.52c14.259-13.083,28.032-27.024,40.936-41.435l-.525-.47c-12.888,14.393-26.645,28.318-40.887,41.386Z" fill="#e4877c"/>
    <path id="Path_620" data-name="Path 620" d="M219.4,75.21C204.1,88,188.969,101.354,174.378,114.936l-6.975,5.3.427.562,4.413-3.354.22.235c.785-.735,1.578-1.466,2.366-2.2l43-32.674-.427-.562-37.209,28.274c12.922-11.872,26.221-23.539,39.655-34.768l-.452-.541Z" fill="#e4877c"/>
    <rect id="Rectangle_106" data-name="Rectangle 106" width="72.827" height="0.705" transform="matrix(0.76, -0.65, 0.65, 0.76, 174.585, 123.406)" fill="#e4877c"/>
    <path id="Path_621" data-name="Path 621" d="M220.592,95.479c-18.738,16.81-38.019,33.556-57.306,49.773l.454.54c19.292-16.222,38.579-32.973,57.322-49.788l-.471-.525Z" fill="#e4877c"/>
    <path id="Path_622" data-name="Path 622" d="M189.277,141.2l-.477-.52c-10.715,9.819-21.389,19.987-31.724,30.22l.5.5c10.328-10.227,21-20.388,31.7-30.2Z" fill="#e4877c"/>
    <path id="Path_623" data-name="Path 623" d="M195.844,144.721a276.624,276.624,0,0,1-26.122,22l.42.566a277.358,277.358,0,0,0,26.189-22.059l-.486-.51Z" fill="#e4877c"/>
    <path id="Path_624" data-name="Path 624" d="M206.016,150.814l-.583-.4a49.277,49.277,0,0,1-8.8,9.81l.457.537A49.979,49.979,0,0,0,206.016,150.814Z" fill="#e4877c"/>
    <rect id="Rectangle_107" data-name="Rectangle 107" width="12.344" height="0.705" transform="translate(201.087 164.412) rotate(-48.986)" fill="#e4877c"/>
    <rect id="Rectangle_108" data-name="Rectangle 108" width="11.45" height="0.705" transform="matrix(0.61, -0.792, 0.792, 0.61, 205.892, 171.904)" fill="#e4877c"/>
    <path id="Path_625" data-name="Path 625" d="M135.364,174.4a276.29,276.29,0,0,0,30.464-22.835l-.461-.534a275.617,275.617,0,0,1-30.386,22.777l.383.592Z" fill="#e4877c"/>
    <path id="Path_626" data-name="Path 626" d="M163.784,143.172l-.445-.546c-8.817,7.195-18.085,14.046-27.545,20.362l.392.586c9.479-6.329,18.765-13.194,27.6-20.4Z" fill="#e4877c"/>
    <path id="Path_627" data-name="Path 627" d="M168.108,133.16l-.361-.605c-11.28,6.722-22.52,13.862-33.409,21.222l.395.584c10.878-7.352,22.107-14.485,33.376-21.2Z" fill="#e4877c"/>
    <path id="Path_628" data-name="Path 628" d="M169.741,122.558c-10.558,7.617-21.456,15.077-32.394,22.17l.384.591c10.947-7.1,21.855-14.566,32.422-22.19l-.412-.572Z" fill="#e4877c"/>
    <path id="Path_629" data-name="Path 629" d="M144.083,131.842l-.409-.491c-6.062,5.052-12.07,10.309-17.859,15.624l.477.519c5.086-4.67,10.345-9.285,15.657-13.765l.168.257a341.328,341.328,0,0,0,30.025-21.96l-.446-.545a340.675,340.675,0,0,1-27.611,20.361Z" fill="#e4877c"/>
    <path id="Path_630" data-name="Path 630" d="M173.076,101.206c-9.4,9.176-19.3,18.063-29.442,26.413l.448.544c10.157-8.363,20.077-17.263,29.486-26.453l-.492-.5Z" fill="#e4877c"/>
    <path id="Path_631" data-name="Path 631" d="M174.449,95.837C162.932,105,150.883,113.766,138.635,121.9l.39.587c12.265-8.141,24.33-16.92,35.862-26.094l-.438-.552Z" fill="#e4877c"/>
    <path id="Path_632" data-name="Path 632" d="M136.258,112.88l.45.542c5.831-4.845,11.917-9.556,18.089-14l-.412-.572c-6.185,4.455-12.284,9.175-18.127,14.031Z" fill="#e4877c"/>
    <rect id="Rectangle_109" data-name="Rectangle 109" width="18.988" height="0.705" transform="matrix(0.758, -0.652, 0.652, 0.758, 136.961, 109.246)" fill="#e4877c"/>
    <rect id="Rectangle_110" data-name="Rectangle 110" width="17.879" height="0.705" transform="matrix(0.621, -0.784, 0.784, 0.621, 134.816, 109.217)" fill="#e4877c"/>
    <path id="Path_633" data-name="Path 633" d="M112.591,145.473l19.478-21.7-.144-.129a296.825,296.825,0,0,1,27.629-22.451l-.411-.573a297.54,297.54,0,0,0-27.706,22.514l.376.41-.27-.242L112.067,145l.524.471Z" fill="#e4877c"/>
    <path id="Path_634" data-name="Path 634" d="M109.075,154.318c6.239-7.121,12.71-14.161,19.3-21.014,4.551-3.1,9.037-6.4,13.339-9.846l-.44-.55c-3.357,2.687-6.824,5.294-10.348,7.779,1.155-1.186,2.3-2.383,3.466-3.556l-.5-.5q-3,3.033-5.973,6.128c-.181.123-.359.251-.54.372l.072.107c-6.458,6.726-12.794,13.632-18.909,20.612l.53.464Z" fill="#e4877c"/>
    <rect id="Rectangle_111" data-name="Rectangle 111" width="36.021" height="0.705" transform="matrix(0.615, -0.789, 0.789, 0.615, 107.072, 173.848)" fill="#e4877c"/>
    <path id="Path_635" data-name="Path 635" d="M130.378,155.888l-.529-.466c-5.917,6.716-12.065,13.4-18.274,19.855l.508.489c6.217-6.466,12.373-13.154,18.3-19.878Z" fill="#e4877c"/>
    <rect id="Rectangle_112" data-name="Rectangle 112" width="26.051" height="0.705" transform="matrix(0.729, -0.685, 0.685, 0.729, 114.529, 179.884)" fill="#e4877c"/>
    <rect id="Rectangle_113" data-name="Rectangle 113" width="23.239" height="0.705" transform="translate(118.176 182.176) rotate(-41.574)" fill="#e4877c"/>
    <path id="Path_636" data-name="Path 636" d="M141.4,174.077l-.385-.591c-4.744,3.091-9.42,6.406-13.9,9.853l.43.559c4.466-3.436,9.127-6.74,13.856-9.82Z" fill="#e4877c"/>
    <path id="Path_637" data-name="Path 637" d="M133.667,186.833c2.2-1.635,4.363-3.33,6.514-5.049l.192.355a183.451,183.451,0,0,0,17.062-10.467l-.4-.58c-4.964,3.434-10.157,6.636-15.447,9.563,3.592-2.913,7.115-5.919,10.519-9.016l-.475-.521c-5.856,5.328-12.042,10.426-18.384,15.15a18.324,18.324,0,0,1-5.85,3.306l.19.679a18.875,18.875,0,0,0,6.08-3.419Z" fill="#e4877c"/>
    <rect id="Rectangle_114" data-name="Rectangle 114" width="19.223" height="0.705" transform="matrix(0.815, -0.58, 0.58, 0.815, 124.984, 155.487)" fill="#e4877c"/>
    <path id="Path_638" data-name="Path 638" d="M144.621,123.907l-9.732,7.783.194-.239-.55-.442c-.738.919-1.491,1.834-2.234,2.752l-2.743,2.193.44.551.213-.17c-7.554,9.28-15.3,18.5-23.1,27.48l.532.462c8.513-9.794,16.955-19.879,25.155-30.013l12.262-9.806-.44-.551Z" fill="#e4877c"/>
    <path id="Path_639" data-name="Path 639" d="M164.669,147.969l.445.546a335.119,335.119,0,0,0,29.135-26.806l-.507-.49a334.512,334.512,0,0,1-29.073,26.749Z" fill="#e4877c"/>
    <path id="Path_640" data-name="Path 640" d="M191.11,128.971c-6.923,7.39-14.111,14.722-21.363,21.792l.135.139c-8.528,7.23-17.322,14.215-26.267,20.844l.42.566c12.583-9.325,24.874-19.342,36.535-29.773l-.47-.525q-2.271,2.031-4.574,4.04c5.459-5.442,10.855-11,16.1-16.6l-.515-.482Z" fill="#e4877c"/>
    <path id="Path_641" data-name="Path 641" d="M210.93,123a189.291,189.291,0,0,0,20.248-24.018l-.575-.408A188.578,188.578,0,0,1,210.431,122.5l.5.5Z" fill="#e4877c"/>
    <path id="Path_642" data-name="Path 642" d="M216.39,51.907l-.4-.578a29.759,29.759,0,0,0-9.759,11.524l.636.3a29.05,29.05,0,0,1,9.527-11.25Z" fill="#e4877c"/>
    <path id="Path_643" data-name="Path 643" d="M187.993,148.587l-.38-.594A130.322,130.322,0,0,0,162.9,168.541l.514.482a129.626,129.626,0,0,1,24.583-20.437Z" fill="#e4877c"/>
    <rect id="Rectangle_115" data-name="Rectangle 115" width="10.398" height="0.705" transform="matrix(0.837, -0.547, 0.547, 0.837, 168.771, 169.609)" fill="#e4877c"/>
    <path id="Path_644" data-name="Path 644" d="M102.983,148.589c-.64.7-1.223,1.465-1.787,2.2a24.8,24.8,0,0,1-2.321,2.749c-2.2,2.137-5.142,3.377-7.988,4.575l-1.131.479a90.3,90.3,0,0,0-17.494,9.939l.414.57a89.614,89.614,0,0,1,17.357-9.861l1.128-.478c2.906-1.224,5.912-2.49,8.205-4.72a25.351,25.351,0,0,0,2.39-2.826c.555-.726,1.129-1.476,1.749-2.156,2.789-3.062,6.763-4.977,10.269-6.666l-.306-.635c-3.564,1.717-7.6,3.663-10.485,6.826Z" fill="#e4877c"/>
    <path id="Path_645" data-name="Path 645" d="M102.751,157.479a21.935,21.935,0,0,1,6.277-4.459l-.262-.655a22.8,22.8,0,0,0-6.488,4.591L89.722,168.3l.473.523,12.557-11.347Z" fill="#e4877c"/>
    <rect id="Rectangle_116" data-name="Rectangle 116" width="17.673" height="0.705" transform="translate(93.238 170.744) rotate(-37.148)" fill="#e4877c"/>
    <rect id="Rectangle_117" data-name="Rectangle 117" width="9.844" height="0.705" transform="matrix(0.816, -0.578, 0.578, 0.816, 88.264, 165.765)" fill="#e4877c"/>
    <path id="Path_646" data-name="Path 646" d="M90.22,155.819l.563.425a69.031,69.031,0,0,1,11.98-12.32l-.44-.551a69.731,69.731,0,0,0-12.1,12.446Z" fill="#e4877c"/>
    <path id="Path_647" data-name="Path 647" d="M84.4,155.394l.566.42a119.918,119.918,0,0,1,14.15-15.91l-.483-.514a120.653,120.653,0,0,0-14.233,16Z" fill="#e4877c"/>
    <path id="Path_648" data-name="Path 648" d="M77.434,159.127l.571.413a245.78,245.78,0,0,1,16.427-20.351l-.524-.472a246.544,246.544,0,0,0-16.474,20.41Z" fill="#e4877c"/>
    <path id="Path_649" data-name="Path 649" d="M71.934,158.245l.538.456c6.314-7.445,12.674-15.044,18.9-22.584l-.544-.449c-6.225,7.538-12.582,15.134-18.9,22.576Z" fill="#e4877c"/>
    <path id="Path_650" data-name="Path 650" d="M67.329,157.689l.55.441c6.921-8.626,14.077-17.546,22.544-24.923l-.463-.532c-8.514,7.419-15.69,16.363-22.63,25.013Z" fill="#e4877c"/>
    <path id="Path_651" data-name="Path 651" d="M86.222,129.005l-.48-.516c-8.7,8.091-17.255,16.549-25.434,25.139l.511.486c8.169-8.58,16.716-17.028,25.4-25.109Z" fill="#e4877c"/>
    <rect id="Rectangle_118" data-name="Rectangle 118" width="44.498" height="0.705" transform="matrix(0.699, -0.715, 0.715, 0.699, 55.416, 152.756)" fill="#e4877c"/>
    <rect id="Rectangle_119" data-name="Rectangle 119" width="44.737" height="0.705" transform="matrix(0.715, -0.699, 0.699, 0.715, 48.468, 152.493)" fill="#e4877c"/>
    <path id="Path_652" data-name="Path 652" d="M76.592,119.692l-.515-.482c-11.7,12.5-24.147,24.581-37.006,35.914l.466.529c12.876-11.347,25.343-23.446,37.055-35.96Z" fill="#e4877c"/>
    <rect id="Rectangle_120" data-name="Rectangle 120" width="30.355" height="0.705" transform="matrix(0.75, -0.661, 0.661, 0.75, 28.639, 156.065)" fill="#e4877c"/>
    <rect id="Rectangle_121" data-name="Rectangle 121" width="22.487" height="0.705" transform="matrix(0.718, -0.696, 0.696, 0.718, 23.52, 154.653)" fill="#e4877c"/>
    <path id="Path_653" data-name="Path 653" d="M14.726,153.267c5.293-4.614,10.805-9.115,16.382-13.377l-.428-.56c-5.59,4.271-11.113,8.781-16.417,13.406l.463.531Z" fill="#e4877c"/>
    <rect id="Rectangle_122" data-name="Rectangle 122" width="21.601" height="0.705" transform="translate(7.975 150.806) rotate(-40.929)" fill="#e4877c"/>
    <rect id="Rectangle_123" data-name="Rectangle 123" width="22.373" height="0.705" transform="matrix(0.779, -0.628, 0.628, 0.779, 0.2, 150.03)" fill="#e4877c"/>
    <path id="Path_654" data-name="Path 654" d="M10.03,138.9l-.429-.56c-3.243,2.485-6.45,5.063-9.6,7.692v.918c3.287-2.754,6.64-5.453,10.03-8.05Z" fill="#e4877c"/>
    <path id="Path_655" data-name="Path 655" d="M78.494,156.409A150.944,150.944,0,0,0,63.139,173.92l.564.422a150.244,150.244,0,0,1,15.283-17.429l-.492-.5Z" fill="#e4877c"/>
    <path id="Path_656" data-name="Path 656" d="M77.51,171.558l.562.426a41.53,41.53,0,0,1,10.281-9.612l-.388-.589a42.228,42.228,0,0,0-10.455,9.775Z" fill="#e4877c"/>
    <path id="Path_657" data-name="Path 657" d="M46.064,171.2l.52.477c4.571-4.978,9.4-9.822,14.344-14.4l-.479-.518c-4.961,4.589-9.8,9.447-14.385,14.439Z" fill="#e4877c"/>
    <path id="Path_658" data-name="Path 658" d="M52.187,154.892l-.481-.515A118.458,118.458,0,0,1,37.8,165.535l.4.582a119.194,119.194,0,0,0,13.989-11.225Z" fill="#e4877c"/>
    <path id="Path_659" data-name="Path 659" d="M278.352,40.189a14.7,14.7,0,0,1-.884-2.642l-.162-.6a35.592,35.592,0,0,0-5.583-11.589l-.569.416a34.892,34.892,0,0,1,5.473,11.36l.16.6a15.28,15.28,0,0,0,.932,2.768c1.277,2.626,3.925,4.313,6.053,5.667l.379-.595c-2.053-1.307-4.608-2.934-5.8-5.38Z" fill="#e4877c"/>
    <path id="Path_660" data-name="Path 660" d="M301.483,70.9a101.919,101.919,0,0,1,8.641,8.686l.538-.455a102.351,102.351,0,0,0-8.7-8.747c-2.51-2.327-5.1-4.734-7.434-7.306a59.433,59.433,0,0,1-9.973-15.123l-.641.294a60.116,60.116,0,0,0,10.091,15.3c2.349,2.594,4.956,5.012,7.477,7.349Z" fill="#e4877c"/>
    <path id="Path_661" data-name="Path 661" d="M289.72,81.666a3.889,3.889,0,0,0,.878-.288,3.049,3.049,0,0,1,.767-.249,3.111,3.111,0,0,1,2.171,1.044c3.51,3.035,6.951,6.231,10.228,9.5l.5-.5c-3.289-3.28-6.742-6.488-10.265-9.534a3.662,3.662,0,0,0-2.721-1.21,3.619,3.619,0,0,0-.951.3,3.294,3.294,0,0,1-.719.242,3.354,3.354,0,0,1-2.326-.95,181.217,181.217,0,0,1-19.347-16.778l-.5.5a181.83,181.83,0,0,0,19.422,16.844,3.912,3.912,0,0,0,2.863,1.082Z" fill="#e4877c"/>
    <path id="Path_662" data-name="Path 662" d="M328.862,97.854c1.962,1.834,2.985,3.49,3.218,5.212l.033.276a2.566,2.566,0,0,0,1.06,2.08l8.277,7.476.473-.523-8.277-7.476a1.907,1.907,0,0,1-.832-1.636l-.036-.292c-.256-1.891-1.347-3.681-3.435-5.632-.453-.424-.921-.833-1.391-1.242a20.6,20.6,0,0,1-3.2-3.234l-.569.415a21.1,21.1,0,0,0,3.305,3.351c.463.4.926.807,1.373,1.226Z" fill="#e4877c"/>
    <path id="Path_663" data-name="Path 663" d="M301.469,104.512a57.792,57.792,0,0,0,6.109,1.68c1.252.3,2.547.6,3.8.954a45.619,45.619,0,0,1,20.168,11.942l.5-.494a46.324,46.324,0,0,0-20.48-12.127c-1.27-.357-2.572-.664-3.832-.961a57.266,57.266,0,0,1-6.035-1.658c-3.719-1.321-6.419-3.23-8.028-5.675l-.589.388c1.694,2.576,4.514,4.578,8.38,5.951Z" fill="#e4877c"/>
    <rect id="Rectangle_124" data-name="Rectangle 124" width="0.705" height="8.684" transform="translate(252.184 21.276) rotate(-27.689)" fill="#e4877c"/>
    <path id="Path_664" data-name="Path 664" d="M269.3,89.133a6.4,6.4,0,0,1-1.122-1.98l-6.3-14.975-.65.273,6.3,14.975a5.337,5.337,0,0,0,3.112,3.455l.131.07a41.194,41.194,0,0,1,8.885,6.423l.485-.511a41.9,41.9,0,0,0-9.037-6.533l-.132-.071a6.55,6.55,0,0,1-1.673-1.127Z" fill="#e4877c"/>
    <path id="Path_665" data-name="Path 665" d="M96.148,112.5l-.122,10.443,10.387,10.773.508-.489L96.735,122.657l.119-10.154Z" fill="#e4877c"/>
    <path id="Path_666" data-name="Path 666" d="M110.858,123a8.625,8.625,0,0,1,1.342,1.681l.292.43a39.493,39.493,0,0,0,5.537,6.027l.484-.512a38.949,38.949,0,0,1-5.441-5.917l-.288-.423a7.04,7.04,0,0,0-3.223-2.964l-6.878-3.764-.338.619,6.877,3.764A8.779,8.779,0,0,1,110.858,123Z" fill="#e4877c"/>
    <path id="Path_667" data-name="Path 667" d="M6,160.951l-6,6.29v1.021l6.513-6.824Z" fill="#e4877c"/>
    <path id="Path_668" data-name="Path 668" d="M1.85,160.361,0,162.2v.994l2.347-2.334Z" fill="#e4877c"/>
    <path id="Path_669" data-name="Path 669" d="M96.428,197.178a.915.915,0,0,0,.479.133,1.89,1.89,0,0,0,1.132-.508l19.3-15.667-.444-.547-19.3,15.667c-.366.3-.648.409-.769.37a.224.224,0,0,1,.066-.135.192.192,0,0,1-.232-.054l.617-.341a.526.526,0,0,0-.543-.284.824.824,0,0,0-.6.662.652.652,0,0,0,.292.706Z" fill="#e4877c"/>
    <rect id="Rectangle_125" data-name="Rectangle 125" width="25.988" height="0.705" transform="matrix(0.803, -0.596, 0.596, 0.803, 87.688, 193.667)" fill="#e4877c"/>
    <rect id="Rectangle_126" data-name="Rectangle 126" width="26.955" height="0.705" transform="translate(83.547 190.119) rotate(-35.097)" fill="#e4877c"/>
    <rect id="Rectangle_127" data-name="Rectangle 127" width="26.476" height="0.705" transform="matrix(0.855, -0.518, 0.518, 0.855, 76.413, 186.527)" fill="#e4877c"/>
    <rect id="Rectangle_128" data-name="Rectangle 128" width="24.841" height="0.705" transform="matrix(0.864, -0.504, 0.504, 0.864, 68.072, 184.14)" fill="#e4877c"/>
    <rect id="Rectangle_129" data-name="Rectangle 129" width="21.167" height="0.705" transform="matrix(0.845, -0.535, 0.535, 0.845, 59.116, 184.14)" fill="#e4877c"/>
    <rect id="Rectangle_130" data-name="Rectangle 130" width="17.327" height="0.705" transform="translate(47.752 178.214) rotate(-40.816)" fill="#e4877c"/>
    <path id="Path_670" data-name="Path 670" d="M4.143,158.009c1.643.275,3.29.5,4.908.711,1.136.149,2.29.3,3.445.476l-.687.458.038-.041-.519-.478L0,171.415v1.04l10.989-11.913.233.35,2.3-1.534c.993.16,1.985.335,2.961.545a33.039,33.039,0,0,1,5.156,1.549l-.048.025.328.624.568-.3a20.618,20.618,0,0,1,4.764,2.834A19.882,19.882,0,0,0,9.382,168.6c-.426.37-.836.76-1.246,1.149a19.949,19.949,0,0,1-2.337,2,19.935,19.935,0,0,1-3.587,1.809c-.733.31-1.486.634-2.212,1v.8c.053-.028.1-.062.155-.089.751-.392,1.555-.731,2.332-1.06A20.456,20.456,0,0,0,6.2,172.328a20.47,20.47,0,0,0,2.422-2.072c.4-.382.805-.765,1.223-1.128a19.119,19.119,0,0,1,18.684-3.348,14.915,14.915,0,0,1,1.81,2.133,29.337,29.337,0,0,1,1.9,3.413,18.672,18.672,0,0,0,3.373,5.205,18.925,18.925,0,0,0,5.352,3.286L102.986,208.8l.3-.639L75.028,194.958l8.939-7.263-.444-.547-9.2,7.479L41.264,179.178a18.116,18.116,0,0,1-5.158-3.151,17.884,17.884,0,0,1-3.235-5.016,29.844,29.844,0,0,0-1.95-3.5,15.339,15.339,0,0,0-1.144-1.473l.2-.432c-.342-.156-.693-.294-1.044-.427-.181-.178-.35-.363-.541-.534l10.14-10.727-.513-.484L27.838,164.2a20.716,20.716,0,0,0-4.54-2.827l9.947-5.235-.328-.624L22.45,161.026a32.983,32.983,0,0,0-5.818-1.811c-.745-.161-1.5-.3-2.25-.429l9.357-6.239-.369-.554,13.424-11.469-.458-.536L19.913,154.02l.126.147-6.675,4.451c-1.414-.223-2.83-.414-4.219-.6-1.365-.18-2.751-.366-4.136-.583l10.984-7.272-.389-.588L3.99,157.265c-1.272-.218-2.539-.465-3.781-.782l-.175.683c1.024.261,2.063.471,3.1.662L0,159.907v.846l4.143-2.743Z" fill="#e4877c"/>
    <rect id="Rectangle_131" data-name="Rectangle 131" width="16.572" height="0.705" transform="matrix(0.792, -0.611, 0.611, 0.792, 49.552, 182.372)" fill="#e4877c"/>
    <path id="Path_671" data-name="Path 671" d="M67.231,157.794l-.5-.5A110.173,110.173,0,0,1,45.38,173.942l.361.6a110.838,110.838,0,0,0,21.49-16.753Z" fill="#e4877c"/>
    <path id="Path_672" data-name="Path 672" d="M57.731,154.269l-.48-.516c-5.85,5.457-12.01,10.726-18.307,15.659l.435.555c6.313-4.946,12.489-10.228,18.353-15.7Z" fill="#e4877c"/>
    <path id="Path_673" data-name="Path 673" d="M33.245,164.968c4.018-3.338,8.245-6.508,12.565-9.419l-.394-.584c-4.339,2.925-8.586,6.108-12.621,9.462l.45.542Z" fill="#e4877c"/>
  </g>
</svg>
