<svg xmlns="http://www.w3.org/2000/svg" xmlns:xlink="http://www.w3.org/1999/xlink" width="280" height="183.384" viewBox="0 0 280 183.384">
  <defs>
    <clipPath id="clip-path">
      <rect id="Rectangle_133" data-name="Rectangle 133" width="131.265" height="120.208" fill="none"/>
    </clipPath>
    <clipPath id="clip-path-2">
      <rect id="Rectangle_132" data-name="Rectangle 132" width="131.261" height="120.21" fill="none"/>
    </clipPath>
    <clipPath id="clip-path-3">
      <rect id="Rectangle_135" data-name="Rectangle 135" width="37.953" height="33.103" fill="none"/>
    </clipPath>
    <clipPath id="clip-path-4">
      <rect id="Rectangle_134" data-name="Rectangle 134" width="37.951" height="33.106" fill="none"/>
    </clipPath>
    <clipPath id="clip-path-5">
      <rect id="Rectangle_137" data-name="Rectangle 137" width="18.518" height="19.125" fill="none"/>
    </clipPath>
    <clipPath id="clip-path-6">
      <rect id="Rectangle_136" data-name="Rectangle 136" width="18.516" height="19.127" fill="none"/>
    </clipPath>
    <clipPath id="clip-path-7">
      <rect id="Rectangle_139" data-name="Rectangle 139" width="7.508" height="8.115" fill="none"/>
    </clipPath>
    <clipPath id="clip-path-8">
      <rect id="Rectangle_138" data-name="Rectangle 138" width="7.506" height="8.118" fill="none"/>
    </clipPath>
    <clipPath id="clip-path-9">
      <rect id="Rectangle_141" data-name="Rectangle 141" width="0.492" height="0.398" fill="none"/>
    </clipPath>
    <clipPath id="clip-path-10">
      <rect id="Rectangle_140" data-name="Rectangle 140" width="0.49" height="0.399" fill="none"/>
    </clipPath>
    <clipPath id="clip-path-11">
      <rect id="Rectangle_143" data-name="Rectangle 143" width="1.012" height="0.965" fill="none"/>
    </clipPath>
    <clipPath id="clip-path-12">
      <rect id="Rectangle_142" data-name="Rectangle 142" width="1.01" height="0.968" fill="none"/>
    </clipPath>
    <clipPath id="clip-path-13">
      <rect id="Rectangle_145" data-name="Rectangle 145" width="1.444" height="1.497" fill="none"/>
    </clipPath>
    <clipPath id="clip-path-14">
      <rect id="Rectangle_144" data-name="Rectangle 144" width="1.44" height="1.494" fill="none"/>
    </clipPath>
    <clipPath id="clip-path-15">
      <rect id="Rectangle_147" data-name="Rectangle 147" width="1.194" height="1.187" fill="none"/>
    </clipPath>
    <clipPath id="clip-path-16">
      <rect id="Rectangle_146" data-name="Rectangle 146" width="1.191" height="1.185" fill="none"/>
    </clipPath>
    <clipPath id="clip-path-17">
      <rect id="Rectangle_149" data-name="Rectangle 149" width="1.484" height="1.538" fill="none"/>
    </clipPath>
    <clipPath id="clip-path-18">
      <rect id="Rectangle_148" data-name="Rectangle 148" width="1.488" height="1.537" fill="none"/>
    </clipPath>
    <clipPath id="clip-path-19">
      <rect id="Rectangle_151" data-name="Rectangle 151" width="0.702" height="0.729" fill="none"/>
    </clipPath>
    <clipPath id="clip-path-20">
      <rect id="Rectangle_150" data-name="Rectangle 150" width="0.702" height="0.726" fill="none"/>
    </clipPath>
    <clipPath id="clip-path-21">
      <rect id="Rectangle_153" data-name="Rectangle 153" width="1.059" height="1.059" fill="none"/>
    </clipPath>
    <clipPath id="clip-path-22">
      <rect id="Rectangle_152" data-name="Rectangle 152" width="1.058" height="1.058" fill="none"/>
    </clipPath>
    <clipPath id="clip-path-23">
      <rect id="Rectangle_155" data-name="Rectangle 155" width="114.514" height="104.496" fill="none"/>
    </clipPath>
    <clipPath id="clip-path-24">
      <rect id="Rectangle_154" data-name="Rectangle 154" width="114.512" height="104.495" fill="none"/>
    </clipPath>
  </defs>
  <g id="bg-peach" transform="translate(0.052 -0.005)">
    <path id="Path_674" data-name="Path 674" d="M130.646,1.586c-6.337,1.749-12.512.244-18.824-.738A65.015,65.015,0,0,0,94.143.419,55.243,55.243,0,0,0,79.524,4.124,48.823,48.823,0,0,0,73.4,7.3a30.976,30.976,0,0,0-4.5,3.309c-.244-.026-.487-.054-.731-.077-.988-.094-2.013-.178-3.051-.251a20.255,20.255,0,0,1,2.5-1.976.553.553,0,0,0,.111-.859c-2.153-1.7-5.922-1.14-8.333-.288A6.086,6.086,0,0,0,56.341,9.7c-.128.195-.245.4-.357.6a26.681,26.681,0,0,0-2.882.45c-1.239.07-2.483.18-3.735.354-.946.132-1.889.29-2.829.461-.711.12-1.421.25-2.127.4q-1.393.292-2.757.688a64.528,64.528,0,0,0-10.085,3.537c-11.55,5.184-21.2,13.987-26.541,25.206-11.4,23.939-2.945,55.263,20.725,69.237A69.527,69.527,0,0,0,46.7,119.018c7.312,1.531,15.309,1.838,22.462-.581a33.016,33.016,0,0,0,8.965-4.7c.108-.079.723.322.824.376a11.926,11.926,0,0,0,1.462.532,17,17,0,0,0,9.335.312c1.382-.3,2.767-.637,4.122-1.038,1.814-.535,3.5-1.227,5.245-1.931a33.832,33.832,0,0,0,5.174-2.584c10.957-6.781,18.709-19.167,20.872-31.177a60.933,60.933,0,0,0-5.738-37.731,37.894,37.894,0,0,0-4.38-6.921,60.387,60.387,0,0,0-9.944-9.505,59.325,59.325,0,0,0-5.744-3.862.147.147,0,0,1,.061-.274,43.614,43.614,0,0,0,6.761-1.106q.476-.119.948-.252c2.651-.747,5.172-2.075,7.738-3.061a39.994,39.994,0,0,0,6.781-3.4c4.01-2.5,7.977-5.643,9.6-10.2.122-.345-.391-.59-.6-.332" transform="translate(0 0)" fill="#fff"/>
    <g id="Group_99" data-name="Group 99" transform="translate(0.001 0.005)" opacity="0.8">
      <g id="Group_98" data-name="Group 98" clip-path="url(#clip-path)">
        <g id="Group_97" data-name="Group 97" transform="translate(0 -0.003)" clip-path="url(#clip-path-2)">
          <path id="Path_675" data-name="Path 675" d="M130.646,1.586c-6.337,1.749-12.511.244-18.824-.738A65.045,65.045,0,0,0,94.143.419,55.182,55.182,0,0,0,79.525,4.125,48.755,48.755,0,0,0,73.4,7.3a31.1,31.1,0,0,0-4.5,3.308c-.244-.026-.487-.053-.731-.077-.988-.093-2.014-.177-3.051-.25a20.217,20.217,0,0,1,2.5-1.976.552.552,0,0,0,.111-.859c-2.153-1.7-5.922-1.141-8.333-.288A6.083,6.083,0,0,0,56.341,9.7c-.128.194-.245.4-.358.6a26.437,26.437,0,0,0-2.882.449c-1.239.069-2.483.18-3.735.353-.946.131-1.889.29-2.829.462-.712.12-1.421.25-2.128.4q-1.393.292-2.756.689a64.44,64.44,0,0,0-10.085,3.537c-11.55,5.184-21.2,13.986-26.542,25.205-11.4,23.939-2.945,55.264,20.726,69.237A69.542,69.542,0,0,0,46.7,119.018c7.311,1.531,15.309,1.838,22.462-.581a33.018,33.018,0,0,0,8.965-4.7c.107-.079.723.322.824.375a11.969,11.969,0,0,0,1.462.532,17,17,0,0,0,9.336.311c1.382-.3,2.767-.637,4.122-1.037,1.814-.536,3.5-1.228,5.245-1.931a33.772,33.772,0,0,0,5.173-2.584c10.958-6.78,18.71-19.167,20.872-31.177a60.931,60.931,0,0,0-5.738-37.73,37.873,37.873,0,0,0-4.38-6.92,60.417,60.417,0,0,0-9.944-9.506,59.276,59.276,0,0,0-5.744-3.861.147.147,0,0,1,.061-.275,43.547,43.547,0,0,0,6.761-1.106q.476-.12.948-.252c2.65-.747,5.172-2.075,7.738-3.061a39.961,39.961,0,0,0,6.781-3.4c4.011-2.5,7.978-5.644,9.6-10.2.122-.344-.391-.589-.6-.332M63.812,11.629c1.262.021,2.52.064,3.773.16a28.249,28.249,0,0,0-7.195,10.917c-.032.091-.064.185-.1.279a22.173,22.173,0,0,1,.065-3.52,13.823,13.823,0,0,1,3.453-7.836M60.007,8.206a10.5,10.5,0,0,1,5.944-.468,8.914,8.914,0,0,1-4.1,1.911c-.917.164-2.893.017-3.318-.585a4.357,4.357,0,0,1,1.476-.858M57.931,9.712a3.193,3.193,0,0,0,1.389.943,6.293,6.293,0,0,0,3.838.076,16.023,16.023,0,0,0-4.295,8.532,18.836,18.836,0,0,0,.347,6.874,14.47,14.47,0,0,0,.814,2.456,17.612,17.612,0,0,1-2.374-.319,12.547,12.547,0,0,1-1.688-2.945,16.83,16.83,0,0,1-.5-9.555,15.522,15.522,0,0,1,2.47-6.063M99.58,21.961a63.242,63.242,0,0,1,7.119,5.67,51.175,51.175,0,0,1,16.247,29.325,54.42,54.42,0,0,1,.9,12.556,52.368,52.368,0,0,1-14.76,33.168,35.535,35.535,0,0,1-16.586,9.33,38.807,38.807,0,0,1-5.934,1.2,13.018,13.018,0,0,1-5.935-.485c-.152-.059-.3-.122-.453-.189-.107-.047-.212-.1-.317-.148a42.623,42.623,0,0,0,6.637-6.983c3.883-5.089,7.2-10.968,8.671-17.241A70.025,70.025,0,0,0,96.67,64.312,45.385,45.385,0,0,0,88.7,43.254a37.947,37.947,0,0,0-6.7-7.19.879.879,0,0,1,.089.445c.045.034.093.062.137.1a12.857,12.857,0,0,1,2.07,2.456A39.775,39.775,0,0,1,88.148,45.1a56.019,56.019,0,0,1,2.877,6.866,64.344,64.344,0,0,1,2.632,29.223,54.173,54.173,0,0,1-7.28,21.271,39.005,39.005,0,0,1-7.16,8.16,29.791,29.791,0,0,1-8.412,5.451c-.743.332-1.529.562-2.3.825-10.707,3.654-25.541.293-35.475-4.253-9.226-4.223-15.279-10.5-21.319-18.539a50.446,50.446,0,0,1-3.53-5.387,50.924,50.924,0,0,1-5.238-38.5A50.394,50.394,0,0,1,25.006,20.794a57.8,57.8,0,0,1,21.852-8.367,68.393,68.393,0,0,1,8.319-.79c.022-.05.046-.1.067-.149l.158.009a23.167,23.167,0,0,0-1.22,4.239,16.744,16.744,0,0,0,1.358,11.68c.022.04.05.085.072.126a3.849,3.849,0,0,1-1.855-2.205c-.084-.254-.228-.08-.134.184a5.044,5.044,0,0,0,4.446,3.792,42.738,42.738,0,0,0,6.019.3c.412,0,.824-.014,1.235-.024a5.132,5.132,0,0,0,.909-.057c.1-.02.342-.044.266-.16-.041-.064-.214-.088-.283-.107a15.184,15.184,0,0,0-1.663-.344,28.124,28.124,0,0,0-3.035-.241c-.041-.106-.086-.211-.124-.318a8.9,8.9,0,0,1,2.651-3.912c2.225-1.985,5.19-2.71,8-3.436,5.838-1.509,11.731-1.12,17.7-.909,2.139.075,5.2-.523,7.11.349a21.876,21.876,0,0,1,2.724,1.505m19.968-10.394a65.682,65.682,0,0,1-7.7,3.427,39.622,39.622,0,0,1-9.148,2.872c-6.389,1.026-12.682.661-19.112.668-5.6.006-11.105.513-16.323,2.724a11.714,11.714,0,0,0-5.2,4.037,11.892,11.892,0,0,0-.856,1.414,8.343,8.343,0,0,1,.753-1.754,17.315,17.315,0,0,1,2.508-3.138,33.9,33.9,0,0,1,6.294-5.125,25.488,25.488,0,0,1,4.077-2.055c.206-.055.411-.12.612-.194,2.967-1.018,6.225.487,9.071,1.33,1.985.589,5.709,2.069,7.547.561a.152.152,0,0,0-.067-.252c-1.477-.424-3.179-.139-4.724-.479-1.582-.346-3.13-.841-4.688-1.276a18.477,18.477,0,0,0-4.292-.848,65.856,65.856,0,0,1,10.684-1.788c.183-.019.367-.034.55-.052A63.87,63.87,0,0,1,103.806,14.8c.089.03.151-.112.065-.153a41.843,41.843,0,0,0-7.221-2.715,18.633,18.633,0,0,0-4.223-.544c3.684-.288,7.376-.457,11.067-.661a37.713,37.713,0,0,1,5.907.958,15.1,15.1,0,0,0,4.807.953.118.118,0,0,0,.032-.23,38.408,38.408,0,0,0-5.835-1.737c-.291-.064-.592-.13-.9-.191.249-.017.5-.032.747-.05a42.175,42.175,0,0,0,8.431-1.308c2.305-.647,5.152-1.575,6.981-3.159.132-.114-.01-.316-.163-.279-1.609.393-3.11,1.226-4.686,1.757A41.241,41.241,0,0,1,114.6,8.642a50.579,50.579,0,0,1-8.065.943,21.3,21.3,0,0,0,8.8-5.125c.184-.183-.094-.458-.284-.283-3.146,2.9-7.334,4.555-11.555,5.577-3.924.219-7.855.4-11.773.719A48.669,48.669,0,0,0,96.8,8.681a49.226,49.226,0,0,0,5.373-2.758c1.443-.811,2.979-1.387,4.089-2.665a.2.2,0,0,0-.284-.284c-1.178,1.081-2.784,1.562-4.172,2.32a51.467,51.467,0,0,1-5.611,2.774,66.172,66.172,0,0,1-7.813,2.724c-1.438.156-2.874.333-4.305.552a53.129,53.129,0,0,0-5.329,1.073c.812-.664,1.582-1.372,2.329-1.994,2.691-2.239,5.653-4.387,9.069-5.329a.218.218,0,0,0-.115-.42c-5.511,1.491-9.652,5.676-14.35,8.678a27.914,27.914,0,0,0-7.935,4.288c-2.371,1.848-6.044,4.785-7.076,8.118-.038-.183-.072-.366-.1-.55A16.273,16.273,0,0,1,61.8,21.75a29.884,29.884,0,0,1,4.423-6.916,36.029,36.029,0,0,1,13.9-9.685C90.986.807,102.645.331,114.074,2.361c5.449.967,11.09,2.167,16.267-.195-2.185,4.269-6.787,7.107-10.793,9.4" transform="translate(-0.001 -0.002)" fill="#e4877c"/>
        </g>
      </g>
    </g>
    <g id="Group_102" data-name="Group 102" transform="translate(5.742 15.278)" opacity="0.8">
      <g id="Group_101" data-name="Group 101" clip-path="url(#clip-path-3)">
        <g id="Group_100" data-name="Group 100" transform="translate(0 -0.003)" clip-path="url(#clip-path-4)">
          <path id="Path_676" data-name="Path 676" d="M46.407,22.642c-8.986,1.381-17.273,4.744-24.1,10.929C15.892,39.391,10.7,47.038,8.524,55.478a.22.22,0,0,0,.424.117c2.879-8.242,7.326-15.66,14.075-21.312A54.857,54.857,0,0,1,46.43,22.728c.055-.012.031-.093-.024-.085" transform="translate(-8.513 -22.641)" fill="#e4877c"/>
        </g>
      </g>
    </g>
    <g id="Group_105" data-name="Group 105" transform="translate(12.468 22.118)" opacity="0.8">
      <g id="Group_104" data-name="Group 104" clip-path="url(#clip-path-5)">
        <g id="Group_103" data-name="Group 103" transform="translate(0 -0.002)" clip-path="url(#clip-path-6)">
          <path id="Path_677" data-name="Path 677" d="M36.738,32.809C29.259,36.955,21.5,43.447,18.495,51.749c-.055.15.16.217.24.1,2.539-3.616,4.717-7.278,7.853-10.455a51.463,51.463,0,0,1,10.327-8.283.176.176,0,0,0-.177-.3" transform="translate(-18.483 -32.783)" fill="#e4877c"/>
        </g>
      </g>
    </g>
    <g id="Group_108" data-name="Group 108" transform="translate(17.312 29.499)" opacity="0.8">
      <g id="Group_107" data-name="Group 107" clip-path="url(#clip-path-7)">
        <g id="Group_106" data-name="Group 106" transform="translate(0.002 -0.002)" clip-path="url(#clip-path-8)">
          <path id="Path_678" data-name="Path 678" d="M32.82,43.756a16.7,16.7,0,0,0-3.93,3.58,32.242,32.242,0,0,0-3.192,4.22c-.143.218.192.4.341.2,1.1-1.437,2.294-2.791,3.527-4.114,1.119-1.2,2.547-2.221,3.547-3.506a.243.243,0,0,0-.293-.379" transform="translate(-25.664 -43.722)" fill="#e4877c"/>
        </g>
      </g>
    </g>
    <g id="Group_111" data-name="Group 111" transform="translate(26.345 27.832)" opacity="0.8">
      <g id="Group_110" data-name="Group 110" clip-path="url(#clip-path-9)">
        <g id="Group_109" data-name="Group 109" transform="translate(0 0.001)" clip-path="url(#clip-path-10)">
          <path id="Path_679" data-name="Path 679" d="M39.433,41.309l-.126-.042a.2.2,0,1,0,0,.381l.126-.042a.158.158,0,0,0,.113-.148.162.162,0,0,0-.113-.149" transform="translate(-39.053 -41.257)" fill="#e4877c"/>
        </g>
      </g>
    </g>
    <g id="Group_114" data-name="Group 114" transform="translate(40.167 22.645)" opacity="0.8">
      <g id="Group_113" data-name="Group 113" clip-path="url(#clip-path-11)">
        <g id="Group_112" data-name="Group 112" transform="translate(-0.001 -0.002)" clip-path="url(#clip-path-12)">
          <path id="Path_680" data-name="Path 680" d="M60.368,33.7l-.1-.075-.115-.048a.374.374,0,0,0-.193-.009.244.244,0,0,0-.121.034l-.107.062-.086.086-.062.107a.359.359,0,0,0-.041.186l.017.128.049.115.075.1.1.075.115.049a.36.36,0,0,0,.192.008.247.247,0,0,0,.123-.032.366.366,0,0,0,.155-.1l.067-.061a.314.314,0,0,0,.082-.127.31.31,0,0,0,.034-.153.4.4,0,0,0-.116-.281l-.067-.062Z" transform="translate(-59.541 -33.561)" fill="#e4877c"/>
        </g>
      </g>
    </g>
    <g id="Group_117" data-name="Group 117" transform="translate(37.165 36.305)" opacity="0.8">
      <g id="Group_116" data-name="Group 116" clip-path="url(#clip-path-13)">
        <g id="Group_115" data-name="Group 115" transform="translate(0.001 0.002)" clip-path="url(#clip-path-14)">
          <path id="Path_681" data-name="Path 681" d="M55.811,53.82a.747.747,0,0,0,0,1.494.747.747,0,0,0,0-1.494" transform="translate(-55.092 -53.819)" fill="#e4877c"/>
        </g>
      </g>
    </g>
    <g id="Group_120" data-name="Group 120" transform="translate(45.726 35.003)" opacity="0.8">
      <g id="Group_119" data-name="Group 119" clip-path="url(#clip-path-15)">
        <g id="Group_118" data-name="Group 118" transform="translate(-0.001 -0.002)" clip-path="url(#clip-path-16)">
          <path id="Path_682" data-name="Path 682" d="M68.8,52.058l-.12-.092a.589.589,0,0,0-.3-.081.608.608,0,0,0-.593.593c.007.053.014.105.021.158a.592.592,0,0,0,.153.261l.12.093a.583.583,0,0,0,.3.081.431.431,0,0,0,.228-.051A.437.437,0,0,0,68.8,52.9a.45.45,0,0,0,.123-.191.441.441,0,0,0,.051-.228c-.007-.052-.014-.105-.021-.158a.6.6,0,0,0-.152-.262" transform="translate(-67.782 -51.883)" fill="#e4877c"/>
        </g>
      </g>
    </g>
    <g id="Group_123" data-name="Group 123" transform="translate(79.322 28.858)" opacity="0.8">
      <g id="Group_122" data-name="Group 122" clip-path="url(#clip-path-17)">
        <g id="Group_121" data-name="Group 121" transform="translate(-0.001 -0.003)" clip-path="url(#clip-path-18)">
          <path id="Path_683" data-name="Path 683" d="M118.326,42.774a.769.769,0,0,0,0,1.537.769.769,0,0,0,0-1.537" transform="translate(-117.582 -42.772)" fill="#e4877c"/>
        </g>
      </g>
    </g>
    <g id="Group_126" data-name="Group 126" transform="translate(98.797 34.693)" opacity="0.8">
      <g id="Group_125" data-name="Group 125" clip-path="url(#clip-path-19)">
        <g id="Group_124" data-name="Group 124" transform="translate(0.001 -0.001)" clip-path="url(#clip-path-20)">
          <path id="Path_684" data-name="Path 684" d="M146.5,51.973l.09.1.078.045a.262.262,0,0,0,.135.03.417.417,0,0,0,.178-.048l.1-.09.045-.077a.262.262,0,0,0,.03-.136l-.012-.093-.036-.084a.35.35,0,0,0-.126-.126l-.056-.038a.237.237,0,0,0-.244,0l-.056.038-.1.091-.044.077a.257.257,0,0,0-.03.135l.012.093.036.084Z" transform="translate(-146.453 -51.423)" fill="#e4877c"/>
        </g>
      </g>
    </g>
    <g id="Group_129" data-name="Group 129" transform="translate(67.091 50.722)" opacity="0.8">
      <g id="Group_128" data-name="Group 128" clip-path="url(#clip-path-21)">
        <g id="Group_127" data-name="Group 127" transform="translate(-0.001 0.001)" clip-path="url(#clip-path-22)">
          <path id="Path_685" data-name="Path 685" d="M100.353,75.344a.546.546,0,0,0-.372-.154.389.389,0,0,0-.2.046.469.469,0,0,0-.278.278.39.39,0,0,0-.045.2l.018.14a.527.527,0,0,0,.136.233.547.547,0,0,0,.373.153.386.386,0,0,0,.2-.045.392.392,0,0,0,.169-.108.4.4,0,0,0,.109-.17.392.392,0,0,0,.046-.2c-.006-.046-.013-.093-.019-.14a.528.528,0,0,0-.136-.232" transform="translate(-99.452 -75.187)" fill="#e4877c"/>
        </g>
      </g>
    </g>
    <path id="Path_686" data-name="Path 686" d="M114.294,119.219c3.03-11.187,11.146-20.656,20.109-27.686a50.745,50.745,0,0,1,30.962-11.058c7.945-.149,16.039.738,20.693,8.159,1.583,2.524,1.857,5.416,4.2,7.43,3.561,3.064,8.7,3.334,13.005,4.7,5.848,1.851,12.05,4.2,16.282,8.852,6.536,7.181,9.375,17.866,7.878,27.354-1.6,10.108-7.025,19.847-13.89,27.332-13.022,14.2-33.238,22.417-52.513,20.338a41.678,41.678,0,0,1-16.686-5.257,54.115,54.115,0,0,1-19.477-20.029,34.321,34.321,0,0,1-2.607-7.722l.35.552c-6.3-9.926-11.559-20.937-8.3-32.959" transform="translate(-36.867 -26.18)" fill="#fff"/>
    <g id="Group_132" data-name="Group 132" transform="translate(76.434 54.277)" opacity="0.8">
      <g id="Group_131" data-name="Group 131" clip-path="url(#clip-path-23)">
        <g id="Group_130" data-name="Group 130" transform="translate(0.001 0.002)" clip-path="url(#clip-path-24)">
          <path id="Path_687" data-name="Path 687" d="M122.6,152.177l-.35-.552a34.3,34.3,0,0,0,2.607,7.722,54.106,54.106,0,0,0,19.478,20.029,41.667,41.667,0,0,0,16.685,5.257c19.275,2.08,39.491-6.14,52.513-20.337,6.865-7.486,12.3-17.224,13.89-27.332,1.5-9.489-1.342-20.174-7.879-27.354-4.231-4.649-10.433-7-16.281-8.852-4.305-1.362-9.444-1.632-13.005-4.7-2.341-2.014-2.615-4.906-4.2-7.43-4.653-7.42-12.747-8.307-20.692-8.159A50.742,50.742,0,0,0,134.4,91.533c-8.963,7.03-17.079,16.5-20.109,27.686-3.256,12.021,2,23.032,8.3,32.958m84.114-49.134a39.868,39.868,0,0,0-8.435.37c-2.517.346-5.462.962-7.913-.013-2.974-1.184-3.13-4.553-3.568-7.271-.191-1.189-.362-2.429-.581-3.664a15.107,15.107,0,0,0,9.769,7.452c3.637,1.019,7.222,1.871,10.728,3.128m-68.761,69.864c7.823,4.128,17.452,4.809,26.065,2.94a92.4,92.4,0,0,0,18.631-6.666A115.262,115.262,0,0,0,199,160.343c9.815-6.572,19.311-15.622,23.921-26.706a25.507,25.507,0,0,0,2.06-11.691,23.854,23.854,0,0,1,.725,2.439,32.864,32.864,0,0,1-1.138,17.481c-5.733,18.017-21.556,32.082-39.292,37.829a59.814,59.814,0,0,1-27.184,2.368,42.981,42.981,0,0,1-20.145-9.158M123.066,149.84c-1.218-2.648-3.185-4.787-4.62-7.3a29.85,29.85,0,0,1-2.976-8.014,40.043,40.043,0,0,1-1.114-6.947,35.2,35.2,0,0,1,4.315-15.235,62.866,62.866,0,0,1,22.812-23.8c9.565-5.766,20.568-7.7,31.638-6.606a24.307,24.307,0,0,1,3.475.577,19.567,19.567,0,0,1,5.966,3.913,11.071,11.071,0,0,1,.977,1.185,15.33,15.33,0,0,1,1.153,3.535c.5,2.352.8,4.75,1.179,7.124.33,2.08.907,4.22,2.679,5.536,3.475,2.581,8.5.817,12.388.573,4.543-.285,8.985-.065,12.846,1.99a28.332,28.332,0,0,1,3.065,2.158c.047.043.094.084.141.127a20.3,20.3,0,0,1,6.7,15.433c-.223,5.954-3.014,11.55-6.436,16.305-6.834,9.5-16.383,16.636-26.568,22.194a139.385,139.385,0,0,1-16.573,7.672A61.194,61.194,0,0,1,156.1,174.6a33.844,33.844,0,0,1-17.779-3.447c-5.275-2.816-9.283-7.735-12.081-12.935-1.438-2.671-1.917-5.646-3.176-8.383" transform="translate(-113.302 -80.459)" fill="#e4877c"/>
          <path id="Path_688" data-name="Path 688" d="M154.783,212.193a26.352,26.352,0,0,1,2.6,1.344,15.819,15.819,0,0,0,2.841.754,26.748,26.748,0,0,0,6.513.291c2.487-.172,5.01-.411,7.476-.775a35.812,35.812,0,0,0,3.525-.664c1.3-.33,2.484-.955,3.765-1.324a.15.15,0,0,1,.144.249c-1.821,1.745-5.038,2.35-7.436,2.7-2.586.374-5.23.667-7.839.822a27.207,27.207,0,0,1-6.842-.407c-1.5-.3-4.519-.955-5.127-2.6-.086-.234.17-.437.384-.385" transform="translate(-126.67 -123.201)" fill="#e4877c"/>
          <path id="Path_689" data-name="Path 689" d="M148.738,208.433c.213.054.318.228.476.362a1.205,1.205,0,0,0,.481.243c.324.085.178.531-.134.487-.416-.058-1.133-.359-1.125-.863a.242.242,0,0,1,.3-.23" transform="translate(-124.736 -122.098)" fill="#e4877c"/>
          <path id="Path_690" data-name="Path 690" d="M120.065,151.963a.824.824,0,0,1-.3.172.67.67,0,0,1-.755-.308c-2.462-4.338-1.958-11.314.793-15.419a.238.238,0,0,1,.41.239,18.918,18.918,0,0,0-1.351,7.277c-.053,2.445.057,5.054,1.3,7.228a.679.679,0,0,1-.1.81" transform="translate(-114.645 -98.627)" fill="#e4877c"/>
          <path id="Path_691" data-name="Path 691" d="M120.917,162.216a.278.278,0,0,1,.189-.078.266.266,0,0,1,.23.133l.089.119.024.057a.18.18,0,0,1,0,.095.223.223,0,0,1-.066.137.243.243,0,0,1-.289.038l-.128-.079a.27.27,0,0,1-.133-.231.286.286,0,0,1,.079-.19" transform="translate(-115.755 -107.036)" fill="#e4877c"/>
          <path id="Path_692" data-name="Path 692" d="M196.632,138.357a11.438,11.438,0,0,0,4.193-1.75c5.126-3.478,6.515-10.718,5.089-16.4-.419-1.67-1.235-5.1-2.933-6-.888-.465-2.037.249-2.835-.486-.847-.78-.5-2.046-1.04-2.952a3.515,3.515,0,0,0-2.553-1.385,30.4,30.4,0,0,0-14.207,1.412,32.8,32.8,0,0,0-8.423,4.556c-1.846,1.375-6.33,5.049-4.566,7.844a3.82,3.82,0,0,0,2.959,1.495,10.166,10.166,0,0,0-9.038,3.742,14.524,14.524,0,0,0-3.43,7.717c-.3,3.194,1.218,6.162,1.334,9.323a3.038,3.038,0,0,0,1.229,2.358c1.116.8,1.91.138,2.912-.313a9.419,9.419,0,0,1,3.22-.6c2.533-.155,5.06.221,7.591.212a52.762,52.762,0,0,0,10.962-.993c2.431-.525,6.8-.977,8.1-3.486a2.5,2.5,0,0,0-.377-2.993.741.741,0,0,1,.571-1.245,5.777,5.777,0,0,0,1.236-.062m-2.169-.855c-1.266-.094-2.657-.374-2.9,1.354-.029.2.086.473.341.449,2.566-.238,3.111,2.241,1.139,3.555A11.8,11.8,0,0,1,189.4,144.2a55.276,55.276,0,0,1-9.968,1.745c-3.568.244-7.509-.421-11.125.131a6.81,6.81,0,0,0-3.428.492,4.27,4.27,0,0,1-.8.435,1.405,1.405,0,0,1-1.529-1.177c-.209-.762-.1-1.615-.247-2.4-.343-1.779-1.113-3.389-1.262-5.228a13.878,13.878,0,0,1,4.292-10.589,7.3,7.3,0,0,1,5.551-1.993,3.879,3.879,0,0,0,2.837-.643.5.5,0,0,0,0-.707,2.878,2.878,0,0,0-1.263-.76c-.465-.135-1.083-.023-1.5-.243-2.123-1.113.275-3.942,1.221-4.946a26.193,26.193,0,0,1,7.149-5.054,28.278,28.278,0,0,1,16.5-2.99c1.319.153,2.806.327,3.026,2.04.057.453-.151.92-.119,1.377a1.542,1.542,0,0,0,.793,1.36c.738.4,1.458.029,2.227.061,1.425.061,1.776,1.869,2.176,2.984,1.869,5.212,1.859,11.793-2.1,16.075-1.77,1.914-4.641,3.528-7.363,3.326" transform="translate(-128.437 -89.779)" fill="#e4877c"/>
          <path id="Path_693" data-name="Path 693" d="M181.558,164.3c-2.186-.146-4.647.028-6.762-.538a.135.135,0,0,1,0-.258,16.2,16.2,0,0,1,5.23-.351c1.838.008,3.679.068,5.516.052a34.687,34.687,0,0,0,7.349-.861c2.728-.614,9.729-2.194,8.356-6.278-.1-.3.378-.508.516-.218,2.006,4.205-3.932,6.277-6.932,7.135a36.4,36.4,0,0,1-6.527,1.262,41.938,41.938,0,0,1-6.746.056" transform="translate(-133.282 -104.944)" fill="#e4877c"/>
          <path id="Path_694" data-name="Path 694" d="M152.3,171.527a29.186,29.186,0,0,1,7.619-2.332,37.662,37.662,0,0,1,8.476.3c2.846.258,5.716-.264,8.534.192.2.032.153.361-.047.35-2.832-.158-5.638.456-8.487.3a45.48,45.48,0,0,0-7.827-.2,28.517,28.517,0,0,0-7.751,2.283c-2.194.933-4.169,2.354-6.352,3.221-.163.065-.3-.149-.218-.284,1.187-2.034,3.983-2.933,6.053-3.823" transform="translate(-124.015 -109.283)" fill="#e4877c"/>
          <path id="Path_695" data-name="Path 695" d="M164.722,133.555a9.242,9.242,0,0,0-2.7,2.133,6.683,6.683,0,0,0-.994,1.48,3.943,3.943,0,0,1-.588,1.235.256.256,0,0,1-.422-.111c-.374-.934.749-2.228,1.326-2.864a9.665,9.665,0,0,1,3.142-2.284c.273-.124.516.267.24.411" transform="translate(-128.479 -97.594)" fill="#e4877c"/>
          <path id="Path_696" data-name="Path 696" d="M131.5,171.5c2.2-1.545,4.31-3.187,6.463-4.794a26.861,26.861,0,0,0,6.324-5.982c1.78-2.592,1.958-5.355,1.859-8.412-.084-2.575-.221-5.092,1.131-7.39.1-.168.4-.055.326.137-1.206,2.978-.384,6.233-.337,9.329a11.826,11.826,0,0,1-2.481,7.516,22.536,22.536,0,0,1-3.438,3.528c3.018-2.4,7.935-4.919,8.041-9.079.056-2.2-.729-4.419-.939-6.6-.146-1.521-.136-3.726,1.326-4.622.087-.054.238.014.224.128a16.08,16.08,0,0,0-.529,3.209,16.882,16.882,0,0,0,.859,3.724,9.046,9.046,0,0,1,.053,6.047c-1.624,3.942-6.129,5.543-9.337,7.86-.146.106-.33-.126-.2-.249-.64.523-1.293,1.03-1.95,1.525-2.107,1.587-4.46,4.208-7.16,4.666a.3.3,0,0,1-.229-.543" transform="translate(-119.178 -101.409)" fill="#e4877c"/>
          <path id="Path_697" data-name="Path 697" d="M199.133,141.329c-3.012-.069-6.838-.649-9.074-2.88a6.876,6.876,0,0,1-1-7.858c.9-1.562,2.657-2.92.869-4.629a4.689,4.689,0,0,0-4.387-.979.343.343,0,0,1-.263-.625c1.691-1.085,4.276-.24,5.552,1.159,2.441,2.676-1.084,4.706-1.476,7.293-.717,4.734,3.223,6.664,7.219,7.323a19.056,19.056,0,0,0,6.708-.119,53.483,53.483,0,0,0,5.988-2.026c.243-.076.47.277.26.447-2.708,2.2-6.992,2.971-10.393,2.892" transform="translate(-136.671 -94.582)" fill="#e4877c"/>
          <path id="Path_698" data-name="Path 698" d="M195.933,132.682c-.106,2.77,2.315,4.428,4.81,4.673a.1.1,0,0,1,.028.2c-3.423.946-6.339-2.2-5.827-5.558.4-2.64,4.562-7.144.12-8.32-.141-.038-.118-.281.036-.263,3,.362,3.144,2.652,2.252,5.1-.486,1.336-1.364,2.716-1.419,4.164" transform="translate(-139.85 -94.437)" fill="#e4877c"/>
          <path id="Path_699" data-name="Path 699" d="M198.623,137.4a.343.343,0,0,1,.536-.414,7.432,7.432,0,0,0,4.985,2.2,16.605,16.605,0,0,0,5.082-.684c.078-.021.136.1.057.136-3.154,1.347-8.578,2.474-10.661-1.24" transform="translate(-141.051 -98.821)" fill="#e4877c"/>
          <path id="Path_700" data-name="Path 700" d="M204.275,136.225a2.255,2.255,0,0,1-.966.1,1.178,1.178,0,0,1-.808-.385.2.2,0,0,1,.188-.323,3.262,3.262,0,0,0,1.475.205.208.208,0,0,1,.111.4" transform="translate(-142.311 -98.405)" fill="#e4877c"/>
          <path id="Path_701" data-name="Path 701" d="M183.214,121.588a3.111,3.111,0,0,0,.693,2.645,1.764,1.764,0,0,1,.373,1.339c-.633,2.341-4.465.3-4.245-1.647.1-.9.881.187,1.027.436.341.579.963,1.652,1.765,1.071.623-.451,0-1.061-.233-1.542a3.277,3.277,0,0,1-.144-2.512c.7-1.894,2.9-2.684,4.647-3.253a.089.089,0,0,1,.068.163c-1.388.721-3.481,1.666-3.953,3.3" transform="translate(-135.015 -92.713)" fill="#e4877c"/>
          <path id="Path_702" data-name="Path 702" d="M185.784,136.291a.179.179,0,0,1,.326.138,6.113,6.113,0,0,0,.766,5.152,12.109,12.109,0,0,0,3.724,3.472c.2.117.07.456-.16.38a7.448,7.448,0,0,1-4.647-3.747,5.641,5.641,0,0,1-.008-5.4" transform="translate(-136.666 -98.598)" fill="#e4877c"/>
          <path id="Path_703" data-name="Path 703" d="M185.338,149.2a4.489,4.489,0,0,0,1.536.895.15.15,0,0,1-.04.292,1.812,1.812,0,0,1-.967-.217,3.289,3.289,0,0,1-.824-.675.208.208,0,0,1,.294-.294" transform="translate(-136.629 -102.807)" fill="#e4877c"/>
          <path id="Path_704" data-name="Path 704" d="M205.531,106.966c-3.154-1.12-7.107-.22-10.33.239a30.336,30.336,0,0,0-4.442.923,14.089,14.089,0,0,0-2.627,1.035c-.64.344-1.179.878-1.837,1.172a.3.3,0,0,1-.406-.407c.564-1.315,2.553-1.967,3.8-2.407a26.375,26.375,0,0,1,5.323-1.214c3.372-.439,7.44-1.115,10.651.332.183.083.053.394-.137.326" transform="translate(-136.913 -88.691)" fill="#e4877c"/>
          <path id="Path_705" data-name="Path 705" d="M194.226,104.779a8.418,8.418,0,0,0-2.949.551,7.345,7.345,0,0,0-1.467.664c-.329.2-.554.5-.932.58a.241.241,0,0,1-.293-.293c.152-.813,1.573-1.224,2.25-1.443a8.406,8.406,0,0,1,3.391-.416c.223.023.234.362,0,.356" transform="translate(-137.798 -88.245)" fill="#e4877c"/>
        </g>
      </g>
    </g>
    <rect id="Rectangle_172" data-name="Rectangle 172" width="280" height="183" transform="translate(-0.052 0.389)" fill="none"/>
  </g>
</svg>
