<?xml version="1.0" encoding="utf-8"?>
<!-- Generator: Adobe Illustrator 16.0.0, SVG Export Plug-In . SVG Version: 6.00 Build 0)  -->
<!DOCTYPE svg PUBLIC "-//W3C//DTD SVG 1.1//EN" "http://www.w3.org/Graphics/SVG/1.1/DTD/svg11.dtd">
<svg version="1.1" id="圖層_1" xmlns="http://www.w3.org/2000/svg" xmlns:xlink="http://www.w3.org/1999/xlink" x="0px" y="0px"
	 width="276.216px" height="69.365px" viewBox="0 0 276.216 69.365" enable-background="new 0 0 276.216 69.365"
	 xml:space="preserve">
<path fill="#D9518F" d="M242.7,68.623H34.733c-18.405,0-33.463-15.058-33.463-33.463c0-18.405,15.058-33.464,33.463-33.464H242.7
	c18.405,0,33.463,15.059,33.463,33.464C276.163,53.565,261.105,68.623,242.7,68.623"/>
<path fill="#FFFFFF" d="M92.212,22.353c-0.135,0.565-0.249,1.136-0.406,1.695c-1.419,5.057-6.196,8.379-11.437,7.958
	c-5.058-0.406-9.267-4.426-9.898-9.454c-0.743-5.9,3.197-11.243,9.024-12.238c6.038-1.031,11.772,3.205,12.619,9.316
	c0.01,0.079,0.063,0.151,0.098,0.227V22.353z M79.744,19.562h-3.108v3.109h3.113v3.09h3.11v-3.113h3.089v-3.11h-3.113v-3.089h-3.091
	V19.562z"/>
<path fill="#FFFFFF" d="M79.488,53.843c0.592,2.261,0.074,4.083-1.744,5.394c-1.594,1.146-3.355,1.229-5.031,0.22
	c-2.104-1.267-2.72-3.201-2.117-5.57h-6.689c0.591,2.28,0.029,4.168-1.938,5.47c-1.58,1.047-3.301,1.07-4.906,0.073
	c-2.063-1.28-2.665-3.204-2.06-5.567c-0.624,0-1.211,0.002-1.798,0c-2.61-0.014-4.672-2.09-4.668-4.699
	c0.003-2.573,2.074-4.645,4.657-4.657c0.379-0.002,0.759,0,1.184,0c-1.854-8.342-3.696-16.635-5.544-24.952h-9.824V16.45
	c0.16-0.008,0.327-0.023,0.494-0.023c3.778-0.001,7.556,0.005,11.334-0.01c0.402-0.001,0.55,0.099,0.639,0.514
	c0.63,2.939,1.3,5.87,1.966,8.855h0.61c4.523,0,9.046,0.005,13.569-0.01c0.394-0.001,0.553,0.119,0.701,0.484
	c0.356,0.876,0.79,1.722,1.212,2.623h-4.476c0.177,2.106,0.348,4.15,0.521,6.227h6.457c0.095-1.059,0.191-2.132,0.287-3.187
	c0.957,0.589,1.884,1.152,2.797,1.736c0.096,0.062,0.147,0.253,0.149,0.386c0.008,0.344-0.024,0.689-0.045,1.1h0.521
	c1.559,0,3.12-0.038,4.678,0.01c1.781,0.055,3.489-0.299,5.188-0.763c0.082-0.022,0.166-0.04,0.249-0.056
	c0.012-0.002,0.027,0.016,0.081,0.052c-1.139,4.39-2.28,8.795-3.432,13.234h-0.635c-9.393,0-18.786,0-28.179,0
	c-0.173,0-0.348-0.009-0.521,0.004c-0.851,0.065-1.518,0.749-1.52,1.554c-0.002,0.803,0.663,1.491,1.514,1.559
	c0.173,0.014,0.347,0.006,0.52,0.006c9.497,0,18.994,0,28.491,0h0.642v3.099H79.488z M62.423,35.125
	c-0.175-2.102-0.344-4.145-0.513-6.179h-7.771c0.467,2.093,0.923,4.139,1.377,6.179H62.423z M81.681,38.284h-6.739
	c-0.175,2.072-0.348,4.125-0.523,6.221c1.847,0,3.625,0.004,5.404-0.012c0.107,0,0.285-0.141,0.313-0.246
	C80.656,42.282,81.159,40.313,81.681,38.284 M57.591,44.472h5.615c-0.175-2.079-0.349-4.123-0.521-6.171h-6.466
	C56.681,40.381,57.134,42.417,57.591,44.472 M71.78,38.286h-5.935c0.172,2.084,0.342,4.141,0.512,6.185h4.912
	C71.439,42.407,71.607,40.375,71.78,38.286 M59.45,56.981c0.819,0.002,1.558-0.733,1.561-1.555c0.003-0.82-0.732-1.559-1.554-1.563
	c-0.821-0.002-1.559,0.733-1.562,1.555C57.893,56.237,58.63,56.977,59.45,56.981 M76.61,55.426c0.003-0.82-0.733-1.559-1.555-1.563
	c-0.819-0.002-1.559,0.733-1.561,1.555c-0.003,0.818,0.733,1.559,1.553,1.563C75.868,56.983,76.607,56.249,76.61,55.426"/>
<path fill="#FFFFFF" d="M141.225,44.069v4.44h-27.688v-4.44h14.849c1.411-3.539,2.85-8.64,3.54-12.81l4.919,0.99
	c-1.049,4.23-2.459,8.52-3.719,11.82H141.225z M139.905,30.72h-24.988v-4.41h10.62c-0.271-1.35-0.87-3.21-1.352-4.62l4.38-1.08
	c0.63,1.53,1.29,3.51,1.65,4.83l-3.089,0.87h12.778V30.72z M120.736,43.679c-0.33-3.09-1.381-7.86-2.311-11.46l4.411-1.08
	c1.08,3.66,2.099,8.189,2.608,11.311L120.736,43.679z"/>
<path fill="#FFFFFF" d="M157.155,38.159c1.472,2.461,3.33,5.761,4.11,7.95l-4.08,2.16c-0.21-0.69-0.509-1.5-0.899-2.37
	c-6.75,2.01-8.1,2.551-9.029,3.18c-0.24-1.289-0.96-3.42-1.65-4.5c0.75-0.359,1.47-0.989,1.47-2.159V22.53h13.351v15.329h-8.88v5.13
	l3-0.779c-0.391-0.78-0.781-1.5-1.17-2.19L157.155,38.159z M151.547,28.2h4.5v-1.8h-4.5V28.2z M156.047,32.039h-4.5v1.95h4.5V32.039
	z M172.785,40.109c0,1.86-0.271,3-1.38,3.69c-1.08,0.689-2.46,0.75-4.29,0.75c-0.12-1.17-0.6-3-1.14-4.11
	c0.78,0.06,1.77,0.06,2.069,0.03c0.33,0,0.45-0.09,0.45-0.45V26.73h-2.58v22.829h-4.38V22.74h11.25V40.109z"/>
<path fill="#FFFFFF" d="M187.065,41.91c1.021,1.56,2.101,3.569,2.611,4.919l-3.33,1.59c-0.391-1.35-1.41-3.419-2.37-5.009
	c-0.84,2.37-2.16,4.739-3.48,6.239c-0.75-0.601-2.34-1.621-3.24-2.101c1.41-1.379,2.58-3.539,3.182-5.639h-1.411V22.17h9.57V41.91
	H187.065z M186.797,41.91h-6.24l3.63,0.87l-0.09,0.27L186.797,41.91z M182.687,27.75h2.101v-2.16h-2.101V27.75z M182.687,33.12
	h2.101v-2.19h-2.101V33.12z M182.687,38.489h2.101V36.27h-2.101V38.489z M199.365,33.479v0.78h5.43v7.53h1.2v3h-1.2v0.99
	c0,1.709-0.3,2.639-1.409,3.209c-1.11,0.569-2.551,0.6-4.409,0.6c-0.151-1.02-0.63-2.52-1.08-3.479c0.929,0.06,2.16,0.06,2.49,0.06
	c0.358,0,0.479-0.12,0.479-0.45v-0.93h-6.66v4.829h-3.84V44.79h-1.409v-3h1.409v-7.53h5.25v-0.78h-6.51v-3h3.451v-0.72h-2.401v-2.85
	h2.401v-0.69h-3.061v-3h3.061V21.06h3.75v2.159h2.309V21.06h3.84v2.159h3v3h-3v0.69h2.58v2.85h-2.58v0.72h3.54v3H199.365z
	 M194.205,38.16h1.41v-0.9h-1.41V38.16z M194.205,41.79h1.41v-1.021h-1.41V41.79z M196.307,26.91h2.31v-0.69h-2.31V26.91z
	 M196.307,30.479h2.31v-0.72h-2.31V30.479z M199.365,38.16h1.5v-0.9h-1.5V38.16z M200.865,40.77h-1.5v1.02h1.5V40.77z"/>
<path fill="#FFFFFF" d="M230.506,44.399c2.909,1.021,6,2.221,7.92,3.06l-4.801,2.13c-1.77-0.989-5.068-2.459-8.278-3.568l2.58-1.621
	h-7.681l2.67,1.2c-2.55,1.709-6.601,3.24-9.779,4.109c-0.75-0.869-2.28-2.429-3.239-3.179c2.729-0.45,5.699-1.23,7.799-2.131h-4.02
	V31.02h21.028v13.379H230.506z M236.295,30.059h-24.179v-7.83h24.179V30.059z M218.985,25.41h-2.85v1.47h2.85V25.41z
	 M218.057,34.709h12.06v-1.02h-12.06V34.709z M218.057,38.219h12.06V37.2h-12.06V38.219z M218.057,41.759h12.06v-1.05h-12.06V41.759
	z M225.467,25.41h-2.881v1.47h2.881V25.41z M232.065,25.41h-3v1.47h3V25.41z"/>
</svg>
