<?xml version="1.0" encoding="UTF-8"?>
<svg id="_圖層_1" data-name="圖層 1" xmlns="http://www.w3.org/2000/svg" viewBox="0 0 176 176">
  <rect width="176" height="176" style="fill: #f8d2e3;"/>
  <g>
    <path d="M77.97375,48.75346c2.29075,9.44538,.95289,17.02961-4.00683,22.75336,.09489,.09663,1.7174,2.386,4.86619,6.86943,2.67031,.66848,5.34062,.62082,8.01363-.14362,3.72082-1.43094,6.24745-3.81429,7.58394-7.15535,.57338-1.81084,.3809-4.05322-.57201-6.7258-2.09964-6.38958-4.4365-12.59251-7.01193-18.60285-.95562-2.66994-2.24333-4.53108-3.86312-5.58079-2.67302-1.71818-5.82183-1.95579-9.44639-.71679-1.14402,.38255-2.0983,.85975-2.86142,1.4316,3.14879,.85909,5.58052,3.48336,7.29794,7.87082" style="fill: #d84d8e;"/>
    <path d="M135.77005,104.43361c-.55034-1.30651-.83092-2.72421-1.24163-4.08896-.05152-.17539-.12201-.3713-.25213-.48713-.07456-.06486-.28871,.01258-.79702,.05891,.08538,.27335,.1979,.52022,.23719,.77901,.42969,2.81025,1.58594,5.30546,3.39686,7.5015,.86751,1.05302,1.89904,1.94653,3.23148,2.4588,.90681,.34814,1.83939,.42425,2.7584-.03111,.15723-.07744,.21959-.34284,.32532-.52088-.17485-.05957-.39037-.21775-.51915-.16546-1.39615,.56986-2.47783-.01588-3.50665-.75319-1.7079-1.22311-2.84924-2.89033-3.63269-4.75148" style="fill: #d84d8e;"/>
    <path d="M134.01807,94.29924c.43238,.89748,.76854,1.85453,1.31751,2.67722,.82414,1.23503,2.00071,2.09743,3.62187,2.20531,.49069,.03111,.99628-.09465,1.4951-.14892,.0122-.08406,.02575-.16811,.0393-.25349-3.00781-.42028-4.52595-2.64479-6.30571-4.55292-.05558,.02449-.11252,.04898-.16807,.0728" style="fill: #d84d8e;"/>
    <path d="M115.72863,110.04881c.08674-.14826,.14096-.19988,.14503-.25548,.01084-.14098,.00407-.28328-.00134-.4269-.16809-4.03204,.65605-7.88869,2.45477-11.58252,.21552-.44278,.30228-.95837,.35649-1.44748,.4446-4.04859,1.46664-7.96745,3.10678-11.74798,1.96138-4.52579,4.65202-8.62335,8.1695-12.24041-4.93668,6.36708-8.13562,13.37086-9.15358,21.19336,3.93632-4.91893,8.91095-8.45259,14.8751-10.74328-.3809,.35078-.81601,.62877-1.2457,.91734-6.84655,4.588-11.7236,10.49972-13.77308,18.29244-.15181,.57846-.21959,1.21186-.14776,1.79695,.98952,8.01907,3.77232,15.00036,8.35387,20.9273,1.12369-3.22987,2.66352-5.66418,4.63034-7.28838,1.43139-1.23834,3.09863-1.95447,5.00851-2.14707v-3.00484c2.0034,.85909,3.81435,1.28798,5.43686,1.28798,2.95631-.28658,5.72557-2.38335,8.30101-6.29626,2.09693-4.00821,2.52662-7.82118,1.28771-11.44882-.85938-2.00344-2.57678-3.67199-5.15221-5.00828l-5.72421-2.71891v.14362l-4.14915-2.43365v-4.15051l13.59418-16.0269c2.0034-2.38468,3.1-4.67272,3.29111-6.86943,.00542-.16811-.01626-.3349-.02033-.50301-.26296,.50698-.50423,1.06096-.92172,1.24959-1.01527,.45668-2.1959,.72143-3.31281,.7565-.58963,.01919-1.18876-.61553-1.78247-.9544,.40799-.54736,.70486-1.24959,1.24975-1.60898,1.26738-.83593,2.75163-.78232,4.21149-.60692,.17622,.16679,.35244,.33424,.53,.50367-.29142-3.01543-2.03459-5.92032-5.24843-8.71005-3.72082-2.95652-7.25049-4.10154-10.58907-3.43504-1.6442,.27533-3.21386,1.09935-4.71167,2.45616-.16265,.96565-.4839,1.91145-.97188,2.82349-1.00578,1.87769-2.47918,3.21001-4.6195,3.6197-.01762,.00397-.03388,.00397-.0515,.00794l-.09218,.10854-.09487-.08273c-1.72418,.26673-3.24232-.17804-4.50293-1.33431-.84581-.77636-1.43003-1.74664-1.88005-2.799-.38632-.90013-.64386-1.84063-.72519-2.83408-.07454-.92594,.03388-1.83666,.33616-2.73678,.12877-.38322-.0637-.74525-.4202-.83924-.35649-.09332-.71977,.10325-.84989,.47323-.42835,1.22245-.52729,2.46277-.3687,3.71038,.14369,1.12317,.47848,2.18347,.9624,3.18883,.78753,1.63479,1.87056,3.00947,3.47951,3.92151,.07998,.04633,.1708,.17208,.15725,.24687-.01491,.08008-.13963,.17738-.23316,.20981-.88513,.31041-1.78923,.4216-2.70011,.31504-2.46292-.28791-4.34028-1.47528-5.61442-3.5191-1.06272-1.70759-1.43683-3.63426-1.34872-5.67411,.07185-1.69303,.58287-3.26826,1.67539-4.65353,1.20367-1.52757,2.75298-2.42174,4.66693-2.63353,.21823-.02449,.34566,.03905,.39852,.25349,.06912,.28195,.15587,.55728,.23721,.83394,.09353,.31835,.35105,.50367,.68045,.49176,.26973-.00927,.56523-.21444,.6086-.48911,.02577-.17076-.03388-.36601-.10166-.52882-.83227-1.9644-2.2867-3.15045-4.48531-3.3993-.29006-.03309-.49339-.22503-.55439-.50434-.07183-.33225,.10031-.56523,.34973-.76709,.10979-.03045,.22094-.06155,.33072-.09266,.01899,.00662,.03795,.01787,.05828,.01919,1.67539,.14627,3.06476,.8346,4.19659,2.00874,.03388,.03508,.0732,.06354,.12741,.10854,.00949-.07876,.01491-.12641,.02033-.17473,.18977-1.80025,1.42326-3.24641,3.19624-3.74281,.81872-.23033,1.63878-.45933,2.45884-.68833,.53542-.14892,.90548,.11649,.91361,.65723,.02709,1.81482-1.30806,3.57337-3.09865,4.08036-.86073,.24356-1.72145,.48249-2.5822,.72341-.07183,.02052-.14366,.03971-.23856,.06685,.06507,.11053,.12606,.18664,.1586,.27467,.06505,.17672,.15452,.16679,.31854,.0867,.71299-.35211,1.45714-.60163,2.23383-.73731,1.77297-.31041,3.36431,.04633,4.69541,1.14171,1.34328,1.10597,2.25958,2.46807,2.80721,4.02675,1.35007-.86174,2.7408-1.4594,4.17624-1.77444v-7.58357c0-3.24244-.66961-5.86804-2.00477-7.87148-2.00204-2.86121-5.62933-4.29281-10.87505-4.29281-4.86619,0-8.49212,1.4316-10.87642,4.29281-1.43003,1.81349-2.14572,4.43644-2.14572,7.87148v45.83434c1.32159-3.65412,3.1393-7.20433,5.46802-10.55929,1.26738-1.82607,2.71234-3.54293,4.07459-5.31075,.91496-.86505,1.82991-1.73076,2.74622-2.59581-.45408,.61288-.89326,1.23503-1.36227,1.83533-6.65813,8.53003-10.29355,17.4896-10.92656,26.87806v5.98585c.28735,4.36032,1.19418,8.80801,2.72723,13.34439,.09895,.28923,.24534,.5639,.39581,.90873m15.47828-30.41305c-.63301,.77768-1.37582,1.53022-2.223,2.08419-1.13182,.7393-2.37481,.70356-2.81397,.14826-.45273-.57251-.08406-1.57787,.83903-2.73546,.94478-.41631,1.86245-.91535,2.84382-1.20789,.40799-.12178,1.1481,.05692,1.38395,.35343,.23314,.29585,.21823,1.05235-.02982,1.35747m2.0468-3.78053c-.90817,.40903-1.78925,.91204-2.73945,1.18473-.44324,.12708-1.28771-.04368-1.47206-.34615-.23043-.37924-.17215-1.18142,.12064-1.53816,.61267-.7426,1.39209-1.41638,2.23249-1.92336,.81464-.4911,1.82718-.88424,2.68522-.06552,.52727,.50566,.09487,1.59574-.82685,2.68847m6.70965,21.72285c1.41241,.80945,2.51713,1.88299,3.35076,3.19744,1.33921,2.11199,2.2352,4.40268,2.31923,6.93495,.02441,.7618-.06236,1.56-.27109,2.30393-.6154,2.19605-2.58085,3.29804-4.78486,2.57992-1.09931-.35807-2.21081-.91932-3.05799-1.65795-3.73706-3.257-5.76758-7.41877-6.18914-12.27548-.10979-1.25753,.30634-2.57926,.54219-3.86459,.06914-.3766,.31041-.74922,.5395-1.08412,.69266-1.01794,1.36361-1.10729,2.25824-.30115,.48119,.43286,.91767,.91006,1.37311,1.36674-.03661,.0503-.0732,.09994-.10844,.15024,1.33786,.88954,2.63099,1.84923,4.0285,2.65008m1.03695-25.56427c-.80788,1.1384-2.00069,1.8082-3.38464,1.96241-.65065,.07214-1.65506-.11649-1.93699-.53412-.26433-.39182,.21281-1.24165,.29413-1.58978,1.40564-1.11457,2.58356-1.74201,4.0163-1.7109,1.29584,.02846,1.73773,.8485,1.0112,1.8724m10.12141-10.55532c1.09523,.31571,1.24163,1.20193,.25484,2.13052-1.28907,.85975-2.87228,1.32835-4.61408,.8121-1.09252-.32497-1.28634-1.24826-.3985-1.96572,1.39207-1.12317,3.02273-1.47859,4.75775-.9769m-9.22002,.26673c.17758-1.4177,2.25553-3.35165,3.77098-3.50917,.96509-.1006,1.56693,.45933,1.27009,1.35284-.25213,.76048-.75501,1.44881-1.19283,2.25164-.8648,.39447-1.66724,.89152-2.54288,1.12317-.90412,.24025-1.4165-.33159-1.30535-1.21848m.70215,2.47667c.52729-.14627,1.52085-.03243,1.69165,.27666,.23992,.43484,.10437,1.28731-.22365,1.72944-.50425,.67907-1.24841,1.25224-2.00071,1.70495-1.18061,.71084-2.35582,.69826-2.81534,.137-.46628-.57185-.10302-1.56927,.8431-2.67986,.83092-.40373,1.62794-.92528,2.50495-1.16818m-6.90213-.08803c.23992-.7982,.75094-1.52757,1.17248-2.34496,.85938-.40572,1.62523-.89748,2.46428-1.13045,.95696-.26474,1.49646,.321,1.35683,1.26746-.2101,1.42035-2.17147,3.29341-3.66115,3.49527-.99086,.13436-1.60627-.37792-1.33244-1.28731m1.10336,2.81687c.90139-.20054,1.38531,.43616,1.20638,1.30783-.29008,1.40976-2.51308,3.18685-4.03934,3.23119-.99765,.02846-1.50595-.52816-1.15896-1.43491,.24942-.65392,.72655-1.2337,1.21858-2.03521,.85804-.34284,1.78247-.84718,2.77333-1.0689m-5.14272-2.93203c.64928-.15487,1.37176-.55464,1.92886-.41101,.86751,.22238,.78482,1.11192,.66149,1.82474-.22501,1.3118-.81735,2.47535-1.98851,3.26495-.35242,.23761-1.02203,.41499-1.32701,.25548-.36599-.1926-.67098-.76378-.69807-1.19333-.08406-1.34821,.56523-2.48462,1.42324-3.74082m-4.87839,4.54763c.28874-.08008,.88784-.44345,1.28773-.30512,.40799,.14098,.81193,.7426,.8824,1.19532,.23721,1.51963-.23719,2.91747-1.37853,4.04263-.89055,.87829-1.90038,.59898-2.14843-.57913-.32125-1.52757,.20739-2.88041,1.35683-4.3537m-4.50291,4.34047c.53813-.55861,1.11285-.56523,1.67132-.0642,1.10743,.99213,1.23619,3.95262,.22906,5.12543-.52998,.61818-1.11149,.69627-1.47747,.37527-1.40022-1.26613-1.50188-4.31862-.42291-5.4365m-2.62557,5.10955c.57472-.52419,1.16299-.46462,1.72416,.17407,.96919,1.10464,1.08439,3.68787,.19926,4.86863-.42698,.5692-.95562,.82534-1.62794,.36336-1.34057-.92064-1.52221-4.28619-.29548-5.40606" style="fill: #d84d8e;"/>
    <path d="M155.10739,126.31597c-1.24163-3.14846-4.05562-5.34186-8.44333-6.58218-4.57884-1.24032-8.10987-.85909-10.58905,1.14435-1.52765,1.24165-2.76926,3.29076-3.72082,6.15263l-.43511,1.21583c2.47783,2.55213,5.33383,4.88253,8.60192,6.96871,.51915,.33027,.98137,.64664,1.35683,.92395,.28737-.22636,.57067-.45536,.87429-.67046,.9502-.67245,2.1742-.99411,3.29111-1.42895,.32803-.12774,.72519-.12774,1.0871-.12046,1.09931,.02118,1.45309,.46595,1.19012,1.49514-.13961,.55133-.33482,1.09339-.50425,1.63876-.05558-.00265-.10979-.00529-.16536-.00728-.14098,1.38858-.35786,2.77914-.40394,4.16838-.04608,1.40579-.43104,2.7123-1.12098,3.93607-1.11151,1.96704-2.54832,3.69648-4.52055,4.9507-.59505,.37792-1.2633,.69098-1.9397,.8902-2.00069,.58972-3.70318-.31438-4.06238-2.25098-.17893-.96565-.20331-2.03455,.02575-2.99756,.85125-3.58529,2.73672-6.58615,5.51413-8.9973-4.26708-1.46535-8.26169-3.42512-12.01368-5.83031-.95291-.6109-1.86243-1.2807-2.7923-1.92204-1.2118-1.15362-2.4236-2.3079-3.63406-3.46152-.30092-.39579-.5693-.81872-.90817-1.18208-4.15186-4.45563-7.21661-9.53341-9.19019-14.92159v33.631c-.09624,1.71752,.38088,3.57734,1.43139,5.58079,1.43139,2.95652,4.48394,4.67404,9.15902,5.1519h13.30815c6.58359-.28592,11.11363-1.66987,13.59552-4.15051,.28601-.57185,.66554-1.14369,1.14539-1.71686,.85802-1.52757,1.57371-3.52837,2.14572-6.01033l1.71742-8.15608c.66688-3.14846,.66688-5.6291,0-7.44193" style="fill: #d84d8e;"/>
    <path d="M140.04607,141.40832c.80379-1.01463,1.80956-1.8863,2.7191-2.82746,.11657-.12046,.24263-.26408,.27922-.413,.02033-.08406-.13148-.20319-.38224-.54934-.18164,.19128-.32938,.38917-.5178,.53941-2.04678,1.63611-3.53782,3.65081-4.51511,5.99842-.46901,1.12648-.74281,2.29466-.58692,3.50255,.10573,.82137,.43916,1.53154,1.18605,1.98293,.12877,.07876,.36462-.00265,.55031-.00927-.02575-.15487,.00815-.3852-.08674-.45403-1.04102-.74327-1.03287-1.8029-.88106-2.89563,.2494-1.81614,1.08981-3.42909,2.2352-4.87459" style="fill: #d84d8e;"/>
    <path d="M147.34154,135.36026c-.52866,.73532-1.14539,1.4316-1.56695,2.21789-.63166,1.17943-.81872,2.43829-.22094,3.66405,.18027,.36998,.49474,.67774,.74687,1.01264,.0732-.02978,.14503-.05957,.21688-.09001-.93394-2.37872,.18977-4.52711,.95289-6.7172-.04201-.02846-.08538-.05824-.12875-.08737" style="fill: #d84d8e;"/>
    <path d="M67.25837,97.42056c-2.44395-1.05169-4.79978-2.26488-6.93332-3.81958-.75772-.55265-1.49104-1.14237-1.99664-1.92601-.21686-.33755-.34158-.73466-.46899-1.11722-.08269-.24489,.02982-.4686,.29821-.56523,.43511-.15686,.87022-.33556,1.32159-.42293,1.17658-.22768,2.36126-.1648,3.54326-.09332,.12604,.00794,.27922,.02978,.37682-.02449,.64113-.35608,1.33108-.30776,2.00882-.26011,1.6659,.11649,3.25045,.55464,4.81198,1.06559,2.97665,.97426,5.81231,2.23112,8.59512,3.59323,.39039-.96764,.64794-1.97234,.73332-3.02403,0-2.38401-2.62557-7.53526-7.87129-15.45505-1.71605-2.38335-3.48361-3.95791-5.29453-4.72302-2.95766-1.43094-6.25013-.95241-9.87472,1.4316-3.7208,2.57529-5.72421,5.6291-6.01021,9.15879-.09624,2.09875,.61946,4.34179,2.14709,6.72514,5.15085,8.01444,8.82286,12.49853,11.01874,13.45161,2.86144,1.24165,6.1539,.76577,9.87472-1.43028,.01897-.01456,.03524-.02978,.05558-.04302-2.1105-.84453-4.25081-1.62552-6.33553-2.52168" style="fill: #d84d8e;"/>
    <path d="M82.08331,142.80219c2.00475-2.93137,4.22774-5.68205,7.17458-7.85096-3.35213,.7757-6.57411,4.3365-7.17458,7.85096" style="fill: #d84d8e;"/>
    <path d="M108.16841,90.39692V33.15479c0-3.24244-.66825-5.86671-2.0034-7.87016-2.00206-2.86254-5.62933-4.29414-10.87505-4.29414-4.86621,0-8.49348,1.4316-10.87642,4.29414-1.43005,1.81349-2.14709,4.43644-2.14709,7.87016v2.00477c1.02611,.22238,1.97223,.58574,2.84651,1.08015,.00407-.32696,.02304-.65855,.07049-.99742,.26567-1.84063,1.1481-3.42578,2.42497-4.81634,1.05864-1.15362,2.35855-1.96373,3.95531-2.29334,1.76077-.36336,3.39008-.07347,4.87026,.91601,.16807,.11252,.21959,.23364,.12877,.41763-.11793,.23893-.21959,.48647-.32803,.73069-.12335,.28063-.0515,.56523,.18842,.75253,.19653,.15421,.52727,.18532,.72112,.01588,.12064-.10524,.19519-.27798,.24263-.43352,.58285-1.88563,.26026-3.59058-1.14675-5.07513-.18569-.19657-.21552-.45271-.09216-.68701,.14639-.27798,.40665-.3402,.70349-.33358,.09624,.04368,.19248,.0867,.28871,.13171,.01086,.01588,.01762,.03375,.03119,.04832,1.09794,1.10067,1.6713,2.41446,1.77161,3.91886,.00271,.04368,.01491,.08803,.02575,.15223,.05287-.0503,.0854-.08008,.11793-.11119,1.20638-1.16156,2.93869-1.44947,4.48936-.74459,.71706,.32563,1.43276,.65061,2.14845,.97756,.46899,.21378,.57201,.62215,.25618,1.00867-1.0627,1.29989-3.05392,1.74863-4.62221,1.04044-.75365-.33887-1.50459-.68304-2.25687-1.02588-.06236-.02846-.1247-.05692-.20875-.09465-.01897,.11781-.02168,.20716-.0515,.28857-.05965,.16414,.01084,.21179,.17485,.25084,.71299,.17605,1.38802,.44345,2.01832,.80945,1.43952,.83593,2.35177,2.03588,2.64048,3.60249,.43106,2.33305-.10708,4.5099-1.42597,6.49548-.94342,1.42035-2.25958,2.48329-3.90244,3.13787-1.82989,.72937-3.66386,.79423-5.42194-.18929-1.49781-.83924-2.36668-2.10272-2.57949-3.74281-.13554-1.05434,.02848-2.0875,.33753-3.10014,.26296-.86571,.63979-1.68575,1.17385-2.43564,.49881-.69958,1.11827-1.27937,1.86787-1.73605,.31988-.19525,.3985-.56589,.20195-.84453-.19519-.27798-.5693-.35542-.88242-.17076-1.03016,.60957-1.83939,1.42697-2.46968,2.40453-.56659,.87961-.96104,1.83004-1.21858,2.82878-.24127,.94447-.35513,1.88563-.2955,2.82216,.90954,1.46535,1.65369,3.22854,2.223,5.30413,2.09693,5.53313,4.29283,11.35352,6.58224,17.4585,1.23892,3.52969,1.47747,6.63116,.7157,9.30109-1.7174,4.57874-5.24843,7.87148-10.58905,9.87492-1.81364,.66848-3.72082,1.00139-5.72557,1.00139v.85843c1.23892,2.38666,1.76484,4.72236,1.57508,7.01305-.03661,.31571-.08269,.62744-.13692,.93653,1.77705-.72937,3.5541-1.46204,5.33249-2.19009,.12199-.0503,.28871-.07876,.40528-.04104,1.10338,.35939,2.20132,.73334,3.35213,1.12119-.10302,.09928-.13419,.13436-.17215,.16149-2.60253,2.00212-5.20643,4.00424-7.80217,6.01298,2.86549,1.57059,5.68083,3.2206,8.46229,4.9229,.42562,.26143,.7577,.2985,1.19281-.00265,.65607-.45139,1.35278-.8485,2.03188-1.27011,2.17691-1.34754,4.35112-2.69641,6.53209-4.038,.11115-.06751,.30226-.13171,.39852-.0867,1.38258,.64531,2.75434,1.30783,4.15862,1.9816-.08269,.08803-.12741,.13965-.17485,.18731-1.57508,1.58581-3.15016,3.17162-4.72523,4.75744-.92038,.92726-1.84346,1.85188-2.76111,2.78311-.33482,.3402-.29145,.66384,.11113,.90542,.19384,.11649,.39445,.22503,.58965,.33887,.52456,.30644,1.04778,.61354,1.55744,.91204-.34293,.28328-.66688,.54206-.97866,.8121-.15723,.13568-.29277,.15554-.49881,.08803-5.32705-1.74201-10.65683-3.47277-15.98524-5.20816-.24805-.07942-.49203-.1423-.72112,.05295-.24263,.2065-.1979,.44609-.12199,.70223,.3592,1.21451,.71028,2.43167,1.06133,3.6475,.22909,.78894,.4541,1.57787,.69673,2.42108-.18298-.06354-.31176-.10126-.43377-.15157-1.11014-.45139-2.223-.89748-3.32499-1.36674-.21959-.09332-.43377-.24753-.5815-.4269-1.66319-2.01801-3.3223-4.04064-4.98278-6.06262-.25482,.18532-.51373,.36866-.78074,.54868-4.58018,2.95917-9.11294,3.62698-13.59552,2.00344-.66827-.28592-1.28773-.57185-1.86108-.85777-2.00206,1.42961-2.91023,3.62698-2.71912,6.58218,.28737,3.72163,1.66861,7.0607,4.15051,10.01656,1.23892,1.4316,2.76655,2.386,4.57882,2.8632,2.00477,.57185,4.34162,.3349,7.0133-.71613l14.45354-6.00967,1.7174,3.72031-14.45354,6.15263c-.09624,0-.14369,.0503-.14369,.14362-4.10307,8.2997-6.05902,13.64421-5.86789,16.02756,.66688,3.52969,3.4348,6.62983,8.30098,9.30242,4.86619,2.28937,8.96655,2.66927,12.30645,1.14435,4.00683-1.71752,8.44333-9.92125,13.30951-24.61318,3.81435-13.45293,5.62799-26.37902,5.43686-38.78158m-14.50233,43.84546c-.13285,.02581-.26433,.05162-.39718,.07214-1.50593,.23695-2.42902,1.11258-2.94682,2.4224-.27922,.70885-.34429,1.46271-.43104,2.20664-.22367,1.91542-1.14539,3.43637-2.83025,4.52843-.32398,.21047-.6642,.40969-1.02476,.56126-.34293,.1423-.7062,.24687-1.07219,.32431-.12877,.02714-.26296,.03111-.39445,.04699-1.03695,.12774-2.05898-.00662-3.08101-.14495-.19248-.02581-.30497-.1059-.38632-.2707-.26567-.53809-.43374-1.10067-.51915-1.68774-.17756-1.22973-.44189-2.78709-.10437-3.9963,.02439-.08406,.0515-.16348,.07862-.24621,.58556-1.65795,.78211-1.81548,2.07931-2.83606,.37141-.29387,.69807-.52552,1.87871-.98815,.20061-.07744,.82548-.25482,1.26332-.36336,.14503-.04302,.29413-.07942,.4595-.10524,.97732-.14693,1.89362-.34748,2.89398-.3402,1.65096,.01059,3.25723,.30181,4.84586,.70025,.01897,.00463,.03524,.02184,.06778,.04236-.13692,.02714-.25755,.05162-.37953,.07413" style="fill: #d84d8e;"/>
    <path d="M35.68016,148.28436c.29955,.75121,.65334,1.44815,1.08032,2.07294,2.25417,2.7573,5.56968,4.30605,9.94519,4.64955-.64521-.47985-1.285-.963-1.918-1.45476-2.79637-2.17156-5.80961-3.96321-9.1075-5.26773" style="fill: #d84d8e;"/>
    <path d="M32.79231,103.55135c3.9187,2.40255,6.97667,5.64036,9.77304,9.13761-1.07219-4.42187-5.46532-8.56908-9.77304-9.13761" style="fill: #d84d8e;"/>
    <path d="M59.09944,130.1051c-.4541,1.14435-1.8882,4.16309-3.46735,4.51983-.17485,.19194-.34293,.38851-.52998,.57582-.18842,.18995-.42562,.33622-.62759,.51493-.84312,.74856-1.31482,1.6798-1.3094,2.76392,.01762,3.2345,.07998,6.46966,.12606,9.79484,.66554-.58045,1.49644-.84718,1.74586-1.78503,.39987-1.51036,.85125-3.02138,1.44767-4.47085,1.21856-2.96579,3.45105-4.77928,6.60663-5.46629v-9.09128c-1.09389-.48249-2.11184-1.17149-3.06476-2.03323-.02712,1.59375-.33616,3.18552-.92714,4.67735" style="fill: #d84d8e;"/>
    <path d="M56.83808,147.22672c-1.06406,.84321-2.12812,1.68641-3.2071,2.51308-.22365,.17274-.33072,.33358-.3253,.61818,.02575,1.41108,.04201,2.82084,.0637,4.2306,3.11762-.68171,5.60629-2.0789,7.43213-4.23192,1.3609-1.87174,2.11184-4.31862,2.25824-7.32876-1.43139,.71944-2.80587,1.56-4.12069,2.51969-.72517,.52882-1.39749,1.12251-2.10099,1.67913" style="fill: #d84d8e;"/>
    <path d="M27.22356,64.82007c.51236-.60163,1.07353-1.11126,1.64962-1.51632-.80517,.01191-1.6781-.1006-2.56729-.35939-.85125-.24687-1.61982-.60163-2.27586-1.02059-.78889-.46529-1.56424-1.14568-2.27315-2.09809,.45002,4.00821,1.90987,7.00908,4.41346,8.96222-.2616-.20319-.4961-.43484-.73466-.6612,.12062-.43418,.27109-.83659,.45-1.20127,.3172-.71017,.76314-1.42895,1.33788-2.10537" style="fill: #d84d8e;"/>
    <path d="M21.59315,57.11339c1.25788-.59038,3.44971-1.34821,5.70251-.84519,.29415,.0556,.591,.12046,.89057,.20849,.8309,.24092,1.5805,.58442,2.22571,.98948-.14639-.63009-.22909-1.3118-.22909-2.02926,0-.31174,.01899-.61553,.04879-.91336,.22367-3.53366,3.26538-6.11491,3.26538-6.11491,1.78923,1.54544,2.70826,3.11338,3.0783,4.55888,.21823,.74658,.34429,1.58184,.34429,2.46939,0,.60626-.05828,1.1887-.16536,1.73539,.52322-.27666,1.09794-.51559,1.71874-.69561,.29957-.08803,.59642-.15289,.89055-.20849,1.6144-.36071,3.19489-.07214,4.42702,.33689,.13285-1.15296,.42969-2.14508,.84176-2.98829,.38361-.85975,.92445-1.73142,1.61979-2.55014,.62082-.72871,1.30128-1.34556,1.99935-1.83666-.97595,.0139-2.03457-.12178-3.10949-.43484-1.03287-.29982-1.96274-.72937-2.75705-1.23635-1.55609-.91734-3.06881-2.51705-4.26164-5.12212,0,0,4.03121-2.6653,8.21695-1.72944,.35649,.06619,.71706,.14627,1.07897,.25151,1.00578,.2932,1.91529,.70753,2.69606,1.19863-.17622-.76312-.27788-1.58978-.27788-2.45748,0-.37726,.02441-.74459,.05828-1.10597,.27246-4.2809,3.95667-7.40818,3.95667-7.40818,2.16742,1.8724,3.28162,3.77259,3.72759,5.52255,.26567,.9041,.41883,1.91674,.41883,2.9916,0,.73466-.07183,1.43954-.20061,2.10339,.63301-.33622,1.32974-.62479,2.08338-.84453,.36191-.10524,.72112-.18532,1.07761-.25151,.72248-.16149,1.43952-.21047,2.13218-.18995v-5.64433c0-3.52837-.76449-6.3909-2.28941-8.58695-2.57678-3.1478-6.53616-4.72236-11.87812-4.72236-5.43822,0-9.49382,1.57456-12.16413,4.72236-1.43005,2.09941-2.14574,4.96129-2.14574,8.58695v8.58563c-3.7208,0-6.53614,.71547-8.4433,2.14707-2.95768,2.09941-4.48531,5.91635-4.5802,11.44816,0,.02846,.00407,.05427,.00407,.08273,0-.00794-.00134-.01456-.00134-.02317" style="fill: #d84d8e;"/>
    <path d="M55.85292,47.65014c.75907,.59964,1.90175,.16282,2.10506-.71944,.17756-.76974-.22094-1.40049-1.0112-1.59706-.69944-.17473-1.40157,.22636-1.65775,.92329-.0461,.12178-.18164,.25349-.3077,.29982-.2318,.08273-.48798,.10391-.75501,.15421-.03524-.48779-.12062-.8849,.44326-1.21451,.65063-.38189,.6425-1.3621,.10437-1.881-.55575-.53809-1.47476-.5328-2.01019,.01059-.53677,.54471-.47848,1.41638,.12741,1.89887,.44055,.35012,.51646,.63207,.30363,1.17811-.31176-.06619-.63301-.11649-.93934-.20981-.10302-.03309-.20604-.16414-.24127-.27136-.19384-.59104-.71164-.98683-1.33515-.99213-.57203-.00529-1.14946,.39314-1.31753,.91072-.18029,.55331,.05014,1.19134,.53811,1.49249,.52188,.31968,1.24707,.26143,1.73502-.12774,.09897-.0781,.24263-.17341,.35244-.15951,.32803,.04037,.64792,.12972,1.0139,.20981-.17756,.26408-.33616,.4719-.46223,.69297-.19248,.33622-.40799,.54471-.87971,.5189-.51373-.02846-.98544,.40373-1.13047,.88623-.1586,.52485,.02846,1.1053,.45273,1.40843,.5178,.3713,1.24299,.37329,1.73639,.00596,.46223-.34483,.62488-1.02389,.39716-1.57258-.05558-.13171-.10844-.32034-.04881-.4269,.18435-.32828,.42293-.6281,.68182-.99941,.18164,.2621,.31041,.4858,.47714,.68039,.22094,.25945,.26567,.4911,.12606,.82468-.27924,.67311,.11115,1.39056,.81735,1.61957,.55981,.18135,1.07895,.092,1.48155-.31571,.3985-.4044,.48932-.90807,.26296-1.41902-.22909-.51691-.67774-.76511-1.27011-.79026-.14637-.00728-.35649,.00132-.42562-.08008-.25618-.30909-.46764-.65325-.72382-1.02654,.51238-.11252,.87971-.29122,1.35956,.08803" style="fill: #d84d8e;"/>
    <path d="M35.14855,61.99923c.62622,.49639,1.56964,.13568,1.73773-.59369,.14774-.63538-.183-1.15759-.835-1.31842-.57743-.14362-1.15622,.18797-1.36903,.7618-.03659,.10126-.1491,.20981-.25347,.2482-.19113,.06751-.40258,.08538-.62217,.12708-.02982-.40241-.10031-.72937,.36462-1.00272,.53813-.31504,.53135-1.12384,.08674-1.55338-.4595-.44345-1.21722-.43815-1.65911,.00927-.4446,.45006-.39579,1.1695,.10439,1.56794,.36326,.28923,.42696,.52221,.25076,.97227-.25755-.05427-.52322-.09663-.77535-.17341-.08404-.02714-.16944-.13568-.19926-.22371-.15858-.48845-.58692-.81475-1.10199-.82004-.47306-.00397-.94886,.3263-1.08847,.75319-.1491,.45734,.04203,.98418,.44597,1.23106,.42967,.26541,1.0288,.21577,1.43139-.10457,.08133-.06486,.20061-.14362,.29006-.13237,.27109,.03375,.53542,.10788,.83905,.17341-.14774,.21908-.27788,.38851-.38361,.57185-.15723,.27798-.33616,.45006-.72653,.42822-.42291-.02317-.8133,.3349-.93258,.73334-.13012,.43219,.02441,.91072,.37412,1.16156,.42698,.30644,1.02611,.30776,1.4341,.00529,.3809-.2846,.51509-.84585,.32667-1.29857-.04472-.10788-.08945-.26408-.04066-.35211,.15318-.27136,.34973-.5189,.56388-.82534,.15047,.21643,.2562,.40109,.3931,.56126,.18298,.2151,.21959,.40506,.10573,.68171-.23045,.5553,.09082,1.14634,.67367,1.33629,.46223,.15024,.89055,.07611,1.22264-.26011,.3294-.33358,.40394-.74989,.21688-1.17149-.1884-.4269-.55846-.63141-1.04778-.65325-.12064-.00529-.29413,.00132-.35107-.06619-.21146-.25482-.38632-.53941-.59776-.84585,.42291-.09332,.72653-.24158,1.12235,.07148" style="fill: #d84d8e;"/>
    <path d="M70.67555,45.605c-.71706-.56523-1.55204-1.00669-2.49409-1.331-.99086,1.55338-2.11728,2.60706-3.26673,3.2848-.79431,.50698-1.72418,.93653-2.75571,1.23569-.93663,.27269-1.85837,.41101-2.72452,.43418,.69807,.49176,1.37853,1.10861,1.99933,1.83798,.69673,.81872,1.23757,1.69039,1.62118,2.5508,.79295,1.62155,1.17519,3.79112,.73737,6.62189,0,0-4.83231,.00529-7.81301-3.08095-.26026-.25217-.51646-.51691-.76043-.80416-.55981-.65723-1.01661-1.34887-1.37582-2.03985-.35786,.69098-.81601,1.38262-1.37447,2.03985-.24534,.28725-.50016,.55199-.76178,.80416-2.28399,2.36614-5.64966,2.91284-7.10002,3.03991-.62761,.75783-1.29586,1.32438-1.97765,1.72546-.65607,.41896-1.42326,.77305-2.27586,1.02059-.77127,.22503-1.53307,.33887-2.24877,.35807,.57609,.40638,1.13862,.91469,1.65098,1.5183,.57472,.6751,1.02069,1.39454,1.33786,2.10471,.6547,1.3396,.97053,3.12993,.60862,5.46563,0,0-3.98921,.00529-6.44939-2.54154-.21554-.20849-.42564-.4269-.62761-.66451-.46491-.54603-.83903-1.12053-1.13589-1.69436-.29684,.57383-.67096,1.14832-1.13453,1.69436-.20197,.23761-.41343,.45602-.62895,.66451-.32261,.3349-.67367,.62347-1.03831,.87564,1.14675,.23297,2.40463,.35211,3.78316,.35211v3.72097c-3.81704,10.01722-7.4416,17.6511-10.87642,22.89699-3.7208,5.1519-4.19928,9.8736-1.43137,14.16641,2.86279,4.00821,6.91567,6.86943,12.16413,8.58695l.28601,.14362v21.32176c0,1.12781,.08133,2.1742,.22772,3.15574,.78618-.25812,1.57913-.48978,2.38836-.63207,4.36737-.76974,8.02989,.52353,10.86829,3.7673,1.71469,1.95976,2.47239,4.26965,2.42089,6.79464v.00993c.49476-.03574,.96782-.09928,1.43681-.16414-.05828-4.1942-.11928-8.38905-.16944-12.58325-.00271-.28725-.0854-.49044-.31041-.68304-.46357-.39711-.83361-.95969-1.36903-1.19532-.52593-.23099-1.21451-.1198-1.82447-.20054-.25891-.03442-.51238-.07744-.76314-.12112-1.24299-.12178-2.4697-.35078-3.64219-.75452-1.99393-.68502-3.83332-1.90218-4.93533-3.61706-.71162-1.10597-1.09387-2.37011-1.43139-3.62434-.52456-1.94255-.96511-3.90629-1.31888-5.8826,3.93768,.75783,7.6856,2.39262,10.85472,4.73162,1.3365,.98815,2.60795,2.14839,3.23824,3.63823,.45544,1.07486,.54221,2.2298,.591,3.39666,.00407,.02449,.00949,.04765,.01355,.07214,.03119,.18135,.09624,.36733,.07591,.54471-.0637,.58177,.21417,.97756,.78213,1.31379-.00407-.27401,.00271-.51228-.0122-.74856-.06912-1.11258,.08674-2.18612,.72112-3.14316,.29821-.45139,.67638-.86174,1.05864-1.25621,.18162-.18863,.28193-.35409,.27515-.6142-.00542-.19525-.00813-.39182-.01084-.58707-.78618-1.34622-.56659-3.3265-.31041-4.73758,.5056-2.78245,2.00477-5.30281,3.06205-7.94428-.46086-.83394-.90139-1.71885-1.3094-2.69045-2.28941-6.01033-2.38565-10.73269-.28601-14.16774,.37953-.85909,1.0017-1.62089,1.85974-2.28937-7.44162-9.44538-10.97131-16.36047-10.58907-20.74992,.09353-4.57874,2.86144-8.72925,8.29964-12.45022,4.57884-2.86254,9.11023-3.52837,13.59554-2.00344,.95289,.38255,1.95325,1.00205,3.00511,1.85982,2.57541-2.57529,3.95802-6.24728,4.14915-11.01862,0-5.43849-1.52629-9.34875-4.57884-11.73475m-26.25846,66.25201c-.05558,.7618-.21825,1.50374-.50696,2.22583-.08811,.22106-.2223,.33755-.46357,.39579-1.28094,.30644-2.56187,.60891-3.88347,.57648-.16807-.00397-.33751,.00794-.50423-.01125-.46901-.05096-.93665-.13965-1.38397-.2793-.47035-.14627-.91765-.36005-1.34734-.58773-2.22707-1.1834-3.52835-3.01344-3.98108-5.43452-.1762-.94182-.3253-1.89755-.74279-2.77054-.76993-1.6103-2.01561-2.615-3.94176-2.72553-.1708-.0086-.33887-.02714-.50831-.04236-.15589-.01324-.31176-.02978-.48661-.04633,.0393-.03111,.05828-.05361,.08133-.06354,1.97494-.7115,3.97969-1.28731,6.06715-1.51102,1.26467-.13568,2.44122,.00397,3.69098,.06883,.2101,.01059,.4026,.03905,.58965,.07611,.56252,.08406,1.36903,.23033,1.62929,.30512,1.53576,.44146,1.96952,.6976,2.46563,1.02456,1.73095,1.14237,1.99257,1.31908,2.88312,3.36687,.04066,.10193,.08269,.20054,.11928,.30512,.53542,1.5044,.34024,3.52969,.22367,5.12742" style="fill: #d84d8e;"/>
    <path d="M68.14323,44.25878c-.32532-.11053-.66285-.20716-1.01256-.28989,.34971,.08273,.68858,.17936,1.01256,.28989" style="fill: #d84d8e;"/>
    <path d="M68.14323,44.25878c.01355,.00463,.02439,.00993,.03795,.01522,0-.00132,.00134-.00265,.00271-.00397-.01357-.00397-.02848-.00662-.04066-.01125" style="fill: #d84d8e;"/>
  </g>
</svg>