<svg xmlns="http://www.w3.org/2000/svg" id="_&#x5716;&#x5C64;_1" data-name="&#x5716;&#x5C64; 1" viewBox="0 0 42.76172 51.12085"><path d="M17.68848,51.12085L.84082,26.27661H9.16504l12.68555,18.68213,12.58691-18.68213h8.32422l-16.74805,24.84424h-8.3252Z" style="fill: #d84d8e;"></path><g><path d="M7.89551,11.99707v4.49121c1.32617-.23242,2.46777-.47852,3.4248-.73828l.47168,2.07129c-2.1875,.62891-4.8877,1.03223-8.10059,1.20996l-.12305-2.1123c.76562-.05469,1.50391-.10938,2.21484-.16406v-4.75781H3.69141c-.08203,1.18945-.28711,2.36523-.61523,3.52734-.28711,1.18945-.65625,2.13965-1.10742,2.85059l-1.96875-.98438c1.14844-2.00977,1.72266-4.4707,1.72266-7.38281V.88184C1.72266,.37598,1.97559,.12305,2.48145,.12305h15.89355c.5332,.01367,.7998,.27344,.7998,.7793v3.73242c0,.5332-.2666,.7998-.7998,.7998h-3.17871v1.25098h3.52734v2.03027h-3.52734v1.25098h4.18359v2.03027h-1.74316l.92285,1.68164c-.91602,.60156-1.99609,1.19629-3.24023,1.78418,1.23047,.62891,2.76855,1.12793,4.61426,1.49707l-.90234,2.03027c-.0957-.02734-.1709-.04102-.22559-.04102-4.49805-1.09375-7.6084-3.41113-9.33105-6.95215h-1.5791ZM3.75293,3.4043h13.06348c.21875,0,.32812-.10938,.32812-.32812v-.61523c0-.20508-.10938-.30762-.32812-.30762H4.08105c-.21875,0-.32812,.10938-.32812,.32812v.92285Zm3.26074,6.5625v-1.25098h-2.74805v-2.03027h2.74805v-1.25098H3.75293v4.53223h3.26074Zm6.07031-4.53223h-3.95801v1.25098h3.95801v-1.25098Zm0,4.53223v-1.25098h-3.95801v1.25098h3.95801Zm.24609,4.04004c1.61328-.71094,2.91895-1.38086,3.91699-2.00977h-5.47559c.13672,.27344,.27344,.49902,.41016,.67676,.31445,.46484,.69727,.90918,1.14844,1.33301Z" style="fill: #d84d8e;"></path><path d="M32.51367,.59473V6.5625c0,.42383-.21289,.63574-.63672,.63574h-5.59766v11.32031h-2.03125V.59473c.01367-.39648,.21289-.59473,.5957-.59473h7.05469c.41016,.01367,.61523,.21191,.61523,.59473Zm-2.03125,2.23535v-.43066c-.01367-.30078-.1709-.45117-.4707-.45117h-3.24023c-.3418,0-.50586,.16406-.49219,.49219v.38965h4.20312Zm-4.20312,1.70215v.71777h3.66992c.35547-.01367,.5332-.19141,.5332-.5332v-.18457h-4.20312Zm5.63867,9.22852c-.15039,2.21484-1.27148,3.89648-3.36328,5.04492l-1.35352-1.59961c.46484-.20508,.86914-.4375,1.21094-.69727,.92969-.64258,1.42188-1.55859,1.47656-2.74805h-2.93359v-1.94824h2.95312v-1.90723h-2.37891v-1.94824h11.25977v1.94824h-2.0918v1.90723h2.66602v1.94824h-2.66602v4.59375h-2.03125v-4.59375h-2.74805Zm2.74805-3.85547h-2.72656v1.90723h2.72656v-1.90723Zm-.16406-2.625c-.4375,0-.65625-.22559-.65625-.67676V.65625c.01367-.4375,.23242-.65625,.65625-.65625h6.93164c.45117,.01367,.67773,.23242,.67773,.65625V16.73438c0,.4375-.11035,.82715-.32812,1.16895-.21875,.3418-.52051,.60156-.90234,.7793-.79297,.38281-1.88672,.38965-3.28125,.02051l.14258-2.21484c1.02539,.30078,1.64844,.40332,1.86719,.30762,.12305-.04102,.23242-.14355,.32812-.30762,.09473-.16406,.14258-.34863,.14258-.55371V7.28027h-5.57812Zm5.57812-4.36816v-.36914c0-.39648-.20508-.59473-.61523-.59473h-3.0957c-.3418,0-.50586,.16406-.49219,.49219v.47168h4.20312Zm-4.20312,1.70215v.10254c.0127,.41016,.21094,.61523,.59375,.61523h3.60938v-.71777h-4.20312Z" style="fill: #d84d8e;"></path></g></svg>