<svg xmlns="http://www.w3.org/2000/svg" id="_&#x5716;&#x5C64;_1" data-name="&#x5716;&#x5C64; 1" viewBox="0 0 1999.99896 357.55888"><g style="opacity: .72;"><path d="M1008.914,147.369c-106.95905,18.94202-207.95203,128.80896-312.74799,92.84399-30.80499-10.57202-58.79401-33.258-86.31604-55.67499-52.74896-42.96301-105.49799-85.927-158.24695-128.89203-23.216-18.909-46.76202-38.01398-72.59204-47.81696-66.29895-25.16101-135.84094,14.36798-196.125,61.12695C127.53601,111.88896,75.45508,149.46898,15.9751,178.90898c-5.75952,2.85095-11.01245,5.52472-15.9751,8.53015v170.11975H1706.6651c-143.37445-31.28479-286.22925-68.21118-424.01917-132.02087-89.31299-41.36102-180.55396-94.66901-273.73193-78.16901Z" style="fill: #7eb854;"></path><path d="M1999.99896,357.55888V7.53801c-28.18903-8.43018-56.76074-9.53625-84.74609,1.20532-25.43005,9.76001-48.61206,28.78497-71.46899,47.61401-51.93298,42.77997-103.86597,85.55994-155.79895,128.34094-27.09607,22.32001-54.6521,44.90906-84.98108,55.43701-103.17603,35.81201-202.60596-73.58698-307.91199-92.44696-91.73596-16.43005-181.56592,36.64996-269.49695,77.83398-136.50287,63.93311-278.05371,100.76141-420.09369,132.03656H1999.99896Z" style="fill: #f6f3a9;"></path></g></svg>