<?xml version="1.0" encoding="utf-8"?>
<!-- Generator: Adobe Illustrator 16.0.0, SVG Export Plug-In . SVG Version: 6.00 Build 0)  -->
<!DOCTYPE svg PUBLIC "-//W3C//DTD SVG 1.1//EN" "http://www.w3.org/Graphics/SVG/1.1/DTD/svg11.dtd">
<svg version="1.1" id="圖層_1" xmlns="http://www.w3.org/2000/svg" xmlns:xlink="http://www.w3.org/1999/xlink" x="0px" y="0px"
	 width="115.405px" height="150.784px" viewBox="0 0 115.405 150.784" enable-background="new 0 0 115.405 150.784"
	 xml:space="preserve">
<path fill="#5E4636" d="M28.073,147.725c0,0.229-0.081,0.386-0.242,0.471c-0.029,0.014-0.061,0.025-0.1,0.036
	c-0.023,0.009-0.052,0.017-0.085,0.021c-0.024,0.005-0.048,0.007-0.071,0.007h-0.043c-0.375,0-0.563-0.178-0.563-0.534v-4.779
	h-1.418c-0.156,0-0.235-0.075-0.235-0.229c0-0.156,0.079-0.234,0.235-0.234h3.947c0.152,0,0.228,0.076,0.228,0.228
	c0,0.157-0.076,0.235-0.228,0.235h-1.425V147.725z"/>
<path fill="#5E4636" d="M33.971,144.704c0.328,0.375,0.493,0.87,0.493,1.482c0,0.622-0.17,1.121-0.506,1.496
	c-0.343,0.385-0.806,0.575-1.389,0.575c-0.589,0-1.055-0.19-1.397-0.575c-0.337-0.375-0.506-0.874-0.506-1.496
	c0-0.608,0.164-1.103,0.492-1.482c0.342-0.393,0.812-0.59,1.411-0.59C33.157,144.114,33.625,144.312,33.971,144.704 M31.984,144.854
	c-0.175,0.262-0.264,0.705-0.264,1.332s0.089,1.072,0.264,1.34c0.133,0.199,0.328,0.299,0.585,0.299
	c0.246,0,0.437-0.095,0.569-0.285c0.086-0.129,0.149-0.295,0.193-0.499c0.052-0.232,0.078-0.517,0.078-0.854
	c0-0.608-0.083-1.045-0.249-1.311c-0.138-0.214-0.335-0.32-0.591-0.32C32.312,144.556,32.117,144.654,31.984,144.854"/>
<path fill="#5E4636" d="M35.752,144.604c0-0.209,0.076-0.351,0.228-0.427c0.023-0.015,0.052-0.026,0.085-0.036
	c0.024-0.01,0.05-0.016,0.079-0.021c0.023-0.004,0.045-0.006,0.064-0.006h0.042c0.343,0,0.513,0.162,0.513,0.49v2.344
	c0,0.214,0.041,0.388,0.121,0.521c0.11,0.175,0.286,0.263,0.528,0.263c0.204,0,0.392-0.072,0.563-0.221
	c0.148-0.128,0.264-0.294,0.35-0.498v-2.408c0-0.209,0.073-0.351,0.22-0.427c0.029-0.015,0.057-0.026,0.086-0.036
	s0.057-0.016,0.085-0.021c0.019-0.004,0.041-0.006,0.064-0.006h0.043c0.337,0,0.506,0.162,0.506,0.49v3.163
	c0,0.209-0.073,0.352-0.221,0.427c-0.029,0.015-0.056,0.026-0.085,0.036c-0.029,0.01-0.057,0.017-0.086,0.021
	c-0.019,0.005-0.04,0.007-0.064,0.007h-0.043c-0.047,0-0.095-0.005-0.142-0.014c-0.062-0.015-0.117-0.036-0.164-0.064
	c-0.133-0.076-0.199-0.195-0.199-0.355v-0.199c-0.053,0.076-0.103,0.137-0.15,0.184c-0.071,0.081-0.15,0.15-0.235,0.208
	c-0.228,0.161-0.499,0.241-0.813,0.241c-0.175,0-0.334-0.021-0.476-0.064c-0.171-0.047-0.319-0.124-0.442-0.227
	c-0.143-0.114-0.252-0.266-0.328-0.457c-0.086-0.208-0.128-0.458-0.128-0.747V144.604z"/>
<path fill="#5E4636" d="M40.568,144.854c-0.052-0.104-0.079-0.184-0.079-0.235c0-0.133,0.059-0.249,0.179-0.349
	c0.118-0.105,0.254-0.156,0.406-0.156c0.104,0,0.19,0.03,0.257,0.092c0.037,0.033,0.08,0.093,0.127,0.178l1.24,2.351l1.097-2.479
	c0.024-0.053,0.06-0.091,0.107-0.113c0.029-0.02,0.061-0.028,0.1-0.028c0.156,0,0.235,0.073,0.235,0.22
	c0,0.024-0.002,0.045-0.007,0.064l-2.087,4.736c-0.043,0.096-0.114,0.144-0.214,0.144c-0.152,0-0.229-0.074-0.229-0.221
	c0-0.039,0.008-0.071,0.022-0.101l0.463-1.047L40.568,144.854z"/>
<path fill="#5E4636" d="M47.798,145.395c0-0.265-0.048-0.462-0.143-0.59c-0.113-0.162-0.304-0.243-0.57-0.243
	c-0.351,0-0.572,0.171-0.662,0.514c-0.01,0.028-0.015,0.05-0.015,0.063l-0.028,0.071c-0.019,0.057-0.045,0.103-0.078,0.136
	c-0.085,0.1-0.221,0.15-0.407,0.15c-0.336,0-0.505-0.137-0.505-0.407c0-0.209,0.135-0.412,0.406-0.612
	c0.152-0.108,0.328-0.194,0.527-0.256c0.228-0.072,0.48-0.106,0.755-0.106c0.229,0,0.435,0.021,0.621,0.063
	c0.218,0.052,0.402,0.133,0.555,0.242c0.36,0.257,0.541,0.667,0.541,1.231v1.548c0,0.046,0.004,0.101,0.014,0.162l0.015,0.107
	l0.078,0.299c0.009,0.028,0.014,0.05,0.014,0.065c0,0.107-0.057,0.208-0.171,0.298c-0.113,0.086-0.24,0.128-0.377,0.128
	c-0.233,0-0.399-0.147-0.499-0.441c-0.124,0.104-0.257,0.189-0.399,0.257c-0.124,0.057-0.254,0.1-0.392,0.129
	c-0.104,0.022-0.211,0.039-0.32,0.049c-0.043,0.005-0.086,0.007-0.128,0.007h-0.093c-0.475,0-0.829-0.12-1.061-0.363
	c-0.195-0.204-0.293-0.47-0.293-0.798c0-0.317,0.088-0.579,0.264-0.783c0.152-0.176,0.373-0.313,0.662-0.414
	c0.228-0.074,0.511-0.13,0.848-0.163c0.128-0.01,0.273-0.017,0.435-0.021c0.062-0.004,0.13-0.007,0.206-0.007
	c0.043-0.005,0.11-0.007,0.2-0.007V145.395z M47.798,146.115c-0.252,0.005-0.461,0.017-0.627,0.035
	c-0.204,0.028-0.373,0.073-0.505,0.136c-0.305,0.142-0.457,0.398-0.457,0.769c0,0.214,0.048,0.38,0.142,0.499
	c0.119,0.142,0.304,0.214,0.557,0.214l0.141-0.007c0.073-0.009,0.141-0.027,0.208-0.05c0.199-0.058,0.38-0.155,0.541-0.292V146.115z
	"/>
<path fill="#5E4636" d="M50.285,144.604c0-0.209,0.076-0.351,0.228-0.427c0.023-0.015,0.052-0.026,0.085-0.036
	c0.024-0.01,0.05-0.016,0.079-0.021c0.023-0.004,0.045-0.006,0.064-0.006h0.042c0.343,0,0.513,0.162,0.513,0.49v2.344
	c0,0.214,0.041,0.388,0.121,0.521c0.11,0.175,0.286,0.263,0.528,0.263c0.204,0,0.392-0.072,0.562-0.221
	c0.148-0.128,0.264-0.294,0.35-0.498v-2.408c0-0.209,0.073-0.351,0.22-0.427c0.029-0.015,0.057-0.026,0.086-0.036
	c0.028-0.01,0.057-0.016,0.085-0.021c0.019-0.004,0.041-0.006,0.064-0.006h0.043c0.337,0,0.506,0.162,0.506,0.49v3.163
	c0,0.209-0.073,0.352-0.221,0.427c-0.029,0.015-0.056,0.026-0.085,0.036c-0.029,0.01-0.057,0.017-0.085,0.021
	c-0.021,0.005-0.041,0.007-0.065,0.007h-0.043c-0.048,0-0.095-0.005-0.142-0.014c-0.063-0.015-0.117-0.036-0.164-0.064
	c-0.133-0.076-0.199-0.195-0.199-0.355v-0.199c-0.053,0.076-0.103,0.137-0.15,0.184c-0.071,0.081-0.15,0.15-0.235,0.208
	c-0.228,0.161-0.499,0.241-0.813,0.241c-0.175,0-0.334-0.021-0.476-0.064c-0.171-0.047-0.319-0.124-0.442-0.227
	c-0.143-0.114-0.252-0.266-0.329-0.457c-0.085-0.208-0.127-0.458-0.127-0.747V144.604z"/>
<path fill="#5E4636" d="M58.968,147.768c0,0.209-0.074,0.352-0.221,0.427c-0.028,0.016-0.057,0.026-0.085,0.036
	c-0.029,0.011-0.057,0.018-0.086,0.021c-0.019,0.005-0.04,0.007-0.064,0.007H58.47c-0.343,0-0.513-0.161-0.513-0.484v-2.344
	c0-0.223-0.043-0.4-0.129-0.534c-0.109-0.166-0.282-0.249-0.52-0.249c-0.209,0-0.399,0.076-0.57,0.229
	c-0.147,0.133-0.259,0.296-0.335,0.491v2.4c0,0.209-0.075,0.352-0.228,0.427c-0.024,0.016-0.053,0.026-0.086,0.036
	c-0.024,0.011-0.05,0.018-0.078,0.021c-0.024,0.005-0.046,0.007-0.065,0.007h-0.093c-0.022,0-0.047-0.002-0.071-0.007
	c-0.028-0.004-0.054-0.011-0.078-0.021c-0.034-0.01-0.064-0.021-0.092-0.036c-0.148-0.075-0.221-0.215-0.221-0.42v-3.17
	c0-0.209,0.076-0.351,0.228-0.427c0.023-0.015,0.051-0.026,0.085-0.036c0.024-0.009,0.05-0.016,0.078-0.021
	c0.024-0.005,0.046-0.007,0.065-0.007h0.043c0.042,0,0.09,0.004,0.142,0.014c0.062,0.014,0.119,0.035,0.171,0.063
	c0.133,0.076,0.199,0.197,0.199,0.363v0.193l0.15-0.187c0.072-0.081,0.15-0.149,0.235-0.206c0.229-0.162,0.497-0.241,0.806-0.241
	c0.17,0,0.327,0.019,0.469,0.056c0.176,0.047,0.326,0.124,0.449,0.228c0.143,0.115,0.252,0.268,0.328,0.456
	c0.086,0.21,0.128,0.461,0.128,0.755V147.768z"/>
<path fill="#5E4636" d="M67.865,146.706c0,0.086-0.033,0.203-0.101,0.35c-0.085,0.189-0.202,0.363-0.355,0.52
	c-0.195,0.204-0.427,0.363-0.698,0.478c-0.323,0.138-0.696,0.206-1.118,0.206c-0.338,0-0.648-0.045-0.933-0.135
	c-0.328-0.101-0.611-0.257-0.848-0.47c-0.271-0.233-0.478-0.532-0.62-0.898c-0.156-0.403-0.235-0.881-0.235-1.432
	c0-0.532,0.076-0.997,0.229-1.396c0.137-0.365,0.336-0.67,0.597-0.911c0.238-0.22,0.518-0.383,0.841-0.492
	c0.295-0.099,0.615-0.149,0.962-0.149s0.667,0.051,0.962,0.149c0.266,0.086,0.501,0.207,0.705,0.363
	c0.379,0.301,0.57,0.62,0.57,0.963c0,0.146-0.061,0.258-0.179,0.334c-0.101,0.066-0.214,0.1-0.343,0.1
	c-0.198,0-0.349-0.064-0.447-0.192c-0.021-0.023-0.036-0.05-0.051-0.077c-0.014-0.024-0.026-0.051-0.035-0.079
	c-0.011-0.024-0.018-0.048-0.021-0.071c-0.005-0.01-0.007-0.02-0.007-0.029l-0.007-0.028c-0.006-0.033-0.016-0.065-0.029-0.1
	c-0.014-0.048-0.03-0.092-0.05-0.135c-0.047-0.119-0.112-0.224-0.192-0.314c-0.1-0.118-0.219-0.209-0.355-0.27
	c-0.167-0.081-0.359-0.122-0.577-0.122c-0.181,0-0.336,0.024-0.463,0.072c-0.182,0.062-0.333,0.168-0.456,0.319
	c-0.152,0.182-0.269,0.429-0.35,0.742c-0.091,0.36-0.135,0.807-0.135,1.339c0,0.531,0.046,0.976,0.142,1.332
	c0.081,0.309,0.199,0.552,0.356,0.727c0.123,0.147,0.275,0.249,0.455,0.307c0.129,0.042,0.283,0.064,0.464,0.064
	c0.224,0,0.415-0.038,0.577-0.114c0.137-0.063,0.252-0.153,0.342-0.272c0.076-0.089,0.139-0.2,0.186-0.334
	c0.019-0.047,0.036-0.1,0.05-0.155l0.036-0.145c0.005-0.032,0.011-0.059,0.021-0.077c0.004-0.028,0.013-0.058,0.021-0.086
	c0.024-0.062,0.052-0.116,0.086-0.164c0.094-0.113,0.242-0.171,0.44-0.171C67.678,146.25,67.865,146.403,67.865,146.706"/>
<path fill="#5E4636" d="M72.709,147.768c0,0.209-0.076,0.352-0.228,0.427c-0.023,0.016-0.052,0.026-0.085,0.036
	c-0.029,0.011-0.058,0.018-0.086,0.021c-0.02,0.005-0.04,0.007-0.064,0.007h-0.085c-0.025,0-0.048-0.002-0.072-0.007
	c-0.027-0.004-0.056-0.011-0.085-0.021c-0.028-0.01-0.057-0.021-0.086-0.036c-0.146-0.075-0.22-0.215-0.22-0.42v-2.321
	c0-0.229-0.045-0.409-0.137-0.542c-0.108-0.161-0.279-0.242-0.513-0.242c-0.198,0-0.38,0.068-0.541,0.207
	c-0.147,0.124-0.271,0.294-0.37,0.513v2.379c0,0.209-0.073,0.352-0.221,0.427c-0.028,0.016-0.058,0.026-0.086,0.036
	c-0.027,0.011-0.057,0.018-0.086,0.021c-0.018,0.005-0.04,0.007-0.063,0.007h-0.086c-0.022,0-0.048-0.002-0.071-0.007
	c-0.028-0.004-0.057-0.011-0.085-0.021c-0.029-0.01-0.058-0.021-0.086-0.036c-0.147-0.075-0.221-0.215-0.221-0.42v-4.907
	c0-0.209,0.073-0.353,0.221-0.429c0.028-0.013,0.057-0.024,0.086-0.036c0.028-0.009,0.057-0.016,0.085-0.021
	c0.02-0.004,0.041-0.007,0.064-0.007h0.085c0.024,0,0.049,0.003,0.071,0.007c0.029,0.005,0.059,0.012,0.086,0.021
	c0.028,0.012,0.058,0.023,0.086,0.036c0.147,0.076,0.221,0.22,0.221,0.429v1.873l0.171-0.207c0.075-0.08,0.154-0.148,0.235-0.206
	c0.214-0.143,0.478-0.213,0.791-0.213c0.417,0,0.745,0.112,0.982,0.342c0.262,0.256,0.392,0.64,0.392,1.152V147.768z"/>
<path fill="#5E4636" d="M77.296,144.704c0.328,0.375,0.492,0.87,0.492,1.482c0,0.622-0.169,1.121-0.505,1.496
	c-0.343,0.385-0.806,0.575-1.389,0.575c-0.59,0-1.056-0.19-1.397-0.575c-0.337-0.375-0.506-0.874-0.506-1.496
	c0-0.608,0.164-1.103,0.492-1.482c0.342-0.393,0.812-0.59,1.411-0.59C76.482,144.114,76.95,144.312,77.296,144.704 M75.31,144.854
	c-0.176,0.262-0.265,0.705-0.265,1.332s0.089,1.072,0.265,1.34c0.133,0.199,0.327,0.299,0.585,0.299
	c0.245,0,0.436-0.095,0.568-0.285c0.086-0.129,0.149-0.295,0.192-0.499c0.053-0.232,0.079-0.517,0.079-0.854
	c0-0.608-0.083-1.045-0.249-1.311c-0.139-0.214-0.335-0.32-0.591-0.32C75.637,144.556,75.442,144.654,75.31,144.854"/>
<path fill="#5E4636" d="M80.132,142.561c0.129,0.128,0.193,0.282,0.193,0.463c0,0.176-0.064,0.327-0.193,0.456
	c-0.124,0.123-0.276,0.186-0.456,0.186c-0.175,0-0.328-0.063-0.457-0.186c-0.123-0.129-0.185-0.28-0.185-0.456
	c0-0.181,0.062-0.333,0.185-0.457c0.129-0.128,0.282-0.191,0.457-0.191C79.855,142.375,80.008,142.437,80.132,142.561
	 M80.182,147.768c0,0.209-0.074,0.352-0.221,0.427c-0.028,0.016-0.057,0.026-0.085,0.036c-0.03,0.011-0.057,0.018-0.086,0.021
	c-0.02,0.005-0.04,0.007-0.064,0.007h-0.043c-0.337,0-0.505-0.161-0.505-0.484v-3.17c0-0.209,0.073-0.351,0.22-0.427
	c0.029-0.015,0.058-0.026,0.085-0.036c0.03-0.009,0.059-0.016,0.087-0.021c0.019-0.005,0.039-0.007,0.063-0.007h0.043
	c0.337,0,0.506,0.162,0.506,0.49V147.768z"/>
<path fill="#5E4636" d="M85.36,146.955c0,0.109-0.03,0.23-0.093,0.363c-0.071,0.162-0.171,0.306-0.299,0.436
	c-0.157,0.151-0.342,0.27-0.556,0.355c-0.257,0.099-0.543,0.149-0.862,0.149c-0.665,0-1.168-0.206-1.509-0.619
	c-0.301-0.36-0.449-0.845-0.449-1.453c0-0.665,0.182-1.18,0.548-1.546c0.351-0.352,0.833-0.527,1.446-0.527
	c0.347,0,0.65,0.06,0.912,0.179c0.209,0.095,0.387,0.226,0.533,0.392c0.109,0.127,0.193,0.271,0.249,0.427
	c0.024,0.052,0.041,0.105,0.051,0.157c0.009,0.043,0.014,0.074,0.014,0.092c0,0.134-0.06,0.238-0.177,0.314
	c-0.096,0.062-0.2,0.093-0.314,0.093c-0.195,0-0.333-0.057-0.413-0.171c-0.053-0.067-0.093-0.185-0.121-0.35l-0.014-0.071
	c-0.005-0.033-0.012-0.064-0.022-0.093c-0.027-0.086-0.063-0.161-0.105-0.228c-0.138-0.195-0.345-0.292-0.62-0.292
	c-0.29,0-0.504,0.109-0.641,0.328c-0.172,0.261-0.257,0.695-0.257,1.303c0,0.632,0.09,1.078,0.271,1.339
	c0.137,0.195,0.337,0.292,0.599,0.292c0.28,0,0.488-0.104,0.626-0.313c0.053-0.075,0.093-0.165,0.121-0.271
	c0.024-0.076,0.038-0.157,0.043-0.243c0.028-0.313,0.201-0.469,0.521-0.469C85.187,146.528,85.36,146.671,85.36,146.955"/>
<path fill="#5E4636" d="M87.455,146.386c0.005,0.194,0.017,0.354,0.036,0.478c0.023,0.185,0.059,0.339,0.105,0.462
	c0.129,0.328,0.354,0.492,0.678,0.492c0.242,0,0.426-0.078,0.549-0.235c0.047-0.057,0.086-0.124,0.112-0.199l0.052-0.172
	c0.041-0.17,0.088-0.286,0.135-0.348c0.08-0.1,0.211-0.15,0.392-0.15c0.351,0,0.527,0.139,0.527,0.413
	c0,0.09-0.026,0.193-0.078,0.308c-0.063,0.142-0.153,0.268-0.272,0.377c-0.146,0.133-0.324,0.237-0.533,0.313
	c-0.241,0.089-0.522,0.136-0.841,0.136c-0.113,0-0.223-0.005-0.327-0.015c-0.138-0.014-0.267-0.041-0.385-0.078
	c-0.304-0.082-0.547-0.224-0.727-0.428c-0.186-0.214-0.321-0.482-0.406-0.805c-0.029-0.128-0.053-0.262-0.071-0.399
	c-0.009-0.114-0.014-0.228-0.014-0.342c0-0.655,0.158-1.163,0.478-1.525c0.327-0.37,0.798-0.556,1.41-0.556
	c0.395,0,0.73,0.084,1.012,0.25c0.228,0.133,0.412,0.319,0.555,0.556c0.104,0.177,0.18,0.375,0.228,0.599
	c0.02,0.077,0.034,0.149,0.044,0.221l0.007,0.135c0,0.214-0.087,0.362-0.264,0.442c-0.062,0.029-0.136,0.05-0.222,0.063
	c-0.032,0-0.069,0.003-0.105,0.008H87.455z M88.83,145.958c0.146,0,0.221-0.07,0.221-0.214c0-0.171-0.019-0.341-0.057-0.513
	c-0.101-0.45-0.341-0.676-0.72-0.676c-0.323,0-0.547,0.149-0.67,0.448c-0.048,0.123-0.086,0.276-0.113,0.456
	c-0.016,0.123-0.026,0.289-0.036,0.498H88.83z"/>
<path fill="#5E4636" d="M26.488,133.349c-0.135,0.259-0.279,0.513-0.434,0.76c-0.124,0.198-0.254,0.384-0.388,0.559l-0.14,0.202
	l-0.232,0.264c-0.083,0.083-0.176,0.124-0.28,0.124c-0.289,0-0.434-0.145-0.434-0.434c0-0.094,0.031-0.188,0.093-0.28
	c0.414-0.691,0.792-1.618,1.133-2.776c0.31-1.045,0.522-2.038,0.636-2.979h-1.024c-0.052,0-0.103-0.005-0.155-0.016
	c-0.062-0.009-0.119-0.031-0.171-0.063c-0.135-0.071-0.202-0.19-0.202-0.356c0-0.165,0.067-0.284,0.202-0.357
	c0.041-0.03,0.098-0.051,0.171-0.062c0.042-0.011,0.093-0.017,0.155-0.017h1.07v-2.14c0-0.383,0.041-0.657,0.125-0.822
	c0.145-0.269,0.434-0.404,0.868-0.404c0.435,0,0.725,0.141,0.869,0.419c0.083,0.165,0.124,0.436,0.124,0.808v2.14h0.714
	c0.052,0,0.103,0.006,0.156,0.017c0.062,0.011,0.119,0.026,0.17,0.047c0.134,0.071,0.202,0.196,0.202,0.372
	c0,0.166-0.068,0.285-0.202,0.356c-0.051,0.031-0.108,0.054-0.17,0.063c-0.053,0.011-0.104,0.016-0.156,0.016h-0.714
	c0.176,1.137,0.616,2.343,1.319,3.615l0.093,0.202c0.011,0.021,0.016,0.057,0.016,0.107c0,0.29-0.14,0.436-0.419,0.436
	c-0.135,0-0.254-0.058-0.357-0.171c-0.124-0.124-0.341-0.425-0.652-0.9v5.803c0,0.382-0.041,0.657-0.124,0.822
	c-0.144,0.279-0.439,0.42-0.884,0.42c-0.424,0-0.708-0.141-0.853-0.42c-0.084-0.165-0.125-0.44-0.125-0.822V133.349z
	 M32.043,125.575c0-0.072,0.006-0.134,0.016-0.186c0.02-0.146,0.056-0.27,0.109-0.372c0.144-0.28,0.423-0.42,0.837-0.42
	c0.424,0,0.714,0.146,0.869,0.435c0.051,0.114,0.088,0.243,0.109,0.389c0.009,0.052,0.015,0.108,0.015,0.17v6.053
	c-0.011,0.34-0.026,0.65-0.046,0.929c-0.043,0.673-0.125,1.272-0.249,1.801c-0.145,0.631-0.352,1.205-0.62,1.722
	c-0.311,0.579-0.709,1.107-1.195,1.583c-0.372,0.361-0.802,0.692-1.288,0.993c-0.414,0.247-0.682,0.372-0.807,0.372
	c-0.289,0-0.434-0.14-0.434-0.419c0-0.134,0.083-0.273,0.248-0.419c0.507-0.424,0.931-0.899,1.272-1.427
	c0.3-0.445,0.538-0.931,0.714-1.459c0.134-0.424,0.238-0.879,0.31-1.365l0.093-1.102c-0.434,0.662-0.827,1.185-1.178,1.566
	c-0.218,0.248-0.441,0.373-0.668,0.373c-0.238,0-0.445-0.104-0.621-0.311c-0.175-0.206-0.263-0.43-0.263-0.666
	c0-0.291,0.181-0.544,0.543-0.762l0.311-0.201c0.206-0.124,0.402-0.253,0.589-0.388c0.258-0.165,0.491-0.327,0.698-0.481
	c0.248-0.187,0.46-0.356,0.636-0.512v-1.737c-0.248,0.383-0.558,0.574-0.931,0.574c-0.382,0-0.693-0.45-0.931-1.351
	c-0.135-0.486-0.311-0.998-0.528-1.536c-0.051-0.125-0.077-0.238-0.077-0.342c0-0.134,0.052-0.248,0.155-0.341
	c0.093-0.063,0.187-0.094,0.28-0.094c0.093,0,0.237,0.078,0.434,0.232c0.176,0.135,0.377,0.321,0.605,0.56
	c0.476,0.485,0.807,0.89,0.993,1.21V125.575z M36.698,131.564c1.22,0.6,2.012,1.028,2.374,1.288c0.3,0.228,0.45,0.465,0.45,0.714
	c0,0.259-0.104,0.491-0.311,0.698c-0.217,0.217-0.455,0.325-0.713,0.325c-0.207,0-0.451-0.171-0.73-0.512
	c-0.289-0.351-0.646-0.751-1.07-1.195v4.764c0,0.259,0.207,0.389,0.62,0.389c0.072,0,0.125-0.011,0.156-0.032
	c0.041-0.029,0.077-0.098,0.108-0.201c0.073-0.218,0.129-0.698,0.171-1.442c0-0.052,0.005-0.099,0.015-0.141
	c0-0.052,0.005-0.099,0.016-0.14c0.02-0.103,0.051-0.191,0.093-0.264c0.124-0.186,0.357-0.279,0.698-0.279
	c0.58,0,0.869,0.238,0.869,0.714c0,0.642-0.109,1.236-0.326,1.785c-0.238,0.579-0.755,0.868-1.551,0.868H36.14
	c-0.91,0-1.365-0.394-1.365-1.18v-12.148c0-0.072,0.005-0.134,0.016-0.186c0.02-0.155,0.056-0.284,0.108-0.388
	c0.135-0.27,0.409-0.404,0.822-0.404c0.424,0,0.709,0.135,0.853,0.404c0.052,0.104,0.088,0.227,0.109,0.371
	c0.01,0.063,0.016,0.125,0.016,0.188v3.878c0.372-0.6,0.708-1.246,1.008-1.939l0.047-0.093c0.02-0.031,0.036-0.063,0.046-0.093
	c0.042-0.083,0.088-0.15,0.14-0.201c0.134-0.135,0.316-0.202,0.543-0.202c0.238,0,0.46,0.083,0.667,0.248
	c0.228,0.176,0.342,0.383,0.342,0.62c0,0.166-0.109,0.388-0.327,0.668c-0.196,0.248-0.449,0.512-0.759,0.791
	c-0.29,0.248-0.57,0.465-0.838,0.65c-0.27,0.177-0.45,0.266-0.543,0.266c-0.083,0-0.156-0.021-0.217-0.063
	c-0.042-0.02-0.078-0.051-0.109-0.093V131.564z"/>
<path fill="#5E4636" d="M55.875,136.855c0,1.159-0.62,1.737-1.862,1.737h-9.589c-0.207,0-0.398-0.021-0.574-0.063
	c-0.237-0.041-0.439-0.118-0.605-0.232c-0.455-0.29-0.682-0.771-0.682-1.442v-10.085c0-1.159,0.62-1.737,1.861-1.737h9.589
	c0.207,0,0.398,0.02,0.574,0.061c0.238,0.042,0.445,0.119,0.621,0.233c0.445,0.29,0.667,0.771,0.667,1.443V136.855z M53.828,126.398
	c0-0.342-0.171-0.513-0.512-0.513h-8.192c-0.145,0-0.27,0.063-0.372,0.187c-0.094,0.103-0.14,0.212-0.14,0.326v10.813
	c0,0.342,0.171,0.513,0.512,0.513h8.192c0.134,0,0.259-0.058,0.372-0.171c0.094-0.113,0.14-0.228,0.14-0.342V126.398z
	 M48.242,129.129v-1.009h-2.234c-0.052,0-0.104-0.005-0.155-0.016c-0.063-0.011-0.119-0.031-0.17-0.063
	c-0.135-0.072-0.202-0.19-0.202-0.356c0-0.165,0.067-0.284,0.202-0.356c0.041-0.031,0.098-0.052,0.17-0.063
	c0.051-0.01,0.103-0.016,0.155-0.016h2.234v-0.124c0-0.051,0.005-0.098,0.016-0.14c0.011-0.134,0.047-0.248,0.109-0.341
	c0.144-0.27,0.428-0.404,0.853-0.404c0.413,0,0.698,0.14,0.853,0.42c0.052,0.092,0.088,0.206,0.109,0.341
	c0.01,0.041,0.015,0.088,0.015,0.141v0.107h2.297c0.061,0,0.114,0.006,0.155,0.016c0.071,0.011,0.134,0.031,0.185,0.063
	c0.125,0.072,0.187,0.191,0.187,0.356c0,0.166-0.062,0.284-0.187,0.356c-0.051,0.031-0.108,0.052-0.17,0.063
	c-0.041,0.011-0.093,0.016-0.154,0.016h-2.313v1.009h2.887c0.062,0,0.113,0.005,0.154,0.016c0.072,0.01,0.134,0.03,0.188,0.062
	c0.124,0.073,0.186,0.192,0.186,0.357s-0.062,0.278-0.186,0.342c-0.053,0.031-0.109,0.052-0.171,0.061
	c-0.042,0.011-0.093,0.017-0.155,0.017h-7.727c-0.052,0-0.104-0.006-0.155-0.017c-0.063-0.009-0.12-0.029-0.171-0.061
	c-0.134-0.073-0.201-0.193-0.201-0.357c0-0.166,0.067-0.284,0.201-0.356c0.042-0.021,0.098-0.037,0.171-0.047
	c0.04-0.011,0.093-0.016,0.155-0.016H48.242z M48.227,134.792c-0.321,0.33-0.667,0.643-1.04,0.931
	c-0.3,0.238-0.605,0.45-0.915,0.636c-0.248,0.156-0.476,0.279-0.683,0.373c-0.176,0.083-0.284,0.124-0.326,0.124
	c-0.279,0-0.418-0.145-0.418-0.436c0-0.165,0.093-0.309,0.279-0.434c0.91-0.63,1.603-1.412,2.079-2.343H46.97
	c-0.093,0-0.181-0.005-0.264-0.016c-0.197-0.021-0.367-0.066-0.512-0.14c-0.383-0.165-0.574-0.506-0.574-1.024v-0.714
	c0-0.786,0.455-1.178,1.365-1.178h4.484c0.404,0,0.719,0.083,0.947,0.248c0.279,0.196,0.418,0.507,0.418,0.93v0.714
	c0,0.786-0.455,1.18-1.365,1.18h-0.558l0.015,0.03c0.011,0.012,0.016,0.021,0.016,0.032c0.01,0.03,0.026,0.057,0.047,0.077
	c0.031,0.072,0.067,0.14,0.108,0.202c0.103,0.176,0.227,0.356,0.372,0.542c0.125-0.123,0.317-0.341,0.574-0.651l0.233-0.232
	c0.094-0.072,0.202-0.108,0.326-0.108c0.507,0,0.76,0.248,0.76,0.745c0,0.155-0.062,0.294-0.186,0.419
	c-0.165,0.134-0.496,0.32-0.993,0.558l0.171,0.156c0.073,0.063,0.15,0.119,0.233,0.17c0.206,0.165,0.444,0.326,0.713,0.481
	c0.187,0.093,0.28,0.228,0.28,0.402c0,0.29-0.146,0.436-0.434,0.436c-0.053,0-0.177-0.041-0.373-0.124
	c-0.238-0.104-0.487-0.239-0.745-0.404c-0.32-0.186-0.626-0.397-0.915-0.636c-0.352-0.279-0.657-0.579-0.916-0.899v1.645
	c0,0.051-0.005,0.098-0.015,0.139c-0.021,0.135-0.057,0.249-0.109,0.342c-0.155,0.27-0.449,0.403-0.884,0.403
	c-0.414,0-0.694-0.139-0.838-0.418c-0.052-0.094-0.088-0.202-0.109-0.327c-0.01-0.051-0.015-0.103-0.015-0.155V134.792z
	 M50.911,131.828c0-0.259-0.129-0.388-0.388-0.388h-2.576c-0.258,0-0.387,0.129-0.387,0.388v0.558c0,0.261,0.129,0.389,0.387,0.389
	h2.576c0.259,0,0.388-0.128,0.388-0.389V131.828z"/>
<path fill="#5E4636" d="M63.665,127.562c0.176,0,0.32,0.011,0.434,0.031c0.187,0.031,0.342,0.082,0.466,0.154
	c0.33,0.207,0.497,0.585,0.497,1.134c0,2.047-0.424,3.945-1.273,5.694c0.362,0.165,0.704,0.336,1.024,0.512l0.497,0.294
	c0.413,0.259,0.621,0.538,0.621,0.837c0,0.271-0.1,0.524-0.295,0.763c-0.218,0.259-0.477,0.387-0.776,0.387
	c-0.258,0-0.518-0.113-0.776-0.341l-0.683-0.59c-0.124-0.104-0.289-0.233-0.497-0.388c-0.33,0.455-0.687,0.883-1.07,1.288
	c-0.341,0.341-0.682,0.656-1.023,0.945c-0.651,0.529-1.08,0.792-1.287,0.792c-0.279,0-0.419-0.146-0.419-0.435
	c0-0.145,0.056-0.264,0.17-0.357c0.249-0.216,0.435-0.387,0.56-0.511c0.195-0.197,0.377-0.394,0.543-0.591
	c0.402-0.485,0.816-1.143,1.24-1.97c-0.6-0.332-1.152-0.61-1.66-0.838c-0.539-0.249-0.807-0.59-0.807-1.025
	c0-0.122,0.072-0.428,0.217-0.915c0.094-0.319,0.191-0.719,0.295-1.193c0.084-0.383,0.161-0.813,0.233-1.288
	c0.062-0.342,0.118-0.688,0.171-1.04l0.062-0.496h-0.544c-0.051,0-0.104-0.005-0.153-0.016c-0.063-0.011-0.12-0.031-0.173-0.063
	c-0.133-0.072-0.2-0.19-0.2-0.356c0-0.165,0.067-0.284,0.2-0.356c0.041-0.021,0.099-0.036,0.173-0.047
	c0.04-0.01,0.093-0.016,0.153-0.016h0.638c0.01-0.041,0.015-0.108,0.015-0.202l0.188-1.815c0.02-0.217,0.035-0.341,0.046-0.372
	c0.082-0.248,0.237-0.424,0.465-0.526c0.083-0.032,0.176-0.059,0.28-0.078c0.062-0.012,0.133-0.017,0.217-0.017l0.264,0.017
	c0.063,0.02,0.124,0.036,0.187,0.046c0.071,0.021,0.139,0.047,0.2,0.078c0.353,0.155,0.528,0.419,0.528,0.792
	c0,0.082-0.011,0.217-0.031,0.401l-0.263,1.677H63.665z M62.176,128.415c0,0.011-0.006,0.031-0.017,0.063
	c0,0.03-0.005,0.057-0.016,0.076l-0.17,0.915c-0.073,0.395-0.151,0.757-0.233,1.087c-0.186,0.827-0.409,1.65-0.667,2.468
	c-0.052,0.176-0.078,0.295-0.078,0.356c0,0.051,0.011,0.092,0.031,0.124c0.032,0.052,0.083,0.093,0.156,0.124l0.185,0.063
	c0.083,0.03,0.188,0.063,0.312,0.093l0.48,0.14c0.61-1.676,0.915-3.383,0.915-5.121c0-0.165-0.051-0.277-0.154-0.34
	c-0.042-0.021-0.089-0.036-0.141-0.047H62.176z M68.475,129.532c0-0.176,0.005-0.311,0.015-0.403
	c0.021-0.166,0.063-0.311,0.125-0.435c0.155-0.3,0.465-0.449,0.931-0.449c0.063,0,0.118,0.004,0.172,0.015l0.123,0.016
	c0.259-0.476,0.471-0.916,0.636-1.319c0.135-0.341,0.202-0.568,0.202-0.682c0-0.114-0.042-0.192-0.124-0.233l-0.124-0.032h-4.531
	c-0.052,0-0.103-0.005-0.155-0.015c-0.062-0.01-0.119-0.031-0.17-0.063c-0.135-0.071-0.202-0.19-0.202-0.356
	s0.067-0.285,0.202-0.357c0.04-0.03,0.099-0.051,0.17-0.062c0.053-0.01,0.104-0.016,0.155-0.016h6.517
	c0.238,0,0.44,0.042,0.605,0.124c0.134,0.063,0.243,0.15,0.326,0.265l0.062,0.155c0.021,0.041,0.036,0.082,0.047,0.123
	s0.017,0.077,0.017,0.109v0.046c0,0.291-0.327,0.813-0.979,1.567c-0.581,0.662-1.216,1.293-1.908,1.893v1.77h2.403
	c0.054,0,0.104,0.005,0.156,0.016c0.062,0.01,0.119,0.031,0.171,0.063c0.134,0.071,0.201,0.19,0.201,0.355
	c0,0.166-0.062,0.28-0.186,0.342c-0.052,0.031-0.113,0.052-0.187,0.063c-0.042,0.01-0.093,0.015-0.156,0.015h-2.403v5.4
	c0,0.993-0.537,1.489-1.614,1.489h-2.42c-0.052,0-0.104-0.006-0.155-0.017c-0.063-0.01-0.119-0.03-0.171-0.061
	c-0.134-0.073-0.202-0.191-0.202-0.357c0-0.165,0.068-0.284,0.202-0.356c0.041-0.021,0.098-0.036,0.171-0.047
	c0.041-0.011,0.093-0.016,0.155-0.016h1.489c0.289,0,0.435-0.144,0.435-0.435v-5.602h-2.871c-0.051,0-0.103-0.005-0.155-0.015
	c-0.062-0.011-0.119-0.026-0.17-0.046c-0.062-0.032-0.108-0.073-0.14-0.124c-0.041-0.063-0.063-0.142-0.063-0.234
	c0-0.165,0.067-0.284,0.202-0.355c0.041-0.031,0.099-0.053,0.17-0.063c0.041-0.011,0.094-0.016,0.155-0.016h2.871V129.532z"/>
<path fill="#5E4636" d="M77.023,132.107c0-0.444,0.119-0.797,0.357-1.056c0.269-0.289,0.688-0.434,1.256-0.434h10.938
	c0.053,0,0.104,0.005,0.155,0.015c0.063,0.011,0.12,0.031,0.171,0.063c0.134,0.072,0.202,0.191,0.202,0.356
	c0,0.176-0.068,0.3-0.202,0.373c-0.051,0.021-0.107,0.037-0.171,0.046c-0.051,0.012-0.103,0.017-0.155,0.017H79.429
	c-0.301,0-0.45,0.149-0.45,0.449v1.677l-0.015,0.171h11.077c0.052,0,0.104,0.005,0.155,0.015c0.063,0.01,0.119,0.031,0.171,0.063
	c0.134,0.071,0.201,0.19,0.201,0.355c0,0.176-0.067,0.301-0.201,0.373c-0.052,0.021-0.108,0.037-0.171,0.047
	c-0.052,0.011-0.104,0.016-0.155,0.016H85.93c0.154,0.526,0.419,1.046,0.791,1.551c0.249-0.155,0.491-0.335,0.729-0.542
	c0.095-0.073,0.202-0.165,0.327-0.28l0.387-0.372l0.202-0.154c0.124-0.063,0.27-0.095,0.435-0.095c0.631,0,0.947,0.281,0.947,0.838
	c0,0.271-0.229,0.519-0.683,0.745l-0.202,0.093c-0.104,0.054-0.218,0.1-0.342,0.141c-0.32,0.135-0.667,0.259-1.039,0.373
	c0.413,0.3,0.838,0.542,1.273,0.728c0.185,0.083,0.406,0.166,0.666,0.249c0.154,0.063,0.418,0.15,0.791,0.265
	c0.207,0.071,0.311,0.205,0.311,0.402c0,0.289-0.139,0.435-0.419,0.435c-0.052,0-0.176-0.016-0.373-0.046
	c-0.248-0.042-0.517-0.1-0.806-0.172c-0.373-0.093-0.741-0.2-1.103-0.324c-0.444-0.146-0.863-0.316-1.257-0.514
	c-0.517-0.248-0.977-0.553-1.381-0.915c-0.341-0.3-0.636-0.636-0.884-1.009c-0.187-0.268-0.348-0.552-0.481-0.853
	c-0.052-0.114-0.093-0.223-0.124-0.326c-0.021-0.041-0.036-0.082-0.047-0.124l-0.03-0.093h-1.18v2.561l0.869-0.078l1.334-0.155
	c0.29,0,0.435,0.145,0.435,0.435c0,0.165-0.066,0.279-0.202,0.341c-0.093,0.052-0.435,0.156-1.024,0.312
	c-2.636,0.682-4.323,1.023-5.058,1.023c-0.32,0-0.543-0.125-0.667-0.373c-0.042-0.082-0.072-0.176-0.093-0.278
	c-0.011-0.043-0.016-0.078-0.016-0.109v-0.077c0-0.466,0.201-0.725,0.604-0.776c0.053-0.01,0.166-0.021,0.343-0.03l1.473-0.063
	v-2.73H78.87c-0.042,0.3-0.088,0.569-0.14,0.807c-0.062,0.3-0.146,0.584-0.248,0.854c-0.238,0.66-0.585,1.281-1.04,1.86l-0.45,0.512
	c-0.207,0.219-0.372,0.331-0.496,0.342c-0.29,0-0.435-0.146-0.435-0.435c0-0.021,0.016-0.072,0.047-0.154
	c0.02-0.063,0.056-0.15,0.108-0.265l0.186-0.419c0.146-0.382,0.271-0.801,0.373-1.256c0.072-0.383,0.129-0.792,0.17-1.226
	c0.041-0.343,0.067-0.72,0.078-1.134V132.107z M84.13,125.576v-0.109c0-0.063,0.005-0.114,0.016-0.155
	c0.021-0.135,0.057-0.254,0.109-0.356c0.153-0.279,0.443-0.42,0.867-0.42c0.414,0,0.698,0.141,0.854,0.42
	c0.052,0.103,0.089,0.222,0.108,0.356c0.011,0.041,0.017,0.093,0.017,0.155v0.109h2.095c0.91,0,1.365,0.393,1.365,1.179v2.094
	c0,0.426-0.14,0.735-0.419,0.932c-0.228,0.166-0.543,0.248-0.946,0.248h-9.667c-0.92,0-1.381-0.394-1.381-1.18v-2.094
	c0-0.424,0.145-0.735,0.434-0.931c0.229-0.166,0.544-0.248,0.947-0.248h2.143v-0.125c0-0.063,0.005-0.113,0.015-0.155
	c0.02-0.134,0.056-0.253,0.108-0.356c0.145-0.27,0.429-0.404,0.854-0.404c0.413,0,0.687,0.125,0.822,0.373
	c0.052,0.093,0.082,0.207,0.093,0.341c0.01,0.052,0.015,0.109,0.015,0.171v0.156H84.13z M80.671,127.375v-0.946h-1.195
	c-0.27,0-0.404,0.141-0.404,0.419v0.527H80.671z M79.071,128.213v0.543c0,0.28,0.135,0.419,0.404,0.419h1.195v-0.962H79.071z
	 M79.94,133.022c-0.063,0-0.114-0.005-0.155-0.016c-0.072-0.01-0.129-0.03-0.171-0.062c-0.134-0.063-0.201-0.177-0.201-0.341
	c0-0.176,0.067-0.301,0.201-0.372c0.052-0.021,0.109-0.036,0.171-0.048c0.053-0.01,0.104-0.016,0.155-0.016h8.13
	c0.052,0,0.104,0.006,0.156,0.016c0.062,0.012,0.118,0.026,0.171,0.048c0.061,0.03,0.107,0.071,0.139,0.124
	c0.041,0.062,0.063,0.14,0.063,0.231c0,0.176-0.068,0.301-0.201,0.373c-0.053,0.021-0.109,0.036-0.171,0.046
	c-0.053,0.011-0.104,0.016-0.156,0.016H79.94z M84.13,126.429h-1.553v0.946h1.553V126.429z M82.577,129.175h1.553v-0.962h-1.553
	V129.175z M87.667,127.375v-0.527c0-0.278-0.14-0.419-0.419-0.419h-1.147v0.946H87.667z M86.101,128.213v0.962h1.147
	c0.279,0,0.419-0.139,0.419-0.419v-0.543H86.101z"/>
<g opacity="0.6">
	<g>
		<defs>
			<rect id="SVGID_1_" x="1.597" y="2.213" width="111.953" height="111.026"/>
		</defs>
		<clipPath id="SVGID_2_">
			<use xlink:href="#SVGID_1_"  overflow="visible"/>
		</clipPath>
		<g clip-path="url(#SVGID_2_)">
			<defs>
				<rect id="SVGID_3_" x="1.597" y="2.214" width="111.954" height="111.024"/>
			</defs>
			<clipPath id="SVGID_4_">
				<use xlink:href="#SVGID_3_"  overflow="visible"/>
			</clipPath>
			<path clip-path="url(#SVGID_4_)" fill="#FFFFFF" d="M41.098,39.895c-3.714-1.263-7.465-0.711-11.257,1.659
				c-4.502,3.08-6.795,6.517-6.873,10.308c-0.316,3.635,2.607,9.361,8.769,17.181c-0.711,0.555-1.226,1.186-1.54,1.896
				c-1.739,2.844-1.659,6.754,0.236,11.73c1.659,3.95,3.831,6.517,6.517,7.701v11.968c0,2.921-0.633,5.253-1.895,6.99
				c-2.213,2.607-5.569,3.911-10.072,3.911c-4.425,0-7.702-1.304-9.835-3.911c-1.184-1.737-1.778-4.069-1.778-6.99V84.684
				l-0.235-0.118c-4.346-1.422-7.702-3.792-10.072-7.11C0.77,73.9,1.166,69.991,4.248,65.726c2.843-4.344,5.844-10.664,9.004-18.958
				v-3.081c-2.923,0-5.213-0.631-6.871-1.896c-2.53-1.973-3.792-5.214-3.792-9.716c0.077-4.581,1.342-7.741,3.792-9.479
				c1.579-1.185,3.909-1.776,6.989-1.776v-7.11c0-3.001,0.594-5.37,1.778-7.108c2.211-2.607,5.569-3.91,10.072-3.91
				c4.423,0,7.702,1.303,9.835,3.91c1.262,1.817,1.895,4.188,1.895,7.108v7.229c2.685-0.078,4.779,0.474,6.281,1.658
				c2.526,1.977,3.791,5.214,3.791,9.717c-0.159,3.951-1.304,6.99-3.437,9.124C42.716,40.725,41.886,40.211,41.098,39.895
				 M26.524,52.1c0.236-2.923,1.896-5.451,4.976-7.584c3.001-1.974,5.726-2.37,8.175-1.186c1.5,0.634,2.963,1.938,4.385,3.911
				c4.343,6.557,6.517,10.822,6.517,12.796c-0.237,2.924-1.896,5.451-4.977,7.583c-3.081,1.819-5.806,2.213-8.176,1.186
				c-1.817-0.789-4.858-4.502-9.123-11.139C27.036,55.694,26.444,53.836,26.524,52.1 M36.003,72.123
				c3.711,1.344,7.464,0.791,11.256-1.658c4.107-2.765,6.398-6.2,6.872-10.309c0.158-1.896-0.277-3.831-1.303-5.806V53.64
				c1.659,0,3.238-0.276,4.74-0.83c4.422-1.658,7.346-4.385,8.767-8.176c0.632-2.211,0.435-4.777-0.592-7.701
				c-1.895-5.055-3.714-9.873-5.451-14.455c-1.343-4.898-3.832-7.742-7.464-8.531v-1.659c0-2.844,0.593-5.017,1.777-6.518
				c1.974-2.369,4.977-3.555,9.005-3.555c4.344,0,7.347,1.186,9.005,3.555c1.104,1.658,1.659,3.833,1.659,6.518v47.396
				c0.158,10.27-1.343,20.973-4.502,32.109c-4.029,12.166-7.702,18.958-11.021,20.38c-2.765,1.264-6.161,0.948-10.189-0.946
				c-4.029-2.213-6.322-4.781-6.873-7.702c-0.16-1.975,1.461-6.399,4.858-13.271c0-0.078,0.039-0.119,0.119-0.119l11.966-5.094
				l-1.422-3.081l-11.966,4.977c-2.213,0.871-4.147,1.066-5.806,0.593c-1.502-0.396-2.767-1.186-3.792-2.37
				c-2.055-2.447-3.199-5.213-3.437-8.294c-0.159-2.448,0.593-4.266,2.251-5.451C34.935,71.649,35.449,71.886,36.003,72.123
				 M45.956,44.042c4.106-4.74,5.213-11.02,3.317-18.84c-1.422-3.633-3.436-5.806-6.042-6.517c0.631-0.475,1.421-0.869,2.369-1.186
				c3.001-1.025,5.608-0.829,7.821,0.593c1.341,0.869,2.408,2.409,3.199,4.62c2.132,4.978,4.067,10.113,5.806,15.404
				c0.788,2.213,0.948,4.069,0.475,5.569c-1.108,2.765-3.2,4.738-6.28,5.924c-2.213,0.634-4.425,0.672-6.636,0.119
				C47.377,46.018,46.034,44.122,45.956,44.042 M91.574,29.941l3.317-3.91c1.658-2.053,3.437-3.238,5.332-3.554
				c2.765-0.553,5.688,0.396,8.769,2.843c3.001,2.606,4.461,5.332,4.383,8.176c-0.158,1.818-1.065,3.714-2.725,5.688L99.395,52.454
				v3.437l3.436,2.015v-0.119l4.739,2.251c2.133,1.108,3.555,2.489,4.266,4.148c1.026,3.003,0.671,6.161-1.065,9.479
				c-2.134,3.24-4.426,4.977-6.873,5.213c-1.344,0-2.844-0.354-4.502-1.065v2.487c-1.581,0.159-2.962,0.752-4.147,1.778
				c-1.818,1.501-3.199,3.831-4.146,6.99l-0.948,3.081l2.962,1.185l1.185-3.317c0.789-2.37,1.816-4.067,3.081-5.095
				c2.053-1.658,4.977-1.974,8.769-0.947c3.632,1.026,5.964,2.843,6.991,5.448c0.552,1.502,0.552,3.556,0,6.162l-1.423,6.754
				c-0.474,2.057-1.066,3.712-1.776,4.978c-0.397,0.474-0.712,0.948-0.948,1.421c-2.055,2.054-5.806,3.199-11.257,3.436h-11.02
				c-3.872-0.396-6.397-1.817-7.584-4.265c-0.869-1.659-1.265-3.199-1.185-4.621V12.76c0-2.843,0.593-5.016,1.778-6.517
				c1.973-2.369,4.976-3.554,9.005-3.554c4.344,0,7.347,1.185,9.005,3.554c1.104,1.659,1.659,3.833,1.659,6.517v6.28
				c-2.529,0.554-4.899,2.133-7.109,4.74l-3.318,3.91L91.574,29.941z"/>
		</g>
	</g>
</g>
<path fill="#D84D8E" d="M49.273,25.202c1.896,7.819,0.789,14.1-3.317,18.84c0.078,0.08,1.421,1.975,4.028,5.687
	c2.211,0.555,4.423,0.516,6.636-0.118c3.08-1.186,5.172-3.158,6.28-5.925c0.474-1.5,0.313-3.355-0.475-5.568
	c-1.738-5.291-3.674-10.428-5.806-15.404c-0.792-2.21-1.858-3.75-3.199-4.62c-2.213-1.422-4.82-1.619-7.821-0.593
	c-0.948,0.317-1.738,0.711-2.37,1.185C45.837,19.396,47.851,21.569,49.273,25.202"/>
<path fill="#D84D8E" d="M97.128,71.305c-0.455-1.082-0.688-2.255-1.027-3.386c-0.044-0.146-0.102-0.308-0.21-0.403
	c-0.062-0.054-0.237,0.01-0.659,0.047c0.07,0.229,0.164,0.433,0.196,0.647c0.356,2.326,1.313,4.392,2.813,6.211
	c0.719,0.872,1.571,1.611,2.676,2.036c0.751,0.288,1.522,0.351,2.283-0.026c0.131-0.065,0.182-0.284,0.27-0.431
	c-0.145-0.05-0.323-0.182-0.429-0.138c-1.157,0.472-2.052-0.014-2.904-0.623C98.721,74.226,97.776,72.846,97.128,71.305"/>
<path fill="#D84D8E" d="M95.678,62.913c0.357,0.743,0.636,1.535,1.091,2.217c0.683,1.022,1.656,1.736,2.999,1.826
	c0.405,0.026,0.823-0.079,1.237-0.124c0.011-0.069,0.021-0.139,0.032-0.209c-2.489-0.349-3.748-2.189-5.221-3.77
	C95.771,62.873,95.725,62.894,95.678,62.913"/>
<path fill="#D84D8E" d="M80.534,75.953c0.072-0.122,0.116-0.164,0.119-0.211c0.01-0.116,0.005-0.235,0-0.354
	c-0.14-3.339,0.542-6.532,2.032-9.591c0.179-0.366,0.251-0.793,0.295-1.198c0.368-3.352,1.215-6.597,2.573-9.727
	c1.623-3.747,3.851-7.141,6.763-10.135c-4.087,5.271-6.736,11.069-7.578,17.547c3.259-4.072,7.378-6.999,12.317-8.894
	c-0.316,0.288-0.678,0.52-1.033,0.758c-5.668,3.799-9.707,8.693-11.403,15.147c-0.126,0.478-0.183,1.002-0.123,1.486
	c0.82,6.641,3.123,12.421,6.917,17.328c0.93-2.675,2.206-4.689,3.834-6.035c1.186-1.024,2.565-1.617,4.147-1.777v-2.488
	c1.659,0.711,3.157,1.067,4.502,1.067c2.448-0.238,4.739-1.975,6.874-5.214c1.735-3.318,2.091-6.477,1.064-9.479
	c-0.711-1.658-2.132-3.04-4.266-4.146l-4.739-2.253v0.119l-3.436-2.015v-3.437l11.257-13.27c1.659-1.974,2.564-3.869,2.725-5.688
	c0.003-0.14-0.013-0.277-0.018-0.417c-0.217,0.422-0.417,0.881-0.763,1.035c-0.842,0.379-1.818,0.598-2.743,0.626
	c-0.487,0.017-0.984-0.508-1.477-0.789c0.34-0.452,0.584-1.034,1.035-1.332c1.05-0.692,2.278-0.647,3.487-0.504
	c0.146,0.14,0.293,0.278,0.438,0.417c-0.241-2.497-1.685-4.899-4.346-7.211c-3.08-2.447-6.003-3.396-8.768-2.844
	c-1.361,0.227-2.66,0.91-3.9,2.033c-0.136,0.8-0.401,1.583-0.806,2.339c-0.833,1.554-2.052,2.657-3.824,2.997
	c-0.015,0.002-0.029,0.004-0.043,0.006l-0.076,0.089l-0.079-0.067c-1.427,0.222-2.684-0.147-3.727-1.104
	c-0.702-0.643-1.186-1.446-1.559-2.318c-0.318-0.744-0.533-1.523-0.6-2.346c-0.063-0.767,0.028-1.521,0.278-2.267
	c0.105-0.318-0.054-0.616-0.349-0.694s-0.596,0.085-0.703,0.392c-0.354,1.013-0.438,2.039-0.305,3.071
	c0.119,0.932,0.396,1.809,0.797,2.642c0.651,1.353,1.548,2.491,2.88,3.246c0.067,0.038,0.143,0.143,0.13,0.205
	c-0.012,0.065-0.114,0.146-0.192,0.174c-0.733,0.258-1.481,0.349-2.235,0.261c-2.04-0.239-3.594-1.221-4.648-2.915
	c-0.882-1.413-1.189-3.008-1.117-4.697c0.06-1.403,0.482-2.707,1.387-3.853c0.997-1.266,2.279-2.006,3.865-2.183
	c0.179-0.019,0.285,0.033,0.329,0.211c0.057,0.233,0.13,0.462,0.196,0.691c0.078,0.263,0.291,0.417,0.563,0.407
	c0.224-0.008,0.469-0.179,0.504-0.405c0.021-0.142-0.028-0.304-0.085-0.438c-0.688-1.628-1.893-2.609-3.713-2.815
	c-0.241-0.027-0.408-0.187-0.459-0.418c-0.061-0.274,0.083-0.467,0.29-0.634c0.091-0.025,0.182-0.052,0.272-0.077
	c0.017,0.005,0.032,0.015,0.051,0.016c1.387,0.121,2.537,0.69,3.473,1.663c0.028,0.029,0.061,0.052,0.105,0.09
	c0.009-0.064,0.014-0.104,0.018-0.145c0.157-1.491,1.178-2.688,2.646-3.1c0.68-0.189,1.357-0.38,2.036-0.569
	c0.444-0.124,0.751,0.097,0.757,0.545c0.022,1.502-1.083,2.958-2.565,3.378c-0.712,0.201-1.425,0.398-2.139,0.599
	c-0.06,0.018-0.118,0.033-0.196,0.056c0.054,0.092,0.104,0.154,0.13,0.228c0.055,0.146,0.129,0.138,0.264,0.071
	c0.592-0.291,1.207-0.497,1.852-0.61c1.467-0.257,2.785,0.039,3.886,0.945c1.114,0.916,1.872,2.043,2.325,3.334
	c1.118-0.713,2.27-1.208,3.458-1.468v-6.28c0-2.686-0.554-4.858-1.66-6.518c-1.657-2.369-4.661-3.555-9.005-3.555
	c-4.028,0-7.031,1.186-9.005,3.555c-1.185,1.501-1.777,3.674-1.777,6.518v37.951c1.095-3.026,2.6-5.967,4.528-8.743
	c1.05-1.512,2.246-2.935,3.373-4.398c0.759-0.716,1.517-1.432,2.274-2.148c-0.376,0.507-0.739,1.021-1.128,1.52
	c-5.512,7.063-8.522,14.481-9.048,22.254v4.957c0.238,3.61,0.989,7.292,2.259,11.048C80.287,75.44,80.408,75.668,80.534,75.953
	 M93.351,50.771c-0.524,0.645-1.141,1.268-1.842,1.726c-0.938,0.611-1.967,0.584-2.33,0.123c-0.374-0.475-0.069-1.307,0.694-2.265
	c0.783-0.345,1.542-0.758,2.355-1c0.339-0.101,0.951,0.047,1.146,0.293C93.567,49.893,93.556,50.519,93.351,50.771 M95.044,47.643
	c-0.752,0.338-1.48,0.754-2.267,0.979c-0.369,0.105-1.067-0.035-1.22-0.286c-0.191-0.313-0.144-0.979,0.1-1.273
	c0.507-0.615,1.153-1.173,1.848-1.592c0.676-0.408,1.514-0.732,2.224-0.055C96.166,45.835,95.808,46.736,95.044,47.643
	 M100.601,65.628c1.169,0.671,2.084,1.559,2.773,2.647c1.109,1.748,1.852,3.646,1.92,5.742c0.021,0.631-0.051,1.292-0.223,1.907
	c-0.51,1.817-2.138,2.73-3.963,2.136c-0.911-0.296-1.831-0.76-2.532-1.373c-3.094-2.696-4.776-6.142-5.125-10.163
	c-0.09-1.041,0.253-2.136,0.449-3.199c0.057-0.313,0.257-0.621,0.447-0.898c0.572-0.843,1.129-0.916,1.87-0.248
	c0.397,0.356,0.759,0.752,1.137,1.131c-0.03,0.041-0.061,0.082-0.09,0.123C98.373,64.17,99.443,64.966,100.601,65.628
	 M101.458,44.461c-0.669,0.941-1.656,1.497-2.802,1.625c-0.539,0.06-1.37-0.097-1.603-0.442c-0.221-0.324,0.175-1.028,0.241-1.316
	c1.165-0.923,2.141-1.442,3.326-1.417C101.694,42.934,102.06,43.612,101.458,44.461 M109.838,35.722
	c0.907,0.261,1.029,0.995,0.214,1.764c-1.069,0.712-2.381,1.1-3.822,0.672c-0.904-0.268-1.064-1.032-0.329-1.628
	C107.052,35.6,108.403,35.306,109.838,35.722 M102.204,35.942c0.148-1.175,1.869-2.774,3.124-2.906
	c0.798-0.083,1.297,0.381,1.051,1.12c-0.209,0.629-0.626,1.2-0.987,1.865c-0.717,0.326-1.381,0.737-2.106,0.93
	C102.537,37.149,102.112,36.677,102.204,35.942 M102.786,37.992c0.437-0.12,1.26-0.026,1.401,0.229
	c0.198,0.36,0.086,1.067-0.187,1.432c-0.417,0.563-1.033,1.037-1.655,1.412c-0.978,0.588-1.951,0.578-2.331,0.113
	c-0.388-0.473-0.085-1.299,0.697-2.219C101.4,38.626,102.06,38.193,102.786,37.992 M97.071,37.921
	c0.199-0.662,0.622-1.267,0.971-1.942c0.712-0.337,1.346-0.744,2.04-0.936c0.793-0.22,1.239,0.265,1.124,1.049
	c-0.174,1.176-1.799,2.727-3.031,2.894C97.355,39.097,96.845,38.674,97.071,37.921 M97.984,40.253
	c0.746-0.167,1.149,0.359,0.999,1.083c-0.239,1.167-2.08,2.638-3.344,2.675c-0.825,0.022-1.247-0.438-0.96-1.188
	c0.206-0.542,0.602-1.021,1.009-1.686C96.398,40.853,97.165,40.436,97.984,40.253 M93.728,37.824
	c0.536-0.128,1.135-0.459,1.597-0.341c0.717,0.186,0.649,0.921,0.547,1.511c-0.185,1.088-0.677,2.052-1.646,2.704
	c-0.292,0.197-0.847,0.345-1.1,0.211c-0.303-0.158-0.555-0.632-0.578-0.986C92.479,39.806,93.017,38.865,93.728,37.824
	 M89.688,41.59c0.238-0.067,0.734-0.367,1.064-0.253c0.338,0.117,0.672,0.615,0.731,0.989c0.196,1.259-0.196,2.416-1.142,3.348
	c-0.737,0.728-1.573,0.496-1.778-0.479C88.297,43.931,88.736,42.809,89.688,41.59 M85.958,45.184
	c0.446-0.462,0.922-0.468,1.385-0.054c0.918,0.822,1.023,3.273,0.189,4.245c-0.439,0.512-0.92,0.576-1.223,0.311
	C85.15,48.637,85.065,46.109,85.958,45.184 M83.785,49.415c0.476-0.435,0.962-0.386,1.427,0.144
	c0.804,0.915,0.898,3.054,0.165,4.031c-0.353,0.472-0.79,0.683-1.348,0.301C82.92,53.128,82.77,50.342,83.785,49.415"/>
<path fill="#D84D8E" d="M113.14,89.423c-1.027-2.607-3.359-4.422-6.991-5.45c-3.792-1.026-6.716-0.711-8.769,0.947
	c-1.265,1.027-2.292,2.726-3.081,5.095l-0.358,1.007c2.05,2.113,4.416,4.042,7.122,5.77c0.43,0.274,0.812,0.534,1.122,0.766
	c0.238-0.187,0.473-0.378,0.725-0.556c0.787-0.557,1.8-0.823,2.724-1.184c0.273-0.105,0.602-0.104,0.901-0.1
	c0.91,0.018,1.203,0.386,0.984,1.238c-0.115,0.457-0.275,0.905-0.418,1.356c-0.045-0.002-0.09-0.004-0.136-0.006
	c-0.116,1.15-0.296,2.301-0.334,3.452c-0.039,1.164-0.356,2.246-0.929,3.259c-0.919,1.629-2.11,3.061-3.743,4.099
	c-0.492,0.313-1.046,0.572-1.605,0.737c-1.656,0.488-3.066-0.261-3.363-1.863c-0.148-0.801-0.168-1.686,0.021-2.482
	c0.705-2.968,2.268-5.452,4.565-7.45c-3.533-1.212-6.84-2.835-9.947-4.827c-0.788-0.506-1.542-1.06-2.312-1.591
	c-1.003-0.956-2.006-1.911-3.01-2.867c-0.248-0.327-0.471-0.678-0.75-0.978c-3.438-3.689-5.977-7.895-7.609-12.356v27.848
	c-0.08,1.422,0.314,2.962,1.184,4.62c1.186,2.448,3.713,3.869,7.584,4.267h11.019c5.452-0.237,9.202-1.383,11.258-3.437
	c0.237-0.474,0.551-0.947,0.948-1.422c0.71-1.265,1.303-2.922,1.776-4.977l1.423-6.753C113.691,92.978,113.691,90.924,113.14,89.423
	"/>
<path fill="#D84D8E" d="M100.669,101.92c0.666-0.842,1.498-1.563,2.251-2.343c0.097-0.099,0.2-0.218,0.23-0.341
	c0.019-0.069-0.108-0.168-0.315-0.455c-0.15,0.158-0.273,0.321-0.43,0.446c-1.693,1.355-2.929,3.023-3.738,4.968
	c-0.389,0.932-0.615,1.899-0.485,2.898c0.087,0.681,0.363,1.269,0.981,1.643c0.106,0.065,0.302-0.002,0.455-0.008
	c-0.021-0.128,0.008-0.319-0.071-0.375c-0.861-0.617-0.854-1.494-0.729-2.398C99.023,104.451,99.721,103.115,100.669,101.92"/>
<path fill="#D84D8E" d="M106.709,96.911c-0.438,0.609-0.949,1.186-1.298,1.836c-0.523,0.978-0.678,2.02-0.184,3.035
	c0.15,0.306,0.41,0.561,0.619,0.838c0.061-0.024,0.12-0.05,0.181-0.076c-0.773-1.968,0.157-3.748,0.788-5.561
	C106.78,96.959,106.745,96.936,106.709,96.911"/>
<path fill="#D84D8E" d="M40.401,65.498c-2.024-0.871-3.974-1.875-5.741-3.163c-0.627-0.458-1.235-0.946-1.652-1.596
	c-0.18-0.278-0.284-0.606-0.389-0.924c-0.069-0.203,0.024-0.389,0.247-0.468c0.359-0.13,0.72-0.278,1.094-0.35
	c0.974-0.189,1.955-0.139,2.934-0.078c0.104,0.007,0.231,0.024,0.312-0.021c0.531-0.294,1.102-0.255,1.663-0.216
	c1.38,0.097,2.692,0.46,3.984,0.883c2.465,0.807,4.813,1.848,7.117,2.976c0.323-0.802,0.536-1.633,0.607-2.504
	c0-1.975-2.174-6.24-6.517-12.798c-1.422-1.974-2.884-3.276-4.384-3.909c-2.45-1.186-5.175-0.788-8.176,1.185
	c-3.081,2.132-4.74,4.661-4.976,7.583c-0.08,1.738,0.513,3.596,1.777,5.569c4.265,6.636,7.306,10.349,9.124,11.138
	c2.369,1.028,5.095,0.633,8.175-1.185c0.017-0.013,0.03-0.024,0.047-0.035C43.9,66.886,42.127,66.24,40.401,65.498"/>
<path fill="#D84D8E" d="M52.676,103.073c1.66-2.427,3.501-4.705,5.94-6.5C55.841,97.216,53.173,100.163,52.676,103.073"/>
<path fill="#D84D8E" d="M74.275,59.683V12.287c0-2.686-0.554-4.859-1.66-6.518c-1.659-2.371-4.661-3.556-9.005-3.556
	c-4.029,0-7.031,1.185-9.005,3.556c-1.185,1.501-1.777,3.673-1.777,6.518v1.659c0.848,0.184,1.632,0.485,2.356,0.894
	c0.003-0.27,0.019-0.545,0.059-0.825c0.219-1.523,0.95-2.837,2.007-3.987c0.877-0.956,1.953-1.628,3.276-1.9
	c1.457-0.3,2.805-0.06,4.032,0.76c0.139,0.092,0.183,0.192,0.106,0.345c-0.098,0.198-0.183,0.403-0.271,0.605
	c-0.104,0.232-0.043,0.469,0.155,0.624c0.163,0.127,0.438,0.153,0.598,0.012c0.1-0.087,0.161-0.229,0.201-0.358
	c0.481-1.562,0.215-2.974-0.95-4.202c-0.154-0.162-0.179-0.375-0.076-0.569c0.121-0.229,0.337-0.281,0.583-0.275
	c0.08,0.035,0.159,0.071,0.239,0.108c0.008,0.013,0.014,0.029,0.024,0.04c0.91,0.911,1.383,1.999,1.467,3.245
	c0.003,0.037,0.013,0.073,0.022,0.126c0.044-0.041,0.07-0.066,0.097-0.092c0.999-0.961,2.435-1.2,3.718-0.617
	c0.593,0.27,1.186,0.54,1.778,0.81c0.388,0.177,0.475,0.516,0.212,0.836c-0.879,1.075-2.527,1.447-3.826,0.861
	c-0.623-0.282-1.246-0.565-1.869-0.849c-0.053-0.024-0.104-0.048-0.172-0.079c-0.018,0.097-0.019,0.172-0.044,0.239
	c-0.048,0.136,0.01,0.174,0.145,0.208c0.591,0.146,1.148,0.365,1.673,0.67c1.19,0.691,1.946,1.685,2.186,2.982
	c0.356,1.931-0.09,3.734-1.182,5.378c-0.78,1.176-1.87,2.057-3.23,2.599c-1.515,0.604-3.034,0.656-4.49-0.157
	c-1.24-0.695-1.958-1.742-2.135-3.099c-0.112-0.872,0.023-1.729,0.279-2.567c0.217-0.717,0.529-1.396,0.973-2.018
	c0.412-0.578,0.925-1.059,1.547-1.437c0.264-0.161,0.329-0.467,0.166-0.698c-0.162-0.23-0.472-0.295-0.73-0.142
	c-0.854,0.505-1.522,1.181-2.045,1.991c-0.469,0.728-0.796,1.514-1.009,2.342c-0.2,0.781-0.294,1.56-0.245,2.337
	c0.753,1.212,1.369,2.672,1.84,4.39c1.737,4.583,3.556,9.402,5.451,14.457c1.026,2.922,1.224,5.49,0.592,7.7
	c-1.422,3.793-4.345,6.519-8.768,8.177c-1.501,0.554-3.08,0.829-4.739,0.829v0.711c1.025,1.976,1.461,3.91,1.303,5.807
	c-0.03,0.262-0.068,0.52-0.113,0.776c1.471-0.604,2.942-1.211,4.415-1.813c0.101-0.041,0.239-0.065,0.336-0.034
	c0.914,0.298,1.822,0.607,2.775,0.929c-0.086,0.08-0.111,0.11-0.142,0.133c-2.154,1.658-4.311,3.314-6.46,4.979
	c2.372,1.302,4.703,2.667,7.006,4.078c0.353,0.215,0.628,0.245,0.988-0.003c0.543-0.375,1.121-0.703,1.683-1.053
	c1.802-1.114,3.604-2.232,5.407-3.343c0.093-0.056,0.251-0.108,0.331-0.072c1.144,0.534,2.28,1.083,3.442,1.641
	c-0.068,0.073-0.105,0.116-0.146,0.156c-1.303,1.313-2.607,2.626-3.911,3.938c-0.762,0.768-1.527,1.534-2.286,2.304
	c-0.276,0.282-0.241,0.551,0.092,0.75c0.161,0.098,0.327,0.188,0.488,0.281c0.435,0.253,0.867,0.507,1.29,0.754
	c-0.284,0.235-0.552,0.449-0.811,0.673c-0.129,0.112-0.242,0.129-0.413,0.073c-4.41-1.441-8.823-2.876-13.235-4.312
	c-0.206-0.066-0.408-0.119-0.597,0.043c-0.201,0.171-0.164,0.369-0.101,0.583c0.297,1.005,0.588,2.012,0.879,3.019
	c0.189,0.653,0.376,1.307,0.576,2.005c-0.151-0.053-0.258-0.085-0.359-0.127c-0.919-0.373-1.841-0.742-2.753-1.13
	c-0.182-0.078-0.359-0.206-0.481-0.354c-1.378-1.672-2.751-3.348-4.127-5.02c-0.211,0.153-0.424,0.305-0.646,0.454
	c-3.792,2.45-7.545,3.003-11.257,1.658c-0.553-0.236-1.066-0.475-1.54-0.71c-1.659,1.184-2.41,3.003-2.251,5.45
	c0.237,3.081,1.381,5.847,3.437,8.294c1.025,1.185,2.29,1.976,3.791,2.37c1.659,0.474,3.594,0.277,5.806-0.594l11.968-4.976
	l1.421,3.081l-11.966,5.094c-0.08,0-0.12,0.042-0.12,0.119c-3.396,6.873-5.016,11.298-4.858,13.271
	c0.552,2.923,2.845,5.49,6.873,7.702c4.029,1.896,7.425,2.21,10.19,0.948c3.318-1.423,6.991-8.215,11.02-20.38
	C72.931,80.654,74.433,69.952,74.275,59.683 M62.267,95.986c-0.109,0.021-0.22,0.042-0.328,0.061
	c-1.248,0.195-2.012,0.92-2.44,2.004c-0.231,0.588-0.286,1.211-0.358,1.828c-0.184,1.585-0.947,2.845-2.341,3.749
	c-0.27,0.174-0.551,0.339-0.85,0.464c-0.284,0.119-0.584,0.205-0.887,0.27c-0.108,0.022-0.218,0.025-0.327,0.038
	c-0.858,0.107-1.705-0.005-2.551-0.119c-0.159-0.022-0.252-0.088-0.319-0.225c-0.221-0.445-0.36-0.912-0.431-1.396
	c-0.147-1.02-0.366-2.309-0.086-3.31c0.02-0.069,0.043-0.136,0.064-0.204c0.486-1.374,0.648-1.504,1.722-2.349
	c0.308-0.242,0.579-0.435,1.557-0.817c0.166-0.064,0.684-0.211,1.046-0.302c0.119-0.035,0.242-0.065,0.38-0.087
	c0.808-0.121,1.567-0.287,2.396-0.281c1.368,0.01,2.696,0.249,4.012,0.579c0.016,0.005,0.029,0.019,0.056,0.036
	C62.467,95.946,62.367,95.967,62.267,95.986"/>
<path fill="#D84D8E" d="M14.254,107.612c0.248,0.622,0.541,1.199,0.894,1.717c1.867,2.282,4.612,3.564,8.235,3.85
	c-0.534-0.397-1.064-0.799-1.588-1.205C19.48,110.176,16.985,108.693,14.254,107.612"/>
<path fill="#D84D8E" d="M11.863,70.574c3.244,1.989,5.776,4.67,8.091,7.564C19.067,74.479,15.43,71.044,11.863,70.574"/>
<path fill="#D84D8E" d="M33.646,92.561c-0.375,0.947-1.563,3.446-2.871,3.742c-0.144,0.158-0.284,0.32-0.438,0.477
	c-0.157,0.156-0.353,0.278-0.521,0.427c-0.697,0.619-1.088,1.391-1.084,2.288c0.016,2.68,0.067,5.356,0.106,8.11
	c0.55-0.481,1.239-0.702,1.445-1.479c0.331-1.25,0.705-2.501,1.197-3.701c1.01-2.455,2.858-3.956,5.472-4.525V90.37
	c-0.906-0.398-1.749-0.97-2.538-1.683C34.391,90.008,34.135,91.324,33.646,92.561"/>
<path fill="#D84D8E" d="M31.773,106.737c-0.882,0.697-1.763,1.396-2.655,2.081c-0.186,0.142-0.274,0.274-0.271,0.512
	c0.022,1.167,0.036,2.335,0.052,3.502c2.583-0.564,4.643-1.722,6.155-3.503c1.126-1.551,1.748-3.577,1.87-6.069
	c-1.186,0.596-2.323,1.292-3.412,2.086C32.912,105.784,32.355,106.276,31.773,106.737"/>
<path fill="#D84D8E" d="M7.252,38.505c0.424-0.498,0.889-0.92,1.366-1.256c-0.667,0.01-1.39-0.083-2.125-0.297
	c-0.706-0.205-1.342-0.499-1.885-0.846c-0.653-0.386-1.295-0.948-1.882-1.737c0.373,3.318,1.58,5.803,3.654,7.422
	c-0.216-0.17-0.411-0.36-0.608-0.548c0.1-0.359,0.224-0.693,0.372-0.995C6.407,39.66,6.776,39.064,7.252,38.505"/>
<path fill="#D84D8E" d="M2.591,32.124c1.041-0.488,2.855-1.117,4.722-0.7c0.243,0.045,0.49,0.1,0.737,0.173
	c0.688,0.199,1.309,0.483,1.843,0.819c-0.121-0.522-0.19-1.087-0.19-1.68c0-0.259,0.016-0.51,0.041-0.757
	c0.185-2.926,2.703-5.063,2.703-5.063c1.482,1.279,2.243,2.577,2.549,3.772c0.18,0.619,0.285,1.312,0.285,2.047
	c0,0.501-0.049,0.983-0.137,1.437c0.433-0.229,0.909-0.427,1.424-0.576c0.247-0.073,0.494-0.128,0.737-0.173
	c1.336-0.299,2.645-0.059,3.665,0.279c0.11-0.954,0.356-1.777,0.697-2.475c0.318-0.713,0.765-1.434,1.341-2.11
	c0.515-0.604,1.078-1.114,1.656-1.522c-0.808,0.012-1.684-0.101-2.575-0.358c-0.855-0.249-1.625-0.604-2.283-1.024
	c-1.288-0.76-2.54-2.085-3.529-4.241c0,0,3.338-2.207,6.805-1.434c0.295,0.057,0.592,0.123,0.892,0.21
	c0.834,0.242,1.586,0.587,2.233,0.992c-0.147-0.633-0.229-1.316-0.229-2.034c0-0.313,0.019-0.617,0.048-0.916
	c0.224-3.545,3.275-6.133,3.275-6.133c1.794,1.549,2.717,3.122,3.087,4.57c0.22,0.75,0.346,1.587,0.346,2.479
	c0,0.607-0.059,1.191-0.165,1.741c0.524-0.278,1.101-0.518,1.724-0.699c0.301-0.087,0.598-0.153,0.893-0.21
	c0.598-0.132,1.191-0.173,1.765-0.155v-4.675c0-2.921-0.633-5.291-1.896-7.109c-2.133-2.606-5.411-3.911-9.834-3.911
	c-4.503,0-7.861,1.305-10.072,3.911c-1.185,1.739-1.778,4.108-1.778,7.109v7.109c-3.08,0-5.41,0.593-6.99,1.778
	c-2.449,1.737-3.714,4.897-3.791,9.479c0,0.023,0.002,0.046,0.002,0.069C2.592,32.137,2.591,32.13,2.591,32.124"/>
<path fill="#D84D8E" d="M30.957,24.288c0.629,0.497,1.575,0.135,1.743-0.595c0.148-0.637-0.183-1.161-0.837-1.323
	c-0.58-0.145-1.16,0.188-1.374,0.764c-0.037,0.102-0.149,0.211-0.254,0.249c-0.191,0.068-0.403,0.085-0.624,0.127
	c-0.031-0.403-0.101-0.731,0.366-1.006c0.539-0.315,0.532-1.126,0.087-1.557c-0.461-0.445-1.221-0.441-1.665,0.009
	c-0.445,0.451-0.396,1.173,0.106,1.572c0.364,0.29,0.428,0.523,0.251,0.976c-0.258-0.055-0.524-0.097-0.778-0.175
	c-0.084-0.026-0.171-0.135-0.199-0.223c-0.16-0.49-0.59-0.818-1.106-0.823c-0.474-0.004-0.952,0.326-1.091,0.755
	c-0.15,0.458,0.041,0.987,0.446,1.235c0.431,0.266,1.033,0.218,1.437-0.105c0.081-0.064,0.201-0.144,0.291-0.132
	c0.271,0.033,0.537,0.107,0.84,0.173c-0.148,0.22-0.278,0.392-0.384,0.575c-0.158,0.278-0.337,0.451-0.728,0.429
	c-0.425-0.023-0.816,0.335-0.936,0.735c-0.13,0.433,0.024,0.914,0.375,1.165c0.428,0.307,1.029,0.309,1.438,0.005
	c0.383-0.285,0.518-0.848,0.328-1.302c-0.045-0.109-0.089-0.267-0.04-0.354c0.153-0.271,0.351-0.521,0.565-0.828
	c0.15,0.218,0.257,0.402,0.394,0.563c0.184,0.215,0.221,0.407,0.106,0.684c-0.232,0.557,0.092,1.15,0.676,1.34
	c0.464,0.15,0.893,0.077,1.227-0.261c0.33-0.335,0.405-0.752,0.218-1.175c-0.19-0.428-0.561-0.634-1.052-0.655
	c-0.121-0.005-0.296,0.002-0.352-0.065c-0.212-0.256-0.387-0.541-0.599-0.85C30.255,24.122,30.56,23.975,30.957,24.288"/>
<path fill="#D84D8E" d="M13.814,36.169c0.519,0.411,1.299,0.112,1.439-0.49c0.121-0.527-0.152-0.958-0.691-1.093
	c-0.479-0.118-0.958,0.154-1.134,0.63c-0.03,0.084-0.123,0.175-0.21,0.206c-0.158,0.057-0.333,0.071-0.515,0.105
	c-0.025-0.333-0.083-0.604,0.302-0.83c0.445-0.261,0.439-0.93,0.071-1.286c-0.38-0.367-1.007-0.364-1.373,0.008
	c-0.368,0.372-0.327,0.969,0.087,1.299c0.3,0.238,0.354,0.431,0.206,0.804c-0.212-0.044-0.432-0.079-0.641-0.144
	c-0.07-0.021-0.141-0.111-0.165-0.185c-0.132-0.405-0.487-0.675-0.913-0.679c-0.391-0.003-0.785,0.269-0.901,0.623
	c-0.123,0.379,0.035,0.814,0.369,1.02c0.356,0.219,0.853,0.178,1.186-0.087c0.067-0.054,0.166-0.119,0.241-0.109
	c0.224,0.027,0.443,0.089,0.693,0.144c-0.122,0.182-0.23,0.323-0.317,0.474c-0.131,0.23-0.278,0.373-0.601,0.354
	c-0.351-0.02-0.674,0.276-0.773,0.606c-0.107,0.359,0.02,0.754,0.31,0.963c0.354,0.252,0.85,0.254,1.187,0.003
	c0.316-0.234,0.428-0.699,0.271-1.074c-0.038-0.091-0.074-0.22-0.033-0.291c0.126-0.225,0.289-0.431,0.466-0.685
	c0.124,0.181,0.212,0.332,0.325,0.465c0.152,0.178,0.183,0.336,0.088,0.564c-0.191,0.46,0.075,0.95,0.558,1.106
	c0.383,0.124,0.737,0.063,1.013-0.215c0.273-0.276,0.335-0.621,0.179-0.971c-0.156-0.354-0.462-0.523-0.867-0.54
	c-0.101-0.004-0.245,0.001-0.291-0.055c-0.176-0.212-0.32-0.446-0.495-0.701C13.235,36.032,13.486,35.91,13.814,36.169"/>
<path fill="#D84D8E" d="M43.23,22.596c-0.594-0.47-1.285-0.833-2.066-1.104c-0.82,1.286-1.752,2.159-2.703,2.721
	c-0.659,0.419-1.429,0.775-2.283,1.023c-0.775,0.225-1.539,0.34-2.256,0.359c0.578,0.406,1.142,0.918,1.656,1.521
	c0.577,0.678,1.024,1.398,1.342,2.112c0.657,1.343,0.973,3.138,0.611,5.481c0,0-4.002,0.005-6.469-2.55
	c-0.216-0.209-0.428-0.428-0.631-0.666c-0.463-0.545-0.841-1.117-1.138-1.688c-0.297,0.571-0.675,1.144-1.139,1.688
	c-0.202,0.238-0.414,0.457-0.63,0.666c-1.892,1.959-4.678,2.412-5.879,2.518c-0.519,0.627-1.074,1.096-1.637,1.429
	c-0.544,0.346-1.179,0.64-1.885,0.845c-0.639,0.187-1.269,0.28-1.861,0.296c0.476,0.336,0.943,0.758,1.366,1.256
	c0.476,0.561,0.845,1.156,1.108,1.743c0.543,1.109,0.803,2.592,0.504,4.526c0,0-3.303,0.004-5.34-2.104
	c-0.178-0.173-0.353-0.354-0.52-0.551c-0.384-0.451-0.694-0.927-0.94-1.402c-0.246,0.476-0.556,0.951-0.94,1.402
	c-0.167,0.197-0.341,0.378-0.52,0.551c-0.267,0.277-0.558,0.516-0.86,0.726c0.949,0.191,1.991,0.292,3.132,0.292v3.081
	c-3.16,8.293-6.161,14.614-9.005,18.958C1.167,69.991,0.771,73.9,3.063,77.454c2.37,3.319,5.726,5.689,10.072,7.111l0.236,0.118
	v17.654c0,0.934,0.068,1.8,0.189,2.612c0.651-0.214,1.307-0.406,1.977-0.522c3.616-0.638,6.649,0.433,8.999,3.119
	c1.42,1.623,2.047,3.535,2.004,5.625v0.009c0.41-0.029,0.802-0.081,1.191-0.137c-0.049-3.473-0.099-6.944-0.141-10.418
	c-0.003-0.237-0.071-0.405-0.257-0.565c-0.384-0.329-0.691-0.794-1.133-0.989c-0.436-0.192-1.005-0.1-1.511-0.167
	c-0.215-0.029-0.424-0.063-0.632-0.1c-1.029-0.102-2.045-0.29-3.016-0.625c-1.651-0.567-3.174-1.574-4.087-2.993
	c-0.588-0.917-0.905-1.963-1.185-3.002c-0.433-1.609-0.798-3.235-1.092-4.871c3.261,0.628,6.364,1.98,8.988,3.918
	c1.107,0.816,2.16,1.779,2.682,3.012c0.377,0.891,0.448,1.847,0.489,2.813c0.003,0.02,0.008,0.039,0.011,0.059
	c0.026,0.15,0.079,0.305,0.063,0.451c-0.053,0.481,0.178,0.81,0.647,1.087c-0.003-0.226,0.002-0.423-0.01-0.619
	c-0.057-0.921,0.072-1.809,0.597-2.602c0.248-0.374,0.56-0.714,0.876-1.041c0.152-0.155,0.235-0.292,0.228-0.507
	c-0.004-0.163-0.006-0.325-0.009-0.488c-0.65-1.114-0.469-2.753-0.256-3.922c0.418-2.304,1.66-4.391,2.535-6.577
	c-0.381-0.691-0.746-1.424-1.084-2.229c-1.896-4.977-1.976-8.887-0.236-11.73c0.314-0.711,0.829-1.342,1.54-1.896
	c-6.162-7.819-9.085-13.546-8.769-17.181c0.078-3.791,2.37-7.227,6.873-10.308c3.791-2.37,7.542-2.922,11.256-1.659
	c0.789,0.316,1.618,0.83,2.488,1.54c2.133-2.133,3.277-5.172,3.437-9.123C47.022,27.809,45.758,24.57,43.23,22.596 M21.489,77.451
	c-0.046,0.63-0.18,1.245-0.42,1.843c-0.073,0.183-0.184,0.279-0.383,0.327c-1.061,0.253-2.121,0.504-3.216,0.478
	c-0.139-0.002-0.28,0.007-0.417-0.009c-0.389-0.043-0.776-0.115-1.146-0.231c-0.39-0.122-0.76-0.298-1.115-0.486
	c-1.845-0.979-2.923-2.495-3.298-4.501c-0.146-0.78-0.268-1.57-0.615-2.293c-0.637-1.333-1.668-2.165-3.264-2.257
	c-0.14-0.007-0.28-0.023-0.42-0.035c-0.129-0.011-0.258-0.023-0.404-0.038c0.033-0.025,0.048-0.046,0.069-0.053
	c1.634-0.589,3.295-1.066,5.023-1.251c1.047-0.113,2.021,0.004,3.056,0.057c0.174,0.01,0.334,0.032,0.488,0.063
	c0.466,0.069,1.134,0.19,1.349,0.253c1.272,0.366,1.63,0.577,2.042,0.848c1.433,0.946,1.65,1.092,2.386,2.788
	c0.034,0.084,0.069,0.166,0.1,0.252C21.747,74.451,21.584,76.128,21.489,77.451"/>
<path fill="#D84D8E" d="M41.134,21.48c-0.27-0.092-0.548-0.173-0.839-0.241C40.585,21.31,40.864,21.388,41.134,21.48"/>
<path fill="#D84D8E" d="M41.134,21.48c0.011,0.004,0.021,0.009,0.031,0.013c0.001-0.001,0.002-0.003,0.002-0.003
	C41.156,21.486,41.144,21.484,41.134,21.48"/>
</svg>
