<svg xmlns="http://www.w3.org/2000/svg" width="21.695" height="21.696" viewBox="0 0 21.695 21.696">
  <path id="ic-download" d="M10.847,0A7.5,7.5,0,0,0,5.974,1.82,5.7,5.7,0,0,0,3.989,5.051,5.027,5.027,0,0,0,0,9.923a5.061,5.061,0,0,0,5.127,4.993h5.043V7.458a.678.678,0,1,1,1.356,0v7.458H17.2a4.37,4.37,0,0,0,.648-8.706,6.963,6.963,0,0,0-7-6.209m-.48,21.5a.678.678,0,0,0,.96,0L15.4,17.429a.679.679,0,1,0-.96-.96l-2.91,2.911V14.915H10.169V19.38L7.26,16.469a.679.679,0,1,0-.96.96Z" fill="#e4877c" fill-rule="evenodd"/>
</svg>
