<svg id="ic-line" xmlns="http://www.w3.org/2000/svg" xmlns:xlink="http://www.w3.org/1999/xlink" width="20" height="20" viewBox="0 0 20 20">
  <defs>
    <clipPath id="clip-path">
      <rect id="Rectangle_23" data-name="Rectangle 23" width="20" height="20" fill="#d84d8e"/>
    </clipPath>
  </defs>
  <g id="Group_24" data-name="Group 24" clip-path="url(#clip-path)">
    <path id="Path_31" data-name="Path 31" d="M9.994,0A10,10,0,1,1,0,10.034,10.014,10.014,0,0,1,9.994,0M9.924,3.845c-.255.022-.579.038-.9.08A6.479,6.479,0,0,0,4.838,6.1a4.565,4.565,0,0,0-.594,5.142,5.8,5.8,0,0,0,3.5,2.784,14.581,14.581,0,0,0,1.515.323c.347.072.476.227.407.555-.065.307-.169.6-.256.907-.078.269.013.395.278.319a2.624,2.624,0,0,0,.77-.34c1.116-.776,2.235-1.55,3.316-2.372a7.374,7.374,0,0,0,1.84-1.917,4.544,4.544,0,0,0-.464-5.411A6.727,6.727,0,0,0,9.924,3.845" transform="translate(-0.001)" fill="#d84d8e"/>
    <path id="Path_32" data-name="Path 32" d="M143.458,127.4c0,.475,0,.951,0,1.426,0,.341-.094.5-.292.5s-.274-.159-.273-.49q0-.874,0-1.749c0-.081,0-.162,0-.243.02-.206,0-.445.271-.507.249-.057.359.132.471.3.363.553.727,1.1,1.123,1.707.01-.124.019-.191.02-.258,0-.462,0-.923,0-1.384,0-.182.033-.379.281-.372.23.006.256.186.257.366,0,.737,0,1.473,0,2.21,0,.16,0,.334-.2.4a.4.4,0,0,1-.478-.195c-.284-.423-.561-.851-.841-1.277l-.293-.444-.052.013" transform="translate(-133.608 -118.125)" fill="#d84d8e"/>
    <path id="Path_33" data-name="Path 33" d="M190.941,127.494v.718h1.019c.073,0,.146,0,.219,0,.138.013.253.084.213.229a.319.319,0,0,1-.216.2c-.29.024-.582.01-.874.011h-.354v.824h1.19a.5.5,0,0,1,.238.018c.078.048.174.142.175.218s-.1.155-.174.215a.287.287,0,0,1-.164.026c-.478,0-.956.007-1.434,0-.356-.005-.435-.08-.438-.428q-.011-1.044,0-2.087c0-.306.092-.388.4-.391.494,0,.988,0,1.482,0,.164,0,.3.046.3.234s-.139.216-.291.217h-1.287" transform="translate(-177.969 -118.793)" fill="#d84d8e"/>
    <path id="Path_34" data-name="Path 34" d="M86.088,129.074c.409,0,.772,0,1.136,0,.162,0,.327.015.333.227s-.171.254-.338.257c-.445.007-.891.01-1.337,0-.294-.007-.383-.1-.385-.382-.006-.728,0-1.457,0-2.185,0-.048-.01-.112.016-.142.077-.089.167-.224.258-.228s.221.107.277.2a.694.694,0,0,1,.039.331c0,.629,0,1.259,0,1.921" transform="translate(-79.941 -118.397)" fill="#d84d8e"/>
    <path id="Path_35" data-name="Path 35" d="M123.769,127.856c0-.38,0-.76,0-1.139,0-.189.065-.343.286-.344s.295.162.3.342c.007.768.005,1.535,0,2.3,0,.184-.08.347-.294.345s-.29-.17-.29-.368c0-.38,0-.76,0-1.139h0" transform="translate(-115.724 -118.166)" fill="#d84d8e"/>
  </g>
</svg>
