<?xml version="1.0" encoding="utf-8"?>
<!-- Generator: Adobe Illustrator 16.0.0, SVG Export Plug-In . SVG Version: 6.00 Build 0)  -->
<!DOCTYPE svg PUBLIC "-//W3C//DTD SVG 1.1//EN" "http://www.w3.org/Graphics/SVG/1.1/DTD/svg11.dtd">
<svg version="1.1" id="圖層_1" xmlns="http://www.w3.org/2000/svg" xmlns:xlink="http://www.w3.org/1999/xlink" x="0px" y="0px"
	 width="22.5px" height="29.162px" viewBox="0 0 22.5 29.162" enable-background="new 0 0 22.5 29.162" xml:space="preserve">
<path fill="#D84D8E" d="M10.911,27.86C9.659,26.231,8.4,24.767,7.338,23.17c-1.801-2.706-3.682-5.393-5.161-8.276
	C-0.162,10.333,1.351,5.66,5.725,2.955c5.819-3.598,13.701-0.367,15.248,6.236c0.387,1.646,0.164,3.199-0.494,4.727
	c-1.496,3.475-3.701,6.502-5.979,9.479C13.367,24.878,12.164,26.306,10.911,27.86 M14.557,11.42
	c0.004-1.829-1.473-3.289-3.336-3.301c-1.886-0.012-3.43,1.492-3.411,3.322c0.019,1.786,1.577,3.292,3.395,3.282
	C13.051,14.714,14.554,13.233,14.557,11.42"/>
</svg>
