<svg xmlns="http://www.w3.org/2000/svg" width="21.704" height="20.302" viewBox="0 0 21.704 20.302">
  <g id="ic-momo" transform="translate(0 -16.542)">
    <path id="Path_433" data-name="Path 433" d="M15.987,20.191c-4.551-2.3-4.349-3.649-5.135-3.649s-.584,1.349-5.135,3.649C2.656,21.817,0,24.84,0,28.389a8.1,8.1,0,0,0,3.179,6.574c2.073,1.533,8.678,3.05,8.053-3.572-.146-1.547,1.925-1.663.9,2.6-.452,1.886-1.342,2.3-1.575,2.422s-.234.291.291.35a10.919,10.919,0,0,0,7.674-1.8A8.075,8.075,0,0,0,21.7,28.389C21.7,24.84,19.049,21.817,15.987,20.191Z" fill="#fcaacf"/>
  </g>
</svg>
