<svg xmlns="http://www.w3.org/2000/svg" width="20" height="20" viewBox="0 0 20 20">
  <g id="ic-outer-link" transform="translate(-17 -9.229)">
    <circle id="Ellipse_16" data-name="Ellipse 16" cx="10" cy="10" r="10" transform="translate(17 9.229)" fill="#d84d8e"/>
    <g id="launch_black_24dp" transform="translate(20.901 13.13)">
      <path id="Path_241" data-name="Path 241" d="M0,0H12.2V12.2H0Z" fill="none"/>
      <path id="Path_242" data-name="Path 242" d="M11.132,11.132H4.016V4.016H7.574V3H4.016A1.016,1.016,0,0,0,3,4.016v7.115a1.016,1.016,0,0,0,1.016,1.016h7.115a1.019,1.019,0,0,0,1.016-1.016V7.574H11.132ZM8.59,3V4.016h1.825l-5,5,.717.717,5-5V6.558h1.016V3Z" transform="translate(-1.475 -1.475)" fill="#ffe8e8"/>
    </g>
  </g>
</svg>
