<?xml version="1.0" encoding="utf-8"?>
<!-- Generator: Adobe Illustrator 16.0.0, SVG Export Plug-In . SVG Version: 6.00 Build 0)  -->
<!DOCTYPE svg PUBLIC "-//W3C//DTD SVG 1.1//EN" "http://www.w3.org/Graphics/SVG/1.1/DTD/svg11.dtd">
<svg version="1.1" id="圖層_1" xmlns="http://www.w3.org/2000/svg" xmlns:xlink="http://www.w3.org/1999/xlink" x="0px" y="0px"
	 width="84.791px" height="85.117px" viewBox="0 0 84.791 85.117" enable-background="new 0 0 84.791 85.117" xml:space="preserve">
<path fill="#FFFFFF" d="M77.815,45.822c0.333,20.281-14.692,36.975-33.56,37.284S9.822,67.228,9.488,46.945
	C9.155,26.664,24.18,9.972,43.048,9.661C61.917,9.352,77.482,25.541,77.815,45.822"/>
<path fill="#D84D8E" d="M50.295,82.219V53.297h7.856c0.596-3.794,1.18-7.518,1.781-11.347H47.99v-0.954v-6.422
	c0-3.991,2.1-6.204,6.099-6.328c2.247-0.069,4.497-0.019,6.746-0.022H61.6v-9.96c-1.628-0.188-3.256-0.419-4.892-0.554
	c-3.162-0.263-6.319-0.395-9.445,0.403c-5.698,1.456-9.713,5.835-10.304,11.698c-0.338,3.356-0.251,6.756-0.348,10.137
	c-0.018,0.618-0.003,1.236-0.003,1.931h-9.036v11.344h8.979v29.046c-1.25-0.26-2.49-0.461-3.701-0.776
	C20.84,78.378,12.006,71.277,6.372,60.237c-2.235-4.38-3.444-9.076-3.93-13.965C1.439,36.165,3.796,26.908,9.697,18.654
	c6.398-8.948,15.06-14.547,25.929-16.389C58.3-1.577,77.686,13.604,81.808,33.458c2.534,12.204,0.192,23.473-7.38,33.444
	C68.46,74.764,60.582,79.854,50.94,82.135C50.758,82.178,50.568,82.185,50.295,82.219"/>
</svg>
