<?xml version="1.0" encoding="utf-8"?>
<!-- Generator: Adobe Illustrator 16.0.0, SVG Export Plug-In . SVG Version: 6.00 Build 0)  -->
<!DOCTYPE svg PUBLIC "-//W3C//DTD SVG 1.1//EN" "http://www.w3.org/Graphics/SVG/1.1/DTD/svg11.dtd">
<svg version="1.1" id="圖層_1" xmlns="http://www.w3.org/2000/svg" xmlns:xlink="http://www.w3.org/1999/xlink" x="0px" y="0px"
	 width="52.567px" height="51.797px" viewBox="0 0 52.567 51.797" enable-background="new 0 0 52.567 51.797" xml:space="preserve">
<path fill="#8D654F" d="M41.096,2.238c0.504,0.216,0.996,0.467,1.514,0.644c9.318,3.177,12.255,14.637,5.564,21.832
	c-1.556,1.673-3.185,3.283-4.84,4.856c-1.657,1.576-3.632,1.574-5.085,0.104c-1.38-1.398-1.335-3.508,0.182-5.103
	c1.4-1.472,2.885-2.863,4.294-4.327c2.64-2.744,2.675-6.71,0.113-9.201c-2.507-2.439-6.401-2.362-9.062,0.23
	c-2.229,2.171-4.43,4.372-6.603,6.599c-2.647,2.712-2.788,5.899-0.455,8.904c1.658,2.136,1.627,4.156-0.085,5.511
	c-1.729,1.368-3.723,0.957-5.448-1.121c-4.328-5.216-4.146-12.787,0.513-17.726c2.439-2.585,4.852-5.24,7.582-7.494
	c1.89-1.562,4.301-2.494,6.479-3.708H41.096z"/>
<path fill="#8D654F" d="M2.978,35.02c1.174-4.12,3.952-7.101,6.989-9.912c1.905-1.762,3.834-1.918,5.372-0.354
	c1.464,1.487,1.299,3.589-0.441,5.382c-0.974,1.001-1.993,1.958-2.957,2.969c-2.541,2.667-2.57,6.583-0.09,9.062
	c2.478,2.476,6.401,2.454,9.062-0.117c2.237-2.161,4.428-4.371,6.603-6.597c2.724-2.785,2.888-5.965,0.432-9.037
	c-0.982-1.227-1.544-2.472-0.91-4.017c1.046-2.548,4.043-2.936,6.088-0.795c4.541,4.752,4.793,12.76,0.355,17.72
	c-2.662,2.976-5.492,5.832-8.474,8.488c-6.945,6.187-18.104,3.191-21.262-5.589c-0.228-0.633-0.509-1.245-0.767-1.866V35.02z"/>
</svg>
