<?xml version="1.0" encoding="utf-8"?>
<!-- Generator: Adobe Illustrator 16.0.0, SVG Export Plug-In . SVG Version: 6.00 Build 0)  -->
<!DOCTYPE svg PUBLIC "-//W3C//DTD SVG 1.1//EN" "http://www.w3.org/Graphics/SVG/1.1/DTD/svg11.dtd">
<svg version="1.1" id="圖層_1" xmlns="http://www.w3.org/2000/svg" xmlns:xlink="http://www.w3.org/1999/xlink" x="0px" y="0px"
	 width="84.791px" height="85.117px" viewBox="0 0 84.791 85.117" enable-background="new 0 0 84.791 85.117" xml:space="preserve">
<g>
	<path fill="#D84D8E" d="M83.319,43.285c0,22.463-18.209,40.671-40.671,40.671c-22.463,0-40.673-18.208-40.673-40.671
		S20.186,2.614,42.648,2.614C65.11,2.614,83.319,20.822,83.319,43.285"/>
	<path fill="#FFFFFF" d="M42.661,60.196c-2.364-0.073-4.634-0.503-6.813-1.377c-0.403-0.162-0.709-0.16-1.083,0.057
		c-1.334,0.768-2.686,1.509-4.031,2.256c-0.596,0.331-1.216,0.613-1.846,0.125c-0.612-0.475-0.698-1.13-0.536-1.854
		c0.321-1.429,0.601-2.867,0.949-4.29c0.107-0.434,0.039-0.714-0.255-1.042c-2.615-2.922-4.047-6.373-4.452-10.249
		c-0.861-8.257,3.802-15.872,11.59-18.784c8.775-3.28,18.998,0.417,22.975,9.408c4.529,10.239-0.745,22.615-12.58,25.24
		C45.298,59.969,43.967,60.032,42.661,60.196 M42.615,45.374c1.903,0.007,3.409-1.477,3.416-3.362
		c0.005-1.889-1.495-3.413-3.37-3.422c-1.881-0.01-3.406,1.499-3.413,3.376C39.242,43.871,40.721,45.368,42.615,45.374
		 M33.413,45.374c1.912,0.006,3.392-1.457,3.404-3.363c0.013-1.886-1.488-3.412-3.365-3.42c-1.866-0.009-3.414,1.517-3.432,3.381
		C30.003,43.834,31.533,45.368,33.413,45.374 M51.818,45.374c1.894,0.008,3.419-1.481,3.44-3.357
		c0.021-1.844-1.533-3.416-3.388-3.425c-1.886-0.011-3.401,1.487-3.416,3.374C48.441,43.865,49.922,45.367,51.818,45.374"/>
	<path fill="#FFFFFF" d="M17.385,34.633c0.542-1.327,0.988-2.648,1.601-3.887c3.997-8.074,10.446-13.038,19.3-14.58
		c12.861-2.242,25.23,5.352,29.268,17.768c0.173,0.532,0.396,0.714,0.942,0.752c3.051,0.21,5.03,1.976,6.142,4.655
		c2.056,4.953,1.715,9.806-1.131,14.383c-1.115,1.795-2.667,3.217-4.878,3.415c-1.055,0.094-2.169-0.208-3.222-0.469
		c-0.703-0.173-1.056-0.039-1.485,0.556c-3.621,5.021-8.428,8.367-14.395,10.038c-0.21,0.059-0.418,0.13-0.616,0.193
		c-0.024,0.061-0.056,0.105-0.06,0.152c-0.148,2.452-0.922,3.184-3.37,3.184c-2.105,0-4.213,0.008-6.318-0.003
		c-1.616-0.008-2.667-1.033-2.723-2.635c-0.015-0.416-0.011-0.833-0.003-1.25c0.035-1.715,1.042-2.736,2.75-2.761
		c1.248-0.018,2.498-0.003,3.747-0.004c6.236-0.003,11.448-2.398,15.775-6.811c2.011-2.05,3.59-4.418,4.536-7.126
		c0.461-1.318,0.576-2.762,0.81-4.155c0.237-1.421,0.392-2.858,0.65-4.275c0.289-1.591,0.001-3.138-0.389-4.642
		c-2.399-9.259-8.277-15.105-17.647-16.97c-11.426-2.272-22.441,4.86-25.47,15.998c-0.364,1.337-0.648,2.731-0.696,4.108
		c-0.045,1.276,0.25,2.568,0.438,3.848c0.452,3.071,0.953,6.133,1.386,9.207c0.285,2.015-0.3,2.731-2.264,3.375
		c-4.052,1.325-6.585-0.255-8.429-3.223c-0.738-1.186-1.32-2.525-1.686-3.873c-0.905-3.34-0.844-6.696,0.539-9.918
		c1.078-2.511,2.919-4.248,5.629-4.944c0.211-0.054,0.43-0.083,0.649-0.102C16.982,34.62,17.202,34.633,17.385,34.633"/>
</g>
</svg>
