<?xml version="1.0" encoding="utf-8"?>
<!-- Generator: Adobe Illustrator 16.0.0, SVG Export Plug-In . SVG Version: 6.00 Build 0)  -->
<!DOCTYPE svg PUBLIC "-//W3C//DTD SVG 1.1//EN" "http://www.w3.org/Graphics/SVG/1.1/DTD/svg11.dtd">
<svg version="1.1" id="圖層_1" xmlns="http://www.w3.org/2000/svg" xmlns:xlink="http://www.w3.org/1999/xlink" x="0px" y="0px"
	 width="84.791px" height="85.117px" viewBox="0 0 84.791 85.117" enable-background="new 0 0 84.791 85.117" xml:space="preserve">
<path fill="#D84D8E" d="M84.337,42.801c0,22.819-18.498,41.316-41.316,41.316c-22.82,0-41.318-18.497-41.318-41.316
	c0-22.82,18.499-41.317,41.318-41.317C65.839,1.484,84.337,19.981,84.337,42.801"/>
<polygon fill="#FFFFFF" points="26.768,36.223 20.668,36.223 20.668,52.163 14.99,52.163 14.99,36.223 8.917,36.223 8.917,31.529 
	26.768,31.529 "/>
<g>
	<path fill="#FFFFFF" d="M51.686,41.789c0,3.187-0.825,5.716-2.474,7.589c-1.799,2.081-4.405,3.122-7.815,3.122
		c-3.486,0-6.138-1.06-7.955-3.177c-1.614-1.875-2.418-4.357-2.418-7.45c0-3.224,0.861-5.782,2.587-7.674
		c1.799-2.005,4.346-3.008,7.646-3.008c3.503,0,6.165,1.03,7.983,3.091C50.87,36.139,51.686,38.641,51.686,41.789 M45.923,41.761
		c0-3.973-1.528-5.96-4.581-5.96c-3.019,0-4.527,2.014-4.527,6.044c0,2.118,0.496,3.701,1.491,4.751
		c0.786,0.843,1.799,1.265,3.036,1.265c1.235,0,2.276-0.421,3.119-1.265C45.435,45.622,45.923,44.01,45.923,41.761"/>
	<path fill="#FFFFFF" d="M74.016,37.994c0,2.718-1.068,4.658-3.205,5.82c-1.068,0.562-2.765,0.842-5.088,0.842h-2.727v7.507h-5.623
		V31.528h8.435c1.629,0,2.848,0.094,3.654,0.281c1.013,0.225,1.883,0.666,2.614,1.321C73.37,34.274,74.016,35.895,74.016,37.994
		 M68.394,38.107c0-0.619-0.235-1.152-0.703-1.602c-0.432-0.45-1.472-0.676-3.12-0.676h-1.574v4.555h1.574
		c1.086,0,1.883-0.084,2.39-0.253C67.916,39.793,68.394,39.119,68.394,38.107"/>
</g>
</svg>
