<?xml version="1.0" encoding="utf-8"?>
<!-- Generator: Adobe Illustrator 16.0.0, SVG Export Plug-In . SVG Version: 6.00 Build 0)  -->
<!DOCTYPE svg PUBLIC "-//W3C//DTD SVG 1.1//EN" "http://www.w3.org/Graphics/SVG/1.1/DTD/svg11.dtd">
<svg version="1.1" id="圖層_1" xmlns="http://www.w3.org/2000/svg" xmlns:xlink="http://www.w3.org/1999/xlink" x="0px" y="0px"
	 width="39.729px" height="48.081px" viewBox="0 0 39.729 48.081" enable-background="new 0 0 39.729 48.081" xml:space="preserve">
<path fill="#D84D8E" d="M5.303,45.875c-0.272-0.098-0.556-0.172-0.816-0.295c-1.411-0.672-2.151-1.801-2.154-3.359
	c-0.007-2.994-0.106-5.997,0.07-8.982c0.21-3.529,1.91-6.352,4.756-8.448c1.969-1.451,4.202-2.195,6.65-2.204
	c4.38-0.015,8.763-0.087,13.141,0.028c5.429,0.142,9.857,3.937,10.98,9.256c0.183,0.867,0.229,1.775,0.24,2.666
	c0.031,2.463,0.012,4.927,0.01,7.39c0,2.104-0.894,3.293-2.916,3.894c-0.023,0.008-0.041,0.035-0.062,0.055H5.303z"/>
<path fill="#D84D8E" d="M20.25,20.798c-4.938-0.002-8.971-4.028-8.973-8.96c-0.002-4.961,4.018-8.966,8.999-8.964
	c4.942,0.003,8.957,4.026,8.952,8.969C29.223,16.777,25.189,20.801,20.25,20.798"/>
</svg>
