<?xml version="1.0" encoding="utf-8"?>
<!-- Generator: Adobe Illustrator 16.0.0, SVG Export Plug-In . SVG Version: 6.00 Build 0)  -->
<!DOCTYPE svg PUBLIC "-//W3C//DTD SVG 1.1//EN" "http://www.w3.org/Graphics/SVG/1.1/DTD/svg11.dtd">
<svg version="1.1" id="圖層_1" xmlns="http://www.w3.org/2000/svg" xmlns:xlink="http://www.w3.org/1999/xlink" x="0px" y="0px"
	 width="84.791px" height="85.117px" viewBox="0 0 84.791 85.117" enable-background="new 0 0 84.791 85.117" xml:space="preserve">
<path fill="#D84D8E" d="M42.68,1.876c22.468,0.006,40.626,18.175,40.623,40.649C83.3,65.044,65.12,83.193,42.583,83.175
	C20.133,83.16,1.989,64.961,2.004,42.476C2.018,20.014,20.197,1.871,42.68,1.876 M42.484,18.875
	c-0.671,0.048-1.55,0.103-2.428,0.174c-5.894,0.481-11.232,2.404-15.754,6.28c-4.023,3.45-6.484,7.762-6.595,13.168
	c-0.098,4.743,1.75,8.766,4.983,12.155c4.43,4.644,10.024,6.901,16.274,7.751c1.309,0.177,1.699,0.616,1.583,1.931
	c-0.114,1.284-0.343,2.563-0.386,3.847c-0.019,0.561,0.154,1.255,0.503,1.666c0.466,0.551,1.158,0.265,1.731-0.058
	c2.907-1.627,5.88-3.146,8.705-4.906c5.7-3.556,10.619-7.963,14.156-13.766c1.471-2.412,2.287-5.046,2.342-7.86
	c0.1-5.025-1.83-9.272-5.361-12.766C56.835,21.149,50.117,19.092,42.484,18.875"/>
<path fill="#FFFFFF" d="M42.483,18.875c7.634,0.218,14.353,2.274,19.752,7.617c3.531,3.492,5.462,7.738,5.363,12.766
	c-0.056,2.813-0.873,5.447-2.343,7.86c-3.537,5.802-8.457,10.209-14.157,13.765c-2.823,1.761-5.798,3.279-8.703,4.907
	c-0.574,0.32-1.265,0.606-1.732,0.058c-0.348-0.411-0.521-1.107-0.503-1.667c0.043-1.285,0.273-2.562,0.386-3.846
	c0.117-1.315-0.274-1.754-1.582-1.933c-6.251-0.848-11.844-3.106-16.274-7.75c-3.234-3.39-5.081-7.413-4.984-12.155
	c0.111-5.406,2.572-9.719,6.596-13.167c4.521-3.877,9.86-5.801,15.754-6.28C40.935,18.977,41.813,18.922,42.483,18.875
	 M42.107,37.691c0.061-0.032,0.122-0.065,0.183-0.1c0.246,0.309,0.496,0.616,0.738,0.928c1.368,1.767,2.699,3.563,4.129,5.277
	c0.296,0.353,1.031,0.642,1.429,0.52c0.401-0.123,0.644-0.788,0.934-1.229c0.059-0.091,0.021-0.247,0.021-0.373
	c0-2.928,0-5.855-0.002-8.783c0-0.188-0.011-0.379-0.041-0.563c-0.123-0.732-0.576-1.116-1.304-1.092
	c-0.729,0.026-1.181,0.44-1.209,1.185c-0.036,0.975-0.019,1.952-0.022,2.927c-0.002,0.892,0,1.784,0,2.966
	c-0.437-0.557-0.685-0.87-0.928-1.187c-1.324-1.723-2.647-3.443-3.965-5.169c-0.41-0.538-0.883-0.912-1.605-0.688
	c-0.716,0.225-0.938,0.794-0.94,1.47c-0.007,3.055-0.018,6.108,0.006,9.161c0.007,0.985,0.518,1.503,1.329,1.488
	c0.821-0.015,1.236-0.512,1.243-1.545C42.115,41.153,42.107,39.422,42.107,37.691 M54.043,34.794c1.233,0,2.422,0.016,3.609-0.005
	c0.932-0.017,1.452-0.479,1.441-1.259c-0.012-0.853-0.537-1.281-1.319-1.303c-1.668-0.043-3.339-0.042-5.007-0.004
	c-0.85,0.021-1.357,0.541-1.365,1.39c-0.023,3.15-0.027,6.301,0.003,9.45c0.007,0.771,0.412,1.347,1.267,1.358
	c1.731,0.023,3.465,0.022,5.197-0.001c0.736-0.01,1.17-0.444,1.219-1.177c0.049-0.737-0.344-1.194-1.061-1.333
	c-0.336-0.065-0.688-0.063-1.033-0.064c-0.967-0.008-1.935-0.003-2.938-0.003v-2.186c1.189,0,2.32,0.012,3.449-0.004
	c1-0.014,1.608-0.547,1.586-1.35c-0.022-0.776-0.598-1.245-1.566-1.252c-1.154-0.009-2.309-0.002-3.482-0.002V34.794z
	 M28.808,41.852v-1.703c0-2.107,0.012-4.216-0.006-6.322c-0.009-1.013-0.544-1.61-1.35-1.594c-0.775,0.018-1.242,0.589-1.243,1.563
	c-0.006,3.052-0.008,6.103,0.001,9.155c0.003,0.979,0.407,1.459,1.309,1.475c1.698,0.03,3.402,0.071,5.093-0.039
	c0.429-0.028,0.995-0.524,1.194-0.948c0.354-0.755-0.333-1.532-1.343-1.575C31.301,41.814,30.138,41.852,28.808,41.852
	 M35.088,38.267c0,1.667,0.007,3.333-0.003,5c-0.005,0.779,0.359,1.144,1.137,1.178c0.802,0.036,1.433-0.193,1.442-1.082
	c0.033-3.333,0.032-6.667,0.003-10c-0.007-0.823-0.538-1.204-1.4-1.156c-0.781,0.045-1.201,0.405-1.187,1.25
	C35.107,35.059,35.088,36.664,35.088,38.267"/>
<path fill="#D84D8E" d="M42.107,37.692c0,1.73,0.009,3.461-0.003,5.191c-0.007,1.033-0.423,1.529-1.244,1.544
	c-0.81,0.016-1.322-0.502-1.329-1.486c-0.023-3.054-0.013-6.108-0.005-9.161c0.001-0.677,0.223-1.247,0.94-1.47
	c0.721-0.226,1.194,0.148,1.605,0.687c1.316,1.727,2.641,3.446,3.964,5.168c0.242,0.317,0.492,0.63,0.928,1.188
	c0-1.184-0.002-2.074,0.001-2.966c0.002-0.977-0.015-1.953,0.022-2.928c0.027-0.745,0.478-1.159,1.207-1.184
	c0.729-0.026,1.183,0.357,1.305,1.09c0.031,0.186,0.041,0.376,0.041,0.564c0.003,2.928,0.002,5.855,0.002,8.783
	c0,0.126,0.038,0.282-0.021,0.372c-0.289,0.443-0.533,1.107-0.934,1.231c-0.396,0.122-1.134-0.167-1.428-0.521
	c-1.43-1.715-2.762-3.511-4.129-5.276c-0.242-0.313-0.492-0.619-0.739-0.929C42.229,37.625,42.168,37.659,42.107,37.692"/>
<path fill="#D84D8E" d="M54.043,34.794v2.257c1.175,0,2.328-0.007,3.482,0.002c0.969,0.007,1.545,0.477,1.566,1.252
	c0.023,0.804-0.587,1.336-1.586,1.35c-1.129,0.016-2.26,0.004-3.449,0.004v2.186c1.003,0,1.971-0.005,2.938,0.002
	c0.346,0.003,0.697,0,1.033,0.065c0.717,0.139,1.109,0.596,1.061,1.333c-0.049,0.732-0.483,1.167-1.219,1.177
	c-1.732,0.024-3.465,0.025-5.197,0.001c-0.855-0.012-1.26-0.589-1.268-1.358c-0.029-3.149-0.025-6.3-0.002-9.449
	c0.006-0.85,0.516-1.37,1.364-1.391c1.669-0.038,3.339-0.04,5.008,0.004c0.782,0.021,1.308,0.45,1.319,1.304
	c0.011,0.779-0.51,1.241-1.441,1.258C56.465,34.81,55.275,34.794,54.043,34.794"/>
<path fill="#D84D8E" d="M28.807,41.852c1.33,0,2.494-0.038,3.655,0.011c1.01,0.043,1.697,0.82,1.343,1.575
	c-0.199,0.424-0.765,0.92-1.194,0.948c-1.691,0.109-3.394,0.068-5.093,0.039c-0.902-0.017-1.306-0.496-1.309-1.476
	c-0.009-3.051-0.007-6.103-0.001-9.154c0.002-0.974,0.469-1.546,1.243-1.563c0.807-0.018,1.341,0.581,1.35,1.593
	c0.018,2.108,0.006,4.216,0.006,6.323V41.852z"/>
<path fill="#D84D8E" d="M35.088,38.267c0-1.604,0.019-3.208-0.008-4.811c-0.014-0.845,0.406-1.205,1.187-1.25
	c0.862-0.048,1.393,0.333,1.4,1.156c0.029,3.333,0.03,6.667-0.003,10c-0.009,0.889-0.64,1.118-1.442,1.082
	c-0.778-0.034-1.142-0.398-1.137-1.178C35.095,41.6,35.088,39.934,35.088,38.267"/>
</svg>
