<svg xmlns="http://www.w3.org/2000/svg" id="_&#x5716;&#x5C64;_1" data-name="&#x5716;&#x5C64; 1" viewBox="0 0 1995.07721 93.22732"><path d="M1995.07721,0c-42.21887,1.73431-79.78247,11.46667-112.06982,22.7146-33.77197,11.76611-63.90601,25.46802-100.56104,35.61206-73.82397,20.43311-176.23596,15.94604-262.2179,2.11011-52.55103-8.45605-105.50806-19.53711-155.35706-30.80908-98.22803-22.20996-201.93396-26.68799-307.89893-18.5791-74.81104,5.72607-143.349,19.86914-214.88098,30.13696-82.37109,11.82202-168.84399,18.51001-255.19104,24.72998-72.49902,5.22217-145.62305,10.15601-219.87903,9.52319C242.24316,74.37622,119.89838,57.72754,0,39.4278v9.01471c78.43939,8.5672,152.16974,27.08014,231.00446,36.2782,80.45898,9.38599,163.99304,8.82983,246.15601,8.20483,122.69604-.93481,247.07397-1.97485,363.177-16.54883,107.54004-13.5,204.6969-38.23511,312.75391-51.08203,27.84399-3.31006,56.89404-5.83105,86.21301-4.46997,28.02905,1.30103,54.88306,6.0769,81.06909,10.98291,126.75989,23.74902,258.45093,52.62695,392.6239,46.61206,91.90698-4.12012,188.88501-38.99902,279.323-42.9751,.92285-.04059,1.84009-.0741,2.75684-.10736V0Z" style="fill: #e4877c;"></path></svg>