<?xml version="1.0" encoding="utf-8"?>
<!-- Generator: Adobe Illustrator 16.0.0, SVG Export Plug-In . SVG Version: 6.00 Build 0)  -->
<!DOCTYPE svg PUBLIC "-//W3C//DTD SVG 1.1//EN" "http://www.w3.org/Graphics/SVG/1.1/DTD/svg11.dtd">
<svg version="1.1" id="_圖層_1" xmlns="http://www.w3.org/2000/svg" xmlns:xlink="http://www.w3.org/1999/xlink" x="0px" y="0px"
	 width="1225.5px" height="147.5px" viewBox="-585 -117.5 1225.5 147.5" enable-background="new -585 -117.5 1225.5 147.5"
	 xml:space="preserve">
<path fill="#8D654F" d="M-552.588,14.096c1.07-0.673,2.138-1.346,3.208-2.02c5.762-3.682,11.702-7.484,17.978-9.307
	c4.534-1.346,8.851-1.386,12.455-0.117l0.93,0.393c1.109,0.477,2.079,1.03,3.129,1.667c0.693,0.433,1.386,0.87,2.118,1.266
	c4.852,2.652,9.504,0.473,13.741-2.376c-0.593,0.91-0.989,1.979-1.147,3.246c-0.04,0.633-0.04,1.23-0.059,1.823
	c-0.02,2.14-0.06,4.079-1.328,5.782c-1.404,2.14-3.524,3.723-5.563,5.306l-0.276,0.199c-4.455,3.442-9.188,6.849-14.138,10.178
	h2.753c4.177-2.733,8.336-5.705,12.415-8.831l0.375-0.28c2.099-1.663,4.257-3.326,5.801-5.662c0.852-1.306,1.387-2.772,1.505-4.235
	c0.02-0.636,0.02-1.27,0.02-1.903c-0.02-2.059-0.039-4.039,1.406-5.622c1.366-1.586,3.109-2.616,4.97-3.722
	c1.743-1.03,3.544-2.1,4.988-3.646l-0.495-0.473c8.891-6.258,17.9-13.03,25.958-20.711c2.456-2.296,4.792-4.792,7.069-7.208
	c1.366-1.466,2.791-2.969,4.217-4.435c3.188-3.166,7.543-7.088,12.89-8.988c3.484-1.346,6.95-1.626,10.097-0.989
	c0.04,0.236,0.08,0.433,0.12,0.673c0.515,2.969,0.791,4.472,0.969,5.185c-4.455,2.656-8.592,5.822-12.276,9.464
	c-0.296,0.28-0.593,0.597-0.91,0.913c-2.218,2.296-4.732,4.832-4.555,8.274c0.1,1.783,1.288,2.933,2.456,4.002
	c0.832,0.79,1.623,1.502,1.979,2.453c0.158,0.516,0.12,1.069,0.1,1.663c-0.04,0.753-0.08,1.546,0.217,2.259
	c0.417,1.187,1.406,1.979,2.278,2.693c0.198,0.156,0.396,0.316,0.595,0.473c0.989,0.753,1.583,1.823,1.721,3.089
	c0.179,1.743-0.475,3.722-1.721,5.148c-1.347,1.663-3.664,3.406-5.704,4.992c-0.771,0.553-1.504,1.106-2.138,1.663l-16.217,12.513
	l-0.336-0.08l0.06,0.316l-1.426,1.109l1.009,0.237c0.238,0.04,0.477,0.12,0.713,0.16l0.06,0.356l0.297-0.2
	c2.772,0.949,5.247,3.049,6.731,5.781c0.635,1.15,1.069,2.376,1.328,3.566h1.721c-0.276-1.467-0.791-2.973-1.563-4.359
	c-1.545-2.849-3.921-5.068-6.673-6.215c1.446-1.149,3.96-3.089,6.535-5.108l-0.278,0.473c7.723,5.308,15.643,10.377,23.682,15.209
	h5.642c-6.791-4.516-13.721-8.871-20.749-12.99l-0.515,0.83c6.098,3.922,12.177,7.961,18.195,12.08
	c-8.334-5.545-16.909-10.851-25.601-15.879c1.486-1.15,2.991-2.336,4.317-3.366l-0.219,0.353
	c10.177,6.378,20.829,12.08,31.699,16.988l0.437-0.869c-9.96-5.546-21.107-11.524-31.442-16.869c2.08-1.586,3.564-2.772,3.604-2.772
	c0.771-0.673,1.623-1.307,2.514-1.979c2.06-1.546,4.335-3.249,5.86-5.385c5.801,3.642,11.88,6.848,18.098,9.581l0.455-0.87
	c-5.722-3.566-11.762-6.771-17.978-9.504c0.218-0.396,0.417-0.793,0.595-1.19c0.613-1.386,0.812-3.125,0.435-4.712
	c3.98,3.326,8.197,6.338,12.613,8.991l0.573-0.793c-4.335-3.722-9.027-7.168-13.998-10.137l-0.02,0.04
	c-0.357-0.517-0.792-0.99-1.346-1.386c-0.158-0.16-0.317-0.237-0.475-0.396c-1.129-0.87-2.198-1.743-2.12-3.129
	c0-0.197,0-0.434,0.021-0.673c0.04-0.633,0.06-1.386-0.198-2.176c-0.555-1.346-1.565-2.296-2.435-3.089
	c-1.506-1.426-2.694-2.496-1.625-5.229c0.852-1.979,2.416-3.642,3.94-5.225c0.238-0.24,0.475-0.477,0.693-0.713
	c3.642-3.682,7.741-6.891,12.236-9.624h0.078v-0.04l0.199-0.157l-0.099-0.517l0.099-0.673l-0.219,0.08l-0.97-5.028
	c3.683,1.03,6.872,3.406,9.089,6.968c3.582,5.742,4.89,12.593,6.136,19.208c0.238,1.186,0.477,2.453,0.713,3.642
	c1.544,8.038,4.139,15.839,7.683,23.207c0.198,0.357,0.415,0.79,0.613,1.187c1.01,2.02,2.099,4.199,3.684,5.822
	c-3.268-2.296-6.792-4.199-10.496-5.782l-3.84-1.583l3.366,2.453c3.505,2.536,7.306,4.635,11.267,6.258l2.118,0.91
	c1.366,4.278,5.604,7.368,9.147,9.94c0.376,0.236,0.733,0.514,1.09,0.793c1.306,0.95,2.672,2.097,3.84,3.406h2.258
	c2.019-2.536,4.97-4.359,8.177-4.952c0.832-0.157,1.663-0.197,2.535-0.197c0.891,0,1.821-0.039,2.772-0.239
	c1.504-0.316,2.929-1.267,4.275-2.296l-0.237,0.316c2.911,2.456,5.86,4.952,8.851,7.368h2.414
	c-3.544-2.693-7.068-5.389-10.552-8.081c0.751-0.594,1.464-1.267,2.138-1.899c0.713-0.634,1.366-1.227,2.019-1.743l0.99-0.87
	c0.1-0.08,0.198-0.199,0.298-0.276c0.653-0.557,1.465-1.27,1.485-2.416c0.02-0.673-0.437-2.456-1.03-4.675
	c-0.06-0.236-0.118-0.473-0.178-0.709c13.226,6.771,25.264,13.579,36.609,20.671h2.991c-12.831-8.318-26.038-15.603-39.324-21.624
	l-0.336,0.713c-0.118-0.437-0.198-0.79-0.257-1.03c-0.158-0.593-0.316-1.186-0.475-1.783c-0.278-1.146-0.575-2.256-0.892-3.366
	l-0.951,0.24c0.218,1.106,0.437,2.256,0.673,3.405c0.12,0.593,0.238,1.187,0.357,1.82l1.109,5.308
	c0.079,0.357,0.159,0.713,0.138,0.99c-0.04,0.434-0.455,0.79-0.911,1.146c-0.118,0.16-0.257,0.24-0.375,0.356l-5.03,4.319
	c-1.188,1.029-2.554,2.136-4.157,2.532c-0.753,0.16-1.564,0.16-2.396,0.236c-0.952,0-1.941,0.08-2.871,0.32
	c-3.485,0.71-6.653,2.849-8.594,5.741c-1.384-1.626-3.029-2.973-4.454-4.002c-0.437-0.276-0.871-0.553-1.308-0.87
	c-3.208-2.219-6.712-4.672-8.354-7.997l0.196,0.076l-0.236-0.156c-0.1-0.2-0.198-0.396-0.278-0.633
	c0.12,0.036,0.238,0.076,0.376,0.116c2.456,0.437,4.674-0.553,6.812-1.543c0.455-0.16,0.891-0.396,1.346-0.557l3.683-1.663
	c2.021-0.87,5.248-2.336,8.692-3.879c4.99-2.219,10.652-4.752,13.504-6.018c5.761-2.616,9.246-0.793,14.512,1.979l21.859,11.007
	c2.634,1.346,4.792,2.536,6.376,4.436c1.128,1.266,1.603,2.852,2.098,4.515c0.278,0.91,0.555,1.823,0.931,2.692
	c0.02,0.04,0.04,0.08,0.04,0.08c0,0.04,0,0.04,0,0.04c-1.386-0.833-2.851-1.702-4.277-2.575c-1.07-0.634-2.1-1.267-3.109-1.86
	c-11.385-6.851-20.829-12.356-29.778-17.305l-0.495,0.79c11.682,7.404,24.174,14.929,39.342,23.72l0.118,0.04h0.02
	c0.06,0.08,0.138,0.16,0.218,0.24h1.881c-0.12-0.08-0.238-0.2-0.356-0.317c0.852-0.319,1.485-1.069,1.741-1.862
	c0.376-1.149,0.04-2.612-1.583-3.286c-1.228-0.557-2.277-0.159-2.951,0.514c-0.138-0.437-0.256-0.83-0.395-1.307
	c-0.535-1.742-1.089-3.563-2.376-5.028c-1.881-2.256-4.495-3.605-6.811-4.792l-21.662-10.97c-5.523-2.889-9.504-5.028-15.939-2.099
	c-4.375,1.903-14.869,6.575-20.492,9.07l-5.445,2.416l-0.276,0.117c-2.752,1.306-5.604,2.576-8.118,1.466
	c-0.1-0.553-0.14-1.149-0.12-1.743l-0.97-0.08c-0.04,0.396-0.04,0.793-0.04,1.11c-0.237-0.157-0.495-0.397-0.733-0.633
	c-1.563-1.623-2.612-3.762-3.622-5.822l-0.437-0.87c-3.484-7.248-6.019-14.889-7.523-22.81c-0.278-1.346-0.555-2.772-0.812-4.239
	c-1.763-9.264-3.762-19.758-12.158-25.146c-1.623-0.95-3.306-1.663-5.068-2.02c-0.06-0.04-0.118-0.077-0.218-0.117l-0.713-0.12
	l0.02,0.04c-3.188-0.516-6.593-0.12-10.157,1.187c-4.692,1.743-9.544,5.108-13.661,9.467c-1.446,1.463-2.871,3.009-4.257,4.472
	c-2.237,2.376-4.554,4.872-6.97,7.128c-3.523,3.406-7.504,6.811-12.196,10.573c-7.603,5.942-16.434,12.316-26.216,18.852
	c-5.84,3.522-8.652,2.929-14.176-0.673c-0.515-0.316-1.148-0.597-1.723-0.833l-1.188-0.473l-0.356-0.12
	c-0.832-0.276-1.801-0.553-2.673-0.673c-0.417-0.08-1.446-0.237-2.099-0.237c-8.218-0.316-15.522,3.722-22.929,8.274
	c-12.435,8.197-25.304,15.405-38.49,21.584h3.129C-571.834,25.383-562.052,19.994-552.588,14.096z M-313.405,26.332
	c0.138-0.236,0.711-1.029,1.841-0.477c1.088,0.477,0.892,1.347,0.792,1.623c-0.198,0.597-0.751,1.069-1.504,1.069
	c-0.455-0.633-0.872-1.346-1.208-2.06C-313.466,26.412-313.445,26.372-313.405,26.332z"/>
<path fill="#8D654F" d="M-449.391,28.904l-0.475,0.833c0.237,0.157,0.455,0.317,0.673,0.397h2.118
	C-447.847,29.737-448.62,29.301-449.391,28.904z"/>
<path fill="#8D654F" d="M-447.807,28.432c0.673,0.593,1.326,1.146,2,1.703h1.901c-1.089-0.794-2.179-1.627-3.287-2.456
	L-447.807,28.432z"/>
<path fill="#8D654F" d="M-447.906,22.927c0.218,0.156,0.456,0.316,0.653,0.437c-2.078-1.27-4.177-2.536-6.276-3.763l-0.535,0.79
	c4.733,3.329,9.563,6.614,14.434,9.744h4.456c-4.079-2.693-8.158-5.389-12.176-8.041L-447.906,22.927z"/>
<path fill="#8D654F" d="M-415,24.272c-8.989-5.861-18.393-11.327-27.937-16.315l-0.475,0.83c1.148,0.753,2.296,1.466,3.464,2.219
	l-0.098,0.157c10.315,6.614,20.73,13.069,30.413,18.972h3.248c-3.011-1.823-5.98-3.646-8.911-5.389L-415,24.272z"/>
<path fill="#8D654F" d="M-428.562,0.196l3.702,2.376c8.119,5.345,16.81,11.007,24.731,16.195l0.573-0.793
	c-8.889-7.008-18.473-13.263-28.512-18.651L-428.562,0.196z"/>
<path fill="#8D654F" d="M-404.9,6.928c-7.347-4.949-15.226-10.653-22.195-16.039c1.306,0.713,2.612,1.386,3.938,2.02l0.495-0.83
	c-4.534-3.289-9.424-6.218-14.513-8.634l-0.495,0.793c3.267,2.376,6.673,4.552,10.197,6.455l-0.595,0.673
	c6.771,6.535,14.414,12.037,22.672,16.432L-404.9,6.928z"/>
<path fill="#8D654F" d="M-432.877-20.357c6.533,3.525,12.89,7.167,19.482,11.05l0.555-0.793c-5.94-4.672-12.535-8.434-19.623-11.167
	L-432.877-20.357z"/>
<path fill="#8D654F" d="M-415.929-21.86c-4.535-3.249-9.425-6.178-14.514-8.634l-0.495,0.793c4.574,3.326,9.464,6.255,14.494,8.711
	L-415.929-21.86z"/>
<path fill="#8D654F" d="M-416.464-26.296l3.662,1.899l-3.127-2.692c-3.227-2.813-6.832-5.225-10.652-7.245l-3.684-1.943l3.129,2.732
	C-423.869-30.731-420.266-28.275-416.464-26.296z"/>
<path fill="#8D654F" d="M-423.394-20.474c2.574,1.542,5.227,2.969,7.919,4.275l0.495-0.83c-4.85-3.485-10.059-6.575-15.444-9.187
	l-0.495,0.87c1.109,0.793,2.258,1.546,3.405,2.296c-3.306-1.583-6.711-2.929-10.217-4.079l-0.376,0.873
	c4.633,2.572,9.504,4.712,14.494,6.295L-423.394-20.474z"/>
<path fill="#8D654F" d="M-429.512-13.783c6.296,4.395,12.79,8.554,19.324,12.393l0.555-0.79c-4.732-3.682-9.762-7.048-15.009-10.061
	c0.198,0.12,0.396,0.2,0.575,0.28l0.455-0.833c-5.267-3.446-10.989-6.139-17.008-8.038l-0.377,0.87
	c3.961,1.979,7.861,3.882,11.782,5.665L-429.512-13.783z"/>
<path fill="#8D654F" d="M-429.057,6.928c4.89,3.486,9.821,6.931,14.791,10.337c-7.227-4.872-14.771-9.387-22.474-13.546
	l-0.495,0.833c7.801,5.305,15.938,10.297,24.176,14.692l0.495-0.833c5.842,4.039,11.722,7.921,17.622,11.724h2.494
	c-11.78-8.238-23.878-16.316-36.074-24.04L-429.057,6.928z"/>
<path fill="#8D654F" d="M-415.474,21.264c4.614,2.929,9.464,5.938,14.276,8.871h3.188c-5.483-3.486-11.167-6.735-16.989-9.704
	L-415.474,21.264z"/>
<path fill="#8D654F" d="M-394.902,25.459c2.08,1.663,4.277,3.249,6.515,4.676h3.029c-2.871-1.983-5.882-3.883-9.029-5.466
	L-394.902,25.459z"/>
<path fill="#8D654F" d="M-375.834,30.135h0.812c-0.12-0.08-0.238-0.24-0.357-0.397L-375.834,30.135z"/>
<path fill="#8D654F" d="M-365.162,26.965c0.871,1.07,1.741,2.14,2.632,3.17h1.643c-1.188-1.23-2.356-2.536-3.524-3.803
	L-365.162,26.965z"/>
<path fill="#8D654F" d="M-371.064,29.341c0.238,0.317,0.477,0.554,0.713,0.794h1.446c-0.475-0.477-0.952-0.953-1.426-1.427
	L-371.064,29.341z"/>
<path fill="#8D654F" d="M-365.38,25.065c1.841,1.663,3.722,3.406,5.583,5.069h2.119c-2.357-1.943-4.693-3.883-7.069-5.822
	L-365.38,25.065z"/>
<path fill="#8D654F" d="M-355.917,21.344c-0.256-0.24-0.515-0.396-0.771-0.597l-0.595,0.753c3.486,2.853,7.108,5.782,10.792,8.635
	h2.515c-0.139-0.08-0.278-0.2-0.417-0.317c0.158,0.117,0.316,0.237,0.475,0.317h2.813c-4.852-3.09-9.722-6.139-14.592-9.147
	L-355.917,21.344z"/>
<path fill="#8D654F" d="M-354.45,12.156c8.492,5.979,17.343,12.036,26.294,17.979h3.049c-9.644-6.415-19.344-12.754-28.81-18.771
	L-354.45,12.156z"/>
<path fill="#8D654F" d="M-318.712,23.243c0.593,0.513,1.208,1.029,1.841,1.583l0.653-0.714c-0.553-0.593-1.128-1.186-1.723-1.742
	c-4.732-4.355-10.454-7.285-15.997-10.137c-5.068-2.653-10.317-5.345-14.732-9.107l-0.653,0.713
	c4.832,4.832,10.89,7.961,16.751,11.01C-327.82,17.301-322.909,19.837-318.712,23.243z"/>
<path fill="#8D654F" d="M-354.49,16.512c6.296,4.436,12.85,8.987,19.739,13.623h3.011c-6.99-4.596-14.494-9.544-22.215-14.416
	L-354.49,16.512z"/>
<path fill="#8D654F" d="M-546.608,25.459l-0.417-0.91c-1.286,0.554-2.554,1.11-3.841,1.703c-0.673,0.276-1.346,0.554-2.039,0.87
	c-0.673,0.319-1.346,0.597-2.02,0.913c-1.683,0.753-3.426,1.543-5.188,2.1h3.98c2.515-1.15,4.97-2.376,7.385-3.646
	C-548.034,26.172-547.321,25.775-546.608,25.459z"/>
<path fill="#8D654F" d="M-532.789,13.779l-2.454,1.859l2.911-1.03c3.069-1.03,5.92-2.573,8.494-4.512l2.435-1.823l-2.891,0.95
	C-527.343,10.293-530.194,11.84-532.789,13.779z"/>
<path fill="#8D654F" d="M-467.449-3.446c1.466-1.466,2.971-2.933,4-4.832c0.693-1.346,1.128-2.772,1.544-4.199
	c0.375-1.146,0.751-2.376,1.267-3.522c2.732-6.535,7.524-12.316,13.464-16.278l-0.515-0.83
	c-7.821,4.752-13.741,12.673-16.235,21.741c-0.713,2.849-2.852,4.948-4.93,6.968c-0.437,0.437-0.872,0.873-1.288,1.27
	c-9.386,9.344-18.729,18.135-27.759,26.136c-2.218,2.019-4.476,4.038-6.693,5.938l-1.386,1.19h1.544
	c11.92-9.624,23.84-20.435,35.481-32.078C-468.459-2.456-467.944-2.973-467.449-3.446z"/>
<path fill="#8D654F" d="M-465.29,11.76c-3.762,2.572-7.248,5.621-10.375,8.987l-3.009,3.249l3.642-2.496
	c3.782-2.612,7.287-5.701,10.375-9.027l2.969-3.249L-465.29,11.76z"/>
<path fill="#8D654F" d="M176.025,27.122c4.988-3.799,12.83-5.582,17.502-1.347c0.437,0.396,0.833,0.793,1.229,1.229
	c1.307,1.347,2.612,2.732,4.552,2.813c1.586,0.077,2.933-0.873,4.199-1.742c1.029-0.714,1.979-1.387,3.089-1.587
	c1.583-0.276,3.049,0.477,4.672,1.307c0.713,0.356,1.427,0.753,2.18,1.03c1.227,0.437,2.416,0.673,3.563,0.673
	c7.008,0,12.869-7.602,17.701-13.936c0.356-0.477,0.713-0.954,1.109-1.427c5.108-6.615,11.957-12.157,18.611-17.545
	c10.574-8.551,21.504-17.422,25.106-30.531c0.156-0.593,0.316-1.226,0.477-1.859c1.227-4.672,2.376-9.031,6.968-11.247
	c1.347-0.633,2.336-0.673,3.563-0.04c2.813,1.466,5.981,4.355,8.478,7.721c3.166,4.239,4.195,9.187,2.77,13.226
	c-0.554,1.663-1.504,3.169-2.533,4.752c-0.477,0.713-0.949,1.426-1.426,2.219c-3.486,5.978-4.199,13.503-1.979,20.078l0.12,0.356
	l0.353-0.04c7.328-0.873,14.853,2.456,19.168,8.394c1.029,1.347,1.899,2.929,2.772,4.436c1.623,2.89,3.326,5.861,6.099,7.841
	c0.633,0.514,1.426,0.95,2.139,1.387c1.979,1.146,3.8,2.176,4.355,4.118c0.317,0.87,0.237,1.78,0.077,2.733h0.993
	c0.116-0.99,0.196-2.02-0.12-3.013c-0.674-2.296-2.772-3.482-4.792-4.672c-0.713-0.396-1.466-0.87-2.1-1.347
	c-2.612-1.819-4.159-4.592-5.781-7.524c-0.87-1.543-1.78-3.125-2.85-4.552c-4.436-6.099-12.12-9.544-19.641-8.831
	c-1.983-6.178-1.229-13.226,2.056-18.891c0.396-0.71,0.873-1.463,1.347-2.176c1.029-1.546,2.06-3.129,2.695-4.952
	c0.554-1.663,0.75-3.482,0.594-5.305c5.345,5.625,10.413,11.723,15.009,18.018l0.79-0.553c-4.672-6.455-9.821-12.633-15.286-18.375
	l-0.553,0.513c-0.316-2.849-1.506-5.782-3.486-8.434c-2.612-3.446-5.861-6.455-8.83-7.958c-0.594-0.32-1.146-0.516-1.743-0.556
	c3.565-2.176,8.555-1.07,12.04,0.713c1.623,0.873,3.206,1.899,4.792,2.893c2.572,1.703,5.226,3.442,8.234,4.355
	c2.376,0.753,4.675,0.95,6.971,0.753l6.259,9.264c-2.772-2.772-5.861-5.225-9.188-7.285l-0.557,0.83
	c3.723,2.26,7.128,5.029,10.137,8.198l0.477-0.477l9.424,13.903c1.03,1.583,2.22,3.326,3.963,4.396
	c1.187,0.75,2.572,1.106,3.879,1.463c0.396,0.08,0.793,0.2,1.189,0.316c7.998,2.376,13.739,8.951,19.324,15.366
	c0.554,0.633,1.106,1.266,1.663,1.899c1.743,1.982,3.482,3.802,5.781,4.872c1.663,0.753,3.406,0.99,5.148,1.23
	c0.79,0.077,1.663,0.236,2.453,0.393c5.229,1.11,9.9,4.555,12.437,9.267c0.396,0.713,0.789,1.507,1.106,2.256
	c0.636,1.387,1.27,2.772,2.219,4.003h1.267c-0.117-0.08-0.236-0.2-0.316-0.317c-0.95-1.229-1.583-2.615-2.296-4.118
	c-0.317-0.714-0.714-1.507-1.11-2.3c-2.692-4.948-7.601-8.591-13.105-9.74c-0.834-0.157-1.703-0.316-2.496-0.396
	c-1.743-0.237-3.406-0.473-4.909-1.187c-2.099-0.95-3.762-2.692-5.425-4.595c-0.557-0.633-1.149-1.266-1.703-1.899
	c-5.665-6.495-11.523-13.226-19.721-15.682c-0.437-0.08-0.833-0.237-1.27-0.316c-1.267-0.357-2.532-0.673-3.563-1.347
	c-1.583-0.95-2.692-2.612-3.722-4.079l-16.235-23.997c7.918-1.109,15.362-6.731,20.71-12c1.106-1.07,2.217-2.216,3.326-3.366
	c6.455-6.495,13.106-13.266,21.856-15.206c1.311-0.237,2.656-0.437,3.923-0.633c3.405-0.437,6.892-0.913,9.584-3.009
	c1.029-0.873,1.899-1.863,2.612-2.932c-0.08,0.16-0.12,0.316-0.16,0.477l-0.116,0.396c-0.2,0.713-0.356,1.346-0.634,1.899
	c-0.833,1.783-2.732,2.929-4.198,3.882l0.517,0.87c1.583-1.03,3.563-2.296,4.552-4.275c0.356-0.713,0.517-1.426,0.673-2.14
	l0.16-0.396c0.79-3.009,2.137-5.782,3.959-8.316l-0.753-0.555c-0.437,0.555-0.83,1.188-1.227,1.823
	c1.583-4.554,3.405-9.662,6.928-13.384c1.783-1.901,4.319-3.406,7.012-4.041c0.83,1.346,1.703,2.694,2.612,3.96
	c0.517,0.832,1.07,1.663,1.583,2.494l-0.553,0.515l2.336,2.416c0.159,0.317,0.356,0.633,0.517,0.912
	c1.979,4.117,3.049,9.939-0.08,13.939c-0.873,1.109-1.939,1.939-3.09,2.849c-1.189,0.953-2.376,1.903-3.325,3.089
	c-3.405,4.436-2.14,10.297-0.95,15.999c1.227,5.822,2.376,11.327-1.029,15.286c-0.793,0.95-1.783,1.663-2.813,2.456
	c-0.833,0.633-1.703,1.266-2.496,2.02c-0.79,0.83-1.463,1.743-2.136,2.652c-0.793,1.15-1.587,2.22-2.696,3.089
	c-1.066,0.91-2.452,1.506-3.722,2.059c-0.317,0.157-0.634,0.317-0.95,0.477c-8.947,4.039-15.759,11.72-21.816,18.492l0.709,0.633
	c5.982-6.691,12.793-14.296,21.504-18.254c0.316-0.16,0.633-0.317,0.95-0.437c1.346-0.593,2.772-1.227,3.962-2.216
	c1.146-0.913,2.06-2.139,2.85-3.289c0.633-0.87,1.306-1.739,2.059-2.533c0.714-0.713,1.547-1.346,2.376-1.939
	c1.03-0.753,2.06-1.546,2.93-2.576c3.762-4.315,2.496-10.293,1.27-16.115c-1.149-5.465-2.376-11.127,0.79-15.206
	c0.873-1.15,1.982-1.983,3.129-2.893c1.149-0.95,2.336-1.859,3.289-3.049c2.02-2.612,2.452-5.9,1.979-9.067l18.491,22.49
	l-0.356,0.32l32.077,34.927l0.713-0.713l-31.521-34.213l0.393-0.28l-19.721-23.957l-0.316,0.238
	c-0.236-1.029-0.513-2.059-0.87-3.011l24.75,25.663l-0.673,0.473c-1.03-1.109-2.217-2.139-3.486-3.009l-0.553,0.793
	c3.009,2.096,5.385,4.909,6.968,8.234l0.873-0.434c-0.396-0.833-0.833-1.626-1.346-2.416c5.385,6.018,12.116,10.85,18.61,15.482
	c6.415,4.555,12.99,9.268,18.295,15.089l0.713-0.633c-5.385-5.942-11.999-10.694-18.454-15.246
	c-7.444-5.349-15.206-10.89-20.827-18.258l1.423,1.466l0.676-0.673l-28.274-29.303c-1.03-1.823-2.22-3.644-3.366-5.347
	c-0.793-1.228-1.623-2.416-2.376-3.682c1.819-0.238,3.683-0.04,5.386,0.792c3.169,1.504,4.908,4.594,6.811,7.841
	c1.623,2.773,3.326,5.664,5.938,7.525c1.626,1.188,3.486,1.861,5.386,2.296l-0.394,0.396l20.671,19.799l0.673-0.713L426.413-82.41
	c1.782,0.356,3.605,0.515,5.425,0.635c4.199,0.356,8.158,0.633,11.247,2.971c2.893,2.136,4.595,5.782,6.258,9.264
	c2.216,4.595,4.436,9.424,9.504,10.377c1.106,0.197,2.216,0.157,3.246,0.157c1.266-0.04,2.496-0.08,3.642,0.24
	c2.693,0.79,4.516,3.246,6.259,5.938l17.701,26.689c2.336,3.525,4.752,6.811,8.435,8.041c4.275,1.386,8.434-0.437,12.473-2.259
	c2.376-1.03,4.832-2.096,7.288-2.533c1.227-0.237,2.376-0.277,3.522-0.237c1.546,4.039,1.586,8.591,0.16,12.63l-0.08,0.24
	c-0.316,0.713-0.554,1.463-0.477,2.296c0,0.237,0.08,0.513,0.16,0.753c0.04,0.276,0.08,0.513,0.08,0.75
	c0,0.953-0.794,1.743-2.456,2.456c-4.516,1.979-9.345,3.249-14.256,3.762l0.119,0.99c0.237-0.08,0.474-0.08,0.714-0.117l-0.356,0.75
	L492.11-12.95l-0.356,0.316l0.434-0.477c-6.455-5.901-13.343-11.483-20.431-16.592l-0.597,0.793
	c7.088,5.069,13.899,10.61,20.317,16.512l-0.08,0.08l14.336,15.999l0.75-0.637l-1.307-1.423c2.536,1.187,5.309,2.573,7.288,4.752
	c0.473,0.473,0.869,1.03,1.266,1.583c0.554,0.713,1.11,1.426,1.783,2.06c1.703,1.703,3.959,2.612,6.139,3.562l0.789,0.316
	c4.516,1.983,8.831,4.396,12.793,7.288l0.594-0.793c-4.039-2.93-8.395-5.385-12.99-7.365l-0.793-0.356
	c-2.136-0.87-4.275-1.783-5.858-3.326c-0.633-0.593-1.109-1.306-1.662-2.02c-0.437-0.557-0.874-1.109-1.347-1.623
	c-2.14-2.339-5.148-3.802-7.765-5.069c4.752-0.596,9.388-1.863,13.783-3.762c2.02-0.873,3.049-1.983,3.049-3.329
	c0-0.316-0.08-0.633-0.16-0.95c-0.04-0.236-0.116-0.473-0.116-0.633c-0.08-0.633,0.156-1.267,0.396-1.9l0.076-0.24
	c1.507-4.115,1.507-8.711,0.08-12.83c6.179,0.753,11.644,5.188,17.385,9.82c6.139,4.992,12.554,10.137,20.154,10.694
	c3.249,0.236,6.455-0.477,9.544-1.11c2.3-0.477,4.676-0.95,7.012-1.07c11.84-0.593,22.097,7.721,30.571,15.959
	c0.633,0.713,1.346,1.346,2.059,2.06c6.335,6.178,12.79,12.513,20.234,16.792h2.02c-7.998-4.199-14.889-10.931-21.62-17.505
	c-0.674-0.673-1.347-1.346-2.06-2.02c-8.595-8.394-19.088-16.908-31.244-16.275c-2.416,0.16-4.832,0.633-7.168,1.109
	c-3.01,0.633-6.179,1.267-9.268,1.07c-7.324-0.517-13.583-5.545-19.641-10.457c-5.702-4.672-11.644-9.424-18.375-10.057
	c-0.08-0.197-0.156-0.396-0.236-0.553l-0.873,0.396c0,0.037,0,0.037,0,0.077c-1.066-0.04-2.176,0-3.326,0.24
	c-2.532,0.433-5.068,1.543-7.484,2.612c-4.079,1.783-7.878,3.486-11.76,2.216c-3.405-1.146-5.701-4.275-7.921-7.681l-17.702-26.689
	c-1.859-2.853-3.838-5.465-6.848-6.298c-1.27-0.356-2.616-0.356-3.882-0.316c-1.07,0.04-2.06,0.04-3.089-0.12
	c-4.516-0.87-6.572-5.225-8.791-9.857c-1.703-3.606-3.446-7.328-6.495-9.624c-3.365-2.456-7.641-2.851-11.8-3.169
	c-3.882-0.317-7.961-0.633-11.087-2.851c-2.456-1.741-4.079-4.514-5.625-7.206c-1.899-3.248-3.839-6.575-7.244-8.238
	c-1.703-0.871-3.963-1.188-6.379-0.792c-0.393-0.633-0.713-1.306-1.029-1.979l-0.87,0.435c0.237,0.595,0.554,1.148,0.87,1.743
	c-2.376,0.593-4.908,1.939-7.165,4.315c-3.686,3.881-5.505,9.109-7.168,13.781c-1.029,2.931-2.299,6.573-5.031,8.712
	c-2.492,1.979-5.702,2.376-9.067,2.849c-1.347,0.16-2.732,0.396-4.039,0.637c-9.067,1.979-15.839,8.867-22.333,15.522
	c-1.11,1.11-2.22,2.216-3.326,3.326c-8.317,8.158-15.285,11.167-20.671,11.723l-0.199-0.28l-0.514,0.356
	c-2.496,0.16-4.675-0.156-6.415-0.713c-2.893-0.91-5.505-2.613-8.041-4.275c-1.543-0.99-3.205-2.06-4.868-2.929
	c-4.199-2.14-10.493-3.329-14.416,0.393c-0.236,0.08-0.477,0.16-0.753,0.32c-5.028,2.376-6.255,7.205-7.484,11.88
	c-0.156,0.633-0.316,1.227-0.474,1.82c-3.485,12.83-13.859,21.187-24.789,30.058c-6.655,5.385-13.543,11.007-18.771,17.738
	c-0.396,0.477-0.713,0.953-1.109,1.426c-5.425,7.048-12.196,15.842-20.114,12.91c-0.713-0.236-1.426-0.633-2.14-0.99
	c-1.663-0.829-3.365-1.742-5.269-1.386c-1.306,0.236-2.412,0.989-3.442,1.743c-1.189,0.833-2.339,1.622-3.646,1.582
	c-1.503-0.076-2.612-1.266-3.839-2.532c-0.437-0.437-0.833-0.873-1.27-1.267c-5.108-4.595-13.463-2.772-18.728,1.307
	c-1.507,1.146-2.853,2.416-4.159,3.763h1.387C173.729,29.104,174.836,28.075,176.025,27.122L176.025,27.122z"/>
<path fill="#8D654F" d="M243.346,14.889c3.879-5.032,7.521-9.824,12.83-12.713l-0.477-0.87c-5.465,3.009-9.384,8.078-13.146,12.986
	c-2.296,3.008-4.672,6.138-7.444,8.75c-2.933,2.813-6.338,5.032-9.82,7.092h1.899c3.009-1.823,5.981-3.883,8.594-6.379
	C238.594,21.104,241.007,17.938,243.346,14.889z"/>
<path fill="#8D654F" d="M273.797-11.92L262.511,3.125c0,0.04-0.08,0.08-0.08,0.16l0.793,0.513l0,0c0,0,0.08,0.04,0.16,0.08
	c0,0.04,0.036,0.12,0.036,0.12c0.04,0.316-0.316,0.633-0.593,0.95l-6.968,6.495l0.713,0.713l6.888-6.495
	c0.317-0.317,0.953-0.913,0.953-1.703c0-0.437-0.28-0.753-0.597-0.913l10.734-14.412L273.797-11.92z"/>
<path fill="#8D654F" d="M276.45,4.828l-0.794-0.513c-5.818,9.621-12.986,18.294-21.304,25.82h1.427
	C263.856,22.727,270.828,14.216,276.45,4.828z"/>
<polygon fill="#8D654F" points="296.327,-9.151 297.041,-9.784 304.408,-0.717 303.615,-0.12 "/>
<path fill="#8D654F" d="M298.467-14.376c3.485,5.305,7.444,10.374,11.644,15.125l0.713-0.633c-4.199-4.712-8.078-9.78-11.563-15.049
	L298.467-14.376z"/>
<path fill="#8D654F" d="M318.98,3.166c-6.258-6.812-12.196-14.059-17.581-21.541l-0.793,0.553
	c5.425,7.564,11.403,14.809,17.661,21.661L318.98,3.166z"/>
<path fill="#8D654F" d="M304.564-18.615c4.159,5.901,8.635,11.683,13.347,17.108l0.753-0.633
	c-4.358-5.028-8.475-10.297-12.356-15.682l17.821,20.987l0.75-0.633l-21.027-24.79l-0.713,0.633l2.14,2.536L304.564-18.615z"/>
<path fill="#8D654F" d="M303.695-27.762c7.524,9.9,15.522,19.564,23.84,28.828l0.076-0.08l22.494,24.236l-0.08,0.12l1.189,1.069
	l0.673-0.713l-0.477-0.517l0.04-0.04l-0.236-0.157L327.852-0.24l-0.08,0.08c-8.157-9.031-15.999-18.535-23.323-28.195
	L303.695-27.762z"/>
<polygon fill="#8D654F" points="305.398,-35.047 363.647,30.135 364.914,30.135 306.111,-35.68 "/>
<path fill="#8D654F" d="M335.77-12.356c-7.168-4.279-12.83-10.734-18.295-16.989c-5.305-6.058-10.771-12.316-17.662-16.672
	l-0.553,0.87c6.812,4.239,12.196,10.457,17.462,16.435c5.505,6.295,11.246,12.87,18.574,17.185L335.77-12.356z"/>
<polygon fill="#8D654F" points="312.803,-36.75 313.436,-37.463 330.305,-21.781 329.671,-21.071 "/>
<path fill="#8D654F" d="M298.863-45.384l-0.633,0.713c5.028,4.275,9.82,8.951,14.176,13.899l0.713-0.633
	C308.724-36.393,303.932-41.108,298.863-45.384z"/>
<path fill="#8D654F" d="M314.269,2.769c3.206,5.981,7.245,11.447,11.957,16.355l0.673-0.673c-4.592-4.832-8.551-10.257-11.8-16.115
	L314.269,2.769z"/>
<path fill="#8D654F" d="M320.84,5.345l-0.753,0.633c6.892,8.394,14.336,16.472,22.257,23.997l0.634-0.713
	C335.136,21.776,327.691,13.739,320.84,5.345z"/>
<path fill="#8D654F" d="M346.223,24.669c-2.056-1.27-3.879-2.813-5.621-4.475c-1.267-1.427-2.456-2.853-3.526-4.199
	c-3.682-4.632-7.204-9.464-10.61-14.216h-0.039l-0.714,0.557c2.653,3.722,5.386,7.521,8.237,11.243l-7.604-7.681l-0.674,0.713
	l11.483,11.563c0.91,0.869,1.783,1.819,2.732,2.692c2.06,2.336,4.355,4.672,6.892,6.651l0.594-0.75
	c-0.554-0.437-1.07-0.913-1.623-1.35L346.223,24.669z"/>
<polygon fill="#8D654F" points="355.967,24.51 355.017,23.243 354.938,23.323 333.276,-2.18 332.523,-1.546 355.174,25.103 "/>
<polygon fill="#8D654F" points="332.92,-10.377 333.71,-11.01 360.202,20.313 359.449,20.947 "/>
<path fill="#8D654F" d="M363.885,17.301l-0.71,0.637c0.79,0.95,1.663,1.899,2.532,2.85c-2.139-1.503-3.959-3.486-5.545-5.305
	c-5.701-6.338-11.403-12.91-16.988-19.404l-0.75,0.633c5.542,6.495,11.283,13.069,17.025,19.404c1.902,2.14,4.042,4.516,6.734,6.178
	l0.356-0.557c2.493,2.616,5.186,5.069,8.038,7.368l0.633-0.753C371.092,25.065,367.29,21.344,363.885,17.301z"/>
<path fill="#8D654F" d="M370.656,20.631c-0.197-0.28-0.434-0.597-0.75-0.794c-0.08,0-0.12,0-0.16-0.04
	c-6.335-7.007-12.79-14.095-19.088-21.146l0.316-0.357c-4.039-3.762-8.474-7.165-13.146-10.177l-0.513,0.833
	c4.552,2.929,8.871,6.258,12.87,9.9l-0.357,0.316c6.455,7.208,12.99,14.493,19.444,21.581c0.077,0.08,0.157,0.2,0.237,0.276
	c0.04,0,0.08,0,0.08,0.04l0.076-0.116c0.08,0.116,0.16,0.196,0.24,0.316c0.156,0.156,0.276,0.396,0.473,0.553
	c0.517,0.477,0.95,0.873,1.427,1.347l0.713-0.713c-0.554-0.474-1.029-0.95-1.506-1.347
	C370.936,20.987,370.775,20.827,370.656,20.631z"/>
<path fill="#8D654F" d="M355.767,0.433c4.792,5.188,10.021,10.057,15.445,14.532l0.594-0.75
	c-6.099-5.032-11.92-10.574-17.226-16.476l-0.437,0.397l-7.601-7.008l-0.637,0.71l9.584,8.911L355.767,0.433z"/>
<polygon fill="#8D654F" points="332.76,29.817 333.076,30.135 334.423,30.135 333.514,29.182 "/>
<path fill="#8D654F" d="M333.633,25.459c1.106,1.586,2.256,3.129,3.406,4.676h1.227c-1.307-1.743-2.576-3.486-3.843-5.229
	L333.633,25.459z"/>
<path fill="#8D654F" d="M343.214,29.777c0.12,0.117,0.239,0.277,0.356,0.357h1.387c-0.396-0.317-0.714-0.674-1.03-1.03
	L343.214,29.777z"/>
<path fill="#8D654F" d="M353.351,29.024c0.396,0.396,0.833,0.793,1.27,1.11h1.427c-0.674-0.557-1.35-1.19-2.06-1.823L353.351,29.024
	z"/>
<path fill="#8D654F" d="M357.353,29.498c0.277,0.239,0.514,0.437,0.79,0.637h1.506c-0.553-0.437-1.109-0.873-1.622-1.347
	L357.353,29.498z"/>
<polygon fill="#8D654F" points="361.985,23.439 369.982,30.135 371.489,30.135 362.618,22.689 "/>
<path fill="#8D654F" d="M372.122,25.383c1.902,1.582,3.842,3.165,5.781,4.752h1.547c-2.26-1.823-4.476-3.646-6.695-5.466
	L372.122,25.383z"/>
<polygon fill="#8D654F" points="374.102,18.728 388.28,30.135 389.783,30.135 374.698,17.975 "/>
<path fill="#8D654F" d="M372.122,20.431c3.605,3.289,7.288,6.534,11.01,9.704h1.503c-3.959-3.406-7.997-6.892-11.88-10.417
	L372.122,20.431z"/>
<path fill="#8D654F" d="M361.905,25.343c1.346,1.622,2.772,3.245,4.198,4.792h1.347c-1.663-1.743-3.249-3.566-4.792-5.426
	L361.905,25.343z"/>
<polygon fill="#8D654F" points="383.132,19.244 383.846,18.531 395.605,29.461 394.932,30.171 "/>
<path fill="#8D654F" d="M347.216,29.222c0.316,0.316,0.593,0.633,0.91,0.913h1.346c-0.477-0.517-1.029-1.03-1.546-1.587
	L347.216,29.222z"/>
<path fill="#8D654F" d="M446.214,19.44c2.1,3.683,4.396,7.288,6.852,10.694h1.187c-2.613-3.566-5.029-7.328-7.208-11.167
	L446.214,19.44z"/>
<polygon fill="#8D654F" points="455.361,24.192 459.52,30.135 460.706,30.135 456.154,23.64 "/>
<polygon fill="#8D654F" points="450.689,21.184 449.896,21.736 455.954,30.135 457.144,30.135 "/>
<polygon fill="#8D654F" points="460.27,27.915 461.936,30.135 463.122,30.135 461.022,27.361 "/>
<path fill="#8D654F" d="M469.657,29.935c0.04,0.04,0.116,0.16,0.196,0.2h1.267c-0.237-0.24-0.474-0.557-0.71-0.873L469.657,29.935z"
	/>
<polygon fill="#8D654F" points="464.469,25.699 468.391,30.135 469.697,30.135 465.222,25.065 "/>
<polygon fill="#8D654F" points="465.975,29.498 461.499,24.589 460.786,25.223 464.509,29.381 464.469,29.421 465.102,30.135 
	466.368,30.135 465.895,29.578 "/>
<path fill="#8D654F" d="M361.788-5.902c2.89,4.159,5.979,8.314,9.067,12.393l0.753-0.593c-3.049-4.039-6.138-8.237-9.03-12.393
	L361.788-5.902z"/>
<polygon fill="#8D654F" points="364.241,-6.615 364.994,-7.248 376.874,8.078 376.081,8.67 "/>
<path fill="#8D654F" d="M378.537,3.125c-3.879-4.436-7.562-9.067-11.007-13.819l-0.793,0.593c3.485,4.752,7.208,9.424,11.087,13.859
	L378.537,3.125z"/>
<polygon fill="#8D654F" points="379.566,-20.198 380.279,-20.831 394.379,-5.585 393.666,-4.912 "/>
<polygon fill="#8D654F" points="373.389,-16.476 388.674,0.353 389.15,1.226 390.021,0.669 389.467,-0.2 374.102,-17.108 "/>
<path fill="#8D654F" d="M385.468,2.413c-4.435-5.702-9.067-11.364-13.819-16.789l-0.753,0.633
	c4.712,5.425,9.384,11.086,13.819,16.751L385.468,2.413z"/>
<path fill="#8D654F" d="M377.271,4.552l-0.633,0.753c3.642,2.969,7.128,6.138,10.373,9.544l0.714-0.713
	C384.479,10.77,380.913,7.561,377.271,4.552z"/>
<polygon fill="#8D654F" points="385.111,6.691 369.073,-13.27 368.32,-12.633 383.962,6.848 383.052,5.978 382.379,6.691 
	401.663,24.906 402.337,24.192 384.398,7.244 "/>
<polygon fill="#8D654F" points="387.725,7.958 388.438,7.284 406.692,26.568 406.019,27.202 "/>
<polygon fill="#8D654F" points="388.954,3.759 412.514,28.392 413.227,27.759 412.157,26.332 412.04,26.449 389.627,3.125 "/>
<polygon fill="#8D654F" points="392.636,-23.167 393.389,-23.763 426.97,16.945 426.217,17.541 "/>
<polygon fill="#8D654F" points="435.641,9.384 435.047,8.591 435.087,8.551 434.69,8.114 434.61,8.154 401.03,-32.631 
	400.277,-32.038 434.847,9.977 "/>
<path fill="#8D654F" d="M439.719,2.889c-11.127-15.009-23.283-29.422-36.152-42.888l8.631,8.001l0.633-0.713l-9.584-8.911
	l-0.673,0.713l0.753,0.713l-0.673,0.673c14.692,15.365,28.395,31.877,40.828,49.182l0.753-0.593
	c-0.873-1.189-1.783-2.416-2.652-3.646c3.879,3.722,7.997,7.168,12.272,10.336l0.597-0.752c-5.108-3.802-9.94-7.958-14.416-12.433
	L439.719,2.889z"/>
<polygon fill="#8D654F" points="428.749,9.58 429.542,8.987 437.779,20.233 436.986,20.787 "/>
<path fill="#8D654F" d="M423.523,11.84c3.166,3.959,6.179,7.997,8.947,12.196l0.834-0.557c-2.813-4.195-5.862-8.314-8.991-12.236
	L423.523,11.84z"/>
<path fill="#8D654F" d="M419.878,20.194c2.536,3.485,5.465,6.771,8.555,9.78l0.633-0.674c-3.009-2.969-5.858-6.258-8.395-9.7
	L419.878,20.194z"/>
<path fill="#8D654F" d="M411.961,22.689c1.979,2.533,4.038,5.069,6.178,7.445h1.347c-2.376-2.576-4.636-5.269-6.771-8.041
	L411.961,22.689z"/>
<path fill="#8D654F" d="M410.218,28.472c0.633,0.553,1.306,1.106,1.979,1.663h1.426c-0.909-0.794-1.822-1.587-2.772-2.376
	L410.218,28.472z"/>
<path fill="#8D654F" d="M404.516,29.737c-0.753-0.713-1.506-1.466-2.259-2.219l-0.674,0.673c0.634,0.673,1.31,1.307,1.983,1.943
	h1.383C404.832,30.055,404.673,29.895,404.516,29.737c0.157,0.157,0.316,0.317,0.474,0.397h1.586
	c-0.477-0.357-0.953-0.754-1.426-1.11L404.516,29.737z"/>
<polygon fill="#8D654F" points="396.871,26.252 400.95,30.135 402.377,30.135 397.545,25.539 "/>
<path fill="#8D654F" d="M401.783,14.096l0.753-0.593c-3.169-3.962-6.771-7.524-10.693-10.693l-0.633,0.793
	C395.089,6.691,398.654,10.213,401.783,14.096z"/>
<path fill="#8D654F" d="M420.435,16.629c-8.117-8.275-15.919-16.989-23.246-26.017l0.199-0.156l-2.536-2.733
	c0-0.04-0.039-0.04-0.079-0.08v0.04l-8.354-8.991l-0.713,0.673l8.394,8.991c8.041,10.097,16.672,19.837,25.703,29.024l0.673-0.673
	l9.544,11.84l0.79-0.593l-9.621-11.92L420.435,16.629z"/>
<path fill="#8D654F" d="M398.338-13.27l0.713-0.633c-3.209-3.762-6.731-7.365-10.414-10.65l-0.676,0.713
	C391.646-20.554,395.129-17.029,398.338-13.27z"/>
<path fill="#8D654F" d="M427.482,12.629l0.713-0.633c-9.504-10.097-18.571-20.75-27.085-31.721l0.633-0.633l-4.198-3.999
	c-0.474-0.633-0.95-1.227-1.427-1.859l-0.316,0.236l-3.405-3.286l-0.71,0.673l5.145,4.908
	C406.335-11.09,416.633,1.146,427.482,12.629z"/>
<path fill="#8D654F" d="M399.604-26.02l31.998,37.146c0.236,0.316,0.633,0.713,1.187,0.79c0.04,0,0.079,0,0.119,0
	c0.357,0,0.714-0.157,0.91-0.474c0.16-0.316,0.16-0.633,0-0.953l-0.79,0.556c-0.08-0.08-0.04-0.12-0.04-0.16
	c-0.04,0.04-0.04,0.08-0.08,0.08c-0.196,0-0.356-0.237-0.553-0.477l-31.324-36.39l4.752,4.752l0.633-0.713l-10.097-10.097
	l-0.673,0.673l4.672,4.672L399.604-26.02z"/>
<polygon fill="#8D654F" points="439.046,12.866 439.839,12.233 410.374,-25.743 410.931,-26.296 406.099,-31.208 403.683,-34.374 
	403.326,-34.097 401.03,-36.433 400.357,-35.76 405.386,-30.575 "/>
<polygon fill="#8D654F" points="452.232,-0.993 450.649,-2.813 450.609,-2.736 406.932,-48.986 406.259,-48.313 412.83,-41.345 
	403.486,-50.256 402.813,-49.542 416.196,-36.75 416.672,-37.266 451.479,-0.36 "/>
<path fill="#8D654F" d="M419.802-44.75c-5.902-6.455-11.724-13.066-17.266-19.761l-0.753,0.597
	c5.582,6.731,11.403,13.383,17.266,19.798L419.802-44.75z"/>
<path fill="#8D654F" d="M423.681-47.283l0.713-0.633c-6.611-7.448-13.779-14.652-21.184-21.307l-0.674,0.713
	C409.981-61.855,417.069-54.728,423.681-47.283z"/>
<path fill="#8D654F" d="M427.246-50.452l0.633-0.753c-7.444-6.334-14.256-13.422-20.354-21.027l-0.793,0.633
	C412.91-63.955,419.802-56.867,427.246-50.452z"/>
<path fill="#8D654F" d="M427.402-55.797l0.833-0.517c-4.951-7.681-11.763-14.136-19.761-18.571l-0.477,0.833
	C415.879-69.697,422.574-63.362,427.402-55.797z"/>
<path fill="#8D654F" d="M428.749-59.006c-6.019-6.335-12.116-12.91-18.055-19.404l-0.713,0.673
	c5.938,6.495,12.036,13.03,18.095,19.444L428.749-59.006z"/>
<path fill="#8D654F" d="M406.732-97.18l-0.714,0.673c9.82,10.099,20.118,20.039,30.531,29.543l0.673-0.753
	C426.77-77.141,416.553-87.082,406.732-97.18z"/>
<path fill="#8D654F" d="M448.786-65.145c-5.225-5.582-10.69-11.087-16.235-16.434l-0.633,0.713
	c5.465,5.307,10.93,10.852,16.155,16.394L448.786-65.145z"/>
<path fill="#8D654F" d="M447.44-70.293l0.713-0.673c-2.85-3.166-6.019-6.098-9.424-8.671l-0.594,0.753
	C441.502-76.312,444.631-73.419,447.44-70.293z"/>
<path fill="#8D654F" d="M420.988-63.442l-0.79,0.633c7.681,9.704,16.195,18.811,25.423,27.049l0.633-0.753
	C437.066-44.67,428.592-53.778,420.988-63.442z"/>
<path fill="#8D654F" d="M475.318-31.841c-12-9.977-24.393-19.798-36.825-29.225l-0.597,0.793
	c12.437,9.384,24.829,19.205,36.789,29.185L475.318-31.841z"/>
<path fill="#8D654F" d="M473.893-36.276c-11.247-9.701-22.807-19.324-34.45-28.512l-0.633,0.793
	c11.64,9.188,23.203,18.771,34.45,28.512L473.893-36.276z"/>
<path fill="#8D654F" d="M477.222-36.593c-8.237-8.238-17.108-15.999-26.376-23.127l-0.553,0.793
	c9.188,7.048,18.018,14.809,26.216,23.046L477.222-36.593z"/>
<path fill="#8D654F" d="M476.981-43.324c-5.345-4.199-10.533-8.711-15.482-13.386l-0.673,0.713
	c4.988,4.675,10.217,9.227,15.522,13.466L476.981-43.324z"/>
<path fill="#8D654F" d="M462.529-21.624l0.673-0.713c-10.533-9.661-20.671-19.918-30.175-30.531l-0.713,0.673
	C441.858-41.582,452.035-31.285,462.529-21.624z"/>
<path fill="#8D654F" d="M427.326-48.433l-0.637,0.753c8.634,7.208,17.188,14.652,25.543,22.253l-23.483-17.818l-0.554,0.79
	l31.682,24.08c0.553,0.513,1.186,1.066,1.739,1.583l0.16-0.16l3.285,2.496l0.597-0.793l-5.148-3.879
	C449.736-29.148,438.569-39.009,427.326-48.433z"/>
<polygon fill="#8D654F" points="418.929,-47.046 419.525,-47.76 460.35,-12.873 459.717,-12.16 "/>
<polygon fill="#8D654F" points="417.069,-42.808 403.446,-57.344 402.773,-56.67 416.829,-41.662 417.226,-42.018 462.409,-4.715 
	463.042,-5.429 417.346,-43.165 "/>
<path fill="#8D654F" d="M468.667,3.206c-14.179-11.96-28.435-24.276-42.214-36.709l-0.674,0.753
	c13.819,12.393,28.075,24.789,42.255,36.709L468.667,3.206z"/>
<path fill="#8D654F" d="M449.263,0.513c-5.068-6.178-10.613-11.96-16.632-17.225l-0.633,0.713
	c6.812,6.019,13.146,12.71,18.691,19.917l0.789-0.556c-0.673-0.87-1.346-1.74-2.059-2.613c7.841,7.208,15.642,14.612,23.166,22.097
	l0.674-0.713c-7.602-7.525-15.442-15.046-23.363-22.254L449.263,0.513z"/>
<path fill="#8D654F" d="M463.915,19.044c-6.614-4.908-12.989-10.293-18.968-15.958l0.514-0.513
	c-14.89-15.286-28.789-31.877-41.262-49.222l-0.793,0.553c12.433,17.305,26.256,33.82,41.104,49.105l-0.477,0.513
	c6.059,5.822,12.554,11.327,19.324,16.315L463.915,19.044z"/>
<path fill="#8D654F" d="M437.619,7.088l-0.789,0.553c1.899,2.732,4.115,5.225,6.651,7.364l0.633-0.713
	C441.658,12.156,439.442,9.78,437.619,7.088z"/>
<polygon fill="#8D654F" points="434.134,11.126 434.847,10.49 440.869,17.381 440.075,18.015 "/>
<polygon fill="#8D654F" points="431.365,16.828 432.154,16.195 437.303,22.927 436.51,23.479 "/>
<path fill="#8D654F" d="M463.915,7.324c-5.309-5.229-10.613-10.653-15.722-16.079l-0.713,0.633c2.853,3.089,5.741,6.098,8.711,9.071
	l-0.554,0.593c8.595,7.721,17.701,15.125,26.969,22.017l0.554-0.793c-6.575-4.909-13.066-10.057-19.325-15.362L463.915,7.324z"/>
<path fill="#8D654F" d="M466.528,8.194c7.048,6.138,14.652,11.8,22.493,16.872l0.513-0.793
	c-7.801-5.068-15.325-10.693-22.373-16.792L466.528,8.194z"/>
<path fill="#8D654F" d="M468.034,2.016c6.491,5.349,13.383,10.417,20.354,15.049l0.553-0.793
	c-6.968-4.632-13.779-9.66-20.274-14.965L468.034,2.016z"/>
<path fill="#8D654F" d="M465.342-6.142l-0.477,0.793c8.314,4.988,16.592,10.217,24.629,15.642l0.517-0.793
	C481.974,4.075,473.696-1.23,465.342-6.142z"/>
<path fill="#8D654F" d="M463.358-12.713c7.762,5.622,15.843,11.087,23.92,16.355l0.514-0.833
	c-8.038-5.225-16.115-10.69-23.877-16.315L463.358-12.713z"/>
<path fill="#8D654F" d="M483.16-9.784c-7.445-6.138-14.732-12.709-21.701-19.444l-0.633,0.677
	c6.892,6.771,14.256,13.343,21.74,19.521L483.16-9.784z"/>
<path fill="#8D654F" d="M486.842-14.02c-9.027-6.021-17.897-12.437-26.412-19.208l-0.593,0.753
	c8.514,6.771,17.421,13.266,26.492,19.284L486.842-14.02z"/>
<path fill="#8D654F" d="M474.686-30.218c4.516,3.289,9.027,6.735,13.307,10.337l0.633-0.793c-4.355-3.562-8.831-7.048-13.387-10.333
	L474.686-30.218z"/>
<polygon fill="#8D654F" points="476.865,-31.721 477.498,-32.474 488.108,-23.327 487.476,-22.574 "/>
<polygon fill="#8D654F" points="480.784,-33.027 481.537,-33.661 489.734,-23.327 488.941,-22.733 "/>
<path fill="#8D654F" d="M492.664,11.363c4.355,4.988,8.87,9.9,13.462,14.692l0.714-0.673c-4.592-4.752-9.107-9.704-13.463-14.653
	L492.664,11.363z"/>
<polygon fill="#8D654F" points="489.971,16.352 490.645,15.639 504.623,28.788 503.99,29.498 "/>
<polygon fill="#8D654F" points="488.465,19.837 500.188,30.135 501.614,30.135 489.138,19.084 "/>
<path fill="#8D654F" d="M484.586,24.826c2.572,1.702,5.148,3.485,7.642,5.309h1.626c-2.853-2.1-5.782-4.199-8.794-6.099
	L484.586,24.826z"/>
<path fill="#8D654F" d="M476.625,23.007c1.902,1.739,3.842,3.405,5.821,5.068c-3.169-1.823-6.218-3.763-9.187-5.782l-0.554,0.79
	c3.723,2.536,7.564,4.912,11.483,7.052h2.376c-3.169-2.496-6.295-5.109-9.268-7.842L476.625,23.007z"/>
<polygon fill="#8D654F" points="484.822,3.326 485.376,2.532 496.939,10.73 496.346,11.52 "/>
<path fill="#8D654F" d="M495.673,5.185l0.633-0.713c-4.275-3.879-8.711-7.761-13.146-11.483l-0.317,0.317
	c-7.008-4.632-13.858-9.661-20.354-15.009l-0.634,0.793c7.049,5.742,14.533,11.207,22.174,16.195l0.12-0.197
	c3.249,2.732,6.455,5.545,9.624,8.354l-0.713,0.557l16.354,20.948l0.75-0.594L494.326,3.999
	C494.763,4.392,495.199,4.789,495.673,5.185z"/>
<path fill="#8D654F" d="M491.554-5.269c-0.553-0.633-1.106-1.307-1.663-1.979l-0.396,0.356l-7.048-5.625l-0.633,0.753l9.027,7.208
	c6.062,7.445,12.276,14.889,18.534,22.138l0.79-0.674c-5.781-6.575-11.403-13.306-16.948-20.118l0.316-0.437L491.554-5.269z"/>
<path fill="#8D654F" d="M508.819,8.434l-0.237,0.593c-4.355-4.952-8.87-9.861-13.463-14.692v-0.08
	c-0.079-0.077-0.239-0.157-0.356-0.237c-1.466-1.506-2.893-3.009-4.396-4.515l-0.673,0.713c0.236,0.24,0.514,0.477,0.753,0.713
	c-1.902-1.346-3.722-2.772-5.545-4.199l-0.593,0.793c3.166,2.536,6.455,4.952,9.82,7.208c4.868,5.068,9.62,10.257,14.216,15.522
	l0.713-0.633c1.503,0.713,2.772,1.823,3.959,2.929l9.268,8.398l0.633-0.714l-9.228-8.394C512.305,10.61,510.722,9.184,508.819,8.434
	z"/>
<path fill="#8D654F" d="M445.541-13.823c6.731,7.008,13.979,13.663,21.504,19.801l0.593-0.753
	c-7.444-6.138-14.652-12.75-21.384-19.721L445.541-13.823z"/>
<path fill="#8D654F" d="M433.938-13.546c-5.425-5.425-10.414-11.363-14.85-17.622l-0.793,0.593
	c4.436,6.258,9.504,12.236,14.97,17.702L433.938-13.546z"/>
<path fill="#8D654F" d="M450.729,5.225l-0.517,0.833c6.614,4.235,12.673,9.264,18.058,15.045l0.714-0.713
	C463.559,14.609,457.421,9.5,450.729,5.225z"/>
<polygon fill="#8D654F" points="457.657,17.777 458.214,16.984 464.629,21.184 464.072,21.977 "/>
<polygon fill="#8D654F" points="509.375,14.925 509.929,14.136 520.342,22.017 519.749,22.767 "/>
<polygon fill="#8D654F" points="517.533,14.925 518.086,14.136 523.988,18.331 523.432,19.124 "/>
<path fill="#8D654F" d="M513.65,1.859l-0.633,0.713c3.326,2.653,6.259,5.702,8.791,9.067l0.793-0.593
	C519.989,7.641,516.977,4.512,513.65,1.859z"/>
<path fill="#8D654F" d="M516.344-1.07L515.71-0.36c3.803,3.566,7.288,7.485,10.377,11.684l0.79-0.593
	C523.748,6.491,520.226,2.492,516.344-1.07z"/>
<path fill="#8D654F" d="M530.839,11.876c-3.445-4.632-7.128-9.147-10.97-13.463l-0.713,0.673c4.275,4.752,8.354,9.78,12.076,14.969
	l0.713-0.477c3.526,3.565,6.852,7.368,9.82,11.406l0.794-0.593c-3.406-4.556-7.208-8.911-11.327-12.95L530.839,11.876z"/>
<path fill="#8D654F" d="M536.064,12.83c-4.632-5.505-9.344-11.09-13.939-16.672l-0.713,0.633
	c4.596,5.582,9.268,11.167,13.939,16.672L536.064,12.83z"/>
<path fill="#8D654F" d="M538.717,13.026l0.753-0.593c-5.108-6.375-10.373-12.989-16.712-18.495l-0.633,0.753
	C528.383,0.116,533.608,6.691,538.717,13.026z"/>
<path fill="#8D654F" d="M525.888-9.151l-0.674,0.713c6.415,5.942,12.673,12.197,18.731,18.535l0.673-0.673
	C538.601,3.045,532.262-3.169,525.888-9.151z"/>
<polygon fill="#8D654F" points="524.581,-13.979 525.294,-14.693 548.261,8.75 547.548,9.464 "/>
<polygon fill="#8D654F" points="529.097,-13.823 529.81,-14.496 553.369,8.591 552.696,9.264 "/>
<path fill="#8D654F" d="M559.668,11.203l0.633-0.713c-9.504-8.314-18.651-17.265-27.285-26.453l-0.714,0.637
	C540.977-6.062,550.164,2.889,559.668,11.203z"/>
<polygon fill="#8D654F" points="550.557,-2.893 551.193,-3.606 567.981,11.203 567.349,11.917 "/>
<polygon fill="#8D654F" points="559.191,-0.677 559.864,-1.39 571.784,10.173 571.071,10.887 "/>
<path fill="#8D654F" d="M565.883-0.36c4.118,3.129,8.197,6.418,12.079,9.824l0.634-0.713c-3.923-3.406-8.001-6.735-12.117-9.9
	L565.883-0.36z"/>
<polygon fill="#8D654F" points="570.558,-2.379 571.19,-3.129 583.228,7.324 582.594,8.038 "/>
<polygon fill="#8D654F" points="575.506,-2.853 576.1,-3.606 588.969,6.768 588.336,7.481 "/>
<path fill="#8D654F" d="M593.168,7.244c-3.603-3.169-7.364-6.218-11.167-9.107l-0.557,0.753c3.763,2.889,7.484,5.978,11.091,9.067
	L593.168,7.244z"/>
<polygon fill="#8D654F" points="589.246,0.276 589.999,-0.32 592.691,3.125 591.979,3.759 "/>
<path fill="#8D654F" d="M524.185,15.402l-0.514,0.793c2.89,1.899,5.426,4.275,7.524,7.048l0.75-0.594
	C529.81,19.797,527.193,17.381,524.185,15.402z"/>
<path fill="#8D654F" d="M554.439,23.007l0.713-0.637c-3.406-3.683-6.972-7.285-10.613-10.65l-0.674,0.713
	C547.548,15.799,551.073,19.36,554.439,23.007z"/>
<path fill="#8D654F" d="M550.32,10.65c3.249,3.009,6.691,5.822,10.337,8.318l0.553-0.793c-3.602-2.456-7.048-5.229-10.257-8.238
	L550.32,10.65z"/>
<path fill="#8D654F" d="M366.777-51.245c1.859-1.743,3.802-3.563,5.505-5.465c3.089-3.406,5.621-7.205,7.524-11.323l-0.873-0.396
	c-1.899,4.039-4.355,7.761-7.365,11.086c-1.662,1.903-3.605,3.646-5.465,5.349c-2.179,2.02-4.436,4.155-6.414,6.455l0.713,0.633
	C362.382-47.167,364.598-49.263,366.777-51.245z"/>
<path fill="#8D654F" d="M375.447-44.234c-0.156-0.04-0.316-0.12-0.473-0.16c-0.24-0.117-0.477-0.197-0.793-0.237
	c-0.95-0.12-1.743,0.593-2.176,0.95c-2.616,2.256-5.149,4.632-7.564,7.008l0.673,0.713c2.416-2.416,4.948-4.752,7.524-6.968
	c0.434-0.396,0.909-0.793,1.423-0.713c0.16,0,0.319,0.08,0.517,0.157c0.196,0.08,0.396,0.16,0.713,0.2
	c0.87,0.156,1.583-0.357,2.256-0.833c5.029-3.799,9.86-7.998,14.376-12.433l-0.713-0.713c-4.436,4.436-9.228,8.634-14.256,12.356
	C376.478-44.511,375.924-44.157,375.447-44.234z"/>
<path fill="#8D654F" d="M344.243-27.485l0.04-0.197c0.2-1.227,0.91-2.416,2.336-3.722c0.316-0.277,0.634-0.593,0.95-0.91
	c0.873-0.713,1.822-1.506,2.496-2.496l-0.753-0.553c-0.674,0.87-1.504,1.583-2.377,2.336c-0.316,0.316-0.673,0.633-1.029,0.95
	c-1.583,1.426-2.376,2.813-2.612,4.275v0.2c0,0.236-0.04,0.433-0.157,0.633c-0.08,0.117-0.239,0.277-0.396,0.437l-6.098,5.542
	l0.633,0.713l6.139-5.545c0.196-0.157,0.433-0.393,0.593-0.71C344.167-26.853,344.243-27.169,344.243-27.485z"/>
<path fill="#8D654F" d="M366.737-26.456c2.853-1.029,4.988-2.532,6.258-4.435l-0.793-0.553c-1.189,1.743-3.129,3.129-5.821,4.119
	c-1.427,0.473-2.97,0.83-4.396,1.187c-0.95,0.24-1.899,0.477-2.853,0.713c-5.782,1.626-11.007,4.752-15.206,9.031l0.713,0.633
	c4.039-4.119,9.147-7.128,14.732-8.714c0.95-0.276,1.899-0.473,2.81-0.709C363.688-25.543,365.23-25.899,366.737-26.456z"/>
<polygon fill="#8D654F" points="399.367,-82.686 402.297,-88.388 403.17,-87.913 400.237,-82.251 "/>
<path fill="#8D654F" d="M390.18-38.176c-0.316,0.356-0.713,0.553-1.189,0.793l-0.076,0.077c-2.456,1.306-4.676,2.933-6.731,4.832
	l0.71,0.713c1.942-1.823,4.118-3.405,6.494-4.672l0.08-0.08c0.477-0.236,1.03-0.553,1.427-0.95c0.473-0.516,0.753-1.149,0.989-1.703
	l4.632-11.05l-0.869-0.396l-4.672,11.09C390.773-39.049,390.576-38.492,390.18-38.176z"/>
<polygon fill="#8D654F" points="509.929,-5.625 510.642,-4.952 518.363,-12.95 518.286,-20.751 517.293,-20.751 517.373,-13.346 "/>
<path fill="#8D654F" d="M506.206-11.327l0.2-0.316c0.276-0.437,0.594-0.873,0.95-1.229c0.356-0.277,0.753-0.473,1.146-0.713
	l5.069-2.809l-0.474-0.833l-5.068,2.772c-0.396,0.237-0.913,0.513-1.347,0.87c-0.437,0.396-0.793,0.913-1.109,1.426l-0.16,0.277
	c-1.146,1.626-2.612,2.972-4.039,4.318l0.714,0.713C503.514-8.198,505.021-9.624,506.206-11.327z"/>
<polygon fill="#8D654F" points="583.98,15.482 584.693,14.809 593.921,24.51 593.248,25.143 "/>
<polygon fill="#8D654F" points="587.069,15.085 587.783,14.372 599.186,25.775 598.553,26.449 "/>
<polygon fill="#8D654F" points="590.632,13.699 591.305,12.986 604.968,25.223 604.335,25.976 "/>
<path fill="#8D654F" d="M595.464,12.946c5.861,4.355,11.327,9.347,16.235,14.813l0.713-0.637
	c-4.948-5.542-10.453-10.53-16.392-14.966L595.464,12.946z"/>
<path fill="#8D654F" d="M603.385,16.788c4.712,4.632,9.66,9.067,14.692,13.347h1.463c-5.305-4.476-10.533-9.188-15.522-14.02
	L603.385,16.788z"/>
<polygon fill="#8D654F" points="542.876,23.123 542.282,23.876 550.4,30.135 551.983,30.135 "/>
<path fill="#8D654F" d="M589.209,24.866c-0.597-0.277-1.189-0.554-1.783-0.83c-0.949-0.396-1.822-0.753-2.612-1.27
	c-0.597-0.434-1.149-0.95-1.703-1.503c-0.319-0.24-0.636-0.557-0.953-0.833c-3.245-2.89-7.997-3.999-12.313-3.206
	c0.75-0.517,1.623-0.953,2.492-1.346l0.356,0.156l0.2-0.396c1.187-0.473,2.493-0.91,3.959-1.227c0.713-0.12,1.387-0.276,2.06-0.356
	l1.663,1.07l0.159-0.277l9.027,9.82l0.714-0.673l-9.504-10.257c0.473-0.08,0.909-0.16,1.346-0.2
	c1.187-0.117,2.376-0.276,3.563-0.513l7.524,4.989l0.557-0.79l-6.734-4.435c0.596-0.12,1.189-0.24,1.742-0.396l-0.236-0.95
	c-0.87,0.237-1.743,0.397-2.692,0.553l-8.475-5.622l-0.553,0.83l7.641,5.029c-0.833,0.16-1.622,0.24-2.456,0.356
	c-0.989,0.12-2.02,0.277-3.049,0.437l-4.832-3.246l0.08-0.08L562.28-0.677l-0.634,0.753l9.978,8.475l-0.316,0.437l6.455,4.275
	c-0.357,0.08-0.75,0.12-1.146,0.2c-1.507,0.356-2.933,0.79-4.199,1.307l-7.604-3.999l-0.473,0.83l6.968,3.683
	c-1.106,0.517-2.02,1.109-2.85,1.782l-7.367-7.761l-0.71,0.633l7.324,7.76c-0.08,0.08-0.12,0.16-0.196,0.201
	c-0.24,0.116-0.517,0.196-0.753,0.276l0.116,0.316c-0.316,0.396-0.633,0.793-0.91,1.187c-0.553,0.833-0.989,1.742-1.466,2.615
	c-0.633,1.347-1.307,2.613-2.296,3.643c-1.069,1.029-2.456,1.663-3.763,2.296l-4.158,1.903h2.259l2.296-1.03
	c1.347-0.633,2.853-1.346,3.999-2.456c1.15-1.109,1.863-2.536,2.536-3.922c0.437-0.83,0.87-1.703,1.427-2.493
	c0.316-0.556,0.789-1.029,1.266-1.506c4.436-1.663,9.9-0.713,13.463,2.456c0.316,0.236,0.633,0.553,0.913,0.793
	c0.594,0.554,1.146,1.106,1.819,1.583c0.873,0.593,1.863,0.989,2.772,1.387c0.594,0.276,1.15,0.513,1.703,0.793
	c2.06,1.066,3.723,2.732,5.305,4.396h1.271C593.524,28.151,591.621,26.132,589.209,24.866z M580.415,13.819h-0.037h-0.04
	C580.378,13.819,580.415,13.819,580.415,13.819z"/>
<path fill="#8D654F" d="M596.771,30.015c0.04,0.04,0.119,0.12,0.159,0.12h1.467c-0.32-0.24-0.637-0.557-0.953-0.834L596.771,30.015z
	"/>
<polygon fill="#8D654F" points="600.336,29.104 601.602,30.135 603.108,30.135 600.969,28.352 "/>
<polygon fill="#8D654F" points="604.771,28.708 606.947,30.135 608.729,30.135 605.284,27.915 "/>
<polygon fill="#8D654F" points="502.287,30.055 502.444,30.135 503.99,30.135 502.881,29.262 "/>
<polygon fill="#8D654F" points="508.463,28.271 511.038,30.135 512.621,30.135 509.059,27.479 "/>
<polygon fill="#8D654F" points="510.642,25.659 517.057,30.135 518.72,30.135 511.195,24.866 "/>
<polygon fill="#8D654F" points="515.514,24.353 525.134,30.135 526.957,30.135 516.027,23.52 "/>
<polygon fill="#8D654F" points="522.562,23.479 534.005,30.135 535.908,30.135 523.075,22.649 "/>
<polygon fill="#8D654F" points="531.789,24.353 540.937,30.135 542.756,30.135 532.302,23.56 "/>
<polygon fill="#8D654F" points="543.589,19.917 544.222,19.204 553.886,27.519 553.253,28.271 "/>
<path fill="#8D654F" d="M460.626,23.243c-1.106,0.08-2.136,0.12-3.049-0.316c-0.79-0.396-1.423-1.11-2.06-1.903
	c-0.156-0.196-0.316-0.393-0.433-0.553c-2.733-3.326-6.972-5.305-11.247-5.385l-0.316-0.04l-0.12,0.276
	c-2.612,5.862-6.812,11.01-11.96,14.813h1.586c4.275-3.406,7.842-7.685,10.374-12.553l6.455,12.553h1.069l-6.968-13.543l-0.16,0.116
	c0.12-0.236,0.236-0.437,0.316-0.673c3.923,0.16,7.682,2.06,10.217,5.068c0.157,0.16,0.317,0.316,0.437,0.477
	c0.674,0.87,1.387,1.743,2.416,2.216c1.106,0.557,2.297,0.477,3.482,0.396c0.24,0,0.477,0,0.713,0
	c5.626-0.156,10.694,2.813,15.603,5.942h1.743c-5.386-3.486-11.007-7.128-17.425-6.892
	C461.063,23.243,460.866,23.243,460.626,23.243z"/>
<path fill="#8D654F" d="M419.878,23.64l0.04-0.08l0.673,0.713l0.714-0.633l-1.03-1.27l-0.076,0.08L400.754,2.096l0.276-0.236
	c-1.506-1.506-3.049-2.929-4.632-4.315l-0.597-0.597l-0.036,0.04c-0.754-0.593-1.467-1.226-2.18-1.819l-0.633,0.75
	c0.949,0.753,1.859,1.506,2.772,2.339L417.979,21.5c-0.08,0-0.156,0.04-0.196,0.08c-0.833-0.833-1.663-1.623-2.496-2.416
	l-0.673,0.673c0.793,0.794,1.543,1.507,2.336,2.257c-0.157,0.199-0.236,0.356-0.316,0.596L392.636-2.339l-0.633,0.556
	l-14.179-15.089l-0.714,0.633l15.286,16.275l0.636-0.553l23.917,24.909c0,0.037,0.08,0.077,0.08,0.117l0.713-0.714l-0.08-0.076
	c-0.16-0.16-0.16-0.396-0.16-0.637c0.04-0.076,0.08-0.236,0.16-0.316c0.316,0.356,0.673,0.713,1.029,1.029
	c-0.08,0-0.08,0.04-0.119,0.08c-0.277,0.12-0.514,0.12-0.714,0l-0.473,0.87c0.236,0.12,0.513,0.2,0.753,0.2
	c0.316,0,0.633-0.08,0.87-0.237c0.159-0.04,0.236-0.12,0.356-0.239c1.859,1.862,3.722,3.762,5.545,5.665h1.346
	C424.157,27.955,422.058,25.775,419.878,23.64z"/>
<path fill="#8D654F" d="M539.233,12.79c4.752,4.751,10.097,8.947,15.879,12.393l0.517-0.83c-5.745-3.405-11.011-7.524-15.723-12.236
	L539.233,12.79z"/>
<path fill="#8D654F" d="M546.201,10.213c4.355,4.002,8.911,7.921,13.583,11.603l0.597-0.793c-4.676-3.643-9.188-7.521-13.467-11.523
	L546.201,10.213z"/>
<path fill="#8D654F" d="M555.072,11.163c3.169,2.18,6.258,4.476,9.228,6.932l0.593-0.714c-2.929-2.492-6.098-4.832-9.304-7.007
	L555.072,11.163z"/>
<path fill="#8D654F" d="M592.415,6.375c5.385,3.326,10.413,7.285,14.929,11.72l0.713-0.714c-4.592-4.475-9.66-8.474-15.125-11.799
	L592.415,6.375z"/>
<polygon fill="#8D654F" points="552.104,31.164 554.279,30.135 551.983,30.135 552.54,30.607 "/>
<path fill="#8D654F" d="M-445.807,30.135h-1.268c1.386,0.789,2.753,1.622,4.099,2.492
	C-443.926,31.797-444.877,31.004-445.807,30.135z"/>
<path fill="#8D654F" d="M431.441,30.135h-5.186c0.674,0.713,1.347,1.423,2.02,2.136C429.382,31.638,430.412,30.924,431.441,30.135z"
	/>
</svg>
