<svg xmlns="http://www.w3.org/2000/svg" id="_&#x5716;&#x5C64;_1" data-name="&#x5716;&#x5C64; 1" viewBox="0 0 442.89271 176.45398"><path d="M386.18372,50.65222c-2.72559,8.88452-6.05664,15.47156-9.99414,19.76123l-7.04102-3.86145c4.74316-5.60278,7.89844-11.58411,9.46387-17.94409l7.57129,2.04431Zm46.94238-5.82996h-54.3623c-.70703,0-1.05957-.37854-1.05957-1.13562V7.19275c.0498-.7063,.40332-1.05994,1.05957-1.05994h19.98828c1.46387-2.37195,2.52344-4.41626,3.17969-6.13281l6.96582,3.70996c-.4043,.80798-.7832,1.61597-1.13574,2.42285h25.36426c.75684,.05078,1.13574,.40454,1.13574,1.05994V43.68665c0,.75708-.37891,1.13562-1.13574,1.13562Zm-6.66309-28.24109v-2.6499c-.05078-.20117-.17676-.30286-.37793-.30286h-40.28027c-.25293,0-.35352,.10168-.30273,.30286v2.6499h40.96094Zm0,10.297v-3.10413h-40.96094v3.10413h40.96094Zm-40.96094,7.19287v2.87708c0,.20227,.10059,.32886,.30273,.37854h40.28027c.25195-.04968,.37793-.17627,.37793-.37854v-2.87708h-40.96094Zm11.50879,12.41699v13.32556c0,1.46448,.17578,2.42273,.53027,2.87708,.65527,.7074,1.76562,1.05994,3.33105,1.05994h13.62793c2.52344-.04968,4.24023-.75708,5.14941-2.12,.25195-.55481,.37793-2.75049,.37793-6.58704l7.9502,.6814c-.05078,6.86511-.60547,11.0033-1.66602,12.41699-1.3125,1.56396-2.52441,2.52344-3.63379,2.8772-1.21191,.35254-3.10449,.52991-5.67871,.52991h-20.06445c-1.46387,0-2.87695-.40454-4.23926-1.21143-1.2627-.60571-2.14648-1.51416-2.65039-2.72559-.60547-1.31323-.88379-2.59912-.83301-3.86145v-17.26257h7.79883Zm12.64453-.07581c2.32031,4.23999,4.26465,8.32849,5.8291,12.26562l-7.26855,2.57422c-.8584-1.9176-2.72559-5.82996-5.60254-11.7356l7.04199-3.10425Zm22.94043-.37854c3.4834,4.79602,6.91504,11.00452,10.29688,18.62549l-7.04102,3.63428c-3.63379-7.92395-6.99121-14.00696-10.06934-18.24695l6.81348-4.01282Z" style="fill: #d9518f;"></path><g><g style="opacity: .35001;"><g><g><path d="M127.49427,156.11926c0,12.96704,1.76758,15.71777,10.2168,16.20874v2.65259h-24.65723v-2.65259c8.34961-.39282,10.41211-3.63452,10.41211-16.99487v-38.99963c0-9.62708-1.66992-11.69006-9.52832-12.27942v-2.5542h20.53125l40.08008,56.58398v-36.93677c0-7.36768-.49121-11.00244-1.86621-13.26184-1.47363-2.5542-3.53613-3.43835-8.54688-3.73303v-2.65234h24.85352v2.65234c-4.71484,.19653-6.77734,1.17883-8.34961,3.73303-1.47363,2.35767-2.0625,6.28711-2.0625,12.57422v54.91394h-7.26953l-43.81348-62.67456v43.42041Z" style="fill: #d9518f;"></path><path d="M203.32728,172.42639c7.95703-.19653,8.84082-1.17896,8.84082-10.21655v-47.93921c0-9.03784-.98242-10.11841-8.84082-10.21655v-2.5542h53.93164l1.76758,20.92432-3.4375,.09814c-2.06348-13.65479-7.26953-18.17358-21.12109-18.17358h-9.62695v30.84607h7.07324c10.60938,0,13.16309-2.06287,14.24414-11.29712h3.14355v25.63953h-3.14355c-1.17871-9.52881-3.63477-11.49353-14.24414-11.49353h-7.07324v34.08801h10.80566c13.26172,0,18.76367-5.1084,21.6123-20.43311l3.24121,.39282-2.0625,22.88916h-55.11035v-2.5542Z" style="fill: #d9518f;"></path></g><path d="M308.82923,175.37341h-8.05469l-14.6377-58.64697c-1.47363-5.69763-2.75098-8.74292-4.4209-10.51123-1.17871-1.2771-2.65234-1.86646-5.7959-2.2594v-2.45593h30.35547v2.45593c-4.02832,.29468-5.30469,.58936-6.4834,1.57178-1.17969,.78589-1.76855,2.2594-1.76855,4.02771,0,1.86646,.39258,4.42053,1.375,8.25171l10.2168,42.43799,16.60156-57.36987h8.8418l15.12793,57.0752,10.51172-40.27673c.88379-3.24182,1.375-6.58191,1.375-8.84131,0-3.04529-1.47363-5.10828-4.4209-6.09058-1.27637-.39294-2.75-.58948-5.20605-.78589v-2.45593h24.85352v2.45593c-6.87598,.9823-9.43066,4.22412-12.77051,16.70007l-14.83398,54.71753h-7.76074l-15.81543-58.35229-17.29004,58.35229Z" style="fill: #d9518f;"></path><path d="M393.79798,151.8949h3.92969c1.375,14.7356,7.26953,21.71021,18.27148,21.71021,8.64453,0,13.85156-5.10815,13.85156-13.55664,0-6.67993-3.83105-10.70752-16.11133-16.69995-8.34961-4.02771-10.60938-5.30481-12.86816-6.97485-5.59961-4.12585-8.05566-8.84119-8.05566-15.61951,0-8.0553,4.4209-15.03015,11.5918-18.37012,3.33984-1.57178,7.26953-2.2594,12.57422-2.2594,3.24219,0,4.61719,.19641,11.98438,1.66992,1.37598,.29468,2.45605,.39294,3.43848,.39294,1.57227,0,2.94727-.29468,5.89453-1.37524l-.78613,22.00488h-3.92969c-.39258-5.59949-1.27637-8.93958-3.33984-12.27954-2.94727-5.01001-7.76074-7.76062-13.55664-7.76062-7.56445,0-12.77051,5.20654-12.77051,12.77063,0,3.24182,1.08105,6.0907,3.24219,8.25183,2.45508,2.35767,4.91113,3.8313,12.77051,7.56421,8.74316,4.02771,12.9668,6.68005,16.30664,10.02002,3.33984,3.43823,5.1084,7.95728,5.1084,13.65479,0,6.68018-2.45605,12.37793-6.87598,15.81616-4.61719,3.63477-10.80664,5.59937-17.97754,5.59937-3.92969,0-6.28711-.29468-13.26172-1.66992-1.17871-.19653-2.45605-.29468-3.7334-.29468-1.66992,0-2.94727,.19629-6.4834,.88403l.78613-23.47852Z" style="fill: #d9518f;"></path></g></g><g><path d="M120.1886,34.97961h-4.8457v-7.19287h69.42969v7.19287h-34.98047v36.03955h-7.49512v-2.72571l-25.89453,1.21143-.9082-7.26855h4.69434v-27.25671Zm56.78516-9.08569h-53.75684c-.60547,0-.9082-.32764-.9082-.98425V4.16418c0-.60571,.30273-.90857,.9082-.90857h53.75684c.65527,0,.98438,.30286,.98438,.90857V24.90967c0,.65662-.3291,.98425-.98438,.98425Zm-34.67676,13.85559v-4.7699h-14.6123v4.7699h14.6123Zm0,10.90271v-4.61853h-14.6123v4.61853h14.6123Zm0,10.52417v-4.23999h-14.6123v4.92139l14.6123-.6814Zm-12.49316-43.76233v2.12c-.05078,.20227,.02539,.32886,.22754,.37854h40.12793c.20117-.04968,.30273-.17627,.30273-.37854v-2.12h-40.6582Zm40.6582-5.98132v-1.89282c0-.20117-.10156-.30286-.30273-.30286h-40.12793c-.20215,0-.27832,.10168-.22754,.30286v1.89282h40.6582Zm-15.44531,61.17639l-4.99707-6.05713c4.34082-1.61475,8.55566-3.86133,12.64453-6.7384-2.87793-3.02856-5.83008-6.89001-8.8584-11.58423l5.45117-3.63416c2.87695,4.44214,5.60254,8.02551,8.17676,10.75122,2.52344-2.82617,4.61816-6.53613,6.28418-11.12988h-20.06445v-6.28418h24.30469l4.08789,3.02856c-1.61523,5.60278-3.12988,9.79297-4.54199,12.56836-1.31348,2.32227-2.82812,4.49316-4.54297,6.51135,3.33105,2.27148,7.44434,4.34167,12.34082,6.2085l-4.8457,6.13281c-4.3916-2.12-8.50586-4.64453-12.34082-7.57129-5.55371,4.59241-9.91895,7.19275-13.09863,7.79846Z" style="fill: #d9518f;"></path><path d="M223.26478,71.32202h-7.49609v-18.32263c-3.28125,4.99707-6.81445,9.23694-10.59961,12.71985l-6.36035-4.08862c5.85547-4.89526,10.54883-10.14551,14.08301-15.74829h-11.96289v-7.19275h14.83984v-5.22424h-14.53711v-7.19275h8.70703c-1.51367-3.83545-2.97852-6.81421-4.39062-8.9342l6.28418-3.10425c1.66504,2.62512,3.28027,5.98132,4.8457,10.06982l-4.54297,1.96863h9.23633c2.32129-4.8457,3.9375-8.9342,4.8457-12.26562l6.81445,2.57422c-.80762,2.92798-1.99414,6.15881-3.55859,9.69141h6.96582v7.19275h-13.17383v5.22424h13.17383v7.19275h-10.14551c3.02832,2.92798,5.98145,6.00732,8.8584,9.23694l-5.45117,5.14856c-1.86816-2.42285-4.0127-4.99707-6.43555-7.72278v18.77698ZM216.22278,1.58997h7.79883V6.28418h12.11426v7.19275h-33.99512V6.28418h14.08203V1.58997Zm30.9668,28.0896v10.14563c-.10156,5.85596-1.00977,10.92871-2.72559,15.21838-2.27148,5.35083-5.85547,10.75134-10.75098,16.20264l-6.13281-5.67847c5.19824-5.34961,8.55566-10.09473,10.06934-14.23413,1.3125-3.53247,1.99414-7.36902,2.04492-11.50842V5.75415c-.05078-1.76624,.62988-2.6499,2.04395-2.6499,9.13574-.04968,17.36328-.6814,24.68262-1.89282l2.49902,7.57129c-6.36035,1.01038-13.2002,1.58997-20.51855,1.74146-.85938,0-1.2627,.45422-1.21191,1.36279v10.297h22.5625v7.49561h-6.66211v41.64246h-7.79883V29.67957h-8.10156Z" style="fill: #d9518f;"></path><path d="M303.85462,42.5509c-2.97949,12.4679-7.11719,21.95691-12.41699,28.46826l-7.49609-3.63428c6.30957-8.07532,10.39746-16.90894,12.26562-26.49963l7.64746,1.66565Zm-14.30957-22.25977c4.18848,2.42285,8.73145,5.90564,13.62793,10.44849l-5.07324,6.13281c-5.14844-4.69421-9.53906-8.12622-13.17383-10.29712l4.61914-6.28418Zm2.64941-18.17114c4.08887,2.62512,8.55566,6.38586,13.40137,11.28125l-5.22461,5.82996c-5.09863-4.99707-9.46387-8.65613-13.09766-10.97839l4.9209-6.13281Zm21.35156,68.52051h-7.79883V19.76123c.0498-1.31201,.70605-1.96863,1.96875-1.96863h6.81445c-2.67676-4.94617-5.09961-8.73181-7.26855-11.35693l6.51074-4.39136c2.6748,3.23071,5.37598,7.44592,8.10156,12.64404l-5.2998,3.10425h9.46387V1.58997h7.79883V17.7926h8.47949l-4.4668-2.49854c3.22949-5.34961,5.47656-9.79187,6.73828-13.32556l7.11719,3.4071c-1.31348,3.68518-3.35742,7.82458-6.13281,12.41699h5.90527c1.36328,.0509,2.04492,.70752,2.04492,1.96863v46.10938c0,2.27136-1.21191,4.01282-3.63477,5.22424-3.38184,1.56396-8.65723,1.71533-15.82422,.45422l-.30273-8.63123c5.09766,1.46448,8.4043,1.89282,9.91895,1.28711,1.3623-.55493,2.04395-1.31201,2.04395-2.27148v-6.35986h-32.17773v15.06689Zm32.17773-37.7052v-6.73853c0-.40332-.22656-.60571-.68164-.60571h-30.89062c-.4043,.0509-.60547,.25317-.60547,.60571v6.73853h32.17773Zm0,14.83984v-7.04138h-32.17773v7.04138h32.17773Z" style="fill: #d9518f;"></path></g><g style="opacity: .39999;"><g><path d="M24.94918,145.07968C-5.11172,112.82238-8.35404,65.09306,17.10619,28.41978c2.67248-3.84927,5.71632-7.4695,8.58806-11.19536,1.92895-1.82507,3.85868-3.64787,5.7892-5.47067-.95595,1.29016-1.88322,2.60038-2.87172,3.8682C5.23084,45.57491-.49322,78.04686,11.33017,113.02188c.20624,.61025,.5148,1.18832,.83423,1.91403,.1822-.31156,.29539-.42021,.30392-.53567,.02404-.29907,.0093-.60079-.00155-.90099-.35586-8.50034,1.38159-16.6293,5.17361-24.41642,.45433-.93203,.63807-2.01965,.75205-3.05087,.93501-8.53214,3.09269-16.79247,6.54667-24.76168,4.13703-9.5395,9.8076-18.17651,17.22029-25.79819-10.40615,13.41716-17.1482,28.17975-19.29114,44.66899,8.29343-10.36894,18.78098-17.81725,31.35333-22.64435-.80244,.73745-1.72273,1.32498-2.62828,1.9322-14.43075,9.67276-24.71052,22.13253-29.03051,38.55816-.32021,1.21936-.46441,2.55381-.31168,3.78794,3.48577,28.23616,17.4273,50.41525,42.17194,66.20906,4.38202,2.79496,9.161,5.03835,14.33693,7.85375-4.06724-1.46467-7.48402-2.80518-10.98142-3.93255-9.76961-3.14778-18.85929-7.52894-27.36748-12.9856-2.00882-1.28751-3.92769-2.69805-5.88689-4.0518-2.55385-2.43191-5.10771-4.8642-7.66078-7.29612-.63497-.83436-1.20018-1.72589-1.91422-2.49211" style="fill: #d9518f;"></path><path d="M85.67732,4.61436c2.67402-1.76071,5.80083-1.64752,8.87879-1.28069,.55512,.52961,1.11023,1.05847,1.66535,1.58619-.79391,1.20952-1.30717,2.99371-2.43834,3.50364-2.13984,.96383-4.62857,1.52108-6.98239,1.59414-1.24204,.04051-2.50501-1.29546-3.7579-2.01133,.86137-1.15274,1.48703-2.6352,2.63449-3.39196" style="fill: #d9518f;"></path><path d="M54.26268,18.11292c.50782-1.68311,1.58472-3.22047,2.47244-4.94333,1.81188-.8548,3.42375-1.89246,5.19532-2.38156,2.01734-.55839,3.15238,.67536,2.85855,2.67079-.44115,2.99371-4.57817,6.9414-7.71583,7.36691-2.08945,.28241-3.38809-.79688-2.81048-2.71281" style="fill: #d9518f;"></path><path d="M76.73822,14.57521c2.93375-2.36831,6.37223-3.1175,10.02778-2.05978,2.30886,.66666,2.61898,2.53375,.53884,4.4898-2.719,1.81409-6.05669,2.80102-9.72698,1.71112-2.30266-.68142-2.70969-2.63142-.83965-4.14114" style="fill: #d9518f;"></path><path d="M44.78938,50.83055c-1.33276,1.63995-2.89964,3.22463-4.68673,4.39137-2.38328,1.55705-5.00691,1.4855-5.93186,.31497-.95517-1.20801-.17599-3.3276,1.77081-5.76595,1.98866-.87676,3.92381-1.92918,5.99387-2.54624,.86059-.25743,2.41896,.12038,2.91592,.74578,.4931,.62123,.46209,2.21613-.06201,2.86007" style="fill: #d9518f;"></path><path d="M37.1334,37.85291c-1.87702,1.85081-4.00368,1.26176-4.52779-1.22088-.67684-3.21744,.43805-6.07145,2.86088-9.1757,.60862-.16998,1.87159-.93506,2.71435-.64432,.85981,.2968,1.7111,1.56462,1.85996,2.52125,.49851,3.20116-.50162,6.14755-2.90739,8.51965" style="fill: #d9518f;"></path><path d="M51.21023,20.84844c-.47605,2.76808-1.72429,5.21968-4.19363,6.88348-.74352,.50009-2.15225,.87525-2.7973,.53719-.76909-.40393-1.41338-1.60891-1.46919-2.51444-.17833-2.84077,1.19008-5.23558,2.99888-7.88327,1.36841-.32784,2.89111-1.17053,4.06647-.86843,1.82662,.47018,1.65295,2.34219,1.39478,3.84548" style="fill: #d9518f;"></path><path d="M24.494,58.00515c-.89936,1.19968-2.0127,1.73914-3.43228,.7647-2.82289-1.94129-3.20744-9.03487-.6218-11.39486,1.2118-1.10542,2.44997-.98049,3.63385,.36683,2.0437,2.3297,2.2856,7.77463,.42022,10.26332" style="fill: #d9518f;"></path><path d="M26.86667,48.06512c-2.95314-2.6723-3.16713-9.10415-.89316-11.46111,1.13505-1.17696,2.34762-1.19021,3.52299-.13666,2.33599,2.09423,2.60734,8.33301,.48378,10.80543-1.11876,1.30265-2.34219,1.4677-3.11362,.79234" style="fill: #d9518f;"></path><path d="M54.83361,34.42385c2.96476-2.34901,5.44806-3.67172,8.46788-3.60509,2.72906,.0583,3.66254,1.78721,2.12976,3.94504-1.70257,2.39936-4.21456,3.81103-7.13358,4.13774-1.37151,.15256-3.48809-.24683-4.08275-1.12661-.55667-.8249,.44813-2.61665,.6187-3.35107" style="fill: #d9518f;"></path><path d="M40.22625,44.62925c-.4869-.7984-.36363-2.49173,.25507-3.24205,1.29011-1.56462,2.9353-2.985,4.70454-4.05331,1.71886-1.03727,3.8525-1.86406,5.65896-.13818,1.11411,1.06453,.20003,3.36243-1.73979,5.66752-1.91733,.86048-3.77341,1.92047-5.77447,2.49513-.93734,.26803-2.71667-.09086-3.10432-.72912" style="fill: #d9518f;"></path><path d="M63.53067,20.75948c1.7514-.85178,3.43226-1.94962,5.28292-2.4622,1.10868-.30702,3.20588-.06814,3.56485,.58451,.50317,.915,.21941,2.71432-.47216,3.64408-1.06371,1.43174-2.63216,2.64126-4.21611,3.59487-2.48872,1.49799-4.9666,1.47187-5.93418,.28695-.98387-1.2046-.21865-3.30678,1.77467-5.64822" style="fill: #d9518f;"></path><path d="M67.33168,13.07874c.37524-2.9903,4.75649-7.06671,7.94997-7.39795,2.03284-.21086,3.30201,.96762,2.67712,2.85099-.53108,1.60247-1.59246,3.05541-2.51508,4.74874-1.82119,.82944-3.51446,1.87618-5.36046,2.36718-1.90416,.50463-2.98725-.70035-2.75155-2.56895" style="fill: #d9518f;"></path><path d="M48.17383,30.59275c.52798-1.37836,1.53122-2.59924,2.56858-4.29105,1.80801-.72193,3.75945-1.78343,5.8458-2.25172,1.90104-.42324,2.92212,.91954,2.54377,2.7571-.61172,2.97099-5.29688,6.71729-8.51361,6.81042-2.10186,.06019-3.17642-1.11261-2.44454-3.02475" style="fill: #d9518f;"></path></g></g><g style="opacity: .39999;"><path d="M67.85012,127.89729c2.56084,1.70241,5.03483,3.53998,7.70653,5.07279,2.70427,1.54834,4.81775,3.60131,6.41177,6.11537,2.56316,4.04158,4.27814,8.42463,4.43706,13.26877,.0473,1.45975-.11784,2.98651-.51712,4.40765-1.17847,4.20209-4.93947,6.31298-9.15558,4.93765-2.10417-.68521-4.23084-1.7592-5.85199-3.17239-7.14831-6.23197-11.0357-14.19436-11.84201-23.48856-.20779-2.40503,.5869-4.935,1.03736-7.3919,.13258-.72193,.59544-1.43363,1.03193-2.07455,1.32578-1.94924,2.60967-2.12073,4.32388-.57618,.91795,.82641,1.75295,1.74065,2.62595,2.61438-.06977,.0954-.13878,.19155-.20779,.28695m-4.69835,9.54367c.16359,.52432,.37912,.99563,.45433,1.49117,.82182,5.37754,3.03223,10.15165,6.49861,14.3545,1.6607,2.01435,3.63385,3.72396,6.18461,4.70407,1.73436,.6659,3.51911,.81013,5.27594-.05906,.3016-.14878,.41944-.65606,.62335-.9979-.33493-.11471-.7474-.41529-.99239-.31535-2.67403,1.08914-4.74176-.03104-6.71026-1.4412-3.27024-2.33992-5.45272-5.53048-6.95139-9.09052-1.05208-2.50119-1.59015-5.214-2.37398-7.82687-.10001-.33427-.23414-.70868-.48535-.92938-.1411-.12568-.55046,.02309-1.52347,.11054m1.35291-10.88607l-.32253,.14045c.82647,1.71642,1.47074,3.54641,2.52129,5.12239,1.57697,2.36339,3.82845,4.01243,6.93045,4.21837,.93734,.06208,1.90492-.18058,2.8601-.2843,.02481-.16203,.04885-.32254,.07365-.48457-5.75276-.80332-8.6586-5.0603-12.06296-8.71234" style="fill: #d9518f;"></path></g></g></svg>