<svg xmlns="http://www.w3.org/2000/svg" id="_&#x5716;&#x5C64;_1" data-name="&#x5716;&#x5C64; 1" viewBox="0 0 480.37048 162.39227"><path d="M258.41571,145.22601c.1297,.19073,.27533,.36938,.40765,.55817l-34.38458-44.35333,.72156-.70209-6.22162-6.39258-3.16119-4.07764-.46014,.35681-2.98126-3.06311-1.34082,1.30518,6.52954,6.70862,40.54822,52.30402h4.71521c-.9953-1.18903-1.95178-2.41125-2.82568-3.69629l-1.54688,1.05225Z" style="fill: #8d654f;"></path><path d="M21.65991,130.95013c13.77979-11.15326,28.02832-22.68622,32.74512-39.87274,.21875-.79688,.42627-1.59937,.63379-2.40015,1.55029-5.98779,3.01465-11.64331,8.85986-14.44165,1.71777-.82227,2.86035-.83545,4.36523-.04785,3.63867,1.90234,7.7207,5.61401,10.91943,9.92822,4.04199,5.45166,5.39258,11.78125,3.61328,16.93213-.74609,2.1582-1.99414,4.07056-3.31543,6.09521-.61377,.94043-1.24854,1.91309-1.82422,2.90796-4.55957,7.87842-5.54541,17.73163-2.63818,26.35712l.24219,.71753,.75195-.08716c9.38037-1.08594,19.05811,3.13696,24.64209,10.75977,.01697,.02319,.03247,.04828,.04932,.07153h2.27295c-.26489-.3974-.53198-.79333-.81299-1.177-5.82324-7.94897-15.8042-12.44336-25.60059-11.59033-2.45361-7.95068-1.45703-16.90912,2.7124-24.1142,.55078-.95142,1.17188-1.90283,1.77197-2.82275,1.3252-2.03052,2.69531-4.13013,3.51709-6.50659,.67334-1.94965,.94092-4.04395,.83984-6.19116,6.75415,7.17657,13.11206,14.84149,18.90137,22.80908l1.51367-1.09961c-6.07764-8.3645-12.77197-16.40356-19.89697-23.89429l-.65466,.62274c-.48022-3.68622-2.03308-7.46649-4.58215-10.90424-3.35889-4.53027-7.67871-8.44507-11.55518-10.47192-.51025-.26697-1.00244-.46649-1.48901-.59894,4.46362-2.1618,10.37671-.78638,14.58521,1.38385,2.12939,1.09717,4.20508,2.4458,6.2124,3.75,3.37256,2.19165,6.86035,4.45776,10.81152,5.68945,3.01135,.93817,6.01746,1.22296,8.9751,1.01111l6.45154,9.52441c-3.07483-2.82263-6.41321-5.35193-9.97742-7.53992l-.97852,1.59473c4.80713,2.95117,9.2002,6.53247,13.05664,10.64478l.66211-.62079,12.22607,18.04926c1.37158,2.02539,2.92578,4.32104,5.24902,5.7583,1.6001,.99048,3.39355,1.46729,5.12793,1.92847,.44409,.11798,.88623,.23895,1.32568,.36542l-1.18066,1.27686,12.50977,11.56543,.32715-.35382c3.8479,4.13501,7.89917,8.10175,12.08325,11.91168h2.7594c-5.60278-4.99872-10.94714-10.31793-15.94568-15.88965l-.58521,.52496-9.68433-8.95325c10.22754,3.05487,17.68359,11.59589,24.89404,19.85846,.73584,.84302,1.46826,1.68262,2.20068,2.5127,.58643,.66449,1.1748,1.31781,1.77637,1.94678h2.66956c-1.05286-.9704-2.04968-2.05896-3.0426-3.18457-.73047-.82764-1.46094-1.66455-2.19434-2.50513-7.40186-8.48242-15.05615-17.25366-25.83984-20.44476-.52637-.15576-1.05908-.29761-1.59277-.43945-1.67578-.44556-3.25928-.86646-4.62354-1.71118-1.9834-1.22681-3.41846-3.34619-4.68457-5.21631l-20.88965-30.83893c10.23682-1.54535,19.74915-8.79071,26.65332-15.58685,1.44141-1.41895,2.87695-2.8772,4.31934-4.34229,8.33936-8.47192,16.9624-17.23218,28.28271-19.69849,1.64941-.35938,3.40625-.59497,5.10547-.82275,4.41748-.59253,8.98529-1.20483,12.58246-4.03223,.91412-.71893,1.70093-1.54913,2.40198-2.44006-.18604,.68048-.37952,1.33636-.66907,1.93298-1.06592,2.19238-3.33789,3.64038-5.34277,4.91797l1.00586,1.57764c2.104-1.34082,4.72266-3.00952,6.02002-5.67822,.44189-.9104,.69434-1.86255,.93896-2.7832l.14648-.54541c1.06055-3.86328,2.79541-7.46338,5.15527-10.69995l-1.51172-1.10254c-.07025,.09631-.13452,.19598-.20367,.29291,1.88715-5.23352,4.17432-10.77502,8.09283-14.9079,2.24817-2.37292,5.40973-4.31702,8.75476-5.15155,1.04047,1.72101,2.15253,3.39032,3.25305,5.01923,.72186,1.06836,1.44812,2.15631,2.1571,3.25769l-.73132,.70642,2.97687,3.08197c.20905,.3891,.42822,.77441,.62225,1.16876,2.58496,5.2561,3.93604,12.68115-.02441,17.75781-1.09033,1.39795-2.49414,2.50635-3.98047,3.67969-1.52441,1.20361-3.10107,2.44849-4.33643,4.04932-4.53809,5.87915-2.90674,13.604-1.3291,21.07471,1.58154,7.49072,3.07568,14.56567-1.28857,19.63037-1.01221,1.17529-2.26465,2.10815-3.59082,3.09595-1.10059,.81934-2.23828,1.66675-3.24316,2.6748-1.06689,1.06934-1.95361,2.28833-2.81152,3.46753-1.08496,1.49194-2.10986,2.90088-3.44775,3.99121-1.396,1.13916-3.06348,1.87451-4.8291,2.65308-.41992,.18506-.83984,.37036-1.25537,.56079-11.6391,5.33716-20.56781,15.3335-28.44574,24.15277l1.39551,1.24658c1.98779-2.22546,4.04517-4.52655,6.1936-6.80615l19.31476,24.04041-1.01868,1.07751,4.05017,3.82983h2.72278l-3.68689-3.48633,.89636-.71997-20.84906-25.95013-1.18359,.95062c6.17261-6.52307,13.1084-12.83649,21.39105-16.63446,.40723-.18677,.81836-.36816,1.22998-.54956,1.80176-.79443,3.66504-1.61621,5.25635-2.91479,1.52588-1.24341,2.67139-2.81812,3.77881-4.34106,.85303-1.17261,1.65869-2.28027,2.62305-3.24658,.9082-.91089,1.94141-1.68066,3.03564-2.49561,1.34961-1.00488,2.74463-2.04395,3.89111-3.37524,4.96875-5.76611,3.30811-13.63159,1.70166-21.23804-1.55811-7.37964-3.03027-14.3501,.97998-19.54517,1.09424-1.41846,2.5127-2.53833,4.01465-3.72412,1.50781-1.19019,3.06689-2.42114,4.29639-3.99707,2.4873-3.18872,3.15424-7.12933,2.77704-10.99048l23.40704,28.48676-.46582,.42804,41.68604,45.35205,1.09344-1.00507c8.83105,8.58936,18.12054,16.91785,27.63898,24.7558l1.18945-1.44434c-9.71826-8.0022-19.20508-16.51318-28.19678-25.29614l-.99542,1.01886-40.26953-43.81146,.44122-.36267-25.62256-31.18311-.34796,.28601c-.18506-.83203-.41333-1.64972-.67419-2.44556l31.1972,32.2984-.38641,.29272c-1.3786-1.47803-2.9035-2.82147-4.56744-3.987l-1.07324,1.53223c3.83203,2.68433,6.92334,6.33472,8.93945,10.5564l1.68848-.80615c-.13684-.2865-.29156-.56305-.43756-.84454,6.68512,6.96631,14.66351,12.66772,22.43951,18.2149,7.96185,5.67944,16.1676,11.55859,22.8891,18.72095l-1.01898,1.42163c9.18542,6.58673,18.06659,13.802,26.39728,21.44568l-.13556,.1217,18.6792,20.80902,1.39258-1.25-.66809-.74426c2.92761,1.44513,5.81323,3.04785,7.99329,5.44055,.57666,.6333,1.09473,1.31128,1.64355,2.02905,.5741,.75067,1.18433,1.50812,1.84979,2.22754h2.71747c-.31689-.25061-.62439-.5116-.91345-.79272-.78809-.76685-1.45801-1.64331-2.16748-2.57129-.54883-.71753-1.11572-1.45947-1.74707-2.15259-2.58392-2.83606-6.06714-4.65686-9.28644-6.22119,5.85907-.81787,11.57306-2.41431,17.01007-4.76855,1.79633-.77734,3.00311-1.70844,3.63226-2.77631,6.58539,5.76471,12.34741,12.51221,17.84326,19.28265h2.41168c-5.87396-7.27673-12.02588-14.59863-19.1709-20.82568l-.78265,.89795c.13257-.37427,.21173-.76093,.21234-1.16528,0-.50146-.11182-.96338-.20996-1.37109-.06641-.27466-.12939-.53418-.15088-.77002-.06396-.71851,.21973-1.48871,.51953-2.30389l.11572-.31592c1.90546-5.26843,1.953-11.11584,.1991-16.41418,7.81921,1.16602,14.75342,6.76471,22.00208,12.63977,8.04492,6.5202,16.36377,13.26239,26.38965,13.94427,4.24463,.28931,8.43848-.57935,12.49219-1.41895,2.97412-.61621,6.0498-1.25342,9.07861-1.40967,14.22589-.73615,26.69568,8.59741,37.19452,18.5127h2.70996c-11.07733-10.67828-24.42932-21.18115-40.00116-20.38135-3.17188,.16382-6.31836,.81567-9.36182,1.44604-4.11084,.85132-7.99365,1.65576-11.98535,1.38452-9.43506-.64185-17.51953-7.19427-25.33838-13.53119-7.45282-6.03979-15.11713-12.23907-23.93335-13.16364-.07629-.17755-.14764-.35706-.22827-.5329l-.98041,.4491c-1.54944-.07538-3.1308-.00305-4.75739,.28381-3.38184,.5957-6.66113,2.04077-9.83252,3.43848-5.21729,2.29883-10.14258,4.4707-15.08643,2.84155-4.31201-1.42188-7.26855-5.46411-10.16504-9.83618l-22.99707-34.71387c-2.47559-3.73779-5.03076-7.18628-9.0498-8.31519-1.71387-.48169-3.46143-.44604-5.1543-.41333-1.37646,.02783-2.67871,.05347-3.9375-.18262-5.76807-1.08301-8.41992-6.68799-11.22705-12.62231-2.22754-4.70776-4.53027-9.57568-8.57129-12.60474-4.41113-3.30688-10.01855-3.75171-15.44092-4.18188-5.30273-.4209-10.31152-.81836-14.2876-3.65479-3.14844-2.24658-5.2417-5.84668-7.26611-9.32837-2.46436-4.23853-5.0127-8.62134-9.52881-10.81641-2.68951-1.30737-5.53625-1.55701-8.27496-1.10797-.4361-.76581-.85266-1.53998-1.23285-2.32684l-1.68457,.81396c.31787,.65808,.66443,1.30139,1.01801,1.94037-3.55487,1.01337-6.80719,3.12946-9.11957,5.57013-4.82227,5.08569-7.24609,11.98071-9.38477,18.06421-1.3252,3.76709-2.97412,8.45581-6.44775,11.1875-3.1958,2.51172-7.31439,3.06396-11.67474,3.64868-1.73633,.23267-3.53125,.47339-5.25537,.84912-11.86426,2.58496-20.68652,11.54688-29.21777,20.21411-1.43506,1.45801-2.86377,2.90918-4.29834,4.32129-6.88391,6.77612-16.42407,14.02875-26.51514,15.18677l-.16016-.23657-.45288,.30676c-2.88525,.25909-5.81201,.0108-8.7312-.89832-3.70508-1.15503-6.93213-3.25195-10.34863-5.47217-2.0459-1.32959-4.16211-2.70435-6.375-3.84424-5.53467-2.85449-13.81055-4.40948-19.04224,.5011-.30884,.11139-.62341,.23865-.95093,.39539-6.63037,3.17407-8.27393,9.52148-9.86377,15.66016-.20508,.79224-.41016,1.58569-.62695,2.37402-4.55713,16.6062-17.94434,27.44165-32.11768,38.91351-7.08887,5.73804-14.354,11.64966-20.48267,18.37427H2.5332c5.79163-6.11499,12.54077-11.58936,19.12671-16.91992Zm325.77954,5.72467l-.28931-.32233c.15833-.01788,.31567-.04156,.47382-.06055l-.18451,.38287ZM220.42157,5.11743c4.00342,1.94604,6.29932,5.89404,8.72949,10.07422,2.12402,3.65308,4.32031,7.43042,7.79688,9.91089,2.11047,1.50555,4.47687,2.38556,6.95453,2.94421l-.47797,.49817,26.86816,25.7793,1.29492-1.3501-25.55756-24.52228c2.02643,.31909,4.09863,.48517,6.14447,.64752,.28809,.02289,.57489,.04578,.86115,.06891l-1.01202,1.04657c7.13672,6.89917,14.21484,14.05957,21.03711,21.28174l1.36035-1.28467c-6.72711-7.12097-13.7019-14.17865-20.73615-20.98975,4.8299,.40454,9.35248,.98956,12.95636,3.69116,3.07312,2.30383,5.11383,5.94452,6.94794,9.71027-3.72577-4.1308-7.86237-7.9281-12.29803-11.28571l-1.12891,1.4917c4.35986,3.30029,8.42529,7.03369,12.08398,11.09644l1.37482-1.23773c.34521,.70996,.68604,1.4223,1.02216,2.13275,2.88428,6.09741,5.86719,12.4021,12.57373,13.66113,1.44873,.27124,2.90869,.24292,4.31934,.21436,1.62793-.03149,3.16357-.06274,4.61133,.34399,3.40039,.95508,5.72266,4.11499,7.99609,7.54712l22.99707,34.71387c3.08496,4.65698,6.2583,8.97046,11.13867,10.57983,5.62695,1.85449,11.1167-.56616,16.42676-2.90625,3.06934-1.35278,6.24365-2.75146,9.40234-3.30786,1.47717-.26031,2.91351-.33167,4.3222-.26898,1.90466,5.10858,1.97333,10.84003,.11383,15.98187l-.11182,.30591c-.34131,.92773-.72852,1.97925-.62695,3.11737,.03418,.37427,.11572,.71362,.19531,1.04199,.08105,.33594,.15771,.65308,.15771,.93018-.00146,1.03906-1.01709,2.00513-3.01807,2.87109-5.87744,2.54492-12.08594,4.18652-18.45264,4.87915l.16223,1.4928-16.07727-17.91046-.69629,.625,.75879-.82642c-8.08887-7.42505-16.69672-14.44281-25.5957-20.88507l1.12939-1.02435c-7.00293-7.72339-15.66064-13.89966-24.03369-19.87231-9.01984-6.43414-18.31689-13.07513-25.42841-21.61664l1.08466-1.04767L221.24219,15.41382c-1.32495-2.43201-2.86676-4.74286-4.38019-6.98242-.95416-1.41229-1.92145-2.85193-2.83459-4.32379,2.17773-.23914,4.37311,.02765,6.39417,1.00983Z" style="fill: #8d654f;"></path><path d="M23.88647,138.22162l-.89258-1.64404c-5.09131,2.76532-9.11035,6.86975-12.75598,11.29248h2.43298c3.28125-3.85309,6.80566-7.25317,11.21558-9.64844Z" style="fill: #8d654f;"></path><path d="M34.72144,140.28998c-.01953-.52759-.28174-.96973-.63672-1.27905l13.80078-18.46088-1.49805-1.12012-14.65674,19.60492c-.05078,.05957-.09717,.12427-.13916,.19336l1.54443,1.04053c-.10596,.10718-.25537,.13818-.28467,.08984,.01123,.30469-.47607,.76147-.71045,.98071l-6.97461,6.53076h2.73706l5.51685-5.16528c.46973-.43994,1.34326-1.25879,1.30127-2.41479Z" style="fill: #8d654f;"></path><path d="M48.77612,140.6098c-1.48975,2.4729-3.06921,4.88397-4.69604,7.26025h2.26294c1.3894-2.06708,2.74756-4.1568,4.03564-6.29492l-1.60254-.96533Z" style="fill: #8d654f;"></path><rect x="80.2247" y="121.14144" width="1.87091" height="15.15213" transform="translate(-62.91811 79.76222) rotate(-39.0005)" style="fill: #8d654f;"></rect><path d="M78.44702,116.60181c4.5874,6.89771,9.69922,13.54071,15.19336,19.74408l1.40039-1.24023c-5.43701-6.1394-10.49609-12.71356-15.03613-19.53998l-1.55762,1.03613Z" style="fill: #8d654f;"></path><path d="M81.23901,112.1665c7.08691,9.79077,14.83496,19.26337,23.02881,28.15472l1.37598-1.26807c-8.14404-8.8374-15.84521-18.25238-22.88916-27.98383l-1.51562,1.09717Z" style="fill: #8d654f;"></path><path d="M87.32239,110.49664l-.89587,.62811c5.38232,7.6748,11.21875,15.16669,17.34766,22.26825l1.41602-1.22217c-3.67163-4.25452-7.21997-8.66193-10.6449-13.15332l17.31921,20.4314,1.42676-1.20996-27.29834-32.20502-1.42773,1.20996,2.7572,3.25275Z" style="fill: #8d654f;"></path><polygon points="87.49634 89.78027 139.38318 147.87006 141.89221 147.87006 88.89185 88.53369 87.49634 89.78027" style="fill: #8d654f;"></polygon><path d="M103.64478,96.77979c-6.90527-7.88306-14.04541-16.03442-23.03564-21.69897l-.74133,1.17688c-.14319-.12256-.28125-.25232-.42468-.37439l-1.21191,1.42529c6.52295,5.54712,12.70947,11.61133,18.3877,18.02368l1.40039-1.24023c-4.76538-5.38165-9.90015-10.49994-15.27466-15.29828,7.34302,5.35101,13.50745,12.38647,19.49243,19.21869,7.20801,8.22852,14.66113,16.73706,24.2124,22.3999l.9541-1.60938c-9.29492-5.5105-16.64795-13.90503-23.75879-22.02319Z" style="fill: #8d654f;"></path><rect x="107.80646" y="82.0903" width="1.87096" height="29.97371" transform="translate(-36.41227 110.45765) rotate(-47.02295)" style="fill: #8d654f;"></rect><path d="M99.00122,138.89203c1.68066,3.09338,3.53027,6.0871,5.52588,8.97803h2.28979c-2.2467-3.16315-4.31543-6.45422-6.17212-9.87109l-1.64355,.89307Z" style="fill: #8d654f;"></path><path d="M106.5979,143.09686c1.30835,1.60229,2.63867,3.19141,3.97998,4.77319h2.46423c-1.68762-1.97095-3.35901-3.95319-4.995-5.95679l-1.44922,1.18359Z" style="fill: #8d654f;"></path><path d="M115.34546,137.24457l-1.50098,1.11768c2.27002,3.1402,4.59448,6.32977,6.9541,9.50781h2.32129c-2.63989-3.5368-5.22754-7.10205-7.75879-10.604l-.01562-.02148Z" style="fill: #8d654f;"></path><polygon points="115.21362 142.61346 113.88452 143.93085 117.78906 147.87006 120.42407 147.87006 115.21362 142.61346" style="fill: #8d654f;"></polygon><path d="M117.03271,134.73083c-10.55151-11.75476-20.74365-24.07147-30.29907-36.62952l-1.48926,1.13281c9.78467,12.85913,20.23193,25.46991,31.05127,37.48187l.12671-.11414,10.4436,11.26819h2.5509l-12.27307-13.24219-.11108,.10297Z" style="fill: #8d654f;"></path><polygon points="122.79126 133.31488 135.15991 147.87006 137.61523 147.87006 124.21704 132.10345 122.79126 133.31488" style="fill: #8d654f;"></polygon><polygon points="123.32935 121.84521 145.37061 147.87006 147.82263 147.87006 124.75708 120.63574 123.32935 121.84521" style="fill: #8d654f;"></polygon><path d="M147.23462,132.67621c-5.31445-4.86279-11.08203-9.3161-17.14209-13.23627l-1.0166,1.5708c5.89258,3.81195,11.50049,8.13898,16.67993,12.85645l-.47144,.42181c4.0304,4.50568,8.10791,9.0426,12.20386,13.58105h2.52185c-4.43799-4.91345-8.85706-9.82745-13.22156-14.7063l.44604-.48755Z" style="fill: #8d654f;"></path><path d="M135.677,131.0285c4.77734,5.62689,9.6604,11.26019,14.58032,16.84155h2.4917c-5.28149-5.97516-10.52319-12.01898-15.64526-18.05249l-1.42676,1.21094Z" style="fill: #8d654f;"></path><path d="M160.8064,127.60468c3.79297,5.42358,7.7583,10.86206,11.78564,16.16406l1.49023-1.13184c-4.0127-5.28247-7.96387-10.70093-11.74268-16.10449l-1.5332,1.07227Z" style="fill: #8d654f;"></path><rect x="171.52806" y="123.48807" width="1.87112" height="25.16974" transform="translate(-47.20765 134.05401) rotate(-37.74669)" style="fill: #8d654f;"></rect><path d="M167.23706,122.16333c4.53174,6.20673,9.38916,12.29144,14.43652,18.08514l1.41107-1.229c-5.01263-5.75342-9.83636-11.7959-14.33685-17.95966l-1.51074,1.10352Z" style="fill: #8d654f;"></path><polygon points="175.93921 113.91553 195.75897 135.76337 196.42401 136.85638 198.02167 135.88324 197.31171 134.71552 177.32495 112.6582 175.93921 113.91553" style="fill: #8d654f;"></polygon><path d="M172.68872,117.45483c6.15039,7.0722,12.18158,14.40546,17.92719,21.79681l1.47754-1.14844c-5.7666-7.41797-11.82025-14.77826-17.99261-21.87592l-1.41211,1.22754Z" style="fill: #8d654f;"></path><path d="M180.19995,142.27777c2.20386,1.79492,4.3653,3.66687,6.4809,5.59229h2.75024c-2.61194-2.4389-5.29657-4.80096-8.0495-7.04297l-1.18164,1.45068Z" style="fill: #8d654f;"></path><polygon points="194.57391 145.70551 196.6272 147.87006 199.20605 147.87006 195.93134 144.41791 194.57391 145.70551" style="fill: #8d654f;"></polygon><polygon points="196.17108 140.26263 203.46118 147.87006 206.05225 147.87006 197.52167 138.9682 196.17108 140.26263" style="fill: #8d654f;"></polygon><path d="M212.29657,137.32684c-1.92694-1.92633-3.94135-3.79181-6.0069-5.59344l-.74847-.78302-.07092,.06781c-.93384-.79993-1.87585-1.58826-2.8299-2.35608l1.04779-.96808-18.34277-19.85834-1.37402,1.26953,18.33032,19.84485-.89771,1.11725c1.21515,.97668,2.40875,1.98975,3.58997,3.01849l14.13184,14.78424h2.58826l-9.75513-10.20557,.33765-.33765Z" style="fill: #8d654f;"></path><polygon points="201.36688 131.91107 200.61298 132.63574 182.13306 112.96289 180.76978 114.24365 200.6701 135.42963 201.45026 134.69727 214.11212 147.87006 216.70721 147.87006 201.36688 131.91107" style="fill: #8d654f;"></polygon><polygon points="200.95184 105.21045 236.11322 147.87006 238.53735 147.87006 202.3952 104.02051 200.95184 105.21045" style="fill: #8d654f;"></polygon><polygon points="256.55731 146.09882 256.61786 146.04486 256.10614 145.46747 255.98798 145.56073 212.32635 92.48267 210.88104 93.67114 255.46497 147.87006 256.4314 147.87006 257.32489 147.18988 256.55731 146.09882" style="fill: #8d654f;"></polygon><path d="M200.32001,138.56781l-1.16895,1.46045c3.01825,2.4162,5.86121,5.05353,8.54645,7.8418h2.58301c-3.09052-3.33698-6.41321-6.46301-9.96051-9.30225Z" style="fill: #8d654f;"></path><path d="M207.58368,122.51025l-3.30457-3.53558c-.02167-.02722-.04388-.05414-.06555-.08136l-.00598,.00476-10.89587-11.65759-1.36719,1.27734,10.9231,11.68707c7.54767,9.4892,15.52997,18.75177,23.82086,27.66516h2.55701c-7.59332-8.10565-14.93073-16.5108-21.92157-25.11707l.25977-.24274Z" style="fill: #8d654f;"></path><path d="M194.93378,104.37012c4.75635,4.25024,9.26953,8.85693,13.41406,13.69263l1.4209-1.21777c-4.19824-4.89819-8.77002-9.5647-13.58789-13.86987l-1.24707,1.39502Z" style="fill: #8d654f;"></path><path d="M213.23651,108.42603l-5.41888-5.14758c-.61517-.81494-1.24005-1.62482-1.85016-2.44226l-.40356,.30133-4.50952-4.28375-1.28809,1.35645,6.6532,6.32062c11.31622,14.98346,23.4707,29.52869,36.21191,43.33923h2.54803c-11.44818-12.33234-22.42914-25.26422-32.763-38.58112l.82007-.86292Z" style="fill: #8d654f;"></path><polygon points="218.02167 107.84814 219.33905 106.51953 206.18719 93.36133 204.86395 94.68408 210.93298 100.75598 210.04803 101.51782 249.1062 146.8902 247.87567 147.79437 247.93127 147.87006 252.4184 147.87006 217.62177 107.44806 218.02167 107.84814" style="fill: #8d654f;"></polygon><path d="M262.62476,138.67804c-12.68353-17.08368-26.36792-33.55927-40.82422-49.16595l4.57318,4.25476,1.27441-1.37012-12.47266-11.60376-1.27441,1.36963,.98212,.91376-.89423,.85577c19.09961,19.96094,36.93994,41.47235,53.02588,63.93695l1.52148-1.08936c-.52795-.73737-1.07355-1.46472-1.60529-2.20001,1.21649,1.11499,2.45312,2.20935,3.70154,3.29034h2.89282c-3.6333-3.0575-7.15411-6.25256-10.49884-9.59424l-.40179,.40222Z" style="fill: #8d654f;"></path><polygon points="218.63934 72.52539 219.14801 73.06415 215.49628 69.57666 214.20428 70.92969 231.60614 87.54883 232.21844 86.90765 277.51532 134.88373 278.89911 133.62469 276.84686 131.28339 276.76044 131.35907 219.99969 71.24072 218.63934 72.52539" style="fill: #8d654f;"></polygon><polygon points="232.93878 80.72144 291.72137 129.26215 292.91278 127.81927 233.52557 78.7793 233.15399 79.22931 215.466 60.36865 214.10077 61.64844 232.4328 81.1958 232.93878 80.72144" style="fill: #8d654f;"></polygon><path d="M236.68964,76.72095c-7.625-8.36035-15.1665-16.99829-22.41553-25.67358l-1.43555,1.19971c7.26611,8.6958,14.82568,17.35425,22.46826,25.73462l1.38281-1.26074Z" style="fill: #8d654f;"></path><path d="M241.31854,73.86841l1.39941-1.24219c-8.63818-9.73218-17.91992-19.07178-27.58789-27.75879l-1.25098,1.3916c9.61621,8.64038,18.84814,17.92944,27.43945,27.60938Z" style="fill: #8d654f;"></path><path d="M245.95819,69.74902l1.21875-1.41943c-9.59863-8.24097-18.48242-17.41699-26.40527-27.27295l-1.45801,1.17236c7.99414,9.94531,16.95898,19.20435,26.64453,27.52002Z" style="fill: #8d654f;"></path><path d="M247.72382,61.74023c-1.40033-2.19122-2.92505-4.29736-4.55096-6.32007,1.29034,1.36969,2.58105,2.74207,3.86981,4.10229l1.3584-1.28662c-7.8623-8.29858-15.77197-16.79199-23.50928-25.24463l-1.37988,1.26318c4.00488,4.37531,8.05652,8.76038,12.12335,13.12494-4.15491-3.80719-8.74683-7.13776-13.68488-9.88324l-.90918,1.63525c6.38513,3.54987,12.18457,8.09467,17.16821,13.41302l-1.3938,1.09625c9.94092,12.63721,21.05322,24.48828,33.02783,35.22461l1.24902-1.39307c-8.677-7.77954-16.89105-16.15405-24.53693-24.98529l1.16827-.74664Zm-8.44641-8.02435c1.44373,1.61163,2.81342,3.28992,4.10406,5.02954-1.38818-1.66205-2.75732-3.33771-4.10406-5.02954Z" style="fill: #8d654f;"></path><path d="M258.08173,48.27832l1.25977-1.3833c-13.53027-12.32495-26.85156-25.22534-39.59375-38.34253l-1.3418,1.30371c12.76855,13.14453,26.11719,26.07153,39.67578,38.42212Z" style="fill: #8d654f;"></path><path d="M308.89276,93.49927c-15.58496-12.98511-31.70117-25.77417-47.90137-38.01196l-1.12793,1.49268c16.17676,12.22021,32.26953,24.99072,47.83203,37.95679l1.19727-1.4375Z" style="fill: #8d654f;"></path><path d="M307.04315,87.77783c-14.59717-12.6377-29.6748-25.12549-44.81348-37.11646l-1.16211,1.4668c15.11816,11.97412,30.17432,24.44434,44.75098,37.06421l1.22461-1.41455Z" style="fill: #8d654f;"></path><path d="M311.37177,87.36304c-10.72656-10.72632-22.26465-20.84961-34.29443-30.08862l-1.13965,1.48389c11.96533,9.18945,23.44189,19.25879,34.11084,29.92798l1.32324-1.32324Z" style="fill: #8d654f;"></path><path d="M311.03192,78.57129c-6.91016-5.45703-13.66846-11.29883-20.08789-17.36328l-1.28516,1.35986c6.45947,6.10229,13.26025,11.98071,20.21387,17.47168l1.15918-1.46826Z" style="fill: #8d654f;"></path><path d="M245.26337,73.36255c9.38263,7.84283,18.70093,15.91223,27.86456,24.11975l-24.77521-18.82556-1.13184,1.48975,41.20996,31.3136c.74854,.6969,1.50201,1.39154,2.24756,2.08972l.20898-.22308,4.28223,3.25385,1.13184-1.48975-6.66235-5.06244c-14.00189-13.03333-28.50983-25.84247-43.17554-38.10138l-1.2002,1.43555Z" style="fill: #8d654f;"></path><rect x="261.35316" y="61.24993" width="1.87119" height="69.84097" transform="translate(18.75224 233.043) rotate(-49.47278)" style="fill: #8d654f;"></rect><path d="M275.00934,135.61749c-6.5531-8.07355-13.81903-15.60638-21.65125-22.43512l-1.07825,1.23669c-5.95227-6.24805-11.47968-12.95056-16.4613-19.97327l-1.52637,1.08252c5.82031,8.20508,12.37549,15.98022,19.48242,23.10938l1.3252-1.3208c-.17542-.17596-.34631-.35699-.521-.53375,7.96674,7.20892,15.31458,15.14893,21.86035,23.65625l1.48242-1.14111c-.0752-.09778-.15393-.19299-.22937-.29059,3.16815,2.92621,6.32434,5.8877,9.47137,8.86237h2.73608c-4.66675-4.43115-9.36536-8.82397-14.07672-13.14062l-.8136,.88806Z" style="fill: #8d654f;"></path><path d="M294.10858,144.41278c-6.94873-6.77295-13.83496-13.79761-20.46777-20.8786l-1.36523,1.27899c3.71204,3.96301,7.50793,7.90259,11.34515,11.79639l-.70648,.79004c3.9635,3.54547,8.00562,7.03741,12.10522,10.47046h2.948c-1.33203-1.10553-2.66809-2.20691-3.98755-3.3252l.12866-.13208Z" style="fill: #8d654f;"></path><path d="M297.06024,146.06464c.70306,.6073,1.41687,1.20483,2.12732,1.80542h2.90338c-1.28015-1.06366-2.55139-2.13593-3.80804-3.22144l-1.22266,1.41602Z" style="fill: #8d654f;"></path><path d="M299.03241,138.02338c4.12683,3.36761,8.36102,6.6543,12.66772,9.84668h3.18066c-4.99506-3.64569-9.90533-7.41168-14.66577-11.29639l-1.18262,1.44971Z" style="fill: #8d654f;"></path><path d="M295.91669,126.86591l-.95801,1.60742c10.33276,6.15784,20.61414,12.68274,30.60028,19.39673h1.99756l.42804-.6333c-10.44287-7.05908-21.23193-13.91284-32.06787-20.37085Z" style="fill: #8d654f;"></path><path d="M325.08759,138.5517c-10.48633-6.80127-20.92969-13.94873-31.04053-21.24359l-1.09473,1.51709c9.37024,6.76086,19.02844,13.3822,28.73883,19.73279l-.82428,1.15778,11.45166,8.1543h3.22516l-11.28735-8.03729,.83124-1.28107Z" style="fill: #8d654f;"></path><path d="M288.39032,93.16357c11.06348,8.802,22.64844,17.23169,34.43262,25.05444l1.03516-1.55859c-11.74023-7.79346-23.28125-16.19116-34.30273-24.96021l-1.16504,1.46436Z" style="fill: #8d654f;"></path><path d="M307.67938,96.08887c5.9082,4.25464,11.7334,8.76367,17.31396,13.40186l1.19629-1.43896c-5.61426-4.66577-11.47412-9.20142-17.4165-13.48096l-1.09375,1.51807Z" style="fill: #8d654f;"></path><polygon points="310.50262 94.11206 324.30536 105.9895 325.36902 104.75397 326.18817 105.78955 327.65594 104.62891 317.01874 91.18164 315.55096 92.34229 324.58221 103.75934 311.72333 92.69409 310.50262 94.11206" style="fill: #8d654f;"></polygon><path d="M332.60809,130.17255l-2.58356-2.0661c-.69708-.86182-1.40405-1.72137-2.09711-2.5838l-.56543,.45447-9.20068-7.35797-1.16895,1.46143,11.70807,9.36279c5.0036,6.18396,10.10797,12.34009,15.25842,18.4267h2.4505c-4.80273-5.65881-9.56726-11.38171-14.25134-17.13501l.45007-.5625Z" style="fill: #8d654f;"></path><path d="M336.22821,140.76801c-5.56934-5.11206-11.33936-10.15967-17.14893-15.00244l-.39075,.46863c-9.09802-6.02502-17.9729-12.56073-26.40906-19.46552l.85352-.9303c-13.64502-12.521-26.82324-25.86035-39.16846-39.64722l-1.39355,1.24805c12.3717,13.81659,25.57751,27.18451,39.25098,39.7345l-.80371,.98132c9.18994,7.52637,18.89551,14.625,28.84717,21.09857l.1582-.2431c4.1864,3.53217,8.336,7.15729,12.39874,10.83228l-.86212,.67181,5.73126,7.35547h2.37152l-4.57025-5.86548,1.13544-1.23657Z" style="fill: #8d654f;"></path><path d="M352.09259,146.578c-5.66595-6.44324-11.5238-12.82404-17.50061-19.04645l.06201-.09192c-.15503-.10461-.30823-.21442-.46307-.31958-1.88812-1.96185-3.78436-3.91254-5.69171-5.83978l-1.06018,1.04889c-2.05511-1.52185-4.08514-3.07837-6.07117-4.66852l-1.16895,1.46045c4.12103,3.2998,8.41852,6.46735,12.77899,9.43512,6.06659,6.30774,12.01538,12.77728,17.76239,19.31384h1.56952l.02667-.02338c.01422,.00684,.0271,.01648,.04132,.02338h3.51624c-1.06848-.8089-2.22504-1.53845-3.49884-2.0481l-.30261,.75604Z" style="fill: #8d654f;"></path><path d="M244.08124,92.77173c8.81189,7.90479,17.74609,15.78906,26.73816,23.60437l-1.05505,1.01794c8.78174,9.09857,18.19971,17.76361,27.99268,25.75433l1.18262-1.44971c-8.47675-6.91675-16.6698-14.34247-24.40948-22.11749,8.15393,7.05634,16.34387,14.06,24.5379,20.94952l1.2041-1.43213c-18.47266-15.53192-36.95801-31.5871-54.94189-47.71942l-1.24902,1.39258Z" style="fill: #8d654f;"></path><path d="M275.87128,143.25751c2.28229,1.46222,4.51141,3.00427,6.69122,4.61255h3.10272c-2.83936-2.18335-5.76617-4.25415-8.78418-6.18774l-1.00977,1.5752Z" style="fill: #8d654f;"></path><path d="M270.0954,138.28778c-19.38672-19.90106-37.4209-41.44183-53.60156-64.02338l-1.52051,1.08984c16.14886,22.53772,34.14062,44.03894,53.47589,63.9187l-.66339,.69501c2.82611,2.69739,5.74561,5.31989,8.70514,7.9021h2.85559c-3.38257-2.90546-6.70758-5.87311-9.92133-8.9292l.67017-.65308Z" style="fill: #8d654f;"></path><path d="M358.72577,137.28754l-1.16895,1.46143c3.40045,2.71887,6.50903,5.78613,9.30243,9.12109h2.40051c-3.11499-3.89716-6.63544-7.46466-10.534-10.58252Z" style="fill: #8d654f;"></path><path d="M362.29706,133.49945l-1.28223,1.36279c4.26331,4.00995,8.21313,8.38727,11.81409,13.00781h2.36768c-3.89087-5.125-8.2135-9.96289-12.89954-14.37061Z" style="fill: #8d654f;"></path><path d="M365.47382,134.1413c3.9671,4.4104,7.78516,9.01251,11.41882,13.72876h2.32501c-3.91504-5.1521-8.03796-10.1825-12.35272-14.97974l-1.39111,1.25098Z" style="fill: #8d654f;"></path><path d="M368.39227,131.17596c4.62469,5.59961,9.29291,11.19324,13.92963,16.69409h2.45007c-4.96771-5.88452-9.9765-11.87933-14.93732-17.8855l-1.44238,1.19141Z" style="fill: #8d654f;"></path><path d="M374.65985,123.04272l-1.27441,1.37006c8.11884,7.55096,16.10516,15.44135,23.75934,23.45728h1.20227l.72931-.69409c-7.85352-8.24902-16.06836-16.36865-24.4165-24.13324Z" style="fill: #8d654f;"></path><rect x="387.23375" y="110.40348" width="1.87076" height="42.67393" transform="translate(18.62506 309.13266) rotate(-44.38906)" style="fill: #8d654f;"></rect><rect x="393.49529" y="110.2864" width="1.87111" height="42.90371" transform="translate(24.44231 321.57803) rotate(-45.6313)" style="fill: #8d654f;"></rect><rect x="439.84965" y="127.99355" width="1.8709" height="20.71638" transform="translate(47.52668 380.79869) rotate(-49.07997)" style="fill: #8d654f;"></rect><rect x="446.78629" y="126.93992" width="1.87067" height="21.45597" transform="translate(59.5589 399.84496) rotate(-51.12821)" style="fill: #8d654f;"></rect><path d="M461.01074,143.36975c-4.32971-3.75543-8.81866-7.42743-13.37628-10.9201l-1.1377,1.48486c4.9209,3.77148,9.77051,7.7478,14.41309,11.81836l1.11981-1.27716c1.70563,1.08478,3.38062,2.21851,5.02582,3.39435h3.1709c-2.72528-2.04547-5.5376-3.97461-8.43469-5.7644l-.78094,1.2641Z" style="fill: #8d654f;"></path><rect x="458.17327" y="134.49913" width="1.87111" height="5.71597" transform="translate(13.20936 312.9178) rotate(-38.14692)" style="fill: #8d654f;"></rect><path d="M167.76636,68.68848c2.42627-2.24976,4.93555-4.57642,7.20508-7.08276,4.00049-4.4187,7.29004-9.40723,9.77679-14.82715l-1.7002-.78027c-2.40717,5.24609-5.59125,10.07471-9.46332,14.35156-2.21484,2.4458-4.69336,4.74414-7.09033,6.9668-2.86035,2.6521-5.81787,5.39478-8.39551,8.44287l1.42871,1.20801c2.50439-2.96143,5.41943-5.66479,8.23877-8.27905Z" style="fill: #8d654f;"></path><path d="M178.84595,77.32031c-.1582-.02588-.35205-.10742-.55762-.1936-.30615-.12842-.65332-.27417-1.06543-.3269-1.37305-.17822-2.47949,.78491-3.07666,1.30078-3.37793,2.91968-6.70068,6.00537-9.87598,9.17139l1.32129,1.32471c3.14355-3.13452,6.43359-6.1897,9.77832-9.08057,.52002-.44995,1.11963-.92505,1.61523-.86035,.16064,.02051,.36426,.10596,.57959,.19629,.28223,.11841,.60254,.25269,.97754,.31445,1.36914,.22681,2.56152-.66821,3.19971-1.14819,6.58441-4.9375,12.87299-10.39062,18.69135-16.20801l-1.32324-1.32324c-5.75586,5.75513-11.97705,11.14966-18.49115,16.03491-.57568,.43262-1.23389,.88672-1.77295,.79834Z" style="fill: #8d654f;"></path><path d="M138.23462,100.78223c.24365-.46851,.29883-.95898,.34326-1.35303l.03027-.24854c.2041-1.50732,1.12646-2.98267,2.90186-4.64331,.42188-.39478,.85986-.77612,1.29688-1.15771,1.14404-.99731,2.32666-2.02881,3.26367-3.3147l-1.51172-1.10205c-.81348,1.11597-1.8667,2.03442-2.98145,3.00684-.4541,.39575-.90771,.7915-1.3457,1.20117-2.10693,1.97095-3.2124,3.80078-3.47754,5.75757l-.03516,.29102c-.03125,.2771-.06104,.53906-.14307,.69629-.08154,.15625-.2749,.33057-.46143,.49902l-7.93799,7.16919,1.25391,1.38818,7.93799-7.1687c.27979-.25244,.62744-.56665,.86621-1.02124Z" style="fill: #8d654f;"></path><path d="M167.57153,101.0498c3.83398-1.3623,6.63867-3.36133,8.33643-5.94165l-1.56348-1.02832c-1.46826,2.23242-3.95801,3.98413-7.39941,5.20703-1.84863,.65747-3.81689,1.12158-5.7207,1.57056-1.21533,.28638-2.47168,.58276-3.70264,.9292-7.5376,2.12158-14.4209,6.19702-19.90479,11.78589l1.33496,1.31055c5.25635-5.35645,11.85303-9.26221,19.07666-11.29541,1.19238-.33569,2.4292-.6272,3.625-.90918,1.95312-.46045,3.97266-.93677,5.91797-1.62866Z" style="fill: #8d654f;"></path><rect x="208.23734" y="23.25876" width="8.32745" height="1.87067" transform="translate(92.24028 201.00176) rotate(-62.29788)" style="fill: #8d654f;"></rect><path d="M197.7868,85.3252c-.36963,.38647-.89795,.66895-1.45703,.96826l-.12646,.06763c-3.20068,1.71802-6.15967,3.85693-8.79443,6.35767l1.28809,1.35693c2.51416-2.38599,5.33691-4.427,8.39111-6.06616l.12402-.06641c.6333-.33862,1.35107-.72266,1.92822-1.32642,.6582-.69043,1.01318-1.53711,1.32666-2.28345l6.03809-14.36084-1.72461-.72461-6.03857,14.3606c-.26318,.62744-.53564,1.27637-.95508,1.7168Z" style="fill: #8d654f;"></path><polygon points="353.5119 127.60419 354.85858 128.90302 364.98993 118.39575 364.87079 108.1355 362.99969 108.15698 363.11005 117.64966 353.5119 127.60419" style="fill: #8d654f;"></polygon><path d="M349.09003,120.58667l.28711-.42212c.38037-.56519,.73975-1.09888,1.18652-1.49756,.41064-.36523,.94238-.65527,1.45801-.93677l6.5957-3.60986-.89844-1.6416-6.59521,3.61011c-.57812,.31543-1.23291,.67285-1.8042,1.18091-.62354,.55591-1.06641,1.21362-1.49463,1.84961l-.27344,.40259c-1.42969,2.0686-3.31445,3.85303-5.13672,5.5788l1.28613,1.3584c1.89209-1.79175,3.84863-3.64423,5.38916-5.8725Z" style="fill: #8d654f;"></path><polygon points="407.56903 130.23212 406.33173 131.63544 424.74719 147.87006 427.57635 147.87006 407.56903 130.23212" style="fill: #8d654f;"></polygon><polygon points="420.45673 146.99628 419.53247 147.87006 421.28278 147.87006 420.45673 146.99628" style="fill: #8d654f;"></polygon><path d="M441.03534,144.43134c-4.42627-3.78864-8.99036-7.49426-13.6167-11.02954l-1.13574,1.48682c5.34668,4.08594,10.62256,8.39355,15.68018,12.80298l1.19653-1.37231,2.34229,1.55078h3.38947l-7.04449-4.66406-.81152,1.22534Z" style="fill: #8d654f;"></path><polygon points="424.66461 138.77399 433.73297 146.5213 433.38104 147.04901 434.61249 147.87006 437.98523 147.87006 437.6524 147.64813 437.7702 147.51019 422.02069 134.05414 421.01263 135.23346 418.85028 133.13715 417.54755 134.48041 431.35883 147.87006 434.04712 147.87006 424.66461 138.77399" style="fill: #8d654f;"></polygon><path d="M383.95721,114.17407l-1.36621,1.27832c10.53284,11.25354,21.69843,22.14203,33.21368,32.41766h2.81146c-12.02856-10.64441-23.68719-21.97345-34.65894-33.69598Z" style="fill: #8d654f;"></path><path d="M401.42627,147.87006h1.21289c-.21649-.20062-.43945-.39673-.65509-.5979l-.5578,.5979Z" style="fill: #8d654f;"></path><path d="M419.09735,148.28143l.43512-.41138h-.91632c.19794,.17517,.39386,.35382,.59198,.52856l-.11078-.11719Z" style="fill: #8d654f;"></path><path d="M172.02759,161.85638l-.6416,.53589c.16699-.03809,.33887-.12524,.48047-.28345,.07129-.07983,.12402-.16553,.16113-.25244Z" style="fill: #8d654f;"></path><path d="M120.79858,147.87006h-.37451l1.46997,1.48309c-.36914-.49341-.72852-.98883-1.09546-1.48309Z" style="fill: #8d654f;"></path></svg>