<svg xmlns="http://www.w3.org/2000/svg" id="_&#x5716;&#x5C64;_1" data-name="&#x5716;&#x5C64; 1" viewBox="0 0 638.69604 244.61182"><path d="M579.08374,195.92896c-2.87256-2.60791-5.45947-5.62134-7.96094-8.5354-3.23438-3.76782-6.5791-7.66406-10.58887-10.74292-7.06689-5.42603-18.23975-7.89795-25.02588-1.79248-.58594,.52734-1.15479,1.12402-1.70508,1.70093-1.67676,1.75854-3.26074,3.41943-5.44873,3.521-1.82959,.0896-3.42725-1.01807-5.08789-2.18823-1.40967-.99341-2.86719-2.02075-4.5708-2.32202-2.48291-.43945-4.7583,.73389-6.96338,1.86719-.94531,.4856-1.92285,.98779-2.89453,1.34985-10.97852,4.09082-20.2207-7.94507-27.64941-17.61597-.50439-.65698-1.00146-1.30396-1.49072-1.93555-7.03857-9.08496-16.39941-16.66187-25.45215-23.98926-14.85938-12.0271-28.89453-23.38745-33.69971-40.89746-.22656-.82495-.44141-1.65552-.65625-2.48462-1.62109-6.2627-3.29785-12.73853-9.9502-15.92261-.36047-.17273-.70123-.30646-1.03479-.42249-5.21088-5.02515-13.6286-3.42419-19.25964-.52209-2.27832,1.17407-4.46924,2.59839-6.58838,3.97559-3.44287,2.23755-7.00293,4.55127-10.94971,5.78076-2.44843,.76343-5.39514,1.22607-8.81262,.9881l.14954-.22076-.58398-.39551-.3689,.54462c-7.4295-.74243-16.98132-4.79779-28.40015-16.039-1.49707-1.47363-2.9873-2.98804-4.48535-4.50977-8.83301-8.97412-17.9668-18.25391-30.15869-20.91064-1.77295-.38599-3.63135-.63525-5.4292-.87622-4.43018-.59399-9.01074-1.20825-12.47705-3.93237-3.76465-2.96069-5.51709-7.94482-6.92529-11.94971-2.21045-6.28491-4.71631-13.4082-9.65088-18.61475-3.1189-3.29041-6.64233-5.10205-9.99792-5.83447,.50854-.88434,.99805-1.77924,1.4408-2.69604l-.63477-.30664c-.4696,.97266-.99573,1.92188-1.54187,2.86115-3.27356-.56512-6.34473-.1156-8.66125,1.00995-4.5376,2.20605-7.14648,6.69238-9.66895,11.03076-2.14404,3.68799-4.36133,7.50146-7.75439,9.92212-4.28613,3.05762-9.83936,3.49805-15.20996,3.92432-5.56641,.44141-11.32178,.89819-15.77783,4.23877-4.09082,3.06641-6.45898,8.07178-8.74902,12.9126-2.99707,6.33521-5.82764,12.31909-12.1543,13.50684-1.37598,.25757-2.8291,.22876-4.23486,.20093-1.71924-.03369-3.49463-.06958-5.19238,.40723-3.98486,1.11938-6.57178,4.61963-9.08594,8.41577l-23.98096,36.19873c-3.08301,4.65356-6.23779,8.95874-10.92334,10.50391-5.37988,1.77368-10.62451-.53687-16.17627-2.98413-3.27344-1.44263-6.6582-2.93457-10.11133-3.54248-1.67957-.29572-3.30481-.3717-4.89429-.29645,.07556-.17603,.14636-.35394,.22632-.52826l-.64062-.29395c-.13208,.28821-.2533,.58075-.37415,.87335-9.07104,.75708-16.84888,7.03198-24.99402,13.633-8.22852,6.66895-16.73682,13.5647-26.77246,14.24707-4.24951,.28906-8.5293-.59766-12.66895-1.45508-3.1499-.65234-6.40625-1.3269-9.66602-1.49561-5.8866-.30481-11.47705,.98248-16.76538,3.2749v.7619c5.27576-2.32544,10.85388-3.63721,16.72925-3.3327,3.20557,.16602,6.43555,.83496,9.55908,1.48193,4.18652,.86694,8.51465,1.76538,12.85986,1.46777,10.25781-.69727,18.85498-7.66455,27.16846-14.40259,7.94629-6.44006,15.53088-12.57446,24.26428-13.45105-2.12207,5.63806-2.19092,11.97913-.13586,17.65979l.12012,.32935c.32227,.87598,.65527,1.78174,.57617,2.66895-.02686,.29272-.09717,.58398-.17139,.89258-.09912,.41089-.20166,.83594-.20117,1.28564,.00195,1.66064,1.32959,3.07715,3.94629,4.21045,6.25391,2.70703,12.85742,4.45288,19.62646,5.18945l.07617-.70068c-6.69873-.729-13.2334-2.45703-19.42236-5.13574-2.33545-1.01123-3.52002-2.21045-3.52148-3.56421-.00049-.36572,.08789-.73193,.18164-1.11963,.07666-.31934,.15674-.6499,.18799-.99463,.09277-1.04541-.26758-2.02661-.61621-2.97534l-.11914-.32568c-2.03455-5.62463-1.93201-11.91608,.24353-17.47223,1.64844-.10571,3.3335-.0448,5.07581,.26202,3.36865,.59302,6.71387,2.06738,9.94873,3.49341,5.4292,2.39307,11.04297,4.86719,16.68164,3.0083,4.8999-1.61572,8.13672-6.02295,11.29053-10.78394l23.98096-36.19897c2.43799-3.68091,4.93701-7.07227,8.68848-8.12622,1.59766-.44873,3.24463-.41479,4.98779-.3811,1.44238,.0293,2.93164,.05835,4.37891-.21289,6.68018-1.25391,9.58545-7.39575,12.66162-13.89819,2.25342-4.76318,4.5835-9.68848,8.53467-12.65015,4.29248-3.21802,9.94434-3.66626,15.41064-4.1001,5.46631-.43359,11.11865-.88208,15.56348-4.05322,3.5166-2.50879,5.77295-6.38892,7.95459-10.14136,2.5835-4.44287,5.02344-8.63916,9.36816-10.75122,2.51306-1.22168,5.26648-1.43915,7.95349-.97443-1.09692,1.82758-2.28125,3.60571-3.45349,5.34064-1.58435,2.34436-3.19812,4.76392-4.57471,7.30151l-38.38184,39.73462,.50684,.48975,36.78357-38.08002c-.79565,1.74384-1.45581,3.67212-1.875,5.67316l-.42712-.35095-26.71924,32.51611,.4613,.37909-42.68982,46.44611,.51953,.47705,43.46777-47.29248-.48669-.4469,25.81226-31.41241c-.89185,4.552-.51172,9.42065,2.44299,13.20721,1.23633,1.58496,2.83203,2.84497,4.37549,4.06348,1.52637,1.20508,3.10449,2.45093,4.29248,3.99023,4.35693,5.64502,2.72021,13.39526,1.1377,20.89038-1.64355,7.78345-3.34326,15.83179,1.63623,21.61108,1.15088,1.33594,2.57764,2.39868,3.95752,3.42627,1.10938,.82617,2.25635,1.68042,3.23584,2.66309,1.04053,1.04224,1.93457,2.27148,2.79932,3.46045,1.13086,1.55469,2.30029,3.16235,3.82764,4.40747,1.59473,1.30078,3.49805,2.13989,5.33838,2.95166,.43262,.19067,.86475,.38135,1.29248,.57739,11.88818,5.4519,21.09814,15.7644,29.22412,24.86279l.52539-.46973c-8.17139-9.1499-17.43359-19.52051-29.45557-25.03369-.43115-.19775-.86621-.38965-1.30176-.58179-1.79785-.79272-3.65674-1.61255-5.17773-2.85303-1.45654-1.18726-2.59863-2.75732-3.70264-4.27588-.88086-1.21069-1.7915-2.46265-2.87061-3.5437-1.01611-1.01904-2.18408-1.88892-3.31396-2.73047-1.34912-1.00488-2.74414-2.04395-3.84424-3.3208-4.75195-5.51514-3.16309-13.03931-1.48096-21.00537,1.61621-7.65186,3.28711-15.56396-1.26904-21.4668-1.24072-1.60815-2.85352-2.88135-4.41357-4.11279-1.51074-1.19287-3.07275-2.42603-4.25684-3.94385-4.30713-5.52026-2.87256-13.52441-.09326-19.17456,.21838-.44409,.4635-.87732,.69934-1.31439l3.16492-3.27643-.50684-.48975-1.21643,1.2594c1.00867-1.6438,2.08057-3.2486,3.14075-4.81775,1.22668-1.81531,2.46741-3.67773,3.60962-5.60059,3.77722,.83386,7.3623,2.99908,9.8811,5.65649,4.83154,5.09766,7.31055,12.14551,9.49756,18.36377,1.43848,4.09106,3.22852,9.18262,7.15479,12.27002,3.61719,2.84326,8.29492,3.47046,12.81885,4.0769,1.78369,.23901,3.62793,.48633,5.37256,.86646,11.9873,2.61206,21.0459,11.81567,29.80664,20.71606,1.50049,1.52441,2.99365,3.0415,4.49316,4.51782,7.3468,7.2326,17.54999,14.96295,28.43768,16.21143l-22.34784,32.99292c-1.35596,2.0022-2.89258,4.27148-5.07275,5.61963-1.50098,.92896-3.27393,1.40039-4.98828,1.8562-.55078,.14648-1.10156,.29297-1.64502,.45386-11.07178,3.27637-18.99268,12.35376-26.65332,21.13232-.76514,.87671-1.52686,1.75-2.28857,2.61353-2.27197,2.57373-4.5542,4.99316-7.4917,6.3125-2.08545,.93823-4.4248,1.26733-6.6875,1.58569-1.11426,.15674-2.2666,.31885-3.38574,.55176-7.40771,1.54077-13.97705,6.43555-17.57324,13.09375-.54639,1.01147-1.0332,2.07422-1.50342,3.10181-.88428,1.93188-1.79883,3.9292-3.12646,5.59619-1.87158,2.35229-4.47803,3.9812-6.99902,5.5564l-32.15771,20.09229,.37402,.59766,32.15771-20.09229c2.57129-1.60669,5.22998-3.26807,7.17676-5.71509,1.38086-1.73413,2.31348-3.77148,3.21582-5.7417,.46533-1.01733,.94727-2.06909,1.48242-3.0603,3.49902-6.47754,9.89014-11.2395,17.09668-12.73853,1.09668-.22827,2.2373-.38867,3.34033-.54395,2.31152-.3252,4.70166-.66138,6.87842-1.64062,3.06543-1.37695,5.40625-3.85522,7.73096-6.48926,.7627-.86426,1.52588-1.73853,2.2915-2.61646,7.59424-8.70264,15.44678-17.70166,26.32227-20.91992,.53711-.15894,1.08154-.30371,1.62646-.44849,1.76367-.46899,3.5874-.95386,5.17773-1.93774,2.30811-1.42749,3.88965-3.76318,5.28564-5.82373l22.55676-33.30139c3.12848,.2663,6.30884-.01379,9.49011-1.00525,4.03955-1.2583,7.64111-3.59912,11.12402-5.86279,2.10449-1.36768,4.28027-2.78198,6.52734-3.94019,5.07397-2.61523,12.47351-4.15356,17.45386-.43854-1.07666-.0993-2.09393,.13568-3.22437,.72687-3.9624,2.07202-8.3877,6.08667-11.83691,10.73926-4.47607,6.03589-5.95508,13.09424-3.95557,18.8811,.83105,2.40527,2.23779,4.56152,3.59863,6.64697,.63086,.96606,1.28271,1.96509,1.86523,2.97168,4.51904,7.80762,5.5332,17.55249,2.73242,26.12598-10.16602-1.0686-20.59229,3.53638-26.63574,11.78613-1.41406,1.92969-2.61914,4.07349-3.78516,6.14648-2.25293,4.00586-4.38037,7.78955-7.93896,10.34131-.89502,.64185-1.91113,1.23022-2.89355,1.79932-2.69189,1.55957-5.47559,3.17236-6.37256,6.15454-.57764,1.92163-.18164,3.94653,.20117,5.90479,.42236,2.15942,.82129,4.19922-.01172,6.04492-.83984,1.86035-2.78613,3.02588-4.54443,3.97241-.58105,.31323-1.1709,.62769-1.7666,.94482-7.47607,3.98169-15.94922,8.49463-17.48242,16.8252-.06982,.37842-.125,.76587-.18066,1.15454-.19727,1.3811-.3833,2.68579-1.19287,3.66772-1.01221,1.22754-2.729,1.60132-4.38965,1.96289l-.17529,.03809c-14.65283,3.20264-27.60547,13.01978-34.64893,26.26099l.62207,.33105c6.94775-13.06079,19.72412-22.74414,34.17725-25.90308l.17529-.03833c1.69482-.3689,3.61572-.78711,4.7832-2.20312,.93555-1.13477,1.14453-2.59985,1.34668-4.0166,.0542-.37915,.1084-.75732,.17627-1.12671,1.47168-7.99561,9.78564-12.42383,17.12061-16.33057,.59619-.31763,1.1875-.63257,1.76953-.94629,1.85986-1.00122,3.92188-2.24194,4.85254-4.30298,.92578-2.05078,.48633-4.29761,.06104-6.47046-.36621-1.87402-.74561-3.81177-.21826-5.56616,.81689-2.71509,3.35938-4.18799,6.05127-5.74756,.99707-.57764,2.02783-1.1748,2.95117-1.83667,3.68506-2.64258,5.95117-6.67188,8.14209-10.56836,1.15576-2.05493,2.35059-4.17993,3.73926-6.07568,5.95264-8.12622,16.26416-12.62891,26.27148-11.47095l.28369,.03296,.09082-.27051c2.9751-8.82739,1.96533-18.91089-2.70068-26.97314-.59229-1.02295-1.24951-2.03003-1.88477-3.00391-1.33789-2.04956-2.7207-4.16895-3.52344-6.49194-1.92285-5.56665-.48145-12.38208,3.85596-18.23096,3.38916-4.57129,7.72461-8.50928,11.59766-10.53442,1.75098-.91553,3.13623-.90479,5.10986,.04077,6.35645,3.04272,7.91895,9.07593,9.57275,15.46362,.21533,.83228,.43115,1.66626,.65869,2.49438,4.86523,17.72876,18.98584,29.1582,33.93604,41.25903,9.021,7.302,18.34961,14.85254,25.33789,23.8728,.48926,.63086,.98535,1.2771,1.48926,1.93335,6.50684,8.47095,14.37988,18.72266,23.74316,18.72144,1.53027-.00024,3.10156-.27417,4.71143-.87427,1.01074-.37646,2.00684-.88843,2.97021-1.3833,2.19873-1.12939,4.27783-2.19751,6.51855-1.80005,1.54932,.27368,2.94141,1.25488,4.28809,2.20386,1.68408,1.18652,3.42529,2.41528,5.52637,2.31616,2.4707-.1145,4.22705-1.95679,5.92627-3.73853,.54102-.56738,1.10059-1.1543,1.6665-1.66357,6.50244-5.8501,17.28271-3.42529,24.12451,1.82764,3.95215,3.03442,7.27246,6.90259,10.4834,10.64307,2.51562,2.93042,5.11719,5.96069,8.02246,8.59814,15.25244,13.84668,37.10547,16.21484,60.04395,17.57568l.04199-.70361c-22.80811-1.35327-44.52979-3.70166-59.6123-17.39404Z" style="fill: #e4877c;"></path><path d="M227.42163,189.25977c-3.06995-1.05267-6.03015-2.42914-8.84778-4.06305,3.70093-3.99579,7.52222-7.93335,11.40332-11.78558,.16663,.18304,.35718,.35071,.59143,.47705,.33691,.18188,.69629,.27319,1.04395,.27319,.31836,0,.62744-.07642,.90088-.22998l-.3457-.61475c-.35986,.20312-.8335,.18433-1.26465-.04883-.17334-.09351-.31287-.21625-.42981-.35077,.61475-.60797,1.22803-1.21613,1.84583-1.81909,.21838,.19312,.37952,.47125,.44385,.8056,.0835,.43677-.01074,.85278-.25342,1.13745l-.09277,.09644,.49512,.50146c.0415-.03906,.08105-.08008,.11865-.1228l33.94629-35.31519-.50781-.48877-32.97949,34.30908c-.00684-.08301-.01855-.16675-.03467-.25073-.08997-.46948-.32092-.86456-.63306-1.15747,1.1217-1.09076,2.24353-2.18176,3.37329-3.25391l-.48535-.51123c-1.17249,1.11267-2.33728,2.24426-3.5011,3.37695-.35889-.12872-.74866-.12823-1.12976-.02423l30.73206-32.15033c1.24414-1.08417,2.5011-2.15112,3.77966-3.17847l-.44141-.54932c-.99597,.80035-1.9801,1.62354-2.95618,2.4588l-.07556-.07233-.79797,.8349c-2.14893,1.87341-4.24683,3.81567-6.25671,5.82404l.35242,.35272-26.34998,27.56622-.12158-.10083-1.38818,1.6814,.52686,.46802,1.41174-1.47693c-.02466,.14075-.03979,.2832-.02991,.42664,.01245,.1795,.05774,.35278,.12244,.51984-3.9248,3.89264-7.7887,7.87329-11.53064,11.91302l.51624,.47784c-9.34277-5.41803-17.05371-13.78894-21.44983-23.61237l-.0957-.21362-.23389,.00537c-5.72559,.1272-11.33887,2.82349-15.01562,7.21265-.20068,.23926-.39795,.48511-.59521,.73145-.8501,1.05957-1.72852,2.15503-2.91797,2.71313-1.27979,.59961-2.79053,.52441-4.25195,.45166-.31934-.01587-.6377-.03174-.95312-.04102-8.64746-.25269-16.21387,4.65845-23.52783,9.40942-1.67529,1.08838-3.40771,2.21362-5.10938,3.24536-10.63159,6.44604-22.77869,10.49579-35.15198,11.73035l12.79749-7.31311-.34961-.6123-20.86182,11.92139,.34961,.6123,7.72253-4.41296,.05237,.54553c12.60107-1.20166,24.98291-5.30566,35.80664-11.86816,1.71143-1.0376,3.44824-2.16602,5.12793-3.25708,7.22266-4.69214,14.68066-9.55005,23.12354-9.29614,.31055,.00928,.62402,.0249,.93848,.04053,1.54785,.07739,3.14844,.15723,4.58643-.51758,1.3374-.62744,2.26855-1.78784,3.16846-2.91016,.19434-.24243,.38818-.48438,.58545-.71973,3.49854-4.17627,8.81396-6.76465,14.2583-6.9541,.22119,.48779,.4657,.96484,.70276,1.44537l-.41272-.21246-9.99902,19.41602c-.64258,1.24756-1.30713,2.53735-2.26367,3.57275-1.25293,1.3584-2.97412,2.23584-4.63916,3.08423-.39014,.19873-.77979,.39722-1.16309,.60156-5.52881,2.94604-10.17334,7.33179-13.43164,12.68286l-.24561,.40576c-1.11963,1.85474-2.27783,3.77246-4.21924,4.28247-.85205,.22437-1.74072,.13745-2.6792,.04639-.70703-.06885-1.43701-.14038-2.16602-.07104-.12329,.0116-.24414,.03864-.36609,.05969l11.16248-10.98596-.49414-.50244-11.30273,11.12402,.39648,.40314c-1.50134,.33636-2.86182,1.37848-3.71875,2.88226-.97119,1.70361-1.10645,3.66284-.36182,5.24023l.6377-.30078c-.64648-1.37012-.521-3.08618,.33643-4.59033,.85742-1.50391,2.26904-2.48633,3.77686-2.62817,.66113-.0625,1.32715,.00244,2.03125,.07104,.95996,.09302,1.95361,.19019,2.92676-.06641,2.21826-.58252,3.50684-2.7168,4.64355-4.59985l.24463-.40332c3.19238-5.24341,7.74316-9.54053,13.16016-12.42725,.37988-.20239,.76562-.39893,1.15186-.5957,1.72021-.87671,3.49902-1.7832,4.8374-3.23413,1.02148-1.10547,1.70801-2.43872,2.37256-3.72827l9.91638-19.25562c6.04333,12.06451,17.02783,21.75018,29.78333,26.12402l.22852-.66699Zm3.33154-18.14429c.26123-.19135,.55115-.28278,.82935-.28662-.47351,.46295-.94275,.93103-1.41443,1.39691-.0238-.40839,.1936-.82281,.58508-1.11029Z" style="fill: #e4877c;"></path><path d="M492.26489,199.75757c-2.78564-1.9978-5.66602-4.06372-8.93018-5.28784-3.88391-1.45679-8.37347-1.70386-13.11902-.77625,.06934-.28369,.12488-.57043,.20056-.85266l-.68066-.18262c-.10675,.39783-.18787,.80145-.28217,1.20215-2.612,.57623-5.2934,1.49506-7.9903,2.76855-4.47021,2.11108-8.63623,4.91211-12.66455,7.62085-2.0542,1.38135-4.17871,2.80957-6.31494,4.12695-9.58984,5.91602-20.23486,10.12354-30.5293,14.19238l-25.46533,10.06787,.25879,.65576,25.46533-10.06787c10.32324-4.08032,20.99756-8.29932,30.64062-14.24805,2.14795-1.32471,4.27832-2.75684,6.33838-4.14209,4.00684-2.69409,8.1499-5.47998,12.57178-7.56812,2.53589-1.19757,5.05511-2.07684,7.51099-2.646-.56274,2.62061-.87244,5.29163-.89819,7.9707l-.00146,.16284,.12305,.10669c2.86035,2.48511,5.89697,5.44336,5.71191,9.10718-.04053,.79224-.23291,1.55786-.43701,2.36816-.13525,.53711-.2749,1.09229-.36523,1.65405-.43158,2.6991,.24908,5.23846,1.49347,7.61786l-14.41583,8.5589,.35986,.60645,14.38983-8.5437c.57275,1.00464,1.242,1.97864,1.96478,2.92352l-12.0553,9.75983,.44336,.54785,12.04395-9.75067c.95465,1.19952,1.98413,2.34998,3.00244,3.44916l.51758-.479c-1.93823-2.09192-3.92255-4.36914-5.31073-6.81049l.78632-.46686-.36035-.60596-.75806,.45007c-1.17059-2.2525-1.80597-4.63855-1.40503-7.14539,.08545-.53101,.22119-1.07129,.35254-1.59351,.20361-.80786,.41357-1.64307,.45752-2.50464,.19824-3.92554-2.88135-6.99561-5.83057-9.56787,.03687-2.68536,.36768-5.36072,.95343-7.98334,4.7323-.97571,9.20319-.76544,13.04999,.67743,3.17676,1.19141,6.01855,3.22949,8.7666,5.20068l.95703,.68457c14.98145,10.66064,31.52881,18.66748,49.18164,23.79785l.19629-.67676c-17.57666-5.1084-34.05225-13.08081-48.96875-23.69531l-.95508-.68335Z" style="fill: #e4877c;"></path><rect x="447.28902" y="224.52393" width="26.18221" height=".70507" transform="translate(-51.51036 246.95398) rotate(-28.50318)" style="fill: #e4877c;"></rect><rect x="442.30132" y="221.15527" width="29.88808" height=".70509" transform="translate(-48.91529 265.55805) rotate(-30.82121)" style="fill: #e4877c;"></rect><path d="M467.5564,209.39404c-9.93408,4.84473-19.81201,10.10327-29.36035,15.62988l.35352,.61035c9.53369-5.51831,19.39697-10.76904,29.31543-15.60645l-.30859-.63379Z" style="fill: #e4877c;"></path><path d="M465.24243,204.19897c-10.06445,5.24219-19.95068,11.0896-29.38477,17.37988l.39062,.58643c9.41357-6.27612,19.27783-12.1106,29.31934-17.34082l-.3252-.62549Z" style="fill: #e4877c;"></path><path d="M464.12769,199.55835c-10.58936,3.64111-20.48486,8.91382-29.41211,15.67139l.42578,.56201c8.86719-6.7124,18.69727-11.94995,29.21582-15.56689l-.22949-.6665Z" style="fill: #e4877c;"></path><path d="M549.07007,191.69751c.51367-.19775,1.01758-.4248,1.52051-.6521,.9707-.43823,1.8877-.85229,2.87939-1.06445,2.56445-.552,5.57568,.38477,8.05469,2.50342,2.27734,1.94336,3.89795,4.53906,5.46533,7.04956l.59766-.37354c-1.59521-2.55566-3.24512-5.19824-5.60498-7.21216-2.646-2.26074-5.88672-3.25342-8.66064-2.65674-1.06543,.22803-2.06006,.67725-3.02148,1.11133-.49121,.22192-.98242,.44385-1.4834,.63672-7.48438,2.87964-15.81982-1.04517-23.0459-4.94824l-.33496,.62012c7.36475,3.97803,15.87207,7.97192,23.63379,4.98608Z" style="fill: #e4877c;"></path><path d="M468.90747,160.64038c3.15869,4.1272,6.42529,8.39478,10.21045,11.99219,5.93311,5.63916,13.1626,9.67725,20.15381,13.58252,1.15625,.64526,2.46631,1.37646,3.90088,1.59961,.92725,.14404,1.86279,.06982,2.76611-.00122,.37207-.0293,.74365-.05884,1.11475-.073,5.58496-.20557,10.50391,2.86133,15.89551,6.59326l.40137-.57959c-4.23975-2.93506-10.0376-6.94653-16.32373-6.71826-.38037,.01465-.76221,.04468-1.14307,.07471-.90332,.07129-1.75635,.13867-2.60303,.00732-1.30908-.20361-2.50684-.87207-3.66504-1.51855-6.95312-3.88379-14.14307-7.89966-20.01221-13.47803-3.74463-3.55884-6.99365-7.80396-10.13574-11.90942-5.07471-6.63013-10.32178-13.48608-17.74561-17.51831l-.33691,.61963c7.29248,3.96045,12.49316,10.75562,17.52246,17.32715Z" style="fill: #e4877c;"></path><path d="M441.62573,145.52026c.14404-.03638,.21582-.00391,.25439,.03101l.05615,.07495,.58398-.39355c-.0293-.0481-.06201-.09253-.09766-.13306l-15.2959-20.46094-.56445,.42212,14.80322,19.802c-.46094,.15454-.93213,.60059-.95215,1.17798-.03125,.84937,.58252,1.49829,1.16064,2.04028l9.39258,8.79492,.48145-.51465-9.39209-8.79468c-.48584-.45557-.9585-.94653-.93848-1.50049,.00879-.24976,.27002-.48389,.5083-.5459Z" style="fill: #e4877c;"></path><path d="M423.99731,147.03589c7.979,13.2439,17.85205,25.20288,29.34521,35.54443l.47168-.52393c-11.44141-10.29517-21.27002-22.19995-29.21338-35.38428l-.60352,.36377Z" style="fill: #e4877c;"></path><path d="M577.03735,215.42261c-2.02246-.84961-4.10645-1.73169-6.34375-1.66406-.85449,.02417-1.69434,.18994-2.50684,.34985-.48096,.09497-.96191,.18994-1.44629,.25562-3.021,.40942-6.18164-.35376-8.96924-1.02612l-13.95801-3.36621-.16504,.68555,13.95801,3.36621c2.84766,.68652,6.07617,1.46484,9.229,1.03931,.49854-.06763,.99316-.16504,1.48779-.26245,.82031-.16187,1.59473-.31445,2.39111-.33716,2.06982-.0603,4.09668,.78882,6.05029,1.60938l.34619,.14526c8.49219,3.55273,17.49219,5.98438,26.19629,8.33594l.18359-.68066c-8.68164-2.34546-17.65869-4.77075-26.10742-8.30566l-.3457-.14478Z" style="fill: #e4877c;"></path><rect x="540.16055" y="209.38542" width=".70478" height="22.26871" transform="translate(79.71727 578.91978) rotate(-60.06984)" style="fill: #e4877c;"></rect><path d="M391.88452,211.33252l.26758,.36523,12.08252-14.63843-.54395-.44873-11.52441,13.9624c-2.09766-2.19531-6.104-.29346-7.32617,.36938-10.12012,5.48071-19.60742,12.14966-28.19824,19.82202l.46973,.52588c8.5498-7.63599,17.99219-14.27319,28.06445-19.72803,1.15479-.62573,5.0498-2.49097,6.7085-.22974Z" style="fill: #e4877c;"></path><rect x="348.29861" y="212.60493" width="16.05854" height=".70519" transform="translate(-58.45216 229.63025) rotate(-33.16629)" style="fill: #e4877c;"></rect><rect x="383.46548" y="133.59765" width="15.80098" height=".70508" transform="translate(40.92257 353.72144) rotate(-50.98698)" style="fill: #e4877c;"></rect><path d="M377.35864,141.02466l.52734,.46729c5.71143-6.44897,11.02441-13.35303,15.79102-20.52075l-.58691-.39062c-4.74902,7.14087-10.04199,14.01929-15.73145,20.44409Z" style="fill: #e4877c;"></path><path d="M366.29321,145.15039l.51855,.47754c8.52393-9.24951,16.58789-19.10815,23.96777-29.302l-.57129-.41357c-7.36328,10.17163-15.40967,20.00879-23.91504,29.23804Z" style="fill: #e4877c;"></path><rect x="350.82617" y="127.36607" width="44.02442" height=".70535" transform="translate(34.33276 329.54659) rotate(-49.71405)" style="fill: #e4877c;"></rect><path d="M354.41724,140.64459l-.11621-.10773-31.75244,34.25952-.29443,.20825,.04395,.06226-.59424,.64136,.49365,.50195,1.60156-1.43726-.12402-.15479,30.45789-32.86353,.13245,.11938c11.2666-12.50879,22.14893-25.64526,32.3457-39.04492l-.56055-.42676c-9.9809,13.11511-20.62164,25.97412-31.6333,38.24225Z" style="fill: #e4877c;"></path><rect x="282.56168" y="137.76505" width="121.80046" height=".70475" transform="translate(11.6511 302.26399) rotate(-48.22826)" style="fill: #e4877c;"></rect><path d="M343.823,124.75439c9.87402-5.85425,17.6123-14.68848,25.0957-23.23169,7.1377-8.14893,14.51855-16.57495,23.72998-22.37866l-.37598-.59668c-9.29785,5.85864-16.71338,14.32397-23.88428,22.51074-7.44727,8.50171-15.14795,17.29272-24.9248,23.08984l.35938,.60645Z" style="fill: #e4877c;"></path><rect x="346.97666" y="100.6044" width="31.25615" height=".70478" transform="translate(28.48792 274.27852) rotate(-42.97616)" style="fill: #e4877c;"></rect><path d="M367.51392,90.2771l-.36914-.60107c-5.11133,3.13696-9.78418,6.94653-13.88965,11.32251l.51465,.48242c4.06201-4.33032,8.68604-8.09985,13.74414-11.20386Z" style="fill: #e4877c;"></path><path d="M393.55981,79.33154c-6.85449,5.83032-13.35059,12.19751-19.30713,18.92505l.52734,.46729c5.93506-6.70264,12.40723-13.04663,19.23682-18.85522l-.45703-.53711Z" style="fill: #e4877c;"></path><path d="M366.15601,122.28198l.57031,.41455c6.29883-8.66895,13.2417-17.00635,20.63525-24.78076l-.51074-.48584c-7.41504,7.79663-14.37744,16.1582-20.69482,24.85205Z" style="fill: #e4877c;"></path><path d="M367.31421,138.41821c6.37207-7.38428,12.44531-15.18018,18.05029-23.1709l-.57715-.40479c-5.5918,7.97144-11.65039,15.74854-18.00732,23.11523l.53418,.46045Z" style="fill: #e4877c;"></path><path d="M372.21509,144.26245l-.61914-.33643c-4.3457,7.99829-9.74609,15.38257-16.05273,21.94751l.50879,.48828c6.34961-6.61035,11.78809-14.04565,16.16309-22.09937Z" style="fill: #e4877c;"></path><path d="M363.81226,148.10425c-9.29785,11.38599-19.41797,22.29517-30.08008,32.42432l.48535,.51123c10.68359-10.14966,20.82422-21.08057,30.14062-32.48975l-.5459-.4458Z" style="fill: #e4877c;"></path><path d="M337.51855,168.74811c1.27173-1.20837,2.50513-2.44824,3.72144-3.67584l15.56006-15.69727-.50098-.49609-13.93488,14.05774c5.01965-6.29712,9.80457-12.91559,14.43146-19.31702l-.57129-.41309c-4.63184,6.40771-9.4209,13.03345-14.44092,19.3291-1.46777,1.84027-3.06,3.78241-4.77332,5.72333-2.37402,2.25385-4.88593,4.38605-7.70862,6.06769l.36035,.60547c.95612-.56952,1.87006-1.19562,2.76025-1.85138-1.47363,1.43005-3.01172,2.81427-4.6333,4.09381l.43652,.55322c3.42963-2.70599,6.52203-5.84204,9.29321-8.97968Z" style="fill: #e4877c;"></path><polygon points="346.94312 137.88403 317.57056 172.44946 317.46509 172.37061 316.19849 174.06543 316.74927 174.50464 347.48022 138.34058 346.94312 137.88403" style="fill: #e4877c;"></polygon><rect x="300.86257" y="147.02443" width="55.62447" height=".70504" transform="translate(3.79637 302.94396) rotate(-49.73863)" style="fill: #e4877c;"></rect><path d="M334.04272,135.95654l-.53711-.45605c-7.50781,8.84302-15.25244,17.70996-23.01953,26.35474-2.53223,2.81909-5.40234,6.01416-8.93164,8.17578l.36816,.60107c3.6167-2.21509,6.52344-5.45093,9.08789-8.30566,7.77148-8.64966,15.52051-17.52173,23.03223-26.36987Z" style="fill: #e4877c;"></path><path d="M294.23315,171.8269c.62939-.62915,1.24561-1.19043,1.97656-1.8396,.21582-.19141,.41504-.46118,.60791-.72192,.09424-.12744,.18994-.25684,.28711-.37549l.1499,.11694c.00586-.00659,.01221-.01343,.01807-.02002l.00049,.00024c.14111-.14917,.26465-.28027,.36279-.39893,8.854-9.71948,17.73389-19.55591,26.39941-29.24365l-.49475-.44281c5.44562-4.96399,11.33777-9.51086,17.52258-13.51105l-.38281-.5918c-6.28418,4.06396-12.27051,8.68628-17.79346,13.73901l.46692,.51056c-8.51233,9.51489-17.22925,19.172-25.92395,28.71918-.06152,.01001-.13086,.0332-.20898,.07544-.38086,.2063-.68018,.61133-.97021,1.00317-.1792,.24243-.34814,.47119-.50879,.61377-.74072,.65747-1.36572,1.22705-2.00684,1.86841l.49805,.49854Z" style="fill: #e4877c;"></path><path d="M318.04224,137.76855c-7.19971,8.02563-15.0791,15.55933-23.41895,22.39185l.44678,.54541c7.38928-6.05371,14.41626-12.65759,20.93347-19.66412l.34192,.36993,13.04492-12.06006-.47852-.51758-11.28625,10.43427c.3125-.34381,.63086-.68329,.94104-1.02899l-.52441-.4707Z" style="fill: #e4877c;"></path><rect x="330.50013" y="187.62463" width="19.68041" height=".70483" transform="translate(-26.38431 317.12792) rotate(-48.31372)" style="fill: #e4877c;"></rect><path d="M345.42065,174.59033c-8.17041,11.26929-16.61865,22.92212-27.85791,31.5752l.42969,.55859c11.32031-8.71509,19.79932-20.41016,27.99854-31.71973l-.57031-.41406Z" style="fill: #e4877c;"></path><path d="M313.22876,215.55566l.44727,.54492c6.1001-5.00879,11.93848-10.45679,17.35352-16.19263l-.5127-.48389c-5.39453,5.71411-11.21143,11.1416-17.28809,16.13159Z" style="fill: #e4877c;"></path><path d="M328.53589,188.04077c-7.27881,6.9104-14.74414,13.85229-22.21191,20.65479l-.23096-.18604-1.21582,1.5083,.51123,.48193c7.94092-7.2146,15.89209-14.59888,23.63281-21.94775l-.48535-.51123Z" style="fill: #e4877c;"></path><path d="M306.82837,202.74829l.41016,.57373c9.27734-6.63306,17.95215-14.20581,25.7832-22.5083l-.5127-.48389c-7.7998,8.26953-16.43994,15.81226-25.68066,22.41846Z" style="fill: #e4877c;"></path><path d="M327.57739,180.06201l-.51074-.48633c-9.13379,9.59131-19.37354,18.14697-30.43506,25.4292l.3877,.58887c11.10596-7.31152,21.38721-15.90186,30.55811-25.53174Z" style="fill: #e4877c;"></path><path d="M319.27173,179.81323l-.47461-.521c-8.91455,8.12109-18.54736,15.5918-28.63086,22.2041l.38672,.58936c10.11475-6.63257,19.77686-14.12622,28.71875-22.27246Z" style="fill: #e4877c;"></path><path d="M313.85229,180.41699l-.46582-.5293c-9.78418,8.61646-20.75879,15.72388-32.61914,21.125l.29199,.6416c11.92383-5.42993,22.95703-12.5752,32.79297-21.2373Z" style="fill: #e4877c;"></path><polygon points="274.95142 199.31543 275.07349 199.45386 307.60327 172.1875 307.15015 171.64746 275.5022 198.17456 275.46753 198.13062 273.03687 199.7334 273.42456 200.32227 274.95142 199.31543" style="fill: #e4877c;"></polygon><path d="M266.06177,196.1626l.42871,.55957c9.24316-7.08716,18.45166-14.44824,27.36914-21.87915l-.45117-.5415c-8.91064,7.42456-18.11133,14.77979-27.34668,21.86108Z" style="fill: #e4877c;"></path><path d="M260.2937,189.79248c-.43945,0-.81982,.32251-1.13135,.96069l-.69385,1.42163,1.99121-1.60449-.39209,.50122c.18604,.14551,.41406,.1626,.59814,.04565,.26025-.16553,.33496-.54272,.27295-.81348-.00781-.0332-.01709-.06543-.02881-.09595l30.27344-24.3938-.44238-.54883-30.43945,24.52734h-.00781Z" style="fill: #e4877c;"></path><path d="M276.4519,182.4751l.45801,.53613c5.70752-4.86914,11.41113-9.87524,16.95215-14.87939l-.47266-.52344c-5.53613,4.99976-11.23486,10.00171-16.9375,14.8667Z" style="fill: #e4877c;"></path><path d="M290.07153,179.32373l.44141,.5498c5.61768-4.50708,10.81299-9.59131,15.44043-15.11182l-.54004-.45312c-4.59814,5.48511-9.75977,10.53687-15.3418,15.01514Z" style="fill: #e4877c;"></path><path d="M296.08716,186.39819l.49512,.50146c3.87451-3.82544,7.59326-7.89404,11.05322-12.09302l-.54395-.44824c-3.44482,4.18018-7.14746,8.23096-11.00439,12.03979Z" style="fill: #e4877c;"></path><rect x="259.72491" y="173.30829" width="21.79579" height=".70519" transform="translate(-45.92974 230.1347) rotate(-42.80392)" style="fill: #e4877c;"></rect><rect x="304.38417" y="214.57011" width="7.98411" height=".705" transform="translate(-67.30977 202.77105) rotate(-33.02196)" style="fill: #e4877c;"></rect><rect x="291.27935" y="206.2028" width="9.75917" height=".70475" transform="translate(-64.06829 181.82663) rotate(-30.96671)" style="fill: #e4877c;"></rect><rect x="283.79877" y="205.0257" width="12.99817" height=".70494" transform="translate(-65.26428 200.02926) rotate(-34.41655)" style="fill: #e4877c;"></rect><rect x="272.85778" y="205.23632" width="13.85767" height=".7051" transform="translate(-67.35751 211.77634) rotate(-37.32979)" style="fill: #e4877c;"></rect><rect x="263.62019" y="207.6667" width="17.14633" height=".70505" transform="translate(-70.29545 215.93361) rotate(-38.71205)" style="fill: #e4877c;"></rect><rect x="259.49294" y="204.76253" width="13.83687" height=".70491" transform="translate(-68.46272 175.00647) rotate(-32.45568)" style="fill: #e4877c;"></rect><rect x="252.78059" y="201.81122" width="15.73473" height=".7052" transform="translate(-69.21081 203.03506) rotate(-37.94921)" style="fill: #e4877c;"></rect><path d="M259.25659,196.39087c-4.95264,4.28955-10.08984,8.50024-15.26904,12.51514l.43164,.55713c5.18945-4.02246,10.33691-8.24146,15.29932-12.53955l-.46191-.53271Z" style="fill: #e4877c;"></path><path d="M253.55298,195.3916c-5.94775,5.52124-12.22656,10.83008-18.66211,15.77905l.42969,.55908c6.45312-4.9624,12.74854-10.2854,18.71191-15.82153l-.47949-.5166Z" style="fill: #e4877c;"></path><rect x="222.93477" y="204.36953" width="25.63095" height=".70527" transform="translate(-76.48226 204.26621) rotate(-40.88692)" style="fill: #e4877c;"></rect><rect x="222.39859" y="206.03513" width="9.95185" height=".70512" transform="translate(-79.70039 206.62182) rotate(-42.27369)" style="fill: #e4877c;"></rect><path d="M193.30249,166.85693l-.61426-.34668c-3.96729,7.03101-8.51807,13.8125-13.5249,20.15601l.55371,.43701c5.0293-6.37231,9.6001-13.18408,13.58545-20.24634Z" style="fill: #e4877c;"></path><path d="M180.33423,172.84131l-15.63818,22.49219,.5791,.40234,5.54517-7.97552c-.00085,.56915,.24524,1.14099,.71411,1.56927,.44434,.40649,1,.61475,1.54199,.59131l-.87354,1.21216,2.06299-1.67798c.24023-.1958,.42676-.45117,.55029-.74292l13.52148-18.76587-.57227-.41211-12.82861,17.80444c-.12598-.59839-.47363-1.10181-.96484-1.37988-.54834-.30981-1.24365-.3147-1.87805-.03015l8.81946-12.68494-.5791-.40234Zm-8.0083,13.74854c.44531-.21875,.93115-.22583,1.29883-.01758,.36719,.20801,.61133,.6272,.65283,1.12134,.02002,.24072-.00977,.47192-.08398,.67651l-.85693,1.18896-.0874-.37085c-.40869,.09692-.87354-.04492-1.23926-.37915-.36621-.33447-.54932-.78418-.48975-1.20239s.36133-.79834,.80566-1.01685Z" style="fill: #e4877c;"></path><path d="M157.68237,199.33276c-.04736-.01733-.09863-.02832-.15186-.03198-.17969-.01392-.42676,.0647-.53711,.26929-.08252,.15308-.06592,.3374,.04346,.48071l.25244-.19263-.14648,.1958,.53076,.46143c.11621-.11572,.20312-.23022,.26123-.34326l16.34277-21.85107-.56445-.42236-16.03076,21.43408Z" style="fill: #e4877c;"></path><path d="M145.34595,200.39307l.57227,.41138c4.88623-6.7998,10.14648-13.45312,15.63525-19.7749l-.53223-.4624c-5.50293,6.33813-10.77686,13.00854-15.67529,19.82593Z" style="fill: #e4877c;"></path><path d="M148.16528,187.52563l-.41992-.56592c-6.34033,4.70825-11.84033,10.38135-16.34668,16.86206l.5791,.40234c4.4624-6.41772,9.90869-12.03589,16.1875-16.69849Z" style="fill: #e4877c;"></path><rect x="128.85912" y="193.98502" width="10.92873" height=".70477" transform="translate(-93.52404 131.92484) rotate(-40.02944)" style="fill: #e4877c;"></rect><rect x="144.04946" y="204.22067" width="14.06221" height=".70515" transform="translate(-94.45319 138.32579) rotate(-38.45412)" style="fill: #e4877c;"></rect><rect x="138.5395" y="203.1889" width="10.31115" height=".70521" transform="translate(-91.84443 122.30998) rotate(-35.75089)" style="fill: #e4877c;"></rect><path d="M140.71448,199.6286c5.17554-5.66766,10.5918-11.23657,16.13489-16.56097l-.48828-.5083c-5.90967,5.67651-11.68604,11.62549-17.16943,17.68164l.17542,.15887c-2.63525,1.63684-5.16284,3.46509-7.51624,5.47321l.45801,.53613c2.71436-2.31616,5.65381-4.40771,8.73633-6.21655l-.33069-.56403Z" style="fill: #e4877c;"></path><rect x="127.39533" y="200.00997" width="7.16272" height=".70516" transform="translate(-94.77871 120.7727) rotate(-37.40736)" style="fill: #e4877c;"></rect><rect x="159.42301" y="178.73644" width="10.67498" height=".70485" transform="translate(-78.51551 185.05781) rotate(-48.79167)" style="fill: #e4877c;"></rect><polygon points="173.05591 174.18604 167.03101 180.88135 167.13 180.9704 150.97974 199.98511 151.51685 200.44165 168.57983 180.35229 168.50964 180.2926 173.58032 174.65771 173.05591 174.18604" style="fill: #e4877c;"></polygon><path d="M295.52856,149.26782c4.18555-5.50854,8.31543-11.17285,12.27539-16.83545l-.57812-.40381c-3.95459,5.65479-8.07861,11.31152-12.25879,16.81299l.56152,.42627Z" style="fill: #e4877c;"></path><rect x="283.03651" y="141.26778" width="26.24534" height=".70516" transform="translate(2.88631 289.12498) rotate(-52.25724)" style="fill: #e4877c;"></rect><path d="M285.55249,145.10205l.53125,.46289c5.25146-6.02734,10.30566-12.3584,15.02197-18.81714l-.56934-.41553c-4.70459,6.44214-9.74561,12.75732-14.98389,18.76978Z" style="fill: #e4877c;"></path><rect x="261.25615" y="128.88306" width="30.30947" height=".70494" transform="translate(-7.04862 242.17582) rotate(-46.78246)" style="fill: #e4877c;"></rect><rect x="259.78428" y="122.83847" width="28.18975" height=".70489" transform="translate(-2.50081 240.66392) rotate(-47.24574)" style="fill: #e4877c;"></rect><polygon points="270.78149 140.52783 270.04028 141.74683 270.64282 142.11255 271.34351 140.94824 292.07349 118.09619 291.55103 117.62256 270.78149 140.52783" style="fill: #e4877c;"></polygon><path d="M276.1814,144.12061l.55664,.43262c5.99463-7.71265,12.2915-15.3689,18.71582-22.75659l-.53223-.4624c-6.43262,7.39722-12.73779,15.06372-18.74023,22.78638Z" style="fill: #e4877c;"></path><rect x="270.45623" y="136.26392" width="34.71206" height=".70507" transform="translate(1.09704 275.5205) rotate(-51.24104)" style="fill: #e4877c;"></rect><path d="M287.69849,147.60742l-.44531-.54688c-4.95166,4.03271-9.72021,8.40503-14.17334,12.99536l.50586,.49072c4.43408-4.57056,9.18213-8.92407,14.11279-12.93921Z" style="fill: #e4877c;"></path><rect x="248.58374" y="161.23443" width="36.00195" height=".70496" transform="translate(-38.1362 227.33573) rotate(-43.39751)" style="fill: #e4877c;"></rect><rect x="242.01758" y="163.69521" width="35.98828" height=".70528" transform="translate(-37.94507 239.80764) rotate(-46.51481)" style="fill: #e4877c;"></rect><polygon points="239.98413 176.54883 238.50171 178.44189 239.03345 178.90308 270.98755 145.55786 270.47876 145.07007 240.17212 176.69604 239.98413 176.54883" style="fill: #e4877c;"></polygon><rect x="207.15397" y="136.07947" width="71.57097" height=".70484" transform="translate(-16.84651 237.15174) rotate(-50.50952)" style="fill: #e4877c;"></rect><path d="M210.61694,155.0686c-.17139,.27246-.16309,.61108,.02246,.90576,.2085,.33179,.59521,.54541,.96826,.54541,.03564,0,.07129-.00195,.10693-.00586,.60596-.06836,1.02734-.50562,1.40674-.94751l43.37402-50.38525-.53418-.45996-43.37451,50.3855c-.30029,.34961-.59912,.66699-.95166,.70654-.1333,.01782-.31494-.08081-.39893-.21411-.06006-.09546-.03174-.14038-.02246-.15503l-.59668-.37549Z" style="fill: #e4877c;"></path><polygon points="209.53101 151.92554 209.40845 151.82812 208.87134 152.43408 208.93774 152.49292 208.17847 153.57104 208.7395 153.9978 255.61792 97.00952 255.073 96.56177 209.53101 151.92554" style="fill: #e4877c;"></polygon><path d="M197.05786,153.55835c16.78711-23.44409,35.40967-45.89819,55.35059-66.73901l-.50977-.4873c-17.57922,18.37244-34.13135,37.99927-49.31018,58.45032l-.42419-.42468c-6.0835,6.07764-12.67334,11.74976-19.58643,16.85889l.41895,.56689c6.78162-5.01196,13.24622-10.57056,19.23669-16.51453-1.93652,2.61456-3.85815,5.23822-5.7489,7.87878l.57324,.41064Z" style="fill: #e4877c;"></path><polygon points="247.55591 74.92749 247.04321 74.4436 187.87085 137.11572 187.78052 137.03638 185.64136 139.47754 186.16284 139.9519 247.55591 74.92749" style="fill: #e4877c;"></polygon><path d="M251.32544,77.94214l-.57324-.41064c-16.89111,23.57324-35.71631,46.05884-55.95312,66.83228l.50488,.49219c20.26123-20.79883,39.10986-43.31201,56.02148-66.91382Z" style="fill: #e4877c;"></path><path d="M187.24487,145.79297c7.54688-9.80957,16.104-18.90771,25.43311-27.0415l-.46289-.53125c-9.36475,8.16406-17.95361,17.29639-25.52881,27.14307l.55859,.42969Z" style="fill: #e4877c;"></path><rect x="201.70887" y="160.51824" width="18.87668" height=".70521" transform="translate(-43.50329 235.80881) rotate(-53.70137)" style="fill: #e4877c;"></rect><path d="M224.08667,156.52905l-.5498-.44092c-4.27344,5.3269-8.38135,10.89868-12.20898,16.56006l.58398,.39502c3.81738-5.64575,7.91357-11.2019,12.1748-16.51416Z" style="fill: #e4877c;"></path><rect x="211.1235" y="170.54109" width="20.75202" height=".70492" transform="translate(-50.55725 236.09906) rotate(-51.12946)" style="fill: #e4877c;"></rect><path d="M229.04077,167.8457l-.56738-.41895c-3.45996,4.68506-7.32324,9.11841-11.48242,13.17651l.49219,.50439c4.18652-4.08447,8.0752-8.54639,11.55762-13.26196Z" style="fill: #e4877c;"></path><path d="M225.76147,186.36865l.50684,.49023c4.77783-4.93823,9.32812-10.19604,13.52539-15.62769l-.55762-.43115c-4.18164,5.41113-8.71484,10.64917-13.47461,15.5686Z" style="fill: #e4877c;"></path><path d="M242.15503,179.02905l-.45996-.53467c-4.11768,3.53979-8.19775,7.23853-12.12793,10.99292l.4873,.50977c3.9209-3.74609,7.99219-7.43628,12.10059-10.96802Z" style="fill: #e4877c;"></path><path d="M226.96851,200.30225c7.43652-6.65918,15.14941-13.23169,22.9248-19.53516l-.44434-.54785c-7.78369,6.31079-15.50537,12.89087-22.95117,19.55762l.4707,.52539Z" style="fill: #e4877c;"></path><path d="M253.8855,178.67188l-.50098-.49609c-4.64502,4.69336-9.55322,9.23608-14.58838,13.50244l.45605,.53809c5.05029-4.27979,9.97363-8.83667,14.6333-13.54443Z" style="fill: #e4877c;"></path><rect x="247.9945" y="180.24965" width="13.96559" height=".70481" transform="translate(-53.92645 227.60201) rotate(-43.96143)" style="fill: #e4877c;"></rect><path d="M267.94116,145.25854l-.44043-.55029c-5.3252,4.26147-10.19824,9.10938-14.48486,14.40894l.54785,.44336c4.25488-5.26025,9.09229-10.07202,14.37744-14.302Z" style="fill: #e4877c;"></path><path d="M263.54736,124.10016l-.00806-.00641c-.02893,.03644-.05872,.07239-.08777,.10883l-3.45862,3.70074,.27161,.25403c-9.95081,12.24744-20.56836,24.11053-31.62756,35.31335l.50195,.49512c12.25708-12.41626,23.97961-25.63861,34.84534-39.30109l11.40515-12.20331-.51465-.48145-11.32739,12.12018Z" style="fill: #e4877c;"></path><path d="M257.7312,121.9751l.53516,.45898c4.34033-5.06201,9.06592-9.8855,14.04639-14.33667l-.46973-.52588c-5.00342,4.47192-9.75146,9.31812-14.11182,14.40356Z" style="fill: #e4877c;"></path><path d="M262.14978,105.5686l-.42834-.31958c-.64734,.86725-1.31018,1.72638-1.96277,2.59088l-5.68713,5.40204,.48535,.51123,2.57483-2.44574c-12.16846,15.8728-25.22583,31.25061-38.89758,45.78949l.51367,.48291c14.66833-15.59882,28.62341-32.16583,41.54016-49.27051l6.97205-6.62256-.48535-.51123-4.62488,4.39307Z" style="fill: #e4877c;"></path><rect x="245.11833" y="104.28281" width="19.40884" height=".70538" transform="translate(.6994 210.95833) rotate(-45.02804)" style="fill: #e4877c;"></rect><polygon points="251.96838 94.60278 251.48511 94.22827 248.1676 98.50757 241.65503 105.19849 242.15991 105.69019 244.31897 103.47211 202.47095 157.45239 203.02856 157.88452 248.70471 98.96619 255.53296 91.95093 255.02808 91.45923 251.96838 94.60278" style="fill: #e4877c;"></polygon><rect x="236.89991" y="90.38791" width="17.76414" height=".70514" transform="translate(4.05809 191.79579) rotate(-42.95159)" style="fill: #e4877c;"></rect><rect x="230.34072" y="81.29827" width="25.09201" height=".70521" transform="translate(10.8432 190.35519) rotate(-43.68248)" style="fill: #e4877c;"></rect><polygon points="251.77222 63.10498 233.27332 82.82996 232.88257 82.35718 170.95532 133.49341 171.40454 134.03687 232.77917 83.35699 232.65601 83.48828 233.17065 83.9707 252.28687 63.5874 251.77222 63.10498" style="fill: #e4877c;"></polygon><path d="M253.03833,53.3584c-7.56982,9.05859-15.43945,18.07227-23.39062,26.79077l.52051,.4751c7.9585-8.72583,15.83496-17.74731,23.41113-26.81372l-.54102-.45215Z" style="fill: #e4877c;"></path><path d="M223.36694,75.87451l.52734,.46777c8.97021-10.1084,18.61377-19.81152,28.66162-28.83984l-.47119-.52441c-10.06738,9.0459-19.72998,18.76807-28.71777,28.89648Z" style="fill: #e4877c;"></path><path d="M218.65698,71.45239l.45898,.53491c10.06982-8.64526,19.39062-18.27246,27.7041-28.61401l-.5498-.44189c-8.28564,10.30811-17.57617,19.90381-27.61328,28.521Z" style="fill: #e4877c;"></path><path d="M218.20532,64.44385l.59375,.37988c6.5874-10.3064,15.71729-18.89429,26.40234-24.83496l-.34277-.61621c-10.78662,5.99731-20.00342,14.66699-26.65332,25.07129Z" style="fill: #e4877c;"></path><path d="M217.42651,60.88354l.51172,.48486c8.20215-8.65747,16.45508-17.51978,24.53027-26.34082l-.52051-.47607c-8.07178,8.81812-16.32227,17.67749-24.52148,26.33203Z" style="fill: #e4877c;"></path><path d="M247.80542,9.57275l-.50586-.49121c-13.29883,13.69019-27.19922,27.15063-41.31445,40.00757l.47461,.521c14.12598-12.86646,28.03662-26.33691,41.3457-40.03735Z" style="fill: #e4877c;"></path><rect x="188.0663" y="41.87861" width="38.82736" height=".70518" transform="translate(28.54201 155.42404) rotate(-43.8217)" style="fill: #e4877c;"></rect><path d="M190.80786,52.99927c7.11865-7.53613,14.50586-15.00928,21.95605-22.21167l-.49023-.50684c-7.45752,7.20972-14.85205,14.69043-21.97852,22.23462l.5127,.48389Z" style="fill: #e4877c;"></path><path d="M204.33472,33.46558l-.42578-.56201c-4.61426,3.49365-8.91602,7.4436-12.78613,11.74048l.52344,.47168c3.84082-4.26367,8.10938-8.18335,12.68848-11.65015Z" style="fill: #e4877c;"></path><path d="M193.72827,91.40503l.4707,.5249c12.45703-11.16748,24.01953-23.49878,34.3667-36.65186l-.55371-.43604c-10.32227,13.12109-21.85693,25.42261-34.28369,36.56299Z" style="fill: #e4877c;"></path><path d="M181.95044,79.61646c-8.7041,6.20874-17.70459,12.62915-24.9624,20.63306l.52246,.47363c7.20654-7.94775,16.17578-14.3457,24.84912-20.53296,10.28076-7.33325,20.91113-14.9165,28.63623-25.11401l-.56152-.42578c-7.66064,10.11182-18.24658,17.66333-28.48389,24.96606Z" style="fill: #e4877c;"></path><path d="M204.22192,58.08594c-16.88574,12.75537-33.68359,26.08496-49.92725,39.6189l.45117,.5415c16.23535-13.52661,33.02441-26.84937,49.90088-39.5979l-.4248-.5625Z" style="fill: #e4877c;"></path><path d="M156.69556,92.26416c15.2041-13.16382,30.91064-26.1731,46.68359-38.6665l-.4375-.55273c-15.78125,12.49976-31.49561,25.51562-46.70801,38.68604l.46191,.5332Z" style="fill: #e4877c;"></path><path d="M152.25122,91.76636c11.14307-11.14453,23.13086-21.66211,35.63037-31.26074l-.42969-.55908c-12.52344,9.61719-24.53418,20.15527-35.69971,31.32129l.49902,.49854Z" style="fill: #e4877c;"></path><path d="M173.04028,64.00708c-6.69971,6.32959-13.76074,12.43335-20.98779,18.1416l.43652,.55322c7.24365-5.72095,14.3208-11.83838,21.03564-18.18262l-.48438-.51221Z" style="fill: #e4877c;"></path><path d="M170.75024,110.55176l.47656,.51953c14.25928-13.0835,28.03174-27.02417,40.93555-41.43481l-.52539-.47021c-12.88818,14.39331-26.64453,28.31763-40.88672,41.3855Z" style="fill: #e4877c;"></path><path d="M219.39478,75.20947c-15.29956,12.78876-30.42639,26.14453-45.01672,39.72693l-6.97546,5.30042,.42676,.56152,4.41345-3.35364,.21985,.23499c.78467-.7348,1.57776-1.466,2.3656-2.19952l43.00012-32.67401-.42676-.56152-37.20935,28.27386c12.92163-11.87244,26.22144-23.53931,39.65466-34.76801l-.45215-.54102Z" style="fill: #e4877c;"></path><rect x="166.07918" y="99.65885" width="72.827" height=".70476" transform="translate(-16.4101 155.57294) rotate(-40.52679)" style="fill: #e4877c;"></rect><path d="M220.59204,95.47876c-18.73779,16.80981-38.01855,33.55566-57.30566,49.77295l.4541,.53955c19.29248-16.22192,38.57861-32.9729,57.32227-49.7876l-.4707-.5249Z" style="fill: #e4877c;"></path><path d="M189.2771,141.19849l-.47656-.52002c-10.71533,9.81909-21.38916,19.98657-31.72363,30.21997l.49609,.50098c10.32812-10.22705,20.99512-20.38818,31.7041-30.20093Z" style="fill: #e4877c;"></path><path d="M195.84448,144.72095c-8.21631,7.84058-17.00488,15.24341-26.12207,22.00317l.41992,.56641c9.14014-6.7771,17.95166-14.19897,26.18848-22.05933l-.48633-.51025Z" style="fill: #e4877c;"></path><path d="M206.01636,150.81396l-.58301-.39648c-2.48145,3.64966-5.44287,6.9502-8.80176,9.8103l.45703,.53662c3.40723-2.90088,6.41064-6.24878,8.92773-9.95044Z" style="fill: #e4877c;"></path><rect x="199.23047" y="159.63438" width="12.34374" height=".70536" transform="translate(-50.10996 209.98149) rotate(-48.98571)" style="fill: #e4877c;"></rect><rect x="203.93832" y="167.23" width="11.44953" height=".70504" transform="translate(-51.03578 231.44655) rotate(-52.39996)" style="fill: #e4877c;"></rect><path d="M135.36401,174.40283c10.63428-6.8772,20.88379-14.56006,30.46387-22.83521l-.46094-.53369c-9.55566,8.25415-19.77881,15.91724-30.38574,22.7771l.38281,.5918Z" style="fill: #e4877c;"></path><path d="M163.78442,143.17163l-.44531-.54639c-8.81689,7.19458-18.08447,14.04565-27.54541,20.3623l.3916,.58643c9.47949-6.32935,18.76514-13.1936,27.59912-20.40234Z" style="fill: #e4877c;"></path><path d="M168.10767,133.16016l-.36133-.60547c-11.27979,6.72217-22.52002,13.8623-33.40869,21.22217l.39453,.58398c10.87793-7.35229,22.10693-14.48535,33.37549-21.20068Z" style="fill: #e4877c;"></path><path d="M169.74146,122.55786c-10.55762,7.61743-21.45654,15.07666-32.39355,22.17041l.38379,.59131c10.94678-7.09985,21.85498-14.56567,32.42188-22.18994l-.41211-.57178Z" style="fill: #e4877c;"></path><path d="M144.08289,131.84216l-.4093-.49133c-6.06152,5.05225-12.07031,10.30884-17.85889,15.62451l.47656,.51904c5.08582-4.66956,10.34485-9.28546,15.65662-13.76532l.1676,.25726c10.36279-6.74146,20.46484-14.12988,30.0249-21.95972l-.44629-.54541c-8.81482,7.21936-18.09412,14.05548-27.61121,20.36096Z" style="fill: #e4877c;"></path><path d="M173.07642,101.2063c-9.39502,9.17603-19.30029,18.06274-29.44189,26.41309l.44824,.54443c10.15674-8.36328,20.07715-17.26343,29.48584-26.45312l-.49219-.50439Z" style="fill: #e4877c;"></path><path d="M174.44897,95.83691c-11.5166,9.16162-23.56592,17.92896-35.81348,26.05835l.38965,.5874c12.26465-8.14062,24.33008-16.91992,35.8623-26.09399l-.43848-.55176Z" style="fill: #e4877c;"></path><path d="M136.25806,112.87988l.4502,.54199c5.83105-4.84521,11.9165-9.55591,18.08887-14.00098l-.41211-.57227c-6.18506,4.45459-12.28418,9.17529-18.12695,14.03125Z" style="fill: #e4877c;"></path><rect x="134.89062" y="102.96566" width="18.98828" height=".70492" transform="translate(-32.44343 119.23611) rotate(-40.73044)" style="fill: #e4877c;"></rect><rect x="131.70246" y="102.07332" width="17.87927" height=".70493" transform="translate(-26.95715 149.13481) rotate(-51.6377)" style="fill: #e4877c;"></rect><path d="M112.59058,145.4729l19.47803-21.69849-.14355-.12885c8.71667-8.00079,18.01221-15.55414,27.62939-22.45099l-.41113-.57275c-9.64355,6.91577-18.96533,14.49072-27.70557,22.51392l.3761,.40997-.26965-.242-19.47803,21.698,.52441,.47119Z" style="fill: #e4877c;"></path><path d="M109.07544,154.31763c6.23853-7.12067,12.71021-14.16095,19.3031-21.01453,4.55054-3.09528,9.03662-6.40118,13.33899-9.84583l-.44043-.55029c-3.35681,2.68732-6.8241,5.29364-10.34753,7.77881,1.15503-1.18646,2.30493-2.38306,3.46619-3.5564l-.50098-.49609c-2.0011,2.02185-3.99121,4.06873-5.9729,6.12823-.18054,.12268-.35913,.25055-.53979,.3725l.07239,.10712c-6.45752,6.72577-12.79419,13.63214-18.9093,20.61212l.53027,.46436Z" style="fill: #e4877c;"></path><rect x="100.41038" y="159.50663" width="36.02055" height=".70452" transform="translate(-80.46263 154.98511) rotate(-52.06581)" style="fill: #e4877c;"></rect><path d="M130.37817,155.8877l-.5293-.46582c-5.9165,6.71606-12.06494,13.39624-18.27441,19.85474l.50781,.48877c6.21729-6.46606,12.37256-13.15381,18.2959-19.87769Z" style="fill: #e4877c;"></path><rect x="111.23894" y="170.87153" width="26.05142" height=".70469" transform="translate(-83.53332 131.4832) rotate(-43.20307)" style="fill: #e4877c;"></rect><rect x="115.48222" y="174.37581" width="23.23868" height=".70491" transform="translate(-83.93057 128.35788) rotate(-41.57421)" style="fill: #e4877c;"></rect><path d="M141.39673,174.07715l-.38477-.59082c-4.74365,3.09082-9.42041,6.40552-13.90039,9.85254l.42969,.55859c4.46582-3.43555,9.12744-6.73975,13.85547-9.82031Z" style="fill: #e4877c;"></path><path d="M133.66675,186.83301c2.19556-1.6355,4.36267-3.32983,6.51367-5.04858l.19189,.35522c5.8501-3.16162,11.59033-6.68359,17.06152-10.46753l-.40137-.57983c-4.96448,3.4339-10.15723,6.63586-15.44666,9.5625,3.59167-2.91339,7.11523-5.91931,10.51892-9.01611l-.47461-.52148c-5.85645,5.32837-12.04199,10.42578-18.38428,15.15039-1.96143,1.46191-3.75537,2.71948-5.84961,3.30615l.19043,.67871c2.21094-.61914,4.06152-1.91479,6.08008-3.41943Z" style="fill: #e4877c;"></path><rect x="123.40454" y="149.84667" width="19.22266" height=".70509" transform="translate(-62.4602 105.00926) rotate(-35.45512)" style="fill: #e4877c;"></rect><path d="M144.62085,123.90674l-9.73181,7.78308c.06421-.0799,.13-.15948,.19421-.23938l-.5498-.44189c-.7384,.9187-1.49133,1.83423-2.23401,2.75226l-2.74255,2.1933,.44043,.55078,.21277-.1701c-7.55371,9.2796-15.29541,18.50232-23.09802,27.47992l.53223,.4624c8.51257-9.79419,16.95471-19.87915,25.15515-30.01318l12.26184-9.8064-.44043-.55078Z" style="fill: #e4877c;"></path><path d="M164.66919,147.96899l.44531,.54639c10.19141-8.31665,19.99414-17.33545,29.13477-26.80566l-.50684-.48975c-9.12207,9.45044-18.90381,18.4502-29.07324,26.74902Z" style="fill: #e4877c;"></path><path d="M191.11011,128.97095c-6.92334,7.39038-14.11084,14.72217-21.36279,21.79175l.13538,.13892c-8.52832,7.22992-17.32153,14.21454-26.26721,20.84399l.41992,.56641c12.58252-9.32471,24.87451-19.3418,36.53467-29.77295l-.46973-.52539c-1.51379,1.35419-3.03918,2.7005-4.57361,4.0401,5.45947-5.44165,10.85474-11.00403,16.09802-16.60089l-.51465-.48193Z" style="fill: #e4877c;"></path><path d="M210.93042,122.99927c7.38428-7.40869,14.19678-15.4895,20.24805-24.01782l-.5752-.40796c-6.02832,8.49634-12.81543,16.54712-20.17188,23.92822l.49902,.49756Z" style="fill: #e4877c;"></path><path d="M216.38989,51.90698l-.4043-.57764c-4.18213,2.92944-7.55664,6.91455-9.75879,11.52417l.63574,.30371c2.1499-4.50024,5.44434-8.39038,9.52734-11.25024Z" style="fill: #e4877c;"></path><path d="M187.99292,148.5874l-.37988-.59375c-9.04834,5.79736-17.36426,12.71069-24.7168,20.54785l.51367,.48242c7.31299-7.79492,15.58398-14.67065,24.58301-20.43652Z" style="fill: #e4877c;"></path><rect x="168.11846" y="166.7062" width="10.39834" height=".70478" transform="translate(-63.1664 122.08216) rotate(-33.17817)" style="fill: #e4877c;"></rect><path d="M102.98315,148.58887c-.63965,.70239-1.22266,1.46509-1.78711,2.20264-.7207,.94287-1.46631,1.91797-2.3208,2.74927-2.19824,2.13721-5.1416,3.37671-7.98779,4.5752l-1.13135,.47949c-6.1748,2.646-12.06104,5.98999-17.49414,9.93872l.41406,.57031c5.39111-3.91797,11.23096-7.2356,17.35742-9.86108l1.12793-.47754c2.90625-1.22412,5.91162-2.48975,8.20508-4.71973,.8916-.86743,1.65332-1.86328,2.38965-2.82642,.55518-.72559,1.12891-1.47607,1.74854-2.15625,2.78906-3.0625,6.76318-4.97681,10.26904-6.66577l-.30566-.63525c-3.56396,1.7168-7.60352,3.66284-10.48486,6.82642Z" style="fill: #e4877c;"></path><path d="M102.75073,157.47876c1.90332-1.71924,3.87109-3.49707,6.27686-4.45947l-.26172-.65479c-2.52295,1.00928-4.62939,2.91235-6.48779,4.59131l-12.55664,11.34668,.47266,.52295,12.55664-11.34668Z" style="fill: #e4877c;"></path><rect x="91.65826" y="165.33691" width="17.67322" height=".70509" transform="translate(-79.66285 94.30731) rotate(-37.14765)" style="fill: #e4877c;"></rect><rect x="87.5619" y="162.85661" width="9.84446" height=".70476" transform="translate(-77.30402 83.44389) rotate(-35.29772)" style="fill: #e4877c;"></rect><path d="M90.21997,155.81934l.5625,.4248c3.45947-4.58447,7.49023-8.72974,11.97998-12.32031l-.44043-.55078c-4.53564,3.62744-8.60742,7.81494-12.10205,12.44629Z" style="fill: #e4877c;"></path><path d="M84.4021,155.39404l.56641,.41992c4.22119-5.69604,8.98193-11.04907,14.15039-15.91016l-.4834-.51367c-5.19873,4.88989-9.9873,10.27441-14.2334,16.00391Z" style="fill: #e4877c;"></path><path d="M77.43433,159.12744l.57129,.41309c5.08301-7.03613,10.60986-13.8833,16.42725-20.35107l-.52441-.47168c-5.83398,6.48657-11.37646,13.35352-16.47412,20.40967Z" style="fill: #e4877c;"></path><path d="M71.93384,158.24463l.53809,.45605c6.31445-7.44507,12.67383-15.04346,18.90088-22.58374l-.54395-.44873c-6.22461,7.53784-12.58203,15.13379-18.89502,22.57642Z" style="fill: #e4877c;"></path><path d="M67.32935,157.68896l.5498,.44141c6.9209-8.62622,14.07715-17.5459,22.54346-24.9231l-.46289-.53174c-8.51367,7.4187-15.69043,16.36328-22.63037,25.01343Z" style="fill: #e4877c;"></path><path d="M86.22192,129.00513l-.48047-.51611c-8.69775,8.09082-17.25488,16.54883-25.43408,25.13892l.51074,.48633c8.16943-8.58008,16.71631-17.02808,25.40381-25.10913Z" style="fill: #e4877c;"></path><rect x="48.98165" y="136.74927" width="44.49812" height=".70508" transform="translate(-76.57587 92.11364) rotate(-45.61727)" style="fill: #e4877c;"></rect><rect x="42.33255" y="136.74707" width="44.73724" height=".70508" transform="translate(-77.43373 84.37189) rotate(-44.38273)" style="fill: #e4877c;"></rect><path d="M76.59204,119.69214l-.51465-.48193c-11.69629,12.4978-24.14697,24.58105-37.00635,35.91357l.46582,.52881c12.87646-11.34741,25.34326-23.44629,37.05518-35.96045Z" style="fill: #e4877c;"></path><rect x="25.08387" y="145.94549" width="30.35472" height=".70472" transform="translate(-86.65341 63.13113) rotate(-41.37639)" style="fill: #e4877c;"></rect><rect x="20.60034" y="146.7324" width="22.48683" height=".70512" transform="translate(-93.34405 63.56236) rotate(-44.07369)" style="fill: #e4877c;"></rect><path d="M14.72632,153.2666c5.29297-4.61401,10.80518-9.1145,16.38232-13.37671l-.42773-.56006c-5.58984,4.27124-11.11328,8.78149-16.41748,13.40552l.46289,.53125Z" style="fill: #e4877c;"></path><rect x="5.56416" y="143.64355" width="21.60117" height=".70509" transform="translate(-90.33331 45.92364) rotate(-40.92838)" style="fill: #e4877c;"></rect><rect x="-2.05512" y="142.93123" width="22.37342" height=".70492" transform="translate(-87.89748 37.45855) rotate(-38.87054)" style="fill: #e4877c;"></rect><path d="M10.03003,138.896l-.42871-.55957c-3.24329,2.48505-6.45044,5.06323-9.60132,7.69208v.91785c3.28748-2.75397,6.63953-5.45258,10.03003-8.05035Z" style="fill: #e4877c;"></path><path d="M78.49438,156.40942c-5.54736,5.4165-10.71338,11.30811-15.35498,17.51123l.56445,.42236c4.61963-6.17407,9.76172-12.03809,15.28271-17.4292l-.49219-.50439Z" style="fill: #e4877c;"></path><path d="M77.5105,171.55786l.56152,.42627c2.86475-3.77466,6.32373-7.00854,10.28076-9.61206l-.3877-.58887c-4.02393,2.64746-7.5415,5.93604-10.45459,9.77466Z" style="fill: #e4877c;"></path><path d="M46.06372,171.19946l.51953,.47705c4.5708-4.97754,9.39697-9.82178,14.34424-14.39819l-.47852-.51758c-4.96143,4.58936-9.80127,9.44727-14.38525,14.43872Z" style="fill: #e4877c;"></path><path d="M52.18726,154.89185l-.48145-.51514c-4.33154,4.0498-9.01025,7.80396-13.90625,11.1582l.39844,.58154c4.92529-3.37427,9.63184-7.15088,13.98926-11.22461Z" style="fill: #e4877c;"></path><path d="M278.35229,40.18945c-.40137-.8269-.64697-1.74951-.88428-2.64185l-.16211-.60083c-1.14795-4.18286-3.02637-8.08179-5.58301-11.58862l-.56934,.41553c2.50586,3.43726,4.34717,7.25928,5.47266,11.36011l.16016,.59521c.24609,.92432,.50098,1.88037,.93164,2.76831,1.27734,2.62646,3.92529,4.3125,6.05273,5.66724l.37891-.59473c-2.05273-1.30713-4.60791-2.93359-5.79736-5.38037Z" style="fill: #e4877c;"></path><path d="M301.48315,70.89941c2.95264,2.73828,6.00586,5.56958,8.64111,8.68555l.53809-.45508c-2.6626-3.14868-5.73193-5.99487-8.7002-8.74731-2.50977-2.32739-5.10498-4.73413-7.43359-7.30566-4.08105-4.50732-7.43652-9.59546-9.97266-15.1228l-.64062,.29395c2.56592,5.59302,5.96094,10.74121,10.09082,15.302,2.34912,2.59448,4.95605,5.01172,7.47705,7.34937Z" style="fill: #e4877c;"></path><path d="M289.71997,81.66626c.31836-.05249,.60303-.17236,.87842-.28809,.26465-.11133,.51514-.21655,.76709-.24878,.76611-.10107,1.52441,.48682,2.1709,1.04395,3.51025,3.0354,6.95117,6.23145,10.22803,9.49951l.49805-.49902c-3.28857-3.28003-6.74219-6.48755-10.26514-9.53394-.76172-.65698-1.66504-1.34497-2.72119-1.20972-.34717,.04419-.6543,.17334-.95117,.2981-.24854,.10474-.4834,.20337-.71924,.24219-.80322,.13208-1.62109-.42065-2.32568-.94971-6.81543-5.11108-13.32471-10.7561-19.34717-16.77832l-.49805,.49854c6.04541,6.04565,12.58008,11.71289,19.42236,16.84375,.82031,.6167,1.78955,1.25757,2.86279,1.08154Z" style="fill: #e4877c;"></path><path d="M328.86157,97.85425c1.9624,1.83423,2.98486,3.49023,3.21777,5.21216l.0332,.27563c.04492,.39624,.09082,.80615,.29199,1.19165,.1958,.37207,.49951,.64648,.76758,.88843l8.27686,7.47607,.47266-.52295-8.27686-7.47632c-.23535-.2124-.479-.43237-.61572-.69238-.13965-.26807-.17676-.59619-.21582-.9436l-.03564-.29175c-.25586-1.89087-1.34717-3.68066-3.43457-5.63184-.45264-.42383-.92139-.83301-1.39062-1.24219-1.13574-.99097-2.31055-2.01562-3.19922-3.23438l-.56934,.41504c.93506,1.28296,2.14014,2.33423,3.30518,3.35059,.46289,.40381,.92578,.80737,1.37256,1.22583Z" style="fill: #e4877c;"></path><path d="M301.46851,104.51221c1.99805,.71045,4.08789,1.20312,6.10938,1.67969,1.25195,.29517,2.54736,.60059,3.80176,.95361,7.6377,2.1499,14.61182,6.27954,20.16846,11.94214l.50293-.49365c-5.64258-5.75049-12.72461-9.94385-20.47998-12.1272-1.26953-.35718-2.57178-.66431-3.83154-.96118-2.00244-.47217-4.07324-.96021-6.03467-1.65771-3.71875-1.3208-6.41943-3.22998-8.02783-5.67456l-.58887,.3877c1.69434,2.57568,4.51416,4.57788,8.38037,5.95117Z" style="fill: #e4877c;"></path><rect x="254.16151" y="20.61557" width=".70481" height="8.6839" transform="translate(17.54901 121.12323) rotate(-27.68892)" style="fill: #e4877c;"></rect><path d="M269.30298,89.13354c-.51807-.54443-.82471-1.27417-1.12158-1.97974l-6.29541-14.97485-.65039,.27295,6.29639,14.97534c.30615,.72852,.65332,1.5542,1.26074,2.19287,.53174,.55591,1.20264,.91479,1.85107,1.26172l.13135,.07031c3.2334,1.73486,6.22266,3.89575,8.88477,6.4231l.48535-.51123c-2.70752-2.57056-5.74805-4.76855-9.03662-6.53296l-.13232-.0708c-.59961-.32104-1.21973-.65283-1.67334-1.12671Z" style="fill: #e4877c;"></path><polygon points="96.14819 112.49487 96.02661 122.93799 106.41382 133.71094 106.92163 133.22168 96.73462 122.65674 96.85327 112.50317 96.14819 112.49487" style="fill: #e4877c;"></polygon><path d="M110.85767,123.00439c.52588,.46875,.92236,1.05762,1.34229,1.6814l.29248,.43018c1.56787,2.26855,3.58545,4.1792,5.53662,6.0271l.48438-.51172c-1.9248-1.823-3.91504-3.70825-5.44092-5.9165l-.2876-.42285c-.42578-.63232-.86621-1.28613-1.4585-1.81421-.53711-.47729-1.16113-.81909-1.76465-1.14966l-6.87842-3.7644-.33789,.61865,6.87744,3.76392c.56934,.31177,1.15771,.63403,1.63477,1.05811Z" style="fill: #e4877c;"></path><polygon points="6.00366 160.95093 0 167.24103 0 168.2619 6.51343 161.43774 6.00366 160.95093" style="fill: #e4877c;"></polygon><polygon points="1.85034 160.36133 0 162.2005 0 163.19458 2.34741 160.86133 1.85034 160.36133" style="fill: #e4877c;"></polygon><path d="M96.42798,197.17798c.14746,.08838,.30713,.13257,.47852,.13257,.33496,0,.71387-.16968,1.13184-.50806l19.30371-15.66748-.44434-.54736-19.30322,15.66724c-.36621,.29614-.64795,.40894-.76904,.37012-.00293-.03345,.03613-.11255,.06592-.13452-.01416,.01001-.06396,.02612-.12109,.01416-.06738-.01465-.10352-.05542-.11084-.06836l.61719-.34131c-.1167-.20996-.32812-.31909-.54297-.28442-.31494,.0498-.54297,.37793-.59814,.66162-.05713,.29297,.05518,.56323,.29248,.70581Z" style="fill: #e4877c;"></path><rect x="85.33465" y="185.84973" width="25.98817" height=".70484" transform="translate(-91.64231 95.36832) rotate(-36.60798)" style="fill: #e4877c;"></rect><rect x="81.29878" y="182.30628" width="26.9547" height=".70483" transform="translate(-87.79014 87.70465) rotate(-35.09729)" style="fill: #e4877c;"></rect><rect x="74.67958" y="179.61795" width="26.47579" height=".70501" transform="translate(-80.51724 71.57952) rotate(-31.20195)" style="fill: #e4877c;"></rect><rect x="66.55645" y="177.82985" width="24.8412" height=".70505" transform="translate(-79.06241 64.12159) rotate(-30.27643)" style="fill: #e4877c;"></rect><rect x="57.66407" y="178.42584" width="21.16649" height=".70495" transform="translate(-85.02034 64.19905) rotate(-32.32509)" style="fill: #e4877c;"></rect><rect x="45.8751" y="172.46528" width="17.32744" height=".70519" transform="translate(-99.69687 77.67666) rotate(-40.81645)" style="fill: #e4877c;"></rect><path d="M4.14343,158.00946c1.64331,.27521,3.29028,.49786,4.90808,.71075,1.13586,.14935,2.29004,.3031,3.44495,.47559l-.68726,.45813,.03772-.04089-.51855-.47803L0,171.4151v1.0401l10.98926-11.91248,.23315,.34961,2.30005-1.53351c.99329,.1604,1.98474,.33453,2.96118,.54523,1.88086,.40625,3.58777,.93164,5.15564,1.54932l-.04773,.02515,.32812,.62402,.56848-.29919c1.823,.7923,3.40955,1.73969,4.7644,2.83356-6.09814-1.65472-13.10168-.18683-17.87048,3.95929-.42578,.37012-.83594,.75952-1.24561,1.14917-.73682,.69995-1.49902,1.42407-2.33691,2.00195-1.09619,.75586-2.3623,1.29102-3.5874,1.80884-.73254,.30969-1.48621,.63385-2.21216,1.00177v.79639c.05261-.02814,.10168-.06165,.15454-.08917,.75146-.3916,1.55518-.7312,2.33203-1.05957,1.25781-.53149,2.55811-1.08105,3.71338-1.87769,.8833-.60938,1.66553-1.35278,2.42188-2.07153,.40234-.38232,.80518-.76465,1.22314-1.12793,4.98108-4.3313,12.49426-5.63245,18.68396-3.34796,.67102,.66913,1.28979,1.37079,1.80969,2.13263,.72607,1.06445,1.32373,2.2583,1.90137,3.41309,.91797,1.83594,1.86768,3.73438,3.37305,5.20508,1.53564,1.50146,3.56299,2.44922,5.35205,3.28564l62.021,28.98486,.29883-.63867-28.25647-13.20538,8.93909-7.26312-.44434-.54736-9.20447,7.47882-33.05481-15.44781c-1.82324-.85229-3.70801-1.7334-5.1582-3.15112-1.42041-1.38794-2.30225-3.15039-3.23535-5.01636-.58838-1.17554-1.19629-2.39136-1.94971-3.49512-.34888-.51123-.73083-1.00189-1.14417-1.47278l.1969-.4325c-.34241-.15613-.69263-.29388-1.04431-.42743-.18103-.17755-.3501-.36267-.54126-.53369l10.13977-10.72687-.5127-.48438-10.17712,10.76636c-1.30688-1.07751-2.80884-2.02911-4.54028-2.82697l9.94739-5.23529-.32812-.62402-10.46643,5.50848c-1.75-.73389-3.67578-1.34875-5.81824-1.81146-.74475-.16077-1.49646-.2995-2.25012-.42932l9.35706-6.23865-.36877-.55353,13.42395-11.46918-.45801-.53613-16.42383,14.03223,.12573,.14716-6.67529,4.4505c-1.41443-.22345-2.83008-.41418-4.21948-.59692-1.36499-.17963-2.75134-.3656-4.13635-.5835l10.98401-7.27222-.38916-.58789-11.61206,7.68787c-1.27161-.2182-2.5387-.46466-3.78052-.78186l-.1748,.68311c1.0238,.26147,2.06262,.47076,3.10437,.66217l-3.13879,2.07806v.84576l4.14343-2.74329Z" style="fill: #e4877c;"></path><rect x="48.0407" y="177.23379" width="16.5724" height=".70466" transform="translate(-96.7794 71.43524) rotate(-37.66783)" style="fill: #e4877c;"></rect><path d="M67.2312,157.79419l-.49805-.49854c-6.40234,6.40283-13.58691,12.00366-21.35352,16.64697l.36133,.60498c7.81689-4.67285,15.04736-10.30957,21.49023-16.75342Z" style="fill: #e4877c;"></path><path d="M57.73071,154.26904l-.48047-.51562c-5.8501,5.45703-12.00977,10.72559-18.30713,15.65942l.43457,.55518c6.31348-4.94629,12.48877-10.22827,18.35303-15.69897Z" style="fill: #e4877c;"></path><path d="M33.24536,164.96826c4.01758-3.33838,8.24512-6.50757,12.56494-9.41919l-.39404-.58447c-4.33936,2.92456-8.58594,6.10791-12.62109,9.46167l.4502,.54199Z" style="fill: #e4877c;"></path></svg>