<svg xmlns="http://www.w3.org/2000/svg" id="_&#x5716;&#x5C64;_1" data-name="&#x5716;&#x5C64; 1" viewBox="0 0 669.90894 330.16235"><g style="opacity: .5;"><g><path d="M63.90527,220.06116c-30.40308,0-55.05005,24.64709-55.05005,55.05005s24.64697,55.05103,55.05005,55.05103,55.04993-24.64697,55.04993-55.05103-24.646-55.05005-55.04993-55.05005m0,102.53699c-26.22607,0-47.48706-21.25989-47.48706-47.48694s21.26099-47.48596,47.48706-47.48596,47.48694,21.26001,47.48694,47.48596-21.26099,47.48694-47.48694,47.48694" style="fill: #d9518f;"></path><path d="M63.90527,238.13647s-20.65002,14.48401-20.65002,39.60901c0,17.33704,9.82996,28.86108,15.9259,34.34106,1.27307-13.50403,4.72412-34.46606,4.72412-34.46606,0,0,3.45093,20.96204,4.724,34.46606,6.09595-5.47998,15.9259-17.00403,15.9259-34.34106,0-25.125-20.6499-39.60901-20.6499-39.60901" style="fill: #d9518f;"></path><path d="M231.14587,220.06116c-30.40308,0-55.05005,24.64709-55.05005,55.05005s24.64697,55.05103,55.05005,55.05103,55.04993-24.64697,55.04993-55.05103-24.646-55.05005-55.04993-55.05005m0,102.53699c-26.22607,0-47.48706-21.25989-47.48706-47.48694s21.26099-47.48596,47.48706-47.48596,47.48694,21.26001,47.48694,47.48596-21.26099,47.48694-47.48694,47.48694" style="fill: #d9518f;"></path><path d="M231.14587,238.13684s-51.82007,73.94897,0,73.94897,0-73.94897,0-73.94897m0,69.14697c-3.03601,0-5.60706-.33191-7.7771-.93799,.43005,.01208,.85205,.03003,1.29907,.03003,29.84595,0,22.43494-26.58398,12.64697-46.56702,9.43005,16.39099,23.41394,47.47498-6.16895,47.47498" style="fill: #d9518f;"></path><path d="M565.6272,220.06116c-30.40405,0-55.05005,24.64709-55.05005,55.05005s24.646,55.05103,55.05005,55.05103,55.04993-24.64697,55.04993-55.05103-24.64697-55.05005-55.04993-55.05005m0,102.53699c-26.22607,0-47.48706-21.25989-47.48706-47.48694s21.26099-47.48596,47.48706-47.48596,47.48694,21.26001,47.48694,47.48596-21.26099,47.48694-47.48694,47.48694" style="fill: #d9518f;"></path><path d="M585.57166,249.32239h-39.88904c-1.93701,0-3.50696,1.56995-3.50696,3.50696,0,1.93604,1.56995,3.50598,3.50696,3.50598h.80298l6.19299,37.80396h-2.66394v-2.07092c0-1.19702-.96997-2.16602-2.16602-2.16602-1.19702,0-2.16602,.96899-2.16602,2.16602v6.66699c0,1.19592,.96899,2.16602,2.16602,2.16602,1.19604,0,2.16602-.97009,2.16602-2.16602v-2.07202h3.39392c.85901,1.5,2.47205,2.48499,4.28601,2.48499h15.86499c1.81409,0,3.427-.98499,4.28601-2.48499h3.39404v2.07202c0,1.19592,.96997,2.16602,2.16602,2.16602,1.19702,0,2.16602-.97009,2.16602-2.16602v-6.66699c0-1.19702-.96899-2.16602-2.16602-2.16602-1.19604,0-2.16602,.96899-2.16602,2.16602v2.07092h-2.66406l6.19312-37.80396h.80298c1.93701,0,3.50696-1.56995,3.50696-3.50598,0-1.93701-1.56995-3.50696-3.50696-3.50696m-26.13806,29.66199l-1.43591-1.7041-1.67004,2.89209c-.28503,.49402-.28503,1.08398,0,1.57898,.28503,.49402,.797,.78894,1.36804,.78894,.49597,0,.89893,.4021,.89893,.90002,0,.49707-.40295,.89905-.89893,.89905-1.22205,0-2.31506-.63098-2.92603-1.68909-.60999-1.05688-.60999-2.31897,0-3.37695l1.66992-2.89294-2.19299-.39099c1.72607-.59204,3.81604-1.94702,5.28406-3.16406-.31897,1.88-.448,4.36804-.09705,6.15906m4.85901-12.60706l-1.42102,2.46204c-.2489,.42993-.79993,.57593-1.229,.32898-.43091-.24902-.578-.79895-.32996-1.229l1.422-2.46204c.60999-1.05798,1.70398-1.68896,2.92505-1.68896,1.22095,0,2.31494,.63098,2.9259,1.68896l1.66907,2.89209,1.43494-1.703c-.34998,1.78992-.22095,4.27795,.099,6.15894-1.46899-1.21704-3.55896-2.573-5.28601-3.16504l2.19409-.39099-1.67004-2.89197c-.28503-.49402-.79602-.78894-1.36694-.78894-.57104,0-1.08203,.29492-1.36707,.78894m12.25708,16.27295c-.61108,1.05811-1.7041,1.68909-2.92505,1.68909h-3.33997l.75793,2.09595c-1.375-1.19995-3.59497-2.33203-5.38293-2.99597,1.78796-.66296,4.00793-1.79504,5.38293-2.99402l-.75793,2.09497h3.33997c.56995,0,1.08093-.29492,1.36694-.78894,.28503-.495,.28503-1.08496,0-1.57898-.24792-.43005-.10095-.97998,.3291-1.229,.42993-.24902,.97998-.10107,1.229,.32996,.61096,1.05798,.61096,2.32007,0,3.37695" style="fill: #d9518f;"></path><path d="M398.3866,220.06128c-30.40405,0-55.05005,24.64709-55.05005,55.05103s24.646,55.05005,55.05005,55.05005,55.04993-24.64697,55.04993-55.05005-24.64697-55.05103-55.04993-55.05103m0,102.53699c-26.22607,0-47.48706-21.25989-47.48706-47.48596s21.26099-47.48694,47.48706-47.48694,47.48596,21.26001,47.48596,47.48694-21.26001,47.48596-47.48596,47.48596" style="fill: #d9518f;"></path><path d="M430.18384,269.2207c-1.24402,0-2.26099,1.01697-2.26099,2.26196v.71899h-16.14905c-2.052-3.875-5.87402-6.62793-10.38-7.27698v-4.91003c.61304-.34998,1.13904-.85901,1.47302-1.47192h4.32996c.68408,1.19189,1.96411,2.01599,3.43701,2.01599,2.20911,0,3.9801-1.771,3.9801-3.9801,0-2.17395-1.771-3.96289-3.9801-3.96289-1.4729,0-2.75293,.82397-3.43701,2.01599h-4.32996c-.68396-1.19202-1.94702-2.01599-3.42004-2.01599-1.47192,0-2.7699,.82397-3.43591,2.01599h-4.33105c-.70093-1.19202-1.96399-2.01599-3.43701-2.01599-2.19202,0-3.97998,1.78894-3.97998,3.96289,0,2.20911,1.78796,3.9801,3.97998,3.9801,1.47302,0,2.73608-.8241,3.43701-2.01599h4.33105c.34998,.61292,.85901,1.12195,1.47302,1.47192v4.91003c-4.82202,.68396-8.83801,3.80493-10.76599,8.08301-9.83704,2.41992-17.56909,10.20496-19.901,20.05896h-.21106c-1.245,0-2.27905,1.01697-2.27905,2.27905,0,1.245,1.03406,2.26196,2.27905,2.26196h14.34302c1.26294,0,2.27893-1.01697,2.27893-2.26196,0-1.26208-1.01599-2.27905-2.27893-2.27905h-.29797c1.48999-2.99792,3.99792-5.40002,7.10095-6.71594,2.50806,3.823,6.80298,6.32996,11.69495,6.32996,5.33105,0,9.97705-2.99805,12.30908-7.41699h16.16699v.42102c0,1.26294,1.01697,2.27893,2.26099,2.27893,1.26294,0,2.26196-1.01599,2.26196-2.27893v-14.20203c0-1.245-.99902-2.26196-2.26196-2.26196m-20.81494,14.30591c.00195-.099,.01489-.19495,.01489-.29395,0-8.03101-6.51001-14.54199-14.54089-14.54199-.1001,0-.19604,.01294-.29504,.01501,1.46997-.71802,3.11401-1.13196,4.85999-1.13196,6.12695,0,11.09399,4.96594,11.09399,11.0929,0,1.74609-.41504,3.39099-1.13293,4.85999" style="fill: #d9518f;"></path><path d="M.58215,49.29199C.26013,49.29199,.00012,49.0321,.00012,48.71008V18.698c0-.3219,.26001-.58191,.58203-.58191H30.59509c.32202,0,.58203,.26001,.58203,.58191,0,.32104-.26001,.58203-.58203,.58203H1.16406v29.43005c0,.32202-.26001,.58191-.58191,.58191" style="fill: #d9518f;"></path><path d="M151.52356,49.29199c-.32202,0-.58203-.25989-.58203-.58191V19.28003h-29.43103c-.32202,0-.58203-.26099-.58203-.58203,0-.3219,.26001-.58191,.58203-.58191h30.01306c.3219,0,.58191,.26001,.58191,.58191v30.01208c0,.32202-.26001,.58191-.58191,.58191" style="fill: #d9518f;"></path><path d="M30.59509,170.22095H.58203c-.32202,0-.58203-.25989-.58203-.58191v-30.01208c0-.3219,.26001-.58191,.58203-.58191s.58203,.26001,.58203,.58191v29.43005H30.59509c.3219,0,.58191,.26099,.58191,.58203,0,.32202-.26001,.58191-.58191,.58191" style="fill: #d9518f;"></path><path d="M151.52356,170.22095h-30.01306c-.32202,0-.58203-.25989-.58203-.58191,0-.32104,.26001-.58203,.58203-.58203h29.43103v-29.43005c0-.3219,.26001-.58191,.58203-.58191,.3219,0,.58191,.26001,.58191,.58191v30.01208c0,.32202-.26001,.58191-.58191,.58191" style="fill: #d9518f;"></path><path d="M141.04529,151.84253H17.02722c-.32202,0-.58203-.25989-.58203-.58191V36.71362c0-.32202,.26001-.58203,.58203-.58203,.32104,0,.58105,.26001,.58105,.58203v113.96497h123.43701c.3219,0,.58191,.26099,.58191,.58203,0,.32202-.26001,.58191-.58191,.58191" style="fill: #d9518f;"></path><path d="M17.02686,42.89709h-7.6311c-.3219,0-.58191-.25989-.58191-.58191,0-.32104,.26001-.58203,.58191-.58203h7.6311c.3219,0,.58191,.26099,.58191,.58203,0,.32202-.26001,.58191-.58191,.58191" style="fill: #d9518f;"></path><path d="M17.02686,59.47595h-7.6311c-.3219,0-.58191-.25989-.58191-.58191,0-.32104,.26001-.58203,.58191-.58203h7.6311c.3219,0,.58191,.26099,.58191,.58203,0,.32202-.26001,.58191-.58191,.58191" style="fill: #d9518f;"></path><path d="M17.02686,76.05481h-7.6311c-.3219,0-.58191-.25989-.58191-.58191s.26001-.58203,.58191-.58203h7.6311c.3219,0,.58191,.26001,.58191,.58203s-.26001,.58191-.58191,.58191" style="fill: #d9518f;"></path><path d="M17.02686,92.63354h-7.6311c-.3219,0-.58191-.25989-.58191-.58191,0-.32104,.26001-.58203,.58191-.58203h7.6311c.3219,0,.58191,.26099,.58191,.58203,0,.32202-.26001,.58191-.58191,.58191" style="fill: #d9518f;"></path><path d="M17.02686,109.2124h-7.6311c-.3219,0-.58191-.25989-.58191-.58191,0-.32104,.26001-.58203,.58191-.58203h7.6311c.3219,0,.58191,.26099,.58191,.58203,0,.32202-.26001,.58191-.58191,.58191" style="fill: #d9518f;"></path><path d="M17.02686,125.79126h-7.6311c-.3219,0-.58191-.25989-.58191-.58191,0-.32104,.26001-.58203,.58191-.58203h7.6311c.3219,0,.58191,.26099,.58191,.58203,0,.32202-.26001,.58191-.58191,.58191" style="fill: #d9518f;"></path><path d="M17.02686,142.37012h-7.6311c-.3219,0-.58191-.25989-.58191-.58191s.26001-.58203,.58191-.58203h7.6311c.3219,0,.58191,.26001,.58191,.58203s-.26001,.58191-.58191,.58191" style="fill: #d9518f;"></path><path d="M24.89001,159.79614c-.32202,0-.58203-.25989-.58203-.58191v-7.63098c0-.32104,.26001-.58203,.58203-.58203,.3219,0,.58191,.26099,.58191,.58203v7.63098c0,.32202-.26001,.58191-.58191,.58191" style="fill: #d9518f;"></path><path d="M66.79285,159.79614c-.32202,0-.58203-.25989-.58203-.58191v-7.63098c0-.32104,.26001-.58203,.58203-.58203,.3219,0,.58191,.26099,.58191,.58203v7.63098c0,.32202-.26001,.58191-.58191,.58191" style="fill: #d9518f;"></path><path d="M108.69568,159.79614c-.32202,0-.58203-.25989-.58203-.58191v-7.63098c0-.32104,.26001-.58203,.58203-.58203,.3219,0,.58191,.26099,.58191,.58203v7.63098c0,.32202-.26001,.58191-.58191,.58191" style="fill: #d9518f;"></path><path d="M25.96179,130.79651c-3.30701,0-5.99707-2.69104-5.99707-5.99707,0-3.30701,2.69006-5.99695,5.99707-5.99695s5.99695,2.68994,5.99695,5.99695c0,3.30603-2.69006,5.99707-5.99695,5.99707m0-9.66711c-2.02307,0-3.67004,1.64612-3.67004,3.67004,0,2.02307,1.64697,3.66907,3.67004,3.66907,2.02295,0,3.66992-1.646,3.66992-3.66907,0-2.02393-1.64697-3.67004-3.66992-3.67004" style="fill: #d9518f;"></path><path d="M106.32727,89.19495c-3.30701,0-5.99707-2.69006-5.99707-5.99707s2.69006-5.99792,5.99707-5.99792,5.99695,2.69092,5.99695,5.99792-2.69006,5.99707-5.99695,5.99707m0-9.66711c-2.02307,0-3.67004,1.64612-3.67004,3.67004,0,2.02405,1.64697,3.67004,3.67004,3.67004,2.02295,0,3.66992-1.646,3.66992-3.67004,0-2.02393-1.64697-3.67004-3.66992-3.67004" style="fill: #d9518f;"></path><path d="M29.26428,122.43982c-.28503,0-.57202-.10388-.79602-.31494-.46899-.43896-.49304-1.17505-.0531-1.64502l13.53711-14.43994c.37-.396,.9679-.48206,1.43298-.21106l16.06592,9.33508,15.71704-25.36304c.33496-.53906,1.03699-.71106,1.58301-.38806l15.88599,9.43604,9.80103-12.55896c.39502-.50708,1.125-.59802,1.63293-.20203,.50708,.396,.59705,1.12695,.20105,1.63403l-10.43103,13.36694c-.35999,.46106-1.00696,.58606-1.51196,.28503l-15.78406-9.37708-15.71191,25.3551c-.33203,.53601-1.03101,.70898-1.573,.39294l-16.24402-9.43799-12.90295,13.76501c-.22803,.245-.53906,.36792-.849,.36792" style="fill: #d9518f;"></path><path d="M32.00317,99.41687c-3.30701,0-5.99707-2.69104-5.99707-5.99707,0-3.30701,2.69006-5.99695,5.99707-5.99695s5.99695,2.68994,5.99695,5.99695c0,3.30603-2.69006,5.99707-5.99695,5.99707m0-9.66711c-2.02307,0-3.67004,1.64612-3.67004,3.67004,0,2.02307,1.64697,3.66907,3.67004,3.66907,2.02295,0,3.66992-1.646,3.66992-3.66907,0-2.02393-1.64697-3.67004-3.66992-3.67004" style="fill: #d9518f;"></path><path d="M100.28577,61.71167c-3.30701,0-5.99707-2.69104-5.99707-5.99707,0-3.30701,2.69006-5.99792,5.99707-5.99792s5.99695,2.69092,5.99695,5.99792c0,3.30603-2.69006,5.99707-5.99695,5.99707m0-9.66711c-2.02307,0-3.67004,1.64612-3.67004,3.67004,0,2.02307,1.64697,3.66907,3.67004,3.66907,2.02295,0,3.66992-1.646,3.66992-3.66907,0-2.02393-1.64697-3.67004-3.66992-3.67004" style="fill: #d9518f;"></path><path d="M36.83545,93.51611c-.53406,0-1.01501-.37-1.13501-.91296-.13904-.62793,.25793-1.24902,.88501-1.38696l18.52197-4.08899-2.53101-17.83508c-.05798-.40698,.104-.81396,.42395-1.07092,.32202-.25903,.75403-.32605,1.13806-.18201l22.95691,8.625-.62-20.91504c-.00891-.31494,.10901-.62,.3291-.84595,.21899-.22498,.5199-.35303,.83496-.35303h17.81299c.64294,0,1.16394,.521,1.16394,1.16406,0,.64294-.521,1.16394-1.16394,1.16394h-16.61401l.63501,21.45105c.01196,.38794-.17102,.75598-.48694,.98193-.31409,.22607-.72009,.28003-1.08606,.14197l-22.74402-8.54492,2.40698,16.95996c.08508,.60205-.30798,1.16907-.901,1.30005l-19.57495,4.32092c-.08496,.01807-.16907,.02698-.25195,.02698" style="fill: #d9518f;"></path><path d="M35.33618,65.37659v-1.86096h-3.17505v-.60901l3.04895-4.36401h.99805v4.24792h.95801v.7251h-.95801v1.86096h-.87195Zm0-2.58606v-2.28198c0-.35791,.00989-.71497,.03198-1.0719h-.03198c-.21008,.39893-.37805,.69397-.56812,1.00891l-1.672,2.32397v.021h2.24011Z" style="fill: #d9518f;"></path><path d="M41.95337,59.32056h-2.60803l-.26306,1.7561c.15808-.02209,.30505-.04199,.55798-.04199,.52502,0,1.05103,.11597,1.47107,.36792,.53699,.30505,.97803,.89404,.97803,1.75598,0,1.33508-1.06104,2.33411-2.54407,2.33411-.74695,0-1.37695-.21106-1.703-.42004l.23108-.70496c.28394,.16797,.84094,.37793,1.46094,.37793,.87305,0,1.61902-.56702,1.61902-1.48193-.01001-.88306-.599-1.51404-1.96497-1.51404-.39001,0-.69507,.04199-.94702,.073l.44092-3.28003h3.27112v.77795Z" style="fill: #d9518f;"></path><path d="M42.96533,66.67053c.23096-.62097,.51489-1.74597,.62988-2.51392l1.03101-.104c-.24194,.89294-.70496,2.06104-.9989,2.55493l-.66199,.06299Z" style="fill: #d9518f;"></path><path d="M49.52771,59.32056h-2.60803l-.26306,1.7561c.15808-.02209,.30505-.04199,.55798-.04199,.52502,0,1.05103,.11597,1.47107,.36792,.53699,.30505,.97803,.89404,.97803,1.75598,0,1.33508-1.06104,2.33411-2.54407,2.33411-.74695,0-1.37695-.21106-1.703-.42004l.23108-.70496c.28394,.16797,.84192,.37793,1.46094,.37793,.87305,0,1.61902-.56702,1.61902-1.48193-.01001-.88306-.599-1.51404-1.96497-1.51404-.39001,0-.69507,.04199-.94604,.073l.44104-3.28003h3.27002v.77795Z" style="fill: #d9518f;"></path><path d="M53.92505,60.46716c0,1.44006-.75696,2.15503-1.64099,2.15503-.85095,0-1.58704-.68396-1.59802-2.06104,0-1.36597,.74707-2.13489,1.65198-2.13489,.95605,0,1.58704,.73694,1.58704,2.04089m-2.50305,.06201c-.0199,.87402,.30505,1.53503,.88403,1.53503,.60901,0,.88208-.651,.88208-1.55505,0-.83093-.24109-1.5249-.88208-1.5249-.57898,0-.88403,.68298-.88403,1.54492m.80005,4.96301l4.01599-7.06592h.58899l-4.01697,7.06592h-.58801Zm6.151-2.19702c0,1.44104-.75696,2.15503-1.63098,2.15503-.85095,0-1.58704-.68298-1.59705-2.04993,0-1.37805,.74609-2.14502,1.651-2.14502,.95605,0,1.57703,.73596,1.57703,2.03992m-2.50293,.06299c-.01001,.87207,.32593,1.53503,.89392,1.53503,.60901,0,.88306-.651,.88306-1.55603,0-.83093-.24207-1.52393-.88306-1.52393-.578,0-.89392,.68298-.89392,1.54492" style="fill: #d9518f;"></path><path d="M93.05017,111.97205v-.56799l.72498-.70398c1.74597-1.66101,2.53394-2.54492,2.54492-3.57593,0-.69299-.33691-1.33508-1.35693-1.33508-.62,0-1.13599,.31506-1.45105,.5791l-.29395-.65308c.47302-.39893,1.146-.69299,1.93494-.69299,1.47107,0,2.09204,1.00806,2.09204,1.98596,0,1.26208-.91504,2.2821-2.35498,3.66907l-.547,.50598v.02002h3.06995v.76892h-4.36292Z" style="fill: #d9518f;"></path><path d="M102.52686,105.91565h-2.60803l-.26306,1.755c.15808-.021,.30505-.04089,.55798-.04089,.52502,0,1.05103,.11499,1.47107,.36792,.53699,.30505,.97803,.89404,.97803,1.755,0,1.33606-1.06104,2.33398-2.54407,2.33398-.74695,0-1.37695-.21094-1.703-.41895l.23108-.70605c.28394,.16809,.84094,.37903,1.46094,.37903,.87305,0,1.61902-.56702,1.61902-1.48303-.01001-.88196-.599-1.51392-1.96497-1.51392-.39001,0-.69507,.04297-.94702,.07397l.44092-3.28101h3.27112v.77893Z" style="fill: #d9518f;"></path><path d="M103.53882,113.26477c.23096-.62,.51489-1.745,.62988-2.51392l1.03101-.104c-.24194,.89392-.70496,2.06201-.9989,2.55493l-.66199,.06299Z" style="fill: #d9518f;"></path><polygon points="108.02942 105.99951 108.0083 105.99951 106.82031 106.63953 106.64136 105.93652 108.1344 105.1366 108.92334 105.1366 108.92334 111.97253 108.02942 111.97253 108.02942 105.99951" style="fill: #d9518f;"></polygon><path d="M114.49854,107.06128c0,1.44006-.75696,2.15601-1.64099,2.15601-.85095,0-1.58704-.68396-1.59802-2.06201,0-1.36597,.74707-2.13293,1.65198-2.13293,.95605,0,1.58704,.73596,1.58704,2.03894m-2.50305,.06299c-.0199,.87402,.30505,1.53406,.88403,1.53406,.60901,0,.88208-.65002,.88208-1.55408,0-.83093-.24109-1.526-.88208-1.526-.57898,0-.88403,.68311-.88403,1.54602m.80005,4.96301l4.01599-7.06494h.58899l-4.01697,7.06494h-.58801Zm6.151-2.19702c0,1.44006-.75696,2.15503-1.63098,2.15503-.85095,0-1.58704-.68298-1.59705-2.05103,0-1.37695,.74609-2.14392,1.651-2.14392,.95605,0,1.57703,.73499,1.57703,2.03992m-2.50293,.06299c-.01001,.87207,.32593,1.53406,.89392,1.53406,.60901,0,.88306-.65002,.88306-1.55603,0-.83093-.24207-1.52393-.88306-1.52393-.578,0-.89392,.68298-.89392,1.5459" style="fill: #d9518f;"></path><polygon points="58.36414 123.66016 58.34302 123.66016 57.15503 124.30225 56.97607 123.59827 58.46912 122.79919 59.25806 122.79919 59.25806 129.63318 58.36414 129.63318 58.36414 123.66016" style="fill: #d9518f;"></polygon><path d="M62.28992,128.98193c.19897,.021,.43103,0,.74597-.0321,.53601-.07397,1.04102-.29492,1.43005-.66296,.45203-.40894,.77795-1.00903,.90393-1.81799h-.03101c-.37891,.46204-.92493,.73596-1.60901,.73596-1.22998,0-2.01794-.927-2.01794-2.0929,0-1.29407,.93506-2.42908,2.33398-2.42908,1.39807,0,2.26001,1.13501,2.26001,2.88208,0,1.50293-.50403,2.55396-1.177,3.20691-.526,.51501-1.25195,.83008-1.98804,.91406-.33594,.05298-.63098,.06299-.85095,.05298v-.75696Zm.33606-3.93311c0,.85107,.51489,1.45007,1.31396,1.45007,.62097,0,1.10498-.30396,1.34595-.71399,.05298-.08398,.08398-.19006,.08398-.33704,0-1.16602-.43091-2.05994-1.39795-2.05994-.78906,0-1.34595,.69397-1.34595,1.66089" style="fill: #d9518f;"></path><path d="M66.84509,130.92725c.23096-.62195,.51489-1.74695,.62988-2.51392l1.03101-.104c-.24194,.89197-.70496,2.05994-.9989,2.55493l-.66199,.06299Z" style="fill: #d9518f;"></path><path d="M69.54883,128.57104c.26294,.16809,.87195,.43201,1.51392,.43201,1.18799,0,1.55603-.75696,1.54504-1.32593-.01001-.95703-.87207-1.36597-1.76599-1.36597h-.51599v-.69409h.51599c.67297,0,1.52502-.34692,1.52502-1.15698,0-.54602-.34705-1.03101-1.1991-1.03101-.547,0-1.073,.24304-1.36694,.45203l-.24207-.67297c.35706-.26208,1.052-.526,1.78809-.526,1.34595,0,1.95496,.79993,1.95496,1.63098,0,.70496-.42004,1.30396-1.26196,1.60901v.021c.84192,.16699,1.52502,.79895,1.52502,1.755,0,1.09399-.85205,2.05103-2.49207,2.05103-.76697,0-1.43994-.24109-1.77698-.46204l.25305-.71606Z" style="fill: #d9518f;"></path><path d="M77.80481,124.724c0,1.43994-.75696,2.15393-1.64099,2.15393-.85095,0-1.58704-.68298-1.59802-2.05994,0-1.36707,.74707-2.13501,1.65198-2.13501,.95605,0,1.58704,.73596,1.58704,2.04102m-2.50305,.06091c-.0199,.87402,.30505,1.53601,.88403,1.53601,.60901,0,.88208-.65198,.88208-1.55603,0-.83093-.24109-1.52393-.88208-1.52393-.57898,0-.88403,.68298-.88403,1.54395m.80005,4.96399l4.01599-7.06592h.58899l-4.01697,7.06592h-.58801Zm6.151-2.198c0,1.44104-.75696,2.15503-1.63098,2.15503-.85095,0-1.58704-.68298-1.59705-2.04895,0-1.37903,.74609-2.146,1.651-2.146,.95605,0,1.57703,.73694,1.57703,2.03992m-2.50293,.06299c-.01001,.87305,.32593,1.53601,.89392,1.53601,.60901,0,.88306-.65198,.88306-1.55701,0-.82996-.24207-1.52295-.88306-1.52295-.578,0-.89392,.68298-.89392,1.54395" style="fill: #d9518f;"></path><path d="M104.83936,40.677h-2.60803l-.26306,1.7561c.15808-.02209,.30505-.04199,.55798-.04199,.52502,0,1.05103,.11597,1.47107,.36792,.53699,.30505,.97803,.89404,.97803,1.75598,0,1.33508-1.06201,2.33411-2.54407,2.33411-.74695,0-1.37695-.21106-1.703-.42004l.23108-.70496c.28394,.16797,.84094,.37793,1.46094,.37793,.87305,0,1.61902-.56702,1.61902-1.48193-.01001-.88306-.599-1.51404-1.96497-1.51404-.39001,0-.69507,.04199-.94702,.07397l.44092-3.28101h3.27112v.77795Z" style="fill: #d9518f;"></path><path d="M106.15698,46.7334v-.56799l.72498-.70398c1.74597-1.66101,2.53394-2.54492,2.54492-3.57593,0-.69299-.33691-1.33398-1.35693-1.33398-.62,0-1.13599,.31494-1.45105,.578l-.29395-.6521c.47302-.3999,1.146-.69397,1.93494-.69397,1.47107,0,2.09204,1.00903,2.09204,1.98706,0,1.26196-.91504,2.28101-2.35498,3.66895l-.547,.505v.021h3.06995v.76794h-4.36292Z" style="fill: #d9518f;"></path><path d="M111.24854,48.02698c.23096-.62097,.51489-1.74597,.62988-2.51392l1.03101-.104c-.24194,.89294-.70496,2.06104-.9989,2.55493l-.66199,.06299Z" style="fill: #d9518f;"></path><polygon points="118.16785 39.8988 118.16785 40.50781 115.19275 46.73389 114.23584 46.73389 117.20081 40.68689 117.20081 40.66687 113.85681 40.66687 113.85681 39.8988 118.16785 39.8988" style="fill: #d9518f;"></polygon><path d="M122.20813,41.82361c0,1.44006-.75696,2.15503-1.64099,2.15503-.85095,0-1.58704-.68396-1.59802-2.06104,0-1.36597,.74707-2.13391,1.65198-2.13391,.95605,0,1.58704,.73596,1.58704,2.03992m-2.50305,.06201c-.0199,.87402,.30505,1.53503,.88403,1.53503,.60901,0,.88306-.651,.88306-1.55505,0-.83093-.24207-1.5249-.88306-1.5249-.57898,0-.88403,.68298-.88403,1.54492m.80005,4.96301l4.01599-7.06494h.58899l-4.01697,7.06494h-.58801Zm6.151-2.19702c0,1.44104-.75696,2.15503-1.63098,2.15503-.85095,0-1.58704-.68298-1.59705-2.04993,0-1.37805,.74609-2.14502,1.651-2.14502,.95605,0,1.57703,.73596,1.57703,2.03992m-2.50293,.06299c-.01001,.87207,.32593,1.53503,.89392,1.53503,.60901,0,.88306-.651,.88306-1.55603,0-.83093-.24207-1.52393-.88306-1.52393-.578,0-.89392,.68298-.89392,1.54492" style="fill: #d9518f;"></path><path d="M184.03455,188.33691c-.64307,0-1.16406-.521-1.16406-1.16394V1.16394c0-.64294,.521-1.16394,1.16406-1.16394,.64294,0,1.16394,.521,1.16394,1.16394V187.17297c0,.64294-.521,1.16394-1.16394,1.16394" style="fill: #d9518f;"></path><path d="M466.16772,188.33691c-.64307,0-1.16406-.521-1.16406-1.16394V1.16394c0-.64294,.521-1.16394,1.16406-1.16394,.64294,0,1.16394,.521,1.16394,1.16394V187.17297c0,.64294-.521,1.16394-1.16394,1.16394" style="fill: #d9518f;"></path><path d="M230.67297,155.66565c-11.6571,0-21.14111-9.48291-21.14111-21.13989v-12.49902c0-11.65808,9.48401-21.14197,21.14111-21.14197,11.65796,0,21.14099,9.48389,21.14099,21.14197v12.49902c0,11.65698-9.48303,21.13989-21.14099,21.13989" style="fill: #d9518f;"></path><path d="M230.67285,150.17053c-8.62708,0-15.64502-7.01807-15.64502-15.64502V26.92651c0-8.62708,7.01794-15.64502,15.64502-15.64502s15.6449,7.01794,15.6449,15.64502v107.599c0,8.62695-7.01794,15.64502-15.6449,15.64502m0-137.13611c-7.66003,0-13.89209,6.23206-13.89209,13.89209v107.599c0,7.65991,6.23206,13.89197,13.89209,13.89197s13.89197-6.23206,13.89197-13.89197V26.92651c0-7.66003-6.23206-13.89209-13.89197-13.89209" style="fill: #d9518f;"></path><path d="M215.52332,177.88708v-.9469l1.20898-1.1731c2.90894-2.76892,4.2229-4.24097,4.24097-5.95898,0-1.15698-.56006-2.22595-2.26099-2.22595-1.03308,0-1.89197,.526-2.41797,.96399l-.49011-1.08496c.78809-.66602,1.91003-1.15808,3.224-1.15808,2.453,0,3.48706,1.68311,3.48706,3.31201,0,2.10303-1.52502,3.80298-3.92505,6.11609l-.91101,.84094v.03601h5.11707v1.27893h-7.27295Z" style="fill: #d9518f;"></path><path d="M231.31763,167.79309h-4.34607l-.43799,2.92603c.26294-.03394,.50806-.06995,.92896-.06995,.8761,0,1.75208,.19397,2.453,.61304,.89307,.50891,1.63,1.48999,1.63,2.92798,0,2.224-1.77002,3.89001-4.24097,3.89001-1.245,0-2.29602-.35107-2.83899-.70203l.38501-1.17407c.474,.28101,1.40295,.63208,2.43604,.63208,1.45496,0,2.69897-.94702,2.69897-2.47107-.01709-1.4729-.99805-2.52393-3.27698-2.52393-.64905,0-1.15601,.06995-1.57703,.12292l.73596-5.46692h5.45007v1.2959Z" style="fill: #d9518f;"></path><path d="M238.64722,169.70435c0,2.40002-1.26099,3.59204-2.73401,3.59204-1.41895,0-2.64502-1.14001-2.66296-3.43494,0-2.27905,1.24402-3.55811,2.75098-3.55811,1.59399,0,2.646,1.22607,2.646,3.401m-4.17004,.104c-.03601,1.4541,.50708,2.55811,1.47107,2.55811,1.01599,0,1.47302-1.08508,1.47302-2.59412,0-1.38293-.40308-2.54089-1.47302-2.54089-.96399,0-1.47107,1.14001-1.47107,2.5769m1.33105,8.27209l6.69495-11.7771h.98108l-6.69409,11.7771h-.98193Zm10.25195-3.66199c0,2.3999-1.26196,3.59192-2.71594,3.59192-1.42004,0-2.64697-1.14001-2.66406-3.41797,0-2.29602,1.24402-3.57495,2.7511-3.57495,1.59497,0,2.62891,1.22791,2.62891,3.401m-4.1709,.10388c-.01709,1.4541,.54395,2.55811,1.48999,2.55811,1.01599,0,1.47095-1.08508,1.47095-2.59204,0-1.38501-.40198-2.54102-1.47095-2.54102-.96411,0-1.48999,1.13806-1.48999,2.57495" style="fill: #d9518f;"></path><path d="M293.62512,155.66565c-11.65808,0-21.14111-9.48291-21.14111-21.13989v-32.68799c0-11.6571,9.48303-21.14111,21.14111-21.14111,11.65698,0,21.14099,9.48401,21.14099,21.14111v32.68799c0,11.65698-9.48401,21.13989-21.14099,21.13989" style="fill: #d9518f;"></path><path d="M293.62476,150.17053c-8.62708,0-15.64502-7.01807-15.64502-15.64502V26.92651c0-8.62708,7.01794-15.64502,15.64502-15.64502s15.646,7.01794,15.646,15.64502v107.599c0,8.62695-7.01904,15.64502-15.646,15.64502m0-137.13611c-7.66003,0-13.89209,6.23206-13.89209,13.89209v107.599c0,7.65991,6.23206,13.89197,13.89209,13.89197,7.66089,0,13.89294-6.23206,13.89294-13.89197V26.92651c0-7.66003-6.23206-13.89209-13.89294-13.89209" style="fill: #d9518f;"></path><path d="M285.27478,167.79309h-4.34607l-.43799,2.92603c.26294-.03394,.50806-.06995,.92896-.06995,.8761,0,1.75208,.19397,2.453,.61304,.89307,.50891,1.63,1.48999,1.63,2.92798,0,2.224-1.77002,3.89001-4.24097,3.89001-1.245,0-2.29602-.35107-2.83899-.70203l.38501-1.17407c.474,.28101,1.40198,.63208,2.43604,.63208,1.45496,0,2.69897-.94702,2.69897-2.47107-.01709-1.4729-.99805-2.52393-3.27698-2.52393-.64905,0-1.15601,.06995-1.578,.12292l.73694-5.46692h5.45007v1.2959Z" style="fill: #d9518f;"></path><path d="M295.04114,172.06909c0,3.87292-1.43799,6.01196-3.96094,6.01196-2.22595,0-3.73303-2.08606-3.76807-5.85498,0-3.82007,1.64709-5.92297,3.96106-5.92297,2.40002,0,3.76794,2.13892,3.76794,5.76599m-6.18689,.1759c0,2.96106,.91199,4.64404,2.31299,4.64404,1.5769,0,2.33093-1.84094,2.33093-4.75,0-2.80298-.71802-4.64404-2.31396-4.64404-1.349,0-2.32996,1.64709-2.32996,4.75" style="fill: #d9518f;"></path><path d="M301.59912,169.70435c0,2.40002-1.26099,3.59204-2.73401,3.59204-1.41895,0-2.64502-1.14001-2.66296-3.43494,0-2.27905,1.24402-3.55811,2.75098-3.55811,1.59399,0,2.646,1.22607,2.646,3.401m-4.17102,.104c-.03503,1.4541,.50806,2.55811,1.47205,2.55811,1.01599,0,1.47302-1.08508,1.47302-2.59412,0-1.38293-.40308-2.54089-1.47302-2.54089-.96399,0-1.47205,1.14001-1.47205,2.5769m1.33301,8.27209l6.69397-11.7771h.98108l-6.69409,11.7771h-.98096Zm10.25098-3.66199c0,2.3999-1.26196,3.59192-2.71594,3.59192-1.42004,0-2.64697-1.14001-2.66406-3.41797,0-2.29602,1.24402-3.57495,2.7511-3.57495,1.59497,0,2.62891,1.22791,2.62891,3.401m-4.1709,.10388c-.01709,1.4541,.54395,2.55811,1.48999,2.55811,1.01599,0,1.47095-1.08508,1.47095-2.59204,0-1.38501-.40198-2.54102-1.47095-2.54102-.96411,0-1.48999,1.13806-1.48999,2.57495" style="fill: #d9518f;"></path><path d="M356.57715,155.66565c-11.6571,0-21.14111-9.48291-21.14111-21.13989V68.23376c0-11.6571,9.48401-21.14111,21.14111-21.14111,11.65796,0,21.14099,9.48401,21.14099,21.14111v66.29199c0,11.65698-9.48303,21.13989-21.14099,21.13989" style="fill: #d9518f;"></path><path d="M356.57751,150.17053c-8.62708,0-15.64612-7.01807-15.64612-15.64502V26.92651c0-8.62708,7.01904-15.64502,15.64612-15.64502s15.6449,7.01794,15.6449,15.64502v107.599c0,8.62695-7.01794,15.64502-15.6449,15.64502m0-137.13611c-7.66101,0-13.89307,6.23206-13.89307,13.89209v107.599c0,7.65991,6.23206,13.89197,13.89307,13.89197,7.65991,0,13.89197-6.23206,13.89197-13.89197V26.92651c0-7.66003-6.23206-13.89209-13.89197-13.89209" style="fill: #d9518f;"></path><polygon points="348.82251 166.49683 348.82251 167.51184 343.86243 177.88684 342.26843 177.88684 347.21045 167.80994 347.21045 167.77588 341.63745 167.77588 341.63745 166.49683 348.82251 166.49683" style="fill: #d9518f;"></polygon><path d="M357.22131,167.79309h-4.34607l-.43799,2.92603c.26294-.03394,.50806-.06995,.92896-.06995,.8761,0,1.75208,.19397,2.453,.61304,.89307,.50891,1.63,1.48999,1.63,2.92798,0,2.224-1.77002,3.89001-4.24097,3.89001-1.245,0-2.29602-.35107-2.83899-.70203l.38501-1.17407c.474,.28101,1.40295,.63208,2.43604,.63208,1.45496,0,2.69897-.94702,2.69897-2.47107-.01709-1.4729-.99805-2.52393-3.27698-2.52393-.64905,0-1.15601,.06995-1.57703,.12292l.73596-5.46692h5.45007v1.2959Z" style="fill: #d9518f;"></path><path d="M364.55103,169.70435c0,2.40002-1.26099,3.59204-2.73401,3.59204-1.42004,0-2.64502-1.14001-2.66296-3.43494,0-2.27905,1.24292-3.55811,2.75098-3.55811,1.59399,0,2.646,1.22607,2.646,3.401m-4.17102,.104c-.03503,1.4541,.50806,2.55811,1.47205,2.55811,1.01599,0,1.47302-1.08508,1.47302-2.59412,0-1.38293-.40405-2.54089-1.47302-2.54089-.96399,0-1.47205,1.14001-1.47205,2.5769m1.33203,8.27209l6.69495-11.7771h.98108l-6.69409,11.7771h-.98193Zm10.25195-3.66199c0,2.3999-1.26196,3.59192-2.71594,3.59192-1.42004,0-2.64697-1.14001-2.66406-3.41797,0-2.29602,1.24402-3.57495,2.7511-3.57495,1.59497,0,2.62891,1.22791,2.62891,3.401m-4.1709,.10388c-.01709,1.4541,.54395,2.55811,1.48999,2.55811,1.01599,0,1.47095-1.08508,1.47095-2.59204,0-1.38501-.40198-2.54102-1.47095-2.54102-.96411,0-1.48999,1.13806-1.48999,2.57495" style="fill: #d9518f;"></path><polygon points="403.22998 167.93347 403.19495 167.93347 401.21497 169.00159 400.91687 167.82751 403.40491 166.49658 404.71887 166.49658 404.71887 177.88757 403.22998 177.88757 403.22998 167.93347" style="fill: #d9518f;"></polygon><path d="M416.44836,172.06909c0,3.87292-1.43799,6.01196-3.96094,6.01196-2.22595,0-3.73303-2.08606-3.76807-5.85498,0-3.82007,1.64709-5.92297,3.96106-5.92297,2.40002,0,3.76794,2.13892,3.76794,5.76599m-6.18689,.1759c0,2.96106,.91199,4.64404,2.31299,4.64404,1.5769,0,2.33093-1.84094,2.33093-4.75,0-2.80298-.71802-4.64404-2.31396-4.64404-1.349,0-2.32996,1.64709-2.32996,4.75" style="fill: #d9518f;"></path><path d="M425.44312,172.06909c0,3.87292-1.43799,6.01196-3.96094,6.01196-2.22595,0-3.73303-2.08606-3.76807-5.85498,0-3.82007,1.64709-5.92297,3.96106-5.92297,2.40002,0,3.76794,2.13892,3.76794,5.76599m-6.18689,.1759c0,2.96106,.91199,4.64404,2.31299,4.64404,1.5769,0,2.33093-1.84094,2.33093-4.75,0-2.80298-.71899-4.64404-2.31396-4.64404-1.349,0-2.32996,1.64709-2.32996,4.75" style="fill: #d9518f;"></path><path d="M432.0011,169.70435c0,2.40002-1.26099,3.59204-2.73401,3.59204-1.41895,0-2.64502-1.14001-2.66296-3.43494,0-2.27905,1.24402-3.55811,2.75098-3.55811,1.59399,0,2.646,1.22607,2.646,3.401m-4.17102,.104c-.03503,1.4541,.50806,2.55811,1.47205,2.55811,1.01599,0,1.47302-1.08508,1.47302-2.59412,0-1.38293-.40308-2.54089-1.47302-2.54089-.96399,0-1.47205,1.14001-1.47205,2.5769m1.33301,8.27209l6.69397-11.7771h.98108l-6.69409,11.7771h-.98096Zm10.25098-3.66199c0,2.3999-1.26196,3.59192-2.71594,3.59192-1.42004,0-2.64697-1.14001-2.66406-3.41797,0-2.29602,1.24402-3.57495,2.7511-3.57495,1.59497,0,2.62891,1.22791,2.62891,3.401m-4.1709,.10388c-.01709,1.4541,.54395,2.55811,1.48999,2.55811,1.01599,0,1.47095-1.08508,1.47095-2.59204,0-1.38501-.40198-2.54102-1.47095-2.54102-.96411,0-1.48999,1.13806-1.48999,2.57495" style="fill: #d9518f;"></path><path d="M419.52893,155.66565c-11.6571,0-21.14001-9.48291-21.14001-21.13989V26.92676c0-11.6571,9.48291-21.14111,21.14001-21.14111,11.65796,0,21.14099,9.48401,21.14099,21.14111v107.599c0,11.65698-9.48303,21.13989-21.14099,21.13989" style="fill: #d9518f;"></path><path d="M578.15601,185.92029c-50.59204,0-91.75208-41.15894-91.75208-91.75195S527.56396,2.41638,578.15601,2.41638c2.90491,0,5.25989,2.35498,5.25989,5.26001s-2.35498,5.26099-5.25989,5.26099c-44.79102,0-81.23206,36.43994-81.23206,81.23096s36.44104,81.23206,81.23206,81.23206,81.23193-36.44104,81.23193-81.23206c0-2.90503,2.35596-5.26001,5.26099-5.26001,2.90405,0,5.26001,2.35498,5.26001,5.26001,0,50.59302-41.16003,91.75195-91.75293,91.75195" style="fill: #d9518f;"></path><path d="M507.83008,95.04504c-.48401,0-.87708-.39197-.87708-.87695,0-1.76697,.06604-3.55798,.19702-5.323,.03601-.48303,.43396-.85095,.93994-.80896,.48206,.03601,.84399,.45593,.80811,.93896-.12708,1.72205-.19104,3.46899-.19104,5.19299,0,.48499-.39197,.87695-.87695,.87695" style="fill: #d9518f;"></path><path d="M593.8125,163.61523c-.40002,0-.76111-.27502-.854-.68201-.10803-.47205,.18799-.94104,.65991-1.04907,3.30908-.755,6.58899-1.76599,9.75208-3.00195,.45093-.17896,.95996,.04602,1.13599,.49695,.17603,.45203-.04602,.96008-.49707,1.13708-3.24292,1.26697-6.60791,2.30298-10.00098,3.0769-.06592,.01501-.13098,.02209-.19592,.02209m19.19397-7.5c-.30408,0-.599-.15808-.76099-.44104-.24207-.42004-.09607-.95496,.32397-1.19604,2.94397-1.68689,5.79004-3.60693,8.45898-5.70789,.38-.29907,.93298-.23303,1.23096,.14697,.29907,.38,.23401,.93201-.14697,1.23193-2.73596,2.15308-5.65393,4.12097-8.67102,5.84998-.13696,.078-.28699,.11609-.43494,.11609m16.198-12.74402c-.21606,0-.43298-.07898-.60205-.23999-.35193-.33301-.36694-.88806-.03394-1.23901,2.33594-2.46606,4.51001-5.125,6.46094-7.90405,.276-.396,.823-.49292,1.22107-.21301,.396,.27808,.49194,.82507,.21399,1.22107-2,2.84802-4.229,5.57397-6.62402,8.10095-.172,.18298-.40405,.27405-.63599,.27405m11.84595-16.875c-.13196,0-.26599-.03003-.39294-.09399-.43201-.21704-.60706-.74402-.38904-1.177,1.52405-3.03503,2.83398-6.20996,3.89307-9.43506,.15198-.46094,.646-.71399,1.10596-.55994,.46094,.15002,.71094,.646,.56006,1.10596-1.08508,3.30798-2.42908,6.56396-3.99304,9.677-.15405,.30603-.46301,.48303-.78406,.48303m6.43408-19.59399c-.04907,0-.09802-.005-.14807-.01306-.47803-.08093-.79797-.53394-.71692-1.01099,.56897-3.33801,.896-6.755,.96997-10.15796,.01099-.48303,.37097-.85303,.89697-.85706,.48303,.01099,.86694,.41101,.85706,.896-.07703,3.48804-.41211,6.99109-.99609,10.41309-.073,.42798-.44299,.72998-.86292,.72998m.45593-20.60498c-.43604,0-.81396-.32507-.86902-.76904-.41895-3.36902-1.09399-6.73499-2.00598-10.00403-.13-.46692,.14197-.94995,.60901-1.07996,.46497-.12598,.95007,.14197,1.07996,.60901,.93506,3.35193,1.62708,6.80396,2.05701,10.25903,.06006,.48096-.28101,.91797-.76196,.97791-.03601,.00403-.073,.00708-.10901,.00708m-138.39099-6.73999c-.06396,0-.12903-.00708-.19397-.021-.47205-.10706-.76904-.57605-.66199-1.0481,.76697-3.39893,1.79492-6.76892,3.05396-10.01501,.177-.4519,.68604-.67395,1.13599-.5,.45105,.17603,.67407,.68408,.5,1.13611-1.22998,3.16394-2.23193,6.44995-2.97998,9.76392-.09094,.40808-.45398,.68408-.854,.68408m132.85498-13.11304c-.33496,0-.65491-.19299-.80103-.51807-1.38293-3.09399-3.00989-6.11499-4.83594-8.98096-.26001-.40796-.14001-.94995,.26794-1.20996,.4071-.26001,.95007-.14099,1.21008,.26892,1.87292,2.93604,3.54102,6.03406,4.95898,9.20605,.198,.44202-.00098,.95996-.44299,1.15796-.11597,.052-.23804,.07605-.35706,.07605m-125.39795-6.10999c-.14697,0-.29602-.03699-.43298-.11499-.42102-.23901-.56799-.77502-.328-1.19604,1.71997-3.01904,3.68298-5.94104,5.83301-8.68701,.29993-.38196,.85193-.44995,1.23096-.15002,.38196,.29907,.448,.849,.15002,1.2301-2.099,2.67993-4.01306,5.53101-5.69006,8.47498-.16199,.28394-.45801,.44299-.76294,.44299m114.32495-11.26697c-.245,0-.48999-.10303-.66296-.3031-2.22095-2.56494-4.65295-4.98999-7.22595-7.20801-.36609-.31689-.4071-.87-.09106-1.23694,.31702-.36597,.86902-.40698,1.23706-.09204,2.63696,2.27307,5.12793,4.76001,7.40601,7.39001,.31592,.36499,.27698,.91907-.08911,1.23596-.16589,.14404-.37,.21411-.57397,.21411m-101.61194-4.96411c-.23206,0-.46301-.09094-.63501-.27197-.33398-.35095-.32104-.90601,.03003-1.23999,2.5249-2.401,5.24597-4.63501,8.08691-6.63904,.39404-.27795,.94104-.18396,1.22107,.21106,.27991,.396,.18494,.94299-.21106,1.22205-2.771,1.95496-5.42603,4.13293-7.88794,6.47693-.16907,.16101-.38708,.24097-.604,.24097m85.995-8.49292c-.16101,0-.323-.04297-.46802-.13599-2.87402-1.823-5.90198-3.44299-9-4.81909-.44299-.1969-.64197-.71497-.44604-1.15698,.198-.44202,.71399-.64197,1.15601-.44592,3.17798,1.40991,6.28308,3.073,9.22803,4.94092,.40906,.25903,.53101,.80103,.271,1.21008-.16699,.26294-.45105,.40698-.74097,.40698m-69.15002-3.38806c-.32104,0-.63-.1759-.78406-.48096-.2179-.43201-.04395-.95996,.38708-1.17798,3.10999-1.57007,6.35999-2.92004,9.65894-4.01306,.45801-.15002,.95703,.09705,1.10803,.55701,.15295,.46008-.09705,.95508-.55603,1.10803-3.21899,1.06604-6.38696,2.38196-9.41992,3.91296-.1261,.06409-.26208,.09399-.39404,.09399m50.30396-4.97595c-.078,0-.15601-.01099-.23499-.03198-3.27002-.90308-6.63696-1.56897-10.00891-1.98206-.48108-.05798-.82312-.49597-.76404-.97595,.05798-.47998,.495-.83606,.97595-.76404,3.45801,.422,6.91101,1.10608,10.26404,2.03198,.46704,.12805,.74097,.61108,.61194,1.07898-.10693,.38806-.45996,.64307-.84399,.64307m-30.7439-1.49707c-.41907,0-.78906-.3009-.86304-.72693-.08203-.47803,.23694-.93103,.71399-1.01404,3.42102-.59192,6.92493-.93494,10.41296-1.021,.50903,0,.88696,.37207,.89807,.85498,.01196,.48401-.37207,.88599-.85608,.89807-3.40198,.08301-6.81897,.41797-10.15503,.99597-.0509,.00903-.10095,.01294-.15088,.01294" style="fill: #d9518f;"></path><path d="M578.15601,165.37097c-.48511,0-.87708-.39197-.87708-.87695,0-.48401,.39197-.87598,.87708-.87598,1.73499,0,3.48291-.06506,5.19299-.19202,.4939-.04895,.90393,.32703,.93994,.80896,.03601,.48303-.32703,.90308-.80896,.93909-1.75403,.13098-3.54504,.1969-5.32397,.1969" style="fill: #d9518f;"></path><polygon points="535.2981 83.89978 535.2981 78.86389 560.41809 78.86389 541.14404 114.92578 536.28101 112.14685 551.38904 83.89978 535.2981 83.89978" style="fill: #d9518f;"></polygon><path d="M572.22656,83.89978l-1.38904,6.31006,2.71997-.11597c3.35706,0,6.08704,1.18591,8.19006,3.55994,2.104,2.37305,3.15491,5.25806,3.15491,8.65308,0,3.78296-1.177,6.82996-3.53101,9.146-2.35291,2.31494-5.43994,3.4729-9.26099,3.4729-4.24597,0-7.71802-1.54297-10.41895-4.63098l1.73596-5.09302c2.23804,3.125,4.97803,4.68811,8.22107,4.68811,2.00488,0,3.71191-.7041,5.12195-2.11304,1.40796-1.40796,2.11194-3.31799,2.11194-5.72998,0-2.41101-.73291-4.29309-2.19897-5.64404-1.46692-1.34998-3.31897-2.026-5.55701-2.026-2.23792,0-4.07202,.77197-5.49792,2.31604h-1.1001l3.64612-17.82898h15.28088v5.03589h-11.22888Z" style="fill: #d9518f;"></path><path d="M604.00452,86.21509c0,2.43103-.78101,4.42896-2.34509,5.99097-1.56201,1.56299-3.54993,2.34497-5.96191,2.34497-2.41101,0-4.40808-.77197-5.98999-2.31592-1.58301-1.54199-2.37305-3.521-2.37305-5.93311,0-2.41089,.79004-4.40796,2.37305-5.99097,1.58191-1.58203,3.56897-2.37292,5.96191-2.37292,2.39209,0,4.37903,.77295,5.96204,2.31494,1.58203,1.54407,2.37305,3.53101,2.37305,5.96204m-11.69202,.08691c0,1.02307,.30798,1.9491,.92603,2.77808,.61694,.83093,1.41797,1.245,2.40295,1.245,.98303,0,1.79297-.41406,2.43103-1.245,.63599-.82898,.95398-1.76501,.95398-2.80701s-.30908-1.98706-.92603-2.83606c-.61694-.8479-1.41797-1.27295-2.40295-1.27295-.98303,0-1.79309,.43298-2.43005,1.302-.63696,.86804-.95496,1.81396-.95496,2.83594m24.07898-6.91699l-18.86902,36.177-3.93701-1.90991,18.92798-36.177,3.87805,1.90991Zm6.42505,27.20508c0,2.43103-.78101,4.42798-2.34509,5.99097-1.56201,1.56299-3.55896,2.34399-5.98999,2.34399s-4.43799-.77197-6.02002-2.31494c-1.58301-1.54309-2.37292-3.53101-2.37292-5.96204s.79993-4.42798,2.40198-5.99097c1.60095-1.56299,3.59802-2.34399,5.99097-2.34399,2.39197,0,4.37903,.77197,5.96204,2.31494,1.58203,1.54407,2.37305,3.53101,2.37305,5.96204m-11.75,.08691c0,1.02307,.30798,1.9491,.9259,2.77905,.61707,.82996,1.43701,1.24402,2.45898,1.24402,1.02307,0,1.83411-.40503,2.43311-1.21497,.59692-.81104,.896-1.74609,.896-2.80811,0-1.06091-.29907-2.01599-.896-2.86499-.599-.849-1.39905-1.27393-2.40308-1.27393-1.00293,0-1.823,.43494-2.45996,1.30298-.63696,.86804-.95496,1.81396-.95496,2.83594" style="fill: #d9518f;"></path></g></g></svg>