<svg xmlns="http://www.w3.org/2000/svg" xmlns:xlink="http://www.w3.org/1999/xlink" id="_&#x5716;&#x5C64;_1" data-name="&#x5716;&#x5C64; 1" viewBox="0 0 283.0519 235.35596"><defs><clipPath id="clippath"><rect x=".00185" y=".00488" width="194.57996" height="178.18994" style="fill: none;"></rect></clipPath><clipPath id="clippath-1"><rect x=".00185" width="194.57495" height="178.19287" style="fill: none;"></rect></clipPath><clipPath id="clippath-2"><rect x="8.51186" y="22.64502" width="56.26001" height="49.06982" style="fill: none;"></rect></clipPath><clipPath id="clippath-3"><rect x="8.51186" y="22.64062" width="56.25598" height="49.07422" style="fill: none;"></rect></clipPath><clipPath id="clippath-4"><rect x="18.48183" y="32.78467" width="27.45007" height="28.3501" style="fill: none;"></rect></clipPath><clipPath id="clippath-5"><rect x="18.48183" y="32.78174" width="27.44702" height="28.35303" style="fill: none;"></rect></clipPath><clipPath id="clippath-6"><rect x="25.66188" y="43.7251" width="11.13" height="12.02979" style="fill: none;"></rect></clipPath><clipPath id="clippath-7"><rect x="25.66481" y="43.72168" width="11.12695" height="12.0332" style="fill: none;"></rect></clipPath><clipPath id="clippath-8"><rect x="39.0519" y="41.25488" width=".72998" height=".58984" style="fill: none;"></rect></clipPath><clipPath id="clippath-9"><rect x="39.0519" y="41.25586" width=".72595" height=".5918" style="fill: none;"></rect></clipPath><clipPath id="clippath-10"><rect x="59.54189" y="33.56494" width="1.5" height="1.43018" style="fill: none;"></rect></clipPath><clipPath id="clippath-11"><rect x="59.53981" y="33.56201" width="1.49695" height="1.43506" style="fill: none;"></rect></clipPath><clipPath id="clippath-12"><rect x="55.09181" y="53.81494" width="2.14001" height="2.21973" style="fill: none;"></rect></clipPath><clipPath id="clippath-13"><rect x="55.09279" y="53.81787" width="2.13403" height="2.21484" style="fill: none;"></rect></clipPath><clipPath id="clippath-14"><rect x="67.78188" y="51.88477" width="1.77002" height="1.76025" style="fill: none;"></rect></clipPath><clipPath id="clippath-15"><rect x="67.7809" y="51.88184" width="1.76599" height="1.75684" style="fill: none;"></rect></clipPath><clipPath id="clippath-16"><rect x="117.5818" y="42.7749" width="2.20007" height="2.27979" style="fill: none;"></rect></clipPath><clipPath id="clippath-17"><rect x="117.58083" y="42.771" width="2.20605" height="2.27783" style="fill: none;"></rect></clipPath><clipPath id="clippath-18"><rect x="146.4518" y="51.4248" width="1.04004" height="1.08008" style="fill: none;"></rect></clipPath><clipPath id="clippath-19"><rect x="146.4529" y="51.42383" width="1.04004" height="1.07617" style="fill: none;"></rect></clipPath><clipPath id="clippath-20"><rect x="99.4518" y="75.18506" width="1.57007" height="1.56982" style="fill: none;"></rect></clipPath><clipPath id="clippath-21"><rect x="99.45082" y="75.18604" width="1.56897" height="1.56885" style="fill: none;"></rect></clipPath><clipPath id="clippath-22"><rect x="113.3019" y="80.45508" width="169.75" height="154.8999" style="fill: none;"></rect></clipPath><clipPath id="clippath-23"><rect x="113.30385" y="80.45801" width="169.74597" height="154.89795" style="fill: none;"></rect></clipPath></defs><path d="M193.6631,2.34912c-9.39307,2.59229-18.54712,.36133-27.90405-1.09375-8.66406-1.34717-17.48901-1.67725-26.20605-.63721-7.41394,.88428-14.76489,2.62939-21.66992,5.49316-3.15503,1.30908-6.14307,2.97412-9.07703,4.71191-2.41699,1.43213-4.57202,3.08789-6.67102,4.90527-.36194-.03906-.72192-.08008-1.08301-.11426-1.46399-.13867-2.98401-.26367-4.52295-.37207,1.14294-1.06006,2.38501-2.04004,3.71204-2.92871,.38599-.25928,.60193-.92822,.16394-1.27393-3.19104-2.51807-8.77795-1.69043-12.35303-.42627-1.98096,.70117-3.43298,2.07324-4.53503,3.75732-.18994,.28857-.36292,.58691-.52991,.88574-1.45398,.15283-2.88,.36426-4.27197,.66699-1.83606,.10303-3.68005,.26709-5.53711,.5249-1.40295,.19531-2.79993,.43018-4.19397,.68408-1.05396,.17822-2.10693,.37109-3.15295,.58984-1.37708,.28809-2.74097,.62842-4.08704,1.02002-5.12305,1.34033-10.13403,3.08203-14.94995,5.24316C29.67299,31.67041,15.37306,44.71826,7.45107,61.34912c-16.90405,35.48535-4.36597,81.91943,30.72192,102.6333,9.63208,5.68701,20.07703,10.14209,31.05005,12.44189,10.83899,2.27002,22.69299,2.7251,33.29602-.86182,4.85498-1.64209,9.27502-4.02637,13.28894-6.96924,.16003-.1167,1.07104,.47803,1.22205,.55713,.62903,.32617,1.49805,.5542,2.16699,.78809,4.56299,1.5957,9.20605,1.45166,13.83801,.46191,2.04895-.43896,4.10205-.94482,6.11096-1.53809,2.68909-.79297,5.18506-1.81885,7.77502-2.86279,2.65503-1.06934,5.23499-2.32422,7.66895-3.83008,16.24207-10.05127,27.73401-28.41211,30.93909-46.21484,3.39001-18.81641,.13196-38.6084-8.50598-55.93018-1.81104-3.63281-3.94409-7.10107-6.49304-10.25928-4.39404-5.44385-9.349-9.8418-14.73999-14.08984-2.04004-1.60693-6.38098-4.53516-8.51501-5.72412-.18896-.10498-.12598-.3877,.08997-.40674,3.38403-.30127,6.73999-.81494,10.02209-1.63916,.46997-.11768,.93896-.2417,1.40491-.37402,3.92908-1.10693,7.66602-3.07568,11.47107-4.53711,3.50598-1.34766,6.86292-3.05371,10.052-5.03955,5.94495-3.70117,11.82495-8.36523,14.23193-15.11328,.18103-.51074-.57898-.87402-.88391-.49219" style="fill: #fff;"></path><g style="opacity: .8;"><g style="clip-path: url(#clippath);"><g style="clip-path: url(#clippath-1);"><path d="M193.66322,2.34863c-9.39404,2.59229-18.54602,.36133-27.90393-1.09375-8.66406-1.34619-17.48901-1.67627-26.20703-.63623-7.41309,.8833-14.76404,2.62793-21.66907,5.49316-3.15491,1.30811-6.14392,2.97412-9.078,4.71191-2.41589,1.43213-4.57092,3.08887-6.66992,4.9043-.36206-.03906-.72205-.0791-1.08301-.11426-1.46399-.13818-2.98499-.26221-4.52307-.37109,1.14209-1.06006,2.38501-2.04102,3.71204-2.92969,.38696-.25928,.60205-.92725,.16406-1.27295-3.19104-2.51807-8.77905-1.69141-12.35303-.42627-1.98108,.7002-3.43298,2.07324-4.53503,3.75684-.18994,.28809-.36304,.58643-.53003,.88721-1.45398,.15088-2.88,.36377-4.27197,.66602-1.83594,.10205-3.67993,.26611-5.53699,.52393-1.40295,.19482-2.80005,.43018-4.19397,.68506-1.05505,.17822-2.10706,.37109-3.15405,.58887-1.37695,.28809-2.73999,.62988-4.08594,1.021-5.12402,1.34033-10.13403,3.08105-14.95007,5.24316C29.67323,31.66992,15.37319,44.71777,7.45021,61.34863c-16.90295,35.48633-4.36499,81.91992,30.72302,102.63428,9.63196,5.68604,20.07703,10.14111,31.05005,12.44092,10.83801,2.27002,22.69299,2.7251,33.2959-.86084,4.8551-1.64209,9.27502-4.02637,13.28906-6.96924,.15894-.11719,1.07104,.47705,1.22095,.55615,.62903,.32666,1.49902,.55469,2.16699,.78906,4.56311,1.59473,9.20703,1.45068,13.83911,.46094,2.04895-.43799,4.10193-.94434,6.11096-1.53711,2.68896-.79395,5.18396-1.81982,7.77502-2.86279,2.65393-1.06934,5.23499-2.32422,7.66797-3.83105,16.24304-10.05029,27.73401-28.41211,30.93994-46.21533,3.39001-18.81592,.13208-38.60791-8.50598-55.92969-1.81091-3.63232-3.94397-7.10107-6.49292-10.2583-4.39404-5.44385-9.349-9.8418-14.74011-14.09082-2.03992-1.60693-6.38196-4.53516-8.51489-5.72314-.18909-.10596-.1261-.38867,.08997-.40771,3.38293-.30029,6.73999-.81494,10.02197-1.63916,.46997-.11816,.93799-.24219,1.40503-.37305,3.92896-1.10791,7.66602-3.07617,11.46997-4.53809,3.50696-1.34668,6.86401-3.05371,10.052-5.03809,5.94604-3.70166,11.82605-8.36572,14.23303-15.11475,.18103-.51025-.57898-.87305-.88403-.49219m-99.07104,14.88721c1.87012,.03174,3.73608,.09473,5.59302,.23682-4.68298,4.4292-8.53198,10.11426-10.66492,16.18213-.0481,.13525-.09509,.27393-.14307,.41406-.10693-1.70312-.07397-3.44092,.09705-5.21729,.43396-4.51855,2.31897-8.39258,5.11792-11.61572m-5.64099-5.07422c2.38501-.82373,6.09204-1.55762,8.81104-.69385-1.73193,1.4458-3.86499,2.43506-6.07996,2.83301-1.35901,.24316-4.28809,.0249-4.91907-.86719,.61304-.54004,1.33203-.97656,2.18799-1.27197m-3.078,2.23193c.49011,.67041,1.38,1.13623,2.05908,1.39844,1.73401,.66992,3.75,.62402,5.68994,.11279-3.25696,3.52686-5.66101,7.78711-6.36597,12.64697-.47998,3.31006-.25696,6.93799,.51501,10.18994,.271,1.14014,.66699,2.41992,1.20593,3.64111-1.19897-.09082-2.396-.229-3.51892-.47217-1.10107-1.41992-1.96704-3.01904-2.50208-4.36572-1.79199-4.51123-1.69397-9.51123-.745-14.16406,.59509-2.91504,1.78906-6.59326,3.66199-8.9873m61.73901,18.15723c3.776,2.4248,7.29102,5.56104,10.55298,8.40479,12.83008,11.18018,20.94507,26.75635,24.08301,43.47021,1.151,6.12598,1.61707,12.38525,1.328,18.61279-.81494,17.59229-9.05591,36.15137-21.87891,49.16602-6.8031,6.9043-15.13,11.31836-24.58606,13.83008-2.86499,.76025-5.81799,1.47998-8.79602,1.78613-2.88391,.29688-6.06799,.33984-8.79797-.71924-.22595-.08789-.45105-.18066-.672-.28076-.15894-.06982-.31494-.14404-.46997-.21924,3.64001-3.01953,6.91492-6.51758,9.83899-10.35059,5.75598-7.54395,10.67993-16.2583,12.854-25.55713,2.70703-11.54492,3.57397-23.50684,2.23096-35.36328-1.24792-11.00293-5.23694-21.97266-11.81396-31.21582-2.80896-3.94775-6.16406-7.53613-9.92896-10.65771,.10791,.19971,.13794,.42871,.13196,.65967,.06702,.05029,.13794,.09229,.203,.14404,1.22498,.98291,2.146,2.39795,3.06897,3.64014,2.17004,2.91992,4.07605,5.69482,5.70605,8.95605,1.64893,3.29883,3.07202,6.70068,4.26501,10.17773,4.72498,13.78516,5.84998,28.94824,3.901,43.31934-1.49902,11.06299-4.89001,22-10.79102,31.53076-2.83105,4.57227-6.625,8.47998-10.61304,12.09619-3.81799,3.46191-7.45605,5.84277-12.46997,8.08008-1.10205,.4917-2.26709,.83252-3.41003,1.22266-15.87097,5.41602-37.86096,.43408-52.58594-6.30469-13.67603-6.25928-22.64905-15.55908-31.60205-27.48145-1.91602-2.55176-3.66406-5.2207-5.23303-7.98486C2.23622,114.09668-.85679,93.72998,4.3622,74.44092c4.87305-18.00732,16.56201-33.47705,32.70605-43.61914,9.82495-6.17285,20.83398-10.63086,32.39294-12.40283,2.29309-.35205,8.5-1.17627,12.33105-1.17139,.03198-.07471,.06799-.146,.09998-.2207,.078,.00488,.15601,.00977,.23401,.01318-.84094,2.00488-1.36499,4.15771-1.80798,6.28369-1.229,5.90283-.93896,11.94385,2.01294,17.31396,.03308,.05908,.0741,.12598,.10706,.18604-1.26501-.71387-2.24902-1.74707-2.74902-3.26904-.12402-.37695-.33801-.11865-.198,.27295,1.11401,3.1333,2.89697,5.12939,6.59106,5.62109,2.95593,.39404,5.94495,.4751,8.92297,.44922,.61096-.00439,1.22095-.021,1.83093-.03613,.43604-.01221,.90698,.00879,1.34802-.08398,.14307-.03027,.50696-.06592,.39502-.23779-.06104-.09521-.31702-.13037-.41895-.15918-.8031-.229-1.64209-.37305-2.46509-.51025-1.276-.21387-2.84497-.27686-4.49902-.35791-.06091-.15674-.12793-.31299-.18396-.4707,.55798-2.2334,2.49597-4.521,3.93005-5.79932,3.29895-2.94287,7.69299-4.01709,11.85498-5.09277,8.65393-2.2373,17.38904-1.66016,26.23804-1.34814,3.1709,.11084,7.70496-.77588,10.53894,.51807,1.37805,.62891,2.724,1.38721,4.03796,2.23096m29.6001-15.40723c-3.66809,2.10107-7.52405,3.46826-11.4071,5.08008-4.53699,1.8833-8.67993,3.47217-13.56091,4.25732-9.47009,1.521-18.79907,.97998-28.33008,.99072-8.29395,.00928-16.46191,.76025-24.19702,4.03809-3.07495,1.30127-5.78894,3.22314-7.70398,5.98389-.43298,.62598-.88892,1.33838-1.26892,2.09619,.28198-.88818,.61902-1.75781,1.11694-2.6001,1.00696-1.70312,2.34497-3.23193,3.71704-4.65186,2.77002-2.86816,5.95593-5.47998,9.32996-7.59717,1.93506-1.21387,3.95898-2.21094,6.04407-3.04688,.30591-.08105,.60901-.17822,.90698-.28809,4.39795-1.50977,9.22803,.72119,13.44592,1.97217,2.94299,.87305,8.46204,3.06689,11.18799,.83105,.13403-.11035,.05005-.33008-.099-.37305-2.18994-.62793-4.71289-.20605-7.00293-.70996-2.34497-.51318-4.63904-1.24707-6.94897-1.89209-1.98804-.55518-4.20801-1.19287-6.36206-1.25732,5.14807-1.41699,10.53699-2.10156,15.83801-2.6499,.27197-.02881,.54407-.0498,.81506-.07666,7.13489,.64355,14.35291,2.41602,21.14294,4.67969,.13196,.04395,.224-.16602,.09595-.22607-3.43298-1.63672-7.02698-3.04785-10.70398-4.02393-2.04102-.54199-4.14697-.74072-6.26001-.80566,5.46106-.42725,10.93408-.67725,16.40503-.98047,3.02197,.40234,5.797,.55127,8.75598,1.41943,2.33508,.68457,4.67102,1.51074,7.12598,1.4126,.20605-.00781,.224-.27002,.047-.34082-2.75891-1.09814-5.7489-1.93311-8.6499-2.5752-.43103-.09473-.87708-.19287-1.33203-.28271,.36902-.02588,.73901-.04785,1.10803-.07422,4.23694-.30908,8.3949-.78564,12.49695-1.93896,3.41699-.95898,7.63696-2.33496,10.34802-4.68311,.19604-.16895-.01501-.46875-.24097-.41357-2.38501,.58301-4.60999,1.81689-6.94604,2.604-2.05603,.69092-4.13306,1.31787-6.25098,1.78662-3.92004,.86621-7.94202,1.17041-11.95508,1.39795,4.854-1.51562,9.36304-3.93896,13.04602-7.59766,.27307-.271-.14001-.6792-.42102-.41992-4.66394,4.29492-10.87097,6.75195-17.12891,8.2666-5.81702,.32422-11.64404,.5874-17.45105,1.06641,2.59106-.74023,5.13-1.67334,7.52197-2.65527,2.76904-1.13672,5.35999-2.62402,7.96399-4.08789,2.13904-1.20215,4.41602-2.05615,6.06104-3.9502,.25-.2876-.13599-.68164-.42102-.4209-1.74597,1.60303-4.12695,2.31494-6.18494,3.43896-2.724,1.48828-5.42505,2.96094-8.31702,4.1123-3.68799,1.4668-7.62805,3.02002-11.58203,4.0376-2.13098,.23096-4.26001,.49316-6.38196,.81836-2.70398,.41406-5.33801,.9248-7.90002,1.59082,1.20398-.98389,2.34497-2.0332,3.453-2.95508,3.98901-3.31885,8.37903-6.50293,13.44299-7.89893,.39905-.11084,.22998-.72998-.17102-.62207-8.16895,2.20996-14.30701,8.41309-21.271,12.86328-4.15393,1.47461-8.08801,3.49365-11.76294,6.35693-3.51404,2.73877-8.95898,7.09375-10.48901,12.03369-.05701-.271-.10706-.54199-.15503-.81494,.38403-1.85986,1.17395-3.72168,1.83203-5.12891,1.71094-3.65576,3.90698-7.20605,6.55701-10.25195,5.58191-6.41699,12.73694-11.21387,20.60193-14.35693C134.87319,1.19287,152.15529,.48779,169.09828,3.49658c8.078,1.43408,16.43994,3.2124,24.11292-.28857-3.23901,6.32764-10.06091,10.53564-15.9989,13.93555" style="fill: #e4877c;"></path></g></g></g><g style="opacity: .8;"><g style="clip-path: url(#clippath-2);"><g style="clip-path: url(#clippath-3);"><path d="M64.68373,22.64258c-13.32104,2.04639-25.6051,7.03223-35.71802,16.20117-9.51501,8.62598-17.20801,19.96191-20.43799,32.47217-.10608,.40967,.48999,.56494,.62793,.17285,4.26697-12.21777,10.85999-23.21289,20.86401-31.5918,9.83997-8.24219,22.11499-14.47607,34.69897-17.12793,.08203-.01807,.04602-.13818-.03491-.12646" style="fill: #e4877c;"></path></g></g></g><g style="opacity: .8;"><g style="clip-path: url(#clippath-4);"><g style="clip-path: url(#clippath-5);"><path d="M45.54115,32.82031c-11.08606,6.14648-22.58203,15.76904-27.04211,28.0752-.08093,.22217,.23706,.32129,.35608,.15088,3.76392-5.35986,6.99292-10.78906,11.64099-15.49805,4.60498-4.66699,9.65601-8.93701,15.30798-12.27783,.28796-.1709,.03101-.61279-.26294-.4502" style="fill: #e4877c;"></path></g></g></g><g style="opacity: .8;"><g style="clip-path: url(#clippath-6);"><g style="clip-path: url(#clippath-7);"><path d="M36.27211,43.77197c-2.23401,1.19434-4.125,3.45947-5.82605,5.30713-1.77307,1.92725-3.29797,4.06494-4.73096,6.25488-.21204,.32324,.28394,.58643,.505,.29541,1.62891-2.13037,3.401-4.13721,5.22791-6.09814,1.65808-1.77783,3.776-3.29297,5.25806-5.19727,.23901-.30664-.05103-.76562-.43396-.56201" style="fill: #e4877c;"></path></g></g></g><g style="opacity: .8;"><g style="clip-path: url(#clippath-8);"><g style="clip-path: url(#clippath-9);"><path d="M39.61452,41.33398l-.18701-.06299c-.18311-.06055-.37207,.10107-.37207,.2832s.18896,.34326,.37207,.28223l.18701-.06299c.09192-.03027,.172-.11621,.16797-.21924-.00598-.10498-.06897-.18701-.16797-.22021" style="fill: #e4877c;"></path></g></g></g><g style="opacity: .8;"><g style="clip-path: url(#clippath-10);"><g style="clip-path: url(#clippath-11);"><path d="M60.7654,33.77002l-.14502-.11182-.17102-.07178c-.09607-.0293-.19104-.03418-.28601-.01318-.06396,.00098-.12402,.01709-.18005,.0498l-.15894,.09229-.12805,.12793-.09192,.1582c-.04504,.08496-.06506,.17676-.06104,.27588l.02502,.18994,.073,.1709,.11096,.14502,.14502,.11182,.17102,.07227c.09497,.02979,.18994,.03418,.28491,.01221,.06604,0,.1261-.01611,.18201-.04736,.08801-.02881,.16504-.0791,.2301-.14893l.099-.08984c.05688-.0542,.09692-.11621,.12195-.18896,.03601-.07129,.05298-.14697,.05005-.22705-.00708-.15186-.05701-.31006-.172-.41602l-.099-.09131Z" style="fill: #e4877c;"></path></g></g></g><g style="opacity: .8;"><g style="clip-path: url(#clippath-12);"><g style="clip-path: url(#clippath-13);"><path d="M56.15895,53.81982c-1.42407,0-1.427,2.21436,0,2.21436,1.42395,0,1.42688-2.21436,0-2.21436" style="fill: #e4877c;"></path></g></g></g><g style="opacity: .8;"><g style="clip-path: url(#clippath-14);"><g style="clip-path: url(#clippath-15);"><path d="M69.28566,52.14209l-.1781-.13672c-.13696-.0791-.28491-.12012-.44299-.12012-.12097-.00488-.23401,.021-.33899,.0752-.10901,.03564-.203,.09668-.28296,.18164-.08606,.08008-.146,.17432-.18201,.2832-.05396,.10498-.07996,.2168-.07495,.33887,.00989,.07812,.021,.15625,.03088,.23438,.04211,.14795,.11707,.27783,.22607,.38672l.17798,.13721c.13696,.08008,.28503,.11963,.44397,.11963,.12109,.00537,.23401-.01953,.33801-.07568,.10901-.03418,.203-.09521,.28308-.18115,.08496-.0791,.146-.17383,.18188-.28271,.05505-.104,.08008-.21729,.07507-.33838-.01099-.07764-.02002-.15576-.03101-.23389-.04199-.14893-.11804-.27783-.22595-.38818" style="fill: #e4877c;"></path></g></g></g><g style="opacity: .8;"><g style="clip-path: url(#clippath-16);"><g style="clip-path: url(#clippath-17);"><path d="M118.68447,42.77441c-1.46606,0-1.46912,2.27832,0,2.27832,1.46594,0,1.46899-2.27832,0-2.27832" style="fill: #e4877c;"></path></g></g></g><g style="opacity: .8;"><g style="clip-path: url(#clippath-18);"><g style="clip-path: url(#clippath-19);"><path d="M146.52516,52.23975l.13391,.14648,.11499,.06689c.06201,.03271,.12903,.04785,.20007,.04492,.09302-.00391,.18091-.02783,.26392-.07129l.146-.13379,.06604-.11475c.03296-.06201,.04797-.12939,.04504-.20117l-.01807-.13818-.05298-.12402c-.04602-.07861-.10803-.14062-.18604-.18701l-.08301-.05664c-.0979-.06641-.26196-.06641-.36096,0l-.08301,.05664-.146,.13428-.06592,.11475c-.03308,.06104-.0481,.12891-.04504,.2002l.01794,.1377,.0531,.125Z" style="fill: #e4877c;"></path></g></g></g><g style="opacity: .8;"><g style="clip-path: url(#clippath-20);"><g style="clip-path: url(#clippath-21);"><path d="M100.78676,75.41846c-.1521-.14062-.34106-.22852-.552-.22852-.10803-.00439-.20801,.01758-.302,.06787-.09607,.03076-.18005,.08496-.2511,.16064-.07593,.07129-.13,.1543-.16101,.25146-.04895,.09277-.0719,.19385-.06689,.30078l.02698,.20801c.03699,.13184,.104,.24805,.20093,.34521,.15308,.14062,.34106,.22754,.5531,.22754,.10693,.00537,.20789-.01758,.3009-.06689,.09705-.03076,.18005-.08496,.2511-.16064,.07593-.07129,.12988-.15527,.16089-.25146,.05005-.09375,.07202-.19385,.06799-.30176-.00891-.06885-.01892-.13818-.02795-.20801-.03699-.13184-.104-.24609-.20093-.34424" style="fill: #e4877c;"></path></g></g></g><path d="M114.7737,137.91406c4.49097-16.58252,16.52295-30.61865,29.80798-41.04053,13.35095-10.47217,28.81091-16.07227,45.89697-16.39209,11.77698-.22021,23.77502,1.09473,30.67395,12.09375,2.34607,3.74121,2.75305,8.02832,6.22302,11.01318,5.27905,4.54199,12.896,4.94189,19.27808,6.95996,8.66895,2.74414,17.86194,6.229,24.13489,13.12109,9.68811,10.64404,13.89709,26.48389,11.6781,40.54883-2.36499,14.98291-10.41309,29.41992-20.59009,40.51514-19.30298,21.0459-49.271,33.22998-77.84302,30.14795-8.77795-.94824-17.06799-3.34717-24.73389-7.79199-11.61804-6.73584-22.44202-17.89014-28.87207-29.68994-1.93701-3.55615-2.83093-7.56494-3.86499-11.44727,.17297,.27295,.34595,.54492,.51904,.81836-9.34106-14.71338-17.13501-31.03613-12.30798-48.85645" style="fill: #fff;"></path><g style="opacity: .8;"><g style="clip-path: url(#clippath-22);"><g style="clip-path: url(#clippath-23);"><path d="M127.08241,186.77002c-.17297-.27295-.34595-.54492-.51892-.81787,1.03296,3.88281,1.92798,7.8916,3.86389,11.44678,6.42908,11.7998,17.255,22.95508,28.87305,29.68994,7.66406,4.44482,15.95605,6.84424,24.73303,7.79199,28.57202,3.08301,58.53894-9.10205,77.84302-30.14697,10.177-11.09619,18.22595-25.53174,20.58997-40.51514,2.21899-14.06592-1.98999-29.90479-11.67896-40.54883-6.27209-6.89209-15.46509-10.37695-24.13403-13.12109-6.38196-2.01904-13.99902-2.41895-19.27795-6.95996-3.47009-2.98486-3.87708-7.27295-6.224-11.01416-6.89807-10.99902-18.89502-12.31396-30.6731-12.09375-17.08594,.31982-32.54602,5.9209-45.896,16.39307-13.28601,10.4209-25.31702,24.45801-29.80896,41.04102-4.82703,17.81982,2.96802,34.14209,12.30896,48.85498m124.68604-72.83398c-4.19495-.32715-8.48999-.00391-12.50403,.54785-3.73096,.51221-8.09692,1.42578-11.72998-.02002-4.40796-1.75488-4.63904-6.74902-5.28894-10.77881-.28308-1.76221-.53601-3.60107-.86108-5.43115,3.026,5.78418,8.23401,9.29492,14.48108,11.0459,5.39197,1.51123,10.70593,2.77393,15.90295,4.63623m-101.927,103.56201c11.59595,6.11963,25.87,7.12891,38.63696,4.35791,9.58301-2.0791,18.72607-5.81982,27.61804-9.88184,8.35596-3.81738,16.60205-7.979,24.24695-13.09912,14.54907-9.74219,28.6261-23.15723,35.45911-39.58789,2.28992-5.50537,3.50989-11.45801,3.05396-17.33008,.41602,1.18408,.78503,2.38477,1.07495,3.61572,2.03308,8.61523,.97205,17.55713-1.68701,25.91309-8.49792,26.70801-31.95398,47.55713-58.245,56.07617-12.96094,4.20068-26.79993,5.52002-40.29602,3.51074-10.75696-1.604-21.19397-6.63086-29.86194-13.57471m-22.06494-34.19238c-1.80603-3.9248-4.72107-7.0957-6.84802-10.81787-2.11108-3.69678-3.43799-7.75195-4.41199-11.87988-.80408-3.40088-1.45605-6.83008-1.651-10.29785,.2489-7.90039,2.70996-15.62939,6.396-22.58301,7.62793-14.39209,19.89001-26.89209,33.81592-35.28711,14.17798-8.54785,30.48901-11.41602,46.89905-9.79199,1.69897,.16895,3.44702,.4292,5.151,.85498,3.271,1.61621,6.24402,3.07422,8.84399,5.80078,.53394,.56006,1.01001,1.14697,1.448,1.75635,.79602,1.63281,1.32202,3.41895,1.70898,5.23975,.74402,3.48633,1.19006,7.04102,1.74805,10.56006,.48901,3.08301,1.34497,6.25488,3.97192,8.20605,5.151,3.8252,12.59399,1.21094,18.36401,.8501,6.73499-.42188,13.31909-.09619,19.04199,2.94971,1.58398,.96924,3.10706,2.0332,4.54309,3.19824,.06897,.06396,.13989,.12402,.20898,.18896,6.31897,5.86182,10.255,14.19775,9.93201,22.87695-.33008,8.82617-4.46802,17.12109-9.54102,24.16992-10.13098,14.07617-24.28503,24.66016-39.38306,32.8999-7.90295,4.31299-16.16699,8.1333-24.56702,11.37207-8.552,3.29834-17.51392,5.86035-26.69995,6.44336-8.86707,.56299-18.45203-.89111-26.35498-5.10938-7.81897-4.17383-13.76001-11.46582-17.90808-19.17383-2.13196-3.95996-2.84192-8.36914-4.70789-12.42627" style="fill: #e4877c;"></path><path d="M154.97621,212.37598c1.35999,.33838,2.4989,1.479,3.8479,1.99219,1.35608,.51514,2.78503,.86426,4.21106,1.11816,3.16504,.56494,6.44995,.65283,9.65393,.43066,3.68701-.25488,7.427-.60889,11.08203-1.14893,1.74805-.25781,3.51099-.55176,5.22498-.98389,1.93298-.48877,3.68201-1.41602,5.58105-1.96191,.20996-.06006,.37402,.21582,.21399,.36914-2.69995,2.58691-7.46802,3.48389-11.02197,3.99805-3.83301,.55469-7.75305,.98877-11.62,1.21777-3.37708,.19922-6.81799,.05176-10.14209-.604-2.22791-.43896-6.698-1.41602-7.59998-3.85693-.12793-.34619,.25208-.64795,.56909-.57031" style="fill: #e4877c;"></path><path d="M148.88283,208.43701c.31592,.08008,.47192,.33838,.70593,.53711,.20801,.17725,.45105,.29102,.71301,.36035,.48096,.12598,.26404,.78662-.19897,.72168-.61707-.08594-1.68005-.53174-1.66699-1.27881,.005-.23193,.2229-.396,.44702-.34033" style="fill: #e4877c;"></path><path d="M121.33803,159.52148c-.13611,.12744-.26501,.18848-.43811,.25537-.39795,.15576-.91895-.10303-1.1189-.45605-3.64905-6.43115-2.90308-16.77197,1.1759-22.85596,.2561-.38232,.79199-.0542,.60803,.35498-1.49695,3.3208-1.922,7.18408-2.00195,10.78711-.07898,3.62402,.08496,7.4917,1.92993,10.71387,.21204,.37012,.16809,.90283-.15491,1.20068" style="fill: #e4877c;"></path><path d="M120.95461,162.25391c.0719-.0708,.17798-.11572,.28088-.11572,.07007,0,.13806,.01807,.1991,.0542,.05994,.03467,.10693,.08301,.14197,.14258,.04395,.05811,.08801,.11719,.13196,.17627l.03601,.08398c.01404,.04688,.01697,.09375,.00598,.14014-.01001,.07471-.03992,.15186-.0979,.20361-.11304,.10596-.29102,.14014-.4281,.05615-.06299-.03906-.12695-.0791-.18994-.11719-.11499-.07178-.203-.20264-.19702-.34277,.00598-.10498,.04102-.2041,.11707-.28125" style="fill: #e4877c;"></path><path d="M214.39333,152.46729c2.14893-.39062,4.41699-1.37305,6.21594-2.59375,7.599-5.15625,9.65808-15.88818,7.54309-24.31396-.62109-2.4751-1.83105-7.56689-4.34705-8.88721-1.31604-.68994-3.01904,.36914-4.203-.7207-1.25598-1.15625-.73401-3.03223-1.54199-4.37646-.75696-1.26074-2.40198-1.86475-3.78503-2.05273-6.948-.94824-14.42493-.30322-21.05994,2.09375-4.46509,1.61426-8.67908,3.91699-12.48511,6.75342-2.73596,2.03857-9.38391,7.48486-6.76794,11.62793,.92505,1.46484,2.745,2.06494,4.38696,2.21582-5.29797-.48584-10.02197,1.46484-13.39697,5.54688-2.66504,3.22217-4.69299,7.22803-5.08398,11.43994-.44104,4.73535,1.80603,9.13428,1.97803,13.81934,.05103,1.37695,.703,2.68896,1.82202,3.49512,1.65393,1.19092,2.83191,.20459,4.31689-.46338,1.44202-.64893,3.20508-.78906,4.77307-.88477,3.75403-.22998,7.5,.32812,11.25293,.31494,5.44604-.021,10.91504-.31885,16.25-1.47217,3.604-.77783,10.08008-1.44873,12.01306-5.16797,.89099-1.71484,.48401-3.31396-.55896-4.43604-.66699-.71777-.13306-1.87891,.84595-1.8457,.62402,.02197,1.24097,.01562,1.83203-.09229m-3.21497-1.26709c-1.87708-.13867-3.93811-.55371-4.302,2.00635-.04309,.30371,.12793,.70068,.50598,.66602,3.80298-.35205,4.61096,3.32178,1.68896,5.26904-1.59106,1.06006-3.578,1.52393-5.40601,1.99268-4.86401,1.24902-9.755,2.24219-14.776,2.5874-5.28894,.36182-11.13098-.62402-16.49097,.19482-1.73608-.12012-3.46399-.02783-5.08203,.729-.31201,.146-.81995,.58203-1.17896,.64502-1.17908,.20215-1.98608-.72705-2.26599-1.74512-.31006-1.12988-.14307-2.39404-.36609-3.55078-.50793-2.63721-1.65002-5.02295-1.87097-7.75-.45898-5.66211,2.29297-11.81006,6.36206-15.69629,2.354-2.24805,5.05798-3.02393,8.22791-2.9541,1.51001,.0332,3.01404,.08838,4.20605-.95361,.29602-.25928,.27698-.78516,0-1.04834-.58496-.55469-1.099-.90186-1.87207-1.12695-.68896-.19971-1.60498-.03369-2.22888-.35986-3.14709-1.6499,.40698-5.84326,1.80994-7.33203,2.96399-3.1499,6.77698-5.52002,10.59802-7.49219,7.66504-3.95361,15.89893-5.4248,24.45703-4.43262,1.95496,.22656,4.15991,.48486,4.48499,3.02393,.08496,.6709-.224,1.36377-.17603,2.04102,.06299,.86865,.37695,1.58105,1.17505,2.01562,1.09399,.59717,2.16089,.04248,3.30188,.09033,2.11304,.08984,2.63208,2.77002,3.2251,4.42285,2.771,7.72607,2.755,17.48096-3.11304,23.82812-2.62305,2.83691-6.88,5.229-10.91394,4.92969" style="fill: #e4877c;"></path><path d="M184.86452,168.4458c-3.24109-.2168-6.88904,.04102-10.02307-.79785-.198-.05273-.17896-.32178,0-.38281,2.43005-.82715,5.21704-.53223,7.75305-.521,2.72498,.01172,5.453,.10107,8.177,.07666,3.68494-.03076,7.30396-.46875,10.89392-1.27588,4.04407-.90967,14.42102-3.25293,12.38599-9.30664-.14893-.44434,.56006-.75342,.76501-.32324,2.974,6.23389-5.828,9.30518-10.276,10.57715-3.151,.8999-6.41296,1.56201-9.6759,1.87109-3.31909,.31494-6.67603,.30469-10,.08252" style="fill: #e4877c;"></path><path d="M155.22572,172.72607c3.63391-1.56152,7.35388-2.93164,11.29395-3.45752,4.224-.56348,8.35803,.05664,12.56494,.43994,4.21802,.38281,8.47302-.39209,12.65002,.28467,.29407,.04736,.22607,.53516-.06995,.51904-4.198-.23486-8.35706,.67627-12.58008,.44531-3.86597-.21143-7.73389-.7583-11.60291-.30225-3.99207,.47217-7.80908,1.81885-11.48901,3.38428-3.25208,1.38281-6.18005,3.48877-9.41602,4.7749-.24097,.0957-.44006-.22119-.323-.4209,1.75903-3.01514,5.90393-4.34814,8.97205-5.66748" style="fill: #e4877c;"></path><path d="M167.02883,133.76465c-1.52002,.79443-2.88403,1.86523-4.00806,3.16211-.578,.66602-1.09204,1.396-1.474,2.19336-.30505,.63867-.36707,1.32178-.87195,1.83057-.21606,.21729-.52502,.0874-.6261-.16455-.55396-1.38428,1.10999-3.30322,1.96606-4.24512,1.29602-1.42725,2.90503-2.58936,4.65796-3.38525,.40503-.18311,.76501,.396,.35608,.60889" style="fill: #e4877c;"></path><path d="M131.56374,184.36328c3.26392-2.28955,6.38892-4.72363,9.58093-7.10693,3.427-2.55762,6.92798-5.30566,9.37402-8.8667,2.63904-3.84229,2.90198-7.93799,2.75598-12.46924-.12402-3.81689-.328-7.54785,1.67603-10.9541,.14697-.24902,.599-.08154,.48303,.20312-1.78711,4.41504-.56909,9.23926-.5,13.8291,.06189,4.13379-1.18005,7.8501-3.6781,11.14111-1.48096,1.94971-3.23291,3.65283-5.09595,5.22998,4.47302-3.55127,11.76196-7.29102,11.91895-13.45801,.08301-3.25391-1.08093-6.55029-1.39197-9.78223-.21704-2.25488-.20203-5.52295,1.96497-6.85205,.12903-.07959,.35303,.02002,.33203,.18994-.21497,1.63525-.88696,3.04736-.78394,4.75732,.11597,1.90674,.73901,3.70508,1.27393,5.52002,.86304,2.92383,1.27197,6.06787,.078,8.96387-2.40698,5.84326-9.08594,8.2168-13.84094,11.65186-.21704,.15723-.48901-.18604-.30298-.36865-.948,.77588-1.91711,1.52686-2.89111,2.26074-3.12292,2.35303-6.61194,6.23828-10.61292,6.91602-.49304,.08398-.76099-.50977-.33997-.80518" style="fill: #e4877c;"></path><path d="M205.89394,149.75342c-4.46509-.10254-10.13611-.96191-13.45105-4.26953-2.88806-2.88037-3.51807-8.11914-1.48596-11.64844,1.33301-2.31494,3.93799-4.32861,1.28796-6.86182-1.68701-1.61377-4.30603-2.04688-6.50305-1.45117-.56396,.15234-.86902-.61865-.39001-.92578,2.5061-1.60889,6.33801-.35596,8.2301,1.71875,3.61792,3.96631-1.60706,6.97607-2.18799,10.81104-1.06311,7.01807,4.77795,9.87842,10.70093,10.85498,3.30298,.54443,6.65796,.45605,9.94397-.17578,3.14502-.60596,5.86499-2.05225,8.8761-3.00293,.35999-.1123,.6969,.41016,.38489,.66309-4.01489,3.26367-10.36389,4.40479-15.40588,4.2876" style="fill: #e4877c;"></path><path d="M196.43788,137.15039c-.1571,4.10547,3.43188,6.56445,7.12988,6.92725,.16504,.01709,.21912,.25391,.04102,.30322-5.07397,1.40283-9.396-3.25732-8.63696-8.23828,.59595-3.91309,6.76196-10.58984,.17798-12.33301-.20898-.05615-.17493-.41699,.05298-.39014,4.4491,.53613,4.66101,3.93115,3.33899,7.55908-.72095,1.98096-2.02197,4.02588-2.10388,6.17188" style="fill: #e4877c;"></path><path d="M198.64638,137.64209c-.28601-.50977,.37195-1,.79492-.61377,2.21106,2.01514,4.349,3.11914,7.39001,3.26416,2.53198,.12109,5.09705-.35303,7.53296-1.01318,.11499-.03174,.20203,.15088,.08508,.20117-4.67505,1.99609-12.71606,3.66797-15.80298-1.83838" style="fill: #e4877c;"></path><path d="M205.15663,136.51953c-.46509,.15039-.94507,.20801-1.43201,.15039-.51111-.06201-.84399-.19727-1.198-.57129-.198-.20996,0-.54492,.27893-.47803,.74902,.17822,1.39807,.46436,2.18701,.3042,.38696-.07812,.54395,.47217,.16406,.59473" style="fill: #e4877c;"></path><path d="M184.75124,123.26025c-.46008,1.59229,.27795,2.64844,1.02795,3.92139,.354,.6001,.74902,1.25781,.55298,1.98486-.93896,3.47021-6.61804,.4502-6.29199-2.44092,.15295-1.33594,1.30603,.27783,1.52295,.64697,.5061,.85889,1.427,2.44873,2.61707,1.58691,.92395-.66895-.005-1.57275-.34497-2.28613-.55005-1.14893-.65405-2.52197-.21301-3.72363,1.03296-2.80713,4.30396-3.979,6.88794-4.82227,.14197-.04688,.23499,.17188,.10107,.24121-2.05811,1.06885-5.16003,2.46973-5.85999,4.8916" style="fill: #e4877c;"></path><path d="M186.1144,136.33252c.15796-.26074,.54895-.08691,.48291,.2041-.63391,2.82422-.50696,5.16309,1.13501,7.63721,1.32605,2,3.45007,3.91602,5.52002,5.14697,.29395,.17383,.10303,.67578-.23706,.56396-2.98596-.98486-5.42297-2.625-6.88892-5.5542-1.24402-2.48584-1.48303-5.56396-.01196-7.99805" style="fill: #e4877c;"></path><path d="M185.50795,149.23291c.63696,.61621,1.45593,1.00928,2.27698,1.32617,.22095,.08594,.20496,.43213-.05908,.43311-.53101,.00488-.96692-.06201-1.43298-.32227-.46301-.25879-.86597-.60889-1.22095-1.00098-.26599-.29199,.14893-.71387,.43604-.43604" style="fill: #e4877c;"></path><path d="M215.0204,107.54688c-4.67505-1.65967-10.53503-.32666-15.31201,.354-2.22107,.31641-4.43311,.72314-6.58508,1.36816-1.33594,.3999-2.66199,.87402-3.89392,1.53418-.9491,.50977-1.74707,1.30176-2.72302,1.73779-.41797,.18701-.78003-.18896-.60205-.60303,.83606-1.94873,3.78406-2.91602,5.64001-3.56787,2.54004-.89404,5.224-1.4502,7.89099-1.79883,4.99902-.65137,11.02905-1.65332,15.78796,.49268,.27112,.12305,.0791,.58398-.20288,.48291" style="fill: #e4877c;"></path><path d="M196.94911,104.96777c-1.49402-.0376-2.96912,.3291-4.37207,.81641-.75293,.26074-1.495,.56494-2.17505,.98486-.48792,.30176-.82092,.73682-1.38098,.85986-.276,.06006-.48401-.16504-.43396-.43408,.22595-1.20557,2.33203-1.81396,3.33496-2.13867,1.58801-.51318,3.35999-.79199,5.0271-.61621,.33093,.03418,.34692,.53711,0,.52783" style="fill: #e4877c;"></path></g></g></g></svg>