<?xml version="1.0" encoding="UTF-8"?>
<svg id="_圖層_1" data-name="圖層 1" xmlns="http://www.w3.org/2000/svg" viewBox="0 0 442.49436 134.01901">
  <path d="M182.42006,112.02877c0,.9491-.33618,1.60104-1.00714,1.95778-.1193,.05824-.25755,.10722-.41478,.14759-.09895,.03905-.21825,.06883-.35649,.08935-.09895,.01919-.1979,.02846-.29684,.02846h-.17758c-1.56017,0-2.34227-.73996-2.34227-2.22318v-19.89149h-5.89906c-.65201,0-.97868-.31571-.97868-.9491,0-.65061,.32667-.9769,.97868-.9769h16.42443c.63162,0,.94745,.31571,.94745,.94844,0,.65127-.31583,.97756-.94745,.97756h-5.93025v19.89149Z" style="fill: #5e4636;"/>
  <path d="M206.96586,99.46008c1.36359,1.56199,2.0468,3.61706,2.0468,6.16653,0,2.58853-.70351,4.66411-2.10645,6.22411-1.42324,1.60236-3.34942,2.40056-5.7798,2.40056-2.4507,0-4.38771-.7982-5.81095-2.40056-1.40293-1.56-2.10508-3.63559-2.10508-6.22411,0-2.52962,.6818-4.58602,2.04543-6.16653,1.42324-1.64008,3.38057-2.46013,5.8706-2.46013,2.44937,0,4.39722,.82004,5.83945,2.46013m-8.27116,.62215c-.73061,1.08743-1.09662,2.936-1.09662,5.54439,0,2.60905,.36601,4.46622,1.09662,5.57218,.55302,.82997,1.36359,1.24562,2.43171,1.24562,1.02745,0,1.81771-.39579,2.37078-1.18605,.35649-.53412,.62215-1.2251,.80106-2.07493,.21688-.9683,.32671-2.15435,.32671-3.55683,0-2.52962-.34566-4.34708-1.03833-5.4557-.57338-.88954-1.39342-1.33298-2.46021-1.33298-1.06812,0-1.87868,.41499-2.43171,1.24429" style="fill: #5e4636;"/>
  <path d="M214.37751,99.0451c0-.86968,.31579-1.46204,.94745-1.77775,.09895-.06023,.21825-.10854,.35649-.14958,.09895-.03905,.20741-.06883,.32534-.08935,.10027-.01919,.18838-.02846,.26702-.02846h.17891c1.42328,0,2.13354,.68171,2.13354,2.04514v9.75314c0,.88888,.16807,1.61162,.50425,2.16494,.45408,.73003,1.18605,1.09604,2.19315,1.09604,.85127,0,1.63065-.30644,2.34232-.91998,.61267-.5328,1.09657-1.22444,1.45307-2.07426v-10.01987c0-.86968,.30632-1.46204,.91903-1.77775,.11789-.06023,.23583-.10854,.35513-.14958,.11926-.03905,.23719-.06883,.35513-.08935,.07864-.01919,.16944-.02846,.26702-.02846h.17895c1.40157,0,2.10504,.68171,2.10504,2.04514v13.16237c0,.86968-.30768,1.46204-.92036,1.77841-.1193,.05824-.23587,.10788-.35513,.14892-.1193,.03773-.23587,.06883-.35517,.08803-.0786,.01919-.16944,.02846-.26702,.02846h-.17891c-.1979,0-.39579-.01919-.59236-.05692-.25618-.05957-.48527-.15024-.6818-.26739-.55302-.31703-.82956-.81011-.82956-1.48256v-.83063c-.21825,.31703-.42562,.57449-.62219,.77106-.29821,.33622-.62351,.62215-.98001,.86042-.94886,.6698-2.07389,1.00602-3.37924,1.00602-.73057,0-1.39205-.08803-1.98578-.26541-.71026-.1979-1.32293-.51426-1.83802-.94778-.59236-.47455-1.0478-1.10729-1.36363-1.89887-.35513-.8677-.53267-1.90748-.53267-3.11206v-8.98208Z" style="fill: #5e4636;"/>
  <path d="M234.41552,100.08223c-.21688-.43352-.32534-.75981-.32534-.9769,0-.55331,.24671-1.03846,.74145-1.45344,.49478-.43484,1.05728-.65193,1.68894-.65193,.43513,0,.79026,.12774,1.06812,.3852,.15723,.13833,.33482,.3852,.53271,.73996l5.15898,9.78293,4.56529-10.31572c.09895-.21643,.24671-.37527,.4446-.47389,.11793-.07876,.25618-.11847,.41478-.11847,.65197,0,.97864,.30644,.97864,.918,0,.09994-.00947,.18863-.02982,.26673l-8.68594,19.71543c-.17891,.39314-.47443,.59104-.88921,.59104-.63298,0-.94882-.30578-.94882-.91866,0-.15885,.02982-.29585,.08811-.41499l1.92882-4.35767-6.73131-12.71761Z" style="fill: #5e4636;"/>
  <path d="M264.5057,102.33652c0-1.10663-.19794-1.92799-.59373-2.46211-.47443-.67179-1.26601-1.00801-2.3721-1.00801-1.46258,0-2.38021,.71282-2.75705,2.13449-.03793,.11913-.05965,.20782-.05965,.26739l-.11657,.29651c-.07996,.23761-.18842,.42557-.32667,.5639-.35513,.41499-.91903,.62215-1.6903,.62215-1.40289,0-2.10372-.56258-2.10372-1.69039,0-.86836,.56254-1.71885,1.68894-2.54948,.63166-.45271,1.36363-.81078,2.19319-1.06559,.94886-.29784,1.99662-.44543,3.14337-.44543,.94886,0,1.80687,.08803,2.57947,.26673,.90819,.21709,1.67947,.55331,2.31113,1.00867,1.50188,1.06625,2.2528,2.77583,2.2528,5.12609v6.43459c0,.19657,.02035,.42425,.05965,.68171l.05965,.44477,.32667,1.24562c.03797,.11649,.05828,.20716,.05828,.26607,0,.45403-.23719,.86836-.71162,1.24562-.47443,.35476-.99899,.53213-1.571,.53213-.96784,0-1.66048-.6109-2.07526-1.83666-.51373,.43418-1.06812,.78894-1.65911,1.06559-.51509,.23893-1.05864,.41499-1.63065,.53412-.43513,.09796-.87969,.16811-1.33381,.20849-.17891,.01919-.35649,.02846-.53404,.02846h-.38632c-1.97631,0-3.44836-.50367-4.41617-1.51235-.81061-.8485-1.21587-1.95579-1.21587-3.31856,0-1.32372,.3646-2.41115,1.09657-3.26098,.63303-.73202,1.55202-1.30386,2.75705-1.72017,.94886-.31571,2.12407-.54206,3.52832-.68039,.53271-.04104,1.13591-.0695,1.80824-.09067,.25755-.01919,.54355-.02846,.86071-.02846,.17622-.01919,.45275-.03111,.8296-.03111v-1.27275Zm0,2.99226c-1.04917,.02052-1.91666,.07082-2.60933,.14958-.84987,.11781-1.55202,.30512-2.10508,.56258-1.26465,.59236-1.89767,1.65994-1.89767,3.20141,0,.88954,.1979,1.58184,.59373,2.07559,.49337,.59236,1.26465,.8902,2.31245,.8902l.59232-.03111c.29688-.03905,.58421-.10722,.86075-.20716,.82956-.23628,1.58052-.64134,2.25284-1.21451v-5.42658Z" style="fill: #5e4636;"/>
  <path d="M274.852,99.0451c0-.86968,.31579-1.46204,.94745-1.77775,.09895-.06023,.21825-.10854,.35649-.14958,.09895-.03905,.20741-.06883,.32534-.08935,.10027-.01919,.18838-.02846,.26702-.02846h.17891c1.42328,0,2.13354,.68171,2.13354,2.04514v9.75314c0,.88888,.16807,1.61162,.50425,2.16494,.45408,.73003,1.18605,1.09604,2.19315,1.09604,.85127,0,1.63065-.30644,2.34232-.91998,.61267-.5328,1.09657-1.22444,1.45307-2.07426v-10.01987c0-.86968,.30632-1.46204,.91903-1.77775,.11789-.06023,.23583-.10854,.35513-.14958,.11926-.03905,.23719-.06883,.35513-.08935,.07864-.01919,.16944-.02846,.26702-.02846h.17895c1.40157,0,2.10504,.68171,2.10504,2.04514v13.16237c0,.86968-.30768,1.46204-.92036,1.77841-.1193,.05824-.23587,.10788-.35513,.14892-.1193,.03773-.23587,.06883-.35517,.08803-.0786,.01919-.16944,.02846-.26702,.02846h-.17891c-.1979,0-.39579-.01919-.59236-.05692-.25618-.05957-.48527-.15024-.6818-.26739-.55302-.31703-.82956-.81011-.82956-1.48256v-.83063c-.21825,.31703-.42562,.57449-.62219,.77106-.29821,.33622-.62351,.62215-.98001,.86042-.94886,.6698-2.07389,1.00602-3.37924,1.00602-.73057,0-1.39205-.08803-1.98578-.26541-.71026-.1979-1.32293-.51426-1.83802-.94778-.59236-.47455-1.0478-1.10729-1.36363-1.89887-.35513-.8677-.53267-1.90748-.53267-3.11206v-8.98208Z" style="fill: #5e4636;"/>
  <path d="M310.98772,112.20747c0,.87034-.30772,1.46271-.91903,1.77841-.11793,.05891-.23723,.10854-.35649,.14826-.11793,.03905-.23587,.06883-.35513,.08935-.07864,.01919-.16811,.02846-.26706,.02846h-.17754c-1.42328,0-2.13354-.67112-2.13354-2.01536v-9.75314c0-.92726-.17895-1.66854-.53408-2.22186-.45544-.6923-1.17521-1.03912-2.16469-1.03912-.8689,0-1.66048,.31703-2.37073,.94844-.61272,.55331-1.07763,1.23503-1.39346,2.0458v9.99075c0,.87034-.31583,1.46271-.94886,1.77841-.09895,.05891-.21821,.10854-.35513,.14826-.09895,.03905-.20873,.06883-.32667,.08935-.09895,.01919-.18842,.02846-.26702,.02846h-.38495c-.09895,0-.1979-.00927-.29684-.02846-.1193-.02052-.2264-.0503-.32671-.08935-.13825-.03971-.26702-.08935-.38359-.14826-.61267-.31571-.92036-.89814-.92036-1.74929v-13.19083c0-.87101,.31715-1.46204,.94882-1.77974,.09762-.05957,.21688-.10788,.35513-.14759,.10031-.04037,.20741-.06883,.32671-.09067,.09895-.01919,.18838-.02846,.26702-.02846h.17754c.17758,0,.37548,.01919,.59373,.05957,.25618,.05957,.49337,.14759,.71026,.26739,.55307,.31703,.83092,.82004,.83092,1.51102v.80085l.62351-.77106c.29552-.33622,.62219-.62347,.97732-.85909,.94886-.67245,2.06442-1.00867,3.35078-1.00867,.71026,0,1.36359,.07876,1.95459,.23827,.73197,.19657,1.35412,.51294,1.86785,.94778,.59373,.47323,1.04917,1.10729,1.36363,1.89755,.35513,.87034,.53408,1.91674,.53408,3.14184v8.98274Z" style="fill: #5e4636;"/>
  <path d="M348.01298,107.78957c0,.35542-.13829,.84056-.41482,1.45212-.35513,.79158-.84987,1.51433-1.48153,2.16494-.81057,.84983-1.77841,1.51235-2.90618,1.9869-1.34328,.57185-2.8953,.85777-4.65336,.85777-1.40293,0-2.69877-.18664-3.88345-.56258-1.36363-.41432-2.54021-1.06625-3.527-1.95579-1.12777-.96764-1.98578-2.21325-2.57947-3.73553-.65201-1.6798-.97868-3.66537-.97868-5.95871,0-2.21392,.31583-4.15051,.94886-5.80979,.57338-1.52095,1.40293-2.78709,2.49003-3.79377,.98815-.91138,2.15385-1.59045,3.4985-2.0458,1.22535-.41565,2.55916-.62215,4.00139-.62215s2.77604,.2065,4.00139,.62215c1.10745,.35542,2.08609,.85843,2.93464,1.51168,1.58184,1.24429,2.3721,2.57794,2.3721,4.00159,0,.61222-.24671,1.07751-.74008,1.39321-.41614,.27798-.89057,.41499-1.42465,.41499-.82956,0-1.4517-.26607-1.86648-.80019-.07864-.09994-.14776-.20716-.20741-.3263-.05961-.09796-.10979-.20782-.14772-.32696-.04066-.09729-.06916-.19525-.08947-.29519-.02035-.03971-.02982-.07876-.02982-.1198l-.02982-.11781c-.02031-.137-.05828-.27467-.11793-.41565-.05961-.19657-.12877-.38388-.20737-.56258-.1979-.49375-.46496-.92859-.8011-1.30452-.41478-.49441-.90952-.86836-1.48153-1.12582-.69268-.33622-1.49241-.50566-2.40192-.50566-.75096,0-1.39346,.09994-1.92617,.29784-.75228,.25746-1.38531,.70091-1.89767,1.33364-.63166,.75121-1.11693,1.77841-1.45307,3.08294-.37548,1.50176-.56254,3.36025-.56254,5.57351,0,2.21458,.19653,4.06249,.59236,5.54372,.33614,1.28533,.82956,2.29334,1.48289,3.02271,.51236,.61288,1.14539,1.03846,1.89631,1.2754,.53408,.17804,1.17521,.26739,1.9275,.26739,.92855,0,1.7296-.15885,2.40192-.47455,.57201-.25746,1.04644-.63141,1.42192-1.12648,.31583-.37527,.57338-.84056,.77127-1.39321,.07727-.1979,.14776-.41499,.20737-.65193l.14776-.59369c.02035-.13833,.04881-.24687,.08947-.32563,.01899-.11913,.05014-.23695,.08811-.35608,.10031-.25746,.21688-.48382,.35513-.68238,.39579-.47389,1.00847-.71017,1.83802-.71017,1.5629,0,2.34232,.63207,2.34232,1.89622" style="fill: #5e4636;"/>
  <path d="M368.17173,112.20747c0,.87034-.3172,1.46271-.94886,1.77841-.09758,.05891-.21688,.10854-.35513,.14826-.1193,.03905-.23723,.06883-.35517,.08935-.07996,.01919-.16944,.02846-.26702,.02846h-.35649c-.09895,0-.1979-.00927-.29684-.02846-.11793-.02052-.23719-.0503-.35513-.08935-.1193-.03971-.23723-.08935-.35649-.14826-.61267-.31571-.91767-.89814-.91767-1.74929v-9.66379c0-.94977-.18842-1.69833-.56523-2.25429-.45275-.67046-1.16574-1.00669-2.13354-1.00669-.82956,0-1.58052,.28725-2.25284,.85909-.61404,.51493-1.1264,1.22576-1.54118,2.13383v9.90272c0,.87034-.30768,1.46271-.91903,1.77841-.11789,.05891-.23719,.10854-.35649,.14826-.11789,.03905-.23583,.06883-.35513,.08935-.0786,.01919-.16807,.02846-.26702,.02846h-.35513c-.09895,0-.1979-.00927-.29684-.02846-.1193-.02052-.23723-.0503-.35517-.08935-.11926-.03971-.23856-.08935-.35649-.14826-.61404-.31571-.91899-.89814-.91899-1.74929v-20.42627c0-.8677,.30495-1.46138,.91899-1.77709,.11793-.05957,.23723-.10854,.35649-.14892,.11793-.03905,.23587-.06883,.35517-.08803,.0786-.02052,.16807-.02978,.26702-.02978h.35513c.09895,0,.1979,.00927,.29684,.02978,.1193,.01919,.23723,.04898,.35513,.08803,.1193,.04037,.2386,.08935,.35649,.14892,.61135,.31571,.91903,.90939,.91903,1.77709v7.79801l.7103-.85909c.31715-.33622,.64382-.62347,.98001-.86108,.88921-.59236,1.98578-.88888,3.29113-.88888,1.73771,0,3.10134,.47455,4.0895,1.423,1.0871,1.06692,1.63065,2.66927,1.63065,4.80244v8.98274Z" style="fill: #5e4636;"/>
  <path d="M387.262,99.46008c1.36359,1.56199,2.0468,3.61706,2.0468,6.16653,0,2.58853-.70351,4.66411-2.10645,6.22411-1.42324,1.60236-3.34942,2.40056-5.7798,2.40056-2.4507,0-4.38771-.7982-5.81095-2.40056-1.40293-1.56-2.10508-3.63559-2.10508-6.22411,0-2.52962,.6818-4.58602,2.04543-6.16653,1.42324-1.64008,3.38057-2.46013,5.8706-2.46013,2.44937,0,4.39722,.82004,5.83945,2.46013m-8.27116,.62215c-.73061,1.08743-1.09662,2.936-1.09662,5.54439,0,2.60905,.36601,4.46622,1.09662,5.57218,.55302,.82997,1.36359,1.24562,2.43171,1.24562,1.02745,0,1.81771-.39579,2.37078-1.18605,.35649-.53412,.62215-1.2251,.80106-2.07493,.21688-.9683,.32671-2.15435,.32671-3.55683,0-2.52962-.34566-4.34708-1.03833-5.4557-.57338-.88954-1.39342-1.33298-2.46021-1.33298-1.06812,0-1.87868,.41499-2.43171,1.24429" style="fill: #5e4636;"/>
  <path d="M399.06119,90.53757c.53271,.53412,.79973,1.17546,.79973,1.92601,0,.73202-.26702,1.36409-.79973,1.89821-.51509,.5136-1.14675,.76974-1.89767,.76974-.73197,0-1.36363-.25614-1.89767-.76974-.51373-.53412-.77127-1.16619-.77127-1.89821,0-.75055,.25755-1.38262,.77127-1.89755,.53404-.5328,1.1657-.79952,1.89767-.79952,.75092,0,1.38258,.25614,1.89767,.77106m.20741,21.6699c0,.87034-.30772,1.46271-.9204,1.77841-.11657,.05891-.23587,.10854-.35513,.14826-.1193,.03905-.23587,.06883-.35513,.08935-.07864,.01919-.16944,.02846-.26706,.02846h-.17891c-1.40157,0-2.10372-.67112-2.10372-2.01536v-13.19083c0-.87101,.30636-1.46204,.91903-1.77974,.11926-.05957,.23719-.10788,.35513-.14759,.11926-.04037,.23856-.06883,.35513-.09067,.07864-.01919,.16944-.02846,.26702-.02846h.17895c1.40293,0,2.10508,.68171,2.10508,2.04647v13.16171Z" style="fill: #5e4636;"/>
  <path d="M420.82015,108.8267c0,.45602-.12877,.95969-.38632,1.51168-.29552,.67245-.7103,1.2754-1.24433,1.80952-.65338,.6334-1.42328,1.12648-2.31249,1.4819-1.06675,.41432-2.26364,.62215-3.58661,.62215-2.76653,0-4.86213-.85843-6.28538-2.5786-1.2457-1.50176-1.86785-3.51711-1.86785-6.04674,0-2.76657,.76043-4.91231,2.28262-6.43326,1.46395-1.46204,3.46867-2.19406,6.01836-2.19406,1.44223,0,2.70824,.24753,3.79402,.74128,.87022,.39579,1.61167,.93918,2.22434,1.63082,.45271,.5328,.8011,1.12648,1.03693,1.77841,.09895,.21775,.16811,.43484,.20741,.65193,.0393,.1787,.05965,.30776,.05965,.38586,0,.55331-.24807,.98815-.74145,1.30452-.39583,.25746-.82956,.38454-1.30398,.38454-.81057,0-1.38395-.23695-1.72013-.7115-.21688-.27666-.38495-.76048-.50289-1.45146l-.05965-.2985c-.02031-.13568-.05014-.26541-.08807-.38388-.1193-.35476-.26706-.67179-.44597-.94844-.57338-.81078-1.43276-1.21583-2.57951-1.21583-1.205,0-2.0942,.45536-2.66621,1.36343-.71299,1.08743-1.06812,2.89563-1.06812,5.42459,0,2.62956,.37412,4.48806,1.1264,5.57285,.57338,.81144,1.40293,1.21583,2.49003,1.21583,1.16706,0,2.03455-.43418,2.60929-1.30452,.21688-.31438,.38495-.69098,.50289-1.12648,.09895-.31571,.1586-.65193,.17891-1.00669,.11793-1.30518,.83907-1.95579,2.16337-1.95579,1.44223,0,2.16473,.59038,2.16473,1.77643" style="fill: #5e4636;"/>
  <path d="M429.5336,106.45526c.02168,.8121,.06912,1.47263,.15045,1.98756,.09762,.76974,.24534,1.41241,.44324,1.92601,.53408,1.36475,1.47206,2.04514,2.8167,2.04514,1.00851,0,1.76894-.32497,2.2813-.97823,.1979-.23628,.35786-.5136,.47443-.82997l.20873-.7115c.17758-.71017,.36597-1.19399,.56386-1.45146,.33482-.41499,.87837-.62215,1.62933-.62215,1.46391,0,2.19315,.57185,2.19315,1.71885,0,.37527-.1071,.79952-.32394,1.27408-.25755,.59369-.63439,1.11788-1.12777,1.57059-.61272,.55331-1.35416,.98948-2.22302,1.30452-1.00847,.3766-2.1742,.56258-3.4985,.56258-.47443,0-.9285-.01919-1.36363-.05692-.57338-.06023-1.10605-.16944-1.59946-.32696-1.26601-.33622-2.27452-.92991-3.02544-1.77841-.77127-.88954-1.33381-2.00609-1.68894-3.35099-.1193-.5328-.21688-1.08677-.29548-1.65994-.0407-.47323-.05965-.94778-.05965-1.42233,0-2.72818,.66012-4.84149,1.98578-6.34325,1.36359-1.54279,3.31959-2.31253,5.86923-2.31253,1.64017,0,3.04306,.34549,4.21016,1.03647,.94749,.55331,1.71876,1.3257,2.31108,2.31253,.43513,.73202,.75096,1.56199,.94886,2.48991,.0786,.31769,.13825,.62215,.17891,.92064l.02846,.56258c0,.88888-.3646,1.50176-1.09657,1.83798-.25755,.11781-.56254,.20716-.91767,.26541-.13961,0-.28874,.01125-.44597,.02978h-8.62765Zm5.72288-1.77841c.61267,0,.91763-.29519,.91763-.88888,0-.71017-.0786-1.423-.23583-2.13383-.41478-1.87703-1.41377-2.81621-2.99429-2.81621-1.34465,0-2.27315,.62215-2.78551,1.86644-.1979,.51493-.35786,1.14766-.47443,1.89887-.05965,.51228-.10979,1.20392-.15045,2.0736h5.72288Z" style="fill: #5e4636;"/>
  <path d="M175.82696,52.20341c-.55848,1.07684-1.16032,2.12986-1.80687,3.16236-.51646,.8207-1.05591,1.59442-1.61303,2.32643l-.58285,.83924-.96784,1.09736c-.34429,.34483-.73193,.51691-1.16164,.51691-1.20636,0-1.80687-.60229-1.80687-1.80687,0-.38917,.12877-.7757,.38499-1.16421,1.72282-2.88239,3.29382-6.73573,4.71437-11.55737,1.29178-4.34576,2.17284-8.47973,2.64727-12.39727h-4.26166c-.21552,0-.42971-.01986-.64523-.06486-.25887-.04037-.49474-.12774-.71026-.25746-.55981-.29982-.84039-.79555-.84039-1.48587,0-.68833,.28059-1.1834,.84039-1.48389,.17212-.12906,.40799-.21444,.71026-.25945,.17217-.0417,.38768-.06486,.64523-.06486h4.45414v-8.90927c0-1.59177,.17212-2.73281,.51915-3.42313,.60047-1.11788,1.80683-1.67913,3.61507-1.67913s3.01187,.5831,3.61507,1.74333c.34429,.69098,.51646,1.8082,.51646,3.35893v8.90927h2.97121c.21283,0,.42835,.02317,.64386,.06486,.25891,.04501,.4961,.10987,.71162,.19525,.55848,.29982,.83907,.81872,.83907,1.54809,0,.69032-.28059,1.18605-.83907,1.48587-.21552,.12972-.45271,.21709-.71162,.25746-.21552,.04501-.43104,.06486-.64386,.06486h-2.97121c.73197,4.73626,2.56052,9.7505,5.4897,15.04338l.38495,.84056c.04339,.0867,.06643,.23827,.06643,.45271,0,1.20458-.58148,1.8082-1.74317,1.8082-.55981,0-1.05455-.23628-1.48558-.7115-.51646-.51559-1.42055-1.76385-2.71234-3.74413v24.1479c0,1.59111-.17217,2.73414-.51646,3.42247-.6032,1.16156-1.82991,1.74333-3.68014,1.74333-1.76484,0-2.94953-.58177-3.55-1.74333-.34702-.68833-.51915-1.83136-.51915-3.42247v-18.85369Zm23.11643-32.34832c0-.29982,.02168-.55861,.06507-.77504,.08538-.60229,.23587-1.11854,.45139-1.54941,.60184-1.16355,1.76484-1.74333,3.48766-1.74333,1.76348,0,2.96984,.60295,3.61507,1.8082,.21552,.47323,.36464,1.01132,.45139,1.61427,.04203,.21577,.06507,.45139,.06507,.70885v25.18371c-.04339,1.4177-.10846,2.71097-.19248,3.87253-.1749,2.799-.51646,5.29487-1.03424,7.49025-.6032,2.62559-1.46395,5.01556-2.58224,7.16792-1.29174,2.40916-2.94953,4.60587-4.97324,6.58483-1.54796,1.50507-3.33452,2.88372-5.35824,4.1333-1.72282,1.0325-2.83974,1.54809-3.3562,1.54809-1.20636,0-1.80956-.58045-1.80956-1.74333,0-.55861,.34429-1.14038,1.03424-1.74333,2.10777-1.76451,3.87398-3.74546,5.29453-5.93952,1.24839-1.84923,2.23654-3.87386,2.96984-6.0699,.55848-1.76385,.98952-3.65743,1.29046-5.68205l.38764-4.58337c-1.8082,2.75465-3.44295,4.92886-4.90685,6.52129-.9041,1.03316-1.82991,1.54941-2.77604,1.54941-.99084,0-1.85159-.42955-2.58356-1.29195-.73193-.86042-1.09657-1.78503-1.09657-2.77583,0-1.20392,.75228-2.26091,2.25958-3.16501l1.29178-.83791c.86075-.51625,1.67674-1.05302,2.4521-1.61427,1.07622-.68701,2.04407-1.35681,2.90614-2.00344,1.03287-.77371,1.91397-1.48389,2.64727-2.1292v-7.23014c-1.03287,1.59111-2.32329,2.38798-3.87398,2.38798-1.59268,0-2.8831-1.87438-3.87398-5.61851-.55981-2.0233-1.29178-4.15184-2.19588-6.3909-.21552-.51757-.32125-.9908-.32125-1.42167,0-.55861,.21415-1.03316,.64523-1.41969,.38764-.26011,.77533-.38851,1.16297-.38851,.38632,0,.98815,.32365,1.80687,.96896,.73061,.55861,1.56968,1.33497,2.51713,2.32577,1.98036,2.02264,3.35889,3.70177,4.13289,5.03476v-12.78379Zm19.37127,24.92161c5.07761,2.49851,8.37147,4.28487,9.87877,5.36105,1.24702,.94778,1.8719,1.93594,1.8719,2.97042,0,1.07618-.43104,2.04382-1.29178,2.90423-.9041,.9041-1.89494,1.35681-2.96852,1.35681-.86207,0-1.87463-.71017-3.03491-2.13185-1.2064-1.46138-2.69066-3.11934-4.45546-4.97056v19.82265c0,1.07353,.86071,1.61427,2.58083,1.61427,.3009,0,.51778-.04501,.64655-.12906,.17217-.12972,.32398-.41168,.45275-.83857,.3009-.9041,.53677-2.90622,.71026-6.00636,0-.21577,.02168-.4077,.06507-.58177,0-.21378,.02031-.40903,.0637-.58111,.08538-.42955,.21415-.79555,.38768-1.09802,.51641-.77371,1.48426-1.16156,2.90477-1.16156,2.41144,0,3.61511,.9908,3.61511,2.97108,0,2.66795-.45139,5.14529-1.35549,7.42539-.99088,2.40983-3.14201,3.61507-6.45618,3.61507h-5.94109c-3.78724,0-5.68222-1.63744-5.68222-4.90834V19.85509c0-.29982,.02304-.55861,.06643-.77504,.08538-.64531,.2345-1.18473,.45139-1.61361,.55844-1.1192,1.69978-1.67913,3.42123-1.67913,1.76484,0,2.94816,.55993,3.55137,1.67913,.21552,.42888,.36464,.94646,.45139,1.54809,.04335,.26011,.06643,.51823,.06643,.7757v16.14074c1.54929-2.49388,2.9468-5.18434,4.19655-8.0707l.19384-.38586c.08538-.13039,.15045-.25879,.19384-.38917,.17212-.34417,.3646-.62215,.58016-.83924,.55981-.55795,1.31209-.83725,2.25958-.83725,.99084,0,1.91529,.34549,2.77736,1.0325,.94617,.73069,1.42055,1.59309,1.42055,2.58257,0,.68966-.45271,1.61295-1.35549,2.77716-.81872,1.03316-1.8719,2.1292-3.16368,3.29142-1.2064,1.03382-2.36941,1.93792-3.48766,2.7123-1.12098,.73202-1.87194,1.09935-2.25958,1.09935-.34566,0-.64659-.08737-.90414-.25945-.17349-.08538-.32261-.2151-.45135-.38719v6.5193Z" style="fill: #5e4636;"/>
  <path d="M298.11913,66.79473c0,4.82164-2.5822,7.23279-7.74796,7.23279h-39.90277c-.86211,0-1.65642-.0867-2.38836-.25879-.99088-.17208-1.82991-.49573-2.51849-.96764-1.89498-1.20657-2.84111-3.20737-2.84111-6.00636V24.82763c0-4.82164,2.5822-7.23279,7.74796-7.23279h39.90277c.85938,0,1.65642,.0867,2.38972,.25879,.98952,.17208,1.8489,.49507,2.5822,.96962,1.85027,1.20458,2.77604,3.20538,2.77604,6.00438v41.96711Zm-8.52192-43.51784c0-1.42035-.71162-2.13052-2.13085-2.13052h-34.09182c-.60316,0-1.12098,.25879-1.55065,.77504-.38768,.43153-.58016,.88226-.58016,1.35549v45.00371c0,1.42035,.7103,2.13052,2.13081,2.13052h34.09182c.55848,0,1.07626-.23562,1.54796-.71017,.38768-.4719,.58289-.94712,.58289-1.42035V23.27689Zm-23.24525,11.36477v-4.19817h-9.29725c-.21556,0-.43108-.02052-.64523-.06354-.25891-.04236-.4961-.12906-.71162-.25746-.55848-.30247-.83907-.79754-.83907-1.48587s.28059-1.18473,.83907-1.48455c.17212-.13105,.40936-.21643,.71162-.26011,.21415-.0417,.42967-.06354,.64523-.06354h9.29725v-.51625c0-.21444,.02035-.40837,.0637-.58045,.04476-.55993,.19521-1.03382,.45275-1.42167,.6032-1.11986,1.78652-1.6798,3.55137-1.6798,1.72013,0,2.90618,.5831,3.55137,1.74333,.21552,.38917,.36464,.8624,.45139,1.42167,.04339,.17274,.06507,.36733,.06507,.58045v.45271h9.55616c.25891,0,.47306,.02184,.64659,.06354,.29953,.04368,.55844,.12906,.77396,.26011,.51509,.29982,.774,.79622,.774,1.48455s-.25891,1.1834-.774,1.48587c-.21552,.1284-.45271,.2151-.71026,.25746-.17353,.04302-.38768,.06354-.64659,.06354h-9.61986v4.19817h12.00958c.25755,0,.47306,.0225,.64523,.06354,.3009,.04501,.55981,.1284,.77533,.25746,.51646,.30247,.77533,.7982,.77533,1.4872,0,.68833-.25887,1.16024-.77533,1.41902-.21552,.13039-.45139,.21709-.71026,.26011-.17217,.04104-.38768,.06354-.64523,.06354h-32.15481c-.21552,0-.43108-.0225-.64523-.06354-.25891-.04302-.4961-.12972-.71162-.26011-.55844-.29982-.83903-.79555-.83903-1.48455,0-.68833,.28059-1.1834,.83903-1.48521,.17212-.08538,.40936-.14892,.71162-.19392,.1708-.04104,.38632-.06354,.64523-.06354h11.94451Zm-.0637,23.56612c-1.33513,1.37865-2.77604,2.6706-4.32669,3.87518-1.24843,.99146-2.51849,1.8724-3.80891,2.64743-1.03424,.64664-1.98173,1.16024-2.84247,1.54941-.73061,.34417-1.18332,.51493-1.35549,.51493-1.16301,0-1.74313-.60163-1.74313-1.80687,0-.68833,.38764-1.28996,1.16297-1.8082,3.78724-2.62427,6.67174-5.87465,8.65074-9.74983h-.96784c-.38764,0-.75228-.02052-1.09657-.06486-.81872-.08406-1.53034-.2793-2.13081-.58045-1.59404-.68833-2.39109-2.10736-2.39109-4.26171v-2.97108c0-3.26958,1.89498-4.90437,5.68222-4.90437h18.66097c1.67806,0,2.99019,.3435,3.93768,1.03184,1.16301,.81739,1.74449,2.11067,1.74449,3.87253v2.97108c0,3.27355-1.89498,4.90702-5.68218,4.90702h-2.32465l.0637,.12906c.04335,.04434,.06503,.0867,.06503,.12972,.04339,.12906,.1071,.23628,.19384,.32299,.12877,.30181,.28059,.58111,.45275,.8399,.42967,.73202,.94613,1.48455,1.54933,2.25826,.51778-.51493,1.31346-1.41902,2.38972-2.71097l.9678-.96896c.38768-.2985,.83903-.45139,1.35549-.45139,2.10914,0,3.16368,1.03316,3.16368,3.09882,0,.64664-.2575,1.22775-.77396,1.74466-.68995,.55795-2.06574,1.33364-4.13289,2.32445l.71166,.64531c.29953,.25879,.62215,.49441,.9678,.70885,.86075,.68966,1.84886,1.35681,2.96988,2.00212,.77396,.38719,1.16164,.94712,1.16164,1.67913,0,1.20524-.6032,1.8082-1.80824,1.8082-.21552,0-.73197-.17208-1.54796-.51625-.99084-.43087-2.02508-.9908-3.09998-1.6798-1.33517-.77504-2.60524-1.65597-3.81028-2.64677-1.46258-1.16156-2.73401-2.40916-3.80891-3.74413v6.84361c0,.21577-.02168,.40969-.06507,.58045-.08674,.55993-.23587,1.03184-.45139,1.42167-.64519,1.11986-1.8719,1.67847-3.68014,1.67847-1.72282,0-2.88446-.58177-3.48766-1.74333-.21552-.38917-.36597-.83924-.45139-1.35681-.04335-.21577-.0637-.42955-.0637-.64531v-6.974Zm11.16923-12.3324c0-1.07618-.53813-1.61295-1.61303-1.61295h-10.71921c-1.07626,0-1.61303,.53677-1.61303,1.61295v2.32378c0,1.07751,.53677,1.6156,1.61303,1.6156h10.71921c1.0749,0,1.61303-.53809,1.61303-1.6156v-2.32378Z" style="fill: #5e4636;"/>
  <path d="M330.53421,28.11971c.72924,0,1.33244,.04368,1.80687,.13039,.77396,.1284,1.42055,.34417,1.93697,.64399,1.3772,.86174,2.06715,2.43299,2.06715,4.71508,0,8.52076-1.76621,16.4207-5.29453,23.69585,1.50457,.68966,2.92649,1.39851,4.2603,2.13052l2.06574,1.2251c1.72145,1.07817,2.58356,2.23973,2.58356,3.48667,0,1.12119-.41072,2.17553-1.22671,3.16501-.9041,1.07618-1.98036,1.6156-3.22879,1.6156-1.07622,0-2.15385-.47455-3.22739-1.42167l-2.84247-2.45483c-.51641-.4269-1.20367-.96764-2.06574-1.61295-1.37716,1.8949-2.86279,3.67993-4.45546,5.3584-1.42055,1.42035-2.84111,2.73347-4.2603,3.93872-2.71234,2.19605-4.49886,3.29407-5.3596,3.29407-1.16301,0-1.74317-.60494-1.74317-1.80687,0-.60494,.2345-1.09935,.70893-1.4872,1.03424-.90277,1.80824-1.61427,2.32602-2.13052,.81735-.81739,1.56964-1.63611,2.25958-2.45218,1.6781-2.02396,3.39955-4.7581,5.1644-8.20109-2.49545-1.37799-4.79975-2.54021-6.90752-3.48733-2.23927-1.03184-3.35893-2.45218-3.35893-4.26038,0-.51757,.30094-1.78636,.90414-3.81032,.38764-1.33232,.797-2.9916,1.22808-4.97056,.34429-1.59243,.66686-3.37945,.9678-5.35973,.25891-1.42167,.49337-2.86254,.71026-4.32524l.25755-2.06698h-2.25958c-.21552,0-.43104-.02184-.64523-.06486-.25887-.04368-.49474-.13039-.71026-.25812-.55981-.29916-.83903-.79555-.83903-1.48521,0-.68767,.27922-1.1834,.83903-1.48455,.17217-.0867,.40799-.15157,.71026-.19392,.1708-.0417,.38768-.06486,.64523-.06486h2.64727c.04335-.17208,.06507-.45139,.06507-.83924l.77396-7.55511c.08542-.90277,.15181-1.41902,.19521-1.54941,.34293-1.03316,.98948-1.76319,1.93697-2.19472,.34429-.12972,.73197-.23695,1.16301-.32232,.25618-.04368,.55712-.06685,.90277-.06685l1.09794,.06685c.25891,.08538,.51509,.15024,.77396,.1926,.30094,.0867,.58153,.19392,.84044,.32365,1.46118,.64664,2.19452,1.74333,2.19452,3.29407,0,.34417-.04339,.90277-.13014,1.67649l-1.09657,6.974h5.61847Zm-6.19863,3.55153c0,.04302-.02304,.12972-.06639,.25879,0,.12906-.02035,.23562-.06375,.321l-.71026,3.81032c-.30226,1.63611-.62488,3.1425-.96917,4.51917-.774,3.44431-1.69978,6.86546-2.77604,10.26674-.21552,.73334-.32398,1.22642-.32398,1.48587,0,.2151,.04476,.38586,.1315,.51625,.12877,.2151,.34429,.38785,.64386,.51625l.77533,.25746c.34429,.13039,.77533,.26011,1.29178,.38917l2.00071,.58045c2.54017-6.974,3.81024-14.07574,3.81024-21.30853,0-.68701-.21552-1.16156-.64519-1.41902-.17349-.0867-.36601-.1509-.58153-.19392h-2.51713Zm26.21376,4.64889c0-.73268,.02031-1.29261,.0637-1.67913,.08538-.68833,.25887-1.29062,.51641-1.80687,.64659-1.24826,1.93833-1.87306,3.87535-1.87306,.25891,0,.49337,.02118,.71026,.06486l.51646,.06486c1.0749-1.98028,1.95732-3.81032,2.64727-5.48813,.55844-1.42167,.83903-2.36681,.83903-2.84136,0-.47521-.17349-.79688-.51778-.97028l-.51646-.12906h-18.85208c-.21688,0-.43104-.02118-.64655-.06354-.25755-.0417-.49478-.12972-.70893-.25746-.56117-.30247-.84039-.7982-.84039-1.48587,0-.68833,.27922-1.18473,.84039-1.48521,.1708-.13039,.40799-.21312,.70893-.25879,.21552-.04236,.42967-.0642,.64655-.0642h27.11786c.98948,0,1.82855,.17407,2.51845,.51823,.55848,.25746,1.00987,.62347,1.35549,1.0967l.25755,.64597c.08679,.17142,.15181,.34483,.19521,.51559,.04203,.17341,.0637,.32232,.0637,.45271v.1926c0,1.20723-1.35549,3.38143-4.06646,6.52063-2.41276,2.7573-5.05867,5.38157-7.94313,7.8781v7.36053h10.00754c.21552,0,.43104,.02317,.64655,.06619,.25755,.04236,.49342,.12906,.70893,.25812,.55981,.30181,.84039,.79688,.84039,1.48389,0,.69032-.25755,1.16288-.774,1.42035-.21684,.12906-.47439,.21577-.77533,.25812-.17212,.04434-.38768,.06486-.64655,.06486h-10.00754v22.47009c0,4.13264-2.23791,6.1983-6.71372,6.1983h-10.07398c-.21552,0-.43104-.02317-.64655-.06486-.25622-.04236-.49478-.12774-.70893-.25746-.55981-.30115-.83903-.79754-.83903-1.48587s.27922-1.1834,.83903-1.48587c.1708-.0867,.40936-.15157,.70893-.19326,.17212-.04236,.38764-.0642,.64655-.0642h6.19863c1.20504,0,1.80824-.60295,1.80824-1.80687v-23.30999h-11.94456c-.21552,0-.43104-.02052-.64655-.06486-.25755-.04236-.49615-.10722-.7103-.19392-.25891-.12906-.45139-.29982-.58148-.5136-.17217-.26077-.25755-.5831-.25755-.97095,0-.68701,.28059-1.18208,.83903-1.48389,.1708-.12906,.40936-.21577,.7103-.25812,.17212-.04302,.38764-.06619,.64655-.06619h11.94456v-6.90781Z" style="fill: #5e4636;"/>
  <path d="M386.12513,47.03893c0-1.84989,.4961-3.31525,1.48695-4.39143,1.11693-1.20392,2.8601-1.80687,5.2281-1.80687h45.51992c.21552,0,.43108,.02184,.64659,.06354,.25755,.04368,.49474,.12906,.70889,.25746,.55981,.30247,.84039,.79754,.84039,1.48587,0,.73202-.28059,1.24826-.84039,1.55073-.21415,.0867-.45135,.15157-.70889,.1926-.21552,.04434-.43108,.06486-.64659,.06486h-42.22606c-1.2498,0-1.87194,.62347-1.87194,1.87174v6.974l-.06643,.71017h46.10281c.21415,0,.42967,.02317,.64519,.06552,.25891,.0417,.49474,.1284,.7103,.25614,.55844,.30313,.84039,.7982,.84039,1.48653,0,.73202-.28195,1.2476-.84039,1.54941-.21556,.0867-.45139,.1509-.7103,.19392-.21552,.04236-.43104,.06486-.64519,.06486h-17.11032c.64386,2.1934,1.74317,4.34841,3.29113,6.4551,1.03424-.64399,2.04407-1.39784,3.03491-2.25958,.38768-.30115,.84039-.68701,1.35685-1.16288l1.6144-1.54809,.83903-.64531c.51646-.25879,1.11966-.38917,1.80824-.38917,2.62423,0,3.93905,1.16487,3.93905,3.48667,0,1.12053-.94749,2.15501-2.84111,3.10147l-.83907,.38586c-.43104,.21709-.9041,.40969-1.42188,.58177-1.33381,.55993-2.77604,1.07618-4.32537,1.55073,1.72145,1.24826,3.48766,2.25826,5.2959,3.0333,.7726,.34417,1.69978,.68767,2.77468,1.03184,.64519,.25879,1.74449,.62479,3.29246,1.09935,.86075,.30048,1.29178,.86042,1.29178,1.67913,0,1.20392-.58016,1.80687-1.74317,1.80687-.21552,0-.73193-.06354-1.54929-.19392-1.03424-.17208-2.15389-.40903-3.35757-.71017-1.54933-.38653-3.0783-.83924-4.58424-1.35549-1.85159-.60428-3.59476-1.31313-5.22947-2.13052-2.15385-1.03448-4.06782-2.30194-5.74725-3.81032-1.42055-1.24826-2.64727-2.64743-3.68014-4.19552-.77537-1.12119-1.44227-2.3026-2.00208-3.55153-.21552-.47521-.38764-.92528-.51641-1.35549-.08679-.17208-.15049-.34417-.19248-.5189l-.13014-.3852h-4.90685v10.65327l3.61507-.32299,5.5534-.64531c1.20504,0,1.80824,.60097,1.80824,1.8082,0,.68767-.28059,1.16024-.84039,1.41969-.38768,.21378-1.80687,.64531-4.26166,1.29129-10.97535,2.84003-17.9927,4.26171-21.04796,4.26171-1.33517,0-2.25963-.51757-2.77604-1.54941-.17349-.34417-.30226-.73334-.38768-1.16156-.04335-.17341-.0637-.32497-.0637-.45403v-.321c0-1.93858,.83771-3.01476,2.51576-3.23053,.21556-.0417,.68862-.08406,1.42055-.1284l6.13493-.25746v-11.36344h-6.52125c-.17349,1.2476-.36597,2.36681-.58148,3.35761-.25755,1.24893-.6032,2.43167-1.03287,3.55153-.99088,2.75333-2.43175,5.33656-4.32673,7.74771l-1.8719,2.12986c-.86211,.9041-1.55069,1.37733-2.06578,1.42035-1.205,0-1.8082-.60295-1.8082-1.80687,0-.0867,.0637-.30048,.19384-.64531,.08538-.25879,.23583-.62612,.45271-1.09802l.774-1.744c.60316-1.59177,1.11825-3.33577,1.54929-5.23,.30094-1.59111,.53813-3.29208,.7103-5.10028,.17212-1.42233,.27922-2.9916,.32261-4.71442v-8.45722Zm29.57261-27.18384v-.45139c0-.26011,.02035-.47455,.0637-.64664,.08674-.55861,.23723-1.05434,.45275-1.48587,.64655-1.16024,1.85022-1.74267,3.61507-1.74267,1.72282,0,2.90618,.58244,3.55137,1.74267,.21552,.43153,.36597,.92726,.45139,1.48587,.04335,.17208,.06643,.38653,.06643,.64664v.45139h8.71576c3.78724,0,5.68218,1.63611,5.68218,4.90834v8.71535c0,1.7665-.58148,3.05646-1.74313,3.87386-.94749,.68899-2.25963,1.03316-3.93905,1.03316h-40.22539c-3.83199,0-5.74729-1.63479-5.74729-4.90702v-8.71535c0-1.7665,.6032-3.0558,1.80824-3.87584,.94749-.68701,2.26095-1.0325,3.93905-1.0325h8.91093v-.51625c0-.25945,.02172-.47323,.06507-.64531,.08406-.55993,.2345-1.055,.45139-1.48587,.60184-1.11986,1.78516-1.67913,3.55137-1.67913,1.72013,0,2.86142,.51757,3.42127,1.55007,.21552,.38785,.34293,.8624,.38764,1.41969,.04339,.21775,.0637,.45271,.0637,.7115v.64531h6.45754Zm-14.39798,7.48893v-3.93872h-4.97324c-1.11829,0-1.6781,.58244-1.6781,1.744v2.19472h6.65134Zm-6.65134,3.48733v2.26025c0,1.16288,.55981,1.74267,1.6781,1.74267h4.97324v-4.00292h-6.65134Zm3.61643,20.01525c-.25891,0-.47443-.02184-.64655-.06354-.30094-.0417-.53813-.12906-.70893-.25746-.56117-.25879-.83907-.73202-.83907-1.42167,0-.73069,.2779-1.24893,.83907-1.54941,.21415-.08538,.45139-.14958,.70893-.19392,.21552-.04236,.42967-.06486,.64655-.06486h33.83291c.21552,0,.42971,.0225,.64655,.06486,.25755,.04434,.49342,.10854,.70893,.19392,.25891,.1284,.45275,.30048,.58285,.51625,.16944,.25746,.25755,.5831,.25755,.96896,0,.73334-.28059,1.24826-.84039,1.54941-.21552,.0867-.45139,.15223-.70893,.19392-.21684,.0417-.43104,.06354-.64655,.06354h-33.83291Zm17.43289-27.4413h-6.45754v3.93872h6.45754v-3.93872Zm-6.45754,11.42897h6.45754v-4.00292h-6.45754v4.00292Zm21.17814-7.49025v-2.19472c0-1.16156-.58016-1.744-1.74317-1.744h-4.77671v3.93872h6.51988Zm-6.51988,3.48733v4.00292h4.77671c1.16301,0,1.74317-.57979,1.74317-1.74267v-2.26025h-6.51988Z" style="fill: #5e4636;"/>
  <path d="M57.58131,27.76297c2.29075,9.44538,.95289,17.02961-4.00683,22.75336,.09489,.09663,1.7174,2.386,4.86619,6.86943,2.67031,.66848,5.34062,.62082,8.01363-.14362,3.72082-1.43094,6.24745-3.81429,7.58394-7.15535,.57338-1.81084,.3809-4.05322-.57201-6.7258-2.09964-6.38958-4.4365-12.59251-7.01193-18.60285-.95562-2.66994-2.24333-4.53108-3.86312-5.58079-2.67302-1.71818-5.82183-1.95579-9.44639-.71679-1.14402,.38255-2.0983,.85975-2.86142,1.4316,3.14879,.85909,5.58052,3.48336,7.29794,7.87082" style="fill: #d84d8e;"/>
  <path d="M115.37761,83.44312c-.55034-1.30651-.83092-2.72421-1.24163-4.08896-.05152-.17539-.12201-.3713-.25213-.48713-.07456-.06486-.28871,.01258-.79702,.05891,.08538,.27335,.1979,.52022,.23719,.77901,.42969,2.81025,1.58594,5.30546,3.39686,7.5015,.86751,1.05302,1.89904,1.94653,3.23148,2.4588,.90681,.34814,1.83939,.42425,2.7584-.03111,.15723-.07744,.21959-.34284,.32532-.52088-.17485-.05957-.39037-.21775-.51915-.16546-1.39615,.56986-2.47783-.01588-3.50665-.75319-1.7079-1.22311-2.84924-2.89033-3.63269-4.75148" style="fill: #d84d8e;"/>
  <path d="M113.62563,73.30874c.43238,.89748,.76854,1.85453,1.31751,2.67722,.82414,1.23503,2.00071,2.09743,3.62187,2.20531,.49069,.03111,.99628-.09465,1.4951-.14892,.0122-.08406,.02575-.16811,.0393-.25349-3.00781-.42028-4.52595-2.64479-6.30571-4.55292-.05558,.02449-.11252,.04898-.16807,.0728" style="fill: #d84d8e;"/>
  <path d="M95.33619,89.05832c.08674-.14826,.14096-.19988,.14503-.25548,.01084-.14098,.00407-.28328-.00134-.4269-.16809-4.03204,.65605-7.88869,2.45477-11.58252,.21552-.44278,.30228-.95837,.35649-1.44748,.4446-4.04859,1.46664-7.96745,3.10678-11.74798,1.96138-4.52579,4.65202-8.62335,8.1695-12.24041-4.93668,6.36708-8.13562,13.37086-9.15358,21.19336,3.93632-4.91893,8.91095-8.45259,14.8751-10.74328-.3809,.35078-.81601,.62877-1.2457,.91734-6.84655,4.588-11.7236,10.49972-13.77308,18.29244-.15181,.57846-.21959,1.21186-.14776,1.79695,.98952,8.01907,3.77232,15.00036,8.35387,20.9273,1.12369-3.22987,2.66352-5.66418,4.63034-7.28838,1.43139-1.23834,3.09863-1.95447,5.00851-2.14707v-3.00484c2.0034,.85909,3.81435,1.28798,5.43686,1.28798,2.95631-.28658,5.72557-2.38335,8.30101-6.29626,2.09693-4.00821,2.52662-7.82118,1.28771-11.44882-.85938-2.00344-2.57678-3.67199-5.15221-5.00828l-5.72421-2.71891v.14362l-4.14915-2.43365v-4.15051l13.59418-16.0269c2.0034-2.38468,3.1-4.67272,3.29111-6.86943,.00542-.16811-.01626-.3349-.02033-.50301-.26296,.50698-.50423,1.06096-.92172,1.24959-1.01527,.45668-2.1959,.72143-3.31281,.7565-.58963,.01919-1.18876-.61553-1.78247-.9544,.40799-.54736,.70486-1.24959,1.24975-1.60898,1.26738-.83593,2.75163-.78232,4.21149-.60692,.17622,.16679,.35244,.33424,.53,.50367-.29142-3.01543-2.03459-5.92032-5.24843-8.71005-3.72082-2.95652-7.25049-4.10154-10.58907-3.43504-1.6442,.27533-3.21386,1.09935-4.71167,2.45616-.16265,.96565-.4839,1.91145-.97188,2.82349-1.00578,1.87769-2.47918,3.21001-4.6195,3.6197-.01762,.00397-.03388,.00397-.0515,.00794l-.09218,.10854-.09487-.08273c-1.72418,.26673-3.24232-.17804-4.50293-1.33431-.84581-.77636-1.43003-1.74664-1.88005-2.799-.38632-.90013-.64386-1.84063-.72519-2.83408-.07454-.92594,.03388-1.83666,.33616-2.73678,.12877-.38322-.0637-.74525-.4202-.83924-.35649-.09332-.71977,.10325-.84989,.47323-.42835,1.22245-.52729,2.46277-.3687,3.71038,.14369,1.12317,.47848,2.18347,.9624,3.18883,.78753,1.63479,1.87056,3.00947,3.47951,3.92151,.07998,.04633,.1708,.17208,.15725,.24687-.01491,.08008-.13963,.17738-.23316,.20981-.88513,.31041-1.78923,.4216-2.70011,.31504-2.46292-.28791-4.34028-1.47528-5.61442-3.5191-1.06272-1.70759-1.43683-3.63426-1.34872-5.67411,.07185-1.69303,.58287-3.26826,1.67539-4.65353,1.20367-1.52757,2.75298-2.42174,4.66693-2.63353,.21823-.02449,.34566,.03905,.39852,.25349,.06912,.28195,.15587,.55728,.23721,.83394,.09353,.31835,.35105,.50367,.68045,.49176,.26973-.00927,.56523-.21444,.6086-.48911,.02577-.17076-.03388-.36601-.10166-.52882-.83227-1.9644-2.2867-3.15045-4.48531-3.3993-.29006-.03309-.49339-.22503-.55439-.50434-.07183-.33225,.10031-.56523,.34973-.76709,.10979-.03045,.22094-.06155,.33072-.09266,.01899,.00662,.03795,.01787,.05828,.01919,1.67539,.14627,3.06476,.8346,4.19659,2.00874,.03388,.03508,.0732,.06354,.12741,.10854,.00949-.07876,.01491-.12641,.02033-.17473,.18977-1.80025,1.42326-3.24641,3.19624-3.74281,.81872-.23033,1.63878-.45933,2.45884-.68833,.53542-.14892,.90548,.11649,.91361,.65723,.02709,1.81482-1.30806,3.57337-3.09865,4.08036-.86073,.24356-1.72145,.48249-2.5822,.72341-.07183,.02052-.14366,.03971-.23856,.06685,.06507,.11053,.12606,.18664,.1586,.27467,.06505,.17672,.15452,.16679,.31854,.0867,.71299-.35211,1.45714-.60163,2.23383-.73731,1.77297-.31041,3.36431,.04633,4.69541,1.14171,1.34328,1.10597,2.25958,2.46807,2.80721,4.02675,1.35007-.86174,2.7408-1.4594,4.17624-1.77444v-7.58357c0-3.24244-.66961-5.86804-2.00477-7.87148-2.00204-2.86121-5.62933-4.29281-10.87505-4.29281-4.86619,0-8.49212,1.4316-10.87642,4.29281-1.43003,1.81349-2.14572,4.43644-2.14572,7.87148V58.57181c1.32159-3.65412,3.1393-7.20433,5.46802-10.55929,1.26738-1.82607,2.71234-3.54293,4.07459-5.31075,.91496-.86505,1.82991-1.73076,2.74622-2.59581-.45408,.61288-.89326,1.23503-1.36227,1.83533-6.65813,8.53003-10.29355,17.4896-10.92656,26.87806v5.98585c.28735,4.36032,1.19418,8.80801,2.72723,13.34439,.09895,.28923,.24534,.5639,.39581,.90873m15.47828-30.41305c-.63301,.77768-1.37582,1.53022-2.223,2.08419-1.13182,.7393-2.37481,.70356-2.81397,.14826-.45273-.57251-.08406-1.57787,.83903-2.73546,.94478-.41631,1.86245-.91535,2.84382-1.20789,.40799-.12178,1.1481,.05692,1.38395,.35343,.23314,.29585,.21823,1.05235-.02982,1.35747m2.0468-3.78053c-.90817,.40903-1.78925,.91204-2.73945,1.18473-.44324,.12708-1.28771-.04368-1.47206-.34615-.23043-.37924-.17215-1.18142,.12064-1.53816,.61267-.7426,1.39209-1.41638,2.23249-1.92336,.81464-.4911,1.82718-.88424,2.68522-.06552,.52727,.50566,.09487,1.59574-.82685,2.68847m6.70965,21.72285c1.41241,.80945,2.51713,1.88299,3.35076,3.19744,1.33921,2.11199,2.2352,4.40268,2.31923,6.93495,.02441,.7618-.06236,1.56-.27109,2.30393-.6154,2.19605-2.58085,3.29804-4.78486,2.57992-1.09931-.35807-2.21081-.91932-3.05799-1.65795-3.73706-3.257-5.76758-7.41877-6.18914-12.27548-.10979-1.25753,.30634-2.57926,.54219-3.86459,.06914-.3766,.31041-.74922,.5395-1.08412,.69266-1.01794,1.36361-1.10729,2.25824-.30115,.48119,.43286,.91767,.91006,1.37311,1.36674-.03661,.0503-.0732,.09994-.10844,.15024,1.33786,.88954,2.63099,1.84923,4.0285,2.65008m1.03695-25.56427c-.80788,1.1384-2.00069,1.8082-3.38464,1.96241-.65065,.07214-1.65506-.11649-1.93699-.53412-.26433-.39182,.21281-1.24165,.29413-1.58978,1.40564-1.11457,2.58356-1.74201,4.0163-1.7109,1.29584,.02846,1.73773,.8485,1.0112,1.8724m10.12141-10.55532c1.09523,.31571,1.24163,1.20193,.25484,2.13052-1.28907,.85975-2.87228,1.32835-4.61408,.8121-1.09252-.32497-1.28634-1.24826-.3985-1.96572,1.39207-1.12317,3.02273-1.47859,4.75775-.9769m-9.22002,.26673c.17758-1.4177,2.25553-3.35165,3.77098-3.50917,.96509-.1006,1.56693,.45933,1.27009,1.35284-.25213,.76048-.75501,1.44881-1.19283,2.25164-.8648,.39447-1.66724,.89152-2.54288,1.12317-.90412,.24025-1.4165-.33159-1.30535-1.21848m.70215,2.47667c.52729-.14627,1.52085-.03243,1.69165,.27666,.23992,.43484,.10437,1.28731-.22365,1.72944-.50425,.67907-1.24841,1.25224-2.00071,1.70495-1.18061,.71084-2.35582,.69826-2.81534,.137-.46628-.57185-.10302-1.56927,.8431-2.67986,.83092-.40373,1.62794-.92528,2.50495-1.16818m-6.90213-.08803c.23992-.7982,.75094-1.52757,1.17248-2.34496,.85938-.40572,1.62523-.89748,2.46428-1.13045,.95696-.26474,1.49646,.321,1.35683,1.26746-.2101,1.42035-2.17147,3.29341-3.66115,3.49527-.99086,.13436-1.60627-.37792-1.33244-1.28731m1.10336,2.81687c.90139-.20054,1.38531,.43616,1.20638,1.30783-.29008,1.40976-2.51308,3.18685-4.03934,3.23119-.99765,.02846-1.50595-.52816-1.15896-1.43491,.24942-.65392,.72655-1.2337,1.21858-2.03521,.85804-.34284,1.78247-.84718,2.77333-1.0689m-5.14272-2.93203c.64928-.15487,1.37176-.55464,1.92886-.41101,.86751,.22238,.78482,1.11192,.66149,1.82474-.22501,1.3118-.81735,2.47535-1.98851,3.26495-.35242,.23761-1.02203,.41499-1.32701,.25548-.36599-.1926-.67098-.76378-.69807-1.19333-.08406-1.34821,.56523-2.48462,1.42324-3.74082m-4.87839,4.54763c.28874-.08008,.88784-.44345,1.28773-.30512,.40799,.14098,.81193,.7426,.8824,1.19532,.23721,1.51963-.23719,2.91747-1.37853,4.04263-.89055,.87829-1.90038,.59898-2.14843-.57913-.32125-1.52757,.20739-2.88041,1.35683-4.3537m-4.50291,4.34047c.53813-.55861,1.11285-.56523,1.67132-.0642,1.10743,.99213,1.23619,3.95262,.22906,5.12543-.52998,.61818-1.11149,.69627-1.47747,.37527-1.40022-1.26613-1.50188-4.31862-.42291-5.4365m-2.62557,5.10955c.57472-.52419,1.16299-.46462,1.72416,.17407,.96919,1.10464,1.08439,3.68787,.19926,4.86863-.42698,.5692-.95562,.82534-1.62794,.36336-1.34057-.92064-1.52221-4.28619-.29548-5.40606" style="fill: #d84d8e;"/>
  <path d="M134.71495,105.32547c-1.24163-3.14846-4.05562-5.34186-8.44333-6.58218-4.57884-1.24032-8.10987-.85909-10.58905,1.14435-1.52765,1.24165-2.76926,3.29076-3.72082,6.15263l-.43511,1.21583c2.47783,2.55213,5.33383,4.88253,8.60192,6.96871,.51915,.33027,.98137,.64664,1.35683,.92395,.28737-.22636,.57067-.45536,.87429-.67046,.9502-.67245,2.1742-.99411,3.29111-1.42895,.32803-.12774,.72519-.12774,1.0871-.12046,1.09931,.02118,1.45309,.46595,1.19012,1.49514-.13961,.55133-.33482,1.09339-.50425,1.63876-.05558-.00265-.10979-.00529-.16536-.00728-.14098,1.38858-.35786,2.77914-.40394,4.16838-.04608,1.40579-.43104,2.7123-1.12098,3.93607-1.11151,1.96704-2.54832,3.69648-4.52055,4.9507-.59505,.37792-1.2633,.69098-1.9397,.8902-2.00069,.58972-3.70318-.31438-4.06238-2.25098-.17893-.96565-.20331-2.03455,.02575-2.99756,.85125-3.58529,2.73672-6.58615,5.51413-8.9973-4.26708-1.46535-8.26169-3.42512-12.01368-5.83031-.95291-.6109-1.86243-1.2807-2.7923-1.92204-1.2118-1.15362-2.4236-2.3079-3.63406-3.46152-.30092-.39579-.5693-.81872-.90817-1.18208-4.15186-4.45563-7.21661-9.53341-9.19019-14.92159v33.631c-.09624,1.71752,.38088,3.57734,1.43139,5.58079,1.43139,2.95652,4.48394,4.67404,9.15902,5.1519h13.30815c6.58359-.28592,11.11363-1.66987,13.59552-4.15051,.28601-.57185,.66554-1.14369,1.14539-1.71686,.85802-1.52757,1.57371-3.52837,2.14572-6.01033l1.71742-8.15608c.66688-3.14846,.66688-5.6291,0-7.44193" style="fill: #d84d8e;"/>
  <path d="M119.65362,120.41783c.80379-1.01463,1.80956-1.8863,2.7191-2.82746,.11657-.12046,.24263-.26408,.27922-.413,.02033-.08406-.13148-.20319-.38224-.54934-.18164,.19128-.32938,.38917-.5178,.53941-2.04678,1.63611-3.53782,3.65081-4.51511,5.99842-.46901,1.12648-.74281,2.29466-.58692,3.50255,.10573,.82137,.43916,1.53154,1.18605,1.98293,.12877,.07876,.36462-.00265,.55031-.00927-.02575-.15487,.00815-.3852-.08674-.45403-1.04102-.74327-1.03287-1.8029-.88106-2.89563,.2494-1.81614,1.08981-3.42909,2.2352-4.87459" style="fill: #d84d8e;"/>
  <path d="M126.9491,114.36976c-.52866,.73532-1.14539,1.4316-1.56695,2.21789-.63166,1.17943-.81872,2.43829-.22094,3.66405,.18027,.36998,.49474,.67774,.74687,1.01264,.0732-.02978,.14503-.05957,.21688-.09001-.93394-2.37872,.18977-4.52711,.95289-6.7172-.04201-.02846-.08538-.05824-.12875-.08737" style="fill: #d84d8e;"/>
  <path d="M46.86593,76.43007c-2.44395-1.05169-4.79978-2.26488-6.93332-3.81958-.75772-.55265-1.49104-1.14237-1.99664-1.92601-.21686-.33755-.34158-.73466-.46899-1.11722-.08269-.24489,.02982-.4686,.29821-.56523,.43511-.15686,.87022-.33556,1.32159-.42293,1.17658-.22768,2.36126-.1648,3.54326-.09332,.12604,.00794,.27922,.02978,.37682-.02449,.64113-.35608,1.33108-.30776,2.00882-.26011,1.6659,.11649,3.25045,.55464,4.81198,1.06559,2.97665,.97426,5.81231,2.23112,8.59512,3.59323,.39039-.96764,.64794-1.97234,.73332-3.02403,0-2.38401-2.62557-7.53526-7.87129-15.45505-1.71605-2.38335-3.48361-3.95791-5.29453-4.72302-2.95766-1.43094-6.25013-.95241-9.87472,1.4316-3.7208,2.57529-5.72421,5.6291-6.01021,9.15879-.09624,2.09875,.61946,4.34179,2.14709,6.72514,5.15085,8.01444,8.82286,12.49853,11.01874,13.45161,2.86144,1.24165,6.1539,.76577,9.87472-1.43028,.01897-.01456,.03524-.02978,.05558-.04302-2.1105-.84453-4.25081-1.62552-6.33553-2.52168" style="fill: #d84d8e;"/>
  <path d="M61.69087,121.8117c2.00475-2.93137,4.22774-5.68205,7.17458-7.85096-3.35213,.7757-6.57411,4.3365-7.17458,7.85096" style="fill: #d84d8e;"/>
  <path d="M87.77597,69.40643V12.16429c0-3.24244-.66825-5.86671-2.0034-7.87016-2.00206-2.86254-5.62933-4.29414-10.87505-4.29414-4.86621,0-8.49348,1.4316-10.87642,4.29414-1.43005,1.81349-2.14709,4.43644-2.14709,7.87016v2.00477c1.02611,.22238,1.97223,.58574,2.84651,1.08015,.00407-.32696,.02304-.65855,.07049-.99742,.26567-1.84063,1.1481-3.42578,2.42497-4.81634,1.05864-1.15362,2.35855-1.96373,3.95531-2.29334,1.76077-.36336,3.39008-.07347,4.87026,.91601,.16807,.11252,.21959,.23364,.12877,.41763-.11793,.23893-.21959,.48647-.32803,.73069-.12335,.28063-.0515,.56523,.18842,.75253,.19653,.15421,.52727,.18532,.72112,.01588,.12064-.10524,.19519-.27798,.24263-.43352,.58285-1.88563,.26026-3.59058-1.14675-5.07513-.18569-.19657-.21552-.45271-.09216-.68701,.14639-.27798,.40665-.3402,.70349-.33358,.09624,.04368,.19248,.0867,.28871,.13171,.01086,.01588,.01762,.03375,.03119,.04832,1.09794,1.10067,1.6713,2.41446,1.77161,3.91886,.00271,.04368,.01491,.08803,.02575,.15223,.05287-.0503,.0854-.08008,.11793-.11119,1.20638-1.16156,2.93869-1.44947,4.48936-.74459,.71706,.32563,1.43276,.65061,2.14845,.97756,.46899,.21378,.57201,.62215,.25618,1.00867-1.0627,1.29989-3.05392,1.74863-4.62221,1.04044-.75365-.33887-1.50459-.68304-2.25687-1.02588-.06236-.02846-.1247-.05692-.20875-.09465-.01897,.11781-.02168,.20716-.0515,.28857-.05965,.16414,.01084,.21179,.17485,.25084,.71299,.17605,1.38802,.44345,2.01832,.80945,1.43952,.83593,2.35177,2.03588,2.64048,3.60249,.43106,2.33305-.10708,4.5099-1.42597,6.49548-.94342,1.42035-2.25958,2.48329-3.90244,3.13787-1.82989,.72937-3.66386,.79423-5.42194-.18929-1.49781-.83924-2.36668-2.10272-2.57949-3.74281-.13554-1.05434,.02848-2.0875,.33753-3.10014,.26296-.86571,.63979-1.68575,1.17385-2.43564,.49881-.69958,1.11827-1.27937,1.86787-1.73605,.31988-.19525,.3985-.56589,.20195-.84453-.19519-.27798-.5693-.35542-.88242-.17076-1.03016,.60957-1.83939,1.42697-2.46968,2.40453-.56659,.87961-.96104,1.83004-1.21858,2.82878-.24127,.94447-.35513,1.88563-.2955,2.82216,.90954,1.46535,1.65369,3.22854,2.223,5.30413,2.09693,5.53313,4.29283,11.35352,6.58224,17.4585,1.23892,3.52969,1.47747,6.63116,.7157,9.30109-1.7174,4.57874-5.24843,7.87148-10.58905,9.87492-1.81364,.66848-3.72082,1.00139-5.72557,1.00139v.85843c1.23892,2.38666,1.76484,4.72236,1.57508,7.01305-.03661,.31571-.08269,.62744-.13692,.93653,1.77705-.72937,3.5541-1.46204,5.33249-2.19009,.12199-.0503,.28871-.07876,.40528-.04104,1.10338,.35939,2.20132,.73334,3.35213,1.12119-.10302,.09928-.13419,.13436-.17215,.16149-2.60253,2.00212-5.20643,4.00424-7.80217,6.01298,2.86549,1.57059,5.68083,3.2206,8.46229,4.9229,.42562,.26143,.7577,.2985,1.19281-.00265,.65607-.45139,1.35278-.8485,2.03188-1.27011,2.17691-1.34754,4.35112-2.69641,6.53209-4.038,.11115-.06751,.30226-.13171,.39852-.0867,1.38258,.64531,2.75434,1.30783,4.15862,1.9816-.08269,.08803-.12741,.13965-.17485,.18731-1.57508,1.58581-3.15016,3.17162-4.72523,4.75744-.92038,.92726-1.84346,1.85188-2.76111,2.78311-.33482,.3402-.29145,.66384,.11113,.90542,.19384,.11649,.39445,.22503,.58965,.33887,.52456,.30644,1.04778,.61354,1.55744,.91204-.34293,.28328-.66688,.54206-.97866,.8121-.15723,.13568-.29277,.15554-.49881,.08803-5.32705-1.74201-10.65683-3.47277-15.98524-5.20816-.24805-.07942-.49203-.1423-.72112,.05295-.24263,.2065-.1979,.44609-.12199,.70223,.3592,1.21451,.71028,2.43167,1.06133,3.6475,.22909,.78894,.4541,1.57787,.69673,2.42108-.18298-.06354-.31176-.10126-.43377-.15157-1.11014-.45139-2.223-.89748-3.32499-1.36674-.21959-.09332-.43377-.24753-.5815-.4269-1.66319-2.01801-3.3223-4.04064-4.98278-6.06262-.25482,.18532-.51373,.36866-.78074,.54868-4.58018,2.95917-9.11294,3.62698-13.59552,2.00344-.66827-.28592-1.28773-.57185-1.86108-.85777-2.00206,1.42961-2.91023,3.62698-2.71912,6.58218,.28737,3.72163,1.66861,7.0607,4.15051,10.01656,1.23892,1.4316,2.76655,2.386,4.57882,2.8632,2.00477,.57185,4.34162,.3349,7.0133-.71613l14.45354-6.00967,1.7174,3.72031-14.45354,6.15263c-.09624,0-.14369,.0503-.14369,.14362-4.10307,8.2997-6.05902,13.64421-5.86789,16.02756,.66688,3.52969,3.4348,6.62983,8.30098,9.30242,4.86619,2.28937,8.96655,2.66927,12.30645,1.14435,4.00683-1.71752,8.44333-9.92125,13.30951-24.61318,3.81435-13.45293,5.62799-26.37902,5.43686-38.78158m-14.50233,43.84546c-.13285,.02581-.26433,.05162-.39718,.07214-1.50593,.23695-2.42902,1.11258-2.94682,2.4224-.27922,.70885-.34429,1.46271-.43104,2.20664-.22367,1.91542-1.14539,3.43637-2.83025,4.52843-.32398,.21047-.6642,.40969-1.02476,.56126-.34293,.1423-.7062,.24687-1.07219,.32431-.12877,.02714-.26296,.03111-.39445,.04699-1.03695,.12774-2.05898-.00662-3.08101-.14495-.19248-.02581-.30497-.1059-.38632-.2707-.26567-.53809-.43374-1.10067-.51915-1.68774-.17756-1.22973-.44189-2.78709-.10437-3.9963,.02439-.08406,.0515-.16348,.07862-.24621,.58556-1.65795,.78211-1.81548,2.07931-2.83606,.37141-.29387,.69807-.52552,1.87871-.98815,.20061-.07744,.82548-.25482,1.26332-.36336,.14503-.04302,.29413-.07942,.4595-.10524,.97732-.14693,1.89362-.34748,2.89398-.3402,1.65096,.01059,3.25723,.30181,4.84586,.70025,.01897,.00463,.03524,.02184,.06778,.04236-.13692,.02714-.25755,.05162-.37953,.07413" style="fill: #d84d8e;"/>
  <path d="M15.28772,127.29387c.29955,.75121,.65334,1.44815,1.08032,2.07294,2.25417,2.7573,5.56968,4.30605,9.94519,4.64955-.64521-.47985-1.285-.963-1.918-1.45476-2.79637-2.17156-5.80961-3.96321-9.1075-5.26773" style="fill: #d84d8e;"/>
  <path d="M12.39987,82.56086c3.9187,2.40255,6.97667,5.64036,9.77304,9.13761-1.07219-4.42187-5.46532-8.56908-9.77304-9.13761" style="fill: #d84d8e;"/>
  <path d="M38.707,109.11461c-.4541,1.14435-1.8882,4.16309-3.46735,4.51983-.17485,.19194-.34293,.38851-.52998,.57582-.18842,.18995-.42562,.33622-.62759,.51493-.84312,.74856-1.31482,1.6798-1.3094,2.76392,.01762,3.2345,.07998,6.46966,.12606,9.79484,.66554-.58045,1.49644-.84718,1.74586-1.78503,.39987-1.51036,.85125-3.02138,1.44767-4.47085,1.21856-2.96579,3.45105-4.77928,6.60663-5.46629v-9.09128c-1.09389-.48249-2.11184-1.17149-3.06476-2.03323-.02712,1.59375-.33616,3.18552-.92714,4.67735" style="fill: #d84d8e;"/>
  <path d="M36.44563,126.23622c-1.06406,.84321-2.12812,1.68641-3.2071,2.51308-.22365,.17274-.33072,.33358-.3253,.61818,.02575,1.41108,.04201,2.82084,.0637,4.2306,3.11762-.68171,5.60629-2.0789,7.43213-4.23192,1.3609-1.87174,2.11184-4.31862,2.25824-7.32876-1.43139,.71944-2.80587,1.56-4.12069,2.51969-.72517,.52882-1.39749,1.12251-2.10099,1.67913" style="fill: #d84d8e;"/>
  <path d="M6.83112,43.82958c.51236-.60163,1.07353-1.11126,1.64962-1.51632-.80517,.01191-1.6781-.1006-2.56729-.35939-.85125-.24687-1.61982-.60163-2.27586-1.02059-.78889-.46529-1.56424-1.14568-2.27315-2.09809,.45002,4.00821,1.90987,7.00908,4.41346,8.96222-.2616-.20319-.4961-.43484-.73466-.6612,.12062-.43418,.27109-.83659,.45-1.20127,.3172-.71017,.76314-1.42895,1.33788-2.10537" style="fill: #d84d8e;"/>
  <path d="M1.20071,36.1229c1.25788-.59038,3.44971-1.34821,5.70251-.84519,.29415,.0556,.591,.12046,.89057,.20849,.8309,.24092,1.5805,.58442,2.22571,.98948-.14639-.63009-.22909-1.3118-.22909-2.02926,0-.31174,.01899-.61553,.04879-.91336,.22367-3.53366,3.26538-6.11491,3.26538-6.11491,1.78923,1.54544,2.70826,3.11338,3.0783,4.55888,.21823,.74658,.34429,1.58184,.34429,2.46939,0,.60626-.05828,1.1887-.16536,1.73539,.52322-.27666,1.09794-.51559,1.71874-.69561,.29957-.08803,.59642-.15289,.89055-.20849,1.6144-.36071,3.19489-.07214,4.42702,.33689,.13285-1.15296,.42969-2.14508,.84176-2.98829,.38361-.85975,.92445-1.73142,1.61979-2.55014,.62082-.72871,1.30128-1.34556,1.99935-1.83666-.97595,.0139-2.03457-.12178-3.10949-.43484-1.03287-.29982-1.96274-.72937-2.75705-1.23635-1.55609-.91734-3.06881-2.51705-4.26164-5.12212,0,0,4.03121-2.6653,8.21695-1.72944,.35649,.06619,.71706,.14627,1.07897,.25151,1.00578,.2932,1.91529,.70753,2.69606,1.19863-.17622-.76312-.27788-1.58978-.27788-2.45748,0-.37726,.02441-.74459,.05828-1.10597,.27246-4.2809,3.95667-7.40818,3.95667-7.40818,2.16742,1.8724,3.28162,3.77259,3.72759,5.52255,.26567,.9041,.41883,1.91674,.41883,2.9916,0,.73466-.07183,1.43954-.20061,2.10339,.63301-.33622,1.32974-.62479,2.08338-.84453,.36191-.10524,.72112-.18532,1.07761-.25151,.72248-.16149,1.43952-.21047,2.13218-.18995v-5.64433c0-3.52837-.76449-6.3909-2.28941-8.58695-2.57678-3.1478-6.53616-4.72236-11.87812-4.72236-5.43822,0-9.49382,1.57456-12.16413,4.72236-1.43005,2.09941-2.14574,4.96129-2.14574,8.58695v8.58563c-3.7208,0-6.53614,.71547-8.4433,2.14707-2.95768,2.09941-4.48531,5.91635-4.5802,11.44816,0,.02846,.00407,.05427,.00407,.08273,0-.00794-.00134-.01456-.00134-.02317" style="fill: #d84d8e;"/>
  <path d="M35.46048,26.65965c.75907,.59964,1.90175,.16282,2.10506-.71944,.17756-.76974-.22094-1.40049-1.0112-1.59706-.69944-.17473-1.40157,.22636-1.65775,.92329-.0461,.12178-.18164,.25349-.3077,.29982-.2318,.08273-.48798,.10391-.75501,.15421-.03524-.48779-.12062-.8849,.44326-1.21451,.65063-.38189,.6425-1.3621,.10437-1.881-.55575-.53809-1.47476-.5328-2.01019,.01059-.53677,.54471-.47848,1.41638,.12741,1.89887,.44055,.35012,.51646,.63207,.30363,1.17811-.31176-.06619-.63301-.11649-.93934-.20981-.10302-.03309-.20604-.16414-.24127-.27136-.19384-.59104-.71164-.98683-1.33515-.99213-.57203-.00529-1.14946,.39314-1.31753,.91072-.18029,.55331,.05014,1.19134,.53811,1.49249,.52188,.31968,1.24707,.26143,1.73502-.12774,.09897-.0781,.24263-.17341,.35244-.15951,.32803,.04037,.64792,.12972,1.0139,.20981-.17756,.26408-.33616,.4719-.46223,.69297-.19248,.33622-.40799,.54471-.87971,.5189-.51373-.02846-.98544,.40373-1.13047,.88623-.1586,.52485,.02846,1.1053,.45273,1.40843,.5178,.3713,1.24299,.37329,1.73639,.00596,.46223-.34483,.62488-1.02389,.39716-1.57258-.05558-.13171-.10844-.32034-.04881-.4269,.18435-.32828,.42293-.6281,.68182-.99941,.18164,.2621,.31041,.4858,.47714,.68039,.22094,.25945,.26567,.4911,.12606,.82468-.27924,.67311,.11115,1.39056,.81735,1.61957,.55981,.18135,1.07895,.092,1.48155-.31571,.3985-.4044,.48932-.90807,.26296-1.41902-.22909-.51691-.67774-.76511-1.27011-.79026-.14637-.00728-.35649,.00132-.42562-.08008-.25618-.30909-.46764-.65325-.72382-1.02654,.51238-.11252,.87971-.29122,1.35956,.08803" style="fill: #d84d8e;"/>
  <path d="M14.7561,41.00874c.62622,.49639,1.56964,.13568,1.73773-.59369,.14774-.63538-.183-1.15759-.835-1.31842-.57743-.14362-1.15622,.18797-1.36903,.7618-.03659,.10126-.1491,.20981-.25347,.2482-.19113,.06751-.40258,.08538-.62217,.12708-.02982-.40241-.10031-.72937,.36462-1.00272,.53813-.31504,.53135-1.12384,.08674-1.55338-.4595-.44345-1.21722-.43815-1.65911,.00927-.4446,.45006-.39579,1.1695,.10439,1.56794,.36326,.28923,.42696,.52221,.25076,.97227-.25755-.05427-.52322-.09663-.77535-.17341-.08404-.02714-.16944-.13568-.19926-.22371-.15858-.48845-.58692-.81475-1.10199-.82004-.47306-.00397-.94886,.3263-1.08847,.75319-.1491,.45734,.04203,.98418,.44597,1.23106,.42967,.26541,1.0288,.21577,1.43139-.10457,.08133-.06486,.20061-.14362,.29006-.13237,.27109,.03375,.53542,.10788,.83905,.17341-.14774,.21908-.27788,.38851-.38361,.57185-.15723,.27798-.33616,.45006-.72653,.42822-.42291-.02317-.8133,.3349-.93258,.73334-.13012,.43219,.02441,.91072,.37412,1.16156,.42698,.30644,1.02611,.30776,1.4341,.00529,.3809-.2846,.51509-.84585,.32667-1.29857-.04472-.10788-.08945-.26408-.04066-.35211,.15318-.27136,.34973-.5189,.56388-.82534,.15047,.21643,.2562,.40109,.3931,.56126,.18298,.2151,.21959,.40506,.10573,.68171-.23045,.5553,.09082,1.14634,.67367,1.33629,.46223,.15024,.89055,.07611,1.22264-.26011,.3294-.33358,.40394-.74989,.21688-1.17149-.1884-.4269-.55846-.63141-1.04778-.65325-.12064-.00529-.29413,.00132-.35107-.06619-.21146-.25482-.38632-.53941-.59776-.84585,.42291-.09332,.72653-.24158,1.12235,.07148" style="fill: #d84d8e;"/>
  <path d="M50.2831,24.61451c-.71706-.56523-1.55204-1.00669-2.49409-1.331-.99086,1.55338-2.11728,2.60706-3.26673,3.2848-.79431,.50698-1.72418,.93653-2.75571,1.23569-.93663,.27269-1.85837,.41101-2.72452,.43418,.69807,.49176,1.37853,1.10861,1.99933,1.83798,.69673,.81872,1.23757,1.69039,1.62118,2.5508,.79295,1.62155,1.17519,3.79112,.73737,6.62189,0,0-4.83231,.00529-7.81301-3.08095-.26026-.25217-.51646-.51691-.76043-.80416-.55981-.65723-1.01661-1.34887-1.37582-2.03985-.35786,.69098-.81601,1.38262-1.37447,2.03985-.24534,.28725-.50016,.55199-.76178,.80416-2.28399,2.36614-5.64966,2.91284-7.10002,3.03991-.62761,.75783-1.29586,1.32438-1.97765,1.72546-.65607,.41896-1.42326,.77305-2.27586,1.02059-.77127,.22503-1.53307,.33887-2.24877,.35807,.57609,.40638,1.13862,.91469,1.65098,1.5183,.57472,.6751,1.02069,1.39454,1.33786,2.10471,.6547,1.3396,.97053,3.12993,.60862,5.46563,0,0-3.98921,.00529-6.44939-2.54154-.21554-.20849-.42564-.4269-.62761-.66451-.46491-.54603-.83903-1.12053-1.13589-1.69436-.29684,.57383-.67096,1.14832-1.13453,1.69436-.20197,.23761-.41343,.45602-.62895,.66451-.32261,.3349-.67367,.62347-1.03831,.87564,1.14675,.23297,2.40463,.35211,3.78316,.35211v3.72097c-3.81704,10.01722-7.4416,17.6511-10.87642,22.89699-3.7208,5.1519-4.19928,9.8736-1.43137,14.16641,2.86279,4.00821,6.91567,6.86943,12.16413,8.58695l.28601,.14362v21.32176c0,1.12781,.08133,2.1742,.22772,3.15574,.78618-.25812,1.57913-.48978,2.38836-.63207,4.36737-.76974,8.02989,.52353,10.86829,3.7673,1.71469,1.95976,2.47239,4.26965,2.42089,6.79464v.00993c.49476-.03574,.96782-.09928,1.43681-.16414-.05828-4.1942-.11928-8.38905-.16944-12.58325-.00271-.28725-.0854-.49044-.31041-.68304-.46357-.39711-.83361-.95969-1.36903-1.19532-.52593-.23099-1.21451-.1198-1.82447-.20054-.25891-.03442-.51238-.07744-.76314-.12112-1.24299-.12178-2.4697-.35078-3.64219-.75452-1.99393-.68502-3.83332-1.90218-4.93533-3.61706-.71162-1.10597-1.09387-2.37011-1.43139-3.62434-.52456-1.94255-.96511-3.90629-1.31888-5.8826,3.93768,.75783,7.6856,2.39262,10.85472,4.73162,1.3365,.98815,2.60795,2.14839,3.23824,3.63823,.45544,1.07486,.54221,2.2298,.591,3.39666,.00407,.02449,.00949,.04765,.01355,.07214,.03119,.18135,.09624,.36733,.07591,.54471-.0637,.58177,.21417,.97756,.78213,1.31379-.00407-.27401,.00271-.51228-.0122-.74856-.06912-1.11258,.08674-2.18612,.72112-3.14316,.29821-.45139,.67638-.86174,1.05864-1.25621,.18162-.18863,.28193-.35409,.27515-.6142-.00542-.19525-.00813-.39182-.01084-.58707-.78618-1.34622-.56659-3.3265-.31041-4.73758,.5056-2.78245,2.00477-5.30281,3.06205-7.94428-.46086-.83394-.90139-1.71885-1.3094-2.69045-2.28941-6.01033-2.38565-10.73269-.28601-14.16774,.37953-.85909,1.0017-1.62089,1.85974-2.28937-7.44162-9.44538-10.97131-16.36047-10.58907-20.74992,.09353-4.57874,2.86144-8.72925,8.29964-12.45022,4.57884-2.86254,9.11023-3.52837,13.59554-2.00344,.95289,.38255,1.95325,1.00205,3.00511,1.85982,2.57541-2.57529,3.95802-6.24728,4.14915-11.01862,0-5.43849-1.52629-9.34875-4.57884-11.73475M24.02464,90.86652c-.05558,.7618-.21825,1.50374-.50696,2.22583-.08811,.22106-.2223,.33755-.46357,.39579-1.28094,.30644-2.56187,.60891-3.88347,.57648-.16807-.00397-.33751,.00794-.50423-.01125-.46901-.05096-.93665-.13965-1.38397-.2793-.47035-.14627-.91765-.36005-1.34734-.58773-2.22707-1.1834-3.52835-3.01344-3.98108-5.43452-.1762-.94182-.3253-1.89755-.74279-2.77054-.76993-1.6103-2.01561-2.615-3.94176-2.72553-.1708-.0086-.33887-.02714-.50831-.04236-.15589-.01324-.31176-.02978-.48661-.04633,.0393-.03111,.05828-.05361,.08133-.06354,1.97494-.7115,3.97969-1.28731,6.06715-1.51102,1.26467-.13568,2.44122,.00397,3.69098,.06883,.2101,.01059,.4026,.03905,.58965,.07611,.56252,.08406,1.36903,.23033,1.62929,.30512,1.53576,.44146,1.96952,.6976,2.46563,1.02456,1.73095,1.14237,1.99257,1.31908,2.88312,3.36687,.04066,.10193,.08269,.20054,.11928,.30512,.53542,1.5044,.34024,3.52969,.22367,5.12742" style="fill: #d84d8e;"/>
  <path d="M47.75079,23.26829c-.32532-.11053-.66285-.20716-1.01256-.28989,.34971,.08273,.68858,.17936,1.01256,.28989" style="fill: #d84d8e;"/>
  <path d="M47.75079,23.26829c.01355,.00463,.02439,.00993,.03795,.01522,0-.00132,.00134-.00265,.00271-.00397-.01357-.00397-.02848-.00662-.04066-.01125" style="fill: #d84d8e;"/>
</svg>