<?xml version="1.0" encoding="utf-8"?>
<!-- Generator: Adobe Illustrator 16.0.0, SVG Export Plug-In . SVG Version: 6.00 Build 0)  -->
<!DOCTYPE svg PUBLIC "-//W3C//DTD SVG 1.1//EN" "http://www.w3.org/Graphics/SVG/1.1/DTD/svg11.dtd">
<svg version="1.1" id="圖層_1" xmlns="http://www.w3.org/2000/svg" xmlns:xlink="http://www.w3.org/1999/xlink" x="0px" y="0px"
	 width="43.445px" height="44.027px" viewBox="0 0 43.445 44.027" enable-background="new 0 0 43.445 44.027" xml:space="preserve">
<path fill="#FFFFFF" d="M30.118,28.317c0.094,0.1,0.188,0.204,0.289,0.305c3.427,3.428,6.854,6.854,10.28,10.282
	c0.872,0.874,0.944,2.058,0.186,2.892c-0.739,0.813-1.915,0.914-2.766,0.219c-0.313-0.258-0.592-0.561-0.879-0.848
	c-3.231-3.23-6.465-6.465-9.696-9.695c-0.093-0.094-0.188-0.182-0.291-0.28c-3.986,2.944-8.411,4.041-13.271,3.049
	c-3.985-0.814-7.244-2.882-9.68-6.146c-4.956-6.641-4.18-15.797,1.784-21.502c5.826-5.576,15.091-5.937,21.329-0.938
	C33.858,10.822,35.846,20.798,30.118,28.317 M5.061,18.342c-0.013,6.698,5.467,12.19,12.19,12.22
	c6.701,0.028,12.205-5.447,12.23-12.172c0.026-6.724-5.473-12.236-12.204-12.237C10.568,6.152,5.073,11.634,5.061,18.342"/>
</svg>
