<?xml version="1.0" encoding="utf-8"?>
<!-- Generator: Adobe Illustrator 16.0.0, SVG Export Plug-In . SVG Version: 6.00 Build 0)  -->
<!DOCTYPE svg PUBLIC "-//W3C//DTD SVG 1.1//EN" "http://www.w3.org/Graphics/SVG/1.1/DTD/svg11.dtd">
<svg version="1.1" id="圖層_1" xmlns="http://www.w3.org/2000/svg" xmlns:xlink="http://www.w3.org/1999/xlink" x="0px" y="0px"
	 width="43.446px" height="44.027px" viewBox="0 0 43.446 44.027" enable-background="new 0 0 43.446 44.027" xml:space="preserve">
<path fill="#8D654F" d="M30.118,28.317c0.094,0.1,0.189,0.204,0.289,0.305c3.427,3.428,6.855,6.854,10.281,10.282
	c0.872,0.874,0.944,2.058,0.185,2.892c-0.739,0.812-1.915,0.914-2.765,0.218c-0.313-0.257-0.592-0.56-0.879-0.847
	c-3.232-3.231-6.465-6.465-9.697-9.696c-0.092-0.093-0.188-0.181-0.291-0.28c-3.986,2.945-8.411,4.041-13.271,3.049
	c-3.985-0.814-7.244-2.882-9.68-6.145c-4.956-6.641-4.179-15.797,1.784-21.502c5.827-5.577,15.091-5.937,21.33-0.939
	C33.858,10.822,35.846,20.798,30.118,28.317 M5.061,18.342c-0.013,6.698,5.467,12.19,12.19,12.219
	c6.701,0.029,12.205-5.447,12.231-12.172c0.026-6.723-5.473-12.236-12.204-12.237C10.568,6.152,5.073,11.634,5.061,18.342"/>
</svg>
