<svg xmlns="http://www.w3.org/2000/svg" id="_&#x5716;&#x5C64;_1" data-name="&#x5716;&#x5C64; 1" viewBox="0 0 568.91113 332.64754"><g><path d="M282.56641,332.64754c-5.50488-10.34961-15.62988-18.02344-27.08301-20.52637l-.14551-.03223c-1.42285-.31055-3.03516-.66211-4.06348-1.9082-.8252-1.00195-1.00195-2.23535-1.17188-3.42773-.04297-.29785-.08496-.59473-.13867-.88574-1.14062-6.2002-7.70215-9.69434-13.49023-12.77734l-1.41895-.75879c-1.55176-.83496-3.27344-1.875-4.07227-3.64648-.79785-1.76562-.43262-3.63379-.0791-5.43945,.2959-1.5166,.57617-2.94824,.18457-4.25195-.60547-2.0127-2.57031-3.15137-4.65039-4.35645-.80762-.46777-1.64258-.95117-2.39844-1.49316-3.02832-2.17188-4.86719-5.44043-6.64453-8.60156-.91895-1.63477-1.86914-3.3252-2.96582-4.82227-4.67871-6.38574-12.77148-9.92383-20.64551-9.01465l-.56934,.06592-.18359-.54346c-2.4209-7.18213-1.59961-15.3877,2.19727-21.94971,.48047-.83008,1.00977-1.64209,1.52246-2.42725,1.10547-1.69336,2.14941-3.29297,2.77441-5.10303,1.49414-4.32422,.3623-9.63525-3.02734-14.20703-2.67676-3.61084-6.09473-6.71777-9.1416-8.31104-1.28223-.6709-2.25391-.65869-3.71191,.03906-4.91211,2.35156-6.13867,7.09131-7.4375,12.10986-.17285,.66699-.3457,1.33545-.52734,1.99951-3.93262,14.3291-15.82227,23.95264-27.31934,33.25879-7.20605,5.83203-14.65625,11.86328-20.22266,19.04688l-1.19238,1.54785c-6.14746,8.00293-13.79199,17.96582-23.27344,14.43164-.83105-.31055-1.63965-.72559-2.4209-1.12695-1.69629-.87207-3.29297-1.69922-4.95508-1.40137-1.14648,.20215-2.17383,.92578-3.26172,1.69238-1.40918,.99219-2.87695,2.00586-4.69238,1.93262-2.14746-.09961-3.61426-1.6377-5.03223-3.12402-.44824-.46973-.87109-.91309-1.31152-1.31055-5.03711-4.53223-13.43359-2.61816-18.77441,1.48535-3.12988,2.40234-5.77441,5.48242-8.33203,8.46191-2.02246,2.35645-4.11426,4.79297-6.46094,6.92285-12.31641,11.18066-29.89648,13.08984-48.3457,14.18555l-.08398-1.41406c18.18652-1.08008,35.50293-2.9502,47.47656-13.82031,2.28125-2.07129,4.34375-4.47363,6.33887-6.79785,2.60449-3.0332,5.29785-6.16992,8.54395-8.66309,5.7959-4.44922,14.98047-6.45801,20.58496-1.41309,.48145,.43262,.94336,.91699,1.38965,1.38477,1.28223,1.34375,2.49219,2.61328,4.07324,2.68652,1.31934,.05273,2.54102-.78125,3.80957-1.6748,1.16699-.82227,2.37402-1.67285,3.83203-1.93066,2.125-.375,4.01758,.59668,5.84863,1.53711,.74512,.38281,1.51562,.77832,2.26953,1.05957,8.49023,3.16406,15.79102-6.33398,21.65332-13.9668l1.19531-1.55176c5.66797-7.31445,13.18359-13.39844,20.45117-19.28125,11.84473-9.5874,23.0332-18.64258,26.84473-32.53223,.18066-.65723,.35156-1.31885,.52246-1.97949,1.32324-5.11182,2.69043-10.39697,8.19824-13.0332,1.8584-.89014,3.30078-.89502,4.97949-.0166,3.22754,1.6875,6.8252,4.94824,9.62402,8.72314,3.66895,4.94775,4.87598,10.74707,3.22852,15.51367-.68164,1.9751-1.82324,3.72363-2.92676,5.41455-.50293,.77002-1.02246,1.56592-1.4834,2.36279-3.50195,6.05127-4.33105,13.5791-2.25488,20.25,8.17871-.73242,16.5127,3.01123,21.37207,9.64404,1.14746,1.56641,2.11914,3.29395,3.05859,4.96484,1.78027,3.16602,3.46191,6.15625,6.23535,8.14453,.7002,.50195,1.50488,.96875,2.28223,1.41895,2.22754,1.29004,4.53125,2.625,5.29785,5.1748,.49219,1.63965,.16504,3.31348-.15137,4.93262-.3252,1.66113-.63184,3.22949-.02051,4.58398,.61719,1.36816,2.10645,2.25586,3.45312,2.98145l1.41309,.75586c6.07129,3.2334,12.95312,6.89844,14.21875,13.77246,.05664,.30859,.10156,.62402,.14746,.94043,.14844,1.0459,.29004,2.03223,.8623,2.72656,.71582,.86816,2.01465,1.15234,3.27148,1.42578l.14648,.03223c11.85449,2.59082,22.33398,10.5332,28.03223,21.24512l-1.25195,.66602Z" style="fill: #7a512d;"></path><path d="M266.50098,241.28377l-1.05664-.94434c6.57422-7.35938,14.02637-15.70068,23.73047-20.15039,.34668-.15967,.69824-.31445,1.04883-.46924,1.47852-.65234,2.87402-1.26807,4.04785-2.22412,1.12402-.9165,1.98242-2.09717,2.8916-3.34668,.71387-.98242,1.45215-1.99756,2.33887-2.88672,.83594-.83838,1.78418-1.54443,2.70117-2.22705,1.11133-.82715,2.16016-1.6084,3.01074-2.59521,3.66797-4.25684,2.41602-10.18213,1.0918-16.45508-1.31445-6.22266-2.67383-12.65674,1.0957-17.54004,1.02539-1.3291,2.33789-2.36523,3.60742-3.36719,1.24512-.98291,2.4209-1.91113,3.33789-3.08594,3.32715-4.26611,2.19629-10.49658,.02832-14.90479-1.17871-2.39502-2.71484-4.66895-4.2002-6.86768-1.55273-2.29639-3.15723-4.67139-4.3916-7.22803l1.27539-.61621c1.19043,2.46436,2.7666,4.7959,4.29004,7.05078,1.5127,2.23828,3.07715,4.55322,4.29785,7.03516,2.35742,4.79395,3.54785,11.61963-.18262,16.40283-1.02148,1.30957-2.32031,2.33496-3.57715,3.32666-1.25684,.99219-2.44434,1.92969-3.36426,3.12061-3.36816,4.36475-2.13574,10.20166-.83008,16.38086,1.33789,6.33447,2.7207,12.88525-1.4043,17.67285-.95312,1.10596-2.11426,1.9707-3.23828,2.80713-.91602,.68213-1.78125,1.32666-2.54395,2.09131-.80859,.81055-1.48242,1.73779-2.19629,2.71924-.92285,1.26807-1.87598,2.5791-3.14355,3.61182-1.32129,1.07666-2.87109,1.76074-4.37012,2.42188-.34473,.15234-.68945,.3042-1.03027,.46094-9.43457,4.32666-16.78223,12.55078-23.26465,19.80664Z" style="fill: #7a512d;"></path><path d="M334.70508,303.0909l-25.75195-16.09082c-1.99121-1.24316-4.24805-2.65332-5.85547-4.67188-1.13867-1.42969-1.89551-3.08496-2.62891-4.68652-.37012-.80762-.75195-1.64355-1.17383-2.4248-2.74316-5.07715-7.75391-8.81055-13.40332-9.9873-.86328-.17871-1.76855-.30664-2.64453-.42969-1.88086-.26465-3.82715-.53906-5.62695-1.34766-2.53125-1.1377-4.44141-3.15723-6.33496-5.30371-.6123-.69336-1.22363-1.39453-1.83789-2.09863-6.04199-6.92236-12.28906-14.08105-20.87793-16.62256-.42578-.12598-.85742-.24072-1.28906-.35547-1.44336-.38379-2.93652-.78027-4.26367-1.60205-1.92676-1.19238-3.2207-3.10205-4.36133-4.78711l-18.55762-27.39746,1.17383-.79492,18.55762,27.39746c1.06152,1.56738,2.26367,3.34424,3.93359,4.37695,1.14844,.71094,2.47559,1.06396,3.88086,1.43701,.44531,.11865,.88965,.23682,1.32812,.36621,8.98438,2.65869,15.36914,9.9751,21.54297,17.05029,.61328,.70215,1.22266,1.40137,1.83301,2.09277,1.78711,2.02441,3.58008,3.92676,5.85254,4.94824,1.61719,.72656,3.37891,.97461,5.24512,1.2373,.89746,.12598,1.82617,.25684,2.73535,.44629,6.05371,1.25977,11.42188,5.25977,14.36035,10.7002,.44434,.82227,.83691,1.67969,1.2168,2.50879,.72949,1.59375,1.41797,3.09863,2.44922,4.39355,1.45508,1.82812,3.50977,3.11133,5.49707,4.35352l25.75293,16.09082-.75195,1.20117Z" style="fill: #7a512d;"></path><path d="M424.1875,295.20027c-10.15527-.96777-20.13379-4.27539-28.85547-9.56543-1.37598-.83398-2.76953-1.73926-4.11816-2.61426-5.72949-3.72266-11.64941-7.57812-18.27246-7.37598-.24512,.00781-.49219,.02051-.74121,.03223-1.29102,.06445-2.62793,.13086-3.87598-.4541-1.16406-.5459-1.94141-1.51562-2.69336-2.4541-.15234-.19043-.30469-.38086-.45996-.56543-2.66406-3.17969-6.68066-5.17773-10.82227-5.40332-4.75391,10.28418-13.93457,18.58496-24.64941,22.25879l-.45898-1.33984c10.5-3.60156,19.47754-11.80078,24.01367-21.93457l.19141-.42969,.4707,.01074c4.70605,.10449,9.31934,2.32031,12.3418,5.92773,.16211,.19238,.32031,.39062,.47949,.58887,.68066,.84961,1.32324,1.65234,2.18848,2.05762,.92773,.43652,2.03223,.37891,3.2041,.32227,.25781-.0127,.51562-.02637,.77051-.0332,7.02344-.22656,13.17383,3.7627,19.08594,7.60352,1.33887,.86914,2.72363,1.76855,4.08008,2.59082,8.54102,5.17969,18.31152,8.41895,28.25586,9.36719l-.13477,1.41016Z" style="fill: #7a512d;"></path><path d="M390.66309,309.36629l-1.28125-.60547c.45801-.9707,.36328-2.19824-.25391-3.28223-.61816-1.08398-1.625-1.79102-2.69434-1.8916-.49023-.0459-1.00391,.00391-1.54785,.05664-.80469,.0791-1.6377,.16113-2.49121-.06445-1.94336-.51172-3.02344-2.2998-3.97656-3.87695l-.19434-.32129c-2.51562-4.13281-6.10352-7.52051-10.375-9.79688-.30469-.16113-.6123-.31934-.92188-.47656-1.4082-.71875-2.86426-1.46094-3.9873-2.67578-.8584-.93164-1.44629-2.07422-1.96484-3.08203l-8.00781-15.54785,1.25977-.64844,8.00781,15.54785c.50098,.97363,1.01953,1.97949,1.74707,2.76855,.9502,1.02832,2.23242,1.68262,3.58984,2.375,.31641,.16211,.63281,.32324,.94336,.48926,4.49609,2.39453,8.27148,5.95996,10.91992,10.31055l.19629,.3252c.85352,1.41211,1.73633,2.87402,3.12402,3.23828,.60742,.16113,1.28223,.09473,1.99414,.02539,.58789-.05762,1.19629-.11523,1.81738-.05664,1.52832,.14355,2.94629,1.11523,3.79297,2.60059,.8457,1.48438,.95996,3.2002,.30371,4.58887Z" style="fill: #7a512d;"></path><path d="M568.64941,287.14461c-14.16016-2.66016-24.89355-13.18457-35.27344-23.3623l-2.23047-2.18164c-9.16211-8.92969-20.23633-17.97412-33.02051-17.31006-2.53418,.13135-5.10547,.66357-7.5918,1.17871-3.37988,.70068-6.87012,1.42627-10.41211,1.18359-8.34961-.56787-15.28711-6.19092-21.99609-11.62842-7.66309-6.21094-14.89355-12.07715-23.77051-10.51562-2.64648,.46631-5.30176,1.63623-7.86816,2.76758-4.42285,1.94922-8.99316,3.96338-13.66602,2.42383-4.05273-1.33545-6.69434-4.92676-9.26367-8.80469l-19.20312-28.98779c-1.90723-2.87842-3.85547-5.52881-6.71875-6.33301-1.21973-.34229-2.50781-.31738-3.87012-.28955-1.17871,.02246-2.39258,.04736-3.59375-.17822-5.56348-1.04395-8.0459-6.2915-10.44629-11.36621-1.78223-3.76758-3.625-7.66309-6.70508-9.97217-3.33887-2.50244-7.60352-2.84082-12.11914-3.19873-4.43457-.35205-9.02148-.71582-12.67676-3.32422-2.8916-2.06201-4.72168-5.20996-6.49219-8.25391-2.03516-3.5-3.95703-6.80615-7.31934-8.44092-4.85938-2.36328-10.91211,.1084-14.37891,3.76758-3.80762,4.01758-5.77637,9.61523-7.5127,14.5542-1.16992,3.32812-2.62598,7.47021-5.86816,10.01953-2.98926,2.34912-6.79395,2.85938-10.47363,3.35303-1.41992,.19043-2.8877,.38721-4.26855,.68799-9.47363,2.06348-16.68164,9.38672-23.65332,16.46875-1.2041,1.22314-2.40234,2.44043-3.60547,3.625-7.7959,7.67334-19.57812,16.04346-31.43359,12.35107-3.29102-1.02539-6.19922-2.91602-9.0127-4.74463-1.67676-1.08936-3.41016-2.21631-5.19043-3.13379-4.22363-2.17676-10.5-3.41455-14.2959,.26221l-.98633-1.01855c4.33398-4.19629,11.28906-2.89502,15.93164-.50342,1.84277,.9502,3.60742,2.09668,5.31348,3.20557,2.8584,1.85742,5.55762,3.6123,8.66211,4.5791,11.1875,3.48682,22.49805-4.60645,30.01758-12.00732,1.19824-1.17969,2.3916-2.3916,3.58984-3.60938,7.11719-7.22998,14.47559-14.70605,24.3623-16.85938,1.43555-.31299,2.93262-.51367,4.38086-.70801,3.65137-.48975,7.10156-.95264,9.78613-3.0625,2.91797-2.29443,4.29785-6.2207,5.40625-9.375,1.78418-5.07275,3.80664-10.82275,7.82129-15.05908,3.70703-3.91064,10.30176-6.85059,16.02734-4.06738,3.75098,1.82373,5.87305,5.47314,7.92578,9.00293,1.69434,2.91406,3.44629,5.92773,6.08887,7.8125,3.33691,2.38037,7.52832,2.71289,11.9668,3.06494,4.51758,.3584,9.18945,.729,12.85645,3.47803,3.36133,2.51904,5.28027,6.57617,7.13672,10.5,2.35254,4.97217,4.57422,9.66846,9.42676,10.57959,1.05859,.19824,2.15039,.17676,3.30371,.15381,1.40625-.02832,2.8623-.05713,4.28125,.34229,3.33203,.93604,5.45703,3.80469,7.51758,6.91406l19.20312,28.98779c2.42578,3.6626,4.90332,7.04834,8.52539,8.24219,4.15625,1.36768,8.28125-.44971,12.65039-2.375,2.64453-1.16553,5.37891-2.37061,8.19434-2.86621,9.50488-1.67529,17.33594,4.67188,24.90918,10.81006,6.53711,5.29883,13.29785,10.77783,21.19922,11.31543,3.34375,.229,6.59082-.44531,10.0293-1.15723,2.53809-.52588,5.16309-1.06934,7.80664-1.20605,13.28906-.68408,24.7002,8.56543,34.08301,17.70947l2.23242,2.18555c10.22852,10.0293,20.80566,20.40039,34.54297,22.98145l-.26172,1.39258Z" style="fill: #7a512d;"></path><path d="M201.63086,323.78035l-20.39258-8.0625c-8.28418-3.27539-16.85156-6.66113-24.60449-11.44336-1.72559-1.06445-3.43359-2.21289-5.08594-3.32422-3.19629-2.14941-6.50195-4.37207-10.01562-6.03125-6.07129-2.86816-12.01855-3.4707-16.74316-1.69824-2.48535,.93164-4.73242,2.54199-6.90527,4.09961l-.78516,.56152c-12.03418,8.56543-25.3291,14.99805-39.5127,19.12109l-.39648-1.36133c14.03223-4.07812,27.18262-10.44141,39.08691-18.91406l.78223-.55957c2.24805-1.61035,4.57227-3.27637,7.23242-4.27344,5.08398-1.9082,11.42383-1.29004,17.84668,1.74316,3.61035,1.70508,6.96094,3.95801,10.20117,6.13672,1.64062,1.10254,3.33691,2.24316,5.03906,3.29297,7.64648,4.7168,16.1543,8.08008,24.38184,11.33203l20.39258,8.0625-.52148,1.31836Z" style="fill: #7a512d;"></path><path d="M126.91504,321.96492l-1.03906-.96289c3.03027-3.27246,6.20801-7.11523,5.53418-11.31738-.06641-.41895-.1709-.83105-.27441-1.24316-.16797-.66504-.34082-1.35352-.37793-2.08398-.15723-3.12012,2.11621-5.62988,4.66504-7.87402-.0498-2.49023-.40234-4.97266-1.0498-7.38379l1.36914-.36719c.70605,2.63184,1.07715,5.34375,1.10352,8.06152l.00293,.32715-.24707,.21484c-2.21484,1.92285-4.56641,4.2041-4.42773,6.94922,.0293,.5918,.17871,1.18359,.33594,1.81055,.11426,.45215,.22656,.90527,.30078,1.36426,.77344,4.83105-2.6377,8.98828-5.89551,12.50488Z" style="fill: #7a512d;"></path><rect x="133.20321" y="316.19456" width="1.41779" height="12.65304" transform="translate(-201.01651 223.65188) rotate(-51.00524)" style="fill: #7a512d;"></rect><rect x="135.56621" y="311.6249" width="1.41739" height="14.69762" transform="translate(-207.56749 273.2847) rotate(-59.29741)" style="fill: #7a512d;"></rect><rect x="142.11398" y="306.16029" width="1.41754" height="20.96767" transform="translate(-203.59868 291.07013) rotate(-61.50007)" style="fill: #7a512d;"></rect><rect x="144.62391" y="301.97896" width="1.41721" height="23.93384" transform="translate(-198.73768 277.90068) rotate(-59.17898)" style="fill: #7a512d;"></rect><path d="M160.09082,317.61922c-7.62598-4.41504-15.51562-8.61426-23.44922-12.4834l.62109-1.27344c7.96387,3.88281,15.88281,8.09863,23.53906,12.53027l-.71094,1.22656Z" style="fill: #7a512d;"></path><path d="M161.91016,314.82723c-7.53125-5.02148-15.41699-9.68555-23.43848-13.8623l.6543-1.25781c8.06641,4.20117,15.99707,8.89062,23.57129,13.94043l-.78711,1.17969Z" style="fill: #7a512d;"></path><path d="M162.77734,309.70809c-7.06738-5.34961-14.89941-9.52148-23.27832-12.40234l.46094-1.33984c8.52051,2.92871,16.48535,7.17188,23.67285,12.61133l-.85547,1.13086Z" style="fill: #7a512d;"></path><path d="M57.81055,296.5743l-1.20312-.75c1.2959-2.0752,2.63574-4.2207,4.57422-5.87402,2.21875-1.89453,4.94824-2.72461,7.30176-2.2207,.89551,.19238,1.71191,.56055,2.50098,.91699,.3877,.1748,.77441,.34961,1.16992,.50195,5.82422,2.23633,12.39648-.85938,18.09961-3.93945l.67383,1.24609c-5.98047,3.23145-12.89258,6.47559-19.28223,4.01562-.41992-.16113-.83203-.34668-1.24414-.53223-.75488-.34082-1.4668-.66211-2.21484-.82227-1.92285-.41406-4.19824,.30176-6.08496,1.91211-1.77246,1.51172-3.05273,3.5625-4.29102,5.5459Z" style="fill: #7a512d;"></path><path d="M92.95996,292.53621l-.80664-1.16602c3.44629-2.38379,8.16699-5.65137,13.33008-5.45508,.30957,.01172,.62109,.03613,.93164,.06055,.69824,.05469,1.3584,.10645,1.9873,.00879,.9707-.15039,1.89648-.66699,2.79199-1.16699,5.5459-3.09668,11.2793-6.2998,15.94043-10.72852,2.97363-2.82715,5.56445-6.21191,8.07031-9.48633,4.0918-5.3457,8.32227-10.87402,14.34863-14.146l.67578,1.24512c-5.76074,3.12842-9.71387,8.29346-13.89844,13.76221-2.53906,3.31738-5.16504,6.74805-8.21973,9.65234-4.79004,4.55176-10.60352,7.79883-16.22559,10.93945-.95801,.53418-2.04395,1.13965-3.26562,1.3291-.79297,.12402-1.56836,.06152-2.31641,.00391-.29199-.02344-.58398-.0459-.875-.05762-4.33105-.1582-8.21484,2.25977-12.46875,5.20508Z" style="fill: #7a512d;"></path><path d="M150.65332,262.50008l-.96875-1.03516,7.52148-7.04395c.3252-.30469,.625-.62109,.61621-.87402-.0127,.01855-.05859-.03418-.08887-.04004,.03613,.00781,.12793-.01172,.19629-.0752l-1.16992-.78613c.03418-.05566,.07129-.1084,.11328-.15723l12.23828-16.37158,1.13477,.84863-11.56445,15.47119c.30762,.24707,.54102,.61523,.55664,1.05957,.03418,.93262-.67969,1.60059-1.06348,1.95996l-7.52148,7.04395Z" style="fill: #7a512d;"></path><path d="M148.74316,283.08894l-.94727-1.05273c9.13086-8.2168,16.97461-17.7168,23.31348-28.23828l1.21484,.73047c-6.41211,10.6416-14.3457,20.25098-23.58105,28.56055Z" style="fill: #7a512d;"></path><path d="M28.47656,316.79793l-.36914-1.36914c6.94336-1.87598,14.12402-3.81738,20.85449-6.63281l.27051-.11426c1.66406-.69922,3.37305-1.42773,5.2627-1.36719,.7207,.02051,1.41113,.15625,2.0791,.28809,.37598,.07422,.75195,.14844,1.13184,.2002,2.33301,.31738,4.71875-.25879,7.02539-.81348l11.17676-2.69531,.33203,1.37695-11.17676,2.69531c-2.32031,.55859-4.94922,1.19043-7.54785,.84082-.4082-.05566-.81152-.13477-1.21582-.21387-.63867-.12598-1.24219-.24512-1.8457-.2627-.05078-.00098-.10254-.00195-.1543-.00195-1.52148,0-3.04395,.64062-4.51758,1.25977l-.27344,.11426c-6.81641,2.85254-14.04297,4.80566-21.03223,6.69531Z" style="fill: #7a512d;"></path><rect x="69.73468" y="312.44614" width="17.83239" height="1.41744" transform="translate(-145.72088 80.97122) rotate(-29.92115)" style="fill: #7a512d;"></rect><path d="M225.2373,322.09773c-6.82129-6.0918-14.35547-11.3877-22.39355-15.74121-.60352-.32715-3.67285-1.87695-4.8252-.30762l-.53809,.73438-10.02539-12.14355,1.09375-.90234,8.9502,10.8418c1.33984-1.00195,3.51172-.82715,6.02051,.53125,8.13379,4.40527,15.75781,9.76465,22.66113,15.93066l-.94336,1.05664Z" style="fill: #7a512d;"></path><rect x="225.44014" y="300.66928" width="1.4166" height="12.85885" transform="translate(-154.6398 328.38367) rotate(-56.83129)" style="fill: #7a512d;"></rect><rect x="197.38159" y="237.50243" width="1.41749" height="12.65351" transform="translate(-109.30486 179.01682) rotate(-39.00302)" style="fill: #7a512d;"></rect><path d="M208.56543,250.15096c-4.58691-5.1792-8.85352-10.72363-12.68066-16.479l1.17969-.78516c3.79199,5.70117,8.01855,11.19385,12.56152,16.32471l-1.06055,.93945Z" style="fill: #7a512d;"></path><path d="M217.43945,253.4698c-6.83691-7.41943-13.30566-15.32715-19.22559-23.50391l1.14844-.83105c5.88672,8.13184,12.32031,15.99609,19.12012,23.37402l-1.04297,.96094Z" style="fill: #7a512d;"></path><rect x="212.2184" y="221.21138" width="1.4177" height="35.25465" transform="translate(-103.93339 194.3272) rotate(-40.28627)" style="fill: #7a512d;"></rect><path d="M227.48438,250.45955c-9.02734-10.02246-17.75098-20.55127-25.92578-31.29443l1.12695-.8584c8.15234,10.71191,16.85059,21.21094,25.85156,31.20459l-1.05273,.94824Z" style="fill: #7a512d;"></path><rect x="235.74375" y="198.39709" width="1.41681" height="97.53801" transform="translate(-104.54845 220.34654) rotate(-41.77207)" style="fill: #7a512d;"></rect><path d="M235.94531,236.83162c-7.96582-4.72266-14.18555-11.82324-20.2002-18.68994-5.69629-6.50293-11.58594-13.22705-18.90918-17.84131l.75586-1.19922c7.49805,4.72461,13.45703,11.52734,19.21973,18.10645,5.94141,6.7832,12.08594,13.79736,19.85645,18.40527l-.72266,1.21875Z" style="fill: #7a512d;"></path><rect x="220.41363" y="204.89268" width="1.41785" height="25.03023" transform="translate(-88.6787 230.99146) rotate(-47.02527)" style="fill: #7a512d;"></rect><path d="M227.88672,218.11922c-3.22461-3.43799-6.89844-6.43262-10.91895-8.90039l.74219-1.20801c4.12793,2.53369,7.89941,5.6084,11.20996,9.13867l-1.0332,.96973Z" style="fill: #7a512d;"></path><path d="M211.05371,215.90193c-4.74512-5.35791-9.91406-10.42383-15.3623-15.05664l.91797-1.08008c5.49902,4.67627,10.71582,9.78955,15.50488,15.19727l-1.06055,.93945Z" style="fill: #7a512d;"></path><path d="M217.47754,235.06746c-5.03809-6.93262-10.58594-13.59424-16.49023-19.80127l1.02734-.97656c5.94629,6.25146,11.53516,12.96191,16.60938,19.94482l-1.14648,.83301Z" style="fill: #7a512d;"></path><path d="M217.02832,247.68562c-5.11328-5.9248-9.98535-12.1792-14.48145-18.58936l1.16016-.81348c4.46875,6.37109,9.31152,12.5874,14.39355,18.47705l-1.07227,.92578Z" style="fill: #7a512d;"></path><path d="M226.06348,270.08016c-5.11328-5.32227-9.49121-11.30762-13.0127-17.78906l1.24609-.67676c3.45996,6.37012,7.7627,12.25293,12.78809,17.4834l-1.02148,.98242Z" style="fill: #7a512d;"></path><path d="M243.56055,281.84773c-8.5625-8.13379-16.69531-16.90137-24.17285-26.05664l1.09766-.89648c7.44043,9.10938,15.53223,17.83203,24.05176,25.92578l-.97656,1.02734Z" style="fill: #7a512d;"></path><path d="M247.28516,277.01375c-3.57227-2.12695-6.5127-5.09277-9.35645-7.96094l-12.45996-12.57129,1.00586-.99805,12.45996,12.57129c2.78223,2.80566,5.6582,5.70605,9.0752,7.74219l-.72461,1.2168Z" style="fill: #7a512d;"></path><path d="M248.39062,279.22176c-4.49707-3.54688-8.27148-7.99805-11.36914-11.88477-4.02441-5.0459-7.86523-10.3584-11.58008-15.49658l1.13574-.84814,.01367,.01807c3.7041,5.12451,7.53516,10.42334,11.53809,15.44385,3.04883,3.82227,6.75488,8.19727,11.13867,11.6543l-.87695,1.11328Z" style="fill: #7a512d;"></path><polygon points="253.19531 277.98836 251.91406 276.83894 252.01172 276.7159 227.0459 249.77742 228.08496 248.81355 253.48242 276.21687 253.68262 276.35848 253.65234 276.40047 254.18848 276.97957 253.19531 277.98836" style="fill: #7a512d;"></polygon><polygon points="257.51953 276.58113 232.90918 247.62166 233.98926 246.70369 257.52832 274.40242 257.61133 274.3409 258.62695 275.69734 257.51953 276.58113" style="fill: #7a512d;"></polygon><rect x="247.58509" y="232.30894" width="1.4177" height="44.54487" transform="translate(-105.7107 220.78391) rotate(-40.26273)" style="fill: #7a512d;"></rect><path d="M269.49512,273.56746c-2.94824-1.80469-5.29883-4.4209-7.37305-6.72949-6.20215-6.90332-12.41113-14.01074-18.45215-21.12598l1.08008-.91699c6.0332,7.10449,12.23242,14.20215,18.42676,21.0957,2.00879,2.23633,4.28613,4.77051,7.05859,6.46777l-.74023,1.20898Z" style="fill: #7a512d;"></path><path d="M275.5752,274.46297c-.51562-.51367-1.02539-.97656-1.56543-1.45605-.20703-.18262-.37988-.41699-.54688-.64355-.06055-.08203-.13574-.18359-.20996-.27539l-.11133,.10156c-.00781-.00879-.01562-.0166-.02344-.02539-.09473-.09961-.19434-.20312-.2832-.31152-7.03613-7.7207-14.14844-15.59863-21.14453-23.41895l1.05664-.94531c6.87988,7.69043,13.87207,15.43652,20.79297,23.03418l.14551,.07324c.38867,.20898,.66895,.58984,.91699,.92578,.12402,.16699,.25195,.34082,.34766,.4248,.56055,.49707,1.08984,.97949,1.625,1.5127l-1,1.00391Z" style="fill: #7a512d;"></path><path d="M274.93457,265.58504c-6.7168-5.50293-13.06348-11.57227-18.86328-18.03662l1.05469-.94629c5.75195,6.41064,12.0459,12.4292,18.70703,17.88721l-.89844,1.0957Z" style="fill: #7a512d;"></path><path d="M252.25977,248.23396c-4.38086-4.00781-9.13086-7.67529-14.11816-10.90088l.76953-1.19043c5.05371,3.26855,9.86719,6.98486,14.30566,11.04541l-.95703,1.0459Z" style="fill: #7a512d;"></path><rect x="252.42623" y="237.65501" width="1.41805" height="14.22628" transform="translate(-98.43269 264.48817) rotate(-47.2477)" style="fill: #7a512d;"></rect><rect x="238.24318" y="279.2142" width="1.41794" height="15.76024" transform="translate(-130.42498 231.58022) rotate(-41.68189)" style="fill: #7a512d;"></rect><path d="M256.58789,302.44441c-9.1123-7.01465-15.92188-16.40625-22.50684-25.48828l1.14844-.83203c6.52539,9.00098,13.27344,18.30762,22.22363,25.19727l-.86523,1.12305Z" style="fill: #7a512d;"></path><path d="M260.0332,309.94539c-4.89844-4.02344-9.58691-8.39844-13.93555-13.00391l1.03125-.97266c4.30762,4.5625,8.95215,8.89551,13.80469,12.88086l-.90039,1.0957Z" style="fill: #7a512d;"></path><path d="M266.65527,305.44637c-6.35254-5.77051-12.72168-11.68652-18.93262-17.58203l.97656-1.02734c5.85059,5.55371,11.84277,11.12598,17.82812,16.57715l.18066-.14551,.97559,1.20898-1.02832,.96875Z" style="fill: #7a512d;"></path><path d="M265.21191,299.72957c-7.45215-5.32812-14.41992-11.41016-20.70996-18.0791l1.03125-.97266c6.22754,6.60254,13.12598,12.62402,20.50293,17.89941l-.82422,1.15234Z" style="fill: #7a512d;"></path><path d="M273.40918,301.55769c-8.9209-5.87305-17.17969-12.77246-24.5459-20.50781l1.02734-.97656c7.29102,7.65625,15.4668,14.4873,24.29785,20.30078l-.7793,1.18359Z" style="fill: #7a512d;"></path><path d="M278.58789,298.7491c-8.11816-5.32422-15.87402-11.33887-23.05176-17.87695l.95508-1.04688c7.12207,6.4873,14.81836,12.45508,22.87402,17.73828l-.77734,1.18555Z" style="fill: #7a512d;"></path><path d="M286.24707,298.43465c-9.58691-4.36523-18.45703-10.11035-26.36523-17.07422l.9375-1.06445c7.80273,6.87305,16.55566,12.54102,26.01562,16.84961l-.58789,1.28906Z" style="fill: #7a512d;"></path><polygon points="292.30273 297.33699 291.03516 296.50008 290.94434 296.61141 264.89453 274.77644 265.80469 273.69051 291.11133 294.90242 291.1377 294.86922 293.08398 296.1534 292.30273 297.33699" style="fill: #7a512d;"></polygon><path d="M297.83203,294.4366c-7.40039-5.6748-14.7793-11.57422-21.93164-17.53223l.9082-1.08984c7.13672,5.94727,14.5,11.83398,21.88672,17.49707l-.86328,1.125Z" style="fill: #7a512d;"></path><path d="M305.74902,291.99617l-2.44727-1.9707c-.25098,.1084-.53613,.09375-.77344-.05566-.3291-.20801-.44824-.58887-.43262-.91602l-24.0459-19.37598,.88867-1.10352,24.27246,19.55762c.36133,.0498,.78516,.29004,1.13281,.99805l1.40527,2.86621Z" style="fill: #7a512d;"></path><path d="M289.47168,283.44148c-4.56738-3.89551-9.1377-7.90723-13.58496-11.92285l.94922-1.05273c4.4375,4.00781,8.99805,8.01074,13.55566,11.89746l-.91992,1.07812Z" style="fill: #7a512d;"></path><path d="M278.58789,280.9366c-4.52246-3.62793-8.70312-7.71875-12.4248-12.15918l1.08594-.91016c3.66211,4.36914,7.77539,8.39453,12.22559,11.96387l-.88672,1.10547Z" style="fill: #7a512d;"></path><path d="M273.69336,286.53426c-3.11719-3.07715-6.10449-6.34668-8.87988-9.71582l1.09375-.90039c2.74414,3.33105,5.69922,6.56445,8.78223,9.6084l-.99609,1.00781Z" style="fill: #7a512d;"></path><rect x="294.07441" y="266.90314" width="1.41662" height="17.45365" transform="translate(-107.74423 304.62616) rotate(-47.19711)" style="fill: #7a512d;"></rect><rect x="263.84059" y="305.47628" width="1.41745" height="6.3933" transform="translate(-138.43526 362.23366) rotate(-56.97246)" style="fill: #7a512d;"></rect><rect x="273.62474" y="298.06487" width="1.41654" height="7.81474" transform="translate(-125.74751 381.85599) rotate(-59.03747)" style="fill: #7a512d;"></rect><rect x="278.3175" y="295.82458" width="1.41773" height="10.40958" transform="translate(-127.00993 361.10371) rotate(-55.58837)" style="fill: #7a512d;"></rect><rect x="286.73523" y="295.64951" width="1.41723" height="11.09761" transform="translate(-126.35728 347.16591) rotate(-52.67734)" style="fill: #7a512d;"></rect><rect x="292.81632" y="296.27914" width="1.41716" height="13.73094" transform="translate(-126.59268 342.57482) rotate(-51.28546)" style="fill: #7a512d;"></rect><rect x="297.44662" y="295.27813" width="1.41634" height="11.08062" transform="translate(-115.67142 391.01755) rotate(-57.55088)" style="fill: #7a512d;"></rect><rect x="302.06218" y="292.15464" width="1.41666" height="12.60104" transform="translate(-118.76449 353.71548) rotate(-52.05725)" style="fill: #7a512d;"></rect><path d="M315.50488,304.63777c-4.1709-3.23438-8.29883-6.61719-12.26855-10.05664l.92773-1.07031c3.9502,3.42188,8.05859,6.78809,12.20996,10.00586l-.86914,1.12109Z" style="fill: #7a512d;"></path><path d="M322.79297,306.45418c-5.17578-3.98145-10.22754-8.25293-15.01562-12.69531l.96484-1.03906c4.75488,4.41309,9.77344,8.65625,14.91406,12.61133l-.86328,1.12305Z" style="fill: #7a512d;"></path><rect x="322.00003" y="290.24108" width="1.4179" height="20.52582" transform="translate(-115.70796 347.77258) rotate(-49.11308)" style="fill: #7a512d;"></rect><rect x="328.70741" y="297.85324" width="1.41721" height="7.96946" transform="translate(-115.51854 342.51121) rotate(-47.72159)" style="fill: #7a512d;"></rect><path d="M367.24512,286.65828c-4.03516-5.1123-7.70801-10.58594-10.91504-16.26758l1.23438-.69727c3.1709,5.61914,6.80273,11.03125,10.79395,16.08594l-1.11328,.87891Z" style="fill: #7a512d;"></path><path d="M375.82715,291.98543l-4.15039-3.37695c-.23438-.19043-.41797-.43555-.54395-.71289l-10.80176-14.99121,1.15039-.82812,9.83301,13.64648c.16992-.25488,.39355-.4668,.6582-.61621,.5791-.32715,1.31152-.33301,1.96289-.01367,.65137,.32031,1.0957,.9043,1.18945,1.56348,.09473,.66016-.16895,1.34668-.7041,1.83594-.23242,.21191-.49609,.37012-.77344,.46777l2.17969,3.02539Zm-3.4375-4.77051l.42969,.59668,.03906-.16211c.18652,.04102,.4209-.03516,.60645-.20312,.18652-.1709,.28516-.39648,.25781-.58887s-.18555-.38086-.41211-.49219c-.22461-.11133-.4707-.12207-.63965-.02539-.16992,.09668-.28809,.31152-.30957,.56348-.00879,.10938,.00098,.2168,.02832,.31152Z" style="fill: #7a512d;"></path><rect x="372.40754" y="273.17181" width="1.41734" height="21.9368" transform="translate(-95.43484 263.8602) rotate(-34.81211)" style="fill: #7a512d;"></rect><path d="M384.93359,297.43758c-.11914-.11816-.20605-.23438-.26855-.3457l-13.06934-17.47461,1.13477-.84961,12.69043,16.96777c.31152,.01172,.5918,.17871,.7334,.44141l.21582,.4043-.29004,.44238-.20898-.16016c.01855-.03027,.03418-.0625,.04688-.09668,.02832-.0752,.0332-.14746,.02832-.20996l-.22168,.19336-.08203-.0625-.20996,.24707-.24023,.17969c.02637,.01074,.05371,.02051,.08301,.02637l-.3418,.29688Z" style="fill: #7a512d;"></path><rect x="382.83814" y="278.29582" width="1.41748" height="21.10676" transform="translate(-95.7753 316.99735) rotate(-40.34424)" style="fill: #7a512d;"></rect><path d="M394.30176,297.61531c-3.90723-5.4375-8.1123-10.75488-12.49707-15.80469l1.07031-.92969c4.41309,5.08301,8.64453,10.43457,12.57715,15.9082l-1.15039,.82617Z" style="fill: #7a512d;"></path><path d="M399.2998,297.58016c-4.38477-4.8418-8.99414-9.58887-13.70215-14.11035l.98242-1.02148c4.73047,4.54395,9.36426,9.31445,13.77051,14.18066l-1.05078,.95117Z" style="fill: #7a512d;"></path><path d="M405.46094,300.34871c-3.54883-5.10352-7.87793-9.56934-12.86816-13.27246l.84473-1.13867c5.11426,3.7959,9.55078,8.37207,13.1875,13.60254l-1.16406,.80859Z" style="fill: #7a512d;"></path><rect x="403.22353" y="287.81276" width="1.41817" height="8.75159" transform="translate(-79.60301 413.55166) rotate(-49.97013)" style="fill: #7a512d;"></rect><rect x="381.89549" y="291.75359" width="1.41702" height="12.70002" transform="translate(-98.236 361.69969) rotate(-45.45796)" style="fill: #7a512d;"></rect><rect x="389.80491" y="294.75439" width="1.41655" height="11.26091" transform="translate(-87.56107 419.45041) rotate(-51.55281)" style="fill: #7a512d;"></rect><rect x="395.719" y="295.43015" width="1.41746" height="8.25704" transform="translate(-78.3 446.26901) rotate(-54.24963)" style="fill: #7a512d;"></rect><path d="M405.26855,302.17879c-2.1582-1.84082-4.49121-3.50098-6.93457-4.93359l.7168-1.22266c2.51465,1.47461,4.91602,3.18359,7.1377,5.07812l-.91992,1.07812Z" style="fill: #7a512d;"></path><rect x="405.90387" y="294.14468" width="1.41687" height="5.73619" transform="translate(-76.31654 439.59568) rotate(-52.59555)" style="fill: #7a512d;"></rect><rect x="378.84944" y="275.70284" width="1.41733" height="8.54761" transform="translate(-90.44679 319.30443) rotate(-41.19701)" style="fill: #7a512d;"></rect><rect x="374.40959" y="275.31353" width="1.41618" height="7.21293" transform="translate(-90.29274 322.54089) rotate(-41.98721)" style="fill: #7a512d;"></rect><path d="M274.49805,256.35359c-3.35742-4.41992-6.66797-8.95996-9.83984-13.49512l1.16211-.8125c3.16113,4.52002,6.45996,9.04541,9.80664,13.4502l-1.12891,.85742Z" style="fill: #7a512d;"></path><rect x="273.6237" y="239.46247" width="1.41764" height="21.01711" transform="translate(-95.61487 220.25948) rotate(-37.74796)" style="fill: #7a512d;"></rect><path d="M282.0791,253.41023c-4.21387-4.83594-8.26855-9.91553-12.05176-15.09668l1.14453-.83594c3.75977,5.14893,7.78906,10.1958,11.97559,15.00098l-1.06836,.93164Z" style="fill: #7a512d;"></path><rect x="289.43863" y="227.91719" width="1.41766" height="24.27271" transform="translate(-85.68444 263.75234) rotate(-43.21078)" style="fill: #7a512d;"></rect><rect x="291.46611" y="223.92527" width="1.41739" height="22.57539" transform="translate(-82.04745 260.68762) rotate(-42.72984)" style="fill: #7a512d;"></rect><polygon points="294.40234 250.58699 293.84375 249.66951 277.28906 231.41951 278.33789 230.46736 295.01953 248.87459 295.61328 249.85164 294.40234 250.58699" style="fill: #7a512d;"></polygon><path d="M289.54785,252.58113c-4.79883-6.17383-9.83594-12.29883-14.97266-18.20459l1.07031-.92969c5.15234,5.92529,10.20703,12.07031,15.02148,18.26465l-1.11914,.86963Z" style="fill: #7a512d;"></path><rect x="280.30787" y="232.06565" width="1.41746" height="27.79708" transform="translate(-92.10708 230.23421) rotate(-38.78053)" style="fill: #7a512d;"></rect><path d="M292.10352,265.42391c-3.53809-3.64648-7.32812-7.12109-11.26465-10.32715l.89453-1.09961c3.97949,3.24121,7.81055,6.75391,11.3877,10.44043l-1.01758,.98633Z" style="fill: #7a512d;"></path><rect x="297.30736" y="251.54567" width="1.4175" height="28.8307" transform="translate(-99.98657 299.76526) rotate(-46.6017)" style="fill: #7a512d;"></rect><rect x="302.57223" y="253.52217" width="1.41609" height="28.81909" transform="translate(-101.14608 282.2724) rotate(-43.48968)" style="fill: #7a512d;"></rect><polygon points="319.77148 280.12312 294.18262 253.42 295.20605 252.43953 319.50488 277.79695 319.65527 277.67977 320.8418 279.19637 319.77148 280.12312" style="fill: #7a512d;"></polygon><path d="M326.02246,276.45711c-.32715,0-.64648-.08008-.93164-.23926l.69531-1.23633c.1875,.1084,.43457,.04883,.60156-.04199,.16699-.08984,.35156-.26367,.36621-.47949s-.14355-.41309-.2959-.52539c-.15332-.11035-.38574-.20703-.59082-.12402-.20215,.0791-.31152,.30566-.34766,.49219-.03223,.16992-.02051,.39453,.10156,.54492l.06445,.06738-.99609,1.00781c-.04102-.03809-.08008-.0791-.11719-.12109l-27.17773-28.27295,1.02148-.98242,25.89258,26.93604c.21875-.45801,.58496-.81348,1.04102-.99219,.62598-.24414,1.35254-.13184,1.94629,.30176,.5918,.43457,.91797,1.09473,.87207,1.76562-.04688,.67188-.46094,1.28125-1.10742,1.62988-.33301,.17969-.69043,.26953-1.03809,.26953Z" style="fill: #7a512d;"></path><polygon points="328.54102 275.66316 300.87695 246.72322 301.90234 245.74373 328.39258 273.45613 328.48926 273.37703 329.60059 274.72273 328.54102 275.66316" style="fill: #7a512d;"></polygon><path d="M327.7002,268.16609c-9.85938-9.9873-19.28711-20.62354-28.02051-31.61377l1.10938-.88184c8.70215,10.95068,18.0957,21.54834,27.91895,31.49951l-1.00781,.99609Z" style="fill: #7a512d;"></path><rect x="316.24285" y="217.15907" width="1.41762" height="57.31434" transform="translate(-83.97507 257.7214) rotate(-39.49671)" style="fill: #7a512d;"></rect><path d="M336.01367,263.04402c-12.35938-13.14307-24.10059-27.1416-34.89746-41.60596l1.13672-.84766c10.76465,14.42139,22.4707,28.37842,34.79395,41.48291l-1.0332,.9707Z" style="fill: #7a512d;"></path><path d="M342.04297,262.33016c-.04492,0-.08984-.00293-.13379-.00781-.68848-.07715-1.13477-.59473-1.40137-.9043l-34.73535-40.34912,1.07422-.9248,34.73438,40.34912c.11328,.13086,.35059,.40527,.48633,.4209-.13477,.09863-.14062,.24219-.07031,.35352l1.19922-.75391c.22656,.35938,.21973,.80078-.01758,1.17871-.24609,.39258-.69043,.6377-1.13574,.6377Z" style="fill: #7a512d;"></path><polygon points="344.01074 260.1534 306.46973 214.51766 307.56348 213.61727 344.02441 257.93953 344.12207 257.86141 344.55273 258.34871 344.50195 258.39363 345.1377 259.29598 344.01074 260.1534" style="fill: #7a512d;"></polygon><rect x="328.80113" y="205.47618" width="1.41824" height="64.06343" transform="translate(-76.42818 251.68523) rotate(-37.78394)" style="fill: #7a512d;"></rect><path d="M353.34668,259.7784c-13.43359-18.76074-28.33398-36.72656-44.28516-53.39746l1.02344-.97949c15.99805,16.71875,30.94141,34.73682,44.41406,53.55273l-1.15234,.82422Z" style="fill: #7a512d;"></path><polygon points="362.1084 248.92732 312.94434 196.85555 313.97559 195.88289 361.37207 246.0826 361.44434 246.01961 363.15723 247.9742 362.1084 248.92732" style="fill: #7a512d;"></polygon><path d="M354.79297,252.85945c-16.24219-16.67285-31.35059-34.71826-44.90332-53.63379l1.15234-.8252c13.51172,18.85791,28.57324,36.84766,44.7666,53.47021l-1.01562,.98877Z" style="fill: #7a512d;"></path><path d="M361.21484,253.57234c-6.02637-7.83252-12.85938-15.09717-20.30957-21.59277l.93164-1.06836c7.52051,6.55664,14.41797,13.89062,20.50098,21.79785l-1.12305,.86328Z" style="fill: #7a512d;"></path><rect x="341.70212" y="257.82931" width="1.41803" height="15.11595" transform="translate(-90.66258 254.29884) rotate(-36.31095)" style="fill: #7a512d;"></rect><path d="M341.44531,275.3741c-3.04785-4.50781-6.32129-8.94824-9.72852-13.19629l1.10547-.88672c3.43164,4.27832,6.72754,8.74902,9.79688,13.29004l-1.17383,.79297Z" style="fill: #7a512d;"></path><rect x="333.41267" y="265.10475" width="1.41686" height="16.61781" transform="translate(-97.59771 270.12702) rotate(-38.85753)" style="fill: #7a512d;"></rect><path d="M337.03809,281.89852c-3.37402-3.29395-6.50293-6.88477-9.2998-10.67188l1.14062-.8418c2.75195,3.72656,5.83008,7.25879,9.14941,10.5l-.99023,1.01367Z" style="fill: #7a512d;"></path><path d="M336.15234,285.1573c-4.52637-4.88574-9.26758-9.68457-14.09375-14.26465l.97656-1.02734c4.84766,4.59961,9.61035,9.4209,14.15625,14.3291l-1.03906,.96289Z" style="fill: #7a512d;"></path><path d="M329.99512,286.49617c-3.83203-3.96191-7.48633-8.18457-10.8623-12.55078l1.12109-.86719c3.34375,4.3252,6.96387,8.50781,10.76074,12.43164l-1.01953,.98633Z" style="fill: #7a512d;"></path><path d="M326.97559,289.02059c-3.13477-2.99512-6.38867-5.94531-9.67383-8.76855l.92383-1.07422c3.30371,2.83887,6.57715,5.80566,9.72852,8.81738l-.97852,1.02539Z" style="fill: #7a512d;"></path><path d="M329.45703,297.2823c-5.94434-5.32324-12.11523-10.58203-18.34277-15.62988l.89258-1.10156c6.24512,5.0625,12.43457,10.33691,18.39551,15.6748l-.94531,1.05664Z" style="fill: #7a512d;"></path><path d="M319.62988,290.81453c-4.05566-3.43652-8.00781-7.09375-11.74707-10.87207l1.00781-.99609c3.70996,3.74805,7.63086,7.37695,11.65527,10.78613l-.91602,1.08203Z" style="fill: #7a512d;"></path><rect x="306.60293" y="275.59638" width="1.41719" height="11.18435" transform="translate(-108.41701 307.21083) rotate(-46.04008)" style="fill: #7a512d;"></rect><path d="M308.1123,264.60652c-3.38672-4.18652-7.23828-8.01855-11.44922-11.38867l.88672-1.10742c4.29004,3.43457,8.21387,7.33887,11.66406,11.60547l-1.10156,.89062Z" style="fill: #7a512d;"></path><path d="M306.54199,252.07137c-2.52441-2.52295-5.21484-4.93604-7.99707-7.17188l.88867-1.10449c2.82129,2.26758,5.5498,4.71484,8.11035,7.27441l-1.00195,1.00195Z" style="fill: #7a512d;"></path><rect x="296.42134" y="224.07703" width="1.41709" height="17.45352" transform="translate(-78.91141 265.61717) rotate(-43.066)" style="fill: #7a512d;"></rect><path d="M304.35352,234.88436c-3.46484-4.0415-7.23633-7.89062-11.20898-11.44092l.94531-1.05664c4.01855,3.5918,7.83398,7.48633,11.33984,11.57471l-1.07617,.92285Z" style="fill: #7a512d;"></path><rect x="302.04763" y="215.60384" width="1.41743" height="14.03076" transform="translate(-67.16189 288.81) rotate(-46.47213)" style="fill: #7a512d;"></rect><rect x="306.72657" y="212.58267" width="1.41698" height="15.54185" transform="translate(-65.78155 281.84658) rotate(-44.98727)" style="fill: #7a512d;"></rect><rect x="311.7143" y="207.8234" width="1.41711" height="15.35335" transform="translate(-61.76578 278.99174) rotate(-44.22689)" style="fill: #7a512d;"></rect><rect x="313.96668" y="202.11359" width="1.41723" height="14.22561" transform="translate(-52.85102 297.09355) rotate(-47.06551)" style="fill: #7a512d;"></rect><rect x="316.28497" y="191.90017" width="1.41736" height="20.09434" transform="translate(-47.98274 291.72449) rotate(-46.31931)" style="fill: #7a512d;"></rect><rect x="316.61767" y="184.26091" width="1.417" height="22.37823" transform="translate(-47.83679 269.96595) rotate(-43.16362)" style="fill: #7a512d;"></rect><path d="M326.86426,201.41268c-6.38379-7-12.69531-14.229-18.76074-21.48682l1.08789-.90918c6.05176,7.24219,12.35059,14.45605,18.71973,21.44092l-1.04688,.95508Z" style="fill: #7a512d;"></path><path d="M331.88379,197.97908c-7.16895-8.0791-14.87988-15.83789-22.91797-23.06055l.94727-1.05469c8.07715,7.25879,15.82617,15.05566,23.03125,23.1748l-1.06055,.94043Z" style="fill: #7a512d;"></path><path d="M335.75195,194.53133c-8.08203-6.9375-15.56445-14.66553-22.24121-22.96973l1.10547-.8877c6.62109,8.23584,14.04297,15.90088,22.05957,22.78223l-.92383,1.0752Z" style="fill: #7a512d;"></path><path d="M335.92285,188.70125c-5.23438-8.19238-12.49219-15.02002-20.99023-19.74512l.68945-1.23828c8.70215,4.83838,16.13477,11.83057,21.49609,20.2207l-1.19531,.7627Z" style="fill: #7a512d;"></path><path d="M336.66309,185.99764c-6.57031-6.93457-13.18164-14.0332-19.64844-21.09863l1.04492-.95703c6.46191,7.05957,13.06738,14.15186,19.63281,21.08105l-1.0293,.97461Z" style="fill: #7a512d;"></path><rect x="327.14766" y="151.83883" width="1.41757" height="33.70188" transform="translate(-32.54723 246.50543) rotate(-39.41072)" style="fill: #7a512d;"></rect><rect x="327.81972" y="140.29289" width="1.41719" height="47.96858" transform="translate(-21.89767 274.36565) rotate(-44.0073)" style="fill: #7a512d;"></rect><path d="M345.87793,176.60457c-11.32129-10.31299-22.46777-21.10645-33.12891-32.08105l1.01562-.9873c10.64258,10.95361,21.76758,21.72705,33.06836,32.02051l-.95508,1.04785Z" style="fill: #7a512d;"></path><rect x="344.63985" y="154.83291" width="1.4166" height="31.09312" transform="translate(-16.68739 301.62268) rotate(-46.18602)" style="fill: #7a512d;"></rect><path d="M358.38867,179.29598c-5.69043-6.02588-11.60156-12.00537-17.56836-17.77344l.98438-1.01953c5.9834,5.7832,11.90918,11.77832,17.61523,17.81934l-1.03125,.97363Z" style="fill: #7a512d;"></path><path d="M357.71094,172.97469c-3.05957-3.39697-6.45898-6.51758-10.10156-9.2749l.85547-1.12988c3.71387,2.81104,7.17969,5.99268,10.29883,9.45654l-1.05273,.94824Z" style="fill: #7a512d;"></path><path d="M355.69922,210.49617c-9.99609-8.96143-19.27246-18.85449-27.57227-29.40479l1.11328-.87598c8.25,10.48535,17.46973,20.31836,27.4043,29.2251l-.94531,1.05566Z" style="fill: #7a512d;"></path><rect x="354.26863" y="174.56393" width="1.41684" height="51.43821" transform="translate(-41.9062 293.04986) rotate(-42.58833)" style="fill: #7a512d;"></rect><path d="M385.04688,217.50643c-5.73926-6.33057-12.90332-11.44043-19.83105-16.38232-8.25879-5.89111-16.79883-11.98242-23.02344-20.20068l1.12891-.85547c6.0957,8.04541,14.5459,14.07324,22.71777,19.90234,6.98926,4.98535,14.21582,10.14062,20.05859,16.58398l-1.05078,.95215Z" style="fill: #7a512d;"></path><path d="M387.30566,215.56453c-13-10.83008-26.43945-21.49463-39.94531-31.69727l.85352-1.13086c13.52441,10.21582,26.98242,20.89453,39.99902,31.73926l-.90723,1.08887Z" style="fill: #7a512d;"></path><path d="M385.73828,210.76863c-12.17578-10.54199-24.74902-20.95557-37.37207-30.95215l.88086-1.11133c12.6377,10.00928,25.22754,20.43652,37.41895,30.99219l-.92773,1.07129Z" style="fill: #7a512d;"></path><path d="M389.27539,210.34969c-8.91211-8.91211-18.49805-17.32227-28.49219-24.99756l.86328-1.12402c10.04297,7.7124,19.67578,16.16406,28.63086,25.11963l-1.00195,1.00195Z" style="fill: #7a512d;"></path><path d="M389.12109,203.12361c-5.81152-4.59033-11.48926-9.49756-16.87402-14.58545l.97266-1.03027c5.35547,5.05957,11.00098,9.93896,16.78027,14.50342l-.87891,1.1123Z" style="fill: #7a512d;"></path><path d="M374.09082,225.82088c-11.4209-10.47949-22.45996-21.65283-32.81055-33.21045l1.05664-.94531c10.31836,11.52295,21.3252,22.66309,32.71289,33.11182l-.95898,1.04395Z" style="fill: #7a512d;"></path><path d="M373.09863,231.11043c-12.27441-11.49316-25.03516-22.78467-37.92773-33.56104l.9082-1.08789c12.91406,10.79395,25.69531,22.10303,37.98828,33.61475l-.96875,1.03418Z" style="fill: #7a512d;"></path><rect x="356.54266" y="192.71628" width="1.4176" height="50.28731" transform="translate(-32.35132 370.50737) rotate(-52.77115)" style="fill: #7a512d;"></rect><rect x="348.63291" y="187.49014" width="1.41778" height="58.32066" transform="translate(-42.33687 341.41) rotate(-49.47384)" style="fill: #7a512d;"></rect><rect x="348.91251" y="191.04874" width="1.41717" height="64.3138" transform="translate(-45.10323 350.67477) rotate(-50.45197)" style="fill: #7a512d;"></rect><path d="M380.09961,253.63777c-15.44922-12.99121-30.89648-26.40869-45.91406-39.87939l.94727-1.05469c15.00488,13.46045,30.44141,26.86768,45.87891,39.8501l-.91211,1.08398Z" style="fill: #7a512d;"></path><path d="M385.01367,274.12215c-8.26367-8.18359-16.80078-16.31641-25.37598-24.17432l.95703-1.04492c8.58887,7.86963,17.13965,16.01611,25.41699,24.21143l-.99805,1.00781Z" style="fill: #7a512d;"></path><path d="M374.99414,270.87019c-7.33789-5.44043-14.40723-11.39551-21.0127-17.69824l.97852-1.02539c6.56348,6.2627,13.58789,12.17871,20.87793,17.58496l-.84375,1.13867Z" style="fill: #7a512d;"></path><path d="M364.70117,266.46102c-5.57324-4.11816-10.8877-8.69238-15.79688-13.59668l1.00195-1.00244c4.85938,4.85498,10.12012,9.3833,15.63672,13.4585l-.8418,1.14062Z" style="fill: #7a512d;"></path><path d="M353.39355,265.62605c-2.75781-2.34766-5.18945-5.05664-7.22656-8.05176l1.17188-.79688c1.96582,2.88965,4.31152,5.50391,6.97266,7.76855l-.91797,1.08008Z" style="fill: #7a512d;"></path><rect x="346.30328" y="259.73757" width="1.41687" height="9.8844" transform="translate(-88.50442 292.9322) rotate(-41.04586)" style="fill: #7a512d;"></rect><rect x="342.89076" y="266.17829" width="1.4177" height="9.168" transform="translate(-93.83762 266.11758) rotate(-37.63036)" style="fill: #7a512d;"></rect><path d="M395.90137,274.89168c-10.08301-7.47168-19.93652-15.50098-29.28809-23.8667l.94531-1.05664c9.31836,8.33643,19.13867,16.33936,29.18652,23.78467l-.84375,1.13867Z" style="fill: #7a512d;"></path><path d="M402.86816,276.58113c-8.52832-5.51367-16.75293-11.67871-24.44336-18.32129l.92578-1.07227c7.6416,6.59961,15.81348,12.72461,24.28711,18.2041l-.76953,1.18945Z" style="fill: #7a512d;"></path><path d="M402.20508,267.90633c-7.60156-5.0752-15.04883-10.58105-22.13574-16.3623l.89648-1.09863c7.05176,5.75391,14.46191,11.23242,22.02637,16.2832l-.78711,1.17773Z" style="fill: #7a512d;"></path><path d="M403.36719,260.52742c-8.69629-5.87793-17.68164-11.58594-26.70703-16.96436l.72461-1.21777c9.04883,5.39258,18.05762,11.11475,26.77539,17.0083l-.79297,1.17383Z" style="fill: #7a512d;"></path><path d="M400.9707,253.29109c-8.7666-5.68555-17.50781-11.66797-25.98145-17.78125l.83008-1.14941c8.4541,6.09961,17.17578,12.06836,25.92285,17.74121l-.77148,1.18945Z" style="fill: #7a512d;"></path><path d="M397.45996,244.2159c-8.30859-5.40527-16.41113-11.33105-24.08203-17.61328l.89844-1.09668c7.63086,6.24951,15.69043,12.14502,23.95703,17.52148l-.77344,1.18848Z" style="fill: #7a512d;"></path><path d="M395.84668,239.524c-8.14258-6.7041-16.09668-13.83936-23.64062-21.20752l.99023-1.01367c7.51562,7.33984,15.43945,14.44824,23.55078,21.12744l-.90039,1.09375Z" style="fill: #7a512d;"></path><path d="M399.93164,235.00057c-9.8418-6.53271-19.51367-13.5708-28.74902-20.91748l.88281-1.10938c9.20312,7.32178,18.8418,14.33545,28.64941,20.84619l-.7832,1.18066Z" style="fill: #7a512d;"></path><path d="M405.57324,235.89852c-6.97363-6.40137-14.40723-12.44189-22.09473-17.95361l.82617-1.15137c7.73242,5.54443,15.21094,11.62109,22.22754,18.06104l-.95898,1.04395Z" style="fill: #7a512d;"></path><path d="M401.75,227.71687c-4.66797-3.87842-9.5332-7.64404-14.46191-11.19287l.82812-1.15039c4.95508,3.56787,9.84668,7.354,14.54004,11.25342l-.90625,1.08984Z" style="fill: #7a512d;"></path><rect x="395.16659" y="211.69618" width="1.41683" height="15.20497" transform="translate(-28.56426 376.33443) rotate(-49.28834)" style="fill: #7a512d;"></rect><rect x="398.16363" y="211.42543" width="1.41687" height="14.31726" transform="translate(-49.56448 294.62733) rotate(-38.34731)" style="fill: #7a512d;"></rect><rect x="413.03891" y="232.50462" width="1.4173" height="23.35078" transform="translate(-57.25922 338.85596) rotate(-41.91312)" style="fill: #7a512d;"></rect><path d="M423.83008,260.42098c-6.50195-7.42285-13.31836-14.7417-20.25879-21.75391l1.00781-.99707c6.95996,7.03271,13.7959,14.37305,20.31738,21.81738l-1.06641,.93359Z" style="fill: #7a512d;"></path><path d="M424.97559,268.39461c-7.46094-8.58398-14.85742-17.43213-21.98438-26.30029l1.10547-.8877c7.11523,8.85352,14.5,17.68799,21.94922,26.2583l-1.07031,.92969Z" style="fill: #7a512d;"></path><rect x="415.95915" y="250.15437" width="1.41666" height="28.84571" transform="translate(-74.6233 311.97205) rotate(-37.92517)" style="fill: #7a512d;"></rect><path d="M421.43555,277.61043c-4.98145-5.18164-9.91504-10.54102-14.66406-15.93066l1.06445-.9375c4.73438,5.375,9.65332,10.71973,14.62109,15.88574l-1.02148,.98242Z" style="fill: #7a512d;"></path><rect x="411.27945" y="263.24715" width="1.41766" height="20.86231" transform="translate(-69.5474 386.62762) rotate(-46.79625)" style="fill: #7a512d;"></rect><rect x="409.00709" y="267.18011" width="1.41745" height="18.60869" transform="translate(-69.00103 399.53275) rotate(-48.42739)" style="fill: #7a512d;"></rect><path d="M409.10254,284.16512c-3.56738-2.74512-7.29102-5.38379-11.06738-7.84473l.77344-1.1875c3.80762,2.48047,7.56152,5.1416,11.15918,7.90918l-.86523,1.12305Z" style="fill: #7a512d;"></path><path d="M409.21191,289.3282c-1.84082-.51758-3.41992-1.62305-5.00879-2.80762-5.10352-3.80273-10.08203-7.90527-14.79688-12.19434l.95312-1.04883c4.68164,4.25781,9.62402,8.33105,14.69141,12.10645,1.53418,1.14453,2.93457,2.12793,4.54395,2.5791l-.38281,1.36523Z" style="fill: #7a512d;"></path><path d="M398.88574,282.795c-4.70117-2.54199-9.31152-5.37012-13.70312-8.40625l.80664-1.16602c4.34863,3.00684,8.91406,5.80762,13.57031,8.32617l-.67383,1.24609Z" style="fill: #7a512d;"></path><rect x="404.27088" y="249.1448" width="1.41722" height="15.39318" transform="translate(-39.14546 437.75273) rotate(-54.54641)" style="fill: #7a512d;"></rect><path d="M410.07617,254.98934c-4.63379-4.25537-9.43359-8.4541-14.2666-12.48047l.9082-1.08887c4.84961,4.04102,9.66602,8.25488,14.31738,12.52441l-.95898,1.04492Z" style="fill: #7a512d;"></path><rect x="400.83355" y="233.10662" width="1.41689" height="15.44732" transform="translate(-37.3183 404.03824) rotate(-51.35349)" style="fill: #7a512d;"></rect><path d="M408.93652,243.99666c-3.82129-2.58057-7.58691-5.35156-11.19141-8.2373l.88477-1.10645c3.5752,2.86182,7.30957,5.60986,11.09961,8.16895l-.79297,1.1748Z" style="fill: #7a512d;"></path><path d="M379.00488,255.82332c-8.17871-6.67432-16.04102-13.9082-23.36816-21.5l1.01953-.98438c7.28906,7.55176,15.10938,14.74756,23.24512,21.38672l-.89648,1.09766Z" style="fill: #7a512d;"></path><path d="M374.87402,258.00203c-5.81738-5.66992-11.58398-11.55225-17.14062-17.48291l1.03516-.96875c5.54102,5.91504,11.29199,11.78174,17.09375,17.43604l-.98828,1.01562Z" style="fill: #7a512d;"></path><path d="M342.2832,235.36092c-5.92969-5.94824-11.40039-12.4375-16.26074-19.28809l1.15625-.82031c4.81445,6.78662,10.23438,13.21533,16.1084,19.10742l-1.00391,1.00098Z" style="fill: #7a512d;"></path><path d="M345.45703,187.32039c-1.68848-3.53613-4.27832-6.59424-7.48828-8.84277l.8125-1.16113c3.41016,2.38867,6.16113,5.63672,7.95508,9.39355l-1.2793,.61035Z" style="fill: #7a512d;"></path><path d="M380.3291,272.20809c-5.83301-6.2168-12.42871-11.70117-19.60547-16.29785l.76367-1.19336c7.27539,4.66016,13.96289,10.21875,19.875,16.52246l-1.0332,.96875Z" style="fill: #7a512d;"></path><rect x="371.99678" y="266.17973" width="1.4166" height="8.32625" transform="translate(-57.52877 434.33423) rotate(-56.82062)" style="fill: #7a512d;"></rect><path d="M419.98047,250.16072l-.1543-1.40918c5.3252-.57959,10.5166-1.95264,15.43164-4.08057,1.69922-.73682,2.56152-1.56543,2.5625-2.46387,.00098-.24072-.06445-.50879-.13281-.79297-.06836-.28467-.13477-.5708-.16113-.86182-.08398-.93359,.23633-1.80371,.51953-2.57129l.09375-.25488c1.71484-4.7417,1.49414-10.09082-.60742-14.67529l1.28906-.59082c2.25391,4.91992,2.49121,10.66016,.65039,15.74854l-.0957,.2627c-.25391,.68799-.49316,1.33838-.4375,1.95459,.01953,.22217,.07422,.43896,.12695,.65576,.08105,.33643,.17285,.71729,.17285,1.12744-.00195,1.51465-1.15234,2.78076-3.41699,3.7627-5.0459,2.18408-10.375,3.59375-15.84082,4.18896Z" style="fill: #7a512d;"></path><path d="M453.04883,272.32527c-4.29102-3.11816-8.93945-5.75879-13.81738-7.84863l-.90723-.38477c-2.36133-.99512-4.80273-2.02344-6.69531-3.86426-.73535-.71582-1.35449-1.52539-1.95312-2.30859-.45898-.60059-.89355-1.16797-1.37695-1.69922-2.17969-2.39258-5.32227-3.90625-8.09473-5.2417l.61523-1.27734c2.88867,1.3916,6.16211,2.96924,8.52637,5.56396,.52539,.57715,.99902,1.19531,1.45605,1.79395,.59375,.77637,1.1543,1.50977,1.81543,2.15332,1.7002,1.6543,4.0166,2.62988,6.25684,3.57422l.91602,.3877c4.97461,2.13086,9.71582,4.82422,14.09277,8.00488l-.83398,1.14648Z" style="fill: #7a512d;"></path><path d="M438.98535,272.07332l-10.05469-9.08496c-1.49707-1.35254-3.04492-2.75098-4.89844-3.49219l.52539-1.31641c2.08984,.83594,3.80762,2.3877,5.32227,3.75684l10.05664,9.08594-.95117,1.05078Z" style="fill: #7a512d;"></path><rect x="430.31396" y="262.16935" width="1.41798" height="14.15365" transform="translate(-43.77492 450.46776) rotate(-52.88263)" style="fill: #7a512d;"></rect><rect x="436.72971" y="263.31835" width="1.41655" height="7.88299" transform="translate(-33.50359 469.72921) rotate(-54.68758)" style="fill: #7a512d;"></rect><path d="M438.46094,261.93855c-2.75098-3.64453-5.9541-6.9375-9.52051-9.78906l.88477-1.10742c3.6582,2.92578,6.94434,6.30371,9.7666,10.04297l-1.13086,.85352Z" style="fill: #7a512d;"></path><path d="M443.11328,261.59187c-3.36816-4.54492-7.16309-8.8125-11.28027-12.68408l.9707-1.03223c4.17773,3.92871,8.03027,8.25928,11.44824,12.87256l-1.13867,.84375Z" style="fill: #7a512d;"></path><path d="M448.6875,264.57137c-4.06445-5.625-8.48047-11.0957-13.12793-16.26123l1.05469-.94824c4.67969,5.20361,9.12891,10.71436,13.22168,16.37939l-1.14844,.83008Z" style="fill: #7a512d;"></path><path d="M453.13867,263.92391c-5.0918-6.00391-10.18555-12.08936-15.13965-18.08789l1.09375-.90234c4.9502,5.99365,10.03906,12.0752,15.12598,18.07422l-1.08008,.91602Z" style="fill: #7a512d;"></path><path d="M456.80859,263.45906c-5.52637-6.88867-11.24023-14.01221-18.00098-19.90381l.93164-1.06836c6.85547,5.97461,12.61035,13.14795,18.1748,20.08545l-1.10547,.88672Z" style="fill: #7a512d;"></path><path d="M462.4873,260.26961c-6.54297-6.87109-13.38086-13.62988-20.32422-20.08838l.96484-1.03809c6.96484,6.47852,13.82324,13.25732,20.38672,20.1499l-1.02734,.97656Z" style="fill: #7a512d;"></path><rect x="453.74896" y="228.5357" width="1.4181" height="35.63531" transform="translate(-42.63336 388.20617) rotate(-44.38824)" style="fill: #7a512d;"></rect><rect x="458.97799" y="228.43795" width="1.41707" height="35.8264" transform="translate(-37.86102 402.70662) rotate(-45.6328)" style="fill: #7a512d;"></rect><path d="M479.55664,261.52742c-10.31152-9.08691-20.30566-18.78467-29.7041-28.82471l1.03516-.96875c9.36719,10.00684,19.32812,19.67334,29.60645,28.73096l-.9375,1.0625Z" style="fill: #7a512d;"></path><rect x="478.55012" y="241.56294" width="1.41734" height="24.30788" transform="translate(-27.98454 445.46005) rotate(-48.6036)" style="fill: #7a512d;"></rect><rect x="485.28996" y="245.34409" width="1.41715" height="18.0068" transform="translate(-34.90128 426.25038) rotate(-45.88881)" style="fill: #7a512d;"></rect><rect x="488.0855" y="245.84788" width="1.41688" height="17.29853" transform="translate(-22.20662 460.81424) rotate(-49.4908)" style="fill: #7a512d;"></rect><path d="M499.42578,259.61922c-4.22949-3.68848-8.63574-7.28711-13.09766-10.69482l.86133-1.12598c4.48535,3.42627,8.91504,7.04443,13.16797,10.75244l-.93164,1.06836Z" style="fill: #7a512d;"></path><rect x="497.68662" y="243.22498" width="1.41679" height="17.29824" transform="translate(-18.36814 463.52001) rotate(-49.08276)" style="fill: #7a512d;"></rect><rect x="503.47907" y="242.34481" width="1.41686" height="17.91648" transform="translate(-7.87669 486.14028) rotate(-51.12974)" style="fill: #7a512d;"></rect><path d="M515.24805,258.00008c-3.87988-3.40234-7.92969-6.72363-12.03906-9.87158l.86133-1.125c4.13379,3.16699,8.20898,6.5083,12.11133,9.93018l-.93359,1.06641Z" style="fill: #7a512d;"></path><rect x="512.98738" y="248.65699" width="1.41782" height="4.77309" transform="translate(-45.31539 371.09634) rotate(-38.16546)" style="fill: #7a512d;"></rect><path d="M460.14355,276.43074c-3.6875-4.92871-7.79102-9.60742-12.19531-13.90723l.99023-1.01367c4.45605,4.35059,8.6084,9.08496,12.33984,14.07129l-1.13477,.84961Z" style="fill: #7a512d;"></path><path d="M448.63965,274.545c-2.26367-2.9834-4.99902-5.54102-8.12793-7.59961l.7793-1.18359c3.26367,2.14746,6.11621,4.81445,8.47754,7.92578l-1.12891,.85742Z" style="fill: #7a512d;"></path><path d="M473.88086,274.32918c-3.64648-3.97168-7.50293-7.84375-11.46191-11.50586l.96289-1.04102c3.98633,3.68945,7.87012,7.58789,11.54395,11.58789l-1.04492,.95898Z" style="fill: #7a512d;"></path><path d="M480.66992,269.94051c-3.95801-2.71191-7.74414-5.74902-11.25293-9.0293l.9668-1.03516c3.45801,3.23047,7.1875,6.22363,11.08691,8.89453l-.80078,1.16992Z" style="fill: #7a512d;"></path><rect x="484.44197" y="257.91868" width="1.41683" height="12.51534" transform="translate(-48.87526 405.51513) rotate(-43.39376)" style="fill: #7a512d;"></rect><path d="M284.4834,173.88924l-.76172-1.19531c1.68262-1.07227,3.58887-2.2876,4.48633-4.13623,.30566-.62744,.48828-1.31689,.68262-2.04639l.12793-.47754c.93457-3.40088,2.46191-6.56934,4.53906-9.41699l1.14453,.83496c-1.97559,2.7085-3.42773,5.72266-4.31641,8.95752l-.125,.46582c-.20312,.7627-.41309,1.55176-.77734,2.30225-1.07227,2.2085-3.25,3.59668-5,4.71191Z" style="fill: #7a512d;"></path><path d="M263.47461,200.56746l-1.08203-.91504c2.14941-2.5415,4.61719-4.82959,7.00293-7.04248,2.00391-1.85693,4.0752-3.77783,5.92676-5.82275,3.23926-3.57764,5.90234-7.61572,7.91406-12.00244l1.28906,.59082c-2.07324,4.51855-4.81641,8.67773-8.15234,12.36279-1.89355,2.09131-3.98828,4.0332-6.01367,5.91113-2.35547,2.18408-4.79102,4.44238-6.88477,6.91797Z" style="fill: #7a512d;"></path><path d="M268.54297,210.27498l-1-1.00391c2.64746-2.64062,5.4209-5.21582,8.24316-7.65479,.49023-.42285,1.39941-1.20361,2.51172-1.06982,.33594,.04297,.62109,.16309,.87305,.26904,.1748,.07324,.34082,.14307,.48047,.16602,.47266,.08057,1.04199-.31006,1.53516-.68115,5.44238-4.08105,10.63965-8.58789,15.44922-13.396l1.00195,1.00195c-4.85645,4.85547-10.10547,9.40723-15.60059,13.52783-.72852,.54639-1.59277,1.1167-2.61719,.9458-.30469-.05029-.56641-.16064-.79785-.25781-.18555-.07764-.35938-.15137-.50391-.16943-.45801-.06201-.95898,.35059-1.40625,.73584-2.7959,2.41699-5.54492,4.96924-8.16895,7.58643Z" style="fill: #7a512d;"></path><path d="M238.34961,227.2867l-.94922-1.05176,6.62793-5.98633c.16113-.14502,.32617-.29443,.39941-.43457,.07617-.146,.10156-.37109,.12793-.60889l.0293-.24121c.21973-1.61768,1.13574-3.13184,2.88184-4.76514,.36426-.34082,.74219-.66943,1.11914-.99854,.93555-.81543,1.81836-1.58594,2.50391-2.52539l1.14453,.83496c-.77832,1.06787-1.76367,1.92773-2.7168,2.75879-.36523,.31787-.73047,.63623-1.08203,.96533-1.49512,1.39844-2.27246,2.64404-2.44629,3.9209l-.02441,.20801c-.03809,.34033-.08203,.72656-.28027,1.10645-.19043,.3667-.47754,.62451-.70801,.83203l-6.62695,5.98535Z" style="fill: #7a512d;"></path><path d="M246.29688,232.22615l-1.01172-.99316c4.57129-4.65771,10.30762-8.05469,16.58984-9.82324,1.02637-.28857,2.0752-.53613,3.08887-.7749,1.5918-.375,3.2373-.76318,4.78516-1.31348,2.88867-1.02686,4.98047-2.49951,6.21582-4.37744l1.18359,.7793c-1.40918,2.14111-3.73828,3.80127-6.9248,4.93408-1.62109,.57617-3.30566,.97314-4.93457,1.35693-1,.23584-2.0332,.47949-3.0293,.75977-6.04492,1.70166-11.56445,4.96973-15.96289,9.45215Z" style="fill: #7a512d;"></path><rect x="304.2059" y="155.83758" width="6.95344" height="1.418" transform="translate(26.13443 356.31157) rotate(-62.32323)" style="fill: #7a512d;"></rect><path d="M287.83789,214.84871l-.97461-1.02832c2.19629-2.08447,4.66211-3.86719,7.32812-5.29785l.1123-.06006c.46973-.25098,.91211-.48828,1.22559-.81738,.36328-.38037,.59277-.92773,.81543-1.45654l5.04102-11.9917,1.30664,.54883-5.04102,11.99219c-.25977,.6167-.55371,1.31641-1.0957,1.88477-.46973,.49365-1.06152,.81006-1.58301,1.08936l-.11133,.05957c-2.55469,1.37109-4.91699,3.0791-7.02344,5.07715Z" style="fill: #7a512d;"></path><polygon points="426.58984 243.93269 425.57031 242.9493 433.60547 234.61531 433.5127 226.65975 434.93066 226.64314 435.0293 235.18074 426.58984 243.93269" style="fill: #7a512d;"></polygon><path d="M417.27441,241.89119l-.97461-1.0293c1.52539-1.44531,3.10352-2.93945,4.2998-4.67041l.22754-.33496c.35547-.52832,.72363-1.07422,1.2373-1.53271,.46875-.4165,1.0127-.71436,1.49316-.97705l5.50781-3.01367,.67969,1.24316-5.50781,3.01367c-.43359,.23779-.88281,.4834-1.23047,.79248-.37988,.33887-.68262,.78906-1.00391,1.26562l-.2373,.34961c-1.28027,1.85205-2.91309,3.39795-4.49121,4.89355Z" style="fill: #7a512d;"></path></g><g><g><path d="M485.16664,131.62306c-.0457-.06494-4.62097-6.53742-8.72605-9.30246-1.90082-1.27991-3.72347-2.35979-5.33167-3.313-1.99381-1.1813-3.71545-2.20185-5.07713-3.28494-1.88398-1.49917-2.49487-3.13743-2.43835-4.17082,.03207-.58764,.27177-1.05182,.67543-1.30676,.27819-.17517,.59486-.22728,.91674-.15192,.85701,.20283,1.52162,1.26988,1.59457,1.39094l-.70269,.4245c-.20884-.34393-.68665-.92395-1.08149-1.01655-.10863-.02565-.19722-.01122-.28861,.0473-.17277,.10903-.27699,.34232-.29422,.65739-.04329,.79047,.48863,2.1774,2.1301,3.48376,1.31718,1.04782,3.01638,2.05474,4.98414,3.22081,1.61782,.95883,3.4513,2.04552,5.37176,3.33866,4.23175,2.85043,8.74889,9.24033,8.9393,9.51091l-.67182,.4722Z" style="fill: #7a512d;"></path><path d="M505.90408,155.52239c-1.20775,.0004-2.40067-1.59417-4.34318-4.19006-1.36649-1.82586-3.06688-4.09826-5.29078-6.49854-2.33774-2.52293-3.6894-4.29989-4.77529-5.72771-.17116-.22447-.3331-.43773-.48984-.64136-4.89675,.17677-8.93689-.04449-9.6051-2.19464-.50988-1.64147,.15874-2.43835,.60247-2.76705,1.28672-.95442,3.93071-.53754,6.1498,.97005,1.41058,.95803,2.26278,1.90122,3.24125,3.15266,1.1348-.04289,2.27761-.10422,3.36592-.16274,2.5085-.13509,4.87751-.26296,6.79516-.1892,1.21336,.0461,2.272,.10703,3.2645,.17196,1.34685-.50827,3.36952-1.12558,6.40875-1.86875,4.83542-1.1821,10.49779-2.21268,13.76991-2.5065,2.64198-.2349,4.50312,.13509,5.11,1.02016,.25734,.37559,.28099,.82254,.06654,1.25866-.79047,1.60499-4.48388,2.81555-9.40869,3.08332-7.63173,.41528-10.9768,.18118-14.51829-.06654-.43612-.03046-.87665-.06133-1.33081-.09139-1.06826,.40005-1.77054,.7568-1.94972,1.03058,.08137,.05572,.29703,.16395,.83176,.26857,2.19223,.42851,4.56966,1.36248,7.08658,2.35097,4.70875,1.84951,10.04644,3.94714,15.86834,3.41041,8.52482-.78326,10.52144-8.05022,12.28317-14.46177l.14751-.53553c.69747-2.52855,.46378-4.73762-.69387-6.56548-1.52322-2.40468-4.58008-4.0678-8.84029-4.80937-2.36781-.41247-5.03184-.46498-7.77484-.20403-7.18278,5.23627-21.04048,12.97423-25.91639,14.39563-1.59658,.46538-2.34496,.43773-2.58587-.0934-.20924-.46218-.12827-1.18931,3.50942-3.98001,2.10485-1.61461,5.05268-3.6445,8.30155-5.71488,4.51514-2.87848,10.61444-4.81217,16.39386-5.39821,1.77696-1.30716,3.03963-2.39426,3.63929-3.15587,1.12879-1.43423,1.53164-2.92619,1.19733-4.43457-.4742-2.14052-2.42673-4.21732-5.35692-5.69805-1.35246-.68304-2.65401-1.87797-4.09025-3.29978-.24853,2.0836-1.42421,4.89956-5.05188,7.97967-5.01701,4.2594-11.3075,12.61547-15.4699,18.14516-1.892,2.51331-3.38596,4.49831-4.21812,5.38779-.53152,.568-1.22379,1.1813-1.86474,.87465-1.16727-.55958-.81492-3.85014,.40806-12.41945,.2846-1.99301,.43492-4.65183,.59365-7.46698,.46538-8.24182,1.04421-18.49911,5.41585-21.96644,1.33963-1.06265,2.96627-1.43463,4.83382-1.10914,6.82242,1.19412,11.08744,5.1585,14.48903,8.55128-.31146-1.78257-1.35927-3.43085-2.96387-4.62137-.58604-.43412-1.19212-.87465-1.81183-1.3248-3.19836-2.32331-6.82362-4.95688-9.84641-8.39094-.45697-.5195-.96324-1.14843-1.49917-1.81383-2.44998-3.04363-5.80427-7.21004-9.49607-7.21004h-.02365c-1.91204,.00922-3.79322,1.16927-5.59142,3.44769-5.1581,6.53622-2.14213,21.14069,.28139,32.8759,.88587,4.29067,1.72284,8.34284,2.02909,11.42776,.55557,5.59382,.20684,8.62383-1.06665,9.26318-.60768,.30384-1.22499-.01323-1.50999-.26175-.35555-.25414-6.21875-4.40892-10.77798-5.65155-2.16818-.59125-4.2109-1.03098-6.01311-1.419-2.23192-.48062-4.15959-.89589-5.75216-1.46189-2.21548-.78807-3.22602-2.05354-3.43326-2.97549-.12106-.54034-.0008-1.02457,.33912-1.36328,.8065-.8029,2.08641-.12266,2.71574,.40445l-.52711,.62973c-.29142-.24331-1.21336-.84779-1.609-.45256-.17076,.16996-.15833,.42089-.11745,.60167,.15152,.67583,1.00412,1.7052,2.90695,2.38184,1.54246,.54836,3.44608,.95843,5.64994,1.43303,1.81263,.39002,3.86657,.83256,6.056,1.42942,4.825,1.31518,10.80725,5.60745,11.05938,5.78984l.03648,.02926c.0012,.0012,.33791,.29142,.61089,.15112,.32469-.16635,1.32841-1.26708,.6153-8.44706-.30224-3.04163-1.1348-7.07375-2.01626-11.34278-2.4576-11.90196-5.51646-26.71407-.12186-33.55012,1.96054-2.48485,4.05738-3.74993,6.23197-3.76035h.02806c4.08463,0,7.58083,4.34278,10.13543,7.51589,.52992,.65859,1.03058,1.28031,1.47592,1.78618,2.96266,3.36632,6.54864,5.97102,9.71213,8.26948,.62212,.45175,1.2306,.89389,1.81864,1.32961,2.07599,1.54006,3.311,3.7848,3.38916,6.15942,.0004,.01243,.0008,.02525,.0012,.03768,1.60018,1.60098,3.00555,2.96507,4.40932,3.67417,3.15066,1.59217,5.26032,3.87138,5.78824,6.25322,.39002,1.76012-.06534,3.48296-1.35366,5.11962-.52752,.67022-1.49396,1.53645-2.76945,2.52534,2.36019-.1427,4.6374-.04971,6.69816,.30905,4.4943,.78245,7.74237,2.57344,9.39266,5.17895,1.28712,2.0319,1.55328,4.46183,.79167,7.22287l-.14711,.53513c-1.74168,6.3382-3.90906,14.22647-12.99948,15.06184-6.01872,.55036-11.4502-1.58094-16.24354-3.46412-2.48165-.97446-4.825-1.89521-6.94388-2.30928-.4273-.08338-1.5617-.30545-1.52122-1.08149,.01042-.20002,.02926-.55998,1.06385-1.12798-.52431-.02806-1.07427-.05371-1.66071-.07616-1.87877-.07015-4.22974,.05532-6.71981,.1888-.9448,.05051-1.88198,.10101-2.79591,.1415,.0461,.06093,.093,.12266,.1407,.18479,1.07507,1.41379,2.4135,3.17311,4.72399,5.66678,2.25316,2.43194,3.96799,4.72318,5.3461,6.56468,1.63786,2.18863,2.91857,3.90385,3.72588,3.85976,.07215-.00521,.26336-.01924,.40686-.36718,.50667-1.231-.31467-4.91359-2.70812-7.65899-3.14264-3.60362-7.22447-6.67732-9.70572-7.30865l.20203-.79528c2.66764,.67863,6.83004,3.78921,10.1226,7.56439,2.46962,2.83279,3.54068,6.82964,2.84842,8.51119-.21726,.52711-.61009,.83697-1.10674,.87305-.03287,.00241-.06614,.00361-.09941,.00361Zm1.04701-17.9299c3.41121,.2349,6.63683,.40766,13.76951,.02084,5.59663-.30464,8.2795-1.73767,8.71723-2.62675,.10663-.21726,.05211-.34473-.00722-.43131-.31507-.45937-1.64708-.91073-4.35962-.66701-5.13165,.46057-13.26765,2.21388-18.1199,3.70423Zm-23.12488-3.7824c-.54676,0-1.01254,.11344-1.33522,.35234-.47781,.35435-.58123,.98127-.30705,1.86394,.4734,1.52402,4.15879,1.73848,8.18691,1.63225-.79608-.97847-1.53685-1.73006-2.67966-2.5065-1.26628-.85982-2.73739-1.34204-3.86497-1.34204Zm16.50208-42.30062c-1.15324,0-2.15415,.34673-3.03842,1.04782-4.08263,3.23845-4.65023,13.2917-5.10599,21.36957-.15994,2.83319-.31106,5.50925-.60047,7.53713-.67102,4.69953-1.58976,11.13554-.86583,11.56324h.002c.02245,0,.26536-.00882,.90792-.69587,.8021-.85701,2.28483-2.82678,4.162-5.32045,4.18404-5.55855,10.50741-13.95871,15.59417-18.27744,3.10456-2.63597,4.76247-5.43509,4.81538-8.11956-.03046-.03046-.06093-.06133-.09179-.09179-3.41762-3.42604-7.67142-7.68946-14.63534-8.90803-.39724-.06975-.77804-.10462-1.14362-.10462Zm-6.1514,41.1554c.18359,.00962,.6133-.02485,1.55168-.29823,2.76304-.8053,9.09202-3.9748,15.74929-7.88667,3.39558-1.99542,6.37868-3.89062,8.71843-5.52368-5.20059,.72634-10.53267,2.52774-14.5716,5.10199-6.98597,4.45341-10.99725,7.66701-11.4478,8.60659Z" style="fill: #7a512d;"></path></g><path d="M456.73828,73.00228c-.16034,.0004-.31426-.02044-.46017-.06253-.55076-.15833-.96805-.52872-1.20655-1.07066-.6173-1.40216-.05973-4.04214,1.52963-7.24291,1.56651-3.15587,3.67016-6.41957,4.34358-7.44333-.07576-.26576-.15553-.53553-.23971-.80931-6.84206,12.87842-11.26181,14.58203-12.82912,15.1857-4.84504,1.86795-7.78887-.60368-10.90585-3.21921-1.96255-1.64668-3.99204-3.34988-6.68734-4.22092-5.41665-1.7505-9.35457-4.56806-10.53467-7.53753-.62412-1.56972-.51148-3.14785,.33431-4.69032,1.31638-2.40027,7.57762-4.77008,13.98997-6.0528-3.77318-1.41259-6.95029-2.77827-7.75078-3.12661-3.03121-1.31839-4.76207-3.25688-5.14448-5.76138-.71752-4.70154,3.60121-10.32703,7.51749-13.71579,2.88009-2.49247,3.48256-6.72301,4.06499-10.81406,.56359-3.95596,1.09552-7.69266,3.74231-9.32451,.94961-.58524,2.05875-.68264,3.29497-.28701,2.99834,.95803,6.16904,4.61696,8.30075,7.51829,2.16778,2.94984,4.3059,6.56067,5.76378,9.70411,1.99542-1.95533,4.56244-3.66575,7.095-5.35332,1.38413-.92235,2.81555-1.87597,4.13674-2.85684,3.01477-2.23833,5.19218-4.69472,7.11304-6.86211,2.66844-3.01036,4.7793-5.38819,7.53834-4.89395,.95482,.17076,1.77736,.8498,2.44517,2.01867,2.35217,4.1147,2.62234,14.66821-1.0418,24.54348-3.00355,8.09591-9.35778,14.73154-13.56227,19.12242-1.88278,1.96616-3.36992,3.51944-3.82048,4.4478-.11544,.2385-.26135,.54836-.43532,.91754-.62412,1.3248-1.231,2.56061-1.82145,3.71586,.10542-.06093,.22287-.13068,.35194-.21085,.01603-.21766,.11344-.43973,.29102-.64857,.42049-.49465,1.35967-.97406,2.36099-1.2783,2.26639-1.84029,5.59823-4.96249,10.0745-10.18232,4.00687-4.67268,7.8065-7.11304,11.29387-7.25333,2.80834-.11945,4.32314,1.35446,4.38607,1.417l-.57682,.58403c-.01323-.01283-1.34003-1.28271-3.80564-1.17969-2.22951,.09941-5.89125,1.38854-10.67457,6.96673-3.81366,4.4478-6.80118,7.39122-9.02708,9.32772,.42931-.02606,.81973,.00441,1.12117,.10783,2.63958-1.61541,5.85478-3.78159,8.21938-5.37496,2.71935-1.83227,5.28798-3.56313,6.89257-4.49109,1.35647-.78486,2.53135-.91674,3.48978-.39363,2.00704,1.09512,2.19905,4.6851,2.20626,4.83743l-.82013,.03888c-.0016-.03287-.17717-3.28294-1.78016-4.15639-.69106-.3768-1.59417-.24652-2.68447,.38401-1.58054,.91433-4.13795,2.63758-6.84527,4.46183-3.4056,2.29485-6.02995,4.02892-8.03859,5.26754,.08298,.22047,.07817,.48102-.02205,.7584-.73355,2.03831-4.88553,3.28735-6.06161,3.60362,.50346,1.8471,.80009,3.48497,.79809,4.81458-.00722,4.82139-2.04633,8.51039-4.06419,10.0272-.65017,.48903-1.29233,.74357-1.85512,.74357Zm4.4939-14.75559c-.89108,1.38413-2.58506,4.10468-3.89584,6.74426-1.43704,2.89492-2.01706,5.40342-1.5136,6.54704,.1415,.32108,.36477,.5215,.68224,.6129,.39964,.11464,.97967-.08538,1.59497-.54836,1.85512-1.39455,3.72988-4.83342,3.7367-9.37261,.0016-1.11115-.21966-2.4612-.60448-3.98322Zm-25.65423-11.85466c-6.6212,1.15284-13.4825,3.53628-14.77563,5.89366-.72273,1.31799-.82094,2.66123-.29142,3.99284,1.09071,2.7446,4.83823,5.38338,10.02439,7.05972,2.84802,.92035,4.93964,2.67566,6.96232,4.37284,3.05325,2.56262,5.69083,4.77409,10.08332,3.08252,5.11642-1.97217,9.87487-9.86525,12.78342-15.49155-1.2775-3.88341-3.216-8.45187-5.11642-12.93134-1.72525-4.0662-3.35469-7.90631-4.45582-11.14115-1.5132-4.44419-.14711-7.76682,2.45559-10.56834-2.89372-6.37027-9.0824-15.59497-13.70056-17.07009-1.01294-.32388-1.86795-.25694-2.61473,.20403-2.3185,1.42942-2.82437,4.98093-3.3599,8.74128-.57602,4.04295-1.2286,8.62583-4.34078,11.31873-3.75834,3.25207-7.91032,8.60058-7.24291,12.97142,.33671,2.20707,1.90483,3.93392,4.65985,5.13245,2.99513,1.30275,6.09849,2.53736,9.00945,3.58478,2.84321-.48743,5.63792-.74077,7.96404-.67423,3.35549,.09781,5.38098,.83096,6.02073,2.1782,.46819,.98568,.21646,1.55449-.07736,1.85793-1.47672,1.52763-8.14161-.40285-13.98757-2.51371Zm25.81537,9.43755c.08418,.26937,.16515,.53553,.24211,.79769,1.55048-.41728,4.97692-1.61541,5.51205-3.08853-2.90775,1.74168-4.33797,2.2704-4.94325,1.84229-.35515,.21485-.62452,.35756-.81091,.44855Zm3.54068-2.40789c-.5692,.45937-1.07267,.83937-1.5124,1.15244,.63855-.2349,1.58415-.73275,2.69891-1.38373-.36237,.03447-.77484,.11625-1.18651,.23129Zm-10.71706-32.60252c.06213,.1423,.12266,.283,.18158,.42249,2.74741,6.50054,5.82511,26.59101,6.70497,32.60292,.6161-1.23782,1.11716-2.30167,1.48354-3.07931,.17557-.37279,.32268-.68505,.43973-.92596,.50627-1.04461,1.95734-2.55981,3.96598-4.65704,4.15759-4.34198,10.44127-10.90385,13.3855-18.84023,3.58157-9.65321,3.3591-19.89646,1.09872-23.85082-.54154-.9476-1.17288-1.49195-1.87677-1.61782-2.31048-.41648-4.18485,1.7028-6.77953,4.63059-1.85111,2.08841-4.15478,4.68751-7.2385,6.97635-1.33763,.9933-2.77787,1.95293-4.17042,2.88089-2.65962,1.77215-5.25751,3.50341-7.19481,5.45794Zm-.6129,.65178c-2.28323,2.56663-3.37914,5.54693-2.0351,9.49407,1.09191,3.20638,2.71574,7.03327,4.43457,11.08503,1.38292,3.25929,2.78589,6.56588,3.94434,9.63557-1.17368-7.70308-3.91027-24.4565-6.30533-30.12408-.01283-.03046-.02565-.06013-.03848-.09059Zm-16.30807,24.64931c5.94136,2.04232,10.77357,3.15467,11.67949,2.21468,.16475-.16996,.1399-.48462-.07416-.93518-.48302-1.01655-2.3662-1.62383-5.30281-1.70961-1.85151-.05411-4.03092,.10703-6.30252,.43011Z" style="fill: #7a512d;"></path><path d="M410.42761,126.52268c-2.18948,0-6.36203-1.48282-9.41017-5.79228-1.32951-1.87974-2.05361-3.25975-2.37792-4.34954l-.27381-.17283c-.02447-.01536-2.48437-1.56064-5.26833-2.82144-3.61009-1.63482-6.11346-2.06454-7.23839-1.24102-.77407,.56637-.92321,1.78656-.443,3.62622l-.51588,.13483c-.54086-2.07287-.32405-3.48281,.64393-4.19129,2.74596-2.00962,10.76597,2.6205,12.69751,3.79046,.00026-.01666,.00078-.03358,.0013-.05075-.10645-.08381-.21291-.16762-.3191-.25117-2.80894-2.21056-5.46198-4.29853-6.5942-5.02627-3.84408-2.47058-6.30399-3.39301-7.30945-2.74049-.48152,.31208-.63795,1.04867-.46512,2.18974l-.52681,.07965c-.20718-1.36647,.02889-2.28058,.70198-2.71654,1.23295-.7988,3.7384,.07236,7.88779,2.73945,1.1533,.74128,3.81623,2.83705,6.63532,5.05568,.00703,.00547,.01379,.01067,.02082,.01614,.00937-.13795,.02108-.28605,.03592-.44352-2.39067-3.81206-4.16839-10.16837-5.51612-15.6811-1.35137-5.52965,.33602-13.21885,2.6343-15.8987,.67022-.78084,1.37792-1.14497,2.09812-1.08198,1.9115,.16632,3.08146,2.32691,4.11373,4.23294,.84357,1.55804,1.64055,3.02966,2.62545,3.0877,1.42269,.08329,2.9927,1.14471,3.90655,2.6408,.54919,.89901,.84149,1.89926,.8748,2.95002,4.29957-4.82429,8.15406-6.94636,11.47471-6.30399,2.24231,.43259,3.57573,1.07235,4.19676,2.01353,.67855,1.02889,.41046,2.26418,.12624,3.57183-.3126,1.43987-.6671,3.07183,.17126,4.74881,.59552,1.19078,1.30973,2.11738,1.94013,2.93466,1.75533,2.27667,2.92217,3.7902-1.41592,7.44662,.66163,.02577,1.29255,.0937,1.88235,.20822,1.90759,.37012,3.22175,1.19963,3.90603,2.46563,2.13612,3.95288,.30062,5.58587-1.47475,7.16525-.6848,.60932-1.39302,1.23945-1.83081,1.99531-1.57496,2.72019-3.52055,4.95183-9.94635,2.41098-2.37219-.93753-4.98072-1.68401-7.50336-2.40603-2.99114-.8558-5.85891-1.67673-8.05541-2.74075,1.46199,1.12441,2.70509,2.04788,3.45366,2.52055,.60593,.38287,1.25455,.76236,1.88157,1.12962,2.36048,1.38157,4.399,2.57495,4.27016,3.8597-.02212,.2202-.16424,.61764-.8696,.80375-.22592,.0596-.50468,.09162-.82587,.09162Zm-11.32063-10.38804c.28501,1.03513,.99115,2.37271,2.34565,4.28812,3.34642,4.73111,8.01975,5.92606,9.66499,5.49295,.13613-.03592,.45497-.14107,.47501-.34149,.09474-.94456-1.9914-2.16579-4.0091-3.34668-.63092-.36934-1.28318-.75117-1.89692-1.13873-1.26054-.7962-3.86985-2.82482-6.57962-4.95417Zm-.09526-1.66371c.56949,.84409,1.17256,1.53253,1.81077,2.01769,2.16293,1.64367,5.91981,2.71889,9.89716,3.85709,2.53513,.72566,5.15641,1.47579,7.55255,2.42295,6.03954,2.38703,7.77978,.42348,9.2894-2.18245,.48048-.83003,1.2215-1.48906,1.93779-2.12649,1.69494-1.5078,3.29567-2.93206,1.35996-6.51351-.60463-1.11894-1.79541-1.85762-3.53851-2.19598-.74232-.1442-1.5596-.20354-2.4344-.20432-4.99634,3.83471-15.13608,7.53017-16.89713,6.87686-.29594-.10958-.3722-.31546-.39146-.42868-.06377-.37428,.26809-.83966,1.07574-1.50884,3.35137-2.77693,10.53823-5.41539,16.03639-5.4776,.11322-.0885,.22254-.17647,.32795-.26392,4.13247-3.42633,3.25116-4.56922,1.49583-6.84589-.64497-.83654-1.3761-1.78474-1.99479-3.02185-.92243-1.84487-.54685-3.57443-.21525-5.10045,.27069-1.24674,.50468-2.32352-.05049-3.16501-.52915-.80218-1.78943-1.38573-3.85267-1.78396-3.68349-.71004-7.81465,2.51613-11.40392,6.64782-.07808,.78214-.2936,1.58407-.64706,2.38521-1.39953,3.17204-3.63585,6.75401-5.43257,9.63245-.97891,1.56767-1.82404,2.92165-2.32717,3.87765-.22514,.42764-.45549,.7988-.67855,1.15773-.42035,.67699-.78136,1.25845-.91957,1.94351Zm24.93198-4.89509c-5.21003,.2975-11.83,2.75142-14.93019,5.32013-.9115,.75507-.89042,1.0065-.89016,1.00911,.21759,.23946,2.46147-.00442,6.86697-1.7293,3.51274-1.37532,6.74438-3.04216,8.95338-4.59993Zm-24.98144,5.76703c.01926,.0151,.03852,.03019,.05752,.04529-.02004-.02629-.04008-.05284-.06012-.07939,.00104,.01145,.00182,.02264,.0026,.0341Zm-1.59213-33.12066c-.50625,0-1.0229,.30323-1.53722,.90291-2.20405,2.56949-3.80009,10.19205-2.52107,15.42499,1.27355,5.20951,2.92919,11.17669,5.09759,14.95102,.21291-1.53227,.68558-3.59473,1.72618-5.67593,1.1749-2.35007,4.14392-7.51091,7.82064-11.94764,.1822-.21994,.36413-.43571,.54503-.64628,.08121-1.18271-.18089-2.30843-.78422-3.29619-.95497-1.5635-2.43726-2.32508-3.48281-2.38651-1.2811-.07548-2.14653-1.6736-3.06298-3.36594-1.01561-1.87506-2.06558-3.81415-3.69129-3.95574-.03644-.00312-.07314-.00469-.10984-.00469Zm10.97524,14.0429c-3.50728,4.22305-6.41278,9.15744-7.73293,11.7985-.8735,1.74674-1.33368,3.50363-1.57522,4.91669,.13561-.2418,.28553-.4836,.44117-.73425,.21811-.35086,.44352-.71395,.65981-1.12467,.51223-.97319,1.36231-2.33497,2.34643-3.91175,1.78813-2.86386,4.01326-6.42814,5.39717-9.56504,.2038-.46174,.35815-.92295,.46356-1.37949Z" style="fill: #7a512d;"></path></g></svg>