<?xml version="1.0" encoding="utf-8"?>
<!-- Generator: Adobe Illustrator 16.0.0, SVG Export Plug-In . SVG Version: 6.00 Build 0)  -->
<!DOCTYPE svg PUBLIC "-//W3C//DTD SVG 1.1//EN" "http://www.w3.org/Graphics/SVG/1.1/DTD/svg11.dtd">
<svg version="1.1" id="圖層_1" xmlns="http://www.w3.org/2000/svg" xmlns:xlink="http://www.w3.org/1999/xlink" x="0px" y="0px"
	 width="61.333px" height="62.167px" viewBox="0 0 61.333 62.167" enable-background="new 0 0 61.333 62.167" xml:space="preserve">
<path fill="#F8D1E2" d="M60,31.084c0,16.568-13.432,30-30,30c-16.569,0-30-13.432-30-30c0-16.569,13.431-30,30-30
	C46.568,1.084,60,14.516,60,31.084"/>
<path fill="#D9518F" d="M38.651,24.395c-0.114,1.21-0.212,2.317-0.323,3.422c-0.092,0.906-0.233,1.807-0.287,2.714
	c-0.025,0.456-0.197,0.556-0.611,0.549c-1.322-0.02-2.646,0.013-3.968-0.018c-0.48-0.011-0.587,0.159-0.586,0.608
	c0.014,5.793,0.009,11.585,0.009,17.377c0,0.771-0.002,0.774-0.762,0.774c-2.142,0.001-4.283-0.018-6.425,0.013
	c-0.578,0.009-0.719-0.185-0.717-0.737c0.019-5.774,0.004-11.548,0.023-17.321c0.003-0.56-0.13-0.755-0.711-0.717
	c-0.815,0.053-1.638-0.001-2.457,0.02c-0.374,0.009-0.534-0.097-0.531-0.499c0.014-1.9,0.011-3.8,0.002-5.699
	c-0.002-0.355,0.121-0.5,0.487-0.492c0.819,0.019,1.64,0.006,2.459,0.005c0.737,0,0.729,0,0.74-0.713
	c0.028-1.526-0.016-3.058,0.116-4.574c0.307-3.51,2.457-6.308,6.386-6.644c2.237-0.191,4.499-0.091,6.75-0.128
	c0.346-0.006,0.448,0.16,0.447,0.48c-0.007,1.862-0.009,3.725,0.002,5.587c0.002,0.366-0.141,0.488-0.497,0.484
	c-1.192-0.013-2.384-0.007-3.576-0.003c-1.174,0.005-1.729,0.565-1.735,1.755c-0.007,1.061,0.022,2.124-0.014,3.184
	c-0.016,0.486,0.165,0.589,0.611,0.582c1.489-0.023,2.98-0.009,4.47-0.009H38.651z"/>
</svg>
