<?xml version="1.0" encoding="utf-8"?>
<!-- Generator: Adobe Illustrator 16.0.0, SVG Export Plug-In . SVG Version: 6.00 Build 0)  -->
<!DOCTYPE svg PUBLIC "-//W3C//DTD SVG 1.1//EN" "http://www.w3.org/Graphics/SVG/1.1/DTD/svg11.dtd">
<svg version="1.1" id="圖層_1" xmlns="http://www.w3.org/2000/svg" xmlns:xlink="http://www.w3.org/1999/xlink" x="0px" y="0px"
	 width="61.333px" height="62.167px" viewBox="0 0 61.333 62.167" enable-background="new 0 0 61.333 62.167" xml:space="preserve">
<path fill="#F8D1E2" d="M60,31c0,16.568-13.432,30-30,30C13.431,61,0,47.568,0,31C0,14.431,13.431,1,30,1C46.568,1,60,14.431,60,31"
	/>
<path fill="#D9518F" d="M35.791,39.13c1.592,0,3.184,0.033,4.773-0.007c2.619-0.066,4.847-2.319,4.969-4.973
	c0.125-2.713-1.863-5.154-4.47-5.487c-0.269-0.034-0.537-0.068-0.808-0.088c-0.887-0.065-1.537-0.765-1.521-1.643
	c0.018-0.897,0.716-1.578,1.656-1.553c2.991,0.081,5.343,1.387,6.973,3.874c3.334,5.086,0.338,11.933-5.661,13.007
	c-0.464,0.083-0.941,0.118-1.413,0.119c-3.029,0.011-6.06,0.01-9.09,0.005c-4.576-0.009-8.331-3.698-8.435-8.277
	c-0.1-4.408,3.063-8.12,7.41-8.684c0.334-0.044,0.676-0.052,1.013-0.043c0.871,0.023,1.542,0.697,1.562,1.548
	c0.021,0.874-0.633,1.583-1.518,1.645c-2.488,0.175-4.271,1.468-5.004,3.628c-1.126,3.319,1.291,6.834,4.79,6.926
	c1.59,0.042,3.182,0.008,4.772,0.008V39.13z"/>
<path fill="#D9518F" d="M24.266,22.868c-1.607,0-3.217-0.032-4.823,0.007c-2.605,0.065-4.851,2.306-4.974,4.913
	c-0.132,2.789,1.831,5.207,4.506,5.551c0.235,0.03,0.471,0.065,0.706,0.081c0.949,0.066,1.634,0.791,1.585,1.688
	c-0.047,0.883-0.768,1.553-1.705,1.509c-3.537-0.168-6.108-1.865-7.563-5.076c-2.336-5.154,1.058-11.136,6.653-11.838
	c0.468-0.059,0.942-0.084,1.415-0.085c2.844-0.008,5.688-0.005,8.531-0.004c4.448,0.001,7.987,3.069,8.605,7.461
	c0.618,4.386-2.601,8.741-6.972,9.421c-0.467,0.072-0.941,0.121-1.412,0.118c-0.871-0.006-1.543-0.693-1.563-1.543
	c-0.021-0.882,0.624-1.584,1.515-1.646c2.504-0.176,4.302-1.491,5.021-3.674c1.092-3.309-1.323-6.789-4.802-6.88
	c-1.573-0.041-3.149-0.007-4.724-0.007V22.868z"/>
</svg>
