<?xml version="1.0" encoding="utf-8"?>
<!-- Generator: Adobe Illustrator 16.0.0, SVG Export Plug-In . SVG Version: 6.00 Build 0)  -->
<!DOCTYPE svg PUBLIC "-//W3C//DTD SVG 1.1//EN" "http://www.w3.org/Graphics/SVG/1.1/DTD/svg11.dtd">
<svg version="1.1" id="圖層_1" xmlns="http://www.w3.org/2000/svg" xmlns:xlink="http://www.w3.org/1999/xlink" x="0px" y="0px"
	 width="61.333px" height="62.167px" viewBox="0 0 61.333 62.167" enable-background="new 0 0 61.333 62.167" xml:space="preserve">
<path fill="#F8D1E2" d="M60,31c0,16.568-13.432,30-30,30C13.431,61,0,47.568,0,31C0,14.431,13.431,1,30,1C46.568,1,60,14.431,60,31"
	/>
<path fill="#D9518F" d="M29.989,13.224c4.854,0.136,9.306,1.402,13.166,4.399c2.873,2.231,4.824,5.071,5.431,8.73
	c0.521,3.157-0.224,6.017-1.938,8.688c-2.822,4.395-6.717,7.631-11.104,10.32c-1.859,1.139-3.819,2.117-5.733,3.167
	c-0.428,0.235-0.859,0.386-1.316,0.065c-0.434-0.305-0.448-0.736-0.394-1.204c0.112-0.949,0.188-1.903,0.314-2.85
	c0.136-1.009-0.197-1.485-1.198-1.591c-2.448-0.258-4.776-0.943-6.985-2.014c-2.661-1.292-4.932-3.073-6.645-5.511
	c-3.578-5.093-3.003-11.589,1.431-16.171c2.938-3.036,6.563-4.777,10.68-5.519C27.112,13.478,28.557,13.389,29.989,13.224
	 M31.293,27.864c0.192,0.221,0.284,0.316,0.364,0.42c1.077,1.386,2.154,2.773,3.229,4.162c0.327,0.421,0.632,0.884,1.284,0.66
	c0.67-0.231,0.726-0.786,0.724-1.381c-0.006-1.874-0.002-3.748-0.003-5.623c0-0.352,0.016-0.704-0.005-1.054
	c-0.037-0.661-0.442-1.064-1.022-1.039c-0.554,0.024-0.925,0.43-0.93,1.063c-0.011,1.21-0.002,2.421-0.005,3.631
	c0,0.162-0.02,0.324-0.036,0.579c-0.189-0.233-0.313-0.379-0.43-0.531c-1.094-1.424-2.186-2.85-3.28-4.271
	c-0.278-0.363-0.616-0.604-1.105-0.447c-0.499,0.159-0.704,0.528-0.705,1.025c-0.003,2.343-0.003,4.685,0.001,7.028
	c0,0.155,0.008,0.323,0.067,0.461c0.192,0.438,0.546,0.689,1.022,0.609c0.514-0.087,0.829-0.415,0.829-0.973
	C31.294,30.798,31.293,29.414,31.293,27.864 M40.278,27.583v-1.666c0.95,0,1.865,0.007,2.779-0.003
	c0.626-0.006,1.042-0.38,1.066-0.928c0.023-0.57-0.395-1.006-1.047-1.016c-1.25-0.02-2.5-0.022-3.75,0.002
	c-0.651,0.013-1.014,0.389-1.017,1.037c-0.012,2.383-0.013,4.766,0.001,7.149c0.004,0.641,0.383,1.005,1.038,1.014
	c1.25,0.018,2.502,0.044,3.749-0.021c0.325-0.017,0.752-0.285,0.924-0.566c0.39-0.634-0.139-1.353-0.96-1.37
	c-0.915-0.019-1.83-0.005-2.782-0.005v-1.663c0.217,0,0.406,0,0.597,0c0.723,0.001,1.446,0.014,2.169-0.002
	c0.595-0.014,0.994-0.387,1.023-0.913c0.03-0.551-0.357-0.977-0.964-1.04c-0.192-0.021-0.39-0.009-0.585-0.009
	C41.783,27.583,41.046,27.583,40.278,27.583 M21.298,31.211v-0.797c0-1.776,0.007-3.551-0.004-5.325
	c-0.004-0.681-0.442-1.146-1.01-1.127c-0.549,0.019-0.947,0.473-0.949,1.121c-0.006,2.321-0.006,4.643,0,6.964
	c0.002,0.682,0.363,1.113,0.999,1.126c1.267,0.025,2.536,0.03,3.804-0.002c0.721-0.019,1.151-0.666,0.913-1.309
	c-0.179-0.484-0.573-0.655-1.067-0.652C23.11,31.213,22.237,31.211,21.298,31.211 M27.979,28.612c0-1.19,0.004-2.38-0.001-3.57
	c-0.004-0.771-0.286-1.073-0.981-1.078c-0.709-0.004-0.982,0.286-0.983,1.056c-0.001,2.361-0.001,4.722,0,7.082
	c0.001,0.788,0.259,1.075,0.961,1.077c0.704,0.002,0.999-0.299,1.003-1.055C27.984,30.953,27.979,29.783,27.979,28.612"/>
</svg>
