<svg xmlns="http://www.w3.org/2000/svg" id="_&#x5716;&#x5C64;_1" data-name="&#x5716;&#x5C64; 1" viewBox="0 0 1018.42385 315.85474"><g><g><path d="M745.41714,67.08671c-14.90793,0-26.99328,12.08535-26.99328,26.99337s12.08535,26.9932,26.99328,26.9932,26.99328-12.08526,26.99328-26.9932-12.08528-26.99337-26.99328-26.99337Zm0,50.27783c-12.85965,0-23.28455-10.42481-23.28455-23.28446s10.4249-23.28455,23.28455-23.28455,23.2845,10.42481,23.2845,23.28455-10.42483,23.28446-23.2845,23.28446Z" style="fill: #f8d1e2;"></path><path d="M745.41714,75.94977s-10.12562,7.10185-10.12562,19.42183c0,8.50094,4.82014,14.15152,7.809,16.8386,.62453-6.62142,2.31662-16.89982,2.31662-16.89982,0,0,1.692,10.2784,2.31653,16.89982,2.98895-2.68709,7.80905-8.33758,7.80905-16.8386,0-12.31998-10.12558-19.42183-10.12558-19.42183Z" style="fill: #f8d1e2;"></path></g><g><path d="M827.42165,67.08671c-14.90793,0-26.99328,12.08535-26.99328,26.99337s12.08535,26.9932,26.99328,26.9932,26.9932-12.08526,26.9932-26.9932-12.08518-26.99337-26.9932-26.99337Zm0,50.27783c-12.85965,0-23.28455-10.42481-23.28455-23.28446s10.4249-23.28455,23.28455-23.28455,23.28446,10.42481,23.28446,23.28455-10.42481,23.28446-23.28446,23.28446Z" style="fill: #f8d1e2;"></path><path d="M827.42165,75.94977s-25.40927,36.26044,0,36.26044,0-36.26044,0-36.26044Zm0,33.90556c-1.48884,0-2.74916-.16292-3.81345-.45988,.21098,.00576,.41793,.01453,.63699,.01453,14.6347,0,11.00051-13.03512,6.20152-22.83343,4.62386,8.03727,11.48034,23.27879-3.02506,23.27879Z" style="fill: #f8d1e2;"></path></g><g><path d="M991.43066,67.08671c-14.90802,0-26.99328,12.08535-26.99328,26.99337s12.08526,26.9932,26.99328,26.9932,26.9932-12.08526,26.9932-26.9932-12.08526-26.99337-26.9932-26.99337Zm0,50.27783c-12.85973,0-23.28455-10.42481-23.28455-23.28446s10.42481-23.28455,23.28455-23.28455,23.28446,10.42481,23.28446,23.28455-10.42481,23.28446-23.28446,23.28446Z" style="fill: #f8d1e2;"></path><path d="M1001.2104,81.43451h-19.55948c-.94977,0-1.71951,.76991-1.71951,1.71951,0,.94969,.76974,1.71951,1.71951,1.71951h.39403l3.03675,18.53671h-1.30657v-1.0158c0-.58661-.47554-1.06214-1.06215-1.06214-.58653,0-1.06206,.47553-1.06206,1.06214v3.26914c0,.58661,.47553,1.06214,1.06206,1.06214,.58661,0,1.06215-.47553,1.06215-1.06214v-1.0158h1.66431c.42111,.73518,1.21217,1.21819,2.1015,1.21819h7.77934c.88933,0,1.68049-.48301,2.10159-1.21819h1.66423v1.0158c0,.58661,.47553,1.06214,1.06206,1.06214,.5867,0,1.06223-.47553,1.06223-1.06214v-3.26914c0-.58661-.47553-1.06214-1.06223-1.06214-.58653,0-1.06206,.47553-1.06206,1.06214v1.0158h-1.30657l3.03675-18.53671h.39411c.9496,0,1.71951-.76983,1.71951-1.71951,0-.9496-.76991-1.71951-1.71951-1.71951Zm-12.81665,14.54443l-.70397-.8356-.81883,1.41834c-.14005,.24211-.14005,.53159,0,.77413,.1398,.24219,.39051,.38689,.67035,.38689,.24357,0,.44114,.19731,.44114,.44114,0,.24391-.19757,.44114-.44114,.44114-.59891,0-1.13505-.30968-1.43442-.82838-.29937-.51835-.29937-1.13737-.00017-1.65606l.81883-1.41834-1.0753-.19173c.84652-.29008,1.87135-.95476,2.59131-1.55169-.15665,.92218-.21993,2.142-.0478,3.02016Zm2.38264-6.18183l-.69709,1.20719c-.12209,.21107-.39222,.2826-.6026,.16155-.21115-.12191-.28329-.39162-.16163-.60278l.69709-1.20701c.29937-.51878,.83577-.82803,1.4346-.82803,.59856,0,1.13496,.30925,1.43433,.82803l.81883,1.41808,.70363-.83534c-.17195,.87807-.10876,2.09798,.04815,3.01998-.7203-.59676-1.74514-1.26144-2.59157-1.55152l1.07556-.1919-.81883-1.41826c-.1398-.24202-.39033-.3868-.67009-.3868-.28003,0-.53056,.14478-.67036,.3868Zm6.00996,7.97949c-.29937,.51869-.83551,.82838-1.43433,.82838h-1.63749l.37159,1.02732c-.67448-.58807-1.76259-1.14322-2.63945-1.46864,.87687-.32507,1.96498-.88022,2.63945-1.46829l-.37167,1.02732h1.63758c.27977,0,.5303-.1447,.67036-.38689,.13996-.24254,.13996-.53202,0-.77413-.12175-.21107-.04961-.48078,.16154-.60269,.21064-.12234,.48052-.04952,.60269,.16155,.2992,.51869,.2992,1.13772-.00026,1.65606Z" style="fill: #f8d1e2;"></path></g><g><path d="M909.42615,67.08688c-14.90802,0-26.99328,12.08526-26.99328,26.99328s12.08526,26.99328,26.99328,26.99328,26.9932-12.08535,26.9932-26.99328-12.08518-26.99328-26.9932-26.99328Zm0,50.27775c-12.85973,0-23.28455-10.42481-23.28455-23.28446s10.42481-23.28455,23.28455-23.28455,23.28446,10.42481,23.28446,23.28455-10.42481,23.28446-23.28446,23.28446Z" style="fill: #f8d1e2;"></path><path d="M925.01776,91.19138c-.61034,0-1.109,.49866-1.109,1.10909v.3525h-7.91845c-1.00583-1.90006-2.8801-3.24988-5.08968-3.56799v-2.40732c.30083-.17195,.55884-.42128,.7222-.7222h2.1236c.33531,.58463,.96293,.98872,1.68512,.98872,1.08329,0,1.95156-.86835,1.95156-1.95165,0-1.0661-.86827-1.94305-1.95156-1.94305-.7222,0-1.34982,.40409-1.68512,.98872h-2.1236c-.33531-.58463-.95442-.98872-1.67653-.98872-.7222,0-1.35842,.40409-1.68512,.98872h-2.1236c-.3439-.58463-.96293-.98872-1.68512-.98872-1.0747,0-1.95173,.87695-1.95173,1.94305,0,1.08329,.87704,1.95165,1.95173,1.95165,.7222,0,1.34122-.40409,1.68512-.98872h2.1236c.17195,.30092,.4212,.55024,.7222,.7222v2.40732c-2.36433,.33531-4.33326,1.86567-5.27891,3.96348-4.82324,1.18647-8.61477,5.00379-9.75824,9.83562h-.10317c-.61043,0-1.11768,.49866-1.11768,1.11768,0,.61043,.50726,1.10909,1.11768,1.10909h7.03281c.61903,0,1.11768-.49866,1.11768-1.10909,0-.61903-.49866-1.11768-1.11768-1.11768h-.14624c.73088-1.47018,1.96033-2.64805,3.4821-3.29287,1.22945,1.87427,3.33577,3.10372,5.73458,3.10372,2.61366,0,4.89202-1.47018,6.0355-3.63677h7.92696v.20634c0,.61903,.49866,1.11768,1.109,1.11768,.61911,0,1.10917-.49866,1.10917-1.11768v-6.96403c0-.61043-.49006-1.10909-1.10917-1.10909Zm-10.20652,7.01493c.00095-.04849,.00731-.09552,.00731-.14427,0-3.93786-3.19228-7.13023-7.13014-7.13023-.04875,0-.09586,.00636-.14435,.00731,.72048-.35216,1.52701-.5554,2.38299-.5554,3.00425,0,5.4396,2.43535,5.4396,5.4396,0,.85597-.20316,1.66251-.5554,2.38299Z" style="fill: #f8d1e2;"></path></g></g><g style="opacity: .65;"><g><rect y="91.24512" width="671.52148" height="2.83496" style="fill: #f8d1e2;"></rect><g><path d="M670.91803,103.32056c5.88525,0,10.65771-4.77246,10.65771-10.65771s-4.77246-10.65747-10.65771-10.65747-10.65747,4.77222-10.65747,10.65747,4.77234,10.65771,10.65747,10.65771Z" style="fill: #fff;"></path><path d="M670.91803,104.73779c-6.65747,0-12.07483-5.41748-12.07483-12.07495s5.41736-12.07495,12.07483-12.07495,12.07507,5.41748,12.07507,12.07495-5.41736,12.07495-12.07507,12.07495,6.65771,0,0,0Zm0-21.31519c-5.09619,0-9.24023,4.14404-9.24023,9.24023s4.14404,9.24023,9.24023,9.24023,9.24036-4.14404,9.24036-9.24023-4.14392-9.24023-9.24036-9.24023,5.09644,0,0,0Z" style="fill: #f8d1e2;"></path></g></g><g><path d="M58.5791,92.6626h-2.83398V35.65771c0-14.56641,11.85059-26.41748,26.41699-26.41748h29.57617v2.83496h-29.57617c-13.00391,0-23.58301,10.5791-23.58301,23.58252v57.00488Z" style="fill: #f8d1e2;"></path><path d="M111.20557,21.31519c5.88531,0,10.65771-4.77246,10.65771-10.65771S117.09088,0,111.20557,0s-10.65747,4.77246-10.65747,10.65747,4.77234,10.65771,10.65747,10.65771Z" style="fill: #f8d1e2;"></path></g><g><path d="M171.64258,306.61475H50.40527c-14.56641,0-26.41699-11.85107-26.41699-26.41748V92.6626h2.83398v187.53467c0,13.00342,10.5791,23.58252,23.58301,23.58252h121.2373v2.83496Z" style="fill: #f8d1e2;"></path><path d="M171.10986,315.85474c5.88531,0,10.65771-4.77222,10.65771-10.65747s-4.7724-10.65771-10.65771-10.65771-10.65747,4.77246-10.65747,10.65771,4.77234,10.65747,10.65747,10.65747Z" style="fill: #f8d1e2;"></path></g></g></svg>