<svg xmlns="http://www.w3.org/2000/svg" id="_&#x5716;&#x5C64;_1" data-name="&#x5716;&#x5C64; 1" viewBox="0 0 680.87216 151.82941"><g><g><path d="M462.02102,151.82941c-4.23007-7.95075-12.00806-13.84615-20.80692-15.76957l-.10889-.02356c-1.06694-.23244-2.27628-.49578-3.03277-1.41299-.60624-.73607-.73817-1.65957-.86591-2.5527-.03246-.22983-.06544-.45913-.1068-.6832-.88475-4.80856-5.93519-7.4979-10.39194-9.87103-.36437-.19423-.72613-.38688-1.08212-.57849-1.16641-.62875-2.46056-1.40933-3.05371-2.72389-.59158-1.31038-.31673-2.71656-.05078-4.07615,.22983-1.17688,.44761-2.28884,.13769-3.31862-.4785-1.59203-2.00457-2.47627-3.62016-3.41233-.61409-.356-1.24965-.72403-1.82239-1.13448-2.29146-1.64334-3.68979-4.12955-5.04205-6.5341-.70466-1.25332-1.43393-2.54956-2.27733-3.70131-3.60655-4.92321-9.85428-7.64868-15.91668-6.95082l-.32458,.03769-.1047-.30993c-1.83914-5.45616-1.2151-11.68923,1.66952-16.67318,.3649-.63137,.76906-1.2507,1.16013-1.84961,.8502-1.30305,1.65329-2.53333,2.13702-3.93428,1.15751-3.35055,.2848-7.45969-2.33544-10.99295-2.05849-2.77677-4.68972-5.16822-7.03825-6.39693-1.01145-.52771-1.81349-.52143-2.9621,.02827-3.81439,1.82553-4.7604,5.48024-5.76242,9.34908-.13193,.51044-.26438,1.02192-.40364,1.52974-2.99612,10.91651-12.0714,18.26207-20.84828,25.36628-5.51689,4.46566-11.22173,9.08313-15.48844,14.59008-.29946,.38636-.60362,.78214-.91198,1.18421-4.67402,6.08491-10.49141,13.65611-17.64117,10.9919-.62928-.23454-1.24442-.55075-1.83914-.85596-1.31771-.67692-2.5616-1.31404-3.87512-1.08526-.90674,.16072-1.70512,.72299-2.55008,1.31876-1.05752,.74445-2.14906,1.5156-3.50237,1.45278-1.58732-.07382-2.68986-1.22923-3.75576-2.34696-.3293-.345-.66959-.70204-1.01092-1.00935-3.90758-3.51494-10.40503-2.04279-14.53511,1.12872-2.40507,1.84647-4.43267,4.20808-6.39327,6.49169-1.54439,1.79935-3.14114,3.65943-4.9295,5.28288-9.38625,8.52139-22.80573,9.97731-36.89008,10.81338l-.04816-.80623c13.93462-.82717,27.20385-2.26057,36.39588-10.60501,1.75066-1.58942,3.33118-3.43065,4.85934-5.21063,1.9873-2.31502,4.04212-4.70909,6.51368-6.60687,4.38765-3.3694,11.33481-4.89756,15.56749-1.08788,.36437,.32773,.71513,.69576,1.0549,1.05176,1.00045,1.04862,1.94489,2.03912,3.2092,2.09828,1.08683,.04607,2.01085-.60938,2.99979-1.30671,.88004-.62038,1.78993-1.26169,2.87467-1.4533,1.57581-.28009,3.00502,.45337,4.38451,1.1617,.57378,.29474,1.16746,.59943,1.75171,.81722,6.5964,2.46004,12.20752-4.85306,16.71872-10.727,.3094-.40259,.61409-.79942,.91407-1.1863,4.32483-5.58181,10.06631-10.22913,15.61932-14.72357,9.07685-7.34713,17.65007-14.28643,20.57709-24.95218,.13873-.50415,.27014-1.01197,.40102-1.51822,1.00412-3.87774,2.04174-7.8874,6.19538-9.87575,1.37791-.65912,2.44433-.66278,3.68456-.01466,2.45166,1.28211,5.1855,3.76099,7.31362,6.63147,2.77834,3.74686,3.69398,8.13503,2.44957,11.7374-.51619,1.49466-1.38472,2.82546-2.22393,4.11175-.38531,.59001-.78319,1.19992-1.13814,1.81244-2.71552,4.69286-3.34479,10.53905-1.70302,15.70413,6.23778-.59682,12.62163,2.24539,16.33236,7.31048,.87219,1.19102,1.6135,2.50872,2.3302,3.78298,1.36901,2.43491,2.66264,4.73475,4.80804,6.27338,.54132,.38793,1.1596,.74602,1.75747,1.09259,1.67999,.97323,3.41808,1.97997,3.98873,3.87826,.36699,1.22138,.11989,2.48412-.11884,3.70602-.25286,1.29258-.49159,2.51291-.00576,3.58928,.48949,1.08474,1.65067,1.77893,2.70086,2.34486,.35495,.19109,.71513,.38322,1.07846,.57692,4.618,2.45847,9.85166,5.24571,10.80657,10.43749,.04345,.23454,.078,.47431,.11203,.71513,.11727,.81879,.22773,1.59203,.68948,2.15325,.57849,.701,1.59675,.92297,2.58149,1.13762l.10994,.02408c9.02712,1.97316,17.00718,8.02143,21.34719,16.17897l-.71304,.37903Z" style="fill: #d84d8d;"></path><path d="M449.50829,81.92646l-.60205-.53818c5.01797-5.61793,10.70605-11.98555,18.10344-15.37798,.26386-.12093,.53085-.23873,.79785-.35652,1.08998-.48059,2.21765-.97794,3.13015-1.72187,.87376-.71199,1.53549-1.62188,2.23597-2.58516,.54289-.74707,1.10463-1.51927,1.77527-2.19199,.63189-.63346,1.35278-1.17007,2.04959-1.68889,.85596-.63765,1.6648-1.2397,2.32549-2.00614,2.84954-3.30762,1.88573-7.8717,.86486-12.70382-.99836-4.72846-2.03075-9.61765,.81251-13.30168,.77429-1.00307,1.7716-1.79045,2.73593-2.55165,.95857-.75701,1.86427-1.47162,2.57521-2.38308,2.58464-3.31338,1.71349-8.13713,.03665-11.54631-.90517-1.84018-2.0831-3.58352-3.22229-5.26926-1.18421-1.75223-2.40821-3.56362-3.34793-5.51008l.72665-.35076c.9146,1.89306,2.12236,3.68037,3.29034,5.40852,1.15437,1.70878,2.34853,3.47515,3.27778,5.36559,1.78469,3.62854,2.68934,8.79101-.1246,12.39861-.77063,.98841-1.75747,1.76742-2.71185,2.52077-.96799,.76434-1.88311,1.48681-2.59615,2.41083-2.61605,3.38929-1.6224,8.09263-.66173,12.64152,1.01616,4.81223,2.06687,9.78779-1.04391,13.39749-.7188,.8345-1.60093,1.49152-2.4548,2.12708-.67325,.50154-1.37006,1.02035-1.96007,1.61193-.62613,.6277-1.16903,1.37425-1.69412,2.09619-.69995,.96276-1.42398,1.95798-2.37889,2.73646-.99679,.81251-2.17524,1.33237-3.31443,1.83443-.26333,.11622-.52666,.23244-.78738,.35181-7.24347,3.32228-12.87187,9.62288-17.83749,15.18218Z" style="fill: #d84d8d;"></path><path d="M501.84807,129.17184l-19.69548-12.30594c-1.51403-.94601-3.23014-2.01871-4.44314-3.54268-.86067-1.08003-1.43655-2.3391-1.99358-3.55629-.28375-.61985-.57692-1.26064-.90203-1.86217-2.11661-3.9191-5.98387-6.80057-10.3443-7.70731-.6654-.13873-1.36116-.23663-2.03389-.33087-1.4287-.20156-2.90556-.4094-4.26358-1.01982-1.91295-.85963-3.36102-2.39303-4.79809-4.02171-.46803-.53033-.93606-1.06642-1.40618-1.60512-4.63318-5.30905-9.42447-10.79872-16.03186-12.75408-.3272-.09685-.65859-.1848-.98998-.27328-1.09416-.29056-2.2255-.59106-3.22333-1.20829-1.44702-.89627-2.4281-2.34434-3.29349-3.62174l-14.19377-20.9535,.66906-.45337,14.19324,20.9535c.81984,1.21091,1.75014,2.58306,3.05005,3.38824,.89575,.55441,1.92081,.82664,3.00555,1.1151,.33872,.09005,.67744,.18009,1.01197,.27851,6.8325,2.02237,11.7018,7.60208,16.41089,12.99804,.46908,.53766,.93606,1.0727,1.40304,1.60198,1.37634,1.55958,2.75792,3.02544,4.52377,3.81963,1.25332,.56279,2.60976,.75387,4.04527,.95595,.68582,.09633,1.39467,.19632,2.08572,.34029,4.59078,.95491,8.6617,3.9882,10.89086,8.11409,.33715,.62509,.63608,1.27844,.92507,1.91034,.56174,1.22662,1.09207,2.3857,1.89097,3.38929,1.12715,1.41508,2.70976,2.40402,4.24002,3.3605l19.69548,12.30594-.42824,.68477Z" style="fill: #d84d8d;"></path><path d="M570.22443,123.11676c-7.74501-.73869-15.35651-3.26155-22.0105-7.29635-1.05019-.6366-2.11503-1.32818-3.14533-1.99724-4.39917-2.85791-8.95644-5.8153-14.05399-5.66348-.18899,.00576-.37903,.01518-.57012,.02461-.97166,.04921-1.97578,.09895-2.8998-.33453-.8591-.40311-1.44335-1.13133-2.00771-1.83547-.11832-.14711-.23559-.29422-.35547-.43714-2.08258-2.48569-5.23209-4.03794-8.46956-4.18662-3.60917,7.87013-10.62177,14.2278-18.81072,17.0365l-.26176-.76434c8.06645-2.7663,14.96282-9.06533,18.4474-16.8496l.10942-.24449,.26804,.00576c3.55944,.07853,7.04924,1.75485,9.33599,4.4845,.12355,.14711,.24501,.29841,.36647,.45023,.53033,.66121,1.03134,1.28577,1.72135,1.60983,.74131,.34814,1.60355,.30469,2.51553,.25914,.19684-.00995,.39264-.01989,.58687-.02565,5.36454-.13664,10.01448,2.86839,14.51835,5.79331,1.02454,.66592,2.08415,1.35383,3.12386,1.98468,6.55085,3.97197,14.04352,6.45557,21.66811,7.18222l-.07643,.80413Z" style="fill: #d84d8d;"></path><path d="M544.44665,134.02909l-.72979-.34448c.36961-.78371,.29527-1.76951-.19946-2.63803-.49473-.868-1.30514-1.43445-2.16739-1.5156-.38898-.03769-.78738,.00209-1.20934,.04345-.60362,.05863-1.22923,.11936-1.85746-.04555-1.43184-.37641-2.24173-1.71716-2.95634-2.90032l-.15077-.24867c-1.93756-3.1825-4.70019-5.79069-7.98844-7.5424-.23192-.12408-.46803-.24396-.70414-.36437-1.06746-.54446-2.17105-1.10725-3.0134-2.01975-.64341-.69733-1.06956-1.52502-1.48157-2.32549l-6.1247-11.89131,.71827-.36961,6.1247,11.89131c.38688,.7523,.78738,1.53026,1.35697,2.14749,.74393,.80623,1.736,1.31195,2.78672,1.84804,.2403,.1225,.48059,.24501,.71723,.37065,3.41547,1.81977,6.28542,4.52953,8.29837,7.83558l.15182,.25077c.66645,1.10306,1.3554,2.24382,2.47051,2.53699,.48792,.12774,1.01668,.07643,1.57424,.02251,.44185-.04241,.89889-.0869,1.36273-.04345,1.12453,.10575,2.16896,.8235,2.79352,1.92028,.62509,1.09626,.71042,2.36109,.22773,3.38196Z" style="fill: #d84d8d;"></path><path d="M680.72348,116.95751c-10.78825-2.02708-18.98244-10.06107-26.90649-17.83069-.57012-.55912-1.13866-1.11668-1.70564-1.66952-7.02883-6.84978-15.54498-13.78594-25.35843-13.2776-1.9496,.10104-3.92067,.50939-5.82734,.90413-2.57626,.53347-5.24413,1.08736-7.92562,.90255-6.34249-.43086-11.63112-4.71747-16.74542-8.86273-5.8865-4.77087-11.44736-9.27684-18.29139-8.07064-2.04017,.35914-4.07825,1.25698-6.04879,2.12603-3.35788,1.48-6.82832,3.01078-10.35372,1.84856-3.0579-1.00778-5.06195-3.73429-7.01207-6.67911l-14.68745-22.17017c-1.47372-2.22393-2.98147-4.27195-5.21639-4.89966-.95124-.26752-1.94646-.2471-2.99979-.22669-.89313,.01675-1.81401,.0356-2.7197-.13402-4.18609-.78529-6.06921-4.76668-7.89055-8.61667-1.37058-2.89666-2.78724-5.89173-5.17032-7.678-2.58516-1.93808-5.8666-2.19828-9.34018-2.47365-3.37359-.26752-6.86182-.54394-9.62707-2.51658-2.18676-1.5601-3.57881-3.9547-4.92531-6.26972-1.56743-2.69562-3.04795-5.24204-5.65719-6.51054-3.77775-1.836-8.47113,.07434-11.15838,2.91079-2.93173,3.0935-4.44262,7.38953-5.77551,11.17984-.88947,2.52914-1.99567,5.67656-4.44314,7.59999-2.25586,1.7737-5.14728,2.16163-7.94342,2.53647-1.08841,.14606-2.21398,.29684-3.27516,.52824-7.28588,1.5868-12.81428,7.20316-18.15998,12.63419-.92035,.93501-1.836,1.86531-2.7553,2.77049-5.93519,5.842-14.9,12.22008-23.90251,9.4119-2.4993-.77848-4.71642-2.21922-6.86025-3.61284-1.28473-.83502-2.61343-1.69831-3.98035-2.40297-3.27202-1.68627-8.13974-2.63803-11.09294,.22407l-.56226-.58006c3.2626-3.15999,8.5172-2.17053,12.02481-.36228,1.40357,.72351,2.74955,1.59832,4.05102,2.44433,2.09776,1.36326,4.26724,2.77363,6.65974,3.51912,4.75935,1.48105,12.62843,1.08736,23.09628-9.21715,.91669-.90203,1.82919-1.82919,2.7464-2.76106,5.42894-5.51532,11.04268-11.21858,18.56362-12.85721,1.09312-.23768,2.23492-.39107,3.33956-.53923,2.81237-.37694,5.46873-.73346,7.5513-2.37051,2.26267-1.77893,3.32594-4.80333,4.18033-7.23352,1.36011-3.86622,2.90137-8.24864,5.95141-11.46778,3.99553-4.21436,9.07214-4.55151,12.09758-3.08146,2.83121,1.37634,4.44314,4.14945,6.00272,6.83093,1.30305,2.24173,2.65112,4.55937,4.69601,6.01843,2.58306,1.8428,5.9577,2.11032,9.22187,2.36947,3.43536,.27223,6.98799,.55389,9.7611,2.63228,2.54275,1.90615,4.00286,4.99337,5.41533,7.9785,1.81453,3.83586,3.52855,7.45916,7.30943,8.16854,.82403,.15496,1.66585,.13769,2.55479,.11989,1.06642-.01989,2.16739-.04293,3.23485,.25653,2.5014,.70309,4.10966,2.87571,5.67081,5.23157l14.68745,22.17017c1.86898,2.82179,3.77932,5.43156,6.59168,6.35872,3.22752,1.06171,6.40793-.33715,9.77471-1.82134,2.01504-.8879,4.09814-1.80616,6.23464-2.18257,7.20787-1.26797,13.17185,3.56415,18.94003,8.23869,5.01693,4.06621,10.20452,8.27115,16.29153,8.68525,2.57574,.17067,5.18393-.36542,7.70731-.8879,1.93651-.40102,3.93847-.81565,5.94932-.91983,10.1239-.5141,18.80915,6.53305,25.96362,13.50586,.56802,.55336,1.13657,1.11092,1.70773,1.67109,7.83819,7.6848,15.94286,15.63189,26.48976,17.61342l-.14868,.79366Z" style="fill: #d84d8d;"></path><path d="M400.04841,144.98329l-15.59629-6.16554c-6.33202-2.50349-12.87972-5.09231-18.79606-8.74179-1.31719-.81251-2.62233-1.68993-3.88402-2.53857-2.44957-1.64648-4.98237-3.3495-7.67904-4.62324-4.67768-2.20875-9.26375-2.67206-12.91323-1.30305-1.92081,.72037-3.64948,1.95955-5.32162,3.15842l-.59211,.42301c-9.1915,6.54195-19.34472,11.45522-30.17799,14.60369l-.22512-.77586c10.74584-3.12282,20.81739-7.9963,29.93507-14.48537l.59001-.42196c1.71454-1.22923,3.48719-2.49982,5.50799-3.25789,3.85627-1.44597,8.66484-.97375,13.54146,1.32923,2.75216,1.29939,5.31062,3.01968,7.78479,4.68292,1.25593,.84444,2.55375,1.71716,3.85784,2.52181,5.85561,3.61179,12.36981,6.187,18.66937,8.67793l15.59629,6.16554-.29736,.75073Z" style="fill: #d84d8d;"></path><path d="M342.75348,143.62998l-.59263-.54865c2.34015-2.526,4.79286-5.4949,4.26829-8.77111-.05078-.3183-.12931-.63189-.21255-.96328-.12669-.50258-.25705-1.02192-.2848-1.56691-.1246-2.46004,1.74962-4.362,3.56938-5.95403-.03403-1.93861-.30626-3.86989-.80884-5.74358l.78005-.20941c.53609,1.99934,.81879,4.06202,.83868,6.13046l.00209,.1869-.14083,.12198c-1.71873,1.49257-3.54373,3.26574-3.43431,5.42684,.02356,.46541,.13926,.92454,.26124,1.4109,.08429,.33401,.17119,.67901,.22773,1.03239,.58163,3.6343-2.00405,6.78225-4.47351,9.4475Z" style="fill: #d84d8d;"></path><rect x="347.80222" y="139.31095" width=".80699" height="9.67727" transform="translate(17.07145 324.08407) rotate(-51.00763)" style="fill: #d84d8d;"></rect><rect x="349.60916" y="135.81534" width=".80752" height="11.24111" transform="translate(49.70715 370.19254) rotate(-59.30121)" style="fill: #d84d8d;"></rect><rect x="354.61682" y="131.63654" width=".80773" height="16.0356" transform="translate(62.88377 385.00928) rotate(-61.49882)" style="fill: #d84d8d;"></rect><rect x="356.53686" y="128.43849" width=".80716" height="18.3053" transform="translate(55.90679 373.63466) rotate(-59.18069)" style="fill: #d84d8d;"></rect><path d="M368.29776,140.281c-5.83519-3.37777-11.87247-6.59168-17.94377-9.55221l.3539-.7256c6.08858,2.9689,12.1426,6.19171,17.99403,9.57943l-.40416,.69838Z" style="fill: #d84d8d;"></path><path d="M369.69609,138.15026c-5.76347-3.84319-11.79917-7.41257-17.93958-10.61025l.37275-.71618c6.16606,3.21077,12.22741,6.79533,18.01497,10.65423l-.44814,.6722Z" style="fill: #d84d8d;"></path><path d="M370.3662,134.23954c-5.41637-4.09919-11.41909-7.29687-17.84273-9.50562l.26281-.7633c6.50426,2.23597,12.58289,5.47448,18.06679,9.62498l-.48688,.64393Z" style="fill: #d84d8d;"></path><path d="M289.88494,124.23239l-.68477-.4272c.98422-1.57738,2.00248-3.20815,3.46991-4.46147,1.66376-1.42084,3.70393-2.04488,5.46611-1.66795,.67116,.14397,1.28891,.42301,1.88626,.69262,.29788,.13455,.59629,.26961,.90098,.38636,4.50858,1.73548,9.56949-.64917,13.95766-3.02073l.38427,.71094c-4.5468,2.45533-9.80193,4.9206-14.63196,3.06366-.31883-.1225-.63085-.26333-.94339-.40416-.58425-.26386-1.13657-.51305-1.72344-.63922-1.51455-.32406-3.2982,.23349-4.77192,1.49257-1.3732,1.17269-2.35743,2.74955-3.30972,4.27457Z" style="fill: #d84d8d;"></path><path d="M316.80609,121.10225l-.45965-.66383c2.61971-1.81296,6.22679-4.28033,10.11133-4.14788,.23559,.00942,.47117,.02775,.70676,.04607,.54237,.04241,1.05385,.08324,1.55277,.00576,.76749-.11884,1.48628-.51986,2.18152-.90779,4.24892-2.37366,8.64233-4.82793,12.21904-8.22665,2.28256-2.16948,4.26776-4.76354,6.18752-7.27226,3.1202-4.07668,6.34615-8.29209,10.92855-10.7804l.38531,.7099c-4.4311,2.40611-7.46283,6.36762-10.67255,10.56156-1.93913,2.53333-3.9437,5.15304-6.27286,7.3665-3.65001,3.46887-8.08844,5.94827-12.38133,8.34601-.72246,.40311-1.54073,.86015-2.45166,1.00098-.59158,.09266-1.17531,.04607-1.73967,.00157-.22459-.0178-.44971-.0356-.67377-.04398-3.35579-.1335-6.34668,1.73757-9.62131,4.00443Z" style="fill: #d84d8d;"></path><path d="M360.91503,98.14312l-.55179-.58949,5.75248-5.38653c.25391-.2382,.52405-.5141,.51462-.77429-.00052-.02146-.01989-.05968-.06125-.09738-.05811-.05288-.10418-.06806-.13245-.06596,.00628-.00052,.01361-.00314,.02146-.00681l-.65964-.44342c.02356-.03926,.04973-.07539,.078-.10837l9.36008-12.52163,.64708,.48374-8.92922,11.94523c.25914,.16125,.47065,.43871,.48321,.78529,.02356,.64969-.49264,1.1329-.7701,1.3931l-5.75248,5.38653Z" style="fill: #d84d8d;"></path><path d="M359.45702,113.88914l-.54028-.59996c6.99323-6.29275,13.00118-13.57025,17.85634-21.62937l.6921,.41672c-4.89704,8.1277-10.95578,15.46645-18.00816,21.81261Z" style="fill: #d84d8d;"></path><path d="M267.53153,139.63864l-.21046-.78005c5.31638-1.43655,10.81338-2.92283,15.96694-5.0787l.20574-.08638c1.25907-.52928,2.55637-1.08108,3.96883-1.03658,.53923,.01571,1.06066,.11832,1.56534,.21779,.2916,.05759,.58268,.11518,.87638,.15496,1.81349,.24606,3.64844-.19737,5.42318-.62509l8.54861-2.06164,.18952,.78529-8.54861,2.06164c-1.76113,.42405-3.75942,.9036-5.72106,.63975-.30993-.04188-.61671-.10209-.92402-.16229-.49368-.09738-.96067-.18952-1.43236-.20313-1.24127-.04345-2.45323,.47693-3.63273,.97375l-.20679,.08638c-5.2033,2.17733-10.72647,3.6699-16.06851,5.1143Z" style="fill: #d84d8d;"></path><rect x="299.12231" y="136.58257" width="13.63872" height=".80728" transform="translate(-27.53044 171.07256) rotate(-29.95688)" style="fill: #d84d8d;"></rect><path d="M418.14452,143.72265c-5.22319-4.66512-10.99452-8.7219-17.15272-12.05779-.67377-.36437-2.94168-1.45644-3.86779-.19527l-.30678,.4183-7.55444-9.15067,.62299-.5141,6.9325,8.39732c.97061-.82298,2.62704-.71199,4.5578,.33453,6.2137,3.36521,12.03633,7.45864,17.30664,12.16564l-.53818,.60205Z" style="fill: #d84d8d;"></path><rect x="418.34549" y="127.43729" width=".80792" height="9.83461" transform="translate(78.87092 410.47584) rotate(-56.83356)" style="fill: #d84d8d;"></rect><rect x="396.88647" y="79.12654" width=".80699" height="9.67704" transform="translate(35.71432 268.76902) rotate(-39.00545)" style="fill: #d84d8d;"></rect><path d="M405.4051,88.70818c-3.50394-3.95627-6.76288-8.19157-9.68675-12.58812l.6722-.44709c2.90346,4.36566,6.13988,8.57113,9.6187,12.50017l-.60415,.53504Z" style="fill: #d84d8d;"></path><path d="M412.19049,91.24413c-5.22581-5.66976-10.16944-11.71331-14.69373-17.96314l.6544-.47327c4.50544,6.22365,9.42918,12.2426,14.633,17.8888l-.59368,.54761Z" style="fill: #d84d8d;"></path><rect x="408.2336" y="66.66703" width=".80748" height="26.96309" transform="translate(45.09323 283.23464) rotate(-40.28588)" style="fill: #d84d8d;"></rect><path d="M419.8732,88.94325c-6.90632-7.66752-13.57496-15.71722-19.82112-23.92555l.64289-.48897c6.23255,8.19052,12.88653,16.22295,19.77819,23.87424l-.59996,.54028Z" style="fill: #d84d8d;"></path><rect x="426.2255" y="49.21798" width=".80753" height="74.59852" transform="translate(50.81261 306.19792) rotate(-41.77178)" style="fill: #d84d8d;"></rect><path d="M426.31254,78.49424c-6.0734-3.60079-10.8228-9.02293-15.41567-14.26654-4.36304-4.9808-8.87425-10.1307-14.4927-13.67077l.43034-.68372c5.71792,3.60289,10.26839,8.79834,14.66965,13.82259,4.55151,5.19597,9.25747,10.56889,15.21987,14.10425l-.41149,.69419Z" style="fill: #d84d8d;"></path><rect x="414.50147" y="54.18616" width=".8075" height="19.14285" transform="translate(85.42342 323.8597) rotate(-47.02473)" style="fill: #d84d8d;"></rect><path d="M420.17946,64.20729c-2.47679-2.64013-5.29596-4.9384-8.37899-6.83093l.42196-.68791c3.14481,1.93023,6.02,4.27405,8.54547,6.966l-.58844,.55284Z" style="fill: #d84d8d;"></path><path d="M407.30811,62.51421c-3.63221-4.10076-7.59004-7.98007-11.76357-11.52903l.52352-.61566c4.20232,3.57409,8.18738,7.4801,11.84419,11.60966l-.60415,.53504Z" style="fill: #d84d8d;"></path><path d="M412.22923,77.18281c-3.85523-5.30539-8.10205-10.40555-12.6232-15.1581l.5853-.55703c4.54523,4.77872,8.81509,9.90663,12.69126,15.24082l-.65336,.47431Z" style="fill: #d84d8d;"></path><path d="M411.87847,86.82455c-3.90706-4.52795-7.63035-9.30772-11.06676-14.20633l.66069-.46384c3.42123,4.87662,7.12777,9.63493,11.01755,14.14246l-.61148,.52771Z" style="fill: #d84d8d;"></path><path d="M418.78322,103.94586c-3.90077-4.06045-7.24138-8.62819-9.92967-13.57549l.7099-.38531c2.65322,4.88395,5.95141,9.39306,9.80193,13.40168l-.58216,.55912Z" style="fill: #d84d8d;"></path><path d="M432.16186,112.94156c-6.54404-6.21579-12.76036-12.91637-18.47619-19.91536l.62509-.51096c5.69489,6.97281,11.88765,13.64826,18.40709,19.84102l-.55598,.5853Z" style="fill: #d84d8d;"></path><path d="M434.9847,109.22612c-2.71866-1.61978-4.95986-3.88088-7.12777-6.06764l-9.53022-9.61398,.57378-.56855,9.53022,9.61398c2.13179,2.15116,4.33634,4.37509,6.96757,5.94199l-.41358,.69419Z" style="fill: #d84d8d;"></path><path d="M435.84485,110.92495c-3.42803-2.70452-6.30741-6.10114-8.67217-9.06638-3.08355-3.86779-6.02104-7.93138-8.86168-11.86095l.6544-.47327c2.8354,3.92224,5.76661,7.97797,8.83865,11.83058,2.33596,2.92964,5.17765,6.28228,8.54129,8.9355l-.50049,.63451Z" style="fill: #d84d8d;"></path><polygon points="439.52784 109.98732 438.54676 109.10728 438.62214 109.01252 419.53657 88.42025 420.1292 87.87159 439.56291 108.84028 439.7273 108.95598 439.7027 108.99053 440.09377 109.41249 439.52784 109.98732" style="fill: #d84d8d;"></polygon><polygon points="442.84698 108.92457 424.02526 86.77534 424.64093 86.25286 442.63757 107.43148 442.70196 107.38331 443.47835 108.42146 442.84698 108.92457" style="fill: #d84d8d;"></polygon><rect x="435.28216" y="75.15446" width=".8076" height="34.0677" transform="translate(43.63889 303.42285) rotate(-40.26293)" style="fill: #d84d8d;"></rect><path d="M451.97304,106.59122c-2.23702-1.36954-4.02799-3.36259-5.60798-5.12163-4.75464-5.29178-9.50195-10.72647-14.11-16.15384l.61566-.52248c4.60334,5.42109,9.34542,10.85055,14.09535,16.13709,1.54282,1.71716,3.29192,3.66414,5.42894,4.9719l-.42196,.68896Z" style="fill: #d84d8d;"></path><path d="M456.6481,107.29641c-.41149-.41097-.82141-.78057-1.20306-1.11929-.14711-.13036-.27485-.30364-.3984-.47117-.05131-.06963-.10785-.14606-.16439-.21622l-.089,.07382c-.08115-.08481-.15863-.167-.22512-.24658-5.39648-5.92367-10.83955-11.95256-16.18054-17.92283l.60205-.53818c5.25932,5.87917,10.6181,11.8154,15.93344,17.65164,.03717,.01152,.07591,.02775,.11675,.04973,.27066,.14659,.46646,.41201,.65597,.66854,.09947,.13455,.20156,.27276,.28532,.3471,.39107,.34657,.81146,.72613,1.23761,1.15175l-.57064,.57169Z" style="fill: #d84d8d;"></path><path d="M456.14919,100.49741c-5.13262-4.20546-9.9815-8.84179-14.41208-13.78018l.601-.53923c4.40336,4.90803,9.22187,9.51556,14.32308,13.69433l-.51201,.62509Z" style="fill: #d84d8d;"></path><path d="M438.81271,87.23185c-3.35579-3.06994-6.9948-5.87969-10.81599-8.35125l.43871-.67849c3.85889,2.49616,7.5335,5.33366,10.92279,8.43396l-.54551,.59577Z" style="fill: #d84d8d;"></path><rect x="438.98548" y="79.24242" width=".80725" height="10.88078" transform="translate(78.95607 349.86575) rotate(-47.25197)" style="fill: #d84d8d;"></rect><rect x="428.13763" y="111.02788" width=".80762" height="12.05349" transform="translate(30.64888 314.61742) rotate(-41.68293)" style="fill: #d84d8d;"></rect><path d="M442.11404,128.68496c-6.95501-5.35407-12.15621-12.52792-17.1857-19.46513l.65336-.47431c4.99651,6.89114,10.16264,14.01682,17.02446,19.29969l-.49211,.63975Z" style="fill: #d84d8d;"></path><path d="M444.75313,134.42435c-3.74058-3.07099-7.322-6.41316-10.64585-9.93333l.58739-.55389c3.30029,3.49504,6.85659,6.81366,10.57046,9.86318l-.51201,.62404Z" style="fill: #d84d8d;"></path><path d="M449.82188,130.98794c-4.85934-4.41487-9.73021-8.93812-14.47699-13.44461l.55598-.5853c4.46827,4.24211,9.04701,8.4994,13.6226,12.66665l.13926-.11256,.74497,.9235-.58582,.55232Z" style="fill: #d84d8d;"></path><path d="M448.70573,126.60552c-5.69332-4.07092-11.01598-8.71667-15.81879-13.80898l.58739-.55389c4.7672,5.0541,10.05008,9.66529,15.70152,13.70637l-.47012,.6565Z" style="fill: #d84d8d;"></path><path d="M454.97073,128.00071c-6.81523-4.48607-13.12316-9.75638-18.74895-15.66435l.5853-.55703c5.58285,5.86346,11.84367,11.09451,18.60759,15.54708l-.44395,.6743Z" style="fill: #d84d8d;"></path><path d="M458.93119,125.8527c-6.20585-4.06987-12.13161-8.66536-17.61238-13.65925l.54342-.59682c5.44988,4.9651,11.34161,9.53441,17.51186,13.58072l-.4429,.67535Z" style="fill: #d84d8d;"></path><path d="M464.77057,125.60245c-7.32095-3.33484-14.09378-7.72092-20.13052-13.03678l.53399-.60624c5.97654,5.2635,12.68288,9.60666,19.93159,12.90799l-.33506,.73503Z" style="fill: #d84d8d;"></path><polygon points="469.42155 124.77267 468.46822 124.14444 468.39492 124.22768 448.47119 107.52833 448.98948 106.90952 468.35671 123.14242 468.3766 123.11676 469.86655 124.09837 469.42155 124.77267" style="fill: #d84d8d;"></polygon><path d="M473.6579,122.55973c-5.65353-4.33477-11.29554-8.84441-16.76898-13.40429l.51724-.6209c5.46454,4.55308,11.09765,9.05643,16.7428,13.3844l-.49107,.64079Z" style="fill: #d84d8d;"></path><path d="M479.22558,120.30178l-1.45225-1.17007c-.16805,.10732-.36804,.11046-.53399,.00524-.21726-.13769-.29265-.4183-.26019-.64498l-18.44844-14.86493,.50677-.62928,18.59555,14.98377c.24553,.02251,.54603,.17852,.79628,.69053l.79628,1.62973Z" style="fill: #d84d8d;"></path><path d="M467.26935,114.15614c-3.48143-2.96943-6.97647-6.03623-10.38775-9.11664l.54132-.59891c3.40552,3.07465,6.8948,6.13674,10.36995,9.10093l-.52352,.61462Z" style="fill: #d84d8d;"></path><path d="M458.94166,112.23795c-3.45054-2.76839-6.64142-5.89121-9.4831-9.28155l.6188-.51829c2.80766,3.3495,5.96031,6.43463,9.37002,9.16951l-.50572,.63032Z" style="fill: #d84d8d;"></path><path d="M455.20946,116.52822c-2.37418-2.34381-4.65622-4.8405-6.78225-7.4199l.62299-.5141c2.10875,2.55898,4.37194,5.03473,6.72675,7.35917l-.5675,.57483Z" style="fill: #d84d8d;"></path><rect x="470.83725" y="101.61246" width=".80761" height="13.34839" transform="translate(71.5906 380.45139) rotate(-47.19649)" style="fill: #d84d8d;"></rect><rect x="447.71451" y="131.113" width=".80766" height="4.89035" transform="translate(91.91262 436.48609) rotate(-56.9751)" style="fill: #d84d8d;"></rect><rect x="455.19739" y="125.44461" width=".80733" height="5.97707" transform="translate(111.06573 453.02952) rotate(-59.03624)" style="fill: #d84d8d;"></rect><rect x="458.78743" y="123.73181" width=".80738" height="7.96089" transform="translate(94.31531 434.35952) rotate(-55.58676)" style="fill: #d84d8d;"></rect><rect x="465.22487" y="123.59775" width=".80751" height="8.4871" transform="translate(81.65479 420.61683) rotate(-52.67771)" style="fill: #d84d8d;"></rect><rect x="469.87561" y="124.07933" width=".80747" height="10.50175" transform="translate(75.25641 415.41733) rotate(-51.28979)" style="fill: #d84d8d;"></rect><rect x="473.41683" y="123.31368" width=".80779" height="8.47465" transform="translate(111.94428 458.94319) rotate(-57.5489)" style="fill: #d84d8d;"></rect><rect x="476.94697" y="120.92455" width=".8072" height="9.63746" transform="translate(84.65769 424.85403) rotate(-52.05377)" style="fill: #d84d8d;"></rect><path d="M487.1758,130.36285c-3.18564-2.46894-6.34092-5.05514-9.37892-7.68637l.52876-.61043c3.02701,2.62181,6.17077,5.19859,9.34437,7.6581l-.49421,.6387Z" style="fill: #d84d8d;"></path><path d="M492.74819,131.75124c-3.9547-3.04115-7.81516-6.30479-11.47406-9.70141l.5497-.59158c3.64058,3.37934,7.48167,6.62728,11.41648,9.65325l-.49211,.63975Z" style="fill: #d84d8d;"></path><rect x="492.19623" y="119.4614" width=".80759" height="15.69861" transform="translate(73.91471 416.38753) rotate(-49.11353)" style="fill: #d84d8d;"></rect><rect x="497.32529" y="125.28285" width=".80793" height="6.09536" transform="translate(67.96016 410.29093) rotate(-47.72565)" style="fill: #d84d8d;"></rect><path d="M526.77041,116.63554c-3.08512-3.90863-5.88964-8.08844-8.33659-12.42374l.70362-.39683c2.42653,4.29917,5.20749,8.44443,8.26644,12.32008l-.63346,.50049Z" style="fill: #d84d8d;"></path><path d="M532.49985,120.02483l-2.36109-1.91976c-.16648-.13455-.29631-.3094-.38374-.50782l-8.26905-11.47563,.65545-.47222,7.64501,10.61025c.1246-.25653,.31726-.46855,.55808-.60467,.40364-.22826,.91721-.23035,1.37373-.00628,.45599,.22407,.76749,.63189,.83293,1.09102,.06596,.45861-.11832,.93711-.49316,1.28054-.21412,.1958-.46594,.32616-.72717,.38217l1.16903,1.6224Zm-2.03075-2.81813l.41358,.57431,.03926-.16753c.19161,.04502,.41254-.02565,.59053-.18847,.178-.16334,.26752-.37641,.23977-.57064-.02827-.19475-.17381-.37484-.39055-.48112-.21779-.1068-.44866-.11256-.61933-.01571-.17119,.09685-.28532,.29841-.30574,.53923-.00942,.11046,.00262,.21622,.03246,.30993Z" style="fill: #d84d8d;"></path><rect x="530.74845" y="106.40661" width=".80717" height="16.7775" transform="translate(29.52283 323.76568) rotate(-34.81128)" style="fill: #d84d8d;"></rect><path d="M540.28569,124.86638c-.08324-.08272-.1424-.16282-.18376-.23873l-10.00296-13.37445,.64708-.48374,9.74696,13.03312h.00105c.20889-.01518,.41358,.09109,.50729,.26281,.08586,.15967,.06963,.35076-.04293,.49787l-.16177-.12355c.00471-.00838,.00838-.01728,.01204-.02618l-.02199,.01885-.03769-.02932-.21517,.20574c.00576,0,.01099-.00052,.01675-.00052,.01361-.00105,.02722-.00314,.04031-.00628l-.30521,.26438Z" style="fill: #d84d8d;"></path><rect x="538.72549" y="110.32566" width=".80748" height="16.14309" transform="translate(51.57168 377.17483) rotate(-40.34372)" style="fill: #d84d8d;"></rect><path d="M547.46634,125.02082c-2.98932-4.16044-6.20794-8.23084-9.5653-12.0981l.60938-.52981c3.37411,3.88611,6.60791,7.9764,9.61137,12.15674l-.65545,.47117Z" style="fill: #d84d8d;"></path><path d="M551.27916,124.98155c-3.35579-3.70602-6.88329-7.33875-10.48513-10.7982l.55912-.58216c3.61545,3.47201,7.15657,7.11887,10.52492,10.83798l-.59891,.54237Z" style="fill: #d84d8d;"></path><path d="M556.00291,127.11282c-2.7218-3.91438-6.04355-7.34085-9.87261-10.18358l.48164-.64812c3.8992,2.89508,7.28169,6.38437,10.05374,10.371l-.66278,.4607Z" style="fill: #d84d8d;"></path><rect x="554.31655" y="117.60357" width=".80745" height="6.6937" transform="translate(105.28717 467.87041) rotate(-49.96494)" style="fill: #d84d8d;"></rect><rect x="538.00418" y="120.61834" width=".80778" height="9.71327" transform="translate(71.30126 421.1749) rotate(-45.4542)" style="fill: #d84d8d;"></rect><rect x="544.05296" y="122.91304" width=".8078" height="8.61264" transform="translate(106.23568 474.46601) rotate(-51.54525)" style="fill: #d84d8d;"></rect><rect x="548.57645" y="123.43007" width=".80784" height="6.31532" transform="translate(125.49826 498.16113) rotate(-54.2492)" style="fill: #d84d8d;"></rect><path d="M555.83224,128.48654c-1.65486-1.41194-3.44635-2.6862-5.32371-3.78822l.40835-.69629c1.91871,1.12558,3.74843,2.42758,5.43993,3.86989l-.52457,.61462Z" style="fill: #d84d8d;"></path><rect x="556.36606" y="122.44677" width=".80815" height="4.38742" transform="translate(119.53865 491.1877) rotate(-52.59273)" style="fill: #d84d8d;"></rect><rect x="535.67475" y="108.34204" width=".80729" height="6.53745" transform="translate(59.19884 380.72579) rotate(-41.19801)" style="fill: #d84d8d;"></rect><rect x="532.27861" y="108.04478" width=".80737" height="5.51637" transform="translate(62.62325 384.79607) rotate(-41.98802)" style="fill: #d84d8d;"></rect><path d="M455.83769,93.46021c-2.56526-3.37725-5.0965-6.84821-7.52251-10.31708l.66173-.46279c2.42025,3.45997,4.94468,6.92255,7.50366,10.2909l-.64289,.48897Z" style="fill: #d84d8d;"></path><rect x="455.19727" y="80.62561" width=".80757" height="16.07405" transform="translate(41.0703 297.46312) rotate(-37.747)" style="fill: #d84d8d;"></rect><path d="M461.62943,91.20225c-3.22019-3.69765-6.31893-7.57957-9.20982-11.53741l.65231-.47641c2.87676,3.93951,5.96136,7.80312,9.1669,11.48296l-.60938,.53085Z" style="fill: #d84d8d;"></path><rect x="467.29284" y="71.79552" width=".8074" height="18.56357" transform="translate(71.3068 342.20708) rotate(-43.21045)" style="fill: #d84d8d;"></rect><rect x="468.84312" y="68.7427" width=".80766" height="17.26501" transform="translate(72.0507 338.93736) rotate(-42.72913)" style="fill: #d84d8d;"></rect><polygon points="471.06856 89.06209 470.63456 88.34852 457.96424 74.38092 458.56211 73.83855 471.30467 87.89568 471.75856 88.64222 471.06856 89.06209" style="fill: #d84d8d;"></polygon><path d="M467.34735,90.5735c-3.67304-4.7248-7.52774-9.41138-11.45626-13.92887l.60938-.52981c3.93847,4.52848,7.80207,9.22658,11.48453,13.96342l-.63765,.49525Z" style="fill: #d84d8d;"></path><rect x="460.30961" y="74.96837" width=".80731" height="21.25912" transform="translate(47.94895 307.42971) rotate(-38.78012)" style="fill: #d84d8d;"></rect><path d="M469.2912,100.38485c-2.70871-2.79195-5.61112-5.45302-8.62714-7.90939l.50991-.62613c3.04062,2.47627,5.9666,5.1588,8.6973,7.97326l-.58006,.56226Z" style="fill: #d84d8d;"></path><rect x="473.31053" y="89.8671" width=".80731" height="22.04956" transform="translate(74.93896 375.77845) rotate(-46.60279)" style="fill: #d84d8d;"></rect><rect x="477.33606" y="91.37851" width=".80803" height="22.04119" transform="translate(60.664 356.89607) rotate(-43.48902)" style="fill: #d84d8d;"></rect><polygon points="490.45254 111.62752 470.88166 91.20434 471.46486 90.64522 490.04 110.0292 490.15465 109.93915 491.06244 111.09928 490.45254 111.62752" style="fill: #d84d8d;"></polygon><path d="M495.13388,108.7806c-.22721,0-.44814-.05497-.64446-.16543l.39578-.70362c.16125,.08952,.38898,.078,.59368-.03141,.2047-.11046,.33924-.2937,.35233-.4785,.01256-.18533-.0958-.38584-.2827-.523-.18742-.13716-.41149-.18219-.58373-.11256-.17276,.06753-.30731,.25181-.35128,.47955-.03926,.20627,.00314,.40678,.11203,.53661l.05131,.05392-.5675,.57378c-.02879-.0267-.05654-.05549-.08272-.08481l-20.78807-21.62675,.58216-.55912,19.95096,20.75509c.13402-.41097,.42196-.73241,.79785-.88004,.43348-.16962,.9413-.09109,1.35645,.21307,.41463,.30417,.64289,.76382,.61043,1.22976-.03193,.46594-.32144,.88947-.77377,1.13343-.23454,.12669-.48531,.19004-.72874,.19004Z" style="fill: #d84d8d;"></path><polygon points="497.15992 108.21729 476.00224 86.08271 476.58649 85.52464 496.839 106.71268 496.91386 106.65143 497.76354 107.6812 497.15992 108.21729" style="fill: #d84d8d;"></polygon><path d="M496.51494,102.48104c-7.53769-7.63611-14.74451-15.76696-21.42049-24.16741l.63242-.50258c6.65765,8.37795,13.8451,16.48732,21.3629,24.1025l-.57483,.5675Z" style="fill: #d84d8d;"></path><rect x="487.79281" y="63.56723" width=".80772" height="43.83524" transform="translate(57.10349 330.02998) rotate(-39.49682)" style="fill: #d84d8d;"></rect><path d="M502.87627,98.56613c-9.45379-10.05427-18.43064-20.75613-26.6798-31.80929l.64708-.48269c8.23136,11.02802,17.1878,21.70685,26.62117,31.73913l-.58844,.55284Z" style="fill: #d84d8d;"></path><path d="M507.38747,97.97664c-.02932,0-.05811-.00157-.08743-.00524-.47327-.05288-.79261-.42301-.98318-.64393l-26.56567-30.86014,.61252-.52666,26.56515,30.85961c.15287,.17747,.31464,.35233,.46122,.36908,.01623-.00157,.05549-.02775,.06544-.04607-.0089,.01623-.01204,.06596,.01309,.10575l.68372-.43034c.14397,.2293,.13926,.51148-.01361,.7544-.16334,.26071-.45704,.42353-.75126,.42353Z" style="fill: #d84d8d;"></path><polygon points="508.99783 96.3621 480.28623 61.45931 480.91027 60.94626 508.79837 94.84859 508.87323 94.78891 509.20253 95.16113 509.16327 95.19621 509.63967 95.87313 508.99783 96.3621" style="fill: #d84d8d;"></polygon><rect x="497.39739" y="54.63222" width=".80822" height="48.9962" transform="translate(55.89423 321.58837) rotate(-37.78408)" style="fill: #d84d8d;"></rect><path d="M516.14445,96.08306c-10.27938-14.35554-21.67911-28.10065-33.88296-40.8542l.58321-.55808c12.23003,12.78078,23.65488,26.55573,33.95626,40.94215l-.6565,.47012Z" style="fill: #d84d8d;"></path><polygon points="522.83351 87.76951 485.23196 47.94403 485.81935 47.39014 522.0655 85.78012 522.121 85.73143 523.43085 87.22661 522.83351 87.76951" style="fill: #d84d8d;"></polygon><path d="M517.23757,90.77505c-12.41745-12.74623-23.96795-26.54159-34.33005-41.00393l.6565-.47012c10.33854,14.42935,21.86286,28.19331,34.25152,40.91074l-.57797,.56331Z" style="fill: #d84d8d;"></path><path d="M522.15921,91.33261c-4.61538-5.99853-9.848-11.56149-15.55231-16.53444l.53085-.60833c5.7441,5.0075,11.01336,10.60973,15.6612,16.65066l-.63975,.49211Z" style="fill: #d84d8d;"></path><rect x="507.26443" y="94.6723" width=".80731" height="11.56121" transform="translate(39.08293 320.10178) rotate(-36.3074)" style="fill: #d84d8d;"></rect><path d="M507.04404,108.01364c-2.33806-3.45787-4.84364-6.85659-7.44764-10.10191l.63032-.50572c2.61762,3.26312,5.13629,6.67964,7.48639,10.15531l-.66906,.45232Z" style="fill: #d84d8d;"></path><rect x="500.92345" y="100.23664" width=".80796" height="12.70968" transform="translate(44.06339 338.10938) rotate(-38.857)" style="fill: #d84d8d;"></rect><path d="M503.6558,112.98187c-2.57469-2.51291-4.96248-5.25303-7.09793-8.1455l.64917-.47955c2.1098,2.85739,4.46932,5.56453,7.01312,8.04708l-.56436,.57797Z" style="fill: #d84d8d;"></path><path d="M502.98202,115.4796c-3.46049-3.73691-7.08903-7.40995-10.78458-10.91651l.55598-.5853c3.70812,3.51808,7.3487,7.20316,10.82123,10.95316l-.59263,.54865Z" style="fill: #d84d8d;"></path><path d="M498.27188,116.50047c-2.92964-3.02806-5.72106-6.25349-8.29732-9.58676l.6387-.49421c2.55846,3.31024,5.33052,6.51263,8.23869,9.51975l-.58006,.56122Z" style="fill: #d84d8d;"></path><path d="M495.95791,118.42809c-2.39826-2.29251-4.88919-4.55047-7.40367-6.71105l.52666-.61252c2.52443,2.17,5.02635,4.43738,7.43508,6.73932l-.55808,.58425Z" style="fill: #d84d8d;"></path><path d="M497.85359,124.74335c-4.55832-4.08139-9.27998-8.10467-14.03462-11.95832l.50886-.62718c4.76459,3.86203,9.49672,7.89369,14.06393,11.98345l-.53818,.60205Z" style="fill: #d84d8d;"></path><path d="M490.3337,119.79396c-3.09769-2.62495-6.11737-5.41951-8.97476-8.3057l.57378-.56855c2.84064,2.86996,5.84305,5.64829,8.92346,8.25858l-.52248,.61566Z" style="fill: #d84d8d;"></path><rect x="480.42032" y="108.26082" width=".80714" height="8.55421" transform="translate(66.0563 380.53838) rotate(-46.04145)" style="fill: #d84d8d;"></rect><path d="M481.54321,99.76866c-2.59772-3.21129-5.55092-6.14878-8.77687-8.73132l.50468-.63032c3.2715,2.61866,6.26553,5.59751,8.90042,8.85383l-.62823,.50782Z" style="fill: #d84d8d;"></path><path d="M480.33335,90.17091c-1.93651-1.93494-3.99815-3.78403-6.12784-5.4949l.50572-.62928c2.1522,1.7292,4.23583,3.59765,6.19276,5.55354l-.57064,.57064Z" style="fill: #d84d8d;"></path><rect x="472.63302" y="68.85828" width=".80745" height="13.34877" transform="translate(75.87427 343.35894) rotate(-43.06592)" style="fill: #d84d8d;"></rect><path d="M478.66593,77.03413c-2.65479-3.09716-5.54307-6.04565-8.58526-8.76326l.53818-.60205c3.06837,2.74169,5.9823,5.71583,8.66065,8.83969l-.61357,.52562Z" style="fill: #d84d8d;"></path><rect x="476.93621" y="62.37783" width=".80727" height="10.73119" transform="translate(99.47846 367.18169) rotate(-46.47265)" style="fill: #d84d8d;"></rect><rect x="480.51462" y="60.06702" width=".80701" height="11.88707" transform="translate(94.1172 359.3102) rotate(-44.98751)" style="fill: #d84d8d;"></rect><rect x="484.32939" y="56.42745" width=".80782" height="11.74266" transform="translate(93.92807 355.7588) rotate(-44.2269)" style="fill: #d84d8d;"></rect><rect x="486.05166" y="52.06032" width=".80755" height="10.88021" transform="translate(113.01001 374.49207) rotate(-47.06684)" style="fill: #d84d8d;"></rect><rect x="487.82489" y="44.24931" width=".80796" height="15.36794" transform="translate(113.47463 369.14575) rotate(-46.31817)" style="fill: #d84d8d;"></rect><rect x="488.07896" y="38.40642" width=".80816" height="17.11514" transform="translate(100.05193 346.86826) rotate(-43.1631)" style="fill: #d84d8d;"></rect><path d="M495.8799,51.43174c-4.87505-5.34622-9.70141-10.87358-14.34454-16.42921l.61985-.51829c4.6358,5.54725,9.45431,11.06572,14.32151,16.40304l-.59682,.54446Z" style="fill: #d84d8d;"></path><path d="M499.72047,48.8068c-5.486-6.18281-11.38716-12.12062-17.53908-17.6485l.53923-.601c6.17496,5.54883,12.09758,11.50809,17.604,17.71342l-.60415,.53609Z" style="fill: #d84d8d;"></path><path d="M502.66529,46.15672c-6.17758-5.30277-11.89445-11.20707-16.992-17.54955l.62928-.50572c5.06666,6.30375,10.74898,12.17244,16.88834,17.44275l-.52562,.61252Z" style="fill: #d84d8d;"></path><path d="M502.82287,41.72823c-4.01595-6.28438-9.58414-11.52275-16.10358-15.14763l.39264-.70571c6.63566,3.68979,12.30385,9.02136,16.39152,15.41881l-.68058,.43452Z" style="fill: #d84d8d;"></path><path d="M503.37257,39.63938c-5.04101-5.32109-10.09667-10.74951-15.02617-16.13447l.59577-.54551c4.92636,5.38182,9.97836,10.80709,15.01675,16.12505l-.58635,.55493Z" style="fill: #d84d8d;"></path><rect x="496.13247" y="13.60994" width=".80787" height="25.77537" transform="translate(96.08462 321.26685) rotate(-39.41116)" style="fill: #d84d8d;"></rect><rect x="496.64657" y="4.77944" width=".80787" height="36.68659" transform="translate(123.48495 351.82114) rotate(-44.00785)" style="fill: #d84d8d;"></rect><path d="M510.41292,32.44826c-8.65594-7.88426-17.1789-16.13709-25.33121-24.52969l.57902-.56226c8.14131,8.38056,16.65171,16.62187,25.29561,24.49514l-.54342,.59682Z" style="fill: #d84d8d;"></path><rect x="509.5103" y="15.89977" width=".80793" height="23.78035" transform="translate(136.83432 376.4964) rotate(-46.18545)" style="fill: #d84d8d;"></rect><path d="M519.98868,34.5146c-4.35676-4.61329-8.87896-9.18836-13.44094-13.598l.56122-.58111c4.57088,4.41906,9.10198,9.00251,13.46712,13.62417l-.58739,.55493Z" style="fill: #d84d8d;"></path><path d="M519.47197,29.68248c-2.34434-2.60401-4.95044-4.99651-7.74448-7.11102l.48688-.64393c2.8354,2.1454,5.4792,4.57298,7.85756,7.21468l-.59996,.54028Z" style="fill: #d84d8d;"></path><path d="M517.92286,58.36843c-7.63978-6.84978-14.72933-14.40998-21.07077-22.4712l.63451-.49944c6.31265,8.02457,13.36974,15.55074,20.97549,22.36963l-.53923,.601Z" style="fill: #d84d8d;"></path><rect x="516.8748" y="30.99005" width=".80773" height="39.34056" transform="translate(102.15641 363.41774) rotate(-42.58824)" style="fill: #d84d8d;"></rect><path d="M540.3794,63.7403c-4.40021-4.85306-9.88517-8.76588-15.19003-12.54938-6.30793-4.49968-12.83051-9.15224-17.57887-15.42038l.64393-.48792c4.67402,6.17025,11.14529,10.78615,17.40401,15.25076,5.33942,3.80863,10.86049,7.7471,15.31882,12.66456l-.59786,.54237Z" style="fill: #d84d8d;"></path><path d="M542.09184,62.24198c-9.94904-8.28947-20.22947-16.44701-30.55545-24.24699l.48688-.64393c10.33592,7.80731,20.6263,15.97322,30.58581,24.27002l-.51724,.6209Z" style="fill: #d84d8d;"></path><path d="M540.89559,58.57574c-9.3161-8.06645-18.93427-16.03238-28.58648-23.67635l.50154-.63346c9.6611,7.65182,19.28818,15.6256,28.6137,23.69938l-.52876,.61043Z" style="fill: #d84d8d;"></path><path d="M543.60797,58.26163c-6.81837-6.81837-14.1545-13.25509-21.80475-19.13007l.49211-.64079c7.678,5.89697,15.04031,12.35672,21.88328,19.20022l-.57064,.57064Z" style="fill: #d84d8d;"></path><path d="M543.47814,52.72432c-4.44314-3.50918-8.78211-7.2597-12.89648-11.14686l.55493-.58739c4.09709,3.87146,8.41773,7.60627,12.84203,11.10079l-.50049,.63346Z" style="fill: #d84d8d;"></path><path d="M531.99098,70.09012c-8.73813-8.01776-17.17785-16.56009-25.08463-25.39036l.60205-.53818c7.88898,8.80985,16.30933,17.33334,25.02809,25.33382l-.54551,.59472Z" style="fill: #d84d8d;"></path><path d="M531.23292,74.13696c-9.38678-8.78996-19.14839-17.42757-29.01367-25.67307l.51829-.61985c9.87679,8.25544,19.64941,16.903,29.04718,25.70343l-.55179,.58949Z" style="fill: #d84d8d;"></path><rect x="518.61422" y="44.87308" width=".80771" height="38.46057" transform="translate(153.96649 438.57145) rotate(-52.77041)" style="fill: #d84d8d;"></rect><rect x="512.5654" y="40.87619" width=".80724" height="44.60423" transform="translate(131.61956 412.03544) rotate(-49.47347)" style="fill: #d84d8d;"></rect><rect x="512.77849" y="43.59789" width=".80772" height="49.18787" transform="translate(133.84312 420.48148) rotate(-50.45178)" style="fill: #d84d8d;"></rect><path d="M536.58228,91.36088c-11.81017-9.93019-23.62347-20.19125-35.11272-30.49734l.53923-.601c11.48244,10.30032,23.28946,20.55563,35.09283,30.48058l-.51934,.61776Z" style="fill: #d84d8d;"></path><path d="M540.34851,107.03465c-6.3273-6.26553-12.85826-12.48708-19.41225-18.49137l.54551-.59577c6.56132,6.01214,13.10013,12.2405,19.43529,18.51336l-.56855,.57378Z" style="fill: #d84d8d;"></path><path d="M532.67052,104.53587c-5.60746-4.15782-11.01022-8.70881-16.05751-13.52575l.55703-.58425c5.02373,4.79443,10.40084,9.32343,15.98108,13.46084l-.48059,.64917Z" style="fill: #d84d8d;"></path><path d="M524.79777,101.16281c-4.25939-3.14795-8.31879-6.64194-12.06565-10.38461l.57064-.57169c3.71859,3.71492,7.74762,7.18274,11.97455,10.30713l-.47955,.64917Z" style="fill: #d84d8d;"></path><path d="M516.15702,100.53039c-2.10038-1.78836-3.95156-3.85104-5.50171-6.13098l.66802-.45442c1.50932,2.22026,3.31181,4.22902,5.35722,5.97079l-.52352,.61462Z" style="fill: #d84d8d;"></path><rect x="510.78294" y="96.13193" width=".80749" height="7.55983" transform="translate(60.0396 360.22034) rotate(-41.04371)" style="fill: #d84d8d;"></rect><rect x="508.1733" y="101.05764" width=".80776" height="7.01195" transform="translate(41.94196 332.23853) rotate(-37.62623)" style="fill: #d84d8d;"></rect><path d="M548.66049,107.61105c-7.70417-5.7085-15.23715-11.84734-22.39005-18.24584l.53818-.60205c7.13458,6.38227,14.64819,12.50488,22.33246,18.19872l-.48059,.64917Z" style="fill: #d84d8d;"></path><path d="M553.98106,108.89839c-6.51839-4.21541-12.80277-8.92608-18.67879-14.00059l.52771-.61148c5.84776,5.05095,12.10229,9.73858,18.58979,13.93358l-.43871,.67849Z" style="fill: #d84d8d;"></path><path d="M553.47586,102.2643c-5.81425-3.88193-11.506-8.09001-16.91871-12.50593l.51096-.62613c5.39229,4.40021,11.06362,8.59259,16.85589,12.46091l-.44814,.67116Z" style="fill: #d84d8d;"></path><path d="M554.36481,96.62176c-6.65503-4.49916-13.52942-8.86587-20.4326-12.97867l.41358-.69419c6.91575,4.12118,13.80374,8.49626,20.47134,13.0038l-.45232,.66906Z" style="fill: #d84d8d;"></path><path d="M552.53038,91.0855c-6.69848-4.3442-13.38231-8.91822-19.8651-13.59538l.47222-.6544c6.47232,4.66878,13.14515,9.23495,19.83264,13.57235l-.43976,.67744Z" style="fill: #d84d8d;"></path><path d="M549.84575,84.14463c-6.35191-4.13217-12.54467-8.66117-18.40656-13.46136l.51201-.62509c5.83886,4.78186,12.00753,9.29359,18.33536,13.41005l-.44081,.67639Z" style="fill: #d84d8d;"></path><path d="M548.62385,80.56582c-6.2226-5.1232-12.30228-10.57779-18.07151-16.21195l.56436-.57797c5.75248,5.61845,11.8154,11.05786,18.0202,16.16693l-.51305,.62299Z" style="fill: #d84d8d;"></path><path d="M551.73619,77.098c-7.51884-4.9918-14.91309-10.37152-21.97699-15.99102l.50258-.63242c7.0461,5.60537,14.4215,10.972,21.9215,15.95019l-.44709,.67325Z" style="fill: #d84d8d;"></path><path d="M556.06887,77.79795c-5.33418-4.89704-11.02436-9.52027-16.91086-13.74144l.47012-.6565c5.9132,4.24054,11.6285,8.88419,16.98729,13.80322l-.54656,.59472Z" style="fill: #d84d8d;"></path><path d="M553.13924,71.53609c-3.57462-2.97047-7.29896-5.85299-11.06833-8.56641l.47222-.65545c3.78455,2.72442,7.52303,5.61845,11.11231,8.60097l-.51619,.6209Z" style="fill: #d84d8d;"></path><rect x="548.15398" y="59.38911" width=".80781" height="11.6294" transform="translate(141.33402 438.48121) rotate(-49.2882)" style="fill: #d84d8d;"></rect><rect x="550.44673" y="59.18205" width=".80732" height="10.94988" transform="translate(78.71107 355.6916) rotate(-38.34493)" style="fill: #d84d8d;"></rect><rect x="561.82336" y="75.30391" width=".80745" height="17.85891" transform="translate(87.57861 397.12852) rotate(-41.91418)" style="fill: #d84d8d;"></rect><path d="M570.04276,96.56313c-4.97295-5.67656-10.18777-11.27617-15.49996-16.64333l.57378-.56855c5.32371,5.3792,10.55004,10.99138,15.53346,16.67998l-.60729,.5319Z" style="fill: #d84d8d;"></path><path d="M570.91862,102.66218c-5.70431-6.56289-11.35994-13.32943-16.80982-20.11063l.62928-.50572c5.4436,6.77335,11.09242,13.53151,16.78992,20.08655l-.60938,.52981Z" style="fill: #d84d8d;"></path><rect x="564.05683" y="88.8027" width=".8072" height="22.06124" transform="translate(57.84094 368.01043) rotate(-37.92423)" style="fill: #d84d8d;"></rect><path d="M568.20677,109.70566c-3.80497-3.95731-7.57696-8.05546-11.21126-12.1803l.60624-.53399c3.62645,4.11647,7.39006,8.20571,11.18717,12.15412l-.58216,.56017Z" style="fill: #d84d8d;"></path><rect x="560.4774" y="98.81563" width=".8074" height="15.95587" transform="translate(99.06003 442.52228) rotate(-46.79618)" style="fill: #d84d8d;"></rect><rect x="558.73968" y="101.82394" width=".8077" height="14.23214" transform="translate(106.61888 454.96147) rotate(-48.42825)" style="fill: #d84d8d;"></rect><path d="M558.75979,114.70479c-2.73698-2.10561-5.58809-4.12589-8.47427-6.00586l.44081-.67639c2.90398,1.89097,5.77237,3.92381,8.52558,6.04251l-.49211,.63975Z" style="fill: #d84d8d;"></path><path d="M558.79538,118.62964c-1.38315-.38793-2.57992-1.22662-3.7856-2.12498-3.90339-2.90817-7.70731-6.04355-11.30654-9.31819l.54342-.59682c3.57985,3.25632,7.36336,6.37495,11.24581,9.26794,1.18578,.88318,2.26947,1.64334,3.5207,1.9941l-.21779,.77796Z" style="fill: #d84d8d;"></path><path d="M550.92578,113.64465c-3.58771-1.93965-7.10945-4.10024-10.4668-6.42154l.45965-.66383c3.33275,2.30403,6.82884,4.44943,10.39142,6.37547l-.38427,.7099Z" style="fill: #d84d8d;"></path><rect x="555.11772" y="88.03031" width=".8071" height="11.77282" transform="translate(156.78774 491.95667) rotate(-54.54585)" style="fill: #d84d8d;"></rect><path d="M559.51261,92.39798c-3.54321-3.25317-7.21572-6.46604-10.91546-9.54907l.51724-.61985c3.70916,3.09088,7.39163,6.31212,10.94478,9.5742l-.54656,.59472Z" style="fill: #d84d8d;"></path><rect x="552.48814" y="75.76468" width=".80747" height="11.81417" transform="translate(143.82035 462.48693) rotate(-51.35407)" style="fill: #d84d8d;"></rect><path d="M558.62472,83.97867c-2.92231-1.97316-5.79907-4.09081-8.55019-6.2938l.50468-.63032c2.73436,2.18938,5.59332,4.29394,8.49783,6.25506l-.45232,.66906Z" style="fill: #d84d8d;"></path><path d="M535.74308,93.03144c-6.2493-5.09964-12.2583-10.62805-17.86105-16.43235l.58111-.56122c5.58024,5.78179,11.5662,11.28821,17.7909,16.36744l-.51096,.62613Z" style="fill: #d84d8d;"></path><path d="M532.59199,94.70515c-4.44681-4.33373-8.85592-8.83079-13.10432-13.36608l.58949-.55179c4.24002,4.52586,8.64023,9.01403,13.07814,13.3399l-.56331,.57797Z" style="fill: #d84d8d;"></path><path d="M507.66808,77.39065c-4.53005-4.54523-8.70934-9.50247-12.42164-14.73457l.65859-.46698c3.68613,5.19545,7.83662,10.11814,12.33474,14.63196l-.57169,.56959Z" style="fill: #d84d8d;"></path><path d="M510.12236,40.68695c-1.302-2.72651-3.2982-5.08341-5.77289-6.8168l.46279-.66173c2.58882,1.81296,4.67716,4.27876,6.03884,7.13091l-.72874,.34762Z" style="fill: #d84d8d;"></path><path d="M536.76866,105.57559c-4.46775-4.76354-9.52184-8.96482-15.02094-12.48761l.43557-.67953c5.55563,3.55839,10.66103,7.80259,15.17485,12.6143l-.58949,.55284Z" style="fill: #d84d8d;"></path><rect x="530.43344" y="101.05871" width=".80792" height="6.36797" transform="translate(153.11052 491.51171) rotate(-56.82467)" style="fill: #d84d8d;"></rect><path d="M566.97858,88.66997l-.0869-.80308c4.08453-.44447,8.06854-1.4978,11.84158-3.13119,1.35488-.58687,2.04227-1.26326,2.04331-2.01085,0-.20051-.05131-.41358-.10575-.63922-.04921-.20313-.09999-.41306-.11989-.6387-.06125-.68372,.16805-1.30567,.3895-1.9072l.07172-.19475c1.32399-3.66152,1.15332-7.79055-.46855-11.32957l.73398-.3361c1.7093,3.72958,1.8894,8.08163,.49368,11.94l-.07277,.19999c-.19999,.54132-.38845,1.05281-.34343,1.55539,.01518,.16648,.05654,.33872,.10052,.52143,.06335,.26176,.12879,.53242,.12826,.82978-.00157,1.09888-.85282,2.02447-2.52967,2.75112-3.84737,1.66533-7.90992,2.7396-12.07559,3.19297Z" style="fill: #d84d8d;"></path><path d="M592.36737,105.64783c-3.29139-2.39146-6.85606-4.41644-10.59559-6.01895l-.69157-.29317c-1.79516-.75597-3.65158-1.53759-5.0808-2.92807-.55598-.5408-1.02715-1.15699-1.48209-1.75223-.33715-.44133-.68582-.89732-1.05961-1.30776-1.6847-1.84908-4.10076-3.01288-6.23307-4.03951l.35076-.7277c2.19775,1.05856,4.6892,2.25848,6.47913,4.22379,.39735,.43557,.75649,.90622,1.10411,1.36064,.45756,.59891,.88999,1.16432,1.40409,1.66376,1.3198,1.2842,3.10502,2.03598,4.83107,2.76316l.69629,.29474c3.7945,1.62606,7.41205,3.68142,10.7516,6.10795l-.47431,.65336Z" style="fill: #d84d8d;"></path><path d="M581.62258,105.46408l-7.69108-6.94925c-1.1528-1.04181-2.34486-2.11922-3.78769-2.69615l.29946-.74969c1.57738,.63032,2.8799,1.80773,4.02956,2.84692l7.69108,6.94925-.54132,.59891Z" style="fill: #d84d8d;"></path><rect x="575.03586" y="97.99219" width=".80728" height="10.82468" transform="translate(145.71866 499.84257) rotate(-52.88015)" style="fill: #d84d8d;"></rect><rect x="579.94203" y="98.87033" width=".80735" height="6.02935" transform="translate(161.75271 516.56754) rotate(-54.68845)" style="fill: #d84d8d;"></rect><path d="M581.23779,97.73268c-2.1098-2.79562-4.56722-5.32319-7.30472-7.51256l.50468-.63032c2.78933,2.23073,5.29439,4.80699,7.44503,7.65601l-.64498,.48688Z" style="fill: #d84d8d;"></path><path d="M584.79722,97.46778c-2.57888-3.48091-5.48705-6.75084-8.64337-9.71921l.55284-.58844c3.19192,3.00136,6.13203,6.30793,8.7397,9.82706l-.64917,.48059Z" style="fill: #d84d8d;"></path><path d="M589.06132,99.74772c-3.11182-4.3065-6.49274-8.49469-10.04851-12.44782l.59996-.54028c3.57514,3.97459,6.97438,8.18529,10.10296,12.51483l-.6544,.47327Z" style="fill: #d84d8d;"></path><path d="M592.45899,99.24514c-3.88402-4.58031-7.77956-9.23443-11.57772-13.83306l.62299-.5141c3.79607,4.59601,7.68899,9.24752,11.57039,13.82468l-.61566,.52248Z" style="fill: #d84d8d;"></path><path d="M595.26874,98.89229c-4.23112-5.2745-8.60673-10.72857-13.78437-15.24134l.53085-.60833c5.23157,4.55937,9.63021,10.04223,13.88384,15.34395l-.63032,.50572Z" style="fill: #d84d8d;"></path><path d="M599.60404,96.44429c-5.00593-5.25775-10.23802-10.42911-15.55074-15.37013l.5497-.59158c5.32476,4.95201,10.56837,10.13489,15.58634,15.40468l-.5853,.55703Z" style="fill: #d84d8d;"></path><rect x="592.95914" y="72.26857" width=".80742" height="27.25397" transform="translate(109.26541 439.6005) rotate(-44.39062)" style="fill: #d84d8d;"></rect><rect x="596.95852" y="72.19356" width=".80706" height="27.40032" transform="translate(118.2487 452.86722) rotate(-45.63244)" style="fill: #d84d8d;"></rect><path d="M612.65024,97.39763c-7.88688-6.94977-15.52718-14.36444-22.70835-22.0372l.58949-.55179c7.1639,7.65391,14.78535,15.05025,22.65286,21.98275l-.53399,.60624Z" style="fill: #d84d8d;"></path><rect x="611.92669" y="82.23199" width=".80788" height="18.59126" transform="translate(138.75377 490.33969) rotate(-48.60295)" style="fill: #d84d8d;"></rect><rect x="617.08185" y="85.12377" width=".80785" height="13.7715" transform="translate(121.62025 471.31391) rotate(-45.8887)" style="fill: #d84d8d;"></rect><rect x="619.21995" y="85.50899" width=".80724" height="13.23037" transform="translate(147.08802 503.37882) rotate(-49.49018)" style="fill: #d84d8d;"></rect><path d="M627.84604,95.937c-3.23852-2.82389-6.61105-5.57762-10.0239-8.18477l.49002-.64184c3.42646,2.61762,6.81261,5.38287,10.06474,8.21827l-.53085,.60833Z" style="fill: #d84d8d;"></path><rect x="626.5622" y="83.50261" width=".80759" height="13.23033" transform="translate(148.20694 504.84339) rotate(-49.08025)" style="fill: #d84d8d;"></rect><rect x="630.99274" y="82.82987" width=".80715" height="13.70309" transform="translate(165.33887 524.99109) rotate(-51.13029)" style="fill: #d84d8d;"></rect><path d="M639.94728,94.69886c-2.97937-2.61134-6.07968-5.15357-9.21558-7.55549l.49107-.64079c3.14952,2.4124,6.26396,4.96614,9.25642,7.589l-.5319,.60729Z" style="fill: #d84d8d;"></path><rect x="638.26531" y="87.65759" width=".80758" height="3.64977" transform="translate(81.18506 413.69981) rotate(-38.15677)" style="fill: #d84d8d;"></rect><path d="M597.82249,108.8162c-2.82389-3.77356-5.96712-7.3576-9.34175-10.65213l.56436-.57797c3.40447,3.32385,6.57493,6.9393,9.42342,10.74637l-.64603,.48374Z" style="fill: #d84d8d;"></path><path d="M589.02311,107.37284c-1.74072-2.29356-3.84371-4.25991-6.25035-5.84357l.44395-.6743c2.4836,1.63392,4.6536,3.66309,6.44929,6.02994l-.64289,.48792Z" style="fill: #d84d8d;"></path><path d="M608.32018,107.19799c-2.79247-3.04062-5.74462-6.00377-8.77478-8.80776l.54865-.59263c3.04586,2.81865,6.01371,5.7975,8.82085,8.85383l-.59472,.54656Z" style="fill: #d84d8d;"></path><path d="M613.4884,103.82074c-3.02282-2.07054-5.9132-4.38974-8.5905-6.89271l.55179-.58949c2.64746,2.4747,5.50537,4.76825,8.49522,6.81628l-.45651,.66592Z" style="fill: #d84d8d;"></path><rect x="616.4332" y="94.74098" width=".80731" height="9.57163" transform="translate(100.22009 450.95305) rotate(-43.39102)" style="fill: #d84d8d;"></rect><path d="M463.28952,30.35783l-.43348-.68163c1.23709-.78738,2.77677-1.76794,3.48195-3.21967,.23925-.49264,.38165-1.02768,.5319-1.59413l.09633-.35914c.7099-2.58516,1.87055-4.99337,3.4495-7.15814l.65231,.47641c-1.52136,2.08467-2.63908,4.40493-3.3228,6.89533l-.09476,.35233c-.15339,.57902-.31254,1.17688-.58582,1.74019-.8057,1.65695-2.45218,2.70557-3.77513,3.54844Z" style="fill: #d84d8d;"></path><path d="M447.19118,50.78886l-.61671-.52143c1.63863-1.93651,3.52227-3.68351,5.34413-5.37292,1.53445-1.42294,3.12125-2.89404,4.54157-4.46304,2.48726-2.74588,4.53162-5.84619,6.07654-9.21506l.73398,.33715c-1.57947,3.44321-3.66938,6.61262-6.21161,9.42028-1.4444,1.59465-3.04429,3.07779-4.5913,4.51277-1.80406,1.67266-3.6699,3.4029-5.27659,5.30225Z" style="fill: #d84d8d;"></path><path d="M451.07572,58.20457l-.57064-.57169c2.02499-2.01923,4.14369-3.98715,6.29746-5.84828,.35809-.30993,1.02454-.88371,1.81349-.78529,.23768,.03036,.44709,.11832,.63137,.1958,.14187,.05968,.27537,.1157,.3984,.13612,.41044,.07015,.86067-.23244,1.28054-.54708,4.16515-3.12334,8.1455-6.57493,11.83006-10.25792l.57064,.57064c-3.71126,3.71073-7.7204,7.18693-11.91592,10.33331-.53504,.4005-1.16903,.81774-1.89673,.69786-.21674-.0356-.40992-.11675-.58006-.18847-.15025-.06335-.29213-.12303-.42039-.13926-.40364-.04973-.81984,.28113-1.18369,.59525-2.13912,1.84856-4.24368,3.80287-6.25453,5.80902Z" style="fill: #d84d8d;"></path><path d="M427.98833,71.21046l-.54132-.59891,5.06928-4.57874c.13193-.11936,.26857-.24239,.3361-.37223,.07015-.1335,.09057-.31778,.11256-.51305l.02199-.18166c.16282-1.20358,.84968-2.33544,2.1611-3.56153,.27747-.25914,.56436-.50991,.85125-.76016,.72194-.62928,1.40357-1.22347,1.93704-1.95484l.65231,.47641c-.58687,.80413-1.33498,1.45644-2.05849,2.08729-.28009,.24396-.56017,.48845-.83031,.74079-1.16798,1.09259-1.77579,2.07106-1.91295,3.08094l-.01937,.16282c-.02775,.24815-.05968,.52981-.19946,.7968-.13455,.25862-.34291,.44657-.51044,.59786l-5.06928,4.57821Z" style="fill: #d84d8d;"></path><path d="M434.06016,74.99344l-.57588-.56541c3.47934-3.5453,7.84552-6.13098,12.62634-7.47644,.7811-.21988,1.57999-.40835,2.35324-.59053,1.2219-.28794,2.48569-.58582,3.67775-1.00988,2.23859-.79523,3.86099-1.93965,4.82322-3.40186l.6743,.44395c-1.06066,1.61245-2.81917,2.86367-5.22738,3.71911-1.23342,.43819-2.51919,.74131-3.76256,1.03448-.76487,.18062-1.55539,.36699-2.31973,.58163-4.64575,1.30776-8.88838,3.82015-12.2693,7.26494Z" style="fill: #d84d8d;"></path><rect x="478.44862" y="16.80661" width="5.31804" height=".80742" transform="translate(242.51052 435.33969) rotate(-62.33835)" style="fill: #d84d8d;"></rect><path d="M465.83489,61.70013l-.55598-.58635c1.67109-1.58523,3.54687-2.94115,5.57552-4.03008l.08219-.04398c.37065-.19789,.72037-.38479,.97689-.65388,.29422-.30888,.47484-.73922,.64969-1.15542l3.85575-9.17108,.74445,.31307-3.85575,9.17108c-.1937,.4607-.41306,.98318-.80989,1.39938-.34553,.3628-.7701,.58949-1.18002,.80884l-.08115,.04345c-1.96531,1.0549-3.78298,2.36894-5.40172,3.90496Z" style="fill: #d84d8d;"></path><polygon points="571.94944 83.94831 571.36832 83.38814 577.55323 76.97341 577.48203 70.83195 578.2893 70.82253 578.36469 77.29485 571.94944 83.94831" style="fill: #d84d8d;"></polygon><path d="M564.83004,82.38245l-.55598-.58635c1.17322-1.11144,2.3857-2.2611,3.30762-3.59451l.1759-.25862c.26647-.39631,.54237-.80623,.92245-1.14495,.34553-.30678,.7366-.52143,1.1151-.72874l4.21384-2.3056,.38741,.70885-4.21332,2.30507c-.33872,.18533-.68948,.37798-.96642,.62404-.30312,.27066-.53923,.6209-.78947,.99208l-.18166,.26752c-.96904,1.402-2.21293,2.58097-3.41547,3.7212Z" style="fill: #d84d8d;"></path></g><path d="M573.99275,129.97963l-.34238-.73189,37.98582-17.75268c1.10306-.51515,2.2433-1.04809,3.10816-1.89358,.84758-.82769,1.38001-1.89358,1.94437-3.02125,.3628-.72613,.73869-1.47686,1.20725-2.16372,1.72501-2.52757,4.70857-4.2641,8.86744-5.16142,1.52345-.32877,3.08826-.53452,4.60125-.73346,1.80406-.23768,3.6699-.48321,5.44988-.93763l.19999,.78214c-1.82657,.46646-3.71649,.71513-5.54464,.95595-1.49675,.19684-3.04481,.4005-4.53581,.72246-3.95051,.8523-6.76654,2.47627-8.37114,4.82741-.43819,.64132-.80099,1.36744-1.15175,2.06949-.56959,1.13814-1.15803,2.31502-2.10247,3.23799-.96276,.94077-2.22079,1.52869-3.33013,2.0475l-37.98582,17.75268Z" style="fill: #d84d8d;"></path><path d="M662.62632,126.86938c-7.38273-1.96897-14.32727-6.12208-19.55465-11.69394-.37746-.40259-.74969-.81408-1.12191-1.22662-1.53759-1.70302-3.12753-3.46415-5.14205-4.5133-.45389-.23663-.94234-.4429-1.41456-.64236-.779-.3293-1.58418-.66959-2.30769-1.1685-.55389-.38217-1.03867-.84287-1.50775-1.28839-.24396-.23192-.48792-.46384-.74131-.68425-3.1893-2.77363-8.10205-3.48614-11.94785-1.73234l-.33506-.73503c4.12327-1.87893,9.39253-1.11615,12.81271,1.85798,.26229,.22826,.51515,.46803,.76749,.70833,.46698,.44342,.90831,.86277,1.41037,1.20882,.65545,.45232,1.38786,.76173,2.1632,1.08945,.4874,.20574,.99103,.41882,1.4732,.67011,2.14331,1.11615,3.78298,2.93225,5.36873,4.68815,.36908,.40887,.73712,.8167,1.11092,1.2151,5.12582,5.46401,11.93529,9.53598,19.17457,11.46673l-.20836,.78005Z" style="fill: #d84d8d;"></path><rect x="633.51769" y="97.96143" width=".80766" height="11.88561" transform="translate(97.53024 457.3685) rotate(-42.69199)" style="fill: #d84d8d;"></rect><rect x="636.58575" y="99.11548" width=".80724" height="11.10306" transform="translate(103.9535 468.78705) rotate(-43.6684)" style="fill: #d84d8d;"></rect><rect x="640.05986" y="98.3141" width=".80775" height="13.42304" transform="translate(114.47415 485.23495) rotate(-45.17381)" style="fill: #d84d8d;"></rect><rect x="643.94272" y="96.61487" width=".80745" height="15.2499" transform="translate(136.41627 514.1852) rotate(-48.09612)" style="fill: #d84d8d;"></rect><path d="M655.88595,111.11656c-4.08087-4.5201-8.62714-8.65332-13.51319-12.285l.48164-.64812c4.92845,3.66309,9.51452,7.83243,13.63046,12.3918l-.59891,.54132Z" style="fill: #d84d8d;"></path><path d="M662.79908,114.50847c-4.74365-3.96935-9.40143-8.17115-13.84458-12.4897l.56331-.57902c4.42796,4.30441,9.07109,8.49312,13.79956,12.44886l-.51829,.61985Z" style="fill: #d84d8d;"></path><path d="M657.88424,125.56057l-1.08841-.91983c-4.4777-3.78455-8.9601-7.70155-13.32367-11.64264l.54132-.59891c4.16882,3.76518,8.44757,7.5089,12.72581,11.13587,.06492,.00209,.1225,.01414,.17067,.02984,.35809,.11727,.48792,.51201,.53033,.64184l.44395,1.35383Z" style="fill: #d84d8d;"></path><rect x="652.33428" y="109.11952" width=".80693" height="15.799" transform="translate(142.3705 540.43997) rotate(-49.84414)" style="fill: #d84d8d;"></rect><rect x="657.95845" y="107.25304" width=".80702" height="19.23775" transform="translate(197.82787 601.64801) rotate(-56.53524)" style="fill: #d84d8d;"></rect><path d="M672.81513,123.49579c-4.90384-3.09402-10.07992-5.84985-15.38321-8.19105l.32563-.73922c5.33994,2.35743,10.55109,5.1321,15.48897,8.24759l-.43138,.68267Z" style="fill: #d84d8d;"></path><rect x="670.71864" y="110.33862" width=".80788" height="12.7509" transform="translate(295.20357 684.79205) rotate(-66.37143)" style="fill: #d84d8d;"></rect><path d="M577.63595,122.96128c-.24763,0-.51881-.11884-.80989-.356l-11.82378-9.59514,.50886-.62718,11.7463,9.53284c.11256-.18585,.30836-.28061,.51462-.2492,.28061,.0445,.47484,.31254,.52195,.55493,.05026,.25914-.05235,.49996-.26752,.62928-.1225,.07329-.25286,.11046-.39055,.11046Zm-.27223-.95962c.19004,.14868,.26857,.14973,.26909,.14973-.10575,.05706-.14449,.15863-.1314,.22407,.00785,.04241,.08167,.07905,.14554,.089,.1335,.02042,.25967-.05445,.30574-.13821l-.58896-.32458Z" style="fill: #d84d8d;"></path><rect x="576.36211" y="108.00926" width=".80749" height="15.91706" transform="translate(139.72549 509.79909) rotate(-53.39167)" style="fill: #d84d8d;"></rect><rect x="578.53825" y="105.54273" width=".80725" height="16.50905" transform="translate(152.96785 522.0492) rotate(-54.90334)" style="fill: #d84d8d;"></rect><rect x="582.73861" y="104.04335" width=".80752" height="16.21539" transform="translate(185.24767 552.96016) rotate(-58.81544)" style="fill: #d84d8d;"></rect><rect x="588.21464" y="103.44812" width=".80757" height="15.2149" transform="translate(196.11665 563.54573) rotate(-59.74527)" style="fill: #d84d8d;"></rect><rect x="594.78563" y="104.93899" width=".80811" height="12.96348" transform="translate(182.62201 554.65121) rotate(-57.65516)" style="fill: #d84d8d;"></rect><rect x="603.18237" y="102.46396" width=".8077" height="10.61194" transform="translate(127.50816 494.13811) rotate(-49.18501)" style="fill: #d84d8d;"></rect><rect x="588.2146" y="115.3238" width=".80765" height="7.52628" transform="translate(125.03298 500.84849) rotate(-50.90885)" style="fill: #d84d8d;"></rect><rect x="568.31841" y="114.10182" width=".80805" height="14.71598" transform="translate(181.10427 554.99165) rotate(-60.25562)" style="fill: #d84d8d;"></rect><rect x="602.08722" y="105.61568" width=".80757" height="10.14998" transform="translate(146.50165 519.74024) rotate(-52.30438)" style="fill: #d84d8d;"></rect><path d="M608.87773,108.99053c-4.80123-2.87048-9.24176-6.33254-13.19855-10.28933l.57064-.57064c3.9102,3.90967,8.29785,7.33038,13.04254,10.16683l-.41463,.69315Z" style="fill: #d84d8d;"></path><path d="M612.756,106.1724c-3.87355-3.03487-7.65967-6.27338-11.25314-9.6255l.55075-.59053c3.57671,3.33642,7.34503,6.55975,11.20078,9.58048l-.49839,.63556Z" style="fill: #d84d8d;"></path><path d="M616.50756,103.10717c-2.45428-2.04017-5.03839-3.97721-7.68061-5.75719l.45128-.67011c2.66421,1.79569,5.27031,3.74895,7.74553,5.8064l-.51619,.6209Z" style="fill: #d84d8d;"></path><rect x="619.79285" y="95.27188" width=".80744" height="7.83816" transform="translate(243.54133 601.79762) rotate(-62.23861)" style="fill: #d84d8d;"></rect><rect x="625.99874" y="93.12382" width=".80789" height="9.21406" transform="translate(197.61265 564.71131) rotate(-56.30903)" style="fill: #d84d8d;"></rect><rect x="633.70646" y="90.06493" width=".8076" height="16.30088" transform="translate(202.17691 572.74214) rotate(-56.49468)" style="fill: #d84d8d;"></rect><path d="M652.26631,103.08466c-3.7589-3.68403-7.93452-6.95292-12.41012-9.71712l.42405-.68686c4.52691,2.79509,8.74965,6.10167,12.55148,9.82706l-.56541,.57692Z" style="fill: #d84d8d;"></path></g><g><path d="M0,88.47034c6.5675-6.28888,15.48693-9.00361,23.91625-11.81123,21.28449-6.98205,41.58992-16.95646,60.30165-29.26031,5.67338-3.47259,11.92541-7.05543,18.79989-6.78904,.47768-.00649,1.21036,.09934,1.69213,.18412,.81232,.09728,1.69628,.38599,2.47851,.62007l.78495,.33454c.50035,.21585,1.08845,.45776,1.53677,.73426,4.73595,3.08797,7.21478,3.56041,12.18919,.54749,7.31701-4.88595,14.90043-10.25617,21.81374-15.6825,3.50149-2.78967,6.91669-5.69025,10.15037-8.78271,3.26937-3.07526,6.19921-6.45846,9.3464-9.66166,6.001-6.37793,15.7553-12.00815,24.24497-6.94523,7.88315,5.04149,8.83258,15.76709,10.59012,24.13115,1.24865,6.58616,3.35658,13.00712,6.26578,19.04613,.99578,1.99017,1.91875,4.07353,3.44878,5.64149,2.69468,2.92962,5.9564,1.3059,8.98538-.09961,0,.00014,3.07403-1.36312,3.07403-1.36312,4.11752-1.8295,14.40276-6.40386,18.4572-8.16595,5.14507-2.31864,8.26657-.6974,12.88799,1.73147,.00002-.00015,5.9997,3.0389,5.9997,3.0389l11.99945,6.07915c1.98285,1.01773,4.04641,2.09724,5.53165,3.87146,1.5327,1.73922,1.74584,4.16038,2.6232,6.19513,1.90103,4.12756,6.28798,6.23918,9.97577,8.54025,3.85626,2.27834,7.7698,4.4651,11.77999,6.46365,15.99413,8.08242,33.14332,13.89641,50.77664,17.17759-24.22685-4.44135-47.7933-13.43187-68.41681-26.96759-1.80758-1.32676-3.49352-2.96984-4.43639-5.071-.88981-2.04207-1.07775-4.39116-2.58249-6.10531-1.42119-1.69545-3.44206-2.75925-5.42205-3.76834l-12.01041-6.05586-6.0054-3.0278c-4.54191-2.36483-7.53263-3.96698-12.53368-1.69396-3.98252,1.7121-14.27736,6.36873-18.42992,8.19558,.00009,.00002-3.07134,1.36903-3.07134,1.36903-2.05772,.86394-4.18938,2.15838-6.5378,1.72347-3.56385-.77988-5.07472-4.61387-6.55915-7.48375-2.94003-6.07361-5.07601-12.53856-6.34532-19.16494-1.32415-6.52147-2.17955-13.37238-5.7461-19.09843-3.78617-6.12272-10.74254-7.89999-17.31724-5.37118-4.1945,1.49714-7.69324,4.42546-10.83489,7.56818-3.14255,3.1874-6.10052,6.5857-9.37398,9.65296-8.07767,7.69453-17.35637,14.33516-26.51505,20.68913-4.39572,2.88-9.77145,7.9756-15.29779,4.913-1.51509-.76734-2.83223-1.80405-4.4078-2.41158l-.76088-.32668c-3.42076-1.20944-7.16817-.95628-10.6154,.07124-6.26593,1.80918-12.19156,6.00521-17.69321,9.43779-17.12384,10.69612-35.56134,19.28036-54.77524,25.47906-8.44667,2.76281-17.36121,5.41992-23.96214,11.67146H0Z" style="fill: #d84d8d;"></path><path d="M182.99917,.24616l1.19929,6.15952,.00612,.03141-.02807,.01701c-3.71673,2.24323-7.15254,4.94291-10.20185,8.02954-1.46645,1.54542-3.09945,3.07127-3.93111,5.06743-1.55729,3.97556,2.19273,4.34198,3.3621,7.2039,.2583,.75969,.11498,1.53241,.12022,2.22242-.08728,1.53245,1.23365,2.35896,2.30052,3.23458,1.92471,1.38477,2.24485,4.11297,1.33091,6.18887-1.40996,3.25195-5.20498,5.38476-7.80984,7.58094-.00005-.00008-13.71028,10.69106-13.71028,10.69106l-.10178-.5196c2.82162,.78232,5.16103,2.86236,6.54533,5.40486,1.39075,2.53698,1.88281,5.62343,1.02959,8.42139l-.16458-.34605c2.63887,1.08579,4.87091,2.92519,6.7918,4.95567,3.7701,4.11138,6.88509,8.76198,10.93436,12.60899,5.90379,5.90108,12.73469,10.786,19.76257,15.25713,4.69215,2.99481,9.51676,5.78074,14.3356,8.57138-4.8597-2.71892-9.72528-5.43286-14.46715-8.36119-8.30212-5.1-16.27318-10.92841-22.88948-18.12935-2.80873-3.07114-5.2347-6.55828-8.07176-9.56979-1.95677-2.0603-4.2114-3.8765-6.852-4.90327,.89439-2.70252,.44478-5.73905-.92911-8.21959-1.41244-2.5971-3.86897-4.61716-6.75227-5.27865,.00002-.00003,.46463-.36022,.46463-.36022l13.73951-10.65344c1.95321-1.58359,5.01481-3.62931,6.57677-5.5616,1.78338-2.05292,2.35206-5.61679-.0678-7.41603-.80846-.69425-1.86079-1.3668-2.2569-2.45192-.40796-1.03483,.07625-2.25867-.2574-3.23799-.73233-2.0273-3.52516-2.89139-3.66296-5.25858-.14409-3.08096,2.49038-5.30012,4.4293-7.34319,3.10528-3.05227,6.59758-5.71417,10.35591-7.90726-.03009,.20262-1.11914-6.1464-1.1302-6.12836h0Z" style="fill: #d84d8d;"></path><path d="M208.89603,50.15601c-.19958,5.43324,5.07902,8.54177,8.97963,11.29892,2.07752,1.48292,4.08865,3.26285,5.15114,5.65303,.52821,1.19808,.79573,2.45846,1.15178,3.65733,.59189,2.53114,2.4003,4.26545,4.22253,5.99874-.00008,.00005,2.71462,2.66243,2.71462,2.66243,3.17205,3.09246,7.63307,7.53339,10.80862,10.70142-.00005-.00008,5.34509,5.41132,5.34509,5.41132l-5.55203-5.19885c-3.27604-3.12162-7.79954-7.41327-10.98581-10.51949,.00003,.00007-2.73387-2.64242-2.73387-2.64242-1.34667-1.32592-2.90254-2.63779-3.71122-4.42247-.81042-1.73217-1.01905-3.71522-1.76289-5.4271-.99026-2.27916-2.92556-3.99344-4.92348-5.50171-3.87027-2.8391-9.17338-6.19494-8.7041-11.67117h0Z" style="fill: #d84d8d;"></path><path d="M221.90493,65.00549c1.56044-2.53379,4.219-4.34785,7.1343-4.97478,1.42482-.36225,2.96796-.14134,4.37152-.44574,1.36885-.32201,2.53463-1.22744,3.62827-2.17868,.61508-.52821,3.63424-3.12252,4.1825-3.59399,.48359-.44651,1.1561-.8421,1.19953-1.52894,.02518-.3115-.05642-.65912-.1323-1.02114l-.90766-4.31985c-.281-1.44492-.58226-2.88514-.84539-4.33425,.3968,1.41823,.75548,2.84535,1.13441,4.26776,.17933,.90226,1.26382,4.58074,1.25716,5.4365-.02453,.87166-.79341,1.39574-1.35333,1.90486l-.82765,.72979c-2.0548,1.65721-4.51923,4.5622-7.21381,5.17378-1.48369,.30288-2.94075,.07023-4.40307,.36435-2.83675,.51511-5.47344,2.15348-7.22448,4.52033h0Z" style="fill: #d84d8d;"></path><path d="M163.79793,68.16051c6.3242,3.27128,11.56745,8.22367,16.68065,13.08966,3.67652,3.5583,7.73792,7.5093,11.37664,11.14688,1.24109,1.26245,2.49658,2.51001,3.72493,3.78583-1.32342-1.17688-2.61971-2.38203-3.93042-3.572-3.78823-3.49957-7.88146-7.38744-11.58974-10.92518-5.07128-4.91322-10.20098-9.84234-16.26205-13.5252h0Z" style="fill: #d84d8d;"></path><path d="M164.46243,64.32229c13.98164,7.17521,24.22713,19.73832,37.44789,28.03909-.00003,.00004,2.68106,1.60254,2.68106,1.60254l-2.76327-1.46482c-13.58292-7.80236-23.80441-20.3421-37.36569-28.17682h0Z" style="fill: #d84d8d;"></path><path d="M166.12994,58.65515c15.21195,9.95072,31.11576,20.8754,45.88705,31.49799-15.2265-9.96815-31.12922-20.87689-45.88705-31.49799h0Z" style="fill: #d84d8d;"></path><path d="M169.00504,54.55073c16.30938,9.56537,31.84794,20.47105,46.38225,32.56442-14.99019-11.41455-30.55326-22.34495-46.38225-32.56442h0Z" style="fill: #d84d8d;"></path><path d="M172.63998,48.89327c16.27526,9.49162,32.34665,19.3271,48.28608,29.3712l-.10736,.1995-1.68611-.82848,.07679-.14135,3.28261,2.13676-3.36768-2.00012,.07679-.14109,1.71403,.76906-.10736,.1992c-4.05677-2.39355-8.10288-4.80464-12.1348-7.23902-12.08928-7.31514-24.14013-14.69326-36.03301-22.32566h0Z" style="fill: #d84d8d;"></path><path d="M181.77552,45.36368c12.01635,7.60883,23.94748,15.64399,35.50987,23.92627-12.01803-7.60619-23.94567-15.64668-35.50987-23.92627h0Z" style="fill: #d84d8d;"></path><path d="M182.17932,39.77585c8.26988,4.42782,16.24544,9.63752,23.61601,15.4405-7.59388-4.95857-16.02616-10.47567-23.61601-15.4405h0Z" style="fill: #d84d8d;"></path><path d="M182.64579,32.50568c5.9348,4.59299,12.5211,9.35662,18.737,13.56051-6.82774-3.62149-13.16081-8.20931-18.737-13.56051h0Z" style="fill: #d84d8d;"></path><path d="M181.39225,28.1887c5.61515,2.91621,11.03234,6.38173,16.02762,10.26547-5.45538-3.19587-10.8413-6.64937-16.02762-10.26547h0Z" style="fill: #d84d8d;"></path><path d="M178.56666,22.68176c5.81528,2.22077,11.30953,5.33759,16.19251,9.19904-5.36213-3.17355-10.71935-6.22094-16.19251-9.19904h0Z" style="fill: #d84d8d;"></path><path d="M180.22677,18.56268c4.46567,2.16825,8.72584,4.69315,12.76692,7.57664-4.46739-2.1654-8.72405-4.69593-12.76692-7.57664h0Z" style="fill: #d84d8d;"></path><path d="M180.21672,14.98937c4.20531,2.02831,8.2043,4.41198,11.98298,7.15468-4.20689-2.02555-8.20242-4.41522-11.98298-7.15468h0Z" style="fill: #d84d8d;"></path><path d="M183.4061,11.80268c3.15826,1.64852,6.09111,3.64004,8.78162,5.97597-3.1603-1.64547-6.08927-3.64263-8.78162-5.97597h0Z" style="fill: #d84d8d;"></path><path d="M174.21839,17.80907c4.15107,1.35116,8.14357,3.08143,11.96336,5.19539-4.15238-1.34792-8.14217-3.0846-11.96336-5.19539h0Z" style="fill: #d84d8d;"></path><path d="M171.81391,23.02205c4.94344,1.58256,9.6769,3.81713,14.03523,6.63691-4.75773-2.08499-9.40344-4.28571-14.03523-6.63691h0Z" style="fill: #d84d8d;"></path><path d="M174.6297,26.56159c4.20706,2.02462,8.20824,4.40462,11.98944,7.14368-4.20878-2.02152-8.20645-4.40753-11.98944-7.14368h0Z" style="fill: #d84d8d;"></path><path d="M177.01364,33.35876c4.09462,2.46127,7.95208,5.25741,11.55816,8.3915-4.09674-2.45811-7.95017-5.26028-11.55816-8.3915h0Z" style="fill: #d84d8d;"></path><path d="M176.60499,39.76067c5.23967,2.30347,10.29099,4.972,15.14175,8.01064-5.24125-2.30037-10.28938-4.97493-15.14175-8.01064h0Z" style="fill: #d84d8d;"></path><path d="M174.97753,43.4002c6.86503,3.69552,13.61313,7.79609,20.04996,12.19543-6.86694-3.69222-13.61145-7.7987-20.04996-12.19543h0Z" style="fill: #d84d8d;"></path><path d="M169.83458,46.92011c7.89383,4.13134,15.68521,8.67487,23.16351,13.51811-7.89552-4.1284-15.68339-8.67784-23.16351-13.51811h0Z" style="fill: #d84d8d;"></path><path d="M166.25538,48.8951c8.51544,4.38706,17.90273,9.41218,26.27139,14.0733-9.02168-4.08484-17.87075-8.82894-26.27139-14.0733h0Z" style="fill: #d84d8d;"></path><path d="M162.31023,52.01845c8.91963,5.14219,17.73652,10.69376,26.22338,16.5226-8.9213-5.13932-17.73496-10.69606-26.22338-16.5226h0Z" style="fill: #d84d8d;"></path><path d="M161.0103,56.56813c8.57464,5.06828,17.03906,10.5433,25.17249,16.29304-8.57631-5.06549-17.03735-10.5458-25.17249-16.29304h0Z" style="fill: #d84d8d;"></path><path d="M166.24454,63.27525c8.06727,6.04173,15.98145,12.47664,23.53627,19.14808-8.06911-6.03926-15.97961-12.47885-23.53627-19.14808h0Z" style="fill: #d84d8d;"></path><path d="M185.39961,76.82927c8.72155,6.16588,17.30635,12.732,25.5343,19.54255-8.72327-6.16346-17.30441-12.73433-25.5343-19.54255h0Z" style="fill: #d84d8d;"></path><path d="M196.96121,68.85993c8.06378,5.9068,15.97831,12.20768,23.53627,18.74915-8.06594-5.90404-15.97644-12.20972-23.53627-18.74915h0Z" style="fill: #d84d8d;"></path><path d="M193.03695,57.29033c7.88852,4.00328,15.53664,8.70903,22.66043,13.95395-7.33244-4.40454-15.42518-9.39144-22.66043-13.95395h0Z" style="fill: #d84d8d;"></path><path d="M197.9829,46.95833c3.28812,1.36416,6.38172,3.09005,9.26401,5.17995-3.28986-1.3609-6.38012-3.0927-9.26401-5.17995h0Z" style="fill: #d84d8d;"></path><path d="M199.88259,95.59785c7.26774,2.61614,14.39551,5.60713,21.39097,8.87918-.00002,.00004-.06788,.14322-.06788,.14322l-.66615-.39395-.36792-.21726c.25652,.08718,.85097,.28733,1.11142,.3759-.00003-.00001-.73437-.15497-.73437-.15497l.03257-.08193,.6989,.33218-.06788,.14318c-7.23807-2.69335-14.36833-5.67818-21.32967-9.02554h0Z" style="fill: #d84d8d;"></path><path d="M201.40791,98.40786c6.79078,2.95704,13.57398,6.34039,20.92237,7.65622,.49087,.07492,.98183,.15685,1.47377,.24454-.49771-.02251-.99641-.05-1.4951-.0856-7.51077-.70629-14.43704-4.12912-20.90104-7.81516h0Z" style="fill: #d84d8d;"></path><path d="M211.421,94.54269c6.95597,2.04865,13.87562,4.51625,20.55437,7.34079-6.95709-2.04528-13.87445-4.51932-20.55437-7.34079h0Z" style="fill: #d84d8d;"></path><path d="M213.30545,90.98561c7.58546,2.45353,15.51925,5.22658,22.67021,8.47487-.00008,.00019-.44579-.27989-.44579-.27989l.47559,.22564c-7.57975-2.23717-15.32877-5.30381-22.70001-8.42061h0Z" style="fill: #d84d8d;"></path><path d="M213.54896,86.91547c7.99619,2.76568,16.74929,5.48115,24.90404,7.73473-8.5777-1.51427-16.9766-4.12615-24.90404-7.73473h0Z" style="fill: #d84d8d;"></path><path d="M218.96936,81.96268c7.71209,3.73153,15.2447,7.82432,22.61689,12.1868l-.07008,.13249c-.45671-.25679-.90933-.52143-1.36096-.7879,.4786,.21438,.95622,.4306,1.42971,.65493l-.07005,.13219c-7.67601-3.80261-15.21307-7.8872-22.54551-12.31851h0Z" style="fill: #d84d8d;"></path><path d="M210.15567,60.78589c3.72164,1.93875,7.25052,4.24185,10.51698,6.87669-3.74164-1.94768-7.23045-4.23285-10.51698-6.87669h0Z" style="fill: #d84d8d;"></path><path d="M220.03512,73.86796c5.57354,4.76785,11.3721,9.36397,17.28126,13.70867-6.39419-3.67243-12.24789-8.32029-17.28126-13.70867h0Z" style="fill: #d84d8d;"></path><path d="M226.28897,69.29001c5.35857,5.64958,10.53561,11.46442,15.64309,17.34013,1.71309,1.94857,3.39013,3.92906,5.06877,5.90824l-.28332,.18533c-.22596-.50636-.67119-1.5146-.89595-2.01898,1.1547,1.5087,2.60157,2.82103,4.37411,3.59133-1.47709-.51877-2.8214-1.42211-3.91301-2.56993l.24831-.16334c.25134,.51555,.76314,1.56134,1.01518,2.07813-7.28042-7.94388-14.42185-16.01921-21.25718-24.35091h0Z" style="fill: #d84d8d;"></path><path d="M225.82041,64.95576c8.89138,9.64909,18.28468,18.98425,27.98311,27.82154-10.26756-8.25134-19.6701-17.60419-27.98311-27.82154h0Z" style="fill: #d84d8d;"></path><path d="M234.92468,62.09444c7.68958,8.51984,16.14561,16.43039,25.29034,23.37005-.00003,.00003,1.96295,1.49208,1.96295,1.49208l1.98249,1.46875c-11.1095-7.05032-21.0633-16.01914-29.23578-26.33087h0Z" style="fill: #d84d8d;"></path><path d="M230.02166,64.08566c8.49145,8.79987,17.67683,17.0214,27.49107,24.32077-.00003,.00003,2.10594,1.57034,2.10594,1.57034l2.12371,1.54858c-11.85281-7.47754-22.61267-16.78893-31.72071-27.4397h0Z" style="fill: #d84d8d;"></path><path d="M234.70196,60.46026c10.01463,8.19036,19.88234,16.7856,29.36346,25.58794-10.0166-8.18785-19.88043-16.78778-29.36346-25.58794h0Z" style="fill: #d84d8d;"></path><path d="M237.24239,58.54364c10.9573,8.3914,23.21441,17.84895,34.105,26.32665-11.78157-8.13044-23.25422-16.99047-34.105-26.32665h0Z" style="fill: #d84d8d;"></path><path d="M241.41084,57.52748c8.81025,6.35772,18.3714,13.73427,27.00048,20.43914,2.94935,2.33701,5.91007,4.65936,8.83117,7.03301l-.07581,.10156-1.77537-1.36011,1.84964,1.25724-.07581,.10183c-3.04439-2.21346-6.04918-4.47822-9.06533-6.72832-8.70805-6.62653-18.26712-13.95117-26.68896-20.84435h0Z" style="fill: #d84d8d;"></path><path d="M242.25237,57.73401c14.14753,8.71834,28.15197,17.9978,42.04809,27.10769-14.30346-8.40237-28.37087-17.72982-42.04809-27.10769h0Z" style="fill: #d84d8d;"></path><path d="M243.7044,53.35343c9.75217,6.16283,19.34793,12.56496,28.89827,19.03347,3.1876,2.14986,6.34513,4.3442,9.50728,6.53201l-.1689,.19004c-.25422-.31361-.96004-1.16664-1.19823-1.45983-.00002-.00001,.46494,.26358,.46494,.26358l3.62167,2.053-3.71597-1.87683,.12296-.15313,.89958,1.00621,.6367,.71225-.8056-.52195c-12.91064-8.35788-25.70051-16.90406-38.26269-25.77882h0Z" style="fill: #d84d8d;"></path><path d="M243.73522,49.7419c14.68093,9.30923,30.0267,19.55631,44.27494,29.54315-14.69475-9.32616-30.03939-19.55784-44.27494-29.54315h0Z" style="fill: #d84d8d;"></path><path d="M242.38869,47.40228c12.5731,5.68433,24.62297,12.51719,36.05821,20.2339,3.84291,2.50775,7.37655,5.52635,11.57552,7.43777-4.30309-1.67678-7.9391-4.63565-11.83271-7.04977-11.54214-7.5308-23.53597-14.34249-35.80102-20.6219h0Z" style="fill: #d84d8d;"></path><path d="M245.39927,44.72864c8.32549,4.64652,16.54628,9.47497,24.71938,14.38274,2.63998,1.59937,5.6709,3.37961,8.10316,4.91667,1.79298,.39945,2.93793-2.1214,1.0659-2.97278-1.95707-.93715-3.17117,1.79394-1.5885,2.96944-1.79-1.2224-.45086-4.13194,1.69334-3.20709,2.31889,.96366,.89823,4.15608-1.33491,3.59318-10.99615-6.37573-21.91415-12.88851-32.65837-19.68217h0Z" style="fill: #d84d8d;"></path><path d="M248.04369,42.88061c7.70382,6.52511,18.03421,9.10541,25.5076,15.95172,.47887,.47278,.9505,.95181,1.41741,1.43188-.51322-.434-1.02045-.87088-1.52273-1.3109-7.81571-6.33271-18.18094-8.92322-25.40227-16.07269h0Z" style="fill: #d84d8d;"></path><path d="M261.56947,82.96601c4.86976,2.01422,9.4982,4.59054,13.76994,7.67715-4.70818-2.37384-9.2737-4.92314-13.76994-7.67715h0Z" style="fill: #d84d8d;"></path><path d="M269.9251,81.76845c4.72858,2.61758,9.23503,5.58052,13.50622,8.89278-4.73049-2.61474-9.23312-5.5833-13.50622-8.89278h0Z" style="fill: #d84d8d;"></path><path d="M274.74721,82.61185c4.55039,2.30134,8.89044,4.95514,13.00665,7.96535-4.55233-2.29817-8.88872-4.95761-13.00665-7.96535h0Z" style="fill: #d84d8d;"></path><path d="M278.13173,78.79222c5.58223,3.32664,11.79319,7.00423,17.38988,10.30655-6.17109-2.67909-12.07507-6.18225-17.38988-10.30655h0Z" style="fill: #d84d8d;"></path><path d="M284.1992,79.0244c5.83915,2.5358,11.50244,5.67421,16.74208,9.29014-5.65916-2.90258-11.28311-6.02667-16.74208-9.29014h0Z" style="fill: #d84d8d;"></path><path d="M285.45713,73.99125c6.00551,3.15332,11.86436,6.57002,17.66241,10.08645,1.92126,1.19103,3.84763,2.37315,5.74448,3.60578l-.04947,.09371c-.3253-.16936-.57997-.45232-.72138-.77639,.17352,.3094,.45196,.54813,.76657,.68032l-.04947,.09371c-1.99979-1.05726-3.97011-2.16451-5.94553-3.26338-5.89402-3.35347-11.7299-6.80898-17.40761-10.5202h0Z" style="fill: #d84d8d;"></path><path d="M291.52932,75.26629c7.44699,4.0402,14.78175,8.48844,21.80102,13.23305-7.44865-4.03729-14.78-8.49107-21.80102-13.23305h0Z" style="fill: #d84d8d;"></path><path d="M132.86291,36.56325c-2.36612,2.53933-5.99562,3.50219-8.26651,6.11499-1.68193,1.81224-1.18156,4.20557-1.29558,6.47997-.09729,1.19439-.53062,2.35818-1.18526,3.34659-1.31295,1.99934-3.22207,3.42489-5.02898,4.83422-5.50129,4.20515-11.22003,8.12484-17.16291,11.67822-1.98784,1.17088-3.98461,2.32577-6.01891,3.41208,1.96591-1.20515,3.9305-2.40952,5.86291-3.66414,5.81732-3.72242,11.48978-7.67807,16.95046-11.90517,1.82123-1.39311,3.6887-2.78097,4.9369-4.65519,1.45148-1.94409,1.07538-4.25604,1.22499-6.54747,.62245-5.16769,6.8088-5.96579,9.9829-9.0941h0Z" style="fill: #d84d8d;"></path><path d="M78.03518,79.58091c3.32007-2.6658,6.86964-4.9906,10.64489-6.9603-3.31808,2.66869-6.87142,4.98786-10.64489,6.9603h0Z" style="fill: #d84d8d;"></path><path d="M47.74449,80.4052c3.54638-3.68642,7.60237-7.7437,11.25615-11.32356,3.33688-3.67238,5.51899-2.96182,9.91713-2.91508,3.52963-.1519,6.74293-1.92272,9.93557-3.31167,1.62632-.70993,3.24378-1.43867,4.87792-2.13182-3.17266,1.60093-6.30433,3.24009-9.56919,4.68868-1.64089,.69943-3.40082,1.21929-5.22136,1.30488-4.28098,.01944-6.37516-.70697-9.55699,2.75938-3.68294,3.55086-7.85291,7.48822-11.63923,10.92918h0Z" style="fill: #d84d8d;"></path><path d="M95.63135,51.72318c2.1194-1.59845,4.44007-2.83853,6.95041-3.70294-2.11773,1.60134-4.44148,2.83566-6.95041,3.70294h0Z" style="fill: #d84d8d;"></path><path d="M166.28055,12.81282c-5.02453,3.35107-9.02033,8.16958-11.34122,13.69721-.94112,2.0692-1.28784,4.35662-2.31616,6.4056-1.12918,2.02083-2.95526,3.50408-4.50925,5.15592-9.59244,9.61271-19.68724,18.79438-30.26196,27.30958,2.26971-1.99254,4.54558-3.97617,6.78877-5.99644,7.87474-6.99735,15.5859-14.29516,23.06523-21.72126,2.07071-2.12177,4.51785-4.06048,5.27628-7.05188,2.00566-7.3112,6.79992-13.8667,13.2983-17.79872h0Z" style="fill: #d84d8d;"></path><path d="M101.56632,81.46847c-.45862,.28558-.91651,.57247-1.36412,.8769l-.04178-.06911c1.80347-1.25119,3.79068-2.27852,5.47079-3.67119l.3016,.42325c-1.48433,.67712-2.97136,1.57724-4.36648,2.44014h0Zm0,0c1.43949-.8831,2.66705-2.03249,4.12222-2.90425l1.70772-1.02479-1.40607,1.44807c-1.58992,1.6678-3.81559,2.32117-5.78784,3.3576l-.04177-.06909c.47567-.25705,.94108-.53164,1.40574-.80753h0Z" style="fill: #d84d8d;"></path><path d="M143.13278,57.4712c2.57604-2.78706,5.4262-5.26831,8.54761-7.42754-2.57369,2.78991-5.42832,5.26555-8.54761,7.42754h0Z" style="fill: #d84d8d;"></path><path d="M137.40402,69.34917c-6.29494,4.63525-13.30746,9.76061-19.64101,14.34302,6.03231-5.38703,12.67524-10.2341,19.64101-14.34302h0Z" style="fill: #d84d8d;"></path><path d="M148.86544,69.34524c-2.83865,3.56085-5.97755,6.84105-9.41672,9.82632,2.8362-3.56321,5.98006-6.83855,9.41672-9.82632h0Z" style="fill: #d84d8d;"></path><path d="M158.69168,74.66764c-3.09234,3.99856-6.24831,7.94624-9.42134,11.88032-5.4397,1.50666-10.84902,3.12026-16.23775,4.79964-4.6809,1.46083-11.31332,3.656-16.02123,5.23846,5.21568-2.10201,10.5093-4.01277,15.8575-5.75046,5.34503-1.75206,10.74624-3.32962,16.18387-4.76769,2.57245-3.30075,6.53676-7.77037,9.63894-11.40027h0Z" style="fill: #d84d8d;"></path></g></svg>