<?xml version="1.0" encoding="UTF-8"?>
<svg id="_圖層_1" data-name="圖層 1" xmlns="http://www.w3.org/2000/svg" viewBox="0 0 1999.99829 414.07734">
  <g style="opacity: .5;">
    <path d="M79.43767,42.57415c-.43944,0-.79441-.35497-.79441-.79425V.79425c0-.43928,.35497-.79425,.79441-.79425h40.98549c.43928,0,.79441,.35497,.79441,.79425s-.35513,.79441-.79441,.79441h-40.19123V41.7799c0,.43928-.35497,.79425-.79425,.79425" style="fill: #d9518f;"/>
    <path d="M285.56336,42.57415c-.43944,0-.79441-.35497-.79441-.79425V1.58867h-40.19123c-.43928,0-.79441-.35513-.79441-.79441s.35513-.79425,.79441-.79425h40.98564c.43928,0,.79425,.35497,.79425,.79425V41.7799c0,.43928-.35497,.79425-.79425,.79425" style="fill: #d9518f;"/>
    <path d="M120.42347,207.71475h-40.98564c-.43928,0-.79441-.35505-.79441-.79433v-40.98556c0-.43928,.35513-.79433,.79441-.79433s.79441,.35505,.79441,.79433v40.19123h40.19123c.43928,0,.79425,.35505,.79425,.79433s-.35497,.79433-.79425,.79433" style="fill: #d9518f;"/>
    <path d="M285.56336,207.71475h-40.98564c-.43928,0-.79441-.35505-.79441-.79433s.35513-.79433,.79441-.79433h40.19123v-40.19123c0-.43928,.35497-.79433,.79441-.79433,.43928,0,.79425,.35505,.79425,.79433v40.98556c0,.43928-.35497,.79433-.79425,.79433" style="fill: #d9518f;"/>
    <path d="M271.25413,182.61728H101.89509c-.43928,0-.79568-.35505-.79568-.79433V25.39668c0-.43928,.35639-.79441,.79568-.79441,.43802,0,.79425,.35513,.79425,.79441V181.02861h168.56478c.43928,0,.79425,.35505,.79425,.79433s-.35497,.79433-.79425,.79433" style="fill: #d9518f;"/>
    <path d="M101.89461,33.84131h-10.42148c-.43928,0-.79425-.35497-.79425-.79425s.35497-.79441,.79425-.79441h10.42148c.43928,0,.79425,.35513,.79425,.79441s-.35497,.79425-.79425,.79425" style="fill: #d9518f;"/>
    <path d="M101.89461,56.48127h-10.42148c-.43928,0-.79425-.35497-.79425-.79425s.35497-.79441,.79425-.79441h10.42148c.43928,0,.79425,.35513,.79425,.79441s-.35497,.79425-.79425,.79425" style="fill: #d9518f;"/>
    <path d="M101.89461,79.1214h-10.42148c-.43928,0-.79425-.35497-.79425-.79425s.35497-.79441,.79425-.79441h10.42148c.43928,0,.79425,.35513,.79425,.79441s-.35497,.79425-.79425,.79425" style="fill: #d9518f;"/>
    <path d="M101.89461,101.76137h-10.42148c-.43928,0-.79425-.35505-.79425-.79433s.35497-.79433,.79425-.79433h10.42148c.43928,0,.79425,.35505,.79425,.79433s-.35497,.79433-.79425,.79433" style="fill: #d9518f;"/>
    <path d="M101.89461,124.40149h-10.42148c-.43928,0-.79425-.35505-.79425-.79433s.35497-.79433,.79425-.79433h10.42148c.43928,0,.79425,.35505,.79425,.79433s-.35497,.79433-.79425,.79433" style="fill: #d9518f;"/>
    <path d="M101.89461,147.04153h-10.42148c-.43928,0-.79425-.35505-.79425-.79433s.35497-.79433,.79425-.79433h10.42148c.43928,0,.79425,.35505,.79425,.79433s-.35497,.79433-.79425,.79433" style="fill: #d9518f;"/>
    <path d="M101.89461,169.68158h-10.42148c-.43928,0-.79425-.35505-.79425-.79433s.35497-.79433,.79425-.79433h10.42148c.43928,0,.79425,.35505,.79425,.79433s-.35497,.79433-.79425,.79433" style="fill: #d9518f;"/>
    <path d="M112.63263,193.47852c-.43944,0-.79441-.35505-.79441-.79433v-10.42133c0-.43928,.35497-.79433,.79441-.79433,.43928,0,.79425,.35505,.79425,.79433v10.42133c0,.43928-.35497,.79433-.79425,.79433" style="fill: #d9518f;"/>
    <path d="M169.85501,193.47852c-.43944,0-.79441-.35505-.79441-.79433v-10.42133c0-.43928,.35497-.79433,.79441-.79433,.43928,0,.79425,.35505,.79425,.79433v10.42133c0,.43928-.35497,.79433-.79425,.79433" style="fill: #d9518f;"/>
    <path d="M227.07754,193.47852c-.43944,0-.79441-.35505-.79441-.79433v-10.42133c0-.43928,.35497-.79433,.79441-.79433,.43928,0,.79425,.35505,.79425,.79433v10.42133c0,.43928-.35497,.79433-.79425,.79433" style="fill: #d9518f;"/>
    <g>
      <path d="M114.09601,153.8763c-4.51622,0-8.18995-3.67372-8.18995-8.18987,0-4.51472,3.67372-8.18979,8.18995-8.18979s8.18979,3.67507,8.18979,8.18979c0,4.51615-3.67372,8.18987-8.18979,8.18987m0-13.20098c-2.76289,0-5.01119,2.24838-5.01119,5.01111,0,2.76407,2.2483,5.01111,5.01119,5.01111,2.76273,0,5.01103-2.24704,5.01103-5.01111,0-2.76273-2.2483-5.01111-5.01103-5.01111" style="fill: #d9518f;"/>
      <path d="M223.84326,97.06647c-4.51622,0-8.18995-3.67507-8.18995-8.18987,0-4.51607,3.67372-8.19105,8.18995-8.19105s8.18979,3.67499,8.18979,8.19105c0,4.5148-3.67372,8.18987-8.18979,8.18987m0-13.20232c-2.76289,0-5.01119,2.24838-5.01119,5.01246,0,2.76273,2.2483,5.01111,5.01119,5.01111,2.76273,0,5.01103-2.24838,5.01103-5.01111,0-2.76407-2.2483-5.01246-5.01103-5.01246" style="fill: #d9518f;"/>
      <path d="M118.60607,142.46465c-.39009,0-.78018-.14253-1.08595-.43019-.64145-.6-.67387-1.60559-.07387-2.24569l18.48551-19.72048c.50667-.54037,1.32307-.65703,1.95803-.28766l21.93888,12.74864,21.4648-34.63715c.45605-.7347,1.41498-.97055,2.16146-.52866l21.69275,12.88603,13.38495-17.15074c.54037-.69325,1.53567-.81767,2.23011-.27604,.69207,.54037,.81513,1.53947,.27477,2.23146l-14.24533,18.25353c-.49117,.62982-1.37496,.8009-2.06433,.38882l-21.55544-12.80448-21.45562,34.62417c-.45352,.73217-1.40739,.96802-2.14849,.53783l-22.18138-12.88998-17.62118,18.79912c-.31226,.33306-.73604,.50145-1.15967,.50145" style="fill: #d9518f;"/>
    </g>
    <path d="M122.34639,111.02429c-4.51622,0-8.18995-3.67372-8.18995-8.18987,0-4.51472,3.67372-8.18979,8.18995-8.18979s8.18979,3.67507,8.18979,8.18979c0,4.51615-3.67372,8.18987-8.18979,8.18987m0-13.20098c-2.76289,0-5.01119,2.24838-5.01119,5.01111,0,2.76407,2.2483,5.01111,5.01119,5.01111,2.76273,0,5.01103-2.24704,5.01103-5.01111,0-2.76273-2.2483-5.01111-5.01103-5.01111" style="fill: #d9518f;"/>
    <path d="M215.59305,59.53396c-4.51622,0-8.18995-3.67372-8.18995-8.18979,0-4.5148,3.67372-8.18979,8.18995-8.18979s8.18979,3.67499,8.18979,8.18979c0,4.51607-3.67372,8.18979-8.18979,8.18979m0-13.20098c-2.76289,0-5.01119,2.24846-5.01119,5.01119,0,2.76399,2.2483,5.01103,5.01119,5.01103,2.76273,0,5.01103-2.24704,5.01103-5.01103,0-2.76273-2.2483-5.01119-5.01103-5.01119" style="fill: #d9518f;"/>
    <path d="M128.94529,102.96651c-.72971,0-1.3854-.50533-1.54991-1.24659-.19046-.85658,.35117-1.70533,1.20775-1.89452l25.29386-5.58264-3.45606-24.35692c-.07894-.55476,.14126-1.11189,.57928-1.4618,.43928-.3537,1.029-.44577,1.55371-.24883l31.34956,11.77936-.84614-28.56342c-.01171-.42884,.14901-.84487,.4483-1.1546,.30071-.30704,.71152-.48199,1.14179-.48199h24.32465c.87857,0,1.58993,.71263,1.58993,1.58993s-.71136,1.58883-1.58993,1.58883h-22.68805l.86829,29.29424c.0155,.53008-.23459,1.03153-.66612,1.33992-.429,.30973-.98234,.38226-1.48252,.19568l-31.05928-11.66918,3.28775,23.15961c.11532,.82154-.42125,1.5965-1.23117,1.77533l-26.73098,5.90004c-.11674,.02594-.23206,.03757-.34469,.03757" style="fill: #d9518f;"/>
    <path d="M126.89789,64.54024v-2.54253h-4.33605v-.8319l4.16363-5.95968h1.36325v5.80149h1.30757v.99009h-1.30757v2.54253h-1.19083Zm0-3.53262v-3.11517c0-.48848,.01424-.97712,.04271-1.4656h-.04271c-.28648,.54559-.51711,.94849-.77496,1.37875l-2.28342,3.17227v.02974h3.05838Z" style="fill: #d9518f;"/>
    <path d="M135.93429,56.26899h-3.56109l-.35893,2.39747c.21513-.02863,.41587-.05711,.76056-.05711,.71801,0,1.43586,.15819,2.00992,.50287,.73351,.41587,1.33478,1.22073,1.33478,2.39858,0,1.82199-1.44883,3.18651-3.47425,3.18651-1.01983,0-1.8802-.28758-2.32597-.57406l.31606-.96146c.38882,.2281,1.14828,.51569,1.99568,.51569,1.19225,0,2.21081-.77496,2.21081-2.02415-.01424-1.20506-.81782-2.06686-2.68379-2.06686-.53261,0-.94864,.05695-1.29333,.09982l.60269-4.47984h4.46687v1.06254Z" style="fill: #d9518f;"/>
    <path d="M137.31621,66.30624c.31606-.8474,.70235-2.38434,.86038-3.43265l1.40739-.14253c-.33045,1.2193-.96162,2.81461-1.36467,3.48849l-.90309,.08669Z" style="fill: #d9518f;"/>
    <path d="M146.27779,56.26899h-3.56109l-.35893,2.39747c.21513-.02863,.41587-.05711,.76056-.05711,.71801,0,1.43586,.15819,2.00992,.50287,.73351,.41587,1.33478,1.22073,1.33478,2.39858,0,1.82199-1.44883,3.18651-3.47425,3.18651-1.01983,0-1.8802-.28758-2.32471-.57406l.31479-.96146c.38882,.2281,1.14954,.51569,1.99568,.51569,1.19225,0,2.21081-.77496,2.21081-2.02415-.01424-1.20506-.81782-2.06686-2.68379-2.06686-.53261,0-.94864,.05695-1.29191,.09982l.60253-4.47984h4.4656v1.06254Z" style="fill: #d9518f;"/>
    <path d="M152.28239,57.83424c0,1.96721-1.0328,2.94306-2.24055,2.94306-1.16235,0-2.16668-.93314-2.18218-2.81477,0-1.8647,1.01983-2.91427,2.25479-2.91427,1.30615,0,2.16795,1.00559,2.16795,2.78598m-3.41714,.08558c-.02863,1.19225,.41587,2.09676,1.20633,2.09676,.83206,0,1.20522-.89027,1.20522-2.12524,0-1.13388-.32919-2.0811-1.20522-2.0811-.79046,0-1.20633,.93298-1.20633,2.10957m1.09228,6.77734l5.48417-9.6489h.80469l-5.4867,9.6489h-.80216Zm8.39859-3.00111c0,1.96831-1.0328,2.94417-2.22632,2.94417-1.16109,0-2.16668-.93298-2.18092-2.80038,0-1.88036,1.01983-2.92866,2.25352-2.92866,1.30615,0,2.15371,1.00433,2.15371,2.78487m-3.41714,.08669c-.01439,1.19099,.44577,2.09676,1.22057,2.09676,.83206,0,1.20649-.89027,1.20649-2.1265,0-1.13388-.33045-2.0811-1.20649-2.0811-.78919,0-1.22057,.93425-1.22057,2.11084" style="fill: #d9518f;"/>
    <path d="M205.71209,128.16997v-.77622l.98993-.96146c2.38434-2.26776,3.46128-3.47425,3.47552-4.88156,0-.9473-.46001-1.8246-1.853-1.8246-.84756,0-1.55118,.43027-1.98144,.79054l-.40179-.89027c.64667-.54559,1.56541-.9473,2.64235-.9473,2.00992,0,2.85732,1.37749,2.85732,2.71227,0,1.72352-1.25046,3.11651-3.21625,5.01111l-.74775,.68938v.02847h4.19337v1.04965h-5.95825Z" style="fill: #d9518f;"/>
    <path d="M218.65348,119.89942h-3.56109l-.35893,2.3974c.21513-.02855,.41587-.05703,.76056-.05703,.71801,0,1.43586,.15676,2.00992,.5028,.73351,.41595,1.33478,1.22073,1.33478,2.39732,0,1.82334-1.44883,3.18659-3.47425,3.18659-1.01983,0-1.8802-.28774-2.32597-.57279l.31606-.9628c.38882,.22937,1.14828,.51569,1.99568,.51569,1.19225,0,2.21081-.77361,2.21081-2.02408-.01424-1.20388-.81782-2.06694-2.68379-2.06694-.53261,0-.94864,.05829-1.29333,.09982l.60269-4.47984h4.46687v1.06388Z" style="fill: #d9518f;"/>
    <path d="M220.0354,129.93533c.31606-.84614,.70235-2.38308,.86038-3.43273l1.40739-.14253c-.33045,1.22073-.96162,2.81588-1.36467,3.48849l-.90309,.08677Z" style="fill: #d9518f;"/>
    <polygon points="226.16766 120.01395 226.13902 120.01395 224.51666 120.88872 224.27179 119.92718 226.31145 118.83601 227.38822 118.83601 227.38822 128.17012 226.16766 128.17012 226.16766 120.01395" style="fill: #d9518f;"/>
    <path d="M235.00158,121.46325c0,1.96713-1.0328,2.94425-2.24055,2.94425-1.16235,0-2.16668-.93306-2.18218-2.81469,0-1.86597,1.01983-2.91435,2.25479-2.91435,1.30615,0,2.16795,1.00559,2.16795,2.78479m-3.41714,.08684c-.02863,1.19217,.41587,2.09542,1.20633,2.09542,.83206,0,1.20522-.88901,1.20522-2.12397,0-1.13388-.32919-2.08245-1.20522-2.08245-.79046,0-1.20633,.93306-1.20633,2.111m1.09228,6.77608l5.48417-9.64771h.80469l-5.4867,9.64771h-.80216Zm8.39859-2.99993c0,1.96713-1.0328,2.94417-2.22632,2.94417-1.16109,0-2.16668-.93298-2.18092-2.80164,0-1.87902,1.01983-2.92732,2.25352-2.92732,1.30615,0,2.15371,1.00298,2.15371,2.78479m-3.41714,.08677c-.01439,1.18964,.44577,2.09542,1.22057,2.09542,.83206,0,1.20649-.88893,1.20649-2.12516,0-1.13523-.33045-2.08118-1.20649-2.08118-.78919,0-1.22057,.93298-1.22057,2.11092" style="fill: #d9518f;"/>
    <polygon points="158.34473 144.13138 158.31609 144.13138 156.69373 145.00868 156.44886 144.04722 158.48852 142.95479 159.56529 142.95479 159.56529 152.28755 158.34473 152.28755 158.34473 144.13138" style="fill: #d9518f;"/>
    <path d="M163.70472,151.39918c.2735,.02721,.58972,0,1.01983-.04405,.73225-.10108,1.42162-.40298,1.95297-.90578,.61677-.55856,1.06254-1.37749,1.23496-2.4829h-.04287c-.51822,.63108-1.26344,1.00559-2.19642,1.00559-1.68073,0-2.75766-1.26478-2.75766-2.8574,0-1.76758,1.27783-3.31867,3.18793-3.31867,1.90884,0,3.08669,1.5511,3.08669,3.93552,0,2.05263-.68938,3.48849-1.60812,4.38003-.71801,.70361-1.7092,1.13388-2.71353,1.24793-.46001,.07253-.8618,.08677-1.16378,.07253v-1.0328Zm.46016-5.37138c0,1.16243,.70361,1.9801,1.79463,1.9801,.84756,0,1.50847-.41595,1.83765-.97451,.07245-.11532,.11532-.25911,.11532-.46127,0-1.59136-.5883-2.81208-1.9101-2.81208-1.07693,0-1.83749,.94603-1.83749,2.26776" style="fill: #d9518f;"/>
    <path d="M169.92635,154.05513c.31606-.84875,.70235-2.38561,.86038-3.43273l1.40739-.14253c-.33045,1.21812-.96162,2.81335-1.36325,3.48849l-.90451,.08677Z" style="fill: #d9518f;"/>
    <path d="M173.61858,150.83761c.35893,.22937,1.19083,.58964,2.06686,.58964,1.62236,0,2.12524-1.03407,2.111-1.81029-.01439-1.30757-1.19225-1.86605-2.41298-1.86605h-.70361v-.9473h.70361c.92001,0,2.08253-.47424,2.08253-1.57965,0-.7464-.47314-1.40857-1.63676-1.40857-.74648,0-1.46433,.33298-1.86739,.61811l-.32903-.91875c.48721-.359,1.4357-.71927,2.44129-.71927,1.83765,0,2.66956,1.09244,2.66956,2.22632,0,.96415-.57406,1.78181-1.72344,2.19911v.02721c1.14938,.22937,2.08237,1.09244,2.08237,2.39732,0,1.49415-1.16235,2.80038-3.40291,2.80038-1.04704,0-1.96578-.32911-2.42595-.63108l.34485-.97712Z" style="fill: #d9518f;"/>
    <path d="M184.89253,145.58337c0,1.96713-1.0328,2.94164-2.23929,2.94164-1.16362,0-2.16795-.93306-2.18345-2.81335,0-1.86605,1.01983-2.91569,2.25479-2.91569,1.30615,0,2.16795,1.00559,2.16795,2.7874m-3.41714,.08423c-.02863,1.19217,.41587,2.09795,1.20633,2.09795,.83206,0,1.20522-.89154,1.20522-2.1265,0-1.13388-.32919-2.0811-1.20522-2.0811-.79046,0-1.20633,.93298-1.20633,2.10965m1.09228,6.77861l5.48417-9.65025h.80469l-5.48543,9.65025h-.80343Zm8.39859-3.00246c0,1.96966-1.0328,2.94417-2.22632,2.94417-1.16109,0-2.16668-.93298-2.18092-2.79903,0-1.88163,1.01983-2.92993,2.25352-2.92993,1.30615,0,2.15371,1.00559,2.15371,2.78479m-3.41714,.08677c-.01439,1.19225,.44577,2.09803,1.22057,2.09803,.83206,0,1.20649-.89154,1.20649-2.1265,0-1.13388-.33045-2.08118-1.20649-2.08118-.78919,0-1.22057,.93306-1.22057,2.10965" style="fill: #d9518f;"/>
    <path d="M221.81136,30.80935h-3.56109l-.35893,2.39747c.21513-.02863,.41587-.05711,.76056-.05711,.71801,0,1.43586,.15819,2.00992,.50287,.73351,.4173,1.33478,1.22073,1.33478,2.39858,0,1.82199-1.44883,3.18651-3.47425,3.18651-1.01983,0-1.8802-.28758-2.32597-.57406l.31606-.96146c.38882,.2281,1.14828,.51569,1.99568,.51569,1.19225,0,2.21081-.77496,2.21081-2.02415-.01424-1.20506-.81782-2.06686-2.68379-2.06686-.53261,0-.94864,.05695-1.29333,.09982l.60269-4.47984h4.46687v1.06254Z" style="fill: #d9518f;"/>
    <path d="M223.61073,39.07997v-.7748l.98993-.96288c2.38434-2.26776,3.46128-3.47425,3.47552-4.88148,0-.94738-.46001-1.82326-1.853-1.82326-.84756,0-1.55118,.43011-1.98144,.78919l-.40179-.89027c.64667-.54559,1.56541-.94738,2.64235-.94738,2.00992,0,2.85732,1.37891,2.85732,2.71353,0,1.7236-1.25046,3.11532-3.21625,5.01119l-.74775,.68938v.02847h4.19337v1.0483h-5.95825Z" style="fill: #d9518f;"/>
    <path d="M230.56366,40.8466c.31606-.8474,.70235-2.38434,.86038-3.43265l1.40739-.14253c-.33045,1.2193-.96162,2.81461-1.36325,3.48849l-.90451,.08669Z" style="fill: #d9518f;"/>
    <polygon points="240.01277 29.74665 240.01277 30.57871 235.95022 39.0795 234.64266 39.0795 238.69223 30.82359 238.69223 30.79511 234.12554 30.79511 234.12554 29.74665 240.01277 29.74665" style="fill: #d9518f;"/>
    <path d="M245.52984,32.3746c0,1.96721-1.0328,2.94306-2.23929,2.94306-1.16362,0-2.16795-.93314-2.18345-2.81477,0-1.8647,1.01983-2.91427,2.25479-2.91427,1.30615,0,2.16795,1.00559,2.16795,2.78598m-3.41714,.08558c-.02863,1.19225,.41587,2.09676,1.20633,2.09676,.83206,0,1.20522-.89027,1.20522-2.12524,0-1.13388-.32919-2.0811-1.20522-2.0811-.79046,0-1.20633,.93298-1.20633,2.10957m1.09228,6.77734l5.48417-9.6489h.80469l-5.48543,9.6489h-.80343Zm8.39859-3.00111c0,1.96831-1.0328,2.94417-2.22632,2.94417-1.16109,0-2.16668-.93298-2.18092-2.80038,0-1.88036,1.01983-2.92866,2.25352-2.92866,1.30615,0,2.15371,1.00433,2.15371,2.78487m-3.41714,.08669c-.01439,1.19099,.44577,2.09676,1.22057,2.09676,.83206,0,1.20649-.89027,1.20649-2.12524,0-1.13515-.33045-2.0811-1.20649-2.0811-.78919,0-1.22057,.93298-1.22057,2.10957" style="fill: #d9518f;"/>
  </g>
  <g style="opacity: .5;">
    <path d="M368.61124,334.71742c-.6781,0-1.22607-.54895-1.22607-1.22595V137.47151c0-.677,.54797-1.22607,1.22607-1.22607,.67798,0,1.22595,.54907,1.22595,1.22607v196.01996c0,.677-.54797,1.22595-1.22595,1.22595" style="fill: #d9518f;"/>
    <path d="M665.92753,334.71742c-.6781,0-1.22607-.54895-1.22607-1.22595V137.47151c0-.677,.54797-1.22607,1.22607-1.22607,.67798,0,1.22595,.54907,1.22595,1.22607v196.01996c0,.677-.54797,1.22595-1.22595,1.22595" style="fill: #d9518f;"/>
    <path d="M417.75956,300.28804c-12.28503,0-22.27905-9.99396-22.27905-22.27795v-13.172c0-12.28503,9.99402-22.27899,22.27905-22.27899s22.27893,9.99396,22.27893,22.27899v13.172c0,12.284-9.99402,22.27795-22.27893,22.27795" style="fill: #d9518f;"/>
    <path d="M417.75944,294.49721c-9.09106,0-16.48706-7.39606-16.48706-16.487v-113.39001c0-9.08997,7.396-16.48694,16.48706-16.48694s16.48694,7.39697,16.48694,16.48694v113.39001c0,9.09094-7.396,16.487-16.48694,16.487m0-144.51605c-8.07202,0-14.63904,6.56702-14.63904,14.63904v113.39001c0,8.07196,6.56702,14.63995,14.63904,14.63995s14.63989-6.56799,14.63989-14.63995v-113.39001c0-8.07202-6.56799-14.63904-14.63989-14.63904" style="fill: #d9518f;"/>
    <path d="M401.79459,323.70521v-.99799l1.27393-1.23596c3.06604-2.91803,4.45105-4.46899,4.46997-6.27899,0-1.22003-.59094-2.34601-2.38293-2.34601-1.08899,0-1.99402,.55396-2.54797,1.01599l-.51709-1.14404c.83105-.70197,2.01306-1.21997,3.39807-1.21997,2.58496,0,3.67493,1.77399,3.67493,3.48999,0,2.216-1.60693,4.00702-4.13696,6.44501l-.95996,.88599v.03802h5.39197v1.34796h-7.66394Z" style="fill: #d9518f;"/>
    <path d="M418.43888,313.06801h-4.58008l-.46204,3.08405c.2771-.03601,.53601-.07404,.979-.07404,.9231,0,1.84705,.20404,2.58508,.646,.94202,.53601,1.71802,1.57001,1.71802,3.08502,0,2.34399-1.86499,4.09998-4.46899,4.09998-1.31201,0-2.41907-.37-2.99109-.73999l.40601-1.23798c.49805,.29602,1.47705,.66602,2.56604,.66602,1.53296,0,2.84399-.99805,2.84399-2.604-.01807-1.55103-1.052-2.659-3.453-2.659-.68396,0-1.21899,.07397-1.66199,.13l.77502-5.76202h5.74402v1.36597Z" style="fill: #d9518f;"/>
    <path d="M426.16239,315.08156c0,2.52997-1.32898,3.78595-2.88,3.78595-1.49597,0-2.78796-1.20197-2.80688-3.62,0-2.401,1.31091-3.74896,2.89893-3.74896,1.68005,0,2.78796,1.29199,2.78796,3.58301m-4.39392,.10999c-.03699,1.53198,.53503,2.69598,1.55103,2.69598,1.06995,0,1.5509-1.14398,1.5509-2.73401,0-1.45801-.42493-2.677-1.5509-2.677-1.01599,0-1.55103,1.20099-1.55103,2.71503m1.40295,8.71796l7.05505-12.41095h1.03394l-7.05493,12.41095h-1.03406Zm10.80408-3.85999c0,2.53003-1.33008,3.78601-2.86304,3.78601-1.49597,0-2.78906-1.20197-2.80701-3.60199,0-2.41998,1.31104-3.76801,2.89905-3.76801,1.68091,0,2.771,1.29401,2.771,3.58398m-4.396,.10999c-.01807,1.53204,.573,2.69604,1.56995,2.69604,1.07104,0,1.55103-1.14404,1.55103-2.73199,0-1.46002-.42407-2.67804-1.55103-2.67804-1.01599,0-1.56995,1.20001-1.56995,2.71399" style="fill: #d9518f;"/>
    <path d="M484.09953,300.28804c-12.28503,0-22.27905-9.99396-22.27905-22.27795v-34.44604c0-12.28497,9.99402-22.27899,22.27905-22.27899s22.27893,9.99402,22.27893,22.27899v34.44604c0,12.284-9.99402,22.27795-22.27893,22.27795" style="fill: #d9518f;"/>
    <path d="M484.09916,294.49721c-9.09106,0-16.48706-7.39606-16.48706-16.487v-113.39001c0-9.08997,7.396-16.48694,16.48706-16.48694,9.09192,0,16.48792,7.39697,16.48792,16.48694v113.39001c0,9.09094-7.396,16.487-16.48792,16.487m0-144.51605c-8.07202,0-14.64001,6.56702-14.64001,14.63904v113.39001c0,8.07196,6.56799,14.63995,14.64001,14.63995,8.073,0,14.63989-6.56799,14.63989-14.63995v-113.39001c0-8.07202-6.56689-14.63904-14.63989-14.63904" style="fill: #d9518f;"/>
    <path d="M475.29972,313.06801h-4.58008l-.46204,3.08405c.2771-.03601,.53601-.07404,.979-.07404,.9231,0,1.84705,.20404,2.58508,.646,.94202,.53601,1.71802,1.57001,1.71802,3.08502,0,2.34399-1.86499,4.09998-4.46899,4.09998-1.31201,0-2.41907-.37-2.99109-.73999l.40601-1.23798c.49805,.29602,1.47607,.66602,2.56604,.66602,1.53296,0,2.84399-.99805,2.84399-2.604-.01807-1.55103-1.052-2.659-3.453-2.659-.68396,0-1.21899,.07397-1.66199,.13l.77502-5.76202h5.74402v1.36597Z" style="fill: #d9518f;"/>
    <path d="M485.59086,317.57362c0,4.08203-1.51404,6.336-4.17297,6.336-2.34595,0-3.93396-2.198-3.97095-6.16998,0-4.026,1.73596-6.24103,4.17395-6.24103,2.53003,0,3.96997,2.25299,3.96997,6.07501m-6.51892,.18597c0,3.12006,.96094,4.89404,2.43799,4.89404,1.66199,0,2.45593-1.94,2.45593-5.00604,0-2.95398-.75696-4.89398-2.43799-4.89398-1.422,0-2.45593,1.73602-2.45593,5.00598" style="fill: #d9518f;"/>
    <path d="M492.50199,315.08156c0,2.52997-1.32898,3.78595-2.88,3.78595-1.49597,0-2.78796-1.20197-2.80688-3.62,0-2.401,1.31091-3.74896,2.89893-3.74896,1.68005,0,2.78796,1.29199,2.78796,3.58301m-4.39392,.10999c-.03699,1.53198,.53503,2.69598,1.55103,2.69598,1.06995,0,1.5509-1.14398,1.5509-2.73401,0-1.45801-.42493-2.677-1.5509-2.677-1.01599,0-1.55103,1.20099-1.55103,2.71503m1.40295,8.71796l7.05505-12.41095h1.03394l-7.05493,12.41095h-1.03406Zm10.80408-3.85999c0,2.53003-1.33008,3.78601-2.86304,3.78601-1.49597,0-2.78906-1.20197-2.80701-3.60199,0-2.41998,1.31104-3.76801,2.89905-3.76801,1.68091,0,2.771,1.29401,2.771,3.58398m-4.396,.10999c-.01807,1.53204,.573,2.69604,1.56995,2.69604,1.07104,0,1.55103-1.14404,1.55103-2.73199,0-1.46002-.42407-2.67804-1.55103-2.67804-1.01599,0-1.56995,1.20001-1.56995,2.71399" style="fill: #d9518f;"/>
    <path d="M550.43925,300.28804c-12.28503,0-22.27905-9.99396-22.27905-22.27795v-69.85901c0-12.28503,9.99402-22.27893,22.27905-22.27893s22.27893,9.9939,22.27893,22.27893v69.85901c0,12.284-9.99402,22.27795-22.27893,22.27795" style="fill: #d9518f;"/>
    <path d="M550.43961,294.49721c-9.09204,0-16.48804-7.39606-16.48804-16.487v-113.39001c0-9.08997,7.396-16.48694,16.48804-16.48694,9.09094,0,16.48694,7.39697,16.48694,16.48694v113.39001c0,9.09094-7.396,16.487-16.48694,16.487m0-144.51605c-8.07312,0-14.64001,6.56702-14.64001,14.63904v113.39001c0,8.07196,6.56689,14.63995,14.64001,14.63995,8.0719,0,14.63989-6.56799,14.63989-14.63995v-113.39001c0-8.07202-6.56799-14.63904-14.63989-14.63904" style="fill: #d9518f;"/>
    <polygon points="542.26725 311.70204 542.26725 312.77205 537.0402 323.70509 535.36124 323.70509 540.56815 313.08607 540.56815 313.05006 534.69621 313.05006 534.69621 311.70204 542.26725 311.70204" style="fill: #d9518f;"/>
    <path d="M551.11808,313.06801h-4.58008l-.46204,3.08405c.2771-.03601,.53601-.07404,.979-.07404,.9231,0,1.84705,.20404,2.58508,.646,.94202,.53601,1.71802,1.57001,1.71802,3.08502,0,2.34399-1.86499,4.09998-4.46899,4.09998-1.31201,0-2.41907-.37-2.99109-.73999l.40601-1.23798c.49805,.29602,1.47705,.66602,2.56604,.66602,1.53296,0,2.84399-.99805,2.84399-2.604-.01807-1.55103-1.052-2.659-3.453-2.659-.68396,0-1.21899,.07397-1.66199,.13l.77502-5.76202h5.74402v1.36597Z" style="fill: #d9518f;"/>
    <path d="M558.84171,315.08156c0,2.52997-1.32898,3.78595-2.88098,3.78595-1.495,0-2.78699-1.20197-2.80591-3.62,0-2.401,1.31091-3.74896,2.89893-3.74896,1.68005,0,2.78796,1.29199,2.78796,3.58301m-4.3949,.10999c-.03711,1.53198,.53601,2.69598,1.5509,2.69598,1.07104,0,1.552-1.14398,1.552-2.73401,0-1.45801-.42493-2.677-1.552-2.677-1.01489,0-1.5509,1.20099-1.5509,2.71503m1.40295,8.71796l7.05603-12.41095h1.03394l-7.05493,12.41095h-1.03503Zm10.80505-3.85999c0,2.53003-1.33008,3.78601-2.86304,3.78601-1.49597,0-2.78906-1.20197-2.80701-3.60199,0-2.41998,1.31104-3.76801,2.89905-3.76801,1.68091,0,2.771,1.29401,2.771,3.58398m-4.396,.10999c-.01807,1.53204,.573,2.69604,1.56995,2.69604,1.07104,0,1.55103-1.14404,1.55103-2.73199,0-1.46002-.42407-2.67804-1.55103-2.67804-1.01599,0-1.56995,1.20001-1.56995,2.71399" style="fill: #d9518f;"/>
    <polygon points="599.6027 313.2159 599.56559 313.2159 597.47868 314.34193 597.16459 313.1039 599.78666 311.70192 601.17167 311.70192 601.17167 323.70491 599.6027 323.70491 599.6027 313.2159" style="fill: #d9518f;"/>
    <path d="M613.53166,317.57362c0,4.08203-1.51404,6.336-4.17297,6.336-2.34595,0-3.93396-2.198-3.97095-6.16998,0-4.026,1.73596-6.24103,4.17395-6.24103,2.53003,0,3.96997,2.25299,3.96997,6.07501m-6.51892,.18597c0,3.12006,.96094,4.89404,2.43799,4.89404,1.66199,0,2.45593-1.94,2.45593-5.00604,0-2.95398-.75696-4.89398-2.43799-4.89398-1.422,0-2.45593,1.73602-2.45593,5.00598" style="fill: #d9518f;"/>
    <path d="M623.01041,317.57362c0,4.08203-1.51404,6.336-4.17297,6.336-2.34595,0-3.93396-2.198-3.97095-6.16998,0-4.026,1.73596-6.24103,4.17395-6.24103,2.53003,0,3.96997,2.25299,3.96997,6.07501m-6.51892,.18597c0,3.12006,.96094,4.89404,2.43799,4.89404,1.66199,0,2.45593-1.94,2.45593-5.00604,0-2.95398-.75696-4.89398-2.43799-4.89398-1.422,0-2.45593,1.73602-2.45593,5.00598" style="fill: #d9518f;"/>
    <path d="M629.92155,315.08156c0,2.52997-1.32898,3.78595-2.88,3.78595-1.49597,0-2.78796-1.20197-2.80688-3.62,0-2.401,1.31091-3.74896,2.89893-3.74896,1.68005,0,2.78796,1.29199,2.78796,3.58301m-4.39392,.10999c-.03699,1.53198,.53503,2.69598,1.55103,2.69598,1.06995,0,1.5509-1.14398,1.5509-2.73401,0-1.45801-.42493-2.677-1.5509-2.677-1.01599,0-1.55103,1.20099-1.55103,2.71503m1.40295,8.71796l7.05505-12.41095h1.03394l-7.05493,12.41095h-1.03406Zm10.80408-3.85999c0,2.53003-1.33008,3.78601-2.86304,3.78601-1.49597,0-2.78906-1.20197-2.80701-3.60199,0-2.41998,1.31104-3.76801,2.89905-3.76801,1.68091,0,2.771,1.29401,2.771,3.58398m-4.396,.10999c-.01807,1.53204,.573,2.69604,1.56995,2.69604,1.07104,0,1.55103-1.14404,1.55103-2.73199,0-1.46002-.42407-2.67804-1.55103-2.67804-1.01599,0-1.56995,1.20001-1.56995,2.71399" style="fill: #d9518f;"/>
    <path d="M616.77885,300.28804c-12.28406,0-22.27808-9.99396-22.27808-22.27795v-113.38904c0-12.28491,9.99402-22.27795,22.27808-22.27795,12.28491,0,22.27893,9.99304,22.27893,22.27795v113.38904c0,12.284-9.99402,22.27795-22.27893,22.27795" style="fill: #d9518f;"/>
  </g>
  <g style="opacity: .5;">
    <path d="M1700.20666,353.89403c-57.73909,0-104.71329-46.97308-104.71329-104.71323s46.97421-104.7121,104.71329-104.7121c3.3149,0,6.00292,2.68801,6.00292,6.00292s-2.68801,6.00305-6.00292,6.00305c-51.1188,0-92.70627,41.58853-92.70627,92.70613s41.58747,92.70627,92.70627,92.70627,92.70719-41.58747,92.70719-92.70627c0-3.31497,2.68801-6.00292,6.00305-6.00292s6.00292,2.68795,6.00292,6.00292c0,57.74014-46.97421,104.71323-104.71316,104.71323" style="fill: #d9518f;"/>
    <path d="M1619.94658,250.18182c-.55352,0-1.00075-.44723-1.00075-1.00062,0-2.01651,.07588-4.06117,.22527-6.07556,.04111-.55121,.4939-.9714,1.07108-.92374,.55127,.04111,.96492,.52093,.92381,1.07214-.14516,1.96561-.21879,3.95938-.21879,5.92717,0,.55339-.44723,1.00062-1.00062,1.00062" style="fill: #d9518f;"/>
    <path d="M1718.07475,328.43788c-.45596,0-.86855-.31411-.97471-.7776-.12242-.53931,.21443-1.07538,.75261-1.19779,3.77641-.86201,7.52136-2.01538,11.12988-3.42542,.51545-.20471,1.09593,.05195,1.29741,.56747,.20028,.51439-.05314,1.09488-.56859,1.29635-3.70053,1.44573-7.5408,2.62839-11.41252,3.51208-.07575,.01732-.15044,.02492-.22408,.02492m21.90534-8.5588c-.3465,0-.6844-.18085-.86855-.50355-.27616-.47982-.10933-1.09058,.37042-1.36456,3.35946-1.92555,6.6072-4.11749,9.65361-6.51519,.43322-.34008,1.0646-.26539,1.40462,.16888,.34121,.43322,.26651,1.06242-.16776,1.40462-3.12335,2.45733-6.4524,4.7034-9.89633,6.67661-.15586,.0899-.32706,.13319-.49601,.13319m18.48652-14.5444c-.24695,0-.49496-.09095-.6877-.27511-.40175-.38007-.41802-1.01258-.03794-1.41328,2.66528-2.81354,5.14626-5.84917,7.3729-9.02011,.31516-.45159,.93901-.56205,1.39378-.24364,.45159,.31728,.56105,.94219,.24378,1.39378-2.28295,3.24999-4.82581,6.36138-7.5593,9.24538-.19592,.20795-.46124,.31298-.72551,.31298m13.51873-19.25969c-.15044,0-.30313-.03358-.44829-.10616-.4939-.24801-.69312-.84905-.44406-1.34394,1.73935-3.46336,3.23492-7.08596,4.44349-10.76805,.17226-.52529,.73648-.81442,1.26171-.63899,.52629,.17219,.81118,.73754,.63998,1.26277-1.23884,3.77522-2.77355,7.49096-4.55718,11.04309-.17649,.34987-.5284,.55127-.89565,.55127m7.34263-22.36136c-.05526,0-.11158-.00542-.16895-.01514-.54466-.09208-.91072-.6097-.81765-1.15338,.6487-3.80993,1.02243-7.70975,1.10691-11.59331,.01296-.55121,.42344-.97358,1.02336-.97795,.55233,.01302,.98978,.47004,.97788,1.02342-.08765,3.97993-.46997,7.97831-1.13599,11.88355-.08342,.48735-.50685,.83279-.98555,.83279m.521-23.51579c-.4972,0-.92923-.37036-.99203-.87721-.47869-3.84456-1.24876-7.68694-2.28837-11.41788-.14939-.53171,.16142-1.08298,.69418-1.23131,.53065-.14516,1.08509,.16142,1.2325,.69418,1.06778,3.82506,1.85727,7.76494,2.34786,11.70918,.06821,.54797-.32058,1.04722-.86961,1.11543-.04125,.00436-.08342,.0076-.12453,.0076m-157.94067-7.6913c-.07364,0-.14727-.0076-.22091-.02492-.53924-.12235-.87714-.6573-.75592-1.19561,.87503-3.87913,2.04909-7.72482,3.4861-11.42865,.20147-.5165,.78302-.76993,1.29529-.57071,.51545,.20028,.76993,.77971,.57071,1.29529-1.40237,3.61169-2.54603,7.361-3.39951,11.14376-.10497,.46462-.51875,.78084-.97576,.78084m151.62246-14.96572c-.38219,0-.74825-.21985-.91403-.5912-1.5778-3.53052-3.43521-6.97882-5.51986-10.24943-.29573-.46561-.15917-1.08404,.3075-1.38175,.46349-.29573,1.08298-.16036,1.37977,.3075,2.1378,3.35073,4.04161,6.88667,5.6596,10.50603,.22633,.50461-.00106,1.09699-.50461,1.32226-.13326,.05962-.2718,.08659-.40836,.08659m-143.11132-6.97326c-.16895,0-.33896-.04217-.49482-.13101-.47975-.27286-.64765-.88481-.37479-1.36456,1.96343-3.44499,4.20421-6.78157,6.65823-9.9147,.34213-.43533,.9714-.51333,1.40462-.17107,.43533,.34107,.51214,.96929,.17107,1.40462-2.39559,3.0583-4.57992,6.3116-6.49457,9.67212-.18415,.3227-.52206,.50461-.86974,.50461m130.4741-12.85813c-.27947,0-.55881-.117-.75592-.34557-2.53519-2.92835-5.31099-5.69529-8.24687-8.22625-.41802-.3617-.46455-.99308-.10404-1.41229,.36064-.41683,.99097-.46455,1.41123-.10497,3.00952,2.59481,5.8534,5.43221,8.45152,8.4342,.3617,.41696,.31728,1.0494-.10074,1.41004-.18944,.16459-.42238,.24483-.65518,.24483m-115.96533-5.66515c-.26532,0-.52853-.10497-.72564-.3108-.38126-.4007-.365-1.0342,.03569-1.4144,2.88076-2.74103,5.98679-5.29036,9.22806-7.57755,.44948-.31728,1.07544-.21007,1.39497,.24153,.31834,.45054,.21007,1.07531-.24153,1.39378-3.1634,2.23087-6.19249,4.71741-9.00173,7.39128-.1938,.18415-.44181,.27616-.68982,.27616m98.14271-9.69261c-.18402,0-.36923-.04984-.53501-.156-3.27921-2.07937-6.73504-3.92897-10.27098-5.49937-.50566-.22527-.73318-.8166-.50897-1.32014,.22527-.50461,.81448-.73318,1.32014-.50897,3.6269,1.60927,7.16931,3.50673,10.53089,5.6391,.4668,.2956,.60547,.91403,.30974,1.37963-.19063,.30115-.51545,.46574-.84581,.46574m-78.91878-3.86631c-.36606,0-.71798-.20134-.89459-.54902-.24906-.4939-.0509-1.09593,.44194-1.345,3.5489-1.79236,7.25802-3.33235,11.02359-4.57992,.52311-.17014,1.09157,.11039,1.26489,.63562,.17331,.52417-.11039,1.09065-.63575,1.26383-3.67237,1.21729-7.28843,2.71935-10.74954,4.46623-.14516,.07364-.2989,.10827-.45054,.10827m57.40978-5.68022c-.08884,0-.17768-.0119-.26744-.03569-3.73199-1.03102-7.57437-1.7913-11.42336-2.26233-.54902-.0661-.93888-.56529-.87172-1.11338,.06597-.54902,.56529-.95408,1.11431-.87172,3.94642,.48187,7.88623,1.26052,11.71354,2.31865,.53276,.14621,.84581,.69748,.69854,1.23025-.12242,.44406-.52523,.73424-.96387,.73424m-35.08629-1.70789c-.47764,0-.90107-.34319-.98449-.82955-.09426-.54572,.26969-1.06341,.81435-1.15661,3.90425-.67686,7.90249-1.06778,11.88355-1.16626,.58155,0,1.01265,.42555,1.02455,.97682,.01401,.55114-.42344,1.0104-.97576,1.02441-3.88257,.09532-7.78232,.47658-11.59007,1.13612-.05737,.00978-.11594,.01507-.17212,.01507" style="fill: #d9518f;"/>
    <path d="M1700.20666,330.44196c-.55352,0-1.00075-.44723-1.00075-1.00062,0-.55345,.44723-1.00068,1.00075-1.00068,1.98075,0,3.97445-.07258,5.92704-.21879,.56317-.05519,1.03102,.37366,1.07214,.92381,.04019,.55121-.37254,1.03096-.92368,1.07108-2.00137,.14945-4.04491,.2252-6.0755,.2252" style="fill: #d9518f;"/>
    <polygon points="1651.29467 237.46224 1651.29467 231.715 1679.9632 231.715 1657.96678 272.87024 1652.41651 269.6993 1669.65864 237.46224 1651.29467 237.46224" style="fill: #d9518f;"/>
    <path d="M1693.43949,237.46224l-1.5856,7.20078,3.10391-.13213c3.83154,0,6.94722,1.35372,9.34823,4.06335,2.40101,2.70745,3.59979,5.99968,3.59979,9.87458,0,4.31784-1.34288,7.79528-4.02971,10.43775-2.68577,2.64247-6.20875,3.96367-10.56883,3.96367-4.84525,0-8.8078-1.7609-11.89109-5.28494l1.9818-5.81229c2.5537,3.56622,5.68141,5.35098,9.38194,5.35098,2.28824,0,4.2366-.80358,5.84481-2.41178,1.60715-1.60715,2.41172-3.78719,2.41172-6.54011,0-2.75187-.83709-4.89832-2.51034-6.4405-1.67431-1.54105-3.78818-2.31217-6.34188-2.31217s-4.64708,.88157-6.27472,2.64247h-1.25629l4.16191-20.3469h17.4403v5.74724h-12.81595Z" style="fill: #d9518f;"/>
    <path d="M1729.70646,240.10465c0,2.7746-.89129,5.05425-2.67612,6.83796-1.78258,1.78258-4.05139,2.67493-6.80325,2.67493-2.75292,0-5.03152-.88045-6.83683-2.64247-1.80743-1.7609-2.7085-4.01781-2.7085-6.77073,0-2.75187,.90107-5.03152,2.7085-6.8369,1.80532-1.80525,4.07201-2.7095,6.80431-2.7095,2.73019,0,4.99688,.88256,6.80325,2.64346,1.80545,1.7609,2.70864,4.02977,2.70864,6.80325m-13.34343,.09968c0,1.16745,.35086,2.22439,1.05694,3.16988,.70396,.94761,1.61905,1.42081,2.74222,1.42081,1.12185,0,2.04671-.47321,2.77341-1.42081,.7267-.94549,1.08946-2.01439,1.08946-3.20346,0-1.18914-.35192-2.26775-1.05694-3.23598-.70396-.96816-1.61799-1.45334-2.74103-1.45334-1.12198,0-2.04685,.49489-2.7746,1.48586-.7267,.9909-1.08946,2.07064-1.08946,3.23704m27.48059-7.89383l-21.53504,41.28639-4.49333-2.18004,21.6022-41.28744,4.42617,2.18109Zm7.33179,31.0468c0,2.77566-.89023,5.05425-2.67493,6.83796-1.78377,1.78364-4.06236,2.67493-6.83683,2.67493s-5.06509-.88045-6.87054-2.64247c-1.80637-1.7609-2.7085-4.02865-2.7085-6.80431,0-2.77355,.91403-5.0532,2.74103-6.8369,1.82806-1.78364,4.10665-2.67493,6.83802-2.67493,2.73019,0,4.99675,.88151,6.80431,2.64247,1.80532,1.76202,2.70745,4.02977,2.70745,6.80325m-13.4094,.09961c0,1.16745,.35192,2.22446,1.05694,3.171,.70396,.94761,1.63967,1.42088,2.80713,1.42088s2.09232-.46243,2.77566-1.3873c.68228-.92599,1.02336-1.99271,1.02336-3.20458,0-1.21075-.34107-2.30133-1.02336-3.26949-.68334-.96816-1.5975-1.45334-2.74208-1.45334-1.14591,0-2.08042,.49489-2.80818,1.48586-.7267,.9909-1.08946,2.07064-1.08946,3.23697" style="fill: #d9518f;"/>
  </g>
  <g style="opacity: .6;">
    <path d="M700.70709,242.85044c0-.3698,2.3334-.66864,5.21111-.66864h833.21453c2.87771,0,5.21163,.29884,5.21163,.66864,0,.36973-2.33392,.66857-5.21163,.66857H705.9182c-2.87771,0-5.21111-.29884-5.21111-.66857" style="fill: #d9518f;"/>
  </g>
  <g style="opacity: .6;">
    <path d="M1344.25651,285.77674c-4.51622,0-8.18995-3.67372-8.18995-8.18987,0-4.51472,3.67372-8.18979,8.18995-8.18979s8.18979,3.67507,8.18979,8.18979c0,4.51615-3.67372,8.18987-8.18979,8.18987m0-13.20098c-2.76289,0-5.01119,2.24838-5.01119,5.01111,0,2.76407,2.2483,5.01111,5.01119,5.01111,2.76273,0,5.01103-2.24704,5.01103-5.01111,0-2.76273-2.2483-5.01111-5.01103-5.01111" style="fill: #d9518f;"/>
    <path d="M1454.00377,228.96692c-4.51622,0-8.18995-3.67507-8.18995-8.18987,0-4.51607,3.67372-8.19105,8.18995-8.19105s8.18979,3.67499,8.18979,8.19105c0,4.5148-3.67372,8.18987-8.18979,8.18987m0-13.20232c-2.76289,0-5.01119,2.24838-5.01119,5.01246,0,2.76273,2.2483,5.01111,5.01119,5.01111,2.76273,0,5.01103-2.24838,5.01103-5.01111,0-2.76407-2.2483-5.01246-5.01103-5.01246" style="fill: #d9518f;"/>
    <path d="M1348.76657,274.36509c-.39009,0-.78018-.14253-1.08595-.43019-.64145-.6-.67387-1.60559-.07387-2.24569l18.48551-19.72048c.50667-.54037,1.32307-.65703,1.95803-.28766l21.93888,12.74864,21.4648-34.63715c.45605-.7347,1.41498-.97055,2.16146-.52866l21.69275,12.88603,13.38495-17.15074c.54037-.69325,1.53567-.81767,2.23011-.27604,.69207,.54037,.81513,1.53947,.27477,2.23146l-14.24533,18.25353c-.49117,.62982-1.37496,.8009-2.06433,.38882l-21.55544-12.80448-21.45562,34.62417c-.45352,.73217-1.40739,.96802-2.14849,.53783l-22.18138-12.88998-17.62118,18.79912c-.31226,.33306-.73604,.50145-1.15967,.50145" style="fill: #d9518f;"/>
  </g>
  <g style="opacity: .6;">
    <path d="M828.55288,217.89087c-3.10864-3.27607-2.97245-8.46971,.30357-11.5783,3.27498-3.10761,8.4696-2.97234,11.57824,.30373,3.10853,3.27595,2.97136,8.47052-.30362,11.57813-3.27601,3.10859-8.46966,2.97239-11.57819-.30356m9.57599-9.0866c-1.90177-2.0042-5.08032-2.08749-7.0844-.18583-2.00506,1.90259-2.08749,5.08021-.18572,7.0844,1.90166,2.00408,5.07923,2.0883,7.08429,.18572,2.00408-1.90166,2.08749-5.08021,.18583-7.08429" style="fill: #d9518f;"/>
    <path d="M945.30478,258.39777c-3.10864-3.27607-2.97147-8.47064,.30357-11.5783,3.27595-3.10853,8.47052-2.97321,11.57916,.30286,3.10853,3.27595,2.97142,8.47047-.30454,11.579-3.27504,3.10766-8.46966,2.97239-11.57819-.30356m9.57697-9.08752c-1.90177-2.0042-5.08032-2.08749-7.08537-.18491-2.00408,1.90166-2.08749,5.08021-.18572,7.0844,1.90166,2.00408,5.08021,2.08738,7.08429,.18572,2.00506-1.90259,2.08847-5.08113,.1868-7.08521" style="fill: #d9518f;"/>
    <path d="M839.93529,213.30751c-.26851-.28297-.43363-.66404-.43543-1.08386-.00628-.8783,.70085-1.594,1.57818-1.59936l27.02932-.16475c.74074-.00441,1.38731,.50751,1.55644,1.22235l5.85327,24.68971,39.9006-8.27113c.84686-.17489,1.67801,.35837,1.87128,1.20403l5.58419,24.60573,21.65437-2.09588c.87483-.0852,1.65018,.55116,1.73528,1.42772,.08439,.87397-.55565,1.65096-1.42957,1.73529l-23.04656,2.23085c-.79496,.07723-1.52739-.44611-1.70299-1.22983l-5.54883-24.45-39.88487,8.26886c-.84328,.17499-1.67095-.3546-1.86901-1.18831l-5.91766-24.96291-25.76603,.15754c-.45654,.00274-.87039-.18876-1.16198-.49606" style="fill: #d9518f;"/>
  </g>
  <g style="opacity: .6;">
    <path d="M1095.5951,213.27062c-1.13239-4.37195,1.50282-8.84946,5.8747-9.98184,4.3705-1.13202,8.84931,1.50286,9.9817,5.87481,1.13235,4.3718-1.50416,8.84965-5.87466,9.98166-4.37188,1.13237-8.84939-1.50284-9.98174-5.87464m12.77927-3.31c-.69276-2.67462-3.43306-4.28735-6.10753-3.59462-2.67577,.69306-4.28729,3.43296-3.59453,6.10759,.69272,2.67447,3.43172,4.28753,6.10749,3.59447,2.67447-.69272,4.28729-3.43296,3.59457-6.10743" style="fill: #d9518f;"/>
    <path d="M1178.10806,305.2675c-1.13239-4.37195,1.50413-8.8498,5.8747-9.98184,4.3718-1.13235,8.85053,1.50255,9.98293,5.8745,1.13235,4.3718-1.50409,8.84963-5.87589,9.98198-4.37057,1.13204-8.84939-1.50284-9.98174-5.87464m12.78057-3.31034c-.69276-2.67462-3.43306-4.28735-6.10883-3.59429-2.67447,.69272-4.28729,3.43296-3.59453,6.10759,.69272,2.67447,3.43302,4.28719,6.10749,3.59447,2.67577-.69306,4.28859-3.4333,3.59587-6.10777" style="fill: #d9518f;"/>
    <path d="M1107.77305,214.77525c-.09781-.37763-.05765-.79099,.14416-1.15912,.42-.7714,1.38533-1.05493,2.15543-.6346l23.72554,12.95029c.65015,.35499,.96778,1.11606,.76943,1.82335l-6.84045,24.43462,38.91272,12.09421c.82558,.25727,1.29434,1.12642,1.05373,1.95986l-7.03516,24.2308,19.95898,8.657c.8066,.34928,1.1766,1.2816,.82639,2.08966-.34957,.80545-1.28591,1.1751-2.09128,.82551l-21.24228-9.21338c-.73286-.31756-1.12007-1.13022-.89401-1.90089l6.99065-24.07743-38.89786-12.08858c-.82249-.25545-1.28999-1.1197-1.05936-1.945l6.91647-24.70482-22.6169-12.34459c-.40072-.21877-.66999-.5868-.77621-.99689" style="fill: #d9518f;"/>
  </g>
  <path d="M55.61914,349.46871c93.38013,4.6167,198.82495,52.31226,293.73608,57.11548,138.55884,7.01221,268.521-34.6665,394.31689-69.13184,25.98706-7.1189,52.68115-14.06372,81.18311-16.16992,29.81299-2.20288,60.02393,1.01514,89.13696,5.3501,112.97681,16.81934,216.84595,50.35059,329.40698,68.08838,121.52295,19.1499,249.18018,19.31665,375.09375,19.35474,84.31934,.02563,170.03027-.06128,250.86426-13.99634,44.93506-7.74707,87.66699-19.66211,130.64111-30.8562v-13.82739c-88.41504,17.55884-178.65576,31.11108-271.65625,33.12939-75.99609,1.64893-151.79785-4.48438-227.00879-11.02588-89.57715-7.79321-179.36426-16.2373-265.83789-31.89209-75.09521-13.59546-147.79419-32.63525-225.46216-39.85571-110.01196-10.22778-215.52417-2.90552-312.34497,29.1167-49.13623,16.25195-101.48926,32.26978-153.88208,44.61841-85.7229,20.2041-189.90698,27.52539-269.11597-.23779-39.32715-13.78564-72.58911-32.60327-109.24512-48.68237s-78.93286-29.81543-124.83301-30.7876c-7.10742-.15063-23.4292,1.54346-40.61206,4.58789v46.55103c16.44482-1.08472,35.16309-2.46045,55.61914-1.44897Z" style="fill: #e4877c;"/>
</svg>