<?xml version="1.0" encoding="UTF-8"?>
<svg id="_圖層_1" data-name="圖層 1" xmlns="http://www.w3.org/2000/svg" xmlns:xlink="http://www.w3.org/1999/xlink" viewBox="0 0 1999.99994 216.2588">
  <defs>
    <clipPath id="clippath">
      <rect x="77.36477" y="19.61476" width="48.7452" height="42.52002" style="fill: none;"/>
    </clipPath>
    <clipPath id="clippath-1">
      <rect x="77.36496" y="19.61379" width="48.745" height="42.52197" style="fill: none;"/>
    </clipPath>
    <clipPath id="clippath-2">
      <rect x="86.00427" y="28.40468" width="23.7827" height="24.56006" style="fill: none;"/>
    </clipPath>
    <clipPath id="clippath-3">
      <rect x="86.00396" y="28.40065" width="23.782" height="24.56702" style="fill: none;"/>
    </clipPath>
    <clipPath id="clippath-4">
      <rect x="92.22667" y="37.87477" width="9.6433" height="10.42993" style="fill: none;"/>
    </clipPath>
    <clipPath id="clippath-5">
      <rect x="92.22796" y="37.87965" width="9.642" height="10.42603" style="fill: none;"/>
    </clipPath>
    <clipPath id="clippath-6">
      <rect x="103.82697" y="35.74477" width=".633" height=".51001" style="fill: none;"/>
    </clipPath>
    <clipPath id="clippath-7">
      <rect x="103.82697" y="35.74281" width=".629" height=".51294" style="fill: none;"/>
    </clipPath>
    <clipPath id="clippath-8">
      <rect x="121.57997" y="29.07472" width="1.298" height="1.25" style="fill: none;"/>
    </clipPath>
    <clipPath id="clippath-9">
      <rect x="121.57997" y="29.07668" width="1.297" height="1.24304" style="fill: none;"/>
    </clipPath>
    <clipPath id="clippath-10">
      <rect x="117.72397" y="46.62477" width="1.853" height="1.91992" style="fill: none;"/>
    </clipPath>
    <clipPath id="clippath-11">
      <rect x="117.72696" y="46.62782" width="1.849" height="1.91895" style="fill: none;"/>
    </clipPath>
    <clipPath id="clippath-12">
      <rect x="128.71997" y="44.95473" width="1.53101" height="1.52002" style="fill: none;"/>
    </clipPath>
    <clipPath id="clippath-13">
      <rect x="128.71997" y="44.94972" width="1.53101" height="1.52295" style="fill: none;"/>
    </clipPath>
    <clipPath id="clippath-14">
      <rect x="171.87097" y="37.0547" width="1.911" height="1.97998" style="fill: none;"/>
    </clipPath>
    <clipPath id="clippath-15">
      <rect x="171.87097" y="37.05666" width="1.911" height="1.97302" style="fill: none;"/>
    </clipPath>
    <clipPath id="clippath-16">
      <rect x="196.88797" y="44.5547" width=".903" height=".93005" style="fill: none;"/>
    </clipPath>
    <clipPath id="clippath-17">
      <rect x="196.88797" y="44.55373" width=".901" height=".93201" style="fill: none;"/>
    </clipPath>
    <clipPath id="clippath-18">
      <rect x="156.16096" y="65.14467" width="1.36" height="1.36011" style="fill: none;"/>
    </clipPath>
    <clipPath id="clippath-19">
      <rect x="156.16096" y="65.14174" width="1.36" height="1.35999" style="fill: none;"/>
    </clipPath>
  </defs>
  <path d="M237.79457,2.03102c-8.13901,2.24609-16.07001,.31311-24.17801-.948-7.508-1.16699-15.15399-1.45288-22.707-.552-6.424,.76611-12.79399,2.27808-18.77699,4.76001-2.733,1.13403-5.323,2.57703-7.86501,4.08301-2.09399,1.24109-3.961,2.67603-5.78,4.25-.313-.03394-.62599-.06995-.939-.099-1.26801-.12-2.58501-.22791-3.91901-.3219,.991-.91907,2.067-1.76807,3.21701-2.53809,.33499-.22498,.521-.80493,.142-1.104-2.765-2.18201-7.606-1.46399-10.70401-.37-1.71599,.60803-2.974,1.79797-3.929,3.25708-.16399,.25-.314,.50696-.45999,.76697-1.259,.13196-2.495,.31592-3.701,.578-1.591,.08899-3.188,.23096-4.798,.45496-1.215,.16797-2.42599,.37207-3.633,.59302-.914,.15405-1.826,.31995-2.73299,.51099-1.193,.24902-2.375,.54407-3.541,.88306-4.439,1.16199-8.781,2.66992-12.954,4.54297-14.83499,6.65894-27.22499,17.96497-34.089,32.375-14.64799,30.74695-3.784,70.98096,26.62001,88.92993,8.34599,4.927,17.395,8.78802,26.903,10.78003,9.392,1.96698,19.66299,2.362,28.851-.74701,4.20599-1.422,8.037-3.48798,11.51399-6.03802,.13901-.10095,.92801,.414,1.05901,.48206,.545,.28296,1.298,.48096,1.87799,.68298,3.953,1.383,7.97701,1.258,11.99001,.401,1.776-.38104,3.554-.81903,5.295-1.33301,2.33-.68799,4.493-1.57599,6.737-2.48102,2.30099-.92596,4.536-2.013,6.645-3.31799,14.07399-8.70898,24.03099-24.61902,26.808-40.04498,2.937-16.30396,.11499-33.453-7.37001-48.46204-1.56999-3.14697-3.41699-6.15198-5.62599-8.88892-3.80701-4.71704-8.101-8.52808-12.772-12.20801-1.76799-1.39307-5.52899-3.93005-7.37799-4.95996-.164-.09204-.10901-.33606,.07799-.35303,2.93201-.26099,5.84001-.70605,8.68401-1.42004,.407-.10193,.813-.20996,1.217-.32397,3.405-.95898,6.64301-2.66504,9.93901-3.93201,3.03799-1.16699,5.94699-2.64502,8.70999-4.36597,5.15201-3.20703,10.24701-7.24805,12.332-13.09509,.157-.44299-.502-.75793-.76599-.427" style="fill: #fff;"/>
  <g style="opacity: .8;">
    <path d="M237.79437,2.03102c-8.14,2.24597-16.07001,.31299-24.17801-.948-7.50699-1.16699-15.15399-1.453-22.707-.552-6.424,.76599-12.793,2.27808-18.77699,4.76001-2.733,1.13306-5.323,2.57703-7.86501,4.08301-2.09399,1.24097-3.961,2.67603-5.78,4.25-.31299-.03503-.625-.06897-.93799-.099-1.26801-.12-2.58601-.22803-3.91901-.32202,.99001-.91895,2.067-1.76794,3.216-2.53894,.33499-.224,.522-.80298,.14299-1.10205-2.76599-2.18298-7.60699-1.46594-10.70399-.37-1.716,.60608-2.97501,1.797-3.92999,3.255-.164,.25-.31401,.50806-.459,.76904-1.26001,.13098-2.496,.31494-3.701,.57703-1.592,.08789-3.189,.23096-4.798,.45398-1.216,.16895-2.42599,.37292-3.634,.59399-.914,.15393-1.82599,.32092-2.73299,.51001-1.193,.25-2.374,.54602-3.54,.88391-4.43999,1.16211-8.781,2.67004-12.95399,4.54309-14.835,6.65894-27.226,17.96497-34.091,32.375-14.646,30.74792-3.783,70.9809,26.621,88.92993,8.345,4.927,17.396,8.78699,26.90399,10.77899,9.39101,1.96802,19.66301,2.362,28.851-.745,4.20601-1.42303,8.035-3.48901,11.51401-6.039,.138-.10101,.927,.41302,1.058,.48199,.545,.28302,1.298,.48102,1.87799,.68402,3.95401,1.38196,7.97701,1.25696,11.99001,.39899,1.776-.37903,3.55501-.81799,5.29601-1.33203,2.33-.68799,4.491-1.57697,6.737-2.47998,2.299-.92603,4.53499-2.01398,6.644-3.31897,14.07401-8.70905,24.03-24.61902,26.80899-40.04504,2.93701-16.30389,.11401-33.45294-7.37099-48.46198-1.569-3.14697-3.41701-6.15295-5.62601-8.88892-3.80699-4.71704-8.101-8.52808-12.772-12.20911-1.767-1.39197-5.52899-3.92896-7.37799-4.95898-.16301-.09192-.10901-.33691,.078-.35291,2.93199-.26111,5.84-.70703,8.68399-1.42102,.407-.10205,.813-.20898,1.217-.323,3.40501-.96008,6.64301-2.66602,9.93901-3.93201,3.039-1.16699,5.94699-2.646,8.70999-4.36609,5.15201-3.20691,10.24701-7.24792,12.332-13.09595,.157-.44202-.502-.75598-.76599-.42603m-85.842,12.89905c1.62,.02698,3.23599,.08301,4.845,.20496-4.05701,3.83801-7.39201,8.76404-9.24001,14.02197-.04201,.11707-.08301,.23706-.12401,.35901-.092-1.47693-.064-2.98193,.084-4.521,.37601-3.91492,2.009-7.27197,4.43501-10.06494m-4.888-4.39697c2.067-.71301,5.278-1.349,7.63399-.60107-1.50099,1.25305-3.34799,2.10999-5.26799,2.45398-1.177,.21204-3.716,.02209-4.26201-.75098,.53101-.46692,1.15401-.84595,1.89601-1.10193m-2.66701,1.93396c.424,.58105,1.196,.98499,1.784,1.21204,1.502,.57996,3.24901,.54102,4.93001,.0979-2.82201,3.05603-4.905,6.74707-5.51601,10.95801-.416,2.86804-.222,6.01111,.44701,8.8291,.23399,.98889,.578,2.09692,1.045,3.15601-1.039-.08008-2.076-.1991-3.05-.41003-.95399-1.22998-1.70399-2.61597-2.168-3.78308-1.55299-3.90894-1.467-8.24097-.645-12.27295,.515-2.52502,1.55-5.71204,3.173-7.78699m53.496,15.73303c3.271,2.10095,6.317,4.81897,9.14299,7.28198,11.117,9.68799,18.149,23.18396,20.86801,37.66602,.99699,5.30798,1.401,10.73193,1.151,16.12793-.707,15.24298-7.847,31.32397-18.95801,42.60199-5.895,5.98199-13.11,9.80701-21.304,11.98303-2.48199,.659-5.041,1.28198-7.621,1.54797-2.49899,.25702-5.258,.29401-7.623-.62402-.19699-.07599-.39099-.15698-.58299-.24298-.13699-.06-.27299-.125-.407-.19,3.15399-2.617,5.992-5.64697,8.52499-8.96802,4.98801-6.53699,9.254-14.08795,11.138-22.14496,2.345-10.00299,3.097-20.36798,1.933-30.64197-1.08099-9.53296-4.53799-19.03796-10.23599-27.047-2.43401-3.42102-5.341-6.53003-8.604-9.23499,.09399,.17297,.119,.37195,.11501,.57092,.05699,.04407,.12,.08008,.17499,.125,1.06201,.85205,1.86,2.078,2.66,3.15503,1.88,2.53003,3.532,4.93396,4.944,7.76001,1.42801,2.85803,2.662,5.80603,3.69501,8.81799,4.095,11.94507,5.069,25.08301,3.381,37.53497-1.299,9.586-4.23801,19.06299-9.351,27.32098-2.452,3.96204-5.74001,7.34802-9.19501,10.48102-3.308,3-6.461,5.06299-10.80499,7.00098-.95601,.427-1.965,.72205-2.955,1.06006-13.752,4.69196-32.80599,.37598-45.56499-5.46301-11.85-5.42303-19.624-13.48102-27.382-23.81201-1.66-2.211-3.175-4.52301-4.53401-6.91901-8.571-15.08997-11.25099-32.73792-6.728-49.45093,4.22101-15.60303,14.35001-29.00708,28.33801-37.79504,8.513-5.349,18.052-9.21204,28.068-10.74695,1.987-.30505,7.36499-1.01904,10.685-1.01501,.02699-.06409,.05899-.12598,.086-.19104,.06799,.00403,.13499,.00806,.203,.01099-.729,1.73706-1.18201,3.60303-1.56601,5.44507-1.065,5.11499-.814,10.349,1.744,15.00195,.02901,.052,.064,.10901,.092,.16101-1.09599-.61804-1.948-1.51404-2.38199-2.83203-.10701-.32703-.293-.10303-.17101,.23706,.965,2.71399,2.50999,4.44299,5.711,4.87,2.561,.34094,5.151,.41199,7.73199,.38892,.52901-.00391,1.05701-.01794,1.58601-.03101,.37799-.01099,.786,.00708,1.168-.073,.12399-.026,.439-.05688,.342-.20593-.05299-.08203-.274-.11304-.36301-.13806-.69499-.19897-1.422-.323-2.136-.44189-1.105-.18604-2.465-.24011-3.89799-.31006-.052-.13599-.11099-.271-.16-.40796,.48401-1.93506,2.16301-3.91699,3.40601-5.02502,2.858-2.55005,6.666-3.48096,10.272-4.41296,7.49899-1.93909,15.067-1.43799,22.735-1.16809,2.74699,.09705,6.67599-.672,9.131,.4491,1.194,.54492,2.36099,1.2019,3.5,1.93298m25.647-13.3501c-3.17801,1.82104-6.51901,3.005-9.884,4.4021-3.93201,1.63196-7.52101,3.00891-11.75,3.68799-8.20601,1.31897-16.289,.84998-24.548,.85901-7.186,.00793-14.26399,.65894-20.966,3.49902-2.66399,1.12793-5.01599,2.79297-6.67499,5.18494-.375,.54199-.77,1.16003-1.10001,1.81604,.245-.77002,.537-1.52307,.968-2.25305,.873-1.47498,2.032-2.79993,3.22099-4.03101,2.40001-2.48401,5.16101-4.74695,8.084-6.58203,1.677-1.052,3.43001-1.91589,5.237-2.63989,.26601-.07007,.52701-.15405,.78601-.25,3.81099-1.30811,7.99599,.625,11.64999,1.70898,2.55099,.75598,7.33299,2.65698,9.69499,.71997,.11601-.09607,.04301-.28601-.086-.323-1.89799-.54407-4.08299-.17896-6.06799-.61499-2.032-.44507-4.019-1.08105-6.021-1.64001-1.72301-.48096-3.64601-1.03296-5.513-1.08899,4.461-1.22803,9.131-1.82104,13.724-2.29602,.235-.02502,.47099-.04395,.70599-.06702,6.18201,.55896,12.437,2.09399,18.32001,4.05505,.114,.03796,.194-.14404,.08299-.19604-2.97499-1.41797-6.088-2.64001-9.27499-3.48596-1.76801-.46997-3.593-.64197-5.424-.69897,4.73199-.37,9.474-.58606,14.215-.849,2.618,.3479,5.02199,.47693,7.586,1.22998,2.02299,.59399,4.04799,1.30896,6.175,1.224,.17799-.00708,.19499-.23401,.041-.29504-2.39101-.95203-4.981-1.67603-7.49501-2.23193-.37399-.08203-.75999-.16711-1.15399-.245,.319-.02209,.64-.04102,.959-.06409,3.672-.26794,7.27499-.68103,10.82899-1.67993,2.961-.83105,6.618-2.02307,8.966-4.05798,.17-.14709-.013-.40601-.209-.35803-2.06601,.50403-3.994,1.57397-6.01801,2.25598-1.78099,.599-3.58099,1.14197-5.41699,1.54797-3.39601,.75098-6.88101,1.01404-10.358,1.21204,4.20599-1.31396,8.11299-3.41406,11.304-6.58398,.237-.23401-.121-.58899-.36501-.36401-4.041,3.72095-9.41901,5.85095-14.841,7.16296-5.041,.28101-10.09,.50903-15.12199,.92407,2.246-.64111,4.44499-1.45007,6.51801-2.30103,2.39899-.98499,4.644-2.27405,6.901-3.54102,1.853-1.04297,3.82599-1.78296,5.252-3.42407,.21599-.2489-.11801-.58997-.36501-.36389-1.513,1.38892-3.577,2.00598-5.36,2.979-2.36,1.28992-4.7,2.56689-7.20599,3.56299-3.19501,1.27197-6.61,2.61694-10.035,3.5-1.847,.19897-3.692,.427-5.53101,.70801-2.342,.35901-4.625,.802-6.84399,1.37891,1.04199-.85291,2.03099-1.76196,2.991-2.55994,3.457-2.87708,7.25999-5.63501,11.64799-6.84497,.34601-.09607,.19901-.63306-.14799-.53809-7.078,1.91406-12.397,7.28906-18.431,11.14502-3.599,1.27808-7.008,3.02698-10.192,5.50806-3.045,2.37292-7.76199,6.14697-9.08899,10.427-.04901-.23499-.09201-.47009-.134-.70605,.33299-1.61194,1.01799-3.22498,1.588-4.44397,1.48199-3.16797,3.38499-6.24402,5.681-8.88306,4.836-5.55994,11.036-9.71692,17.851-12.43994,13.959-5.578,28.93399-6.18896,43.614-3.58203,7,1.24304,14.246,2.78296,20.894-.25-2.806,5.48303-8.718,9.12903-13.86299,12.07495" style="fill: #e4877c;"/>
  </g>
  <g style="opacity: .8;">
    <g style="clip-path: url(#clippath);">
      <g style="clip-path: url(#clippath-1);">
        <path d="M126.03676,19.61525c-11.542,1.77209-22.186,6.09302-30.94801,14.03711-8.245,7.47498-14.911,17.297-17.71,28.13696-.092,.35498,.425,.48999,.54401,.14905,3.697-10.58606,9.41-20.11304,18.078-27.37305,8.527-7.14197,19.163-12.54297,30.066-14.84106,.072-.01599,.04-.12-.03-.10901" style="fill: #e4877c;"/>
      </g>
    </g>
  </g>
  <g style="opacity: .8;">
    <g style="clip-path: url(#clippath-2);">
      <g style="clip-path: url(#clippath-3);">
        <path d="M109.45027,28.43385c-9.606,5.32507-19.567,13.66406-23.432,24.32703-.069,.19202,.20599,.27698,.31,.13,3.26-4.64392,6.058-9.34802,10.086-13.42896,3.99-4.04297,8.367-7.74402,13.264-10.63806,.25-.14795,.027-.53101-.228-.39001" style="fill: #e4877c;"/>
      </g>
    </g>
  </g>
  <g style="opacity: .8;">
    <g style="clip-path: url(#clippath-4);">
      <g style="clip-path: url(#clippath-5);">
        <path d="M101.41887,37.92323c-1.93501,1.03503-3.57401,2.99707-5.048,4.59802-1.537,1.67004-2.858,3.52307-4.1,5.42004-.183,.28003,.247,.50793,.439,.25598,1.41-1.84595,2.946-3.58496,4.529-5.28394,1.437-1.54102,3.272-2.85303,4.556-4.50208,.20699-.26697-.04401-.66492-.376-.48804" style="fill: #e4877c;"/>
      </g>
    </g>
  </g>
  <g style="opacity: .8;">
    <g style="clip-path: url(#clippath-6);">
      <g style="clip-path: url(#clippath-7);">
        <path d="M104.31487,35.81056l-.162-.05396c-.159-.05298-.322,.08704-.322,.24402,0,.15796,.16299,.29797,.322,.245l.162-.05396c.07999-.0271,.14899-.10107,.145-.19104s-.06-.16101-.145-.19006" style="fill: #e4877c;"/>
      </g>
    </g>
  </g>
  <g style="opacity: .8;">
    <g style="clip-path: url(#clippath-8);">
      <g style="clip-path: url(#clippath-9);">
        <path d="M122.64177,29.25673l-.12601-.09692-.14799-.06201c-.083-.026-.165-.03003-.247-.01196-.056,.00098-.108,.01501-.157,.04297l-.137,.07996-.111,.11108-.08,.13696c-.039,.07397-.056,.15393-.053,.23901l.022,.16492,.063,.14807,.096,.125,.126,.09802,.148,.06201c.083,.026,.165,.02991,.247,.01099,.057,0,.109-.01404,.157-.04199,.077-.02502,.144-.06799,.2-.12903l.085-.07703c.05-.047,.085-.10095,.106-.16394,.03201-.06201,.047-.12708,.044-.19702-.006-.13098-.049-.26904-.14999-.36108l-.085-.078Z" style="fill: #e4877c;"/>
      </g>
    </g>
  </g>
  <g style="opacity: .8;">
    <g style="clip-path: url(#clippath-10);">
      <g style="clip-path: url(#clippath-11);">
        <path d="M118.65036,46.62965c-1.234,0-1.236,1.91809,0,1.91809,1.23399,0,1.23599-1.91809,0-1.91809" style="fill: #e4877c;"/>
      </g>
    </g>
  </g>
  <g style="opacity: .8;">
    <g style="clip-path: url(#clippath-12);">
      <g style="clip-path: url(#clippath-13);">
        <path d="M130.02427,45.17592l-.15401-.1189c-.119-.06909-.24699-.104-.384-.104-.105-.00403-.203,.01794-.29399,.06592-.09401,.03003-.17601,.08301-.24501,.15698-.07399,.06909-.127,.151-.15799,.24512-.04701,.09094-.069,.18896-.065,.29395,.009,.06702,.01799,.13501,.02699,.20203,.036,.12903,.101,.24097,.196,.33594l.15401,.11902c.119,.06897,.24699,.10303,.38499,.104,.104,.00403,.202-.01794,.29201-.06604,.095-.02991,.177-.08301,.246-.15698,.07399-.06897,.127-.151,.15799-.245,.047-.09094,.069-.18896,.065-.29297-.009-.06799-.01801-.13599-.02699-.203-.037-.12903-.10201-.24097-.196-.33606" style="fill: #e4877c;"/>
      </g>
    </g>
  </g>
  <g style="opacity: .8;">
    <g style="clip-path: url(#clippath-14);">
      <g style="clip-path: url(#clippath-15);">
        <path d="M172.82727,37.05873c-1.27,0-1.27301,1.97412,0,1.97412,1.26999,0,1.27299-1.97412,0-1.97412" style="fill: #e4877c;"/>
      </g>
    </g>
  </g>
  <g style="opacity: .8;">
    <g style="clip-path: url(#clippath-16);">
      <g style="clip-path: url(#clippath-17);">
        <path d="M196.95057,45.26015l.116,.12708,.09999,.05798c.054,.02795,.112,.04102,.173,.03906,.08099-.00403,.157-.02405,.229-.06201l.12599-.11609,.058-.099c.02901-.05396,.041-.11194,.039-.17493l-.01599-.11902-.04601-.10803c-.03999-.06799-.09399-.12195-.161-.16199l-.07201-.04895c-.08499-.05811-.228-.05811-.313,0l-.071,.04895-.127,.11597-.058,.1001c-.028,.05298-.041,.11194-.03799,.17297l.015,.12,.04601,.10791Z" style="fill: #e4877c;"/>
      </g>
    </g>
  </g>
  <g style="opacity: .8;">
    <g style="clip-path: url(#clippath-18);">
      <g style="clip-path: url(#clippath-19);">
        <path d="M157.31936,65.34389c-.132-.12195-.29501-.198-.479-.198-.093-.00391-.18001,.01611-.261,.05811-.084,.02795-.15601,.07397-.217,.13989-.06601,.06201-.11301,.13403-.14,.21802-.04301,.08105-.06201,.16699-.05801,.26099l.024,.18005c.032,.11401,.09001,.21399,.17401,.29895,.13199,.12109,.295,.198,.478,.198,.09399,.00305,.181-.01599,.261-.05896,.084-.02698,.157-.073,.218-.13904,.06599-.06189,.11299-.13391,.14-.2179,.043-.08105,.062-.16809,.058-.26111-.00801-.05994-.01601-.12-.024-.17993-.032-.11499-.09-.21399-.174-.29907" style="fill: #e4877c;"/>
      </g>
    </g>
  </g>
  <path d="M169.43867,119.49525c3.892-14.36798,14.31599-26.53094,25.82799-35.56091,11.56801-9.07397,24.964-13.92603,39.76901-14.20398,10.205-.19006,20.59999,.94897,26.578,10.479,2.03299,3.24194,2.38599,6.95691,5.392,9.54395,4.57397,3.935,11.17398,4.28094,16.70398,6.02997,7.51199,2.37701,15.47702,5.39801,20.91202,11.36902,8.39499,9.22296,12.04199,22.948,10.11899,35.13501-2.04898,12.98199-9.022,25.492-17.84,35.10498-16.72601,18.23602-42.69299,28.79297-67.44899,26.12201-7.606-.82104-14.79001-2.90002-21.43201-6.75104-10.067-5.836-19.446-15.50195-25.017-25.72595-1.67801-3.08105-2.453-6.55402-3.349-9.91803,.14999,.23602,.3,.47198,.45,.70801-8.09399-12.74799-14.847-26.89099-10.66499-42.33203" style="fill: #fff;"/>
  <g style="opacity: .8;">
    <g>
      <path d="M180.10435,161.82802c-.14999-.237-.29999-.47296-.45-.70898,.895,3.36401,1.67,6.83801,3.34801,9.91803,5.571,10.22498,14.95099,19.88995,25.01799,25.72595,6.64101,3.85101,13.82501,5.93103,21.431,6.75104,24.757,2.672,50.72299-7.88605,67.448-26.12103,8.819-9.61499,15.793-22.12396,17.841-35.10596,1.923-12.18701-1.724-25.91205-10.11899-35.13501-5.435-5.97101-13.40002-8.99103-20.91202-11.36804-5.53-1.75-12.129-2.09601-16.70398-6.03101-3.00702-2.58698-3.35901-6.30194-5.39203-9.54291-5.97697-9.53101-16.37297-10.67004-26.57898-10.47998-14.80299,.27795-28.19901,5.13098-39.767,14.20496-11.51201,9.02893-21.937,21.19196-25.828,35.56097-4.183,15.44,2.571,29.58301,10.66499,42.33197m108.037-63.10901c-3.634-.284-7.35599-.00397-10.83401,.474-3.23297,.44403-7.01599,1.23602-10.16397-.01697-3.82001-1.52002-4.01901-5.84802-4.58301-9.33899-.245-1.52802-.46402-3.12097-.746-4.70703,2.62201,5.01202,7.13501,8.05499,12.547,9.57098,4.673,1.30902,9.27701,2.40405,13.78,4.01801m-88.317,89.73303c10.048,5.30298,22.416,6.177,33.47801,3.77698,8.304-1.802,16.22499-5.04297,23.92999-8.56299,7.23999-3.30798,14.38501-6.914,21.01001-11.34998,12.60699-8.44104,24.80399-20.065,30.724-34.30103,1.98398-4.771,3.04199-9.92902,2.646-15.01697,.36099,1.026,.681,2.06696,.93201,3.133,1.76199,7.46497,.84198,15.21198-1.46201,22.453-7.36301,23.14197-27.68701,41.20697-50.46802,48.58899-11.22998,3.63898-23.22198,4.78296-34.91499,3.04095-9.321-1.38898-18.36499-5.74396-25.875-11.76196m-19.11899-29.62604c-1.565-3.40094-4.091-6.14795-5.93401-9.37396-1.828-3.203-2.978-6.716-3.823-10.29303-.696-2.94696-1.261-5.91901-1.43001-8.92297,.216-6.84601,2.34801-13.54303,5.54201-19.56799,6.60899-12.47101,17.235-23.30103,29.30099-30.57599,12.285-7.40601,26.418-9.89099,40.63701-8.48401,1.47099,.146,2.98599,.37207,4.463,.74097,2.83501,1.40002,5.41,2.66309,7.66299,5.026,.46301,.48499,.875,.99402,1.255,1.52209,.689,1.41492,1.14499,2.96289,1.48099,4.53992,.64401,3.021,1.03101,6.10101,1.51401,9.15002,.423,2.672,1.16501,5.41998,3.44199,7.10999,4.46301,3.315,10.91202,1.04901,15.91101,.737,5.836-.36499,11.54102-.08301,16.5,2.55597,1.37201,.83905,2.69199,1.76202,3.93701,2.77203,.06,.05499,.121,.10699,.181,.16296,5.47498,5.07904,8.88599,12.302,8.60498,19.82202-.28598,7.64801-3.871,14.83502-8.26599,20.94299-8.77899,12.19702-21.043,21.36804-34.125,28.50702-6.84799,3.737-14.00899,7.047-21.28699,9.854-7.41,2.85699-15.175,5.078-23.13501,5.58197-7.683,.48804-15.98799-.771-22.83499-4.427-6.77501-3.61597-11.923-9.935-15.51701-16.61298-1.84799-3.43201-2.463-7.25201-4.07999-10.76703" style="fill: #e4877c;"/>
      <path d="M204.27316,184.01491c1.17899,.29205,2.16499,1.28101,3.33499,1.72601,1.174,.44604,2.41299,.74902,3.64799,.96899,2.74301,.48901,5.589,.565,8.36501,.37305,3.19501-.22101,6.435-.52802,9.60201-.99603,1.515-.22296,3.043-.47797,4.528-.85199,1.675-.42297,3.19-1.22803,4.83499-1.70001,.18201-.052,.32401,.18701,.186,.32001-2.339,2.242-6.47099,3.01801-9.55,3.46399-3.32199,.48004-6.718,.85699-10.069,1.05499-2.92599,.17303-5.907,.04504-8.787-.52295-1.931-.38104-5.804-1.22803-6.586-3.34204-.11099-.30096,.21901-.56201,.49301-.49402" style="fill: #e4877c;"/>
      <path d="M198.99347,180.60182c.27399,.06903,.409,.29205,.612,.466,.17999,.15302,.39099,.25104,.618,.31104,.416,.10999,.228,.68201-.173,.62598-.534-.07501-1.45599-.461-1.444-1.10797,.004-.20203,.19301-.34399,.38701-.29504" style="fill: #e4877c;"/>
      <path d="M175.12646,138.21755c-.11801,.11005-.229,.16302-.37901,.22101-.345,.13501-.797-.08899-.97-.39496-3.16199-5.57202-2.51599-14.53204,1.01901-19.80402,.222-.33203,.687-.047,.52699,.30798-1.297,2.87701-1.66499,6.224-1.735,9.34601-.069,3.14001,.073,6.492,1.672,9.28302,.18401,.32098,.14601,.78296-.13399,1.04095" style="fill: #e4877c;"/>
      <path d="M174.79426,140.5851c.062-.06195,.155-.09998,.243-.09998,.062,0,.12,.01501,.17299,.047,.052,.03003,.093,.07098,.123,.12299,.03801,.05103,.076,.10101,.11401,.15204l.03099,.07397c.013,.04004,.015,.08099,.006,.12103-.00899,.065-.03499,.13196-.08499,.177-.09801,.091-.252,.12097-.371,.04797-.05501-.034-.11-.06799-.16501-.10199-.099-.06201-.17599-.17499-.17-.29602,.005-.091,.035-.17798,.10101-.24402" style="fill: #e4877c;"/>
      <path d="M255.75706,132.10542c1.86198-.33899,3.82698-1.19,5.386-2.24799,6.58398-4.46698,8.36798-13.76599,6.53497-21.06799-.53699-2.14404-1.586-6.55499-3.76599-7.70001-1.13998-.59802-2.616,.32001-3.642-.62402-1.08798-1.00195-.63599-2.62799-1.336-3.79199-.65601-1.09296-2.08099-1.61597-3.27899-1.77899-6.021-.82098-12.5-.263-18.248,1.81403-3.87,1.39899-7.521,3.39398-10.81799,5.85199-2.371,1.76599-8.131,6.48499-5.86501,10.07501,.802,1.26996,2.37801,1.789,3.802,1.91998-4.591-.42102-8.685,1.26898-11.608,4.80597-2.31,2.79205-4.067,6.26404-4.40599,9.91302-.382,4.10303,1.56499,7.914,1.71399,11.974,.045,1.19299,.60901,2.33002,1.57901,3.02802,1.433,1.03198,2.45399,.177,3.73999-.401,1.25-.56299,2.77701-.68402,4.136-.76703,3.25301-.19897,6.49901,.284,9.75,.27301,4.71901-.01801,9.45801-.276,14.08101-1.27496,3.12199-.67505,8.73399-1.25604,10.40799-4.47803,.77299-1.487,.42-2.87201-.48399-3.84399-.578-.62201-.11501-1.62799,.73399-1.599,.54001,.01898,1.07401,.013,1.58701-.08002m-2.786-1.09802c-1.62601-.12-3.412-.47998-3.72801,1.73804-.037,.26398,.11101,.60797,.43901,.578,3.295-.30603,3.995,2.87701,1.463,4.565-1.37801,.91901-3.10001,1.32001-4.68401,1.72699-4.214,1.08099-8.452,1.94202-12.80299,2.24103-4.582,.31396-9.645-.54102-14.289,.16895-1.504-.104-3.00101-.02399-4.403,.63104-.271,.12695-.711,.505-1.022,.55896-1.022,.17505-1.72099-.62897-1.963-1.51099-.269-.97998-.125-2.07501-.317-3.07697-.44099-2.28503-1.42999-4.35303-1.62199-6.716-.39801-4.90503,1.987-10.23303,5.513-13.60004,2.039-1.94696,4.38199-2.62,7.129-2.56,1.30899,.02899,2.612,.07703,3.644-.82599,.257-.224,.24001-.67999,0-.90802-.506-.48096-.951-.78101-1.62199-.97699-.597-.17297-1.39001-.02899-1.931-.31201-2.72701-1.42896,.353-5.06195,1.56799-6.35297,2.569-2.72803,5.87199-4.78302,9.18401-6.49103,6.64099-3.42596,13.77499-4.70099,21.19099-3.841,1.69398,.19604,3.60399,.42004,3.886,2.62,.07397,.58099-.194,1.18201-.15302,1.76904,.05499,.75299,.328,1.36896,1.01801,1.74597,.948,.51801,1.87299,.03601,2.862,.07898,1.83099,.07703,2.28101,2.40002,2.79401,3.83203,2.401,6.69501,2.38699,15.14697-2.69702,20.646-2.27298,2.45898-5.96198,4.53101-9.45697,4.27197" style="fill: #e4877c;"/>
      <path d="M230.17077,145.95015c-2.80801-.18799-5.96901,.03503-8.68501-.69098-.17099-.04602-.155-.27899,0-.33197,2.106-.71704,4.52101-.461,6.71901-.45203,2.36099,.01099,4.724,.08801,7.084,.06799,3.194-.02802,6.32899-.40698,9.439-1.10596,3.505-.789,12.49699-2.81903,10.733-8.065-.129-.38403,.485-.65204,.66298-.27905,2.57703,5.401-5.04997,8.06201-8.90398,9.164-2.73,.78003-5.55701,1.354-8.384,1.62201-2.87601,.27203-5.785,.26404-8.66499,.07098" style="fill: #e4877c;"/>
      <path d="M204.48947,149.65913c3.14899-1.35297,6.37199-2.53998,9.786-2.99597,3.66-.48798,7.242,.04901,10.88699,.38098,3.655,.33203,7.34201-.33899,10.961,.24603,.255,.04199,.196,.46399-.06,.45001-3.638-.203-7.241,.58698-10.901,.38599-3.34999-.18298-6.70099-.65698-10.05299-.26099-3.459,.40796-6.76601,1.57495-9.95601,2.93195-2.817,1.19806-5.35399,3.02301-8.15799,4.13702-.209,.08301-.381-.19098-.28-.36499,1.524-2.612,5.116-3.76703,7.774-4.91003" style="fill: #e4877c;"/>
      <path d="M214.71656,115.89961c-1.317,.68903-2.49901,1.61603-3.47301,2.74005-.5,.57697-.946,1.20898-1.27699,1.89996-.26401,.55402-.31801,1.14502-.755,1.58704-.188,.18799-.45601,.07495-.543-.14404-.48-1.198,.96199-2.86096,1.703-3.677,1.12399-1.237,2.51799-2.24298,4.036-2.93298,.35201-.15997,.66299,.34198,.30901,.52698" style="fill: #e4877c;"/>
      <path d="M183.98686,159.7422c2.82799-1.98395,5.536-4.09296,8.30099-6.15796,2.97-2.216,6.004-4.59802,8.123-7.68298,2.287-3.32904,2.515-6.87805,2.388-10.80402-.10701-3.30701-.285-6.54004,1.453-9.492,.12599-.21503,.51799-.07001,.418,.17596-1.54901,3.82605-.49301,8.00604-.433,11.98303,.054,3.58197-1.022,6.802-3.188,9.65399-1.283,1.68903-2.80101,3.164-4.41501,4.53198,3.87601-3.078,10.192-6.31799,10.328-11.66199,.071-2.81897-.937-5.67596-1.207-8.47601-.188-1.95398-.175-4.78595,1.703-5.93695,.112-.06903,.306,.01794,.28799,.164-.187,1.41797-.769,2.64099-.679,4.12195,.10001,1.65302,.64,3.211,1.104,4.784,.74701,2.53302,1.101,5.25702,.067,7.76703-2.086,5.06201-7.873,7.12-11.993,10.09601-.188,.13599-.424-.16199-.26201-.32001-.82199,.672-1.661,1.323-2.506,1.95898-2.70599,2.039-5.729,5.40503-9.196,5.99304-.427,.07196-.658-.44202-.29399-.69806" style="fill: #e4877c;"/>
      <path d="M248.39227,129.75362c-3.869-.08899-8.783-.83295-11.65501-3.69995-2.502-2.49603-3.049-7.03503-1.28699-10.09302,1.15399-2.005,3.41199-3.75098,1.11499-5.94598-1.461-1.39703-3.73-1.77301-5.634-1.25702-.489,.133-.75299-.53601-.338-.802,2.17101-1.39398,5.492-.30902,7.131,1.48901,3.13501,3.43701-1.392,6.04498-1.896,9.36798-.92099,6.08099,4.14,8.56,9.272,9.40503,2.862,.47198,5.77,.396,8.616-.15204,2.726-.52496,5.08199-1.77795,7.69099-2.60095,.31201-.09802,.60501,.35498,.33401,.57397-3.479,2.82703-8.98001,3.81598-13.349,3.71497" style="fill: #e4877c;"/>
      <path d="M240.19886,118.83321c-.136,3.55701,2.974,5.68805,6.17799,6.00305,.14301,.01398,.19,.21997,.035,.26196-4.39601,1.216-8.14101-2.82196-7.483-7.138,.51599-3.39099,5.858-9.17596,.15399-10.68701-.181-.04797-.151-.36096,.04601-.33698,3.855,.46399,4.039,3.40503,2.89301,6.54999-.625,1.716-1.752,3.48804-1.823,5.34698" style="fill: #e4877c;"/>
      <path d="M242.11247,119.2596c-.248-.44196,.32199-.86597,.689-.53198,1.916,1.74603,3.76799,2.70203,6.403,2.828,2.194,.104,4.41699-.30499,6.52699-.87799,.10001-.02698,.175,.13098,.07401,.17401-4.05099,1.73102-11.01801,3.17902-13.69299-1.59204" style="fill: #e4877c;"/>
      <path d="M247.75346,118.287c-.40302,.13-.819,.18103-1.24101,.13-.44299-.05396-.73099-.17096-1.03799-.495-.17101-.18201,0-.47198,.242-.414,.649,.15399,1.211,.40204,1.89499,.263,.33501-.06696,.47101,.41003,.14201,.51599" style="fill: #e4877c;"/>
      <path d="M230.07266,106.79805c-.399,1.37903,.241,2.29401,.89,3.39801,.30699,.52002,.64999,1.08905,.48,1.71899-.814,3.00702-5.735,.39001-5.452-2.11499,.133-1.15796,1.13199,.24103,1.31999,.56104,.438,.74396,1.23601,2.12097,2.267,1.375,.80101-.58002-.004-1.362-.299-1.98102-.476-.99597-.56599-2.185-.18401-3.22601,.895-2.43298,3.729-3.448,5.968-4.17902,.123-.03998,.20399,.14905,.088,.20905-1.784,.92596-4.47099,2.13995-5.07799,4.23895" style="fill: #e4877c;"/>
      <path d="M231.25387,118.12465c.13699-.22595,.47499-.07495,.41899,.177-.55,2.44702-.44,4.47302,.983,6.617,1.149,1.73303,2.989,3.39301,4.783,4.46002,.254,.151,.08899,.586-.20601,.48901-2.58699-.85303-4.69899-2.27399-5.96899-4.81299-1.078-2.15405-1.285-4.82104-.00999-6.93005" style="fill: #e4877c;"/>
      <path d="M230.72836,129.30251c.55199,.53406,1.26199,.87402,1.97299,1.14905,.19099,.07501,.17799,.37396-.05099,.37598-.46001,.00299-.838-.05402-1.242-.27997-.401-.224-.75-.52802-1.058-.867-.23-.25403,.129-.61902,.37801-.37805" style="fill: #e4877c;"/>
      <path d="M256.30017,93.18275c-4.05101-1.43896-9.12801-.28296-13.26801,.30603-1.924,.27399-3.841,.62701-5.70601,1.18597-1.157,.34601-2.306,.75702-3.37299,1.32904-.82301,.44196-1.51401,1.12799-2.36,1.50598-.362,.16199-.675-.164-.522-.52197,.72499-1.68903,3.28-2.52704,4.88699-3.09204,2.201-.77496,4.52701-1.25696,6.838-1.55798,4.33101-.565,9.556-1.43298,13.68001,.427,.23499,.10602,.069,.505-.17599,.41797" style="fill: #e4877c;"/>
      <path d="M240.64187,90.94795c-1.29401-.03296-2.57201,.28503-3.78801,.70703-.65199,.22601-1.29601,.48901-1.884,.85303-.424,.26196-.71199,.63898-1.198,.745-.239,.05298-.41899-.14301-.37599-.37604,.196-1.04498,2.021-1.57098,2.89-1.85297,1.37599-.44403,2.912-.68604,4.356-.534,.28699,.02997,.30099,.466,0,.45795" style="fill: #e4877c;"/>
    </g>
  </g>
  <path d="M39.83136,188.07407c93.38,2.01398,198.82501,22.82001,293.73602,24.91602,138.55896,3.05896,268.52094-15.12299,394.31696-30.15802,25.987-3.10498,52.68103-6.13501,81.18298-7.05402,29.81305-.95996,60.02405,.44305,89.13702,2.33405,112.97693,7.33795,216.84589,21.96497,329.40692,29.703,121.52307,8.35297,249.18005,8.42596,375.09399,8.44299,84.31897,.01099,170.03003-.02704,250.86401-6.10602,50.43311-3.79279,98.09088-9.8761,146.43066-15.23425v-5.64404c-93.45685,8.32495-188.90277,14.90546-287.44568,15.83832-75.99597,.71899-151.79797-1.95599-227.00903-4.81-89.5769-3.39905-179.36389-7.08301-265.83789-13.91302-75.09509-5.92999-147.79407-14.23602-225.46204-17.38599-110.01196-4.461-215.52399-1.26703-312.34497,12.70197-49.13599,7.08905-101.48901,14.07703-153.88196,19.46405-85.72302,8.81396-189.90704,12.00696-269.11603-.104-39.32697-6.013-72.58899-14.22205-109.245-21.237-36.65594-7.013-78.93298-13.00604-124.83295-13.43005-4.85822-.0448-14.0235,.2865-24.8244,.92462v20.94623c12.32654-.30566,25.66077-.50055,39.83136-.19482Z" style="fill: #e4877c;"/>
</svg>